%TF.GenerationSoftware,KiCad,Pcbnew,7.0.6*%
%TF.CreationDate,2023-08-17T07:35:18+09:30*%
%TF.ProjectId,spe-sink,7370652d-7369-46e6-9b2e-6b696361645f,V1.0*%
%TF.SameCoordinates,Original*%
%TF.FileFunction,Other,Comment*%
%FSLAX46Y46*%
G04 Gerber Fmt 4.6, Leading zero omitted, Abs format (unit mm)*
G04 Created by KiCad (PCBNEW 7.0.6) date 2023-08-17 07:35:18*
%MOMM*%
%LPD*%
G01*
G04 APERTURE LIST*
%ADD10C,0.300000*%
%ADD11C,0.750000*%
G04 APERTURE END LIST*
D10*
X191768796Y-50174401D02*
X191911653Y-50007734D01*
X191911653Y-50007734D02*
X192197368Y-49841067D01*
X192197368Y-49841067D02*
X192911653Y-49841067D01*
X192911653Y-49841067D02*
X193197368Y-50007734D01*
X193197368Y-50007734D02*
X193340225Y-50174401D01*
X193340225Y-50174401D02*
X193483082Y-50507734D01*
X193483082Y-50507734D02*
X193483082Y-50841067D01*
X193483082Y-50841067D02*
X193340225Y-51341067D01*
X193340225Y-51341067D02*
X191625939Y-53341067D01*
X191625939Y-53341067D02*
X193483082Y-53341067D01*
X198483082Y-53341067D02*
X197054510Y-53341067D01*
X197054510Y-53341067D02*
X197054510Y-49841067D01*
X200768796Y-53341067D02*
X200768796Y-51507734D01*
X200768796Y-51507734D02*
X200625938Y-51174401D01*
X200625938Y-51174401D02*
X200340224Y-51007734D01*
X200340224Y-51007734D02*
X199768796Y-51007734D01*
X199768796Y-51007734D02*
X199483081Y-51174401D01*
X200768796Y-53174401D02*
X200483081Y-53341067D01*
X200483081Y-53341067D02*
X199768796Y-53341067D01*
X199768796Y-53341067D02*
X199483081Y-53174401D01*
X199483081Y-53174401D02*
X199340224Y-52841067D01*
X199340224Y-52841067D02*
X199340224Y-52507734D01*
X199340224Y-52507734D02*
X199483081Y-52174401D01*
X199483081Y-52174401D02*
X199768796Y-52007734D01*
X199768796Y-52007734D02*
X200483081Y-52007734D01*
X200483081Y-52007734D02*
X200768796Y-51841067D01*
X201911653Y-51007734D02*
X202625939Y-53341067D01*
X203340224Y-51007734D02*
X202625939Y-53341067D01*
X202625939Y-53341067D02*
X202340224Y-54174401D01*
X202340224Y-54174401D02*
X202197367Y-54341067D01*
X202197367Y-54341067D02*
X201911653Y-54507734D01*
X205625938Y-53174401D02*
X205340224Y-53341067D01*
X205340224Y-53341067D02*
X204768796Y-53341067D01*
X204768796Y-53341067D02*
X204483081Y-53174401D01*
X204483081Y-53174401D02*
X204340224Y-52841067D01*
X204340224Y-52841067D02*
X204340224Y-51507734D01*
X204340224Y-51507734D02*
X204483081Y-51174401D01*
X204483081Y-51174401D02*
X204768796Y-51007734D01*
X204768796Y-51007734D02*
X205340224Y-51007734D01*
X205340224Y-51007734D02*
X205625938Y-51174401D01*
X205625938Y-51174401D02*
X205768796Y-51507734D01*
X205768796Y-51507734D02*
X205768796Y-51841067D01*
X205768796Y-51841067D02*
X204340224Y-52174401D01*
X207054510Y-53341067D02*
X207054510Y-51007734D01*
X207054510Y-51674401D02*
X207197367Y-51341067D01*
X207197367Y-51341067D02*
X207340225Y-51174401D01*
X207340225Y-51174401D02*
X207625939Y-51007734D01*
X207625939Y-51007734D02*
X207911653Y-51007734D01*
X192483082Y-55476067D02*
X192768796Y-55476067D01*
X192768796Y-55476067D02*
X193054510Y-55642734D01*
X193054510Y-55642734D02*
X193197368Y-55809401D01*
X193197368Y-55809401D02*
X193340225Y-56142734D01*
X193340225Y-56142734D02*
X193483082Y-56809401D01*
X193483082Y-56809401D02*
X193483082Y-57642734D01*
X193483082Y-57642734D02*
X193340225Y-58309401D01*
X193340225Y-58309401D02*
X193197368Y-58642734D01*
X193197368Y-58642734D02*
X193054510Y-58809401D01*
X193054510Y-58809401D02*
X192768796Y-58976067D01*
X192768796Y-58976067D02*
X192483082Y-58976067D01*
X192483082Y-58976067D02*
X192197368Y-58809401D01*
X192197368Y-58809401D02*
X192054510Y-58642734D01*
X192054510Y-58642734D02*
X191911653Y-58309401D01*
X191911653Y-58309401D02*
X191768796Y-57642734D01*
X191768796Y-57642734D02*
X191768796Y-56809401D01*
X191768796Y-56809401D02*
X191911653Y-56142734D01*
X191911653Y-56142734D02*
X192054510Y-55809401D01*
X192054510Y-55809401D02*
X192197368Y-55642734D01*
X192197368Y-55642734D02*
X192483082Y-55476067D01*
X194768796Y-58642734D02*
X194911653Y-58809401D01*
X194911653Y-58809401D02*
X194768796Y-58976067D01*
X194768796Y-58976067D02*
X194625939Y-58809401D01*
X194625939Y-58809401D02*
X194768796Y-58642734D01*
X194768796Y-58642734D02*
X194768796Y-58976067D01*
X196625939Y-56976067D02*
X196340224Y-56809401D01*
X196340224Y-56809401D02*
X196197367Y-56642734D01*
X196197367Y-56642734D02*
X196054510Y-56309401D01*
X196054510Y-56309401D02*
X196054510Y-56142734D01*
X196054510Y-56142734D02*
X196197367Y-55809401D01*
X196197367Y-55809401D02*
X196340224Y-55642734D01*
X196340224Y-55642734D02*
X196625939Y-55476067D01*
X196625939Y-55476067D02*
X197197367Y-55476067D01*
X197197367Y-55476067D02*
X197483082Y-55642734D01*
X197483082Y-55642734D02*
X197625939Y-55809401D01*
X197625939Y-55809401D02*
X197768796Y-56142734D01*
X197768796Y-56142734D02*
X197768796Y-56309401D01*
X197768796Y-56309401D02*
X197625939Y-56642734D01*
X197625939Y-56642734D02*
X197483082Y-56809401D01*
X197483082Y-56809401D02*
X197197367Y-56976067D01*
X197197367Y-56976067D02*
X196625939Y-56976067D01*
X196625939Y-56976067D02*
X196340224Y-57142734D01*
X196340224Y-57142734D02*
X196197367Y-57309401D01*
X196197367Y-57309401D02*
X196054510Y-57642734D01*
X196054510Y-57642734D02*
X196054510Y-58309401D01*
X196054510Y-58309401D02*
X196197367Y-58642734D01*
X196197367Y-58642734D02*
X196340224Y-58809401D01*
X196340224Y-58809401D02*
X196625939Y-58976067D01*
X196625939Y-58976067D02*
X197197367Y-58976067D01*
X197197367Y-58976067D02*
X197483082Y-58809401D01*
X197483082Y-58809401D02*
X197625939Y-58642734D01*
X197625939Y-58642734D02*
X197768796Y-58309401D01*
X197768796Y-58309401D02*
X197768796Y-57642734D01*
X197768796Y-57642734D02*
X197625939Y-57309401D01*
X197625939Y-57309401D02*
X197483082Y-57142734D01*
X197483082Y-57142734D02*
X197197367Y-56976067D01*
X199054510Y-58976067D02*
X199054510Y-56642734D01*
X199054510Y-56976067D02*
X199197367Y-56809401D01*
X199197367Y-56809401D02*
X199483082Y-56642734D01*
X199483082Y-56642734D02*
X199911653Y-56642734D01*
X199911653Y-56642734D02*
X200197367Y-56809401D01*
X200197367Y-56809401D02*
X200340225Y-57142734D01*
X200340225Y-57142734D02*
X200340225Y-58976067D01*
X200340225Y-57142734D02*
X200483082Y-56809401D01*
X200483082Y-56809401D02*
X200768796Y-56642734D01*
X200768796Y-56642734D02*
X201197367Y-56642734D01*
X201197367Y-56642734D02*
X201483082Y-56809401D01*
X201483082Y-56809401D02*
X201625939Y-57142734D01*
X201625939Y-57142734D02*
X201625939Y-58976067D01*
X203054510Y-58976067D02*
X203054510Y-56642734D01*
X203054510Y-56976067D02*
X203197367Y-56809401D01*
X203197367Y-56809401D02*
X203483082Y-56642734D01*
X203483082Y-56642734D02*
X203911653Y-56642734D01*
X203911653Y-56642734D02*
X204197367Y-56809401D01*
X204197367Y-56809401D02*
X204340225Y-57142734D01*
X204340225Y-57142734D02*
X204340225Y-58976067D01*
X204340225Y-57142734D02*
X204483082Y-56809401D01*
X204483082Y-56809401D02*
X204768796Y-56642734D01*
X204768796Y-56642734D02*
X205197367Y-56642734D01*
X205197367Y-56642734D02*
X205483082Y-56809401D01*
X205483082Y-56809401D02*
X205625939Y-57142734D01*
X205625939Y-57142734D02*
X205625939Y-58976067D01*
X209340224Y-56642734D02*
X211625939Y-57642734D01*
X211625939Y-57642734D02*
X209340224Y-58642734D01*
X212625939Y-55476067D02*
X214340225Y-55476067D01*
X213483082Y-58976067D02*
X213483082Y-55476067D01*
X216911653Y-55642734D02*
X216625939Y-55476067D01*
X216625939Y-55476067D02*
X216197367Y-55476067D01*
X216197367Y-55476067D02*
X215768796Y-55642734D01*
X215768796Y-55642734D02*
X215483081Y-55976067D01*
X215483081Y-55976067D02*
X215340224Y-56309401D01*
X215340224Y-56309401D02*
X215197367Y-56976067D01*
X215197367Y-56976067D02*
X215197367Y-57476067D01*
X215197367Y-57476067D02*
X215340224Y-58142734D01*
X215340224Y-58142734D02*
X215483081Y-58476067D01*
X215483081Y-58476067D02*
X215768796Y-58809401D01*
X215768796Y-58809401D02*
X216197367Y-58976067D01*
X216197367Y-58976067D02*
X216483081Y-58976067D01*
X216483081Y-58976067D02*
X216911653Y-58809401D01*
X216911653Y-58809401D02*
X217054510Y-58642734D01*
X217054510Y-58642734D02*
X217054510Y-57476067D01*
X217054510Y-57476067D02*
X216483081Y-57476067D01*
X219911653Y-58976067D02*
X218197367Y-58976067D01*
X219054510Y-58976067D02*
X219054510Y-55476067D01*
X219054510Y-55476067D02*
X218768796Y-55976067D01*
X218768796Y-55976067D02*
X218483081Y-56309401D01*
X218483081Y-56309401D02*
X218197367Y-56476067D01*
X220911653Y-55476067D02*
X222768796Y-55476067D01*
X222768796Y-55476067D02*
X221768796Y-56809401D01*
X221768796Y-56809401D02*
X222197367Y-56809401D01*
X222197367Y-56809401D02*
X222483082Y-56976067D01*
X222483082Y-56976067D02*
X222625939Y-57142734D01*
X222625939Y-57142734D02*
X222768796Y-57476067D01*
X222768796Y-57476067D02*
X222768796Y-58309401D01*
X222768796Y-58309401D02*
X222625939Y-58642734D01*
X222625939Y-58642734D02*
X222483082Y-58809401D01*
X222483082Y-58809401D02*
X222197367Y-58976067D01*
X222197367Y-58976067D02*
X221340224Y-58976067D01*
X221340224Y-58976067D02*
X221054510Y-58809401D01*
X221054510Y-58809401D02*
X220911653Y-58642734D01*
X225483082Y-55476067D02*
X224054510Y-55476067D01*
X224054510Y-55476067D02*
X223911653Y-57142734D01*
X223911653Y-57142734D02*
X224054510Y-56976067D01*
X224054510Y-56976067D02*
X224340225Y-56809401D01*
X224340225Y-56809401D02*
X225054510Y-56809401D01*
X225054510Y-56809401D02*
X225340225Y-56976067D01*
X225340225Y-56976067D02*
X225483082Y-57142734D01*
X225483082Y-57142734D02*
X225625939Y-57476067D01*
X225625939Y-57476067D02*
X225625939Y-58309401D01*
X225625939Y-58309401D02*
X225483082Y-58642734D01*
X225483082Y-58642734D02*
X225340225Y-58809401D01*
X225340225Y-58809401D02*
X225054510Y-58976067D01*
X225054510Y-58976067D02*
X224340225Y-58976067D01*
X224340225Y-58976067D02*
X224054510Y-58809401D01*
X224054510Y-58809401D02*
X223911653Y-58642734D01*
X193483082Y-64611067D02*
X191768796Y-64611067D01*
X192625939Y-64611067D02*
X192625939Y-61111067D01*
X192625939Y-61111067D02*
X192340225Y-61611067D01*
X192340225Y-61611067D02*
X192054510Y-61944401D01*
X192054510Y-61944401D02*
X191768796Y-62111067D01*
X195197368Y-64611067D02*
X194911653Y-64444401D01*
X194911653Y-64444401D02*
X194768796Y-64277734D01*
X194768796Y-64277734D02*
X194625939Y-63944401D01*
X194625939Y-63944401D02*
X194625939Y-62944401D01*
X194625939Y-62944401D02*
X194768796Y-62611067D01*
X194768796Y-62611067D02*
X194911653Y-62444401D01*
X194911653Y-62444401D02*
X195197368Y-62277734D01*
X195197368Y-62277734D02*
X195625939Y-62277734D01*
X195625939Y-62277734D02*
X195911653Y-62444401D01*
X195911653Y-62444401D02*
X196054511Y-62611067D01*
X196054511Y-62611067D02*
X196197368Y-62944401D01*
X196197368Y-62944401D02*
X196197368Y-63944401D01*
X196197368Y-63944401D02*
X196054511Y-64277734D01*
X196054511Y-64277734D02*
X195911653Y-64444401D01*
X195911653Y-64444401D02*
X195625939Y-64611067D01*
X195625939Y-64611067D02*
X195197368Y-64611067D01*
X197197368Y-62277734D02*
X198768797Y-62277734D01*
X198768797Y-62277734D02*
X197197368Y-64611067D01*
X197197368Y-64611067D02*
X198768797Y-64611067D01*
X203483082Y-64444401D02*
X203197367Y-64611067D01*
X203197367Y-64611067D02*
X202625939Y-64611067D01*
X202625939Y-64611067D02*
X202340224Y-64444401D01*
X202340224Y-64444401D02*
X202197367Y-64277734D01*
X202197367Y-64277734D02*
X202054510Y-63944401D01*
X202054510Y-63944401D02*
X202054510Y-62944401D01*
X202054510Y-62944401D02*
X202197367Y-62611067D01*
X202197367Y-62611067D02*
X202340224Y-62444401D01*
X202340224Y-62444401D02*
X202625939Y-62277734D01*
X202625939Y-62277734D02*
X203197367Y-62277734D01*
X203197367Y-62277734D02*
X203483082Y-62444401D01*
X205197368Y-64611067D02*
X204911653Y-64444401D01*
X204911653Y-64444401D02*
X204768796Y-64277734D01*
X204768796Y-64277734D02*
X204625939Y-63944401D01*
X204625939Y-63944401D02*
X204625939Y-62944401D01*
X204625939Y-62944401D02*
X204768796Y-62611067D01*
X204768796Y-62611067D02*
X204911653Y-62444401D01*
X204911653Y-62444401D02*
X205197368Y-62277734D01*
X205197368Y-62277734D02*
X205625939Y-62277734D01*
X205625939Y-62277734D02*
X205911653Y-62444401D01*
X205911653Y-62444401D02*
X206054511Y-62611067D01*
X206054511Y-62611067D02*
X206197368Y-62944401D01*
X206197368Y-62944401D02*
X206197368Y-63944401D01*
X206197368Y-63944401D02*
X206054511Y-64277734D01*
X206054511Y-64277734D02*
X205911653Y-64444401D01*
X205911653Y-64444401D02*
X205625939Y-64611067D01*
X205625939Y-64611067D02*
X205197368Y-64611067D01*
X207483082Y-62277734D02*
X207483082Y-65777734D01*
X207483082Y-62444401D02*
X207768797Y-62277734D01*
X207768797Y-62277734D02*
X208340225Y-62277734D01*
X208340225Y-62277734D02*
X208625939Y-62444401D01*
X208625939Y-62444401D02*
X208768797Y-62611067D01*
X208768797Y-62611067D02*
X208911654Y-62944401D01*
X208911654Y-62944401D02*
X208911654Y-63944401D01*
X208911654Y-63944401D02*
X208768797Y-64277734D01*
X208768797Y-64277734D02*
X208625939Y-64444401D01*
X208625939Y-64444401D02*
X208340225Y-64611067D01*
X208340225Y-64611067D02*
X207768797Y-64611067D01*
X207768797Y-64611067D02*
X207483082Y-64444401D01*
X210197368Y-62277734D02*
X210197368Y-65777734D01*
X210197368Y-62444401D02*
X210483083Y-62277734D01*
X210483083Y-62277734D02*
X211054511Y-62277734D01*
X211054511Y-62277734D02*
X211340225Y-62444401D01*
X211340225Y-62444401D02*
X211483083Y-62611067D01*
X211483083Y-62611067D02*
X211625940Y-62944401D01*
X211625940Y-62944401D02*
X211625940Y-63944401D01*
X211625940Y-63944401D02*
X211483083Y-64277734D01*
X211483083Y-64277734D02*
X211340225Y-64444401D01*
X211340225Y-64444401D02*
X211054511Y-64611067D01*
X211054511Y-64611067D02*
X210483083Y-64611067D01*
X210483083Y-64611067D02*
X210197368Y-64444401D01*
X214054511Y-64444401D02*
X213768797Y-64611067D01*
X213768797Y-64611067D02*
X213197369Y-64611067D01*
X213197369Y-64611067D02*
X212911654Y-64444401D01*
X212911654Y-64444401D02*
X212768797Y-64111067D01*
X212768797Y-64111067D02*
X212768797Y-62777734D01*
X212768797Y-62777734D02*
X212911654Y-62444401D01*
X212911654Y-62444401D02*
X213197369Y-62277734D01*
X213197369Y-62277734D02*
X213768797Y-62277734D01*
X213768797Y-62277734D02*
X214054511Y-62444401D01*
X214054511Y-62444401D02*
X214197369Y-62777734D01*
X214197369Y-62777734D02*
X214197369Y-63111067D01*
X214197369Y-63111067D02*
X212768797Y-63444401D01*
X215483083Y-64611067D02*
X215483083Y-62277734D01*
X215483083Y-62944401D02*
X215625940Y-62611067D01*
X215625940Y-62611067D02*
X215768798Y-62444401D01*
X215768798Y-62444401D02*
X216054512Y-62277734D01*
X216054512Y-62277734D02*
X216340226Y-62277734D01*
X220054512Y-64611067D02*
X219768797Y-64444401D01*
X219768797Y-64444401D02*
X219625940Y-64111067D01*
X219625940Y-64111067D02*
X219625940Y-61111067D01*
X222483084Y-64611067D02*
X222483084Y-62777734D01*
X222483084Y-62777734D02*
X222340226Y-62444401D01*
X222340226Y-62444401D02*
X222054512Y-62277734D01*
X222054512Y-62277734D02*
X221483084Y-62277734D01*
X221483084Y-62277734D02*
X221197369Y-62444401D01*
X222483084Y-64444401D02*
X222197369Y-64611067D01*
X222197369Y-64611067D02*
X221483084Y-64611067D01*
X221483084Y-64611067D02*
X221197369Y-64444401D01*
X221197369Y-64444401D02*
X221054512Y-64111067D01*
X221054512Y-64111067D02*
X221054512Y-63777734D01*
X221054512Y-63777734D02*
X221197369Y-63444401D01*
X221197369Y-63444401D02*
X221483084Y-63277734D01*
X221483084Y-63277734D02*
X222197369Y-63277734D01*
X222197369Y-63277734D02*
X222483084Y-63111067D01*
X223625941Y-62277734D02*
X224340227Y-64611067D01*
X225054512Y-62277734D02*
X224340227Y-64611067D01*
X224340227Y-64611067D02*
X224054512Y-65444401D01*
X224054512Y-65444401D02*
X223911655Y-65611067D01*
X223911655Y-65611067D02*
X223625941Y-65777734D01*
X227340226Y-64444401D02*
X227054512Y-64611067D01*
X227054512Y-64611067D02*
X226483084Y-64611067D01*
X226483084Y-64611067D02*
X226197369Y-64444401D01*
X226197369Y-64444401D02*
X226054512Y-64111067D01*
X226054512Y-64111067D02*
X226054512Y-62777734D01*
X226054512Y-62777734D02*
X226197369Y-62444401D01*
X226197369Y-62444401D02*
X226483084Y-62277734D01*
X226483084Y-62277734D02*
X227054512Y-62277734D01*
X227054512Y-62277734D02*
X227340226Y-62444401D01*
X227340226Y-62444401D02*
X227483084Y-62777734D01*
X227483084Y-62777734D02*
X227483084Y-63111067D01*
X227483084Y-63111067D02*
X226054512Y-63444401D01*
X228768798Y-64611067D02*
X228768798Y-62277734D01*
X228768798Y-62944401D02*
X228911655Y-62611067D01*
X228911655Y-62611067D02*
X229054513Y-62444401D01*
X229054513Y-62444401D02*
X229340227Y-62277734D01*
X229340227Y-62277734D02*
X229625941Y-62277734D01*
X230483084Y-64444401D02*
X230768798Y-64611067D01*
X230768798Y-64611067D02*
X231340227Y-64611067D01*
X231340227Y-64611067D02*
X231625941Y-64444401D01*
X231625941Y-64444401D02*
X231768798Y-64111067D01*
X231768798Y-64111067D02*
X231768798Y-63944401D01*
X231768798Y-63944401D02*
X231625941Y-63611067D01*
X231625941Y-63611067D02*
X231340227Y-63444401D01*
X231340227Y-63444401D02*
X230911656Y-63444401D01*
X230911656Y-63444401D02*
X230625941Y-63277734D01*
X230625941Y-63277734D02*
X230483084Y-62944401D01*
X230483084Y-62944401D02*
X230483084Y-62777734D01*
X230483084Y-62777734D02*
X230625941Y-62444401D01*
X230625941Y-62444401D02*
X230911656Y-62277734D01*
X230911656Y-62277734D02*
X231340227Y-62277734D01*
X231340227Y-62277734D02*
X231625941Y-62444401D01*
X193197368Y-66746067D02*
X192625939Y-66746067D01*
X192625939Y-66746067D02*
X192340225Y-66912734D01*
X192340225Y-66912734D02*
X192197368Y-67079401D01*
X192197368Y-67079401D02*
X191911653Y-67579401D01*
X191911653Y-67579401D02*
X191768796Y-68246067D01*
X191768796Y-68246067D02*
X191768796Y-69579401D01*
X191768796Y-69579401D02*
X191911653Y-69912734D01*
X191911653Y-69912734D02*
X192054510Y-70079401D01*
X192054510Y-70079401D02*
X192340225Y-70246067D01*
X192340225Y-70246067D02*
X192911653Y-70246067D01*
X192911653Y-70246067D02*
X193197368Y-70079401D01*
X193197368Y-70079401D02*
X193340225Y-69912734D01*
X193340225Y-69912734D02*
X193483082Y-69579401D01*
X193483082Y-69579401D02*
X193483082Y-68746067D01*
X193483082Y-68746067D02*
X193340225Y-68412734D01*
X193340225Y-68412734D02*
X193197368Y-68246067D01*
X193197368Y-68246067D02*
X192911653Y-68079401D01*
X192911653Y-68079401D02*
X192340225Y-68079401D01*
X192340225Y-68079401D02*
X192054510Y-68246067D01*
X192054510Y-68246067D02*
X191911653Y-68412734D01*
X191911653Y-68412734D02*
X191768796Y-68746067D01*
X196054511Y-67912734D02*
X196054511Y-70246067D01*
X195340225Y-66579401D02*
X194625939Y-69079401D01*
X194625939Y-69079401D02*
X196483082Y-69079401D01*
X199625939Y-70246067D02*
X201197368Y-67912734D01*
X199625939Y-67912734D02*
X201197368Y-70246067D01*
X204340224Y-66746067D02*
X206197367Y-66746067D01*
X206197367Y-66746067D02*
X205197367Y-68079401D01*
X205197367Y-68079401D02*
X205625938Y-68079401D01*
X205625938Y-68079401D02*
X205911653Y-68246067D01*
X205911653Y-68246067D02*
X206054510Y-68412734D01*
X206054510Y-68412734D02*
X206197367Y-68746067D01*
X206197367Y-68746067D02*
X206197367Y-69579401D01*
X206197367Y-69579401D02*
X206054510Y-69912734D01*
X206054510Y-69912734D02*
X205911653Y-70079401D01*
X205911653Y-70079401D02*
X205625938Y-70246067D01*
X205625938Y-70246067D02*
X204768795Y-70246067D01*
X204768795Y-70246067D02*
X204483081Y-70079401D01*
X204483081Y-70079401D02*
X204340224Y-69912734D01*
X207911653Y-68246067D02*
X207625938Y-68079401D01*
X207625938Y-68079401D02*
X207483081Y-67912734D01*
X207483081Y-67912734D02*
X207340224Y-67579401D01*
X207340224Y-67579401D02*
X207340224Y-67412734D01*
X207340224Y-67412734D02*
X207483081Y-67079401D01*
X207483081Y-67079401D02*
X207625938Y-66912734D01*
X207625938Y-66912734D02*
X207911653Y-66746067D01*
X207911653Y-66746067D02*
X208483081Y-66746067D01*
X208483081Y-66746067D02*
X208768796Y-66912734D01*
X208768796Y-66912734D02*
X208911653Y-67079401D01*
X208911653Y-67079401D02*
X209054510Y-67412734D01*
X209054510Y-67412734D02*
X209054510Y-67579401D01*
X209054510Y-67579401D02*
X208911653Y-67912734D01*
X208911653Y-67912734D02*
X208768796Y-68079401D01*
X208768796Y-68079401D02*
X208483081Y-68246067D01*
X208483081Y-68246067D02*
X207911653Y-68246067D01*
X207911653Y-68246067D02*
X207625938Y-68412734D01*
X207625938Y-68412734D02*
X207483081Y-68579401D01*
X207483081Y-68579401D02*
X207340224Y-68912734D01*
X207340224Y-68912734D02*
X207340224Y-69579401D01*
X207340224Y-69579401D02*
X207483081Y-69912734D01*
X207483081Y-69912734D02*
X207625938Y-70079401D01*
X207625938Y-70079401D02*
X207911653Y-70246067D01*
X207911653Y-70246067D02*
X208483081Y-70246067D01*
X208483081Y-70246067D02*
X208768796Y-70079401D01*
X208768796Y-70079401D02*
X208911653Y-69912734D01*
X208911653Y-69912734D02*
X209054510Y-69579401D01*
X209054510Y-69579401D02*
X209054510Y-68912734D01*
X209054510Y-68912734D02*
X208911653Y-68579401D01*
X208911653Y-68579401D02*
X208768796Y-68412734D01*
X208768796Y-68412734D02*
X208483081Y-68246067D01*
X212625938Y-70246067D02*
X212625938Y-67912734D01*
X212625938Y-68246067D02*
X212768795Y-68079401D01*
X212768795Y-68079401D02*
X213054510Y-67912734D01*
X213054510Y-67912734D02*
X213483081Y-67912734D01*
X213483081Y-67912734D02*
X213768795Y-68079401D01*
X213768795Y-68079401D02*
X213911653Y-68412734D01*
X213911653Y-68412734D02*
X213911653Y-70246067D01*
X213911653Y-68412734D02*
X214054510Y-68079401D01*
X214054510Y-68079401D02*
X214340224Y-67912734D01*
X214340224Y-67912734D02*
X214768795Y-67912734D01*
X214768795Y-67912734D02*
X215054510Y-68079401D01*
X215054510Y-68079401D02*
X215197367Y-68412734D01*
X215197367Y-68412734D02*
X215197367Y-70246067D01*
X216625938Y-70246067D02*
X216625938Y-67912734D01*
X216625938Y-68246067D02*
X216768795Y-68079401D01*
X216768795Y-68079401D02*
X217054510Y-67912734D01*
X217054510Y-67912734D02*
X217483081Y-67912734D01*
X217483081Y-67912734D02*
X217768795Y-68079401D01*
X217768795Y-68079401D02*
X217911653Y-68412734D01*
X217911653Y-68412734D02*
X217911653Y-70246067D01*
X217911653Y-68412734D02*
X218054510Y-68079401D01*
X218054510Y-68079401D02*
X218340224Y-67912734D01*
X218340224Y-67912734D02*
X218768795Y-67912734D01*
X218768795Y-67912734D02*
X219054510Y-68079401D01*
X219054510Y-68079401D02*
X219197367Y-68412734D01*
X219197367Y-68412734D02*
X219197367Y-70246067D01*
X191911653Y-81516067D02*
X191911653Y-78016067D01*
X192911653Y-79182734D02*
X194054510Y-79182734D01*
X193340224Y-81516067D02*
X193340224Y-78516067D01*
X193340224Y-78516067D02*
X193483081Y-78182734D01*
X193483081Y-78182734D02*
X193768796Y-78016067D01*
X193768796Y-78016067D02*
X194054510Y-78016067D01*
X198625939Y-81516067D02*
X198625939Y-79682734D01*
X198625939Y-79682734D02*
X198483081Y-79349401D01*
X198483081Y-79349401D02*
X198197367Y-79182734D01*
X198197367Y-79182734D02*
X197625939Y-79182734D01*
X197625939Y-79182734D02*
X197340224Y-79349401D01*
X198625939Y-81349401D02*
X198340224Y-81516067D01*
X198340224Y-81516067D02*
X197625939Y-81516067D01*
X197625939Y-81516067D02*
X197340224Y-81349401D01*
X197340224Y-81349401D02*
X197197367Y-81016067D01*
X197197367Y-81016067D02*
X197197367Y-80682734D01*
X197197367Y-80682734D02*
X197340224Y-80349401D01*
X197340224Y-80349401D02*
X197625939Y-80182734D01*
X197625939Y-80182734D02*
X198340224Y-80182734D01*
X198340224Y-80182734D02*
X198625939Y-80016067D01*
X199768796Y-79182734D02*
X200483082Y-81516067D01*
X200483082Y-81516067D02*
X201197367Y-79182734D01*
X203625939Y-81516067D02*
X203625939Y-79682734D01*
X203625939Y-79682734D02*
X203483081Y-79349401D01*
X203483081Y-79349401D02*
X203197367Y-79182734D01*
X203197367Y-79182734D02*
X202625939Y-79182734D01*
X202625939Y-79182734D02*
X202340224Y-79349401D01*
X203625939Y-81349401D02*
X203340224Y-81516067D01*
X203340224Y-81516067D02*
X202625939Y-81516067D01*
X202625939Y-81516067D02*
X202340224Y-81349401D01*
X202340224Y-81349401D02*
X202197367Y-81016067D01*
X202197367Y-81016067D02*
X202197367Y-80682734D01*
X202197367Y-80682734D02*
X202340224Y-80349401D01*
X202340224Y-80349401D02*
X202625939Y-80182734D01*
X202625939Y-80182734D02*
X203340224Y-80182734D01*
X203340224Y-80182734D02*
X203625939Y-80016067D01*
X205054510Y-81516067D02*
X205054510Y-79182734D01*
X205054510Y-78016067D02*
X204911653Y-78182734D01*
X204911653Y-78182734D02*
X205054510Y-78349401D01*
X205054510Y-78349401D02*
X205197367Y-78182734D01*
X205197367Y-78182734D02*
X205054510Y-78016067D01*
X205054510Y-78016067D02*
X205054510Y-78349401D01*
X206911653Y-81516067D02*
X206625938Y-81349401D01*
X206625938Y-81349401D02*
X206483081Y-81016067D01*
X206483081Y-81016067D02*
X206483081Y-78016067D01*
X209340225Y-81516067D02*
X209340225Y-79682734D01*
X209340225Y-79682734D02*
X209197367Y-79349401D01*
X209197367Y-79349401D02*
X208911653Y-79182734D01*
X208911653Y-79182734D02*
X208340225Y-79182734D01*
X208340225Y-79182734D02*
X208054510Y-79349401D01*
X209340225Y-81349401D02*
X209054510Y-81516067D01*
X209054510Y-81516067D02*
X208340225Y-81516067D01*
X208340225Y-81516067D02*
X208054510Y-81349401D01*
X208054510Y-81349401D02*
X207911653Y-81016067D01*
X207911653Y-81016067D02*
X207911653Y-80682734D01*
X207911653Y-80682734D02*
X208054510Y-80349401D01*
X208054510Y-80349401D02*
X208340225Y-80182734D01*
X208340225Y-80182734D02*
X209054510Y-80182734D01*
X209054510Y-80182734D02*
X209340225Y-80016067D01*
X210768796Y-81516067D02*
X210768796Y-78016067D01*
X210768796Y-79349401D02*
X211054511Y-79182734D01*
X211054511Y-79182734D02*
X211625939Y-79182734D01*
X211625939Y-79182734D02*
X211911653Y-79349401D01*
X211911653Y-79349401D02*
X212054511Y-79516067D01*
X212054511Y-79516067D02*
X212197368Y-79849401D01*
X212197368Y-79849401D02*
X212197368Y-80849401D01*
X212197368Y-80849401D02*
X212054511Y-81182734D01*
X212054511Y-81182734D02*
X211911653Y-81349401D01*
X211911653Y-81349401D02*
X211625939Y-81516067D01*
X211625939Y-81516067D02*
X211054511Y-81516067D01*
X211054511Y-81516067D02*
X210768796Y-81349401D01*
X213911654Y-81516067D02*
X213625939Y-81349401D01*
X213625939Y-81349401D02*
X213483082Y-81016067D01*
X213483082Y-81016067D02*
X213483082Y-78016067D01*
X216197368Y-81349401D02*
X215911654Y-81516067D01*
X215911654Y-81516067D02*
X215340226Y-81516067D01*
X215340226Y-81516067D02*
X215054511Y-81349401D01*
X215054511Y-81349401D02*
X214911654Y-81016067D01*
X214911654Y-81016067D02*
X214911654Y-79682734D01*
X214911654Y-79682734D02*
X215054511Y-79349401D01*
X215054511Y-79349401D02*
X215340226Y-79182734D01*
X215340226Y-79182734D02*
X215911654Y-79182734D01*
X215911654Y-79182734D02*
X216197368Y-79349401D01*
X216197368Y-79349401D02*
X216340226Y-79682734D01*
X216340226Y-79682734D02*
X216340226Y-80016067D01*
X216340226Y-80016067D02*
X214911654Y-80349401D01*
X217768797Y-81349401D02*
X217768797Y-81516067D01*
X217768797Y-81516067D02*
X217625940Y-81849401D01*
X217625940Y-81849401D02*
X217483083Y-82016067D01*
X222625940Y-81349401D02*
X222340225Y-81516067D01*
X222340225Y-81516067D02*
X221768797Y-81516067D01*
X221768797Y-81516067D02*
X221483082Y-81349401D01*
X221483082Y-81349401D02*
X221340225Y-81182734D01*
X221340225Y-81182734D02*
X221197368Y-80849401D01*
X221197368Y-80849401D02*
X221197368Y-79849401D01*
X221197368Y-79849401D02*
X221340225Y-79516067D01*
X221340225Y-79516067D02*
X221483082Y-79349401D01*
X221483082Y-79349401D02*
X221768797Y-79182734D01*
X221768797Y-79182734D02*
X222340225Y-79182734D01*
X222340225Y-79182734D02*
X222625940Y-79349401D01*
X223911654Y-81516067D02*
X223911654Y-78016067D01*
X225197369Y-81516067D02*
X225197369Y-79682734D01*
X225197369Y-79682734D02*
X225054511Y-79349401D01*
X225054511Y-79349401D02*
X224768797Y-79182734D01*
X224768797Y-79182734D02*
X224340226Y-79182734D01*
X224340226Y-79182734D02*
X224054511Y-79349401D01*
X224054511Y-79349401D02*
X223911654Y-79516067D01*
X227911655Y-81516067D02*
X227911655Y-79682734D01*
X227911655Y-79682734D02*
X227768797Y-79349401D01*
X227768797Y-79349401D02*
X227483083Y-79182734D01*
X227483083Y-79182734D02*
X226911655Y-79182734D01*
X226911655Y-79182734D02*
X226625940Y-79349401D01*
X227911655Y-81349401D02*
X227625940Y-81516067D01*
X227625940Y-81516067D02*
X226911655Y-81516067D01*
X226911655Y-81516067D02*
X226625940Y-81349401D01*
X226625940Y-81349401D02*
X226483083Y-81016067D01*
X226483083Y-81016067D02*
X226483083Y-80682734D01*
X226483083Y-80682734D02*
X226625940Y-80349401D01*
X226625940Y-80349401D02*
X226911655Y-80182734D01*
X226911655Y-80182734D02*
X227625940Y-80182734D01*
X227625940Y-80182734D02*
X227911655Y-80016067D01*
X229340226Y-81516067D02*
X229340226Y-79182734D01*
X229340226Y-79516067D02*
X229483083Y-79349401D01*
X229483083Y-79349401D02*
X229768798Y-79182734D01*
X229768798Y-79182734D02*
X230197369Y-79182734D01*
X230197369Y-79182734D02*
X230483083Y-79349401D01*
X230483083Y-79349401D02*
X230625941Y-79682734D01*
X230625941Y-79682734D02*
X230625941Y-81516067D01*
X230625941Y-79682734D02*
X230768798Y-79349401D01*
X230768798Y-79349401D02*
X231054512Y-79182734D01*
X231054512Y-79182734D02*
X231483083Y-79182734D01*
X231483083Y-79182734D02*
X231768798Y-79349401D01*
X231768798Y-79349401D02*
X231911655Y-79682734D01*
X231911655Y-79682734D02*
X231911655Y-81516067D01*
X232911655Y-79182734D02*
X234054512Y-79182734D01*
X233340226Y-81516067D02*
X233340226Y-78516067D01*
X233340226Y-78516067D02*
X233483083Y-78182734D01*
X233483083Y-78182734D02*
X233768798Y-78016067D01*
X233768798Y-78016067D02*
X234054512Y-78016067D01*
X236197369Y-81349401D02*
X235911655Y-81516067D01*
X235911655Y-81516067D02*
X235340227Y-81516067D01*
X235340227Y-81516067D02*
X235054512Y-81349401D01*
X235054512Y-81349401D02*
X234911655Y-81016067D01*
X234911655Y-81016067D02*
X234911655Y-79682734D01*
X234911655Y-79682734D02*
X235054512Y-79349401D01*
X235054512Y-79349401D02*
X235340227Y-79182734D01*
X235340227Y-79182734D02*
X235911655Y-79182734D01*
X235911655Y-79182734D02*
X236197369Y-79349401D01*
X236197369Y-79349401D02*
X236340227Y-79682734D01*
X236340227Y-79682734D02*
X236340227Y-80016067D01*
X236340227Y-80016067D02*
X234911655Y-80349401D01*
X237625941Y-81516067D02*
X237625941Y-79182734D01*
X237625941Y-79849401D02*
X237768798Y-79516067D01*
X237768798Y-79516067D02*
X237911656Y-79349401D01*
X237911656Y-79349401D02*
X238197370Y-79182734D01*
X238197370Y-79182734D02*
X238483084Y-79182734D01*
X242911655Y-81349401D02*
X242625941Y-81516067D01*
X242625941Y-81516067D02*
X242054513Y-81516067D01*
X242054513Y-81516067D02*
X241768798Y-81349401D01*
X241768798Y-81349401D02*
X241625941Y-81016067D01*
X241625941Y-81016067D02*
X241625941Y-79682734D01*
X241625941Y-79682734D02*
X241768798Y-79349401D01*
X241768798Y-79349401D02*
X242054513Y-79182734D01*
X242054513Y-79182734D02*
X242625941Y-79182734D01*
X242625941Y-79182734D02*
X242911655Y-79349401D01*
X242911655Y-79349401D02*
X243054513Y-79682734D01*
X243054513Y-79682734D02*
X243054513Y-80016067D01*
X243054513Y-80016067D02*
X241625941Y-80349401D01*
X245625942Y-81516067D02*
X245625942Y-78016067D01*
X245625942Y-81349401D02*
X245340227Y-81516067D01*
X245340227Y-81516067D02*
X244768799Y-81516067D01*
X244768799Y-81516067D02*
X244483084Y-81349401D01*
X244483084Y-81349401D02*
X244340227Y-81182734D01*
X244340227Y-81182734D02*
X244197370Y-80849401D01*
X244197370Y-80849401D02*
X244197370Y-79849401D01*
X244197370Y-79849401D02*
X244340227Y-79516067D01*
X244340227Y-79516067D02*
X244483084Y-79349401D01*
X244483084Y-79349401D02*
X244768799Y-79182734D01*
X244768799Y-79182734D02*
X245340227Y-79182734D01*
X245340227Y-79182734D02*
X245625942Y-79349401D01*
X248340228Y-79182734D02*
X248340228Y-82016067D01*
X248340228Y-82016067D02*
X248197370Y-82349401D01*
X248197370Y-82349401D02*
X248054513Y-82516067D01*
X248054513Y-82516067D02*
X247768799Y-82682734D01*
X247768799Y-82682734D02*
X247340228Y-82682734D01*
X247340228Y-82682734D02*
X247054513Y-82516067D01*
X248340228Y-81349401D02*
X248054513Y-81516067D01*
X248054513Y-81516067D02*
X247483085Y-81516067D01*
X247483085Y-81516067D02*
X247197370Y-81349401D01*
X247197370Y-81349401D02*
X247054513Y-81182734D01*
X247054513Y-81182734D02*
X246911656Y-80849401D01*
X246911656Y-80849401D02*
X246911656Y-79849401D01*
X246911656Y-79849401D02*
X247054513Y-79516067D01*
X247054513Y-79516067D02*
X247197370Y-79349401D01*
X247197370Y-79349401D02*
X247483085Y-79182734D01*
X247483085Y-79182734D02*
X248054513Y-79182734D01*
X248054513Y-79182734D02*
X248340228Y-79349401D01*
X250911656Y-81349401D02*
X250625942Y-81516067D01*
X250625942Y-81516067D02*
X250054514Y-81516067D01*
X250054514Y-81516067D02*
X249768799Y-81349401D01*
X249768799Y-81349401D02*
X249625942Y-81016067D01*
X249625942Y-81016067D02*
X249625942Y-79682734D01*
X249625942Y-79682734D02*
X249768799Y-79349401D01*
X249768799Y-79349401D02*
X250054514Y-79182734D01*
X250054514Y-79182734D02*
X250625942Y-79182734D01*
X250625942Y-79182734D02*
X250911656Y-79349401D01*
X250911656Y-79349401D02*
X251054514Y-79682734D01*
X251054514Y-79682734D02*
X251054514Y-80016067D01*
X251054514Y-80016067D02*
X249625942Y-80349401D01*
X255911657Y-81349401D02*
X255625942Y-81516067D01*
X255625942Y-81516067D02*
X255054514Y-81516067D01*
X255054514Y-81516067D02*
X254768799Y-81349401D01*
X254768799Y-81349401D02*
X254625942Y-81182734D01*
X254625942Y-81182734D02*
X254483085Y-80849401D01*
X254483085Y-80849401D02*
X254483085Y-79849401D01*
X254483085Y-79849401D02*
X254625942Y-79516067D01*
X254625942Y-79516067D02*
X254768799Y-79349401D01*
X254768799Y-79349401D02*
X255054514Y-79182734D01*
X255054514Y-79182734D02*
X255625942Y-79182734D01*
X255625942Y-79182734D02*
X255911657Y-79349401D01*
X257625943Y-81516067D02*
X257340228Y-81349401D01*
X257340228Y-81349401D02*
X257197371Y-81182734D01*
X257197371Y-81182734D02*
X257054514Y-80849401D01*
X257054514Y-80849401D02*
X257054514Y-79849401D01*
X257054514Y-79849401D02*
X257197371Y-79516067D01*
X257197371Y-79516067D02*
X257340228Y-79349401D01*
X257340228Y-79349401D02*
X257625943Y-79182734D01*
X257625943Y-79182734D02*
X258054514Y-79182734D01*
X258054514Y-79182734D02*
X258340228Y-79349401D01*
X258340228Y-79349401D02*
X258483086Y-79516067D01*
X258483086Y-79516067D02*
X258625943Y-79849401D01*
X258625943Y-79849401D02*
X258625943Y-80849401D01*
X258625943Y-80849401D02*
X258483086Y-81182734D01*
X258483086Y-81182734D02*
X258340228Y-81349401D01*
X258340228Y-81349401D02*
X258054514Y-81516067D01*
X258054514Y-81516067D02*
X257625943Y-81516067D01*
X259911657Y-79182734D02*
X259911657Y-81516067D01*
X259911657Y-79516067D02*
X260054514Y-79349401D01*
X260054514Y-79349401D02*
X260340229Y-79182734D01*
X260340229Y-79182734D02*
X260768800Y-79182734D01*
X260768800Y-79182734D02*
X261054514Y-79349401D01*
X261054514Y-79349401D02*
X261197372Y-79682734D01*
X261197372Y-79682734D02*
X261197372Y-81516067D01*
X262625943Y-79182734D02*
X262625943Y-81516067D01*
X262625943Y-79516067D02*
X262768800Y-79349401D01*
X262768800Y-79349401D02*
X263054515Y-79182734D01*
X263054515Y-79182734D02*
X263483086Y-79182734D01*
X263483086Y-79182734D02*
X263768800Y-79349401D01*
X263768800Y-79349401D02*
X263911658Y-79682734D01*
X263911658Y-79682734D02*
X263911658Y-81516067D01*
X266483086Y-81349401D02*
X266197372Y-81516067D01*
X266197372Y-81516067D02*
X265625944Y-81516067D01*
X265625944Y-81516067D02*
X265340229Y-81349401D01*
X265340229Y-81349401D02*
X265197372Y-81016067D01*
X265197372Y-81016067D02*
X265197372Y-79682734D01*
X265197372Y-79682734D02*
X265340229Y-79349401D01*
X265340229Y-79349401D02*
X265625944Y-79182734D01*
X265625944Y-79182734D02*
X266197372Y-79182734D01*
X266197372Y-79182734D02*
X266483086Y-79349401D01*
X266483086Y-79349401D02*
X266625944Y-79682734D01*
X266625944Y-79682734D02*
X266625944Y-80016067D01*
X266625944Y-80016067D02*
X265197372Y-80349401D01*
X269197373Y-81349401D02*
X268911658Y-81516067D01*
X268911658Y-81516067D02*
X268340230Y-81516067D01*
X268340230Y-81516067D02*
X268054515Y-81349401D01*
X268054515Y-81349401D02*
X267911658Y-81182734D01*
X267911658Y-81182734D02*
X267768801Y-80849401D01*
X267768801Y-80849401D02*
X267768801Y-79849401D01*
X267768801Y-79849401D02*
X267911658Y-79516067D01*
X267911658Y-79516067D02*
X268054515Y-79349401D01*
X268054515Y-79349401D02*
X268340230Y-79182734D01*
X268340230Y-79182734D02*
X268911658Y-79182734D01*
X268911658Y-79182734D02*
X269197373Y-79349401D01*
X270054516Y-79182734D02*
X271197373Y-79182734D01*
X270483087Y-78016067D02*
X270483087Y-81016067D01*
X270483087Y-81016067D02*
X270625944Y-81349401D01*
X270625944Y-81349401D02*
X270911659Y-81516067D01*
X270911659Y-81516067D02*
X271197373Y-81516067D01*
X272625945Y-81516067D02*
X272340230Y-81349401D01*
X272340230Y-81349401D02*
X272197373Y-81182734D01*
X272197373Y-81182734D02*
X272054516Y-80849401D01*
X272054516Y-80849401D02*
X272054516Y-79849401D01*
X272054516Y-79849401D02*
X272197373Y-79516067D01*
X272197373Y-79516067D02*
X272340230Y-79349401D01*
X272340230Y-79349401D02*
X272625945Y-79182734D01*
X272625945Y-79182734D02*
X273054516Y-79182734D01*
X273054516Y-79182734D02*
X273340230Y-79349401D01*
X273340230Y-79349401D02*
X273483088Y-79516067D01*
X273483088Y-79516067D02*
X273625945Y-79849401D01*
X273625945Y-79849401D02*
X273625945Y-80849401D01*
X273625945Y-80849401D02*
X273483088Y-81182734D01*
X273483088Y-81182734D02*
X273340230Y-81349401D01*
X273340230Y-81349401D02*
X273054516Y-81516067D01*
X273054516Y-81516067D02*
X272625945Y-81516067D01*
X274911659Y-81516067D02*
X274911659Y-79182734D01*
X274911659Y-79849401D02*
X275054516Y-79516067D01*
X275054516Y-79516067D02*
X275197374Y-79349401D01*
X275197374Y-79349401D02*
X275483088Y-79182734D01*
X275483088Y-79182734D02*
X275768802Y-79182734D01*
X193625939Y-92786067D02*
X192625939Y-91119401D01*
X191911653Y-92786067D02*
X191911653Y-89286067D01*
X191911653Y-89286067D02*
X193054510Y-89286067D01*
X193054510Y-89286067D02*
X193340225Y-89452734D01*
X193340225Y-89452734D02*
X193483082Y-89619401D01*
X193483082Y-89619401D02*
X193625939Y-89952734D01*
X193625939Y-89952734D02*
X193625939Y-90452734D01*
X193625939Y-90452734D02*
X193483082Y-90786067D01*
X193483082Y-90786067D02*
X193340225Y-90952734D01*
X193340225Y-90952734D02*
X193054510Y-91119401D01*
X193054510Y-91119401D02*
X191911653Y-91119401D01*
X196054510Y-92619401D02*
X195768796Y-92786067D01*
X195768796Y-92786067D02*
X195197368Y-92786067D01*
X195197368Y-92786067D02*
X194911653Y-92619401D01*
X194911653Y-92619401D02*
X194768796Y-92286067D01*
X194768796Y-92286067D02*
X194768796Y-90952734D01*
X194768796Y-90952734D02*
X194911653Y-90619401D01*
X194911653Y-90619401D02*
X195197368Y-90452734D01*
X195197368Y-90452734D02*
X195768796Y-90452734D01*
X195768796Y-90452734D02*
X196054510Y-90619401D01*
X196054510Y-90619401D02*
X196197368Y-90952734D01*
X196197368Y-90952734D02*
X196197368Y-91286067D01*
X196197368Y-91286067D02*
X194768796Y-91619401D01*
X198768797Y-92786067D02*
X198768797Y-89286067D01*
X198768797Y-92619401D02*
X198483082Y-92786067D01*
X198483082Y-92786067D02*
X197911654Y-92786067D01*
X197911654Y-92786067D02*
X197625939Y-92619401D01*
X197625939Y-92619401D02*
X197483082Y-92452734D01*
X197483082Y-92452734D02*
X197340225Y-92119401D01*
X197340225Y-92119401D02*
X197340225Y-91119401D01*
X197340225Y-91119401D02*
X197483082Y-90786067D01*
X197483082Y-90786067D02*
X197625939Y-90619401D01*
X197625939Y-90619401D02*
X197911654Y-90452734D01*
X197911654Y-90452734D02*
X198483082Y-90452734D01*
X198483082Y-90452734D02*
X198768797Y-90619401D01*
X202340225Y-92619401D02*
X202625939Y-92786067D01*
X202625939Y-92786067D02*
X203197368Y-92786067D01*
X203197368Y-92786067D02*
X203483082Y-92619401D01*
X203483082Y-92619401D02*
X203625939Y-92286067D01*
X203625939Y-92286067D02*
X203625939Y-92119401D01*
X203625939Y-92119401D02*
X203483082Y-91786067D01*
X203483082Y-91786067D02*
X203197368Y-91619401D01*
X203197368Y-91619401D02*
X202768797Y-91619401D01*
X202768797Y-91619401D02*
X202483082Y-91452734D01*
X202483082Y-91452734D02*
X202340225Y-91119401D01*
X202340225Y-91119401D02*
X202340225Y-90952734D01*
X202340225Y-90952734D02*
X202483082Y-90619401D01*
X202483082Y-90619401D02*
X202768797Y-90452734D01*
X202768797Y-90452734D02*
X203197368Y-90452734D01*
X203197368Y-90452734D02*
X203483082Y-90619401D01*
X205340225Y-92786067D02*
X205054510Y-92619401D01*
X205054510Y-92619401D02*
X204911653Y-92452734D01*
X204911653Y-92452734D02*
X204768796Y-92119401D01*
X204768796Y-92119401D02*
X204768796Y-91119401D01*
X204768796Y-91119401D02*
X204911653Y-90786067D01*
X204911653Y-90786067D02*
X205054510Y-90619401D01*
X205054510Y-90619401D02*
X205340225Y-90452734D01*
X205340225Y-90452734D02*
X205768796Y-90452734D01*
X205768796Y-90452734D02*
X206054510Y-90619401D01*
X206054510Y-90619401D02*
X206197368Y-90786067D01*
X206197368Y-90786067D02*
X206340225Y-91119401D01*
X206340225Y-91119401D02*
X206340225Y-92119401D01*
X206340225Y-92119401D02*
X206197368Y-92452734D01*
X206197368Y-92452734D02*
X206054510Y-92619401D01*
X206054510Y-92619401D02*
X205768796Y-92786067D01*
X205768796Y-92786067D02*
X205340225Y-92786067D01*
X208054511Y-92786067D02*
X207768796Y-92619401D01*
X207768796Y-92619401D02*
X207625939Y-92286067D01*
X207625939Y-92286067D02*
X207625939Y-89286067D01*
X210483083Y-92786067D02*
X210483083Y-89286067D01*
X210483083Y-92619401D02*
X210197368Y-92786067D01*
X210197368Y-92786067D02*
X209625940Y-92786067D01*
X209625940Y-92786067D02*
X209340225Y-92619401D01*
X209340225Y-92619401D02*
X209197368Y-92452734D01*
X209197368Y-92452734D02*
X209054511Y-92119401D01*
X209054511Y-92119401D02*
X209054511Y-91119401D01*
X209054511Y-91119401D02*
X209197368Y-90786067D01*
X209197368Y-90786067D02*
X209340225Y-90619401D01*
X209340225Y-90619401D02*
X209625940Y-90452734D01*
X209625940Y-90452734D02*
X210197368Y-90452734D01*
X210197368Y-90452734D02*
X210483083Y-90619401D01*
X213054511Y-92619401D02*
X212768797Y-92786067D01*
X212768797Y-92786067D02*
X212197369Y-92786067D01*
X212197369Y-92786067D02*
X211911654Y-92619401D01*
X211911654Y-92619401D02*
X211768797Y-92286067D01*
X211768797Y-92286067D02*
X211768797Y-90952734D01*
X211768797Y-90952734D02*
X211911654Y-90619401D01*
X211911654Y-90619401D02*
X212197369Y-90452734D01*
X212197369Y-90452734D02*
X212768797Y-90452734D01*
X212768797Y-90452734D02*
X213054511Y-90619401D01*
X213054511Y-90619401D02*
X213197369Y-90952734D01*
X213197369Y-90952734D02*
X213197369Y-91286067D01*
X213197369Y-91286067D02*
X211768797Y-91619401D01*
X214483083Y-92786067D02*
X214483083Y-90452734D01*
X214483083Y-91119401D02*
X214625940Y-90786067D01*
X214625940Y-90786067D02*
X214768798Y-90619401D01*
X214768798Y-90619401D02*
X215054512Y-90452734D01*
X215054512Y-90452734D02*
X215340226Y-90452734D01*
X216340226Y-92786067D02*
X216340226Y-90452734D01*
X216340226Y-90786067D02*
X216483083Y-90619401D01*
X216483083Y-90619401D02*
X216768798Y-90452734D01*
X216768798Y-90452734D02*
X217197369Y-90452734D01*
X217197369Y-90452734D02*
X217483083Y-90619401D01*
X217483083Y-90619401D02*
X217625941Y-90952734D01*
X217625941Y-90952734D02*
X217625941Y-92786067D01*
X217625941Y-90952734D02*
X217768798Y-90619401D01*
X217768798Y-90619401D02*
X218054512Y-90452734D01*
X218054512Y-90452734D02*
X218483083Y-90452734D01*
X218483083Y-90452734D02*
X218768798Y-90619401D01*
X218768798Y-90619401D02*
X218911655Y-90952734D01*
X218911655Y-90952734D02*
X218911655Y-92786067D01*
X221625941Y-92786067D02*
X221625941Y-90952734D01*
X221625941Y-90952734D02*
X221483083Y-90619401D01*
X221483083Y-90619401D02*
X221197369Y-90452734D01*
X221197369Y-90452734D02*
X220625941Y-90452734D01*
X220625941Y-90452734D02*
X220340226Y-90619401D01*
X221625941Y-92619401D02*
X221340226Y-92786067D01*
X221340226Y-92786067D02*
X220625941Y-92786067D01*
X220625941Y-92786067D02*
X220340226Y-92619401D01*
X220340226Y-92619401D02*
X220197369Y-92286067D01*
X220197369Y-92286067D02*
X220197369Y-91952734D01*
X220197369Y-91952734D02*
X220340226Y-91619401D01*
X220340226Y-91619401D02*
X220625941Y-91452734D01*
X220625941Y-91452734D02*
X221340226Y-91452734D01*
X221340226Y-91452734D02*
X221625941Y-91286067D01*
X222911655Y-92619401D02*
X223197369Y-92786067D01*
X223197369Y-92786067D02*
X223768798Y-92786067D01*
X223768798Y-92786067D02*
X224054512Y-92619401D01*
X224054512Y-92619401D02*
X224197369Y-92286067D01*
X224197369Y-92286067D02*
X224197369Y-92119401D01*
X224197369Y-92119401D02*
X224054512Y-91786067D01*
X224054512Y-91786067D02*
X223768798Y-91619401D01*
X223768798Y-91619401D02*
X223340227Y-91619401D01*
X223340227Y-91619401D02*
X223054512Y-91452734D01*
X223054512Y-91452734D02*
X222911655Y-91119401D01*
X222911655Y-91119401D02*
X222911655Y-90952734D01*
X222911655Y-90952734D02*
X223054512Y-90619401D01*
X223054512Y-90619401D02*
X223340227Y-90452734D01*
X223340227Y-90452734D02*
X223768798Y-90452734D01*
X223768798Y-90452734D02*
X224054512Y-90619401D01*
X225483083Y-92786067D02*
X225483083Y-89286067D01*
X225768798Y-91452734D02*
X226625940Y-92786067D01*
X226625940Y-90452734D02*
X225483083Y-91786067D01*
X191625939Y-94921067D02*
X192340225Y-98421067D01*
X192340225Y-98421067D02*
X192911653Y-95921067D01*
X192911653Y-95921067D02*
X193483082Y-98421067D01*
X193483082Y-98421067D02*
X194197368Y-94921067D01*
X195340224Y-98421067D02*
X195340224Y-94921067D01*
X196625939Y-98421067D02*
X196625939Y-96587734D01*
X196625939Y-96587734D02*
X196483081Y-96254401D01*
X196483081Y-96254401D02*
X196197367Y-96087734D01*
X196197367Y-96087734D02*
X195768796Y-96087734D01*
X195768796Y-96087734D02*
X195483081Y-96254401D01*
X195483081Y-96254401D02*
X195340224Y-96421067D01*
X198054510Y-98421067D02*
X198054510Y-96087734D01*
X198054510Y-94921067D02*
X197911653Y-95087734D01*
X197911653Y-95087734D02*
X198054510Y-95254401D01*
X198054510Y-95254401D02*
X198197367Y-95087734D01*
X198197367Y-95087734D02*
X198054510Y-94921067D01*
X198054510Y-94921067D02*
X198054510Y-95254401D01*
X199054510Y-96087734D02*
X200197367Y-96087734D01*
X199483081Y-94921067D02*
X199483081Y-97921067D01*
X199483081Y-97921067D02*
X199625938Y-98254401D01*
X199625938Y-98254401D02*
X199911653Y-98421067D01*
X199911653Y-98421067D02*
X200197367Y-98421067D01*
X202340224Y-98254401D02*
X202054510Y-98421067D01*
X202054510Y-98421067D02*
X201483082Y-98421067D01*
X201483082Y-98421067D02*
X201197367Y-98254401D01*
X201197367Y-98254401D02*
X201054510Y-97921067D01*
X201054510Y-97921067D02*
X201054510Y-96587734D01*
X201054510Y-96587734D02*
X201197367Y-96254401D01*
X201197367Y-96254401D02*
X201483082Y-96087734D01*
X201483082Y-96087734D02*
X202054510Y-96087734D01*
X202054510Y-96087734D02*
X202340224Y-96254401D01*
X202340224Y-96254401D02*
X202483082Y-96587734D01*
X202483082Y-96587734D02*
X202483082Y-96921067D01*
X202483082Y-96921067D02*
X201054510Y-97254401D01*
X205911653Y-98254401D02*
X206197367Y-98421067D01*
X206197367Y-98421067D02*
X206768796Y-98421067D01*
X206768796Y-98421067D02*
X207054510Y-98254401D01*
X207054510Y-98254401D02*
X207197367Y-97921067D01*
X207197367Y-97921067D02*
X207197367Y-97754401D01*
X207197367Y-97754401D02*
X207054510Y-97421067D01*
X207054510Y-97421067D02*
X206768796Y-97254401D01*
X206768796Y-97254401D02*
X206340225Y-97254401D01*
X206340225Y-97254401D02*
X206054510Y-97087734D01*
X206054510Y-97087734D02*
X205911653Y-96754401D01*
X205911653Y-96754401D02*
X205911653Y-96587734D01*
X205911653Y-96587734D02*
X206054510Y-96254401D01*
X206054510Y-96254401D02*
X206340225Y-96087734D01*
X206340225Y-96087734D02*
X206768796Y-96087734D01*
X206768796Y-96087734D02*
X207054510Y-96254401D01*
X208483081Y-98421067D02*
X208483081Y-96087734D01*
X208483081Y-94921067D02*
X208340224Y-95087734D01*
X208340224Y-95087734D02*
X208483081Y-95254401D01*
X208483081Y-95254401D02*
X208625938Y-95087734D01*
X208625938Y-95087734D02*
X208483081Y-94921067D01*
X208483081Y-94921067D02*
X208483081Y-95254401D01*
X210340224Y-98421067D02*
X210054509Y-98254401D01*
X210054509Y-98254401D02*
X209911652Y-97921067D01*
X209911652Y-97921067D02*
X209911652Y-94921067D01*
X211483081Y-98421067D02*
X211483081Y-94921067D01*
X211768796Y-97087734D02*
X212625938Y-98421067D01*
X212625938Y-96087734D02*
X211483081Y-97421067D01*
X213768795Y-98254401D02*
X214054509Y-98421067D01*
X214054509Y-98421067D02*
X214625938Y-98421067D01*
X214625938Y-98421067D02*
X214911652Y-98254401D01*
X214911652Y-98254401D02*
X215054509Y-97921067D01*
X215054509Y-97921067D02*
X215054509Y-97754401D01*
X215054509Y-97754401D02*
X214911652Y-97421067D01*
X214911652Y-97421067D02*
X214625938Y-97254401D01*
X214625938Y-97254401D02*
X214197367Y-97254401D01*
X214197367Y-97254401D02*
X213911652Y-97087734D01*
X213911652Y-97087734D02*
X213768795Y-96754401D01*
X213768795Y-96754401D02*
X213768795Y-96587734D01*
X213768795Y-96587734D02*
X213911652Y-96254401D01*
X213911652Y-96254401D02*
X214197367Y-96087734D01*
X214197367Y-96087734D02*
X214625938Y-96087734D01*
X214625938Y-96087734D02*
X214911652Y-96254401D01*
X217625938Y-98254401D02*
X217340223Y-98421067D01*
X217340223Y-98421067D02*
X216768795Y-98421067D01*
X216768795Y-98421067D02*
X216483080Y-98254401D01*
X216483080Y-98254401D02*
X216340223Y-98087734D01*
X216340223Y-98087734D02*
X216197366Y-97754401D01*
X216197366Y-97754401D02*
X216197366Y-96754401D01*
X216197366Y-96754401D02*
X216340223Y-96421067D01*
X216340223Y-96421067D02*
X216483080Y-96254401D01*
X216483080Y-96254401D02*
X216768795Y-96087734D01*
X216768795Y-96087734D02*
X217340223Y-96087734D01*
X217340223Y-96087734D02*
X217625938Y-96254401D01*
X218911652Y-98421067D02*
X218911652Y-96087734D01*
X218911652Y-96754401D02*
X219054509Y-96421067D01*
X219054509Y-96421067D02*
X219197367Y-96254401D01*
X219197367Y-96254401D02*
X219483081Y-96087734D01*
X219483081Y-96087734D02*
X219768795Y-96087734D01*
X221911652Y-98254401D02*
X221625938Y-98421067D01*
X221625938Y-98421067D02*
X221054510Y-98421067D01*
X221054510Y-98421067D02*
X220768795Y-98254401D01*
X220768795Y-98254401D02*
X220625938Y-97921067D01*
X220625938Y-97921067D02*
X220625938Y-96587734D01*
X220625938Y-96587734D02*
X220768795Y-96254401D01*
X220768795Y-96254401D02*
X221054510Y-96087734D01*
X221054510Y-96087734D02*
X221625938Y-96087734D01*
X221625938Y-96087734D02*
X221911652Y-96254401D01*
X221911652Y-96254401D02*
X222054510Y-96587734D01*
X222054510Y-96587734D02*
X222054510Y-96921067D01*
X222054510Y-96921067D02*
X220625938Y-97254401D01*
X224483081Y-98254401D02*
X224197367Y-98421067D01*
X224197367Y-98421067D02*
X223625939Y-98421067D01*
X223625939Y-98421067D02*
X223340224Y-98254401D01*
X223340224Y-98254401D02*
X223197367Y-97921067D01*
X223197367Y-97921067D02*
X223197367Y-96587734D01*
X223197367Y-96587734D02*
X223340224Y-96254401D01*
X223340224Y-96254401D02*
X223625939Y-96087734D01*
X223625939Y-96087734D02*
X224197367Y-96087734D01*
X224197367Y-96087734D02*
X224483081Y-96254401D01*
X224483081Y-96254401D02*
X224625939Y-96587734D01*
X224625939Y-96587734D02*
X224625939Y-96921067D01*
X224625939Y-96921067D02*
X223197367Y-97254401D01*
X225911653Y-96087734D02*
X225911653Y-98421067D01*
X225911653Y-96421067D02*
X226054510Y-96254401D01*
X226054510Y-96254401D02*
X226340225Y-96087734D01*
X226340225Y-96087734D02*
X226768796Y-96087734D01*
X226768796Y-96087734D02*
X227054510Y-96254401D01*
X227054510Y-96254401D02*
X227197368Y-96587734D01*
X227197368Y-96587734D02*
X227197368Y-98421067D01*
X191911653Y-102222734D02*
X192911653Y-102222734D01*
X193340225Y-104056067D02*
X191911653Y-104056067D01*
X191911653Y-104056067D02*
X191911653Y-100556067D01*
X191911653Y-100556067D02*
X193340225Y-100556067D01*
X194625939Y-104056067D02*
X194625939Y-100556067D01*
X194625939Y-100556067D02*
X196340225Y-104056067D01*
X196340225Y-104056067D02*
X196340225Y-100556067D01*
X197768796Y-104056067D02*
X197768796Y-100556067D01*
X200768796Y-100722734D02*
X200483082Y-100556067D01*
X200483082Y-100556067D02*
X200054510Y-100556067D01*
X200054510Y-100556067D02*
X199625939Y-100722734D01*
X199625939Y-100722734D02*
X199340224Y-101056067D01*
X199340224Y-101056067D02*
X199197367Y-101389401D01*
X199197367Y-101389401D02*
X199054510Y-102056067D01*
X199054510Y-102056067D02*
X199054510Y-102556067D01*
X199054510Y-102556067D02*
X199197367Y-103222734D01*
X199197367Y-103222734D02*
X199340224Y-103556067D01*
X199340224Y-103556067D02*
X199625939Y-103889401D01*
X199625939Y-103889401D02*
X200054510Y-104056067D01*
X200054510Y-104056067D02*
X200340224Y-104056067D01*
X200340224Y-104056067D02*
X200768796Y-103889401D01*
X200768796Y-103889401D02*
X200911653Y-103722734D01*
X200911653Y-103722734D02*
X200911653Y-102556067D01*
X200911653Y-102556067D02*
X200340224Y-102556067D01*
X204054510Y-101722734D02*
X205197367Y-101722734D01*
X204483081Y-104056067D02*
X204483081Y-101056067D01*
X204483081Y-101056067D02*
X204625938Y-100722734D01*
X204625938Y-100722734D02*
X204911653Y-100556067D01*
X204911653Y-100556067D02*
X205197367Y-100556067D01*
X206197367Y-104056067D02*
X206197367Y-101722734D01*
X206197367Y-100556067D02*
X206054510Y-100722734D01*
X206054510Y-100722734D02*
X206197367Y-100889401D01*
X206197367Y-100889401D02*
X206340224Y-100722734D01*
X206340224Y-100722734D02*
X206197367Y-100556067D01*
X206197367Y-100556067D02*
X206197367Y-100889401D01*
X207625938Y-101722734D02*
X207625938Y-104056067D01*
X207625938Y-102056067D02*
X207768795Y-101889401D01*
X207768795Y-101889401D02*
X208054510Y-101722734D01*
X208054510Y-101722734D02*
X208483081Y-101722734D01*
X208483081Y-101722734D02*
X208768795Y-101889401D01*
X208768795Y-101889401D02*
X208911653Y-102222734D01*
X208911653Y-102222734D02*
X208911653Y-104056067D01*
X210340224Y-104056067D02*
X210340224Y-101722734D01*
X210340224Y-100556067D02*
X210197367Y-100722734D01*
X210197367Y-100722734D02*
X210340224Y-100889401D01*
X210340224Y-100889401D02*
X210483081Y-100722734D01*
X210483081Y-100722734D02*
X210340224Y-100556067D01*
X210340224Y-100556067D02*
X210340224Y-100889401D01*
X211625938Y-103889401D02*
X211911652Y-104056067D01*
X211911652Y-104056067D02*
X212483081Y-104056067D01*
X212483081Y-104056067D02*
X212768795Y-103889401D01*
X212768795Y-103889401D02*
X212911652Y-103556067D01*
X212911652Y-103556067D02*
X212911652Y-103389401D01*
X212911652Y-103389401D02*
X212768795Y-103056067D01*
X212768795Y-103056067D02*
X212483081Y-102889401D01*
X212483081Y-102889401D02*
X212054510Y-102889401D01*
X212054510Y-102889401D02*
X211768795Y-102722734D01*
X211768795Y-102722734D02*
X211625938Y-102389401D01*
X211625938Y-102389401D02*
X211625938Y-102222734D01*
X211625938Y-102222734D02*
X211768795Y-101889401D01*
X211768795Y-101889401D02*
X212054510Y-101722734D01*
X212054510Y-101722734D02*
X212483081Y-101722734D01*
X212483081Y-101722734D02*
X212768795Y-101889401D01*
X214197366Y-104056067D02*
X214197366Y-100556067D01*
X215483081Y-104056067D02*
X215483081Y-102222734D01*
X215483081Y-102222734D02*
X215340223Y-101889401D01*
X215340223Y-101889401D02*
X215054509Y-101722734D01*
X215054509Y-101722734D02*
X214625938Y-101722734D01*
X214625938Y-101722734D02*
X214340223Y-101889401D01*
X214340223Y-101889401D02*
X214197366Y-102056067D01*
X219197366Y-104056067D02*
X219197366Y-101722734D01*
X219197366Y-102389401D02*
X219340223Y-102056067D01*
X219340223Y-102056067D02*
X219483081Y-101889401D01*
X219483081Y-101889401D02*
X219768795Y-101722734D01*
X219768795Y-101722734D02*
X220054509Y-101722734D01*
X222197366Y-103889401D02*
X221911652Y-104056067D01*
X221911652Y-104056067D02*
X221340224Y-104056067D01*
X221340224Y-104056067D02*
X221054509Y-103889401D01*
X221054509Y-103889401D02*
X220911652Y-103556067D01*
X220911652Y-103556067D02*
X220911652Y-102222734D01*
X220911652Y-102222734D02*
X221054509Y-101889401D01*
X221054509Y-101889401D02*
X221340224Y-101722734D01*
X221340224Y-101722734D02*
X221911652Y-101722734D01*
X221911652Y-101722734D02*
X222197366Y-101889401D01*
X222197366Y-101889401D02*
X222340224Y-102222734D01*
X222340224Y-102222734D02*
X222340224Y-102556067D01*
X222340224Y-102556067D02*
X220911652Y-102889401D01*
X224911653Y-103889401D02*
X224625938Y-104056067D01*
X224625938Y-104056067D02*
X224054510Y-104056067D01*
X224054510Y-104056067D02*
X223768795Y-103889401D01*
X223768795Y-103889401D02*
X223625938Y-103722734D01*
X223625938Y-103722734D02*
X223483081Y-103389401D01*
X223483081Y-103389401D02*
X223483081Y-102389401D01*
X223483081Y-102389401D02*
X223625938Y-102056067D01*
X223625938Y-102056067D02*
X223768795Y-101889401D01*
X223768795Y-101889401D02*
X224054510Y-101722734D01*
X224054510Y-101722734D02*
X224625938Y-101722734D01*
X224625938Y-101722734D02*
X224911653Y-101889401D01*
X226625939Y-104056067D02*
X226340224Y-103889401D01*
X226340224Y-103889401D02*
X226197367Y-103722734D01*
X226197367Y-103722734D02*
X226054510Y-103389401D01*
X226054510Y-103389401D02*
X226054510Y-102389401D01*
X226054510Y-102389401D02*
X226197367Y-102056067D01*
X226197367Y-102056067D02*
X226340224Y-101889401D01*
X226340224Y-101889401D02*
X226625939Y-101722734D01*
X226625939Y-101722734D02*
X227054510Y-101722734D01*
X227054510Y-101722734D02*
X227340224Y-101889401D01*
X227340224Y-101889401D02*
X227483082Y-102056067D01*
X227483082Y-102056067D02*
X227625939Y-102389401D01*
X227625939Y-102389401D02*
X227625939Y-103389401D01*
X227625939Y-103389401D02*
X227483082Y-103722734D01*
X227483082Y-103722734D02*
X227340224Y-103889401D01*
X227340224Y-103889401D02*
X227054510Y-104056067D01*
X227054510Y-104056067D02*
X226625939Y-104056067D01*
X228911653Y-104056067D02*
X228911653Y-101722734D01*
X228911653Y-102056067D02*
X229054510Y-101889401D01*
X229054510Y-101889401D02*
X229340225Y-101722734D01*
X229340225Y-101722734D02*
X229768796Y-101722734D01*
X229768796Y-101722734D02*
X230054510Y-101889401D01*
X230054510Y-101889401D02*
X230197368Y-102222734D01*
X230197368Y-102222734D02*
X230197368Y-104056067D01*
X230197368Y-102222734D02*
X230340225Y-101889401D01*
X230340225Y-101889401D02*
X230625939Y-101722734D01*
X230625939Y-101722734D02*
X231054510Y-101722734D01*
X231054510Y-101722734D02*
X231340225Y-101889401D01*
X231340225Y-101889401D02*
X231483082Y-102222734D01*
X231483082Y-102222734D02*
X231483082Y-104056067D01*
X232911653Y-104056067D02*
X232911653Y-101722734D01*
X232911653Y-102056067D02*
X233054510Y-101889401D01*
X233054510Y-101889401D02*
X233340225Y-101722734D01*
X233340225Y-101722734D02*
X233768796Y-101722734D01*
X233768796Y-101722734D02*
X234054510Y-101889401D01*
X234054510Y-101889401D02*
X234197368Y-102222734D01*
X234197368Y-102222734D02*
X234197368Y-104056067D01*
X234197368Y-102222734D02*
X234340225Y-101889401D01*
X234340225Y-101889401D02*
X234625939Y-101722734D01*
X234625939Y-101722734D02*
X235054510Y-101722734D01*
X235054510Y-101722734D02*
X235340225Y-101889401D01*
X235340225Y-101889401D02*
X235483082Y-102222734D01*
X235483082Y-102222734D02*
X235483082Y-104056067D01*
X238054510Y-103889401D02*
X237768796Y-104056067D01*
X237768796Y-104056067D02*
X237197368Y-104056067D01*
X237197368Y-104056067D02*
X236911653Y-103889401D01*
X236911653Y-103889401D02*
X236768796Y-103556067D01*
X236768796Y-103556067D02*
X236768796Y-102222734D01*
X236768796Y-102222734D02*
X236911653Y-101889401D01*
X236911653Y-101889401D02*
X237197368Y-101722734D01*
X237197368Y-101722734D02*
X237768796Y-101722734D01*
X237768796Y-101722734D02*
X238054510Y-101889401D01*
X238054510Y-101889401D02*
X238197368Y-102222734D01*
X238197368Y-102222734D02*
X238197368Y-102556067D01*
X238197368Y-102556067D02*
X236768796Y-102889401D01*
X239483082Y-101722734D02*
X239483082Y-104056067D01*
X239483082Y-102056067D02*
X239625939Y-101889401D01*
X239625939Y-101889401D02*
X239911654Y-101722734D01*
X239911654Y-101722734D02*
X240340225Y-101722734D01*
X240340225Y-101722734D02*
X240625939Y-101889401D01*
X240625939Y-101889401D02*
X240768797Y-102222734D01*
X240768797Y-102222734D02*
X240768797Y-104056067D01*
X243483083Y-104056067D02*
X243483083Y-100556067D01*
X243483083Y-103889401D02*
X243197368Y-104056067D01*
X243197368Y-104056067D02*
X242625940Y-104056067D01*
X242625940Y-104056067D02*
X242340225Y-103889401D01*
X242340225Y-103889401D02*
X242197368Y-103722734D01*
X242197368Y-103722734D02*
X242054511Y-103389401D01*
X242054511Y-103389401D02*
X242054511Y-102389401D01*
X242054511Y-102389401D02*
X242197368Y-102056067D01*
X242197368Y-102056067D02*
X242340225Y-101889401D01*
X242340225Y-101889401D02*
X242625940Y-101722734D01*
X242625940Y-101722734D02*
X243197368Y-101722734D01*
X243197368Y-101722734D02*
X243483083Y-101889401D01*
X246054511Y-103889401D02*
X245768797Y-104056067D01*
X245768797Y-104056067D02*
X245197369Y-104056067D01*
X245197369Y-104056067D02*
X244911654Y-103889401D01*
X244911654Y-103889401D02*
X244768797Y-103556067D01*
X244768797Y-103556067D02*
X244768797Y-102222734D01*
X244768797Y-102222734D02*
X244911654Y-101889401D01*
X244911654Y-101889401D02*
X245197369Y-101722734D01*
X245197369Y-101722734D02*
X245768797Y-101722734D01*
X245768797Y-101722734D02*
X246054511Y-101889401D01*
X246054511Y-101889401D02*
X246197369Y-102222734D01*
X246197369Y-102222734D02*
X246197369Y-102556067D01*
X246197369Y-102556067D02*
X244768797Y-102889401D01*
X248768798Y-104056067D02*
X248768798Y-100556067D01*
X248768798Y-103889401D02*
X248483083Y-104056067D01*
X248483083Y-104056067D02*
X247911655Y-104056067D01*
X247911655Y-104056067D02*
X247625940Y-103889401D01*
X247625940Y-103889401D02*
X247483083Y-103722734D01*
X247483083Y-103722734D02*
X247340226Y-103389401D01*
X247340226Y-103389401D02*
X247340226Y-102389401D01*
X247340226Y-102389401D02*
X247483083Y-102056067D01*
X247483083Y-102056067D02*
X247625940Y-101889401D01*
X247625940Y-101889401D02*
X247911655Y-101722734D01*
X247911655Y-101722734D02*
X248483083Y-101722734D01*
X248483083Y-101722734D02*
X248768798Y-101889401D01*
D11*
X192445801Y-40471476D02*
X192445801Y-36471476D01*
X192445801Y-36471476D02*
X193779135Y-39328619D01*
X193779135Y-39328619D02*
X195112468Y-36471476D01*
X195112468Y-36471476D02*
X195112468Y-40471476D01*
X198731516Y-40471476D02*
X198731516Y-38376238D01*
X198731516Y-38376238D02*
X198541040Y-37995285D01*
X198541040Y-37995285D02*
X198160088Y-37804809D01*
X198160088Y-37804809D02*
X197398183Y-37804809D01*
X197398183Y-37804809D02*
X197017230Y-37995285D01*
X198731516Y-40281000D02*
X198350564Y-40471476D01*
X198350564Y-40471476D02*
X197398183Y-40471476D01*
X197398183Y-40471476D02*
X197017230Y-40281000D01*
X197017230Y-40281000D02*
X196826754Y-39900047D01*
X196826754Y-39900047D02*
X196826754Y-39519095D01*
X196826754Y-39519095D02*
X197017230Y-39138142D01*
X197017230Y-39138142D02*
X197398183Y-38947666D01*
X197398183Y-38947666D02*
X198350564Y-38947666D01*
X198350564Y-38947666D02*
X198731516Y-38757190D01*
X200636278Y-37804809D02*
X200636278Y-40471476D01*
X200636278Y-38185761D02*
X200826755Y-37995285D01*
X200826755Y-37995285D02*
X201207707Y-37804809D01*
X201207707Y-37804809D02*
X201779136Y-37804809D01*
X201779136Y-37804809D02*
X202160088Y-37995285D01*
X202160088Y-37995285D02*
X202350564Y-38376238D01*
X202350564Y-38376238D02*
X202350564Y-40471476D01*
X205969612Y-37804809D02*
X205969612Y-40471476D01*
X204255326Y-37804809D02*
X204255326Y-39900047D01*
X204255326Y-39900047D02*
X204445803Y-40281000D01*
X204445803Y-40281000D02*
X204826755Y-40471476D01*
X204826755Y-40471476D02*
X205398184Y-40471476D01*
X205398184Y-40471476D02*
X205779136Y-40281000D01*
X205779136Y-40281000D02*
X205969612Y-40090523D01*
X207302946Y-37804809D02*
X208826755Y-37804809D01*
X207874374Y-40471476D02*
X207874374Y-37042904D01*
X207874374Y-37042904D02*
X208064851Y-36661952D01*
X208064851Y-36661952D02*
X208445803Y-36471476D01*
X208445803Y-36471476D02*
X208826755Y-36471476D01*
X211874374Y-40471476D02*
X211874374Y-38376238D01*
X211874374Y-38376238D02*
X211683898Y-37995285D01*
X211683898Y-37995285D02*
X211302946Y-37804809D01*
X211302946Y-37804809D02*
X210541041Y-37804809D01*
X210541041Y-37804809D02*
X210160088Y-37995285D01*
X211874374Y-40281000D02*
X211493422Y-40471476D01*
X211493422Y-40471476D02*
X210541041Y-40471476D01*
X210541041Y-40471476D02*
X210160088Y-40281000D01*
X210160088Y-40281000D02*
X209969612Y-39900047D01*
X209969612Y-39900047D02*
X209969612Y-39519095D01*
X209969612Y-39519095D02*
X210160088Y-39138142D01*
X210160088Y-39138142D02*
X210541041Y-38947666D01*
X210541041Y-38947666D02*
X211493422Y-38947666D01*
X211493422Y-38947666D02*
X211874374Y-38757190D01*
X215493422Y-40281000D02*
X215112470Y-40471476D01*
X215112470Y-40471476D02*
X214350565Y-40471476D01*
X214350565Y-40471476D02*
X213969613Y-40281000D01*
X213969613Y-40281000D02*
X213779136Y-40090523D01*
X213779136Y-40090523D02*
X213588660Y-39709571D01*
X213588660Y-39709571D02*
X213588660Y-38566714D01*
X213588660Y-38566714D02*
X213779136Y-38185761D01*
X213779136Y-38185761D02*
X213969613Y-37995285D01*
X213969613Y-37995285D02*
X214350565Y-37804809D01*
X214350565Y-37804809D02*
X215112470Y-37804809D01*
X215112470Y-37804809D02*
X215493422Y-37995285D01*
X216636279Y-37804809D02*
X218160088Y-37804809D01*
X217207707Y-36471476D02*
X217207707Y-39900047D01*
X217207707Y-39900047D02*
X217398184Y-40281000D01*
X217398184Y-40281000D02*
X217779136Y-40471476D01*
X217779136Y-40471476D02*
X218160088Y-40471476D01*
X221207707Y-37804809D02*
X221207707Y-40471476D01*
X219493421Y-37804809D02*
X219493421Y-39900047D01*
X219493421Y-39900047D02*
X219683898Y-40281000D01*
X219683898Y-40281000D02*
X220064850Y-40471476D01*
X220064850Y-40471476D02*
X220636279Y-40471476D01*
X220636279Y-40471476D02*
X221017231Y-40281000D01*
X221017231Y-40281000D02*
X221207707Y-40090523D01*
X223112469Y-40471476D02*
X223112469Y-37804809D01*
X223112469Y-38566714D02*
X223302946Y-38185761D01*
X223302946Y-38185761D02*
X223493422Y-37995285D01*
X223493422Y-37995285D02*
X223874374Y-37804809D01*
X223874374Y-37804809D02*
X224255327Y-37804809D01*
X225588659Y-40471476D02*
X225588659Y-37804809D01*
X225588659Y-36471476D02*
X225398183Y-36661952D01*
X225398183Y-36661952D02*
X225588659Y-36852428D01*
X225588659Y-36852428D02*
X225779136Y-36661952D01*
X225779136Y-36661952D02*
X225588659Y-36471476D01*
X225588659Y-36471476D02*
X225588659Y-36852428D01*
X227493421Y-37804809D02*
X227493421Y-40471476D01*
X227493421Y-38185761D02*
X227683898Y-37995285D01*
X227683898Y-37995285D02*
X228064850Y-37804809D01*
X228064850Y-37804809D02*
X228636279Y-37804809D01*
X228636279Y-37804809D02*
X229017231Y-37995285D01*
X229017231Y-37995285D02*
X229207707Y-38376238D01*
X229207707Y-38376238D02*
X229207707Y-40471476D01*
X232826755Y-37804809D02*
X232826755Y-41042904D01*
X232826755Y-41042904D02*
X232636279Y-41423857D01*
X232636279Y-41423857D02*
X232445803Y-41614333D01*
X232445803Y-41614333D02*
X232064850Y-41804809D01*
X232064850Y-41804809D02*
X231493422Y-41804809D01*
X231493422Y-41804809D02*
X231112469Y-41614333D01*
X232826755Y-40281000D02*
X232445803Y-40471476D01*
X232445803Y-40471476D02*
X231683898Y-40471476D01*
X231683898Y-40471476D02*
X231302946Y-40281000D01*
X231302946Y-40281000D02*
X231112469Y-40090523D01*
X231112469Y-40090523D02*
X230921993Y-39709571D01*
X230921993Y-39709571D02*
X230921993Y-38566714D01*
X230921993Y-38566714D02*
X231112469Y-38185761D01*
X231112469Y-38185761D02*
X231302946Y-37995285D01*
X231302946Y-37995285D02*
X231683898Y-37804809D01*
X231683898Y-37804809D02*
X232445803Y-37804809D01*
X232445803Y-37804809D02*
X232826755Y-37995285D01*
X237779136Y-40471476D02*
X237779136Y-36471476D01*
X237779136Y-36471476D02*
X240064851Y-40471476D01*
X240064851Y-40471476D02*
X240064851Y-36471476D01*
X242541041Y-40471476D02*
X242160089Y-40281000D01*
X242160089Y-40281000D02*
X241969612Y-40090523D01*
X241969612Y-40090523D02*
X241779136Y-39709571D01*
X241779136Y-39709571D02*
X241779136Y-38566714D01*
X241779136Y-38566714D02*
X241969612Y-38185761D01*
X241969612Y-38185761D02*
X242160089Y-37995285D01*
X242160089Y-37995285D02*
X242541041Y-37804809D01*
X242541041Y-37804809D02*
X243112470Y-37804809D01*
X243112470Y-37804809D02*
X243493422Y-37995285D01*
X243493422Y-37995285D02*
X243683898Y-38185761D01*
X243683898Y-38185761D02*
X243874374Y-38566714D01*
X243874374Y-38566714D02*
X243874374Y-39709571D01*
X243874374Y-39709571D02*
X243683898Y-40090523D01*
X243683898Y-40090523D02*
X243493422Y-40281000D01*
X243493422Y-40281000D02*
X243112470Y-40471476D01*
X243112470Y-40471476D02*
X242541041Y-40471476D01*
X245017232Y-37804809D02*
X246541041Y-37804809D01*
X245588660Y-36471476D02*
X245588660Y-39900047D01*
X245588660Y-39900047D02*
X245779137Y-40281000D01*
X245779137Y-40281000D02*
X246160089Y-40471476D01*
X246160089Y-40471476D02*
X246541041Y-40471476D01*
X249398184Y-40281000D02*
X249017232Y-40471476D01*
X249017232Y-40471476D02*
X248255327Y-40471476D01*
X248255327Y-40471476D02*
X247874374Y-40281000D01*
X247874374Y-40281000D02*
X247683898Y-39900047D01*
X247683898Y-39900047D02*
X247683898Y-38376238D01*
X247683898Y-38376238D02*
X247874374Y-37995285D01*
X247874374Y-37995285D02*
X248255327Y-37804809D01*
X248255327Y-37804809D02*
X249017232Y-37804809D01*
X249017232Y-37804809D02*
X249398184Y-37995285D01*
X249398184Y-37995285D02*
X249588660Y-38376238D01*
X249588660Y-38376238D02*
X249588660Y-38757190D01*
X249588660Y-38757190D02*
X247683898Y-39138142D01*
X251112469Y-40281000D02*
X251493422Y-40471476D01*
X251493422Y-40471476D02*
X252255326Y-40471476D01*
X252255326Y-40471476D02*
X252636279Y-40281000D01*
X252636279Y-40281000D02*
X252826755Y-39900047D01*
X252826755Y-39900047D02*
X252826755Y-39709571D01*
X252826755Y-39709571D02*
X252636279Y-39328619D01*
X252636279Y-39328619D02*
X252255326Y-39138142D01*
X252255326Y-39138142D02*
X251683898Y-39138142D01*
X251683898Y-39138142D02*
X251302945Y-38947666D01*
X251302945Y-38947666D02*
X251112469Y-38566714D01*
X251112469Y-38566714D02*
X251112469Y-38376238D01*
X251112469Y-38376238D02*
X251302945Y-37995285D01*
X251302945Y-37995285D02*
X251683898Y-37804809D01*
X251683898Y-37804809D02*
X252255326Y-37804809D01*
X252255326Y-37804809D02*
X252636279Y-37995285D01*
M02*
