%TF.GenerationSoftware,KiCad,Pcbnew,7.0.6*%
%TF.CreationDate,2023-08-17T07:35:33+09:30*%
%TF.ProjectId,spe-sink,7370652d-7369-46e6-9b2e-6b696361645f,V1.0*%
%TF.SameCoordinates,Original*%
%TF.FileFunction,Drillmap*%
%TF.FilePolarity,Positive*%
%FSLAX45Y45*%
G04 Gerber Fmt 4.5, Leading zero omitted, Abs format (unit mm)*
G04 Created by KiCad (PCBNEW 7.0.6) date 2023-08-17 07:35:33*
%MOMM*%
%LPD*%
G01*
G04 APERTURE LIST*
%ADD10C,0.100000*%
%ADD11C,0.200000*%
%ADD12C,0.020000*%
%ADD13C,0.030000*%
%ADD14C,0.040000*%
%ADD15C,0.101500*%
%ADD16C,0.101600*%
G04 APERTURE END LIST*
D10*
X10100000Y-3900000D02*
G75*
G03*
X10000000Y-4000000I0J-100000D01*
G01*
X12222500Y-10400000D02*
X12222500Y-10110000D01*
X10000000Y-9945000D02*
G75*
G03*
X10055000Y-10000000I55000J0D01*
G01*
X12942500Y-10000000D02*
X13750000Y-10000000D01*
X10907500Y-10400000D02*
X10907500Y-10050000D01*
X12942500Y-10000000D02*
G75*
G03*
X12892500Y-10050000I0J-50000D01*
G01*
X10100000Y-3900000D02*
X13700000Y-3900000D01*
X13800000Y-5825000D02*
X13800000Y-4000000D01*
X13800000Y-6175000D02*
X13800000Y-9950000D01*
X10000000Y-6175000D02*
X10000000Y-9945000D01*
X13750000Y-10000000D02*
G75*
G03*
X13800000Y-9950000I0J50000D01*
G01*
X12892500Y-10400000D02*
X12892500Y-10050000D01*
X10857500Y-10000000D02*
X10055000Y-10000000D01*
X12222500Y-10110000D02*
G75*
G03*
X12102500Y-10110000I-60000J0D01*
G01*
X13800000Y-5825000D02*
G75*
G03*
X13800000Y-6175000I0J-175000D01*
G01*
X12222500Y-10400000D02*
X12892500Y-10400000D01*
X10000000Y-5825000D02*
X10000000Y-4000000D01*
X10907500Y-10050000D02*
G75*
G03*
X10857500Y-10000000I-50000J0D01*
G01*
X12102500Y-10110000D02*
X12102500Y-10400000D01*
X12102500Y-10400000D02*
X10907500Y-10400000D01*
X13800000Y-4000000D02*
G75*
G03*
X13700000Y-3900000I-100000J0D01*
G01*
X10000000Y-6175000D02*
G75*
G03*
X10000000Y-5825000I0J175000D01*
G01*
D11*
D12*
X10090000Y-5780000D02*
X10110000Y-5800000D01*
X10110000Y-5780000D02*
X10090000Y-5800000D01*
X10090000Y-6200000D02*
X10110000Y-6220000D01*
X10110000Y-6200000D02*
X10090000Y-6220000D01*
X10220000Y-5990000D02*
X10240000Y-6010000D01*
X10240000Y-5990000D02*
X10220000Y-6010000D01*
X12870000Y-8915000D02*
X12890000Y-8935000D01*
X12890000Y-8915000D02*
X12870000Y-8935000D01*
X12965000Y-8857500D02*
X12985000Y-8877500D01*
X12985000Y-8857500D02*
X12965000Y-8877500D01*
X12965000Y-8972500D02*
X12985000Y-8992500D01*
X12985000Y-8972500D02*
X12965000Y-8992500D01*
X13060000Y-8915000D02*
X13080000Y-8935000D01*
X13080000Y-8915000D02*
X13060000Y-8935000D01*
X13560000Y-5990000D02*
X13580000Y-6010000D01*
X13580000Y-5990000D02*
X13560000Y-6010000D01*
X13690000Y-5780000D02*
X13710000Y-5800000D01*
X13710000Y-5780000D02*
X13690000Y-5800000D01*
X13690000Y-6200000D02*
X13710000Y-6220000D01*
X13710000Y-6200000D02*
X13690000Y-6220000D01*
D13*
X10115000Y-5600000D02*
G75*
G03*
X10115000Y-5600000I-15000J0D01*
G01*
X10165000Y-9850000D02*
G75*
G03*
X10165000Y-9850000I-15000J0D01*
G01*
X10265000Y-5190000D02*
G75*
G03*
X10265000Y-5190000I-15000J0D01*
G01*
X10275000Y-6775000D02*
G75*
G03*
X10275000Y-6775000I-15000J0D01*
G01*
X10275000Y-7025000D02*
G75*
G03*
X10275000Y-7025000I-15000J0D01*
G01*
X10275000Y-7150000D02*
G75*
G03*
X10275000Y-7150000I-15000J0D01*
G01*
X10295000Y-7547500D02*
G75*
G03*
X10295000Y-7547500I-15000J0D01*
G01*
X10435000Y-5752199D02*
G75*
G03*
X10435000Y-5752199I-15000J0D01*
G01*
X10435000Y-6420000D02*
G75*
G03*
X10435000Y-6420000I-15000J0D01*
G01*
X10435000Y-7240000D02*
G75*
G03*
X10435000Y-7240000I-15000J0D01*
G01*
X10465000Y-7675000D02*
G75*
G03*
X10465000Y-7675000I-15000J0D01*
G01*
X10495000Y-6480000D02*
G75*
G03*
X10495000Y-6480000I-15000J0D01*
G01*
X10495000Y-6600000D02*
G75*
G03*
X10495000Y-6600000I-15000J0D01*
G01*
X10515000Y-5220000D02*
G75*
G03*
X10515000Y-5220000I-15000J0D01*
G01*
X10515000Y-7750000D02*
G75*
G03*
X10515000Y-7750000I-15000J0D01*
G01*
X10540000Y-8400000D02*
G75*
G03*
X10540000Y-8400000I-15000J0D01*
G01*
X10540000Y-8475000D02*
G75*
G03*
X10540000Y-8475000I-15000J0D01*
G01*
X10540000Y-8550000D02*
G75*
G03*
X10540000Y-8550000I-15000J0D01*
G01*
X10555659Y-7440659D02*
G75*
G03*
X10555659Y-7440659I-15000J0D01*
G01*
X10615000Y-5760000D02*
G75*
G03*
X10615000Y-5760000I-15000J0D01*
G01*
X10665000Y-7820000D02*
G75*
G03*
X10665000Y-7820000I-15000J0D01*
G01*
X10675659Y-5179341D02*
G75*
G03*
X10675659Y-5179341I-15000J0D01*
G01*
X10695000Y-5800000D02*
G75*
G03*
X10695000Y-5800000I-15000J0D01*
G01*
X10715000Y-9620000D02*
G75*
G03*
X10715000Y-9620000I-15000J0D01*
G01*
X10734341Y-7859341D02*
G75*
G03*
X10734341Y-7859341I-15000J0D01*
G01*
X10775000Y-5840000D02*
G75*
G03*
X10775000Y-5840000I-15000J0D01*
G01*
X10855000Y-5880000D02*
G75*
G03*
X10855000Y-5880000I-15000J0D01*
G01*
X10865000Y-7875000D02*
G75*
G03*
X10865000Y-7875000I-15000J0D01*
G01*
X10875000Y-9340000D02*
G75*
G03*
X10875000Y-9340000I-15000J0D01*
G01*
X10875000Y-9900000D02*
G75*
G03*
X10875000Y-9900000I-15000J0D01*
G01*
X10965000Y-7970000D02*
G75*
G03*
X10965000Y-7970000I-15000J0D01*
G01*
X11015000Y-8130000D02*
G75*
G03*
X11015000Y-8130000I-15000J0D01*
G01*
X11245000Y-8680000D02*
G75*
G03*
X11245000Y-8680000I-15000J0D01*
G01*
X11255000Y-7760000D02*
G75*
G03*
X11255000Y-7760000I-15000J0D01*
G01*
X11255000Y-9140000D02*
G75*
G03*
X11255000Y-9140000I-15000J0D01*
G01*
X11295000Y-8000000D02*
G75*
G03*
X11295000Y-8000000I-15000J0D01*
G01*
X11372075Y-8725264D02*
G75*
G03*
X11372075Y-8725264I-15000J0D01*
G01*
X11375000Y-10000000D02*
G75*
G03*
X11375000Y-10000000I-15000J0D01*
G01*
X11375000Y-8650000D02*
G75*
G03*
X11375000Y-8650000I-15000J0D01*
G01*
X11454341Y-10000659D02*
G75*
G03*
X11454341Y-10000659I-15000J0D01*
G01*
X11515000Y-7140000D02*
G75*
G03*
X11515000Y-7140000I-15000J0D01*
G01*
X11515000Y-7360000D02*
G75*
G03*
X11515000Y-7360000I-15000J0D01*
G01*
X11517500Y-7277500D02*
G75*
G03*
X11517500Y-7277500I-15000J0D01*
G01*
X11535000Y-10000000D02*
G75*
G03*
X11535000Y-10000000I-15000J0D01*
G01*
X11674999Y-7700000D02*
G75*
G03*
X11674999Y-7700000I-15000J0D01*
G01*
X11695000Y-7500000D02*
G75*
G03*
X11695000Y-7500000I-15000J0D01*
G01*
X11695000Y-10000000D02*
G75*
G03*
X11695000Y-10000000I-15000J0D01*
G01*
X11735000Y-7630000D02*
G75*
G03*
X11735000Y-7630000I-15000J0D01*
G01*
X11815891Y-7626891D02*
G75*
G03*
X11815891Y-7626891I-15000J0D01*
G01*
X11835000Y-8712287D02*
G75*
G03*
X11835000Y-8712287I-15000J0D01*
G01*
X11835000Y-10000000D02*
G75*
G03*
X11835000Y-10000000I-15000J0D01*
G01*
X11865000Y-9620000D02*
G75*
G03*
X11865000Y-9620000I-15000J0D01*
G01*
X11915000Y-8740000D02*
G75*
G03*
X11915000Y-8740000I-15000J0D01*
G01*
X11939999Y-9542500D02*
G75*
G03*
X11939999Y-9542500I-15000J0D01*
G01*
X11940000Y-6750000D02*
G75*
G03*
X11940000Y-6750000I-15000J0D01*
G01*
X11965000Y-8260000D02*
G75*
G03*
X11965000Y-8260000I-15000J0D01*
G01*
X11972500Y-9950000D02*
G75*
G03*
X11972500Y-9950000I-15000J0D01*
G01*
X12039999Y-9925000D02*
G75*
G03*
X12039999Y-9925000I-15000J0D01*
G01*
X12045001Y-7520000D02*
G75*
G03*
X12045001Y-7520000I-15000J0D01*
G01*
X12115000Y-9920000D02*
G75*
G03*
X12115000Y-9920000I-15000J0D01*
G01*
X12140000Y-7975000D02*
G75*
G03*
X12140000Y-7975000I-15000J0D01*
G01*
X12215000Y-10000000D02*
G75*
G03*
X12215000Y-10000000I-15000J0D01*
G01*
X12290000Y-9775000D02*
G75*
G03*
X12290000Y-9775000I-15000J0D01*
G01*
X12390000Y-9875000D02*
G75*
G03*
X12390000Y-9875000I-15000J0D01*
G01*
X12490000Y-9800000D02*
G75*
G03*
X12490000Y-9800000I-15000J0D01*
G01*
X12590000Y-9932500D02*
G75*
G03*
X12590000Y-9932500I-15000J0D01*
G01*
X12615000Y-9460000D02*
G75*
G03*
X12615000Y-9460000I-15000J0D01*
G01*
X12640000Y-8700000D02*
G75*
G03*
X12640000Y-8700000I-15000J0D01*
G01*
X12740000Y-9850000D02*
G75*
G03*
X12740000Y-9850000I-15000J0D01*
G01*
X12765000Y-9100000D02*
G75*
G03*
X12765000Y-9100000I-15000J0D01*
G01*
X12940000Y-8525000D02*
G75*
G03*
X12940000Y-8525000I-15000J0D01*
G01*
X12940000Y-9900000D02*
G75*
G03*
X12940000Y-9900000I-15000J0D01*
G01*
X12965000Y-9550000D02*
G75*
G03*
X12965000Y-9550000I-15000J0D01*
G01*
X13315000Y-9425000D02*
G75*
G03*
X13315000Y-9425000I-15000J0D01*
G01*
X13315000Y-9525000D02*
G75*
G03*
X13315000Y-9525000I-15000J0D01*
G01*
X13565000Y-8525000D02*
G75*
G03*
X13565000Y-8525000I-15000J0D01*
G01*
X13565000Y-8625000D02*
G75*
G03*
X13565000Y-8625000I-15000J0D01*
G01*
X13590000Y-9175000D02*
G75*
G03*
X13590000Y-9175000I-15000J0D01*
G01*
X13590000Y-9325000D02*
G75*
G03*
X13590000Y-9325000I-15000J0D01*
G01*
X13590000Y-9475000D02*
G75*
G03*
X13590000Y-9475000I-15000J0D01*
G01*
X13590000Y-9625000D02*
G75*
G03*
X13590000Y-9625000I-15000J0D01*
G01*
X13590000Y-9775000D02*
G75*
G03*
X13590000Y-9775000I-15000J0D01*
G01*
X10900000Y-7085000D02*
X10900000Y-7115000D01*
X10885000Y-7100000D02*
X10915000Y-7100000D01*
X10900000Y-7185000D02*
X10900000Y-7215000D01*
X10885000Y-7200000D02*
X10915000Y-7200000D01*
X10900000Y-7287500D02*
X10900000Y-7317500D01*
X10885000Y-7302500D02*
X10915000Y-7302500D01*
X11000000Y-7085000D02*
X11000000Y-7115000D01*
X10985000Y-7100000D02*
X11015000Y-7100000D01*
X11000000Y-7185000D02*
X11000000Y-7215000D01*
X10985000Y-7200000D02*
X11015000Y-7200000D01*
X11000000Y-7287500D02*
X11000000Y-7317500D01*
X10985000Y-7302500D02*
X11015000Y-7302500D01*
X11100000Y-7085000D02*
X11100000Y-7115000D01*
X11085000Y-7100000D02*
X11115000Y-7100000D01*
X11100000Y-7185000D02*
X11100000Y-7215000D01*
X11085000Y-7200000D02*
X11115000Y-7200000D01*
X11102500Y-7287500D02*
X11102500Y-7317500D01*
X11087500Y-7302500D02*
X11117500Y-7302500D01*
D14*
X11163142Y-4113142D02*
X11163142Y-4084858D01*
X11134858Y-4084858D01*
X11134858Y-4113142D01*
X11163142Y-4113142D01*
X11664142Y-5964142D02*
X11664142Y-5935858D01*
X11635858Y-5935858D01*
X11635858Y-5964142D01*
X11664142Y-5964142D01*
X11964142Y-6189142D02*
X11964142Y-6160858D01*
X11935858Y-6160858D01*
X11935858Y-6189142D01*
X11964142Y-6189142D01*
X13539142Y-6289142D02*
X13539142Y-6260858D01*
X13510858Y-6260858D01*
X13510858Y-6289142D01*
X13539142Y-6289142D01*
D15*
X11646000Y-4700750D02*
X11696750Y-4650000D01*
X11646000Y-4599250D01*
X11595250Y-4650000D01*
X11646000Y-4700750D01*
X11646000Y-5208750D02*
X11696750Y-5158000D01*
X11646000Y-5107250D01*
X11595250Y-5158000D01*
X11646000Y-5208750D01*
X11900000Y-4700750D02*
X11950750Y-4650000D01*
X11900000Y-4599250D01*
X11849250Y-4650000D01*
X11900000Y-4700750D01*
X11900000Y-5208750D02*
X11950750Y-5158000D01*
X11900000Y-5107250D01*
X11849250Y-5158000D01*
X11900000Y-5208750D01*
X12154000Y-4700750D02*
X12204750Y-4650000D01*
X12154000Y-4599250D01*
X12103250Y-4650000D01*
X12154000Y-4700750D01*
X12154000Y-5208750D02*
X12204750Y-5158000D01*
X12154000Y-5107250D01*
X12103250Y-5158000D01*
X12154000Y-5208750D01*
D16*
X10249200Y-8747700D02*
X10350800Y-8849300D01*
X10350800Y-8747700D02*
X10249200Y-8849300D01*
X10350800Y-8798500D02*
G75*
G03*
X10350800Y-8798500I-50800J0D01*
G01*
X10249200Y-9001700D02*
X10350800Y-9103300D01*
X10350800Y-9001700D02*
X10249200Y-9103300D01*
X10350800Y-9052500D02*
G75*
G03*
X10350800Y-9052500I-50800J0D01*
G01*
D11*
X10255777Y-10716484D02*
X10255777Y-10516484D01*
X10255777Y-10516484D02*
X10303396Y-10516484D01*
X10303396Y-10516484D02*
X10331967Y-10526008D01*
X10331967Y-10526008D02*
X10351015Y-10545055D01*
X10351015Y-10545055D02*
X10360539Y-10564103D01*
X10360539Y-10564103D02*
X10370063Y-10602198D01*
X10370063Y-10602198D02*
X10370063Y-10630770D01*
X10370063Y-10630770D02*
X10360539Y-10668865D01*
X10360539Y-10668865D02*
X10351015Y-10687912D01*
X10351015Y-10687912D02*
X10331967Y-10706960D01*
X10331967Y-10706960D02*
X10303396Y-10716484D01*
X10303396Y-10716484D02*
X10255777Y-10716484D01*
X10455777Y-10716484D02*
X10455777Y-10583150D01*
X10455777Y-10621246D02*
X10465301Y-10602198D01*
X10465301Y-10602198D02*
X10474824Y-10592674D01*
X10474824Y-10592674D02*
X10493872Y-10583150D01*
X10493872Y-10583150D02*
X10512920Y-10583150D01*
X10579586Y-10716484D02*
X10579586Y-10583150D01*
X10579586Y-10516484D02*
X10570063Y-10526008D01*
X10570063Y-10526008D02*
X10579586Y-10535531D01*
X10579586Y-10535531D02*
X10589110Y-10526008D01*
X10589110Y-10526008D02*
X10579586Y-10516484D01*
X10579586Y-10516484D02*
X10579586Y-10535531D01*
X10703396Y-10716484D02*
X10684348Y-10706960D01*
X10684348Y-10706960D02*
X10674824Y-10687912D01*
X10674824Y-10687912D02*
X10674824Y-10516484D01*
X10808158Y-10716484D02*
X10789110Y-10706960D01*
X10789110Y-10706960D02*
X10779586Y-10687912D01*
X10779586Y-10687912D02*
X10779586Y-10516484D01*
X11036729Y-10716484D02*
X11036729Y-10516484D01*
X11036729Y-10516484D02*
X11103396Y-10659341D01*
X11103396Y-10659341D02*
X11170063Y-10516484D01*
X11170063Y-10516484D02*
X11170063Y-10716484D01*
X11351015Y-10716484D02*
X11351015Y-10611722D01*
X11351015Y-10611722D02*
X11341491Y-10592674D01*
X11341491Y-10592674D02*
X11322443Y-10583150D01*
X11322443Y-10583150D02*
X11284348Y-10583150D01*
X11284348Y-10583150D02*
X11265301Y-10592674D01*
X11351015Y-10706960D02*
X11331967Y-10716484D01*
X11331967Y-10716484D02*
X11284348Y-10716484D01*
X11284348Y-10716484D02*
X11265301Y-10706960D01*
X11265301Y-10706960D02*
X11255777Y-10687912D01*
X11255777Y-10687912D02*
X11255777Y-10668865D01*
X11255777Y-10668865D02*
X11265301Y-10649817D01*
X11265301Y-10649817D02*
X11284348Y-10640293D01*
X11284348Y-10640293D02*
X11331967Y-10640293D01*
X11331967Y-10640293D02*
X11351015Y-10630770D01*
X11446253Y-10583150D02*
X11446253Y-10783150D01*
X11446253Y-10592674D02*
X11465301Y-10583150D01*
X11465301Y-10583150D02*
X11503396Y-10583150D01*
X11503396Y-10583150D02*
X11522443Y-10592674D01*
X11522443Y-10592674D02*
X11531967Y-10602198D01*
X11531967Y-10602198D02*
X11541491Y-10621246D01*
X11541491Y-10621246D02*
X11541491Y-10678389D01*
X11541491Y-10678389D02*
X11531967Y-10697436D01*
X11531967Y-10697436D02*
X11522443Y-10706960D01*
X11522443Y-10706960D02*
X11503396Y-10716484D01*
X11503396Y-10716484D02*
X11465301Y-10716484D01*
X11465301Y-10716484D02*
X11446253Y-10706960D01*
X11627205Y-10697436D02*
X11636729Y-10706960D01*
X11636729Y-10706960D02*
X11627205Y-10716484D01*
X11627205Y-10716484D02*
X11617682Y-10706960D01*
X11617682Y-10706960D02*
X11627205Y-10697436D01*
X11627205Y-10697436D02*
X11627205Y-10716484D01*
X11627205Y-10592674D02*
X11636729Y-10602198D01*
X11636729Y-10602198D02*
X11627205Y-10611722D01*
X11627205Y-10611722D02*
X11617682Y-10602198D01*
X11617682Y-10602198D02*
X11627205Y-10592674D01*
X11627205Y-10592674D02*
X11627205Y-10611722D01*
D12*
X9975000Y-11035000D02*
X9995000Y-11055000D01*
X9995000Y-11035000D02*
X9975000Y-11055000D01*
D11*
X10293872Y-10936484D02*
X10312920Y-10936484D01*
X10312920Y-10936484D02*
X10331967Y-10946008D01*
X10331967Y-10946008D02*
X10341491Y-10955531D01*
X10341491Y-10955531D02*
X10351015Y-10974579D01*
X10351015Y-10974579D02*
X10360539Y-11012674D01*
X10360539Y-11012674D02*
X10360539Y-11060293D01*
X10360539Y-11060293D02*
X10351015Y-11098389D01*
X10351015Y-11098389D02*
X10341491Y-11117436D01*
X10341491Y-11117436D02*
X10331967Y-11126960D01*
X10331967Y-11126960D02*
X10312920Y-11136484D01*
X10312920Y-11136484D02*
X10293872Y-11136484D01*
X10293872Y-11136484D02*
X10274824Y-11126960D01*
X10274824Y-11126960D02*
X10265301Y-11117436D01*
X10265301Y-11117436D02*
X10255777Y-11098389D01*
X10255777Y-11098389D02*
X10246253Y-11060293D01*
X10246253Y-11060293D02*
X10246253Y-11012674D01*
X10246253Y-11012674D02*
X10255777Y-10974579D01*
X10255777Y-10974579D02*
X10265301Y-10955531D01*
X10265301Y-10955531D02*
X10274824Y-10946008D01*
X10274824Y-10946008D02*
X10293872Y-10936484D01*
X10446253Y-11117436D02*
X10455777Y-11126960D01*
X10455777Y-11126960D02*
X10446253Y-11136484D01*
X10446253Y-11136484D02*
X10436729Y-11126960D01*
X10436729Y-11126960D02*
X10446253Y-11117436D01*
X10446253Y-11117436D02*
X10446253Y-11136484D01*
X10531967Y-10955531D02*
X10541491Y-10946008D01*
X10541491Y-10946008D02*
X10560539Y-10936484D01*
X10560539Y-10936484D02*
X10608158Y-10936484D01*
X10608158Y-10936484D02*
X10627205Y-10946008D01*
X10627205Y-10946008D02*
X10636729Y-10955531D01*
X10636729Y-10955531D02*
X10646253Y-10974579D01*
X10646253Y-10974579D02*
X10646253Y-10993627D01*
X10646253Y-10993627D02*
X10636729Y-11022198D01*
X10636729Y-11022198D02*
X10522444Y-11136484D01*
X10522444Y-11136484D02*
X10646253Y-11136484D01*
X10770063Y-10936484D02*
X10789110Y-10936484D01*
X10789110Y-10936484D02*
X10808158Y-10946008D01*
X10808158Y-10946008D02*
X10817682Y-10955531D01*
X10817682Y-10955531D02*
X10827205Y-10974579D01*
X10827205Y-10974579D02*
X10836729Y-11012674D01*
X10836729Y-11012674D02*
X10836729Y-11060293D01*
X10836729Y-11060293D02*
X10827205Y-11098389D01*
X10827205Y-11098389D02*
X10817682Y-11117436D01*
X10817682Y-11117436D02*
X10808158Y-11126960D01*
X10808158Y-11126960D02*
X10789110Y-11136484D01*
X10789110Y-11136484D02*
X10770063Y-11136484D01*
X10770063Y-11136484D02*
X10751015Y-11126960D01*
X10751015Y-11126960D02*
X10741491Y-11117436D01*
X10741491Y-11117436D02*
X10731967Y-11098389D01*
X10731967Y-11098389D02*
X10722444Y-11060293D01*
X10722444Y-11060293D02*
X10722444Y-11012674D01*
X10722444Y-11012674D02*
X10731967Y-10974579D01*
X10731967Y-10974579D02*
X10741491Y-10955531D01*
X10741491Y-10955531D02*
X10751015Y-10946008D01*
X10751015Y-10946008D02*
X10770063Y-10936484D01*
X10960539Y-10936484D02*
X10979586Y-10936484D01*
X10979586Y-10936484D02*
X10998634Y-10946008D01*
X10998634Y-10946008D02*
X11008158Y-10955531D01*
X11008158Y-10955531D02*
X11017682Y-10974579D01*
X11017682Y-10974579D02*
X11027205Y-11012674D01*
X11027205Y-11012674D02*
X11027205Y-11060293D01*
X11027205Y-11060293D02*
X11017682Y-11098389D01*
X11017682Y-11098389D02*
X11008158Y-11117436D01*
X11008158Y-11117436D02*
X10998634Y-11126960D01*
X10998634Y-11126960D02*
X10979586Y-11136484D01*
X10979586Y-11136484D02*
X10960539Y-11136484D01*
X10960539Y-11136484D02*
X10941491Y-11126960D01*
X10941491Y-11126960D02*
X10931967Y-11117436D01*
X10931967Y-11117436D02*
X10922444Y-11098389D01*
X10922444Y-11098389D02*
X10912920Y-11060293D01*
X10912920Y-11060293D02*
X10912920Y-11012674D01*
X10912920Y-11012674D02*
X10922444Y-10974579D01*
X10922444Y-10974579D02*
X10931967Y-10955531D01*
X10931967Y-10955531D02*
X10941491Y-10946008D01*
X10941491Y-10946008D02*
X10960539Y-10936484D01*
X11112920Y-11136484D02*
X11112920Y-11003150D01*
X11112920Y-11022198D02*
X11122444Y-11012674D01*
X11122444Y-11012674D02*
X11141491Y-11003150D01*
X11141491Y-11003150D02*
X11170063Y-11003150D01*
X11170063Y-11003150D02*
X11189110Y-11012674D01*
X11189110Y-11012674D02*
X11198634Y-11031722D01*
X11198634Y-11031722D02*
X11198634Y-11136484D01*
X11198634Y-11031722D02*
X11208158Y-11012674D01*
X11208158Y-11012674D02*
X11227205Y-11003150D01*
X11227205Y-11003150D02*
X11255777Y-11003150D01*
X11255777Y-11003150D02*
X11274824Y-11012674D01*
X11274824Y-11012674D02*
X11284348Y-11031722D01*
X11284348Y-11031722D02*
X11284348Y-11136484D01*
X11379586Y-11136484D02*
X11379586Y-11003150D01*
X11379586Y-11022198D02*
X11389110Y-11012674D01*
X11389110Y-11012674D02*
X11408158Y-11003150D01*
X11408158Y-11003150D02*
X11436729Y-11003150D01*
X11436729Y-11003150D02*
X11455777Y-11012674D01*
X11455777Y-11012674D02*
X11465301Y-11031722D01*
X11465301Y-11031722D02*
X11465301Y-11136484D01*
X11465301Y-11031722D02*
X11474824Y-11012674D01*
X11474824Y-11012674D02*
X11493872Y-11003150D01*
X11493872Y-11003150D02*
X11522443Y-11003150D01*
X11522443Y-11003150D02*
X11541491Y-11012674D01*
X11541491Y-11012674D02*
X11551015Y-11031722D01*
X11551015Y-11031722D02*
X11551015Y-11136484D01*
X11941491Y-10926960D02*
X11770063Y-11184103D01*
X12198634Y-10936484D02*
X12217682Y-10936484D01*
X12217682Y-10936484D02*
X12236729Y-10946008D01*
X12236729Y-10946008D02*
X12246253Y-10955531D01*
X12246253Y-10955531D02*
X12255777Y-10974579D01*
X12255777Y-10974579D02*
X12265301Y-11012674D01*
X12265301Y-11012674D02*
X12265301Y-11060293D01*
X12265301Y-11060293D02*
X12255777Y-11098389D01*
X12255777Y-11098389D02*
X12246253Y-11117436D01*
X12246253Y-11117436D02*
X12236729Y-11126960D01*
X12236729Y-11126960D02*
X12217682Y-11136484D01*
X12217682Y-11136484D02*
X12198634Y-11136484D01*
X12198634Y-11136484D02*
X12179586Y-11126960D01*
X12179586Y-11126960D02*
X12170063Y-11117436D01*
X12170063Y-11117436D02*
X12160539Y-11098389D01*
X12160539Y-11098389D02*
X12151015Y-11060293D01*
X12151015Y-11060293D02*
X12151015Y-11012674D01*
X12151015Y-11012674D02*
X12160539Y-10974579D01*
X12160539Y-10974579D02*
X12170063Y-10955531D01*
X12170063Y-10955531D02*
X12179586Y-10946008D01*
X12179586Y-10946008D02*
X12198634Y-10936484D01*
X12351015Y-11117436D02*
X12360539Y-11126960D01*
X12360539Y-11126960D02*
X12351015Y-11136484D01*
X12351015Y-11136484D02*
X12341491Y-11126960D01*
X12341491Y-11126960D02*
X12351015Y-11117436D01*
X12351015Y-11117436D02*
X12351015Y-11136484D01*
X12484348Y-10936484D02*
X12503396Y-10936484D01*
X12503396Y-10936484D02*
X12522444Y-10946008D01*
X12522444Y-10946008D02*
X12531967Y-10955531D01*
X12531967Y-10955531D02*
X12541491Y-10974579D01*
X12541491Y-10974579D02*
X12551015Y-11012674D01*
X12551015Y-11012674D02*
X12551015Y-11060293D01*
X12551015Y-11060293D02*
X12541491Y-11098389D01*
X12541491Y-11098389D02*
X12531967Y-11117436D01*
X12531967Y-11117436D02*
X12522444Y-11126960D01*
X12522444Y-11126960D02*
X12503396Y-11136484D01*
X12503396Y-11136484D02*
X12484348Y-11136484D01*
X12484348Y-11136484D02*
X12465301Y-11126960D01*
X12465301Y-11126960D02*
X12455777Y-11117436D01*
X12455777Y-11117436D02*
X12446253Y-11098389D01*
X12446253Y-11098389D02*
X12436729Y-11060293D01*
X12436729Y-11060293D02*
X12436729Y-11012674D01*
X12436729Y-11012674D02*
X12446253Y-10974579D01*
X12446253Y-10974579D02*
X12455777Y-10955531D01*
X12455777Y-10955531D02*
X12465301Y-10946008D01*
X12465301Y-10946008D02*
X12484348Y-10936484D01*
X12674825Y-10936484D02*
X12693872Y-10936484D01*
X12693872Y-10936484D02*
X12712920Y-10946008D01*
X12712920Y-10946008D02*
X12722444Y-10955531D01*
X12722444Y-10955531D02*
X12731967Y-10974579D01*
X12731967Y-10974579D02*
X12741491Y-11012674D01*
X12741491Y-11012674D02*
X12741491Y-11060293D01*
X12741491Y-11060293D02*
X12731967Y-11098389D01*
X12731967Y-11098389D02*
X12722444Y-11117436D01*
X12722444Y-11117436D02*
X12712920Y-11126960D01*
X12712920Y-11126960D02*
X12693872Y-11136484D01*
X12693872Y-11136484D02*
X12674825Y-11136484D01*
X12674825Y-11136484D02*
X12655777Y-11126960D01*
X12655777Y-11126960D02*
X12646253Y-11117436D01*
X12646253Y-11117436D02*
X12636729Y-11098389D01*
X12636729Y-11098389D02*
X12627206Y-11060293D01*
X12627206Y-11060293D02*
X12627206Y-11012674D01*
X12627206Y-11012674D02*
X12636729Y-10974579D01*
X12636729Y-10974579D02*
X12646253Y-10955531D01*
X12646253Y-10955531D02*
X12655777Y-10946008D01*
X12655777Y-10946008D02*
X12674825Y-10936484D01*
X12808158Y-10936484D02*
X12941491Y-10936484D01*
X12941491Y-10936484D02*
X12855777Y-11136484D01*
X13027206Y-11136484D02*
X13065301Y-11136484D01*
X13065301Y-11136484D02*
X13084348Y-11126960D01*
X13084348Y-11126960D02*
X13093872Y-11117436D01*
X13093872Y-11117436D02*
X13112920Y-11088865D01*
X13112920Y-11088865D02*
X13122444Y-11050770D01*
X13122444Y-11050770D02*
X13122444Y-10974579D01*
X13122444Y-10974579D02*
X13112920Y-10955531D01*
X13112920Y-10955531D02*
X13103396Y-10946008D01*
X13103396Y-10946008D02*
X13084348Y-10936484D01*
X13084348Y-10936484D02*
X13046253Y-10936484D01*
X13046253Y-10936484D02*
X13027206Y-10946008D01*
X13027206Y-10946008D02*
X13017682Y-10955531D01*
X13017682Y-10955531D02*
X13008158Y-10974579D01*
X13008158Y-10974579D02*
X13008158Y-11022198D01*
X13008158Y-11022198D02*
X13017682Y-11041246D01*
X13017682Y-11041246D02*
X13027206Y-11050770D01*
X13027206Y-11050770D02*
X13046253Y-11060293D01*
X13046253Y-11060293D02*
X13084348Y-11060293D01*
X13084348Y-11060293D02*
X13103396Y-11050770D01*
X13103396Y-11050770D02*
X13112920Y-11041246D01*
X13112920Y-11041246D02*
X13122444Y-11022198D01*
X13198634Y-10936484D02*
X13198634Y-10974579D01*
X13274825Y-10936484D02*
X13274825Y-10974579D01*
X13570063Y-11212674D02*
X13560539Y-11203150D01*
X13560539Y-11203150D02*
X13541491Y-11174579D01*
X13541491Y-11174579D02*
X13531968Y-11155531D01*
X13531968Y-11155531D02*
X13522444Y-11126960D01*
X13522444Y-11126960D02*
X13512920Y-11079341D01*
X13512920Y-11079341D02*
X13512920Y-11041246D01*
X13512920Y-11041246D02*
X13522444Y-10993627D01*
X13522444Y-10993627D02*
X13531968Y-10965055D01*
X13531968Y-10965055D02*
X13541491Y-10946008D01*
X13541491Y-10946008D02*
X13560539Y-10917436D01*
X13560539Y-10917436D02*
X13570063Y-10907912D01*
X13751015Y-11136484D02*
X13636729Y-11136484D01*
X13693872Y-11136484D02*
X13693872Y-10936484D01*
X13693872Y-10936484D02*
X13674825Y-10965055D01*
X13674825Y-10965055D02*
X13655777Y-10984103D01*
X13655777Y-10984103D02*
X13636729Y-10993627D01*
X13874825Y-10936484D02*
X13893872Y-10936484D01*
X13893872Y-10936484D02*
X13912920Y-10946008D01*
X13912920Y-10946008D02*
X13922444Y-10955531D01*
X13922444Y-10955531D02*
X13931968Y-10974579D01*
X13931968Y-10974579D02*
X13941491Y-11012674D01*
X13941491Y-11012674D02*
X13941491Y-11060293D01*
X13941491Y-11060293D02*
X13931968Y-11098389D01*
X13931968Y-11098389D02*
X13922444Y-11117436D01*
X13922444Y-11117436D02*
X13912920Y-11126960D01*
X13912920Y-11126960D02*
X13893872Y-11136484D01*
X13893872Y-11136484D02*
X13874825Y-11136484D01*
X13874825Y-11136484D02*
X13855777Y-11126960D01*
X13855777Y-11126960D02*
X13846253Y-11117436D01*
X13846253Y-11117436D02*
X13836729Y-11098389D01*
X13836729Y-11098389D02*
X13827206Y-11060293D01*
X13827206Y-11060293D02*
X13827206Y-11012674D01*
X13827206Y-11012674D02*
X13836729Y-10974579D01*
X13836729Y-10974579D02*
X13846253Y-10955531D01*
X13846253Y-10955531D02*
X13855777Y-10946008D01*
X13855777Y-10946008D02*
X13874825Y-10936484D01*
X14179587Y-11136484D02*
X14179587Y-10936484D01*
X14265301Y-11136484D02*
X14265301Y-11031722D01*
X14265301Y-11031722D02*
X14255777Y-11012674D01*
X14255777Y-11012674D02*
X14236730Y-11003150D01*
X14236730Y-11003150D02*
X14208158Y-11003150D01*
X14208158Y-11003150D02*
X14189110Y-11012674D01*
X14189110Y-11012674D02*
X14179587Y-11022198D01*
X14389110Y-11136484D02*
X14370063Y-11126960D01*
X14370063Y-11126960D02*
X14360539Y-11117436D01*
X14360539Y-11117436D02*
X14351015Y-11098389D01*
X14351015Y-11098389D02*
X14351015Y-11041246D01*
X14351015Y-11041246D02*
X14360539Y-11022198D01*
X14360539Y-11022198D02*
X14370063Y-11012674D01*
X14370063Y-11012674D02*
X14389110Y-11003150D01*
X14389110Y-11003150D02*
X14417682Y-11003150D01*
X14417682Y-11003150D02*
X14436730Y-11012674D01*
X14436730Y-11012674D02*
X14446253Y-11022198D01*
X14446253Y-11022198D02*
X14455777Y-11041246D01*
X14455777Y-11041246D02*
X14455777Y-11098389D01*
X14455777Y-11098389D02*
X14446253Y-11117436D01*
X14446253Y-11117436D02*
X14436730Y-11126960D01*
X14436730Y-11126960D02*
X14417682Y-11136484D01*
X14417682Y-11136484D02*
X14389110Y-11136484D01*
X14570063Y-11136484D02*
X14551015Y-11126960D01*
X14551015Y-11126960D02*
X14541491Y-11107912D01*
X14541491Y-11107912D02*
X14541491Y-10936484D01*
X14722444Y-11126960D02*
X14703396Y-11136484D01*
X14703396Y-11136484D02*
X14665301Y-11136484D01*
X14665301Y-11136484D02*
X14646253Y-11126960D01*
X14646253Y-11126960D02*
X14636730Y-11107912D01*
X14636730Y-11107912D02*
X14636730Y-11031722D01*
X14636730Y-11031722D02*
X14646253Y-11012674D01*
X14646253Y-11012674D02*
X14665301Y-11003150D01*
X14665301Y-11003150D02*
X14703396Y-11003150D01*
X14703396Y-11003150D02*
X14722444Y-11012674D01*
X14722444Y-11012674D02*
X14731968Y-11031722D01*
X14731968Y-11031722D02*
X14731968Y-11050770D01*
X14731968Y-11050770D02*
X14636730Y-11069817D01*
X14808158Y-11126960D02*
X14827206Y-11136484D01*
X14827206Y-11136484D02*
X14865301Y-11136484D01*
X14865301Y-11136484D02*
X14884349Y-11126960D01*
X14884349Y-11126960D02*
X14893872Y-11107912D01*
X14893872Y-11107912D02*
X14893872Y-11098389D01*
X14893872Y-11098389D02*
X14884349Y-11079341D01*
X14884349Y-11079341D02*
X14865301Y-11069817D01*
X14865301Y-11069817D02*
X14836730Y-11069817D01*
X14836730Y-11069817D02*
X14817682Y-11060293D01*
X14817682Y-11060293D02*
X14808158Y-11041246D01*
X14808158Y-11041246D02*
X14808158Y-11031722D01*
X14808158Y-11031722D02*
X14817682Y-11012674D01*
X14817682Y-11012674D02*
X14836730Y-11003150D01*
X14836730Y-11003150D02*
X14865301Y-11003150D01*
X14865301Y-11003150D02*
X14884349Y-11012674D01*
X14960539Y-11212674D02*
X14970063Y-11203150D01*
X14970063Y-11203150D02*
X14989111Y-11174579D01*
X14989111Y-11174579D02*
X14998634Y-11155531D01*
X14998634Y-11155531D02*
X15008158Y-11126960D01*
X15008158Y-11126960D02*
X15017682Y-11079341D01*
X15017682Y-11079341D02*
X15017682Y-11041246D01*
X15017682Y-11041246D02*
X15008158Y-10993627D01*
X15008158Y-10993627D02*
X14998634Y-10965055D01*
X14998634Y-10965055D02*
X14989111Y-10946008D01*
X14989111Y-10946008D02*
X14970063Y-10917436D01*
X14970063Y-10917436D02*
X14960539Y-10907912D01*
D13*
X9995000Y-11309000D02*
G75*
G03*
X9995000Y-11309000I-15000J0D01*
G01*
D11*
X10293872Y-11200484D02*
X10312920Y-11200484D01*
X10312920Y-11200484D02*
X10331967Y-11210008D01*
X10331967Y-11210008D02*
X10341491Y-11219531D01*
X10341491Y-11219531D02*
X10351015Y-11238579D01*
X10351015Y-11238579D02*
X10360539Y-11276674D01*
X10360539Y-11276674D02*
X10360539Y-11324293D01*
X10360539Y-11324293D02*
X10351015Y-11362388D01*
X10351015Y-11362388D02*
X10341491Y-11381436D01*
X10341491Y-11381436D02*
X10331967Y-11390960D01*
X10331967Y-11390960D02*
X10312920Y-11400484D01*
X10312920Y-11400484D02*
X10293872Y-11400484D01*
X10293872Y-11400484D02*
X10274824Y-11390960D01*
X10274824Y-11390960D02*
X10265301Y-11381436D01*
X10265301Y-11381436D02*
X10255777Y-11362388D01*
X10255777Y-11362388D02*
X10246253Y-11324293D01*
X10246253Y-11324293D02*
X10246253Y-11276674D01*
X10246253Y-11276674D02*
X10255777Y-11238579D01*
X10255777Y-11238579D02*
X10265301Y-11219531D01*
X10265301Y-11219531D02*
X10274824Y-11210008D01*
X10274824Y-11210008D02*
X10293872Y-11200484D01*
X10446253Y-11381436D02*
X10455777Y-11390960D01*
X10455777Y-11390960D02*
X10446253Y-11400484D01*
X10446253Y-11400484D02*
X10436729Y-11390960D01*
X10436729Y-11390960D02*
X10446253Y-11381436D01*
X10446253Y-11381436D02*
X10446253Y-11400484D01*
X10522444Y-11200484D02*
X10646253Y-11200484D01*
X10646253Y-11200484D02*
X10579586Y-11276674D01*
X10579586Y-11276674D02*
X10608158Y-11276674D01*
X10608158Y-11276674D02*
X10627205Y-11286198D01*
X10627205Y-11286198D02*
X10636729Y-11295722D01*
X10636729Y-11295722D02*
X10646253Y-11314769D01*
X10646253Y-11314769D02*
X10646253Y-11362388D01*
X10646253Y-11362388D02*
X10636729Y-11381436D01*
X10636729Y-11381436D02*
X10627205Y-11390960D01*
X10627205Y-11390960D02*
X10608158Y-11400484D01*
X10608158Y-11400484D02*
X10551015Y-11400484D01*
X10551015Y-11400484D02*
X10531967Y-11390960D01*
X10531967Y-11390960D02*
X10522444Y-11381436D01*
X10770063Y-11200484D02*
X10789110Y-11200484D01*
X10789110Y-11200484D02*
X10808158Y-11210008D01*
X10808158Y-11210008D02*
X10817682Y-11219531D01*
X10817682Y-11219531D02*
X10827205Y-11238579D01*
X10827205Y-11238579D02*
X10836729Y-11276674D01*
X10836729Y-11276674D02*
X10836729Y-11324293D01*
X10836729Y-11324293D02*
X10827205Y-11362388D01*
X10827205Y-11362388D02*
X10817682Y-11381436D01*
X10817682Y-11381436D02*
X10808158Y-11390960D01*
X10808158Y-11390960D02*
X10789110Y-11400484D01*
X10789110Y-11400484D02*
X10770063Y-11400484D01*
X10770063Y-11400484D02*
X10751015Y-11390960D01*
X10751015Y-11390960D02*
X10741491Y-11381436D01*
X10741491Y-11381436D02*
X10731967Y-11362388D01*
X10731967Y-11362388D02*
X10722444Y-11324293D01*
X10722444Y-11324293D02*
X10722444Y-11276674D01*
X10722444Y-11276674D02*
X10731967Y-11238579D01*
X10731967Y-11238579D02*
X10741491Y-11219531D01*
X10741491Y-11219531D02*
X10751015Y-11210008D01*
X10751015Y-11210008D02*
X10770063Y-11200484D01*
X10960539Y-11200484D02*
X10979586Y-11200484D01*
X10979586Y-11200484D02*
X10998634Y-11210008D01*
X10998634Y-11210008D02*
X11008158Y-11219531D01*
X11008158Y-11219531D02*
X11017682Y-11238579D01*
X11017682Y-11238579D02*
X11027205Y-11276674D01*
X11027205Y-11276674D02*
X11027205Y-11324293D01*
X11027205Y-11324293D02*
X11017682Y-11362388D01*
X11017682Y-11362388D02*
X11008158Y-11381436D01*
X11008158Y-11381436D02*
X10998634Y-11390960D01*
X10998634Y-11390960D02*
X10979586Y-11400484D01*
X10979586Y-11400484D02*
X10960539Y-11400484D01*
X10960539Y-11400484D02*
X10941491Y-11390960D01*
X10941491Y-11390960D02*
X10931967Y-11381436D01*
X10931967Y-11381436D02*
X10922444Y-11362388D01*
X10922444Y-11362388D02*
X10912920Y-11324293D01*
X10912920Y-11324293D02*
X10912920Y-11276674D01*
X10912920Y-11276674D02*
X10922444Y-11238579D01*
X10922444Y-11238579D02*
X10931967Y-11219531D01*
X10931967Y-11219531D02*
X10941491Y-11210008D01*
X10941491Y-11210008D02*
X10960539Y-11200484D01*
X11112920Y-11400484D02*
X11112920Y-11267150D01*
X11112920Y-11286198D02*
X11122444Y-11276674D01*
X11122444Y-11276674D02*
X11141491Y-11267150D01*
X11141491Y-11267150D02*
X11170063Y-11267150D01*
X11170063Y-11267150D02*
X11189110Y-11276674D01*
X11189110Y-11276674D02*
X11198634Y-11295722D01*
X11198634Y-11295722D02*
X11198634Y-11400484D01*
X11198634Y-11295722D02*
X11208158Y-11276674D01*
X11208158Y-11276674D02*
X11227205Y-11267150D01*
X11227205Y-11267150D02*
X11255777Y-11267150D01*
X11255777Y-11267150D02*
X11274824Y-11276674D01*
X11274824Y-11276674D02*
X11284348Y-11295722D01*
X11284348Y-11295722D02*
X11284348Y-11400484D01*
X11379586Y-11400484D02*
X11379586Y-11267150D01*
X11379586Y-11286198D02*
X11389110Y-11276674D01*
X11389110Y-11276674D02*
X11408158Y-11267150D01*
X11408158Y-11267150D02*
X11436729Y-11267150D01*
X11436729Y-11267150D02*
X11455777Y-11276674D01*
X11455777Y-11276674D02*
X11465301Y-11295722D01*
X11465301Y-11295722D02*
X11465301Y-11400484D01*
X11465301Y-11295722D02*
X11474824Y-11276674D01*
X11474824Y-11276674D02*
X11493872Y-11267150D01*
X11493872Y-11267150D02*
X11522443Y-11267150D01*
X11522443Y-11267150D02*
X11541491Y-11276674D01*
X11541491Y-11276674D02*
X11551015Y-11295722D01*
X11551015Y-11295722D02*
X11551015Y-11400484D01*
X11941491Y-11190960D02*
X11770063Y-11448103D01*
X12198634Y-11200484D02*
X12217682Y-11200484D01*
X12217682Y-11200484D02*
X12236729Y-11210008D01*
X12236729Y-11210008D02*
X12246253Y-11219531D01*
X12246253Y-11219531D02*
X12255777Y-11238579D01*
X12255777Y-11238579D02*
X12265301Y-11276674D01*
X12265301Y-11276674D02*
X12265301Y-11324293D01*
X12265301Y-11324293D02*
X12255777Y-11362388D01*
X12255777Y-11362388D02*
X12246253Y-11381436D01*
X12246253Y-11381436D02*
X12236729Y-11390960D01*
X12236729Y-11390960D02*
X12217682Y-11400484D01*
X12217682Y-11400484D02*
X12198634Y-11400484D01*
X12198634Y-11400484D02*
X12179586Y-11390960D01*
X12179586Y-11390960D02*
X12170063Y-11381436D01*
X12170063Y-11381436D02*
X12160539Y-11362388D01*
X12160539Y-11362388D02*
X12151015Y-11324293D01*
X12151015Y-11324293D02*
X12151015Y-11276674D01*
X12151015Y-11276674D02*
X12160539Y-11238579D01*
X12160539Y-11238579D02*
X12170063Y-11219531D01*
X12170063Y-11219531D02*
X12179586Y-11210008D01*
X12179586Y-11210008D02*
X12198634Y-11200484D01*
X12351015Y-11381436D02*
X12360539Y-11390960D01*
X12360539Y-11390960D02*
X12351015Y-11400484D01*
X12351015Y-11400484D02*
X12341491Y-11390960D01*
X12341491Y-11390960D02*
X12351015Y-11381436D01*
X12351015Y-11381436D02*
X12351015Y-11400484D01*
X12484348Y-11200484D02*
X12503396Y-11200484D01*
X12503396Y-11200484D02*
X12522444Y-11210008D01*
X12522444Y-11210008D02*
X12531967Y-11219531D01*
X12531967Y-11219531D02*
X12541491Y-11238579D01*
X12541491Y-11238579D02*
X12551015Y-11276674D01*
X12551015Y-11276674D02*
X12551015Y-11324293D01*
X12551015Y-11324293D02*
X12541491Y-11362388D01*
X12541491Y-11362388D02*
X12531967Y-11381436D01*
X12531967Y-11381436D02*
X12522444Y-11390960D01*
X12522444Y-11390960D02*
X12503396Y-11400484D01*
X12503396Y-11400484D02*
X12484348Y-11400484D01*
X12484348Y-11400484D02*
X12465301Y-11390960D01*
X12465301Y-11390960D02*
X12455777Y-11381436D01*
X12455777Y-11381436D02*
X12446253Y-11362388D01*
X12446253Y-11362388D02*
X12436729Y-11324293D01*
X12436729Y-11324293D02*
X12436729Y-11276674D01*
X12436729Y-11276674D02*
X12446253Y-11238579D01*
X12446253Y-11238579D02*
X12455777Y-11219531D01*
X12455777Y-11219531D02*
X12465301Y-11210008D01*
X12465301Y-11210008D02*
X12484348Y-11200484D01*
X12741491Y-11400484D02*
X12627206Y-11400484D01*
X12684348Y-11400484D02*
X12684348Y-11200484D01*
X12684348Y-11200484D02*
X12665301Y-11229055D01*
X12665301Y-11229055D02*
X12646253Y-11248103D01*
X12646253Y-11248103D02*
X12627206Y-11257627D01*
X12931967Y-11400484D02*
X12817682Y-11400484D01*
X12874825Y-11400484D02*
X12874825Y-11200484D01*
X12874825Y-11200484D02*
X12855777Y-11229055D01*
X12855777Y-11229055D02*
X12836729Y-11248103D01*
X12836729Y-11248103D02*
X12817682Y-11257627D01*
X13046253Y-11286198D02*
X13027206Y-11276674D01*
X13027206Y-11276674D02*
X13017682Y-11267150D01*
X13017682Y-11267150D02*
X13008158Y-11248103D01*
X13008158Y-11248103D02*
X13008158Y-11238579D01*
X13008158Y-11238579D02*
X13017682Y-11219531D01*
X13017682Y-11219531D02*
X13027206Y-11210008D01*
X13027206Y-11210008D02*
X13046253Y-11200484D01*
X13046253Y-11200484D02*
X13084348Y-11200484D01*
X13084348Y-11200484D02*
X13103396Y-11210008D01*
X13103396Y-11210008D02*
X13112920Y-11219531D01*
X13112920Y-11219531D02*
X13122444Y-11238579D01*
X13122444Y-11238579D02*
X13122444Y-11248103D01*
X13122444Y-11248103D02*
X13112920Y-11267150D01*
X13112920Y-11267150D02*
X13103396Y-11276674D01*
X13103396Y-11276674D02*
X13084348Y-11286198D01*
X13084348Y-11286198D02*
X13046253Y-11286198D01*
X13046253Y-11286198D02*
X13027206Y-11295722D01*
X13027206Y-11295722D02*
X13017682Y-11305246D01*
X13017682Y-11305246D02*
X13008158Y-11324293D01*
X13008158Y-11324293D02*
X13008158Y-11362388D01*
X13008158Y-11362388D02*
X13017682Y-11381436D01*
X13017682Y-11381436D02*
X13027206Y-11390960D01*
X13027206Y-11390960D02*
X13046253Y-11400484D01*
X13046253Y-11400484D02*
X13084348Y-11400484D01*
X13084348Y-11400484D02*
X13103396Y-11390960D01*
X13103396Y-11390960D02*
X13112920Y-11381436D01*
X13112920Y-11381436D02*
X13122444Y-11362388D01*
X13122444Y-11362388D02*
X13122444Y-11324293D01*
X13122444Y-11324293D02*
X13112920Y-11305246D01*
X13112920Y-11305246D02*
X13103396Y-11295722D01*
X13103396Y-11295722D02*
X13084348Y-11286198D01*
X13198634Y-11200484D02*
X13198634Y-11238579D01*
X13274825Y-11200484D02*
X13274825Y-11238579D01*
X13570063Y-11476674D02*
X13560539Y-11467150D01*
X13560539Y-11467150D02*
X13541491Y-11438579D01*
X13541491Y-11438579D02*
X13531968Y-11419531D01*
X13531968Y-11419531D02*
X13522444Y-11390960D01*
X13522444Y-11390960D02*
X13512920Y-11343341D01*
X13512920Y-11343341D02*
X13512920Y-11305246D01*
X13512920Y-11305246D02*
X13522444Y-11257627D01*
X13522444Y-11257627D02*
X13531968Y-11229055D01*
X13531968Y-11229055D02*
X13541491Y-11210008D01*
X13541491Y-11210008D02*
X13560539Y-11181436D01*
X13560539Y-11181436D02*
X13570063Y-11171912D01*
X13674825Y-11286198D02*
X13655777Y-11276674D01*
X13655777Y-11276674D02*
X13646253Y-11267150D01*
X13646253Y-11267150D02*
X13636729Y-11248103D01*
X13636729Y-11248103D02*
X13636729Y-11238579D01*
X13636729Y-11238579D02*
X13646253Y-11219531D01*
X13646253Y-11219531D02*
X13655777Y-11210008D01*
X13655777Y-11210008D02*
X13674825Y-11200484D01*
X13674825Y-11200484D02*
X13712920Y-11200484D01*
X13712920Y-11200484D02*
X13731968Y-11210008D01*
X13731968Y-11210008D02*
X13741491Y-11219531D01*
X13741491Y-11219531D02*
X13751015Y-11238579D01*
X13751015Y-11238579D02*
X13751015Y-11248103D01*
X13751015Y-11248103D02*
X13741491Y-11267150D01*
X13741491Y-11267150D02*
X13731968Y-11276674D01*
X13731968Y-11276674D02*
X13712920Y-11286198D01*
X13712920Y-11286198D02*
X13674825Y-11286198D01*
X13674825Y-11286198D02*
X13655777Y-11295722D01*
X13655777Y-11295722D02*
X13646253Y-11305246D01*
X13646253Y-11305246D02*
X13636729Y-11324293D01*
X13636729Y-11324293D02*
X13636729Y-11362388D01*
X13636729Y-11362388D02*
X13646253Y-11381436D01*
X13646253Y-11381436D02*
X13655777Y-11390960D01*
X13655777Y-11390960D02*
X13674825Y-11400484D01*
X13674825Y-11400484D02*
X13712920Y-11400484D01*
X13712920Y-11400484D02*
X13731968Y-11390960D01*
X13731968Y-11390960D02*
X13741491Y-11381436D01*
X13741491Y-11381436D02*
X13751015Y-11362388D01*
X13751015Y-11362388D02*
X13751015Y-11324293D01*
X13751015Y-11324293D02*
X13741491Y-11305246D01*
X13741491Y-11305246D02*
X13731968Y-11295722D01*
X13731968Y-11295722D02*
X13712920Y-11286198D01*
X13827206Y-11219531D02*
X13836729Y-11210008D01*
X13836729Y-11210008D02*
X13855777Y-11200484D01*
X13855777Y-11200484D02*
X13903396Y-11200484D01*
X13903396Y-11200484D02*
X13922444Y-11210008D01*
X13922444Y-11210008D02*
X13931968Y-11219531D01*
X13931968Y-11219531D02*
X13941491Y-11238579D01*
X13941491Y-11238579D02*
X13941491Y-11257627D01*
X13941491Y-11257627D02*
X13931968Y-11286198D01*
X13931968Y-11286198D02*
X13817682Y-11400484D01*
X13817682Y-11400484D02*
X13941491Y-11400484D01*
X14179587Y-11400484D02*
X14179587Y-11200484D01*
X14265301Y-11400484D02*
X14265301Y-11295722D01*
X14265301Y-11295722D02*
X14255777Y-11276674D01*
X14255777Y-11276674D02*
X14236730Y-11267150D01*
X14236730Y-11267150D02*
X14208158Y-11267150D01*
X14208158Y-11267150D02*
X14189110Y-11276674D01*
X14189110Y-11276674D02*
X14179587Y-11286198D01*
X14389110Y-11400484D02*
X14370063Y-11390960D01*
X14370063Y-11390960D02*
X14360539Y-11381436D01*
X14360539Y-11381436D02*
X14351015Y-11362388D01*
X14351015Y-11362388D02*
X14351015Y-11305246D01*
X14351015Y-11305246D02*
X14360539Y-11286198D01*
X14360539Y-11286198D02*
X14370063Y-11276674D01*
X14370063Y-11276674D02*
X14389110Y-11267150D01*
X14389110Y-11267150D02*
X14417682Y-11267150D01*
X14417682Y-11267150D02*
X14436730Y-11276674D01*
X14436730Y-11276674D02*
X14446253Y-11286198D01*
X14446253Y-11286198D02*
X14455777Y-11305246D01*
X14455777Y-11305246D02*
X14455777Y-11362388D01*
X14455777Y-11362388D02*
X14446253Y-11381436D01*
X14446253Y-11381436D02*
X14436730Y-11390960D01*
X14436730Y-11390960D02*
X14417682Y-11400484D01*
X14417682Y-11400484D02*
X14389110Y-11400484D01*
X14570063Y-11400484D02*
X14551015Y-11390960D01*
X14551015Y-11390960D02*
X14541491Y-11371912D01*
X14541491Y-11371912D02*
X14541491Y-11200484D01*
X14722444Y-11390960D02*
X14703396Y-11400484D01*
X14703396Y-11400484D02*
X14665301Y-11400484D01*
X14665301Y-11400484D02*
X14646253Y-11390960D01*
X14646253Y-11390960D02*
X14636730Y-11371912D01*
X14636730Y-11371912D02*
X14636730Y-11295722D01*
X14636730Y-11295722D02*
X14646253Y-11276674D01*
X14646253Y-11276674D02*
X14665301Y-11267150D01*
X14665301Y-11267150D02*
X14703396Y-11267150D01*
X14703396Y-11267150D02*
X14722444Y-11276674D01*
X14722444Y-11276674D02*
X14731968Y-11295722D01*
X14731968Y-11295722D02*
X14731968Y-11314769D01*
X14731968Y-11314769D02*
X14636730Y-11333817D01*
X14808158Y-11390960D02*
X14827206Y-11400484D01*
X14827206Y-11400484D02*
X14865301Y-11400484D01*
X14865301Y-11400484D02*
X14884349Y-11390960D01*
X14884349Y-11390960D02*
X14893872Y-11371912D01*
X14893872Y-11371912D02*
X14893872Y-11362388D01*
X14893872Y-11362388D02*
X14884349Y-11343341D01*
X14884349Y-11343341D02*
X14865301Y-11333817D01*
X14865301Y-11333817D02*
X14836730Y-11333817D01*
X14836730Y-11333817D02*
X14817682Y-11324293D01*
X14817682Y-11324293D02*
X14808158Y-11305246D01*
X14808158Y-11305246D02*
X14808158Y-11295722D01*
X14808158Y-11295722D02*
X14817682Y-11276674D01*
X14817682Y-11276674D02*
X14836730Y-11267150D01*
X14836730Y-11267150D02*
X14865301Y-11267150D01*
X14865301Y-11267150D02*
X14884349Y-11276674D01*
X14960539Y-11476674D02*
X14970063Y-11467150D01*
X14970063Y-11467150D02*
X14989111Y-11438579D01*
X14989111Y-11438579D02*
X14998634Y-11419531D01*
X14998634Y-11419531D02*
X15008158Y-11390960D01*
X15008158Y-11390960D02*
X15017682Y-11343341D01*
X15017682Y-11343341D02*
X15017682Y-11305246D01*
X15017682Y-11305246D02*
X15008158Y-11257627D01*
X15008158Y-11257627D02*
X14998634Y-11229055D01*
X14998634Y-11229055D02*
X14989111Y-11210008D01*
X14989111Y-11210008D02*
X14970063Y-11181436D01*
X14970063Y-11181436D02*
X14960539Y-11171912D01*
D13*
X9980000Y-11558000D02*
X9980000Y-11588000D01*
X9965000Y-11573000D02*
X9995000Y-11573000D01*
D11*
X10293872Y-11464484D02*
X10312920Y-11464484D01*
X10312920Y-11464484D02*
X10331967Y-11474008D01*
X10331967Y-11474008D02*
X10341491Y-11483531D01*
X10341491Y-11483531D02*
X10351015Y-11502579D01*
X10351015Y-11502579D02*
X10360539Y-11540674D01*
X10360539Y-11540674D02*
X10360539Y-11588293D01*
X10360539Y-11588293D02*
X10351015Y-11626388D01*
X10351015Y-11626388D02*
X10341491Y-11645436D01*
X10341491Y-11645436D02*
X10331967Y-11654960D01*
X10331967Y-11654960D02*
X10312920Y-11664484D01*
X10312920Y-11664484D02*
X10293872Y-11664484D01*
X10293872Y-11664484D02*
X10274824Y-11654960D01*
X10274824Y-11654960D02*
X10265301Y-11645436D01*
X10265301Y-11645436D02*
X10255777Y-11626388D01*
X10255777Y-11626388D02*
X10246253Y-11588293D01*
X10246253Y-11588293D02*
X10246253Y-11540674D01*
X10246253Y-11540674D02*
X10255777Y-11502579D01*
X10255777Y-11502579D02*
X10265301Y-11483531D01*
X10265301Y-11483531D02*
X10274824Y-11474008D01*
X10274824Y-11474008D02*
X10293872Y-11464484D01*
X10446253Y-11645436D02*
X10455777Y-11654960D01*
X10455777Y-11654960D02*
X10446253Y-11664484D01*
X10446253Y-11664484D02*
X10436729Y-11654960D01*
X10436729Y-11654960D02*
X10446253Y-11645436D01*
X10446253Y-11645436D02*
X10446253Y-11664484D01*
X10522444Y-11464484D02*
X10646253Y-11464484D01*
X10646253Y-11464484D02*
X10579586Y-11540674D01*
X10579586Y-11540674D02*
X10608158Y-11540674D01*
X10608158Y-11540674D02*
X10627205Y-11550198D01*
X10627205Y-11550198D02*
X10636729Y-11559722D01*
X10636729Y-11559722D02*
X10646253Y-11578769D01*
X10646253Y-11578769D02*
X10646253Y-11626388D01*
X10646253Y-11626388D02*
X10636729Y-11645436D01*
X10636729Y-11645436D02*
X10627205Y-11654960D01*
X10627205Y-11654960D02*
X10608158Y-11664484D01*
X10608158Y-11664484D02*
X10551015Y-11664484D01*
X10551015Y-11664484D02*
X10531967Y-11654960D01*
X10531967Y-11654960D02*
X10522444Y-11645436D01*
X10770063Y-11464484D02*
X10789110Y-11464484D01*
X10789110Y-11464484D02*
X10808158Y-11474008D01*
X10808158Y-11474008D02*
X10817682Y-11483531D01*
X10817682Y-11483531D02*
X10827205Y-11502579D01*
X10827205Y-11502579D02*
X10836729Y-11540674D01*
X10836729Y-11540674D02*
X10836729Y-11588293D01*
X10836729Y-11588293D02*
X10827205Y-11626388D01*
X10827205Y-11626388D02*
X10817682Y-11645436D01*
X10817682Y-11645436D02*
X10808158Y-11654960D01*
X10808158Y-11654960D02*
X10789110Y-11664484D01*
X10789110Y-11664484D02*
X10770063Y-11664484D01*
X10770063Y-11664484D02*
X10751015Y-11654960D01*
X10751015Y-11654960D02*
X10741491Y-11645436D01*
X10741491Y-11645436D02*
X10731967Y-11626388D01*
X10731967Y-11626388D02*
X10722444Y-11588293D01*
X10722444Y-11588293D02*
X10722444Y-11540674D01*
X10722444Y-11540674D02*
X10731967Y-11502579D01*
X10731967Y-11502579D02*
X10741491Y-11483531D01*
X10741491Y-11483531D02*
X10751015Y-11474008D01*
X10751015Y-11474008D02*
X10770063Y-11464484D01*
X10960539Y-11464484D02*
X10979586Y-11464484D01*
X10979586Y-11464484D02*
X10998634Y-11474008D01*
X10998634Y-11474008D02*
X11008158Y-11483531D01*
X11008158Y-11483531D02*
X11017682Y-11502579D01*
X11017682Y-11502579D02*
X11027205Y-11540674D01*
X11027205Y-11540674D02*
X11027205Y-11588293D01*
X11027205Y-11588293D02*
X11017682Y-11626388D01*
X11017682Y-11626388D02*
X11008158Y-11645436D01*
X11008158Y-11645436D02*
X10998634Y-11654960D01*
X10998634Y-11654960D02*
X10979586Y-11664484D01*
X10979586Y-11664484D02*
X10960539Y-11664484D01*
X10960539Y-11664484D02*
X10941491Y-11654960D01*
X10941491Y-11654960D02*
X10931967Y-11645436D01*
X10931967Y-11645436D02*
X10922444Y-11626388D01*
X10922444Y-11626388D02*
X10912920Y-11588293D01*
X10912920Y-11588293D02*
X10912920Y-11540674D01*
X10912920Y-11540674D02*
X10922444Y-11502579D01*
X10922444Y-11502579D02*
X10931967Y-11483531D01*
X10931967Y-11483531D02*
X10941491Y-11474008D01*
X10941491Y-11474008D02*
X10960539Y-11464484D01*
X11112920Y-11664484D02*
X11112920Y-11531150D01*
X11112920Y-11550198D02*
X11122444Y-11540674D01*
X11122444Y-11540674D02*
X11141491Y-11531150D01*
X11141491Y-11531150D02*
X11170063Y-11531150D01*
X11170063Y-11531150D02*
X11189110Y-11540674D01*
X11189110Y-11540674D02*
X11198634Y-11559722D01*
X11198634Y-11559722D02*
X11198634Y-11664484D01*
X11198634Y-11559722D02*
X11208158Y-11540674D01*
X11208158Y-11540674D02*
X11227205Y-11531150D01*
X11227205Y-11531150D02*
X11255777Y-11531150D01*
X11255777Y-11531150D02*
X11274824Y-11540674D01*
X11274824Y-11540674D02*
X11284348Y-11559722D01*
X11284348Y-11559722D02*
X11284348Y-11664484D01*
X11379586Y-11664484D02*
X11379586Y-11531150D01*
X11379586Y-11550198D02*
X11389110Y-11540674D01*
X11389110Y-11540674D02*
X11408158Y-11531150D01*
X11408158Y-11531150D02*
X11436729Y-11531150D01*
X11436729Y-11531150D02*
X11455777Y-11540674D01*
X11455777Y-11540674D02*
X11465301Y-11559722D01*
X11465301Y-11559722D02*
X11465301Y-11664484D01*
X11465301Y-11559722D02*
X11474824Y-11540674D01*
X11474824Y-11540674D02*
X11493872Y-11531150D01*
X11493872Y-11531150D02*
X11522443Y-11531150D01*
X11522443Y-11531150D02*
X11541491Y-11540674D01*
X11541491Y-11540674D02*
X11551015Y-11559722D01*
X11551015Y-11559722D02*
X11551015Y-11664484D01*
X11941491Y-11454960D02*
X11770063Y-11712103D01*
X12198634Y-11464484D02*
X12217682Y-11464484D01*
X12217682Y-11464484D02*
X12236729Y-11474008D01*
X12236729Y-11474008D02*
X12246253Y-11483531D01*
X12246253Y-11483531D02*
X12255777Y-11502579D01*
X12255777Y-11502579D02*
X12265301Y-11540674D01*
X12265301Y-11540674D02*
X12265301Y-11588293D01*
X12265301Y-11588293D02*
X12255777Y-11626388D01*
X12255777Y-11626388D02*
X12246253Y-11645436D01*
X12246253Y-11645436D02*
X12236729Y-11654960D01*
X12236729Y-11654960D02*
X12217682Y-11664484D01*
X12217682Y-11664484D02*
X12198634Y-11664484D01*
X12198634Y-11664484D02*
X12179586Y-11654960D01*
X12179586Y-11654960D02*
X12170063Y-11645436D01*
X12170063Y-11645436D02*
X12160539Y-11626388D01*
X12160539Y-11626388D02*
X12151015Y-11588293D01*
X12151015Y-11588293D02*
X12151015Y-11540674D01*
X12151015Y-11540674D02*
X12160539Y-11502579D01*
X12160539Y-11502579D02*
X12170063Y-11483531D01*
X12170063Y-11483531D02*
X12179586Y-11474008D01*
X12179586Y-11474008D02*
X12198634Y-11464484D01*
X12351015Y-11645436D02*
X12360539Y-11654960D01*
X12360539Y-11654960D02*
X12351015Y-11664484D01*
X12351015Y-11664484D02*
X12341491Y-11654960D01*
X12341491Y-11654960D02*
X12351015Y-11645436D01*
X12351015Y-11645436D02*
X12351015Y-11664484D01*
X12484348Y-11464484D02*
X12503396Y-11464484D01*
X12503396Y-11464484D02*
X12522444Y-11474008D01*
X12522444Y-11474008D02*
X12531967Y-11483531D01*
X12531967Y-11483531D02*
X12541491Y-11502579D01*
X12541491Y-11502579D02*
X12551015Y-11540674D01*
X12551015Y-11540674D02*
X12551015Y-11588293D01*
X12551015Y-11588293D02*
X12541491Y-11626388D01*
X12541491Y-11626388D02*
X12531967Y-11645436D01*
X12531967Y-11645436D02*
X12522444Y-11654960D01*
X12522444Y-11654960D02*
X12503396Y-11664484D01*
X12503396Y-11664484D02*
X12484348Y-11664484D01*
X12484348Y-11664484D02*
X12465301Y-11654960D01*
X12465301Y-11654960D02*
X12455777Y-11645436D01*
X12455777Y-11645436D02*
X12446253Y-11626388D01*
X12446253Y-11626388D02*
X12436729Y-11588293D01*
X12436729Y-11588293D02*
X12436729Y-11540674D01*
X12436729Y-11540674D02*
X12446253Y-11502579D01*
X12446253Y-11502579D02*
X12455777Y-11483531D01*
X12455777Y-11483531D02*
X12465301Y-11474008D01*
X12465301Y-11474008D02*
X12484348Y-11464484D01*
X12741491Y-11664484D02*
X12627206Y-11664484D01*
X12684348Y-11664484D02*
X12684348Y-11464484D01*
X12684348Y-11464484D02*
X12665301Y-11493055D01*
X12665301Y-11493055D02*
X12646253Y-11512103D01*
X12646253Y-11512103D02*
X12627206Y-11521627D01*
X12931967Y-11664484D02*
X12817682Y-11664484D01*
X12874825Y-11664484D02*
X12874825Y-11464484D01*
X12874825Y-11464484D02*
X12855777Y-11493055D01*
X12855777Y-11493055D02*
X12836729Y-11512103D01*
X12836729Y-11512103D02*
X12817682Y-11521627D01*
X13046253Y-11550198D02*
X13027206Y-11540674D01*
X13027206Y-11540674D02*
X13017682Y-11531150D01*
X13017682Y-11531150D02*
X13008158Y-11512103D01*
X13008158Y-11512103D02*
X13008158Y-11502579D01*
X13008158Y-11502579D02*
X13017682Y-11483531D01*
X13017682Y-11483531D02*
X13027206Y-11474008D01*
X13027206Y-11474008D02*
X13046253Y-11464484D01*
X13046253Y-11464484D02*
X13084348Y-11464484D01*
X13084348Y-11464484D02*
X13103396Y-11474008D01*
X13103396Y-11474008D02*
X13112920Y-11483531D01*
X13112920Y-11483531D02*
X13122444Y-11502579D01*
X13122444Y-11502579D02*
X13122444Y-11512103D01*
X13122444Y-11512103D02*
X13112920Y-11531150D01*
X13112920Y-11531150D02*
X13103396Y-11540674D01*
X13103396Y-11540674D02*
X13084348Y-11550198D01*
X13084348Y-11550198D02*
X13046253Y-11550198D01*
X13046253Y-11550198D02*
X13027206Y-11559722D01*
X13027206Y-11559722D02*
X13017682Y-11569246D01*
X13017682Y-11569246D02*
X13008158Y-11588293D01*
X13008158Y-11588293D02*
X13008158Y-11626388D01*
X13008158Y-11626388D02*
X13017682Y-11645436D01*
X13017682Y-11645436D02*
X13027206Y-11654960D01*
X13027206Y-11654960D02*
X13046253Y-11664484D01*
X13046253Y-11664484D02*
X13084348Y-11664484D01*
X13084348Y-11664484D02*
X13103396Y-11654960D01*
X13103396Y-11654960D02*
X13112920Y-11645436D01*
X13112920Y-11645436D02*
X13122444Y-11626388D01*
X13122444Y-11626388D02*
X13122444Y-11588293D01*
X13122444Y-11588293D02*
X13112920Y-11569246D01*
X13112920Y-11569246D02*
X13103396Y-11559722D01*
X13103396Y-11559722D02*
X13084348Y-11550198D01*
X13198634Y-11464484D02*
X13198634Y-11502579D01*
X13274825Y-11464484D02*
X13274825Y-11502579D01*
X13570063Y-11740674D02*
X13560539Y-11731150D01*
X13560539Y-11731150D02*
X13541491Y-11702579D01*
X13541491Y-11702579D02*
X13531968Y-11683531D01*
X13531968Y-11683531D02*
X13522444Y-11654960D01*
X13522444Y-11654960D02*
X13512920Y-11607341D01*
X13512920Y-11607341D02*
X13512920Y-11569246D01*
X13512920Y-11569246D02*
X13522444Y-11521627D01*
X13522444Y-11521627D02*
X13531968Y-11493055D01*
X13531968Y-11493055D02*
X13541491Y-11474008D01*
X13541491Y-11474008D02*
X13560539Y-11445436D01*
X13560539Y-11445436D02*
X13570063Y-11435912D01*
X13655777Y-11664484D02*
X13693872Y-11664484D01*
X13693872Y-11664484D02*
X13712920Y-11654960D01*
X13712920Y-11654960D02*
X13722444Y-11645436D01*
X13722444Y-11645436D02*
X13741491Y-11616865D01*
X13741491Y-11616865D02*
X13751015Y-11578769D01*
X13751015Y-11578769D02*
X13751015Y-11502579D01*
X13751015Y-11502579D02*
X13741491Y-11483531D01*
X13741491Y-11483531D02*
X13731968Y-11474008D01*
X13731968Y-11474008D02*
X13712920Y-11464484D01*
X13712920Y-11464484D02*
X13674825Y-11464484D01*
X13674825Y-11464484D02*
X13655777Y-11474008D01*
X13655777Y-11474008D02*
X13646253Y-11483531D01*
X13646253Y-11483531D02*
X13636729Y-11502579D01*
X13636729Y-11502579D02*
X13636729Y-11550198D01*
X13636729Y-11550198D02*
X13646253Y-11569246D01*
X13646253Y-11569246D02*
X13655777Y-11578769D01*
X13655777Y-11578769D02*
X13674825Y-11588293D01*
X13674825Y-11588293D02*
X13712920Y-11588293D01*
X13712920Y-11588293D02*
X13731968Y-11578769D01*
X13731968Y-11578769D02*
X13741491Y-11569246D01*
X13741491Y-11569246D02*
X13751015Y-11550198D01*
X13989110Y-11664484D02*
X13989110Y-11464484D01*
X14074825Y-11664484D02*
X14074825Y-11559722D01*
X14074825Y-11559722D02*
X14065301Y-11540674D01*
X14065301Y-11540674D02*
X14046253Y-11531150D01*
X14046253Y-11531150D02*
X14017682Y-11531150D01*
X14017682Y-11531150D02*
X13998634Y-11540674D01*
X13998634Y-11540674D02*
X13989110Y-11550198D01*
X14198634Y-11664484D02*
X14179587Y-11654960D01*
X14179587Y-11654960D02*
X14170063Y-11645436D01*
X14170063Y-11645436D02*
X14160539Y-11626388D01*
X14160539Y-11626388D02*
X14160539Y-11569246D01*
X14160539Y-11569246D02*
X14170063Y-11550198D01*
X14170063Y-11550198D02*
X14179587Y-11540674D01*
X14179587Y-11540674D02*
X14198634Y-11531150D01*
X14198634Y-11531150D02*
X14227206Y-11531150D01*
X14227206Y-11531150D02*
X14246253Y-11540674D01*
X14246253Y-11540674D02*
X14255777Y-11550198D01*
X14255777Y-11550198D02*
X14265301Y-11569246D01*
X14265301Y-11569246D02*
X14265301Y-11626388D01*
X14265301Y-11626388D02*
X14255777Y-11645436D01*
X14255777Y-11645436D02*
X14246253Y-11654960D01*
X14246253Y-11654960D02*
X14227206Y-11664484D01*
X14227206Y-11664484D02*
X14198634Y-11664484D01*
X14379587Y-11664484D02*
X14360539Y-11654960D01*
X14360539Y-11654960D02*
X14351015Y-11635912D01*
X14351015Y-11635912D02*
X14351015Y-11464484D01*
X14531968Y-11654960D02*
X14512920Y-11664484D01*
X14512920Y-11664484D02*
X14474825Y-11664484D01*
X14474825Y-11664484D02*
X14455777Y-11654960D01*
X14455777Y-11654960D02*
X14446253Y-11635912D01*
X14446253Y-11635912D02*
X14446253Y-11559722D01*
X14446253Y-11559722D02*
X14455777Y-11540674D01*
X14455777Y-11540674D02*
X14474825Y-11531150D01*
X14474825Y-11531150D02*
X14512920Y-11531150D01*
X14512920Y-11531150D02*
X14531968Y-11540674D01*
X14531968Y-11540674D02*
X14541491Y-11559722D01*
X14541491Y-11559722D02*
X14541491Y-11578769D01*
X14541491Y-11578769D02*
X14446253Y-11597817D01*
X14617682Y-11654960D02*
X14636730Y-11664484D01*
X14636730Y-11664484D02*
X14674825Y-11664484D01*
X14674825Y-11664484D02*
X14693872Y-11654960D01*
X14693872Y-11654960D02*
X14703396Y-11635912D01*
X14703396Y-11635912D02*
X14703396Y-11626388D01*
X14703396Y-11626388D02*
X14693872Y-11607341D01*
X14693872Y-11607341D02*
X14674825Y-11597817D01*
X14674825Y-11597817D02*
X14646253Y-11597817D01*
X14646253Y-11597817D02*
X14627206Y-11588293D01*
X14627206Y-11588293D02*
X14617682Y-11569246D01*
X14617682Y-11569246D02*
X14617682Y-11559722D01*
X14617682Y-11559722D02*
X14627206Y-11540674D01*
X14627206Y-11540674D02*
X14646253Y-11531150D01*
X14646253Y-11531150D02*
X14674825Y-11531150D01*
X14674825Y-11531150D02*
X14693872Y-11540674D01*
X14770063Y-11740674D02*
X14779587Y-11731150D01*
X14779587Y-11731150D02*
X14798634Y-11702579D01*
X14798634Y-11702579D02*
X14808158Y-11683531D01*
X14808158Y-11683531D02*
X14817682Y-11654960D01*
X14817682Y-11654960D02*
X14827206Y-11607341D01*
X14827206Y-11607341D02*
X14827206Y-11569246D01*
X14827206Y-11569246D02*
X14817682Y-11521627D01*
X14817682Y-11521627D02*
X14808158Y-11493055D01*
X14808158Y-11493055D02*
X14798634Y-11474008D01*
X14798634Y-11474008D02*
X14779587Y-11445436D01*
X14779587Y-11445436D02*
X14770063Y-11435912D01*
D14*
X9989142Y-11851142D02*
X9989142Y-11822858D01*
X9960858Y-11822858D01*
X9960858Y-11851142D01*
X9989142Y-11851142D01*
D11*
X10293872Y-11728484D02*
X10312920Y-11728484D01*
X10312920Y-11728484D02*
X10331967Y-11738008D01*
X10331967Y-11738008D02*
X10341491Y-11747531D01*
X10341491Y-11747531D02*
X10351015Y-11766579D01*
X10351015Y-11766579D02*
X10360539Y-11804674D01*
X10360539Y-11804674D02*
X10360539Y-11852293D01*
X10360539Y-11852293D02*
X10351015Y-11890388D01*
X10351015Y-11890388D02*
X10341491Y-11909436D01*
X10341491Y-11909436D02*
X10331967Y-11918960D01*
X10331967Y-11918960D02*
X10312920Y-11928484D01*
X10312920Y-11928484D02*
X10293872Y-11928484D01*
X10293872Y-11928484D02*
X10274824Y-11918960D01*
X10274824Y-11918960D02*
X10265301Y-11909436D01*
X10265301Y-11909436D02*
X10255777Y-11890388D01*
X10255777Y-11890388D02*
X10246253Y-11852293D01*
X10246253Y-11852293D02*
X10246253Y-11804674D01*
X10246253Y-11804674D02*
X10255777Y-11766579D01*
X10255777Y-11766579D02*
X10265301Y-11747531D01*
X10265301Y-11747531D02*
X10274824Y-11738008D01*
X10274824Y-11738008D02*
X10293872Y-11728484D01*
X10446253Y-11909436D02*
X10455777Y-11918960D01*
X10455777Y-11918960D02*
X10446253Y-11928484D01*
X10446253Y-11928484D02*
X10436729Y-11918960D01*
X10436729Y-11918960D02*
X10446253Y-11909436D01*
X10446253Y-11909436D02*
X10446253Y-11928484D01*
X10627205Y-11795150D02*
X10627205Y-11928484D01*
X10579586Y-11718960D02*
X10531967Y-11861817D01*
X10531967Y-11861817D02*
X10655777Y-11861817D01*
X10770063Y-11728484D02*
X10789110Y-11728484D01*
X10789110Y-11728484D02*
X10808158Y-11738008D01*
X10808158Y-11738008D02*
X10817682Y-11747531D01*
X10817682Y-11747531D02*
X10827205Y-11766579D01*
X10827205Y-11766579D02*
X10836729Y-11804674D01*
X10836729Y-11804674D02*
X10836729Y-11852293D01*
X10836729Y-11852293D02*
X10827205Y-11890388D01*
X10827205Y-11890388D02*
X10817682Y-11909436D01*
X10817682Y-11909436D02*
X10808158Y-11918960D01*
X10808158Y-11918960D02*
X10789110Y-11928484D01*
X10789110Y-11928484D02*
X10770063Y-11928484D01*
X10770063Y-11928484D02*
X10751015Y-11918960D01*
X10751015Y-11918960D02*
X10741491Y-11909436D01*
X10741491Y-11909436D02*
X10731967Y-11890388D01*
X10731967Y-11890388D02*
X10722444Y-11852293D01*
X10722444Y-11852293D02*
X10722444Y-11804674D01*
X10722444Y-11804674D02*
X10731967Y-11766579D01*
X10731967Y-11766579D02*
X10741491Y-11747531D01*
X10741491Y-11747531D02*
X10751015Y-11738008D01*
X10751015Y-11738008D02*
X10770063Y-11728484D01*
X10960539Y-11728484D02*
X10979586Y-11728484D01*
X10979586Y-11728484D02*
X10998634Y-11738008D01*
X10998634Y-11738008D02*
X11008158Y-11747531D01*
X11008158Y-11747531D02*
X11017682Y-11766579D01*
X11017682Y-11766579D02*
X11027205Y-11804674D01*
X11027205Y-11804674D02*
X11027205Y-11852293D01*
X11027205Y-11852293D02*
X11017682Y-11890388D01*
X11017682Y-11890388D02*
X11008158Y-11909436D01*
X11008158Y-11909436D02*
X10998634Y-11918960D01*
X10998634Y-11918960D02*
X10979586Y-11928484D01*
X10979586Y-11928484D02*
X10960539Y-11928484D01*
X10960539Y-11928484D02*
X10941491Y-11918960D01*
X10941491Y-11918960D02*
X10931967Y-11909436D01*
X10931967Y-11909436D02*
X10922444Y-11890388D01*
X10922444Y-11890388D02*
X10912920Y-11852293D01*
X10912920Y-11852293D02*
X10912920Y-11804674D01*
X10912920Y-11804674D02*
X10922444Y-11766579D01*
X10922444Y-11766579D02*
X10931967Y-11747531D01*
X10931967Y-11747531D02*
X10941491Y-11738008D01*
X10941491Y-11738008D02*
X10960539Y-11728484D01*
X11112920Y-11928484D02*
X11112920Y-11795150D01*
X11112920Y-11814198D02*
X11122444Y-11804674D01*
X11122444Y-11804674D02*
X11141491Y-11795150D01*
X11141491Y-11795150D02*
X11170063Y-11795150D01*
X11170063Y-11795150D02*
X11189110Y-11804674D01*
X11189110Y-11804674D02*
X11198634Y-11823722D01*
X11198634Y-11823722D02*
X11198634Y-11928484D01*
X11198634Y-11823722D02*
X11208158Y-11804674D01*
X11208158Y-11804674D02*
X11227205Y-11795150D01*
X11227205Y-11795150D02*
X11255777Y-11795150D01*
X11255777Y-11795150D02*
X11274824Y-11804674D01*
X11274824Y-11804674D02*
X11284348Y-11823722D01*
X11284348Y-11823722D02*
X11284348Y-11928484D01*
X11379586Y-11928484D02*
X11379586Y-11795150D01*
X11379586Y-11814198D02*
X11389110Y-11804674D01*
X11389110Y-11804674D02*
X11408158Y-11795150D01*
X11408158Y-11795150D02*
X11436729Y-11795150D01*
X11436729Y-11795150D02*
X11455777Y-11804674D01*
X11455777Y-11804674D02*
X11465301Y-11823722D01*
X11465301Y-11823722D02*
X11465301Y-11928484D01*
X11465301Y-11823722D02*
X11474824Y-11804674D01*
X11474824Y-11804674D02*
X11493872Y-11795150D01*
X11493872Y-11795150D02*
X11522443Y-11795150D01*
X11522443Y-11795150D02*
X11541491Y-11804674D01*
X11541491Y-11804674D02*
X11551015Y-11823722D01*
X11551015Y-11823722D02*
X11551015Y-11928484D01*
X11941491Y-11718960D02*
X11770063Y-11976103D01*
X12198634Y-11728484D02*
X12217682Y-11728484D01*
X12217682Y-11728484D02*
X12236729Y-11738008D01*
X12236729Y-11738008D02*
X12246253Y-11747531D01*
X12246253Y-11747531D02*
X12255777Y-11766579D01*
X12255777Y-11766579D02*
X12265301Y-11804674D01*
X12265301Y-11804674D02*
X12265301Y-11852293D01*
X12265301Y-11852293D02*
X12255777Y-11890388D01*
X12255777Y-11890388D02*
X12246253Y-11909436D01*
X12246253Y-11909436D02*
X12236729Y-11918960D01*
X12236729Y-11918960D02*
X12217682Y-11928484D01*
X12217682Y-11928484D02*
X12198634Y-11928484D01*
X12198634Y-11928484D02*
X12179586Y-11918960D01*
X12179586Y-11918960D02*
X12170063Y-11909436D01*
X12170063Y-11909436D02*
X12160539Y-11890388D01*
X12160539Y-11890388D02*
X12151015Y-11852293D01*
X12151015Y-11852293D02*
X12151015Y-11804674D01*
X12151015Y-11804674D02*
X12160539Y-11766579D01*
X12160539Y-11766579D02*
X12170063Y-11747531D01*
X12170063Y-11747531D02*
X12179586Y-11738008D01*
X12179586Y-11738008D02*
X12198634Y-11728484D01*
X12351015Y-11909436D02*
X12360539Y-11918960D01*
X12360539Y-11918960D02*
X12351015Y-11928484D01*
X12351015Y-11928484D02*
X12341491Y-11918960D01*
X12341491Y-11918960D02*
X12351015Y-11909436D01*
X12351015Y-11909436D02*
X12351015Y-11928484D01*
X12484348Y-11728484D02*
X12503396Y-11728484D01*
X12503396Y-11728484D02*
X12522444Y-11738008D01*
X12522444Y-11738008D02*
X12531967Y-11747531D01*
X12531967Y-11747531D02*
X12541491Y-11766579D01*
X12541491Y-11766579D02*
X12551015Y-11804674D01*
X12551015Y-11804674D02*
X12551015Y-11852293D01*
X12551015Y-11852293D02*
X12541491Y-11890388D01*
X12541491Y-11890388D02*
X12531967Y-11909436D01*
X12531967Y-11909436D02*
X12522444Y-11918960D01*
X12522444Y-11918960D02*
X12503396Y-11928484D01*
X12503396Y-11928484D02*
X12484348Y-11928484D01*
X12484348Y-11928484D02*
X12465301Y-11918960D01*
X12465301Y-11918960D02*
X12455777Y-11909436D01*
X12455777Y-11909436D02*
X12446253Y-11890388D01*
X12446253Y-11890388D02*
X12436729Y-11852293D01*
X12436729Y-11852293D02*
X12436729Y-11804674D01*
X12436729Y-11804674D02*
X12446253Y-11766579D01*
X12446253Y-11766579D02*
X12455777Y-11747531D01*
X12455777Y-11747531D02*
X12465301Y-11738008D01*
X12465301Y-11738008D02*
X12484348Y-11728484D01*
X12741491Y-11928484D02*
X12627206Y-11928484D01*
X12684348Y-11928484D02*
X12684348Y-11728484D01*
X12684348Y-11728484D02*
X12665301Y-11757055D01*
X12665301Y-11757055D02*
X12646253Y-11776103D01*
X12646253Y-11776103D02*
X12627206Y-11785627D01*
X12922444Y-11728484D02*
X12827206Y-11728484D01*
X12827206Y-11728484D02*
X12817682Y-11823722D01*
X12817682Y-11823722D02*
X12827206Y-11814198D01*
X12827206Y-11814198D02*
X12846253Y-11804674D01*
X12846253Y-11804674D02*
X12893872Y-11804674D01*
X12893872Y-11804674D02*
X12912920Y-11814198D01*
X12912920Y-11814198D02*
X12922444Y-11823722D01*
X12922444Y-11823722D02*
X12931967Y-11842769D01*
X12931967Y-11842769D02*
X12931967Y-11890388D01*
X12931967Y-11890388D02*
X12922444Y-11909436D01*
X12922444Y-11909436D02*
X12912920Y-11918960D01*
X12912920Y-11918960D02*
X12893872Y-11928484D01*
X12893872Y-11928484D02*
X12846253Y-11928484D01*
X12846253Y-11928484D02*
X12827206Y-11918960D01*
X12827206Y-11918960D02*
X12817682Y-11909436D01*
X12998634Y-11728484D02*
X13131967Y-11728484D01*
X13131967Y-11728484D02*
X13046253Y-11928484D01*
X13198634Y-11728484D02*
X13198634Y-11766579D01*
X13274825Y-11728484D02*
X13274825Y-11766579D01*
X13570063Y-12004674D02*
X13560539Y-11995150D01*
X13560539Y-11995150D02*
X13541491Y-11966579D01*
X13541491Y-11966579D02*
X13531968Y-11947531D01*
X13531968Y-11947531D02*
X13522444Y-11918960D01*
X13522444Y-11918960D02*
X13512920Y-11871341D01*
X13512920Y-11871341D02*
X13512920Y-11833246D01*
X13512920Y-11833246D02*
X13522444Y-11785627D01*
X13522444Y-11785627D02*
X13531968Y-11757055D01*
X13531968Y-11757055D02*
X13541491Y-11738008D01*
X13541491Y-11738008D02*
X13560539Y-11709436D01*
X13560539Y-11709436D02*
X13570063Y-11699912D01*
X13731968Y-11795150D02*
X13731968Y-11928484D01*
X13684348Y-11718960D02*
X13636729Y-11861817D01*
X13636729Y-11861817D02*
X13760539Y-11861817D01*
X13989110Y-11928484D02*
X13989110Y-11728484D01*
X14074825Y-11928484D02*
X14074825Y-11823722D01*
X14074825Y-11823722D02*
X14065301Y-11804674D01*
X14065301Y-11804674D02*
X14046253Y-11795150D01*
X14046253Y-11795150D02*
X14017682Y-11795150D01*
X14017682Y-11795150D02*
X13998634Y-11804674D01*
X13998634Y-11804674D02*
X13989110Y-11814198D01*
X14198634Y-11928484D02*
X14179587Y-11918960D01*
X14179587Y-11918960D02*
X14170063Y-11909436D01*
X14170063Y-11909436D02*
X14160539Y-11890388D01*
X14160539Y-11890388D02*
X14160539Y-11833246D01*
X14160539Y-11833246D02*
X14170063Y-11814198D01*
X14170063Y-11814198D02*
X14179587Y-11804674D01*
X14179587Y-11804674D02*
X14198634Y-11795150D01*
X14198634Y-11795150D02*
X14227206Y-11795150D01*
X14227206Y-11795150D02*
X14246253Y-11804674D01*
X14246253Y-11804674D02*
X14255777Y-11814198D01*
X14255777Y-11814198D02*
X14265301Y-11833246D01*
X14265301Y-11833246D02*
X14265301Y-11890388D01*
X14265301Y-11890388D02*
X14255777Y-11909436D01*
X14255777Y-11909436D02*
X14246253Y-11918960D01*
X14246253Y-11918960D02*
X14227206Y-11928484D01*
X14227206Y-11928484D02*
X14198634Y-11928484D01*
X14379587Y-11928484D02*
X14360539Y-11918960D01*
X14360539Y-11918960D02*
X14351015Y-11899912D01*
X14351015Y-11899912D02*
X14351015Y-11728484D01*
X14531968Y-11918960D02*
X14512920Y-11928484D01*
X14512920Y-11928484D02*
X14474825Y-11928484D01*
X14474825Y-11928484D02*
X14455777Y-11918960D01*
X14455777Y-11918960D02*
X14446253Y-11899912D01*
X14446253Y-11899912D02*
X14446253Y-11823722D01*
X14446253Y-11823722D02*
X14455777Y-11804674D01*
X14455777Y-11804674D02*
X14474825Y-11795150D01*
X14474825Y-11795150D02*
X14512920Y-11795150D01*
X14512920Y-11795150D02*
X14531968Y-11804674D01*
X14531968Y-11804674D02*
X14541491Y-11823722D01*
X14541491Y-11823722D02*
X14541491Y-11842769D01*
X14541491Y-11842769D02*
X14446253Y-11861817D01*
X14617682Y-11918960D02*
X14636730Y-11928484D01*
X14636730Y-11928484D02*
X14674825Y-11928484D01*
X14674825Y-11928484D02*
X14693872Y-11918960D01*
X14693872Y-11918960D02*
X14703396Y-11899912D01*
X14703396Y-11899912D02*
X14703396Y-11890388D01*
X14703396Y-11890388D02*
X14693872Y-11871341D01*
X14693872Y-11871341D02*
X14674825Y-11861817D01*
X14674825Y-11861817D02*
X14646253Y-11861817D01*
X14646253Y-11861817D02*
X14627206Y-11852293D01*
X14627206Y-11852293D02*
X14617682Y-11833246D01*
X14617682Y-11833246D02*
X14617682Y-11823722D01*
X14617682Y-11823722D02*
X14627206Y-11804674D01*
X14627206Y-11804674D02*
X14646253Y-11795150D01*
X14646253Y-11795150D02*
X14674825Y-11795150D01*
X14674825Y-11795150D02*
X14693872Y-11804674D01*
X14770063Y-12004674D02*
X14779587Y-11995150D01*
X14779587Y-11995150D02*
X14798634Y-11966579D01*
X14798634Y-11966579D02*
X14808158Y-11947531D01*
X14808158Y-11947531D02*
X14817682Y-11918960D01*
X14817682Y-11918960D02*
X14827206Y-11871341D01*
X14827206Y-11871341D02*
X14827206Y-11833246D01*
X14827206Y-11833246D02*
X14817682Y-11785627D01*
X14817682Y-11785627D02*
X14808158Y-11757055D01*
X14808158Y-11757055D02*
X14798634Y-11738008D01*
X14798634Y-11738008D02*
X14779587Y-11709436D01*
X14779587Y-11709436D02*
X14770063Y-11699912D01*
D15*
X9944250Y-12151750D02*
X9995000Y-12101000D01*
X9944250Y-12050250D01*
X9893500Y-12101000D01*
X9944250Y-12151750D01*
D11*
X10360539Y-12192484D02*
X10246253Y-12192484D01*
X10303396Y-12192484D02*
X10303396Y-11992484D01*
X10303396Y-11992484D02*
X10284348Y-12021055D01*
X10284348Y-12021055D02*
X10265301Y-12040103D01*
X10265301Y-12040103D02*
X10246253Y-12049627D01*
X10446253Y-12173436D02*
X10455777Y-12182960D01*
X10455777Y-12182960D02*
X10446253Y-12192484D01*
X10446253Y-12192484D02*
X10436729Y-12182960D01*
X10436729Y-12182960D02*
X10446253Y-12173436D01*
X10446253Y-12173436D02*
X10446253Y-12192484D01*
X10579586Y-11992484D02*
X10598634Y-11992484D01*
X10598634Y-11992484D02*
X10617682Y-12002008D01*
X10617682Y-12002008D02*
X10627205Y-12011531D01*
X10627205Y-12011531D02*
X10636729Y-12030579D01*
X10636729Y-12030579D02*
X10646253Y-12068674D01*
X10646253Y-12068674D02*
X10646253Y-12116293D01*
X10646253Y-12116293D02*
X10636729Y-12154388D01*
X10636729Y-12154388D02*
X10627205Y-12173436D01*
X10627205Y-12173436D02*
X10617682Y-12182960D01*
X10617682Y-12182960D02*
X10598634Y-12192484D01*
X10598634Y-12192484D02*
X10579586Y-12192484D01*
X10579586Y-12192484D02*
X10560539Y-12182960D01*
X10560539Y-12182960D02*
X10551015Y-12173436D01*
X10551015Y-12173436D02*
X10541491Y-12154388D01*
X10541491Y-12154388D02*
X10531967Y-12116293D01*
X10531967Y-12116293D02*
X10531967Y-12068674D01*
X10531967Y-12068674D02*
X10541491Y-12030579D01*
X10541491Y-12030579D02*
X10551015Y-12011531D01*
X10551015Y-12011531D02*
X10560539Y-12002008D01*
X10560539Y-12002008D02*
X10579586Y-11992484D01*
X10836729Y-12192484D02*
X10722444Y-12192484D01*
X10779586Y-12192484D02*
X10779586Y-11992484D01*
X10779586Y-11992484D02*
X10760539Y-12021055D01*
X10760539Y-12021055D02*
X10741491Y-12040103D01*
X10741491Y-12040103D02*
X10722444Y-12049627D01*
X11017682Y-11992484D02*
X10922444Y-11992484D01*
X10922444Y-11992484D02*
X10912920Y-12087722D01*
X10912920Y-12087722D02*
X10922444Y-12078198D01*
X10922444Y-12078198D02*
X10941491Y-12068674D01*
X10941491Y-12068674D02*
X10989110Y-12068674D01*
X10989110Y-12068674D02*
X11008158Y-12078198D01*
X11008158Y-12078198D02*
X11017682Y-12087722D01*
X11017682Y-12087722D02*
X11027205Y-12106769D01*
X11027205Y-12106769D02*
X11027205Y-12154388D01*
X11027205Y-12154388D02*
X11017682Y-12173436D01*
X11017682Y-12173436D02*
X11008158Y-12182960D01*
X11008158Y-12182960D02*
X10989110Y-12192484D01*
X10989110Y-12192484D02*
X10941491Y-12192484D01*
X10941491Y-12192484D02*
X10922444Y-12182960D01*
X10922444Y-12182960D02*
X10912920Y-12173436D01*
X11112920Y-12192484D02*
X11112920Y-12059150D01*
X11112920Y-12078198D02*
X11122444Y-12068674D01*
X11122444Y-12068674D02*
X11141491Y-12059150D01*
X11141491Y-12059150D02*
X11170063Y-12059150D01*
X11170063Y-12059150D02*
X11189110Y-12068674D01*
X11189110Y-12068674D02*
X11198634Y-12087722D01*
X11198634Y-12087722D02*
X11198634Y-12192484D01*
X11198634Y-12087722D02*
X11208158Y-12068674D01*
X11208158Y-12068674D02*
X11227205Y-12059150D01*
X11227205Y-12059150D02*
X11255777Y-12059150D01*
X11255777Y-12059150D02*
X11274824Y-12068674D01*
X11274824Y-12068674D02*
X11284348Y-12087722D01*
X11284348Y-12087722D02*
X11284348Y-12192484D01*
X11379586Y-12192484D02*
X11379586Y-12059150D01*
X11379586Y-12078198D02*
X11389110Y-12068674D01*
X11389110Y-12068674D02*
X11408158Y-12059150D01*
X11408158Y-12059150D02*
X11436729Y-12059150D01*
X11436729Y-12059150D02*
X11455777Y-12068674D01*
X11455777Y-12068674D02*
X11465301Y-12087722D01*
X11465301Y-12087722D02*
X11465301Y-12192484D01*
X11465301Y-12087722D02*
X11474824Y-12068674D01*
X11474824Y-12068674D02*
X11493872Y-12059150D01*
X11493872Y-12059150D02*
X11522443Y-12059150D01*
X11522443Y-12059150D02*
X11541491Y-12068674D01*
X11541491Y-12068674D02*
X11551015Y-12087722D01*
X11551015Y-12087722D02*
X11551015Y-12192484D01*
X11941491Y-11982960D02*
X11770063Y-12240103D01*
X12198634Y-11992484D02*
X12217682Y-11992484D01*
X12217682Y-11992484D02*
X12236729Y-12002008D01*
X12236729Y-12002008D02*
X12246253Y-12011531D01*
X12246253Y-12011531D02*
X12255777Y-12030579D01*
X12255777Y-12030579D02*
X12265301Y-12068674D01*
X12265301Y-12068674D02*
X12265301Y-12116293D01*
X12265301Y-12116293D02*
X12255777Y-12154388D01*
X12255777Y-12154388D02*
X12246253Y-12173436D01*
X12246253Y-12173436D02*
X12236729Y-12182960D01*
X12236729Y-12182960D02*
X12217682Y-12192484D01*
X12217682Y-12192484D02*
X12198634Y-12192484D01*
X12198634Y-12192484D02*
X12179586Y-12182960D01*
X12179586Y-12182960D02*
X12170063Y-12173436D01*
X12170063Y-12173436D02*
X12160539Y-12154388D01*
X12160539Y-12154388D02*
X12151015Y-12116293D01*
X12151015Y-12116293D02*
X12151015Y-12068674D01*
X12151015Y-12068674D02*
X12160539Y-12030579D01*
X12160539Y-12030579D02*
X12170063Y-12011531D01*
X12170063Y-12011531D02*
X12179586Y-12002008D01*
X12179586Y-12002008D02*
X12198634Y-11992484D01*
X12351015Y-12173436D02*
X12360539Y-12182960D01*
X12360539Y-12182960D02*
X12351015Y-12192484D01*
X12351015Y-12192484D02*
X12341491Y-12182960D01*
X12341491Y-12182960D02*
X12351015Y-12173436D01*
X12351015Y-12173436D02*
X12351015Y-12192484D01*
X12484348Y-11992484D02*
X12503396Y-11992484D01*
X12503396Y-11992484D02*
X12522444Y-12002008D01*
X12522444Y-12002008D02*
X12531967Y-12011531D01*
X12531967Y-12011531D02*
X12541491Y-12030579D01*
X12541491Y-12030579D02*
X12551015Y-12068674D01*
X12551015Y-12068674D02*
X12551015Y-12116293D01*
X12551015Y-12116293D02*
X12541491Y-12154388D01*
X12541491Y-12154388D02*
X12531967Y-12173436D01*
X12531967Y-12173436D02*
X12522444Y-12182960D01*
X12522444Y-12182960D02*
X12503396Y-12192484D01*
X12503396Y-12192484D02*
X12484348Y-12192484D01*
X12484348Y-12192484D02*
X12465301Y-12182960D01*
X12465301Y-12182960D02*
X12455777Y-12173436D01*
X12455777Y-12173436D02*
X12446253Y-12154388D01*
X12446253Y-12154388D02*
X12436729Y-12116293D01*
X12436729Y-12116293D02*
X12436729Y-12068674D01*
X12436729Y-12068674D02*
X12446253Y-12030579D01*
X12446253Y-12030579D02*
X12455777Y-12011531D01*
X12455777Y-12011531D02*
X12465301Y-12002008D01*
X12465301Y-12002008D02*
X12484348Y-11992484D01*
X12722444Y-12059150D02*
X12722444Y-12192484D01*
X12674825Y-11982960D02*
X12627206Y-12125817D01*
X12627206Y-12125817D02*
X12751015Y-12125817D01*
X12865301Y-11992484D02*
X12884348Y-11992484D01*
X12884348Y-11992484D02*
X12903396Y-12002008D01*
X12903396Y-12002008D02*
X12912920Y-12011531D01*
X12912920Y-12011531D02*
X12922444Y-12030579D01*
X12922444Y-12030579D02*
X12931967Y-12068674D01*
X12931967Y-12068674D02*
X12931967Y-12116293D01*
X12931967Y-12116293D02*
X12922444Y-12154388D01*
X12922444Y-12154388D02*
X12912920Y-12173436D01*
X12912920Y-12173436D02*
X12903396Y-12182960D01*
X12903396Y-12182960D02*
X12884348Y-12192484D01*
X12884348Y-12192484D02*
X12865301Y-12192484D01*
X12865301Y-12192484D02*
X12846253Y-12182960D01*
X12846253Y-12182960D02*
X12836729Y-12173436D01*
X12836729Y-12173436D02*
X12827206Y-12154388D01*
X12827206Y-12154388D02*
X12817682Y-12116293D01*
X12817682Y-12116293D02*
X12817682Y-12068674D01*
X12817682Y-12068674D02*
X12827206Y-12030579D01*
X12827206Y-12030579D02*
X12836729Y-12011531D01*
X12836729Y-12011531D02*
X12846253Y-12002008D01*
X12846253Y-12002008D02*
X12865301Y-11992484D01*
X13055777Y-11992484D02*
X13074825Y-11992484D01*
X13074825Y-11992484D02*
X13093872Y-12002008D01*
X13093872Y-12002008D02*
X13103396Y-12011531D01*
X13103396Y-12011531D02*
X13112920Y-12030579D01*
X13112920Y-12030579D02*
X13122444Y-12068674D01*
X13122444Y-12068674D02*
X13122444Y-12116293D01*
X13122444Y-12116293D02*
X13112920Y-12154388D01*
X13112920Y-12154388D02*
X13103396Y-12173436D01*
X13103396Y-12173436D02*
X13093872Y-12182960D01*
X13093872Y-12182960D02*
X13074825Y-12192484D01*
X13074825Y-12192484D02*
X13055777Y-12192484D01*
X13055777Y-12192484D02*
X13036729Y-12182960D01*
X13036729Y-12182960D02*
X13027206Y-12173436D01*
X13027206Y-12173436D02*
X13017682Y-12154388D01*
X13017682Y-12154388D02*
X13008158Y-12116293D01*
X13008158Y-12116293D02*
X13008158Y-12068674D01*
X13008158Y-12068674D02*
X13017682Y-12030579D01*
X13017682Y-12030579D02*
X13027206Y-12011531D01*
X13027206Y-12011531D02*
X13036729Y-12002008D01*
X13036729Y-12002008D02*
X13055777Y-11992484D01*
X13198634Y-11992484D02*
X13198634Y-12030579D01*
X13274825Y-11992484D02*
X13274825Y-12030579D01*
X13570063Y-12268674D02*
X13560539Y-12259150D01*
X13560539Y-12259150D02*
X13541491Y-12230579D01*
X13541491Y-12230579D02*
X13531968Y-12211531D01*
X13531968Y-12211531D02*
X13522444Y-12182960D01*
X13522444Y-12182960D02*
X13512920Y-12135341D01*
X13512920Y-12135341D02*
X13512920Y-12097246D01*
X13512920Y-12097246D02*
X13522444Y-12049627D01*
X13522444Y-12049627D02*
X13531968Y-12021055D01*
X13531968Y-12021055D02*
X13541491Y-12002008D01*
X13541491Y-12002008D02*
X13560539Y-11973436D01*
X13560539Y-11973436D02*
X13570063Y-11963912D01*
X13731968Y-11992484D02*
X13693872Y-11992484D01*
X13693872Y-11992484D02*
X13674825Y-12002008D01*
X13674825Y-12002008D02*
X13665301Y-12011531D01*
X13665301Y-12011531D02*
X13646253Y-12040103D01*
X13646253Y-12040103D02*
X13636729Y-12078198D01*
X13636729Y-12078198D02*
X13636729Y-12154388D01*
X13636729Y-12154388D02*
X13646253Y-12173436D01*
X13646253Y-12173436D02*
X13655777Y-12182960D01*
X13655777Y-12182960D02*
X13674825Y-12192484D01*
X13674825Y-12192484D02*
X13712920Y-12192484D01*
X13712920Y-12192484D02*
X13731968Y-12182960D01*
X13731968Y-12182960D02*
X13741491Y-12173436D01*
X13741491Y-12173436D02*
X13751015Y-12154388D01*
X13751015Y-12154388D02*
X13751015Y-12106769D01*
X13751015Y-12106769D02*
X13741491Y-12087722D01*
X13741491Y-12087722D02*
X13731968Y-12078198D01*
X13731968Y-12078198D02*
X13712920Y-12068674D01*
X13712920Y-12068674D02*
X13674825Y-12068674D01*
X13674825Y-12068674D02*
X13655777Y-12078198D01*
X13655777Y-12078198D02*
X13646253Y-12087722D01*
X13646253Y-12087722D02*
X13636729Y-12106769D01*
X13989110Y-12192484D02*
X13989110Y-11992484D01*
X14074825Y-12192484D02*
X14074825Y-12087722D01*
X14074825Y-12087722D02*
X14065301Y-12068674D01*
X14065301Y-12068674D02*
X14046253Y-12059150D01*
X14046253Y-12059150D02*
X14017682Y-12059150D01*
X14017682Y-12059150D02*
X13998634Y-12068674D01*
X13998634Y-12068674D02*
X13989110Y-12078198D01*
X14198634Y-12192484D02*
X14179587Y-12182960D01*
X14179587Y-12182960D02*
X14170063Y-12173436D01*
X14170063Y-12173436D02*
X14160539Y-12154388D01*
X14160539Y-12154388D02*
X14160539Y-12097246D01*
X14160539Y-12097246D02*
X14170063Y-12078198D01*
X14170063Y-12078198D02*
X14179587Y-12068674D01*
X14179587Y-12068674D02*
X14198634Y-12059150D01*
X14198634Y-12059150D02*
X14227206Y-12059150D01*
X14227206Y-12059150D02*
X14246253Y-12068674D01*
X14246253Y-12068674D02*
X14255777Y-12078198D01*
X14255777Y-12078198D02*
X14265301Y-12097246D01*
X14265301Y-12097246D02*
X14265301Y-12154388D01*
X14265301Y-12154388D02*
X14255777Y-12173436D01*
X14255777Y-12173436D02*
X14246253Y-12182960D01*
X14246253Y-12182960D02*
X14227206Y-12192484D01*
X14227206Y-12192484D02*
X14198634Y-12192484D01*
X14379587Y-12192484D02*
X14360539Y-12182960D01*
X14360539Y-12182960D02*
X14351015Y-12163912D01*
X14351015Y-12163912D02*
X14351015Y-11992484D01*
X14531968Y-12182960D02*
X14512920Y-12192484D01*
X14512920Y-12192484D02*
X14474825Y-12192484D01*
X14474825Y-12192484D02*
X14455777Y-12182960D01*
X14455777Y-12182960D02*
X14446253Y-12163912D01*
X14446253Y-12163912D02*
X14446253Y-12087722D01*
X14446253Y-12087722D02*
X14455777Y-12068674D01*
X14455777Y-12068674D02*
X14474825Y-12059150D01*
X14474825Y-12059150D02*
X14512920Y-12059150D01*
X14512920Y-12059150D02*
X14531968Y-12068674D01*
X14531968Y-12068674D02*
X14541491Y-12087722D01*
X14541491Y-12087722D02*
X14541491Y-12106769D01*
X14541491Y-12106769D02*
X14446253Y-12125817D01*
X14617682Y-12182960D02*
X14636730Y-12192484D01*
X14636730Y-12192484D02*
X14674825Y-12192484D01*
X14674825Y-12192484D02*
X14693872Y-12182960D01*
X14693872Y-12182960D02*
X14703396Y-12163912D01*
X14703396Y-12163912D02*
X14703396Y-12154388D01*
X14703396Y-12154388D02*
X14693872Y-12135341D01*
X14693872Y-12135341D02*
X14674825Y-12125817D01*
X14674825Y-12125817D02*
X14646253Y-12125817D01*
X14646253Y-12125817D02*
X14627206Y-12116293D01*
X14627206Y-12116293D02*
X14617682Y-12097246D01*
X14617682Y-12097246D02*
X14617682Y-12087722D01*
X14617682Y-12087722D02*
X14627206Y-12068674D01*
X14627206Y-12068674D02*
X14646253Y-12059150D01*
X14646253Y-12059150D02*
X14674825Y-12059150D01*
X14674825Y-12059150D02*
X14693872Y-12068674D01*
X14770063Y-12268674D02*
X14779587Y-12259150D01*
X14779587Y-12259150D02*
X14798634Y-12230579D01*
X14798634Y-12230579D02*
X14808158Y-12211531D01*
X14808158Y-12211531D02*
X14817682Y-12182960D01*
X14817682Y-12182960D02*
X14827206Y-12135341D01*
X14827206Y-12135341D02*
X14827206Y-12097246D01*
X14827206Y-12097246D02*
X14817682Y-12049627D01*
X14817682Y-12049627D02*
X14808158Y-12021055D01*
X14808158Y-12021055D02*
X14798634Y-12002008D01*
X14798634Y-12002008D02*
X14779587Y-11973436D01*
X14779587Y-11973436D02*
X14770063Y-11963912D01*
D16*
X9893400Y-12314200D02*
X9995000Y-12415800D01*
X9995000Y-12314200D02*
X9893400Y-12415800D01*
X9995000Y-12365000D02*
G75*
G03*
X9995000Y-12365000I-50800J0D01*
G01*
D11*
X10360539Y-12456484D02*
X10246253Y-12456484D01*
X10303396Y-12456484D02*
X10303396Y-12256484D01*
X10303396Y-12256484D02*
X10284348Y-12285055D01*
X10284348Y-12285055D02*
X10265301Y-12304103D01*
X10265301Y-12304103D02*
X10246253Y-12313627D01*
X10446253Y-12437436D02*
X10455777Y-12446960D01*
X10455777Y-12446960D02*
X10446253Y-12456484D01*
X10446253Y-12456484D02*
X10436729Y-12446960D01*
X10436729Y-12446960D02*
X10446253Y-12437436D01*
X10446253Y-12437436D02*
X10446253Y-12456484D01*
X10579586Y-12256484D02*
X10598634Y-12256484D01*
X10598634Y-12256484D02*
X10617682Y-12266008D01*
X10617682Y-12266008D02*
X10627205Y-12275531D01*
X10627205Y-12275531D02*
X10636729Y-12294579D01*
X10636729Y-12294579D02*
X10646253Y-12332674D01*
X10646253Y-12332674D02*
X10646253Y-12380293D01*
X10646253Y-12380293D02*
X10636729Y-12418388D01*
X10636729Y-12418388D02*
X10627205Y-12437436D01*
X10627205Y-12437436D02*
X10617682Y-12446960D01*
X10617682Y-12446960D02*
X10598634Y-12456484D01*
X10598634Y-12456484D02*
X10579586Y-12456484D01*
X10579586Y-12456484D02*
X10560539Y-12446960D01*
X10560539Y-12446960D02*
X10551015Y-12437436D01*
X10551015Y-12437436D02*
X10541491Y-12418388D01*
X10541491Y-12418388D02*
X10531967Y-12380293D01*
X10531967Y-12380293D02*
X10531967Y-12332674D01*
X10531967Y-12332674D02*
X10541491Y-12294579D01*
X10541491Y-12294579D02*
X10551015Y-12275531D01*
X10551015Y-12275531D02*
X10560539Y-12266008D01*
X10560539Y-12266008D02*
X10579586Y-12256484D01*
X10836729Y-12456484D02*
X10722444Y-12456484D01*
X10779586Y-12456484D02*
X10779586Y-12256484D01*
X10779586Y-12256484D02*
X10760539Y-12285055D01*
X10760539Y-12285055D02*
X10741491Y-12304103D01*
X10741491Y-12304103D02*
X10722444Y-12313627D01*
X11008158Y-12256484D02*
X10970063Y-12256484D01*
X10970063Y-12256484D02*
X10951015Y-12266008D01*
X10951015Y-12266008D02*
X10941491Y-12275531D01*
X10941491Y-12275531D02*
X10922444Y-12304103D01*
X10922444Y-12304103D02*
X10912920Y-12342198D01*
X10912920Y-12342198D02*
X10912920Y-12418388D01*
X10912920Y-12418388D02*
X10922444Y-12437436D01*
X10922444Y-12437436D02*
X10931967Y-12446960D01*
X10931967Y-12446960D02*
X10951015Y-12456484D01*
X10951015Y-12456484D02*
X10989110Y-12456484D01*
X10989110Y-12456484D02*
X11008158Y-12446960D01*
X11008158Y-12446960D02*
X11017682Y-12437436D01*
X11017682Y-12437436D02*
X11027205Y-12418388D01*
X11027205Y-12418388D02*
X11027205Y-12370769D01*
X11027205Y-12370769D02*
X11017682Y-12351722D01*
X11017682Y-12351722D02*
X11008158Y-12342198D01*
X11008158Y-12342198D02*
X10989110Y-12332674D01*
X10989110Y-12332674D02*
X10951015Y-12332674D01*
X10951015Y-12332674D02*
X10931967Y-12342198D01*
X10931967Y-12342198D02*
X10922444Y-12351722D01*
X10922444Y-12351722D02*
X10912920Y-12370769D01*
X11112920Y-12456484D02*
X11112920Y-12323150D01*
X11112920Y-12342198D02*
X11122444Y-12332674D01*
X11122444Y-12332674D02*
X11141491Y-12323150D01*
X11141491Y-12323150D02*
X11170063Y-12323150D01*
X11170063Y-12323150D02*
X11189110Y-12332674D01*
X11189110Y-12332674D02*
X11198634Y-12351722D01*
X11198634Y-12351722D02*
X11198634Y-12456484D01*
X11198634Y-12351722D02*
X11208158Y-12332674D01*
X11208158Y-12332674D02*
X11227205Y-12323150D01*
X11227205Y-12323150D02*
X11255777Y-12323150D01*
X11255777Y-12323150D02*
X11274824Y-12332674D01*
X11274824Y-12332674D02*
X11284348Y-12351722D01*
X11284348Y-12351722D02*
X11284348Y-12456484D01*
X11379586Y-12456484D02*
X11379586Y-12323150D01*
X11379586Y-12342198D02*
X11389110Y-12332674D01*
X11389110Y-12332674D02*
X11408158Y-12323150D01*
X11408158Y-12323150D02*
X11436729Y-12323150D01*
X11436729Y-12323150D02*
X11455777Y-12332674D01*
X11455777Y-12332674D02*
X11465301Y-12351722D01*
X11465301Y-12351722D02*
X11465301Y-12456484D01*
X11465301Y-12351722D02*
X11474824Y-12332674D01*
X11474824Y-12332674D02*
X11493872Y-12323150D01*
X11493872Y-12323150D02*
X11522443Y-12323150D01*
X11522443Y-12323150D02*
X11541491Y-12332674D01*
X11541491Y-12332674D02*
X11551015Y-12351722D01*
X11551015Y-12351722D02*
X11551015Y-12456484D01*
X11941491Y-12246960D02*
X11770063Y-12504103D01*
X12198634Y-12256484D02*
X12217682Y-12256484D01*
X12217682Y-12256484D02*
X12236729Y-12266008D01*
X12236729Y-12266008D02*
X12246253Y-12275531D01*
X12246253Y-12275531D02*
X12255777Y-12294579D01*
X12255777Y-12294579D02*
X12265301Y-12332674D01*
X12265301Y-12332674D02*
X12265301Y-12380293D01*
X12265301Y-12380293D02*
X12255777Y-12418388D01*
X12255777Y-12418388D02*
X12246253Y-12437436D01*
X12246253Y-12437436D02*
X12236729Y-12446960D01*
X12236729Y-12446960D02*
X12217682Y-12456484D01*
X12217682Y-12456484D02*
X12198634Y-12456484D01*
X12198634Y-12456484D02*
X12179586Y-12446960D01*
X12179586Y-12446960D02*
X12170063Y-12437436D01*
X12170063Y-12437436D02*
X12160539Y-12418388D01*
X12160539Y-12418388D02*
X12151015Y-12380293D01*
X12151015Y-12380293D02*
X12151015Y-12332674D01*
X12151015Y-12332674D02*
X12160539Y-12294579D01*
X12160539Y-12294579D02*
X12170063Y-12275531D01*
X12170063Y-12275531D02*
X12179586Y-12266008D01*
X12179586Y-12266008D02*
X12198634Y-12256484D01*
X12351015Y-12437436D02*
X12360539Y-12446960D01*
X12360539Y-12446960D02*
X12351015Y-12456484D01*
X12351015Y-12456484D02*
X12341491Y-12446960D01*
X12341491Y-12446960D02*
X12351015Y-12437436D01*
X12351015Y-12437436D02*
X12351015Y-12456484D01*
X12484348Y-12256484D02*
X12503396Y-12256484D01*
X12503396Y-12256484D02*
X12522444Y-12266008D01*
X12522444Y-12266008D02*
X12531967Y-12275531D01*
X12531967Y-12275531D02*
X12541491Y-12294579D01*
X12541491Y-12294579D02*
X12551015Y-12332674D01*
X12551015Y-12332674D02*
X12551015Y-12380293D01*
X12551015Y-12380293D02*
X12541491Y-12418388D01*
X12541491Y-12418388D02*
X12531967Y-12437436D01*
X12531967Y-12437436D02*
X12522444Y-12446960D01*
X12522444Y-12446960D02*
X12503396Y-12456484D01*
X12503396Y-12456484D02*
X12484348Y-12456484D01*
X12484348Y-12456484D02*
X12465301Y-12446960D01*
X12465301Y-12446960D02*
X12455777Y-12437436D01*
X12455777Y-12437436D02*
X12446253Y-12418388D01*
X12446253Y-12418388D02*
X12436729Y-12380293D01*
X12436729Y-12380293D02*
X12436729Y-12332674D01*
X12436729Y-12332674D02*
X12446253Y-12294579D01*
X12446253Y-12294579D02*
X12455777Y-12275531D01*
X12455777Y-12275531D02*
X12465301Y-12266008D01*
X12465301Y-12266008D02*
X12484348Y-12256484D01*
X12722444Y-12323150D02*
X12722444Y-12456484D01*
X12674825Y-12246960D02*
X12627206Y-12389817D01*
X12627206Y-12389817D02*
X12751015Y-12389817D01*
X12865301Y-12256484D02*
X12884348Y-12256484D01*
X12884348Y-12256484D02*
X12903396Y-12266008D01*
X12903396Y-12266008D02*
X12912920Y-12275531D01*
X12912920Y-12275531D02*
X12922444Y-12294579D01*
X12922444Y-12294579D02*
X12931967Y-12332674D01*
X12931967Y-12332674D02*
X12931967Y-12380293D01*
X12931967Y-12380293D02*
X12922444Y-12418388D01*
X12922444Y-12418388D02*
X12912920Y-12437436D01*
X12912920Y-12437436D02*
X12903396Y-12446960D01*
X12903396Y-12446960D02*
X12884348Y-12456484D01*
X12884348Y-12456484D02*
X12865301Y-12456484D01*
X12865301Y-12456484D02*
X12846253Y-12446960D01*
X12846253Y-12446960D02*
X12836729Y-12437436D01*
X12836729Y-12437436D02*
X12827206Y-12418388D01*
X12827206Y-12418388D02*
X12817682Y-12380293D01*
X12817682Y-12380293D02*
X12817682Y-12332674D01*
X12817682Y-12332674D02*
X12827206Y-12294579D01*
X12827206Y-12294579D02*
X12836729Y-12275531D01*
X12836729Y-12275531D02*
X12846253Y-12266008D01*
X12846253Y-12266008D02*
X12865301Y-12256484D01*
X13055777Y-12256484D02*
X13074825Y-12256484D01*
X13074825Y-12256484D02*
X13093872Y-12266008D01*
X13093872Y-12266008D02*
X13103396Y-12275531D01*
X13103396Y-12275531D02*
X13112920Y-12294579D01*
X13112920Y-12294579D02*
X13122444Y-12332674D01*
X13122444Y-12332674D02*
X13122444Y-12380293D01*
X13122444Y-12380293D02*
X13112920Y-12418388D01*
X13112920Y-12418388D02*
X13103396Y-12437436D01*
X13103396Y-12437436D02*
X13093872Y-12446960D01*
X13093872Y-12446960D02*
X13074825Y-12456484D01*
X13074825Y-12456484D02*
X13055777Y-12456484D01*
X13055777Y-12456484D02*
X13036729Y-12446960D01*
X13036729Y-12446960D02*
X13027206Y-12437436D01*
X13027206Y-12437436D02*
X13017682Y-12418388D01*
X13017682Y-12418388D02*
X13008158Y-12380293D01*
X13008158Y-12380293D02*
X13008158Y-12332674D01*
X13008158Y-12332674D02*
X13017682Y-12294579D01*
X13017682Y-12294579D02*
X13027206Y-12275531D01*
X13027206Y-12275531D02*
X13036729Y-12266008D01*
X13036729Y-12266008D02*
X13055777Y-12256484D01*
X13198634Y-12256484D02*
X13198634Y-12294579D01*
X13274825Y-12256484D02*
X13274825Y-12294579D01*
X13570063Y-12532674D02*
X13560539Y-12523150D01*
X13560539Y-12523150D02*
X13541491Y-12494579D01*
X13541491Y-12494579D02*
X13531968Y-12475531D01*
X13531968Y-12475531D02*
X13522444Y-12446960D01*
X13522444Y-12446960D02*
X13512920Y-12399341D01*
X13512920Y-12399341D02*
X13512920Y-12361246D01*
X13512920Y-12361246D02*
X13522444Y-12313627D01*
X13522444Y-12313627D02*
X13531968Y-12285055D01*
X13531968Y-12285055D02*
X13541491Y-12266008D01*
X13541491Y-12266008D02*
X13560539Y-12237436D01*
X13560539Y-12237436D02*
X13570063Y-12227912D01*
X13636729Y-12275531D02*
X13646253Y-12266008D01*
X13646253Y-12266008D02*
X13665301Y-12256484D01*
X13665301Y-12256484D02*
X13712920Y-12256484D01*
X13712920Y-12256484D02*
X13731968Y-12266008D01*
X13731968Y-12266008D02*
X13741491Y-12275531D01*
X13741491Y-12275531D02*
X13751015Y-12294579D01*
X13751015Y-12294579D02*
X13751015Y-12313627D01*
X13751015Y-12313627D02*
X13741491Y-12342198D01*
X13741491Y-12342198D02*
X13627206Y-12456484D01*
X13627206Y-12456484D02*
X13751015Y-12456484D01*
X13989110Y-12456484D02*
X13989110Y-12256484D01*
X14074825Y-12456484D02*
X14074825Y-12351722D01*
X14074825Y-12351722D02*
X14065301Y-12332674D01*
X14065301Y-12332674D02*
X14046253Y-12323150D01*
X14046253Y-12323150D02*
X14017682Y-12323150D01*
X14017682Y-12323150D02*
X13998634Y-12332674D01*
X13998634Y-12332674D02*
X13989110Y-12342198D01*
X14198634Y-12456484D02*
X14179587Y-12446960D01*
X14179587Y-12446960D02*
X14170063Y-12437436D01*
X14170063Y-12437436D02*
X14160539Y-12418388D01*
X14160539Y-12418388D02*
X14160539Y-12361246D01*
X14160539Y-12361246D02*
X14170063Y-12342198D01*
X14170063Y-12342198D02*
X14179587Y-12332674D01*
X14179587Y-12332674D02*
X14198634Y-12323150D01*
X14198634Y-12323150D02*
X14227206Y-12323150D01*
X14227206Y-12323150D02*
X14246253Y-12332674D01*
X14246253Y-12332674D02*
X14255777Y-12342198D01*
X14255777Y-12342198D02*
X14265301Y-12361246D01*
X14265301Y-12361246D02*
X14265301Y-12418388D01*
X14265301Y-12418388D02*
X14255777Y-12437436D01*
X14255777Y-12437436D02*
X14246253Y-12446960D01*
X14246253Y-12446960D02*
X14227206Y-12456484D01*
X14227206Y-12456484D02*
X14198634Y-12456484D01*
X14379587Y-12456484D02*
X14360539Y-12446960D01*
X14360539Y-12446960D02*
X14351015Y-12427912D01*
X14351015Y-12427912D02*
X14351015Y-12256484D01*
X14531968Y-12446960D02*
X14512920Y-12456484D01*
X14512920Y-12456484D02*
X14474825Y-12456484D01*
X14474825Y-12456484D02*
X14455777Y-12446960D01*
X14455777Y-12446960D02*
X14446253Y-12427912D01*
X14446253Y-12427912D02*
X14446253Y-12351722D01*
X14446253Y-12351722D02*
X14455777Y-12332674D01*
X14455777Y-12332674D02*
X14474825Y-12323150D01*
X14474825Y-12323150D02*
X14512920Y-12323150D01*
X14512920Y-12323150D02*
X14531968Y-12332674D01*
X14531968Y-12332674D02*
X14541491Y-12351722D01*
X14541491Y-12351722D02*
X14541491Y-12370769D01*
X14541491Y-12370769D02*
X14446253Y-12389817D01*
X14617682Y-12446960D02*
X14636730Y-12456484D01*
X14636730Y-12456484D02*
X14674825Y-12456484D01*
X14674825Y-12456484D02*
X14693872Y-12446960D01*
X14693872Y-12446960D02*
X14703396Y-12427912D01*
X14703396Y-12427912D02*
X14703396Y-12418388D01*
X14703396Y-12418388D02*
X14693872Y-12399341D01*
X14693872Y-12399341D02*
X14674825Y-12389817D01*
X14674825Y-12389817D02*
X14646253Y-12389817D01*
X14646253Y-12389817D02*
X14627206Y-12380293D01*
X14627206Y-12380293D02*
X14617682Y-12361246D01*
X14617682Y-12361246D02*
X14617682Y-12351722D01*
X14617682Y-12351722D02*
X14627206Y-12332674D01*
X14627206Y-12332674D02*
X14646253Y-12323150D01*
X14646253Y-12323150D02*
X14674825Y-12323150D01*
X14674825Y-12323150D02*
X14693872Y-12332674D01*
X14770063Y-12532674D02*
X14779587Y-12523150D01*
X14779587Y-12523150D02*
X14798634Y-12494579D01*
X14798634Y-12494579D02*
X14808158Y-12475531D01*
X14808158Y-12475531D02*
X14817682Y-12446960D01*
X14817682Y-12446960D02*
X14827206Y-12399341D01*
X14827206Y-12399341D02*
X14827206Y-12361246D01*
X14827206Y-12361246D02*
X14817682Y-12313627D01*
X14817682Y-12313627D02*
X14808158Y-12285055D01*
X14808158Y-12285055D02*
X14798634Y-12266008D01*
X14798634Y-12266008D02*
X14779587Y-12237436D01*
X14779587Y-12237436D02*
X14770063Y-12227912D01*
M02*
