%TF.GenerationSoftware,KiCad,Pcbnew,7.0.6*%
%TF.CreationDate,2023-08-17T07:35:18+09:30*%
%TF.ProjectId,spe-sink,7370652d-7369-46e6-9b2e-6b696361645f,V1.0*%
%TF.SameCoordinates,Original*%
%TF.FileFunction,Profile,NP*%
%FSLAX46Y46*%
G04 Gerber Fmt 4.6, Leading zero omitted, Abs format (unit mm)*
G04 Created by KiCad (PCBNEW 7.0.6) date 2023-08-17 07:35:18*
%MOMM*%
%LPD*%
G01*
G04 APERTURE LIST*
%TA.AperFunction,Profile*%
%ADD10C,0.100000*%
%TD*%
G04 APERTURE END LIST*
D10*
X101000000Y-39000000D02*
G75*
G03*
X100000000Y-40000000I0J-1000000D01*
G01*
X122225000Y-104000000D02*
X122225000Y-101100000D01*
X100000000Y-99450000D02*
G75*
G03*
X100550000Y-100000000I550000J0D01*
G01*
X129425000Y-100000000D02*
X137500000Y-100000000D01*
X109075000Y-104000000D02*
X109075000Y-100500000D01*
X129425000Y-100000000D02*
G75*
G03*
X128925000Y-100500000I0J-500000D01*
G01*
X101000000Y-39000000D02*
X137000000Y-39000000D01*
X138000000Y-58250000D02*
X138000000Y-40000000D01*
X138000000Y-61750000D02*
X138000000Y-99500000D01*
X100000000Y-61750000D02*
X100000000Y-99450000D01*
X137500000Y-100000000D02*
G75*
G03*
X138000000Y-99500000I0J500000D01*
G01*
X128925000Y-104000000D02*
X128925000Y-100500000D01*
X108575000Y-100000000D02*
X100550000Y-100000000D01*
X122225000Y-101100000D02*
G75*
G03*
X121025000Y-101100000I-600000J0D01*
G01*
X138000000Y-58250000D02*
G75*
G03*
X138000000Y-61750000I0J-1750000D01*
G01*
X122225000Y-104000000D02*
X128925000Y-104000000D01*
X100000000Y-58250000D02*
X100000000Y-40000000D01*
X109075000Y-100500000D02*
G75*
G03*
X108575000Y-100000000I-500000J0D01*
G01*
X121025000Y-101100000D02*
X121025000Y-104000000D01*
X121025000Y-104000000D02*
X109075000Y-104000000D01*
X138000000Y-40000000D02*
G75*
G03*
X137000000Y-39000000I-1000000J0D01*
G01*
X100000000Y-61750000D02*
G75*
G03*
X100000000Y-58250000I0J1750000D01*
G01*
M02*
