M48
; DRILL file {KiCad 7.0.6} date Thu 17 Aug 2023 07:35:32
; FORMAT={-:-/ absolute / metric / decimal}
; #@! TF.CreationDate,2023-08-17T07:35:32+09:30
; #@! TF.GenerationSoftware,Kicad,Pcbnew,7.0.6
; #@! TF.FileFunction,Plated,1,2,PTH
FMAT,2
METRIC
; #@! TA.AperFunction,Plated,PTH,ComponentDrill
T1C0.200
; #@! TA.AperFunction,Plated,PTH,ViaDrill
T2C0.300
; #@! TA.AperFunction,Plated,PTH,ComponentDrill
T3C0.300
; #@! TA.AperFunction,Plated,PTH,ViaDrill
T4C0.400
; #@! TA.AperFunction,Plated,PTH,ComponentDrill
T5C1.015
; #@! TA.AperFunction,Plated,PTH,ComponentDrill
T6C1.016
%
G90
G05
T1
X101.0Y-57.9
X101.0Y-62.1
X102.3Y-60.0
X128.8Y-89.25
X129.75Y-88.675
X129.75Y-89.825
X130.7Y-89.25
X135.7Y-60.0
X137.0Y-57.9
X137.0Y-62.1
T2
X101.0Y-56.0
X101.5Y-98.5
X102.5Y-51.9
X102.6Y-67.75
X102.6Y-70.25
X102.6Y-71.5
X102.8Y-75.475
X104.2Y-57.522
X104.2Y-64.2
X104.2Y-72.4
X104.5Y-76.75
X104.8Y-64.8
X104.8Y-66.0
X105.0Y-52.2
X105.0Y-77.5
X105.25Y-84.0
X105.25Y-84.75
X105.25Y-85.5
X105.407Y-74.407
X106.0Y-57.6
X106.5Y-78.2
X106.607Y-51.793
X106.8Y-58.0
X107.0Y-96.2
X107.193Y-78.593
X107.6Y-58.4
X108.4Y-58.8
X108.5Y-78.75
X108.6Y-93.4
X108.6Y-99.0
X109.5Y-79.7
X110.0Y-81.3
X112.3Y-86.8
X112.4Y-77.6
X112.4Y-91.4
X112.8Y-80.0
X113.571Y-87.253
X113.6Y-100.0
X113.6Y-86.5
X114.393Y-100.007
X115.0Y-71.4
X115.0Y-73.6
X115.025Y-72.775
X115.2Y-100.0
X116.6Y-77.0
X116.8Y-75.0
X116.8Y-100.0
X117.2Y-76.3
X118.009Y-76.269
X118.2Y-87.123
X118.2Y-100.0
X118.5Y-96.2
X119.0Y-87.4
X119.25Y-95.425
X119.25Y-67.5
X119.5Y-82.6
X119.575Y-99.5
X120.25Y-99.25
X120.3Y-75.2
X121.0Y-99.2
X121.25Y-79.75
X122.0Y-100.0
X122.75Y-97.75
X123.75Y-98.75
X124.75Y-98.0
X125.75Y-99.325
X126.0Y-94.6
X126.25Y-87.0
X127.25Y-98.5
X127.5Y-91.0
X129.25Y-85.25
X129.25Y-99.0
X129.5Y-95.5
X133.0Y-94.25
X133.0Y-95.25
X135.5Y-85.25
X135.5Y-86.25
X135.75Y-91.75
X135.75Y-93.25
X135.75Y-94.75
X135.75Y-96.25
X135.75Y-97.75
T3
X109.0Y-71.0
X109.0Y-72.0
X109.0Y-73.025
X110.0Y-71.0
X110.0Y-72.0
X110.0Y-73.025
X111.0Y-71.0
X111.0Y-72.0
X111.025Y-73.025
T4
X111.49Y-40.99
X116.5Y-59.5
X119.5Y-61.75
X135.25Y-62.75
T5
X116.46Y-46.5
X116.46Y-51.58
X119.0Y-46.5
X119.0Y-51.58
X121.54Y-46.5
X121.54Y-51.58
T6
X103.0Y-87.985
X103.0Y-90.525
T0
M30
