%TF.GenerationSoftware,KiCad,Pcbnew,7.0.6*%
%TF.CreationDate,2023-08-17T07:35:13+09:30*%
%TF.ProjectId,spe-sink,7370652d-7369-46e6-9b2e-6b696361645f,V1.0*%
%TF.SameCoordinates,Original*%
%TF.FileFunction,Copper,L1,Top*%
%TF.FilePolarity,Positive*%
%FSLAX46Y46*%
G04 Gerber Fmt 4.6, Leading zero omitted, Abs format (unit mm)*
G04 Created by KiCad (PCBNEW 7.0.6) date 2023-08-17 07:35:13*
%MOMM*%
%LPD*%
G01*
G04 APERTURE LIST*
G04 Aperture macros list*
%AMRoundRect*
0 Rectangle with rounded corners*
0 $1 Rounding radius*
0 $2 $3 $4 $5 $6 $7 $8 $9 X,Y pos of 4 corners*
0 Add a 4 corners polygon primitive as box body*
4,1,4,$2,$3,$4,$5,$6,$7,$8,$9,$2,$3,0*
0 Add four circle primitives for the rounded corners*
1,1,$1+$1,$2,$3*
1,1,$1+$1,$4,$5*
1,1,$1+$1,$6,$7*
1,1,$1+$1,$8,$9*
0 Add four rect primitives between the rounded corners*
20,1,$1+$1,$2,$3,$4,$5,0*
20,1,$1+$1,$4,$5,$6,$7,0*
20,1,$1+$1,$6,$7,$8,$9,0*
20,1,$1+$1,$8,$9,$2,$3,0*%
%AMFreePoly0*
4,1,45,0.553535,1.028540,0.554999,1.025004,0.554999,-1.025004,0.553535,-1.028540,0.549999,-1.030004,-0.549999,-1.030004,-0.553535,-1.028540,-0.554999,-1.025004,-0.555006,-0.930006,-0.934994,-0.930006,-0.938530,-0.928542,-0.939994,-0.925006,-0.939994,-0.674994,-0.938530,-0.671458,-0.934994,-0.669994,-0.555006,-0.669994,-0.555006,-0.430006,-0.934994,-0.430006,-0.938530,-0.428542,-0.939994,-0.425006,
-0.939994,-0.174994,-0.938530,-0.171458,-0.934994,-0.169994,-0.555006,-0.169994,-0.555006,0.069994,-0.934994,0.069994,-0.938530,0.071458,-0.939994,0.074994,-0.939994,0.325006,-0.938530,0.328542,-0.934994,0.330006,-0.555006,0.330006,-0.555006,0.569994,-0.934994,0.569994,-0.938530,0.571458,-0.939994,0.574994,-0.939994,0.825006,-0.938530,0.828542,-0.934994,0.830006,-0.555006,0.830006,
-0.554999,1.025004,-0.553535,1.028540,-0.549999,1.030004,0.549999,1.030004,0.553535,1.028540,0.553535,1.028540,$1*%
%AMFreePoly1*
4,1,45,0.553535,1.028540,0.554999,1.025004,0.555006,0.830006,0.934994,0.830006,0.938530,0.828542,0.939994,0.825006,0.939994,0.574994,0.938530,0.571458,0.934994,0.569994,0.555006,0.569994,0.555006,0.330006,0.934994,0.330006,0.938530,0.328542,0.939994,0.325006,0.939994,0.074994,0.938530,0.071458,0.934994,0.069994,0.555006,0.069994,0.555006,-0.169994,0.934994,-0.169994,
0.938530,-0.171458,0.939994,-0.174994,0.939994,-0.425006,0.938530,-0.428542,0.934994,-0.430006,0.555006,-0.430006,0.555006,-0.669994,0.934994,-0.669994,0.938530,-0.671458,0.939994,-0.674994,0.939994,-0.925006,0.938530,-0.928542,0.934994,-0.930006,0.555006,-0.930006,0.554999,-1.025004,0.553535,-1.028540,0.549999,-1.030004,-0.549999,-1.030004,-0.553535,-1.028540,-0.554999,-1.025004,
-0.554999,1.025004,-0.553535,1.028540,-0.549999,1.030004,0.549999,1.030004,0.553535,1.028540,0.553535,1.028540,$1*%
%AMFreePoly2*
4,1,21,-0.125000,1.200000,0.125000,1.200000,0.125000,1.700000,0.375000,1.700000,0.375000,1.200000,0.825000,1.200000,0.825000,-1.200000,0.375000,-1.200000,0.375000,-1.700000,0.125000,-1.700000,0.125000,-1.200000,-0.125000,-1.200000,-0.125000,-1.700000,-0.375000,-1.700000,-0.375000,-1.200000,-0.825000,-1.200000,-0.825000,1.200000,-0.375000,1.200000,-0.375000,1.700000,-0.125000,1.700000,
-0.125000,1.200000,-0.125000,1.200000,$1*%
G04 Aperture macros list end*
%TA.AperFunction,SMDPad,CuDef*%
%ADD10RoundRect,0.212500X0.277500X-0.212500X0.277500X0.212500X-0.277500X0.212500X-0.277500X-0.212500X0*%
%TD*%
%TA.AperFunction,SMDPad,CuDef*%
%ADD11RoundRect,0.152500X-0.437500X0.152500X-0.437500X-0.152500X0.437500X-0.152500X0.437500X0.152500X0*%
%TD*%
%TA.AperFunction,SMDPad,CuDef*%
%ADD12RoundRect,0.100000X0.100000X-0.350000X0.100000X0.350000X-0.100000X0.350000X-0.100000X-0.350000X0*%
%TD*%
%TA.AperFunction,SMDPad,CuDef*%
%ADD13RoundRect,0.127500X-0.127500X-0.172500X0.127500X-0.172500X0.127500X0.172500X-0.127500X0.172500X0*%
%TD*%
%TA.AperFunction,SMDPad,CuDef*%
%ADD14R,1.200000X2.000000*%
%TD*%
%TA.AperFunction,SMDPad,CuDef*%
%ADD15RoundRect,0.127500X0.127500X0.172500X-0.127500X0.172500X-0.127500X-0.172500X0.127500X-0.172500X0*%
%TD*%
%TA.AperFunction,SMDPad,CuDef*%
%ADD16R,1.200000X1.200000*%
%TD*%
%TA.AperFunction,SMDPad,CuDef*%
%ADD17RoundRect,0.127500X0.172500X-0.127500X0.172500X0.127500X-0.172500X0.127500X-0.172500X-0.127500X0*%
%TD*%
%TA.AperFunction,SMDPad,CuDef*%
%ADD18RoundRect,0.147500X-0.147500X-0.152500X0.147500X-0.152500X0.147500X0.152500X-0.147500X0.152500X0*%
%TD*%
%TA.AperFunction,SMDPad,CuDef*%
%ADD19R,3.000000X4.000000*%
%TD*%
%TA.AperFunction,SMDPad,CuDef*%
%ADD20RoundRect,0.120000X0.120000X-0.485000X0.120000X0.485000X-0.120000X0.485000X-0.120000X-0.485000X0*%
%TD*%
%TA.AperFunction,SMDPad,CuDef*%
%ADD21RoundRect,0.062500X0.350000X0.062500X-0.350000X0.062500X-0.350000X-0.062500X0.350000X-0.062500X0*%
%TD*%
%TA.AperFunction,SMDPad,CuDef*%
%ADD22RoundRect,0.062500X0.062500X0.350000X-0.062500X0.350000X-0.062500X-0.350000X0.062500X-0.350000X0*%
%TD*%
%TA.AperFunction,ComponentPad*%
%ADD23C,0.600000*%
%TD*%
%TA.AperFunction,SMDPad,CuDef*%
%ADD24R,3.500000X3.500000*%
%TD*%
%TA.AperFunction,SMDPad,CuDef*%
%ADD25R,1.220000X0.580000*%
%TD*%
%TA.AperFunction,SMDPad,CuDef*%
%ADD26RoundRect,0.212500X-0.212500X-0.277500X0.212500X-0.277500X0.212500X0.277500X-0.212500X0.277500X0*%
%TD*%
%TA.AperFunction,SMDPad,CuDef*%
%ADD27RoundRect,0.230000X-0.230000X-0.255000X0.230000X-0.255000X0.230000X0.255000X-0.230000X0.255000X0*%
%TD*%
%TA.AperFunction,SMDPad,CuDef*%
%ADD28RoundRect,0.230000X0.230000X0.255000X-0.230000X0.255000X-0.230000X-0.255000X0.230000X-0.255000X0*%
%TD*%
%TA.AperFunction,SMDPad,CuDef*%
%ADD29RoundRect,0.152500X0.437500X-0.152500X0.437500X0.152500X-0.437500X0.152500X-0.437500X-0.152500X0*%
%TD*%
%TA.AperFunction,SMDPad,CuDef*%
%ADD30RoundRect,0.212500X-0.277500X0.212500X-0.277500X-0.212500X0.277500X-0.212500X0.277500X0.212500X0*%
%TD*%
%TA.AperFunction,SMDPad,CuDef*%
%ADD31RoundRect,0.230000X-0.255000X0.230000X-0.255000X-0.230000X0.255000X-0.230000X0.255000X0.230000X0*%
%TD*%
%TA.AperFunction,SMDPad,CuDef*%
%ADD32RoundRect,0.115000X0.115000X-0.460000X0.115000X0.460000X-0.115000X0.460000X-0.115000X-0.460000X0*%
%TD*%
%TA.AperFunction,SMDPad,CuDef*%
%ADD33R,0.370002X1.124991*%
%TD*%
%TA.AperFunction,SMDPad,CuDef*%
%ADD34R,0.250012X1.099998*%
%TD*%
%TA.AperFunction,SMDPad,CuDef*%
%ADD35FreePoly0,270.000000*%
%TD*%
%TA.AperFunction,SMDPad,CuDef*%
%ADD36FreePoly1,270.000000*%
%TD*%
%TA.AperFunction,SMDPad,CuDef*%
%ADD37R,0.800000X0.250000*%
%TD*%
%TA.AperFunction,SMDPad,CuDef*%
%ADD38R,1.520012X0.299999*%
%TD*%
%TA.AperFunction,SMDPad,CuDef*%
%ADD39RoundRect,0.147500X0.152500X-0.147500X0.152500X0.147500X-0.152500X0.147500X-0.152500X-0.147500X0*%
%TD*%
%TA.AperFunction,ComponentPad*%
%ADD40R,2.000000X2.000000*%
%TD*%
%TA.AperFunction,ComponentPad*%
%ADD41C,2.000000*%
%TD*%
%TA.AperFunction,SMDPad,CuDef*%
%ADD42RoundRect,0.147500X0.147500X0.152500X-0.147500X0.152500X-0.147500X-0.152500X0.147500X-0.152500X0*%
%TD*%
%TA.AperFunction,SMDPad,CuDef*%
%ADD43RoundRect,0.255000X-0.255000X-0.630000X0.255000X-0.630000X0.255000X0.630000X-0.255000X0.630000X0*%
%TD*%
%TA.AperFunction,SMDPad,CuDef*%
%ADD44RoundRect,0.290000X0.290000X0.445000X-0.290000X0.445000X-0.290000X-0.445000X0.290000X-0.445000X0*%
%TD*%
%TA.AperFunction,SMDPad,CuDef*%
%ADD45RoundRect,0.100000X-0.100000X0.350000X-0.100000X-0.350000X0.100000X-0.350000X0.100000X0.350000X0*%
%TD*%
%TA.AperFunction,SMDPad,CuDef*%
%ADD46R,1.200000X0.500000*%
%TD*%
%TA.AperFunction,SMDPad,CuDef*%
%ADD47R,0.420000X0.500000*%
%TD*%
%TA.AperFunction,SMDPad,CuDef*%
%ADD48RoundRect,0.290000X-0.620000X0.290000X-0.620000X-0.290000X0.620000X-0.290000X0.620000X0.290000X0*%
%TD*%
%TA.AperFunction,SMDPad,CuDef*%
%ADD49R,1.090000X1.190000*%
%TD*%
%TA.AperFunction,SMDPad,CuDef*%
%ADD50RoundRect,0.227500X-0.237500X0.227500X-0.237500X-0.227500X0.237500X-0.227500X0.237500X0.227500X0*%
%TD*%
%TA.AperFunction,SMDPad,CuDef*%
%ADD51R,1.730000X2.230000*%
%TD*%
%TA.AperFunction,SMDPad,CuDef*%
%ADD52R,0.350000X1.450000*%
%TD*%
%TA.AperFunction,ComponentPad*%
%ADD53C,0.454000*%
%TD*%
%TA.AperFunction,SMDPad,CuDef*%
%ADD54RoundRect,0.290000X-0.445000X0.290000X-0.445000X-0.290000X0.445000X-0.290000X0.445000X0.290000X0*%
%TD*%
%TA.AperFunction,SMDPad,CuDef*%
%ADD55RoundRect,0.290000X0.445000X-0.290000X0.445000X0.290000X-0.445000X0.290000X-0.445000X-0.290000X0*%
%TD*%
%TA.AperFunction,SMDPad,CuDef*%
%ADD56RoundRect,0.290000X0.620000X-0.290000X0.620000X0.290000X-0.620000X0.290000X-0.620000X-0.290000X0*%
%TD*%
%TA.AperFunction,SMDPad,CuDef*%
%ADD57R,0.240000X0.600000*%
%TD*%
%TA.AperFunction,ComponentPad*%
%ADD58C,0.500000*%
%TD*%
%TA.AperFunction,SMDPad,CuDef*%
%ADD59FreePoly2,270.000000*%
%TD*%
%TA.AperFunction,SMDPad,CuDef*%
%ADD60RoundRect,0.147500X-0.152500X0.147500X-0.152500X-0.147500X0.152500X-0.147500X0.152500X0.147500X0*%
%TD*%
%TA.AperFunction,SMDPad,CuDef*%
%ADD61RoundRect,0.127500X-0.172500X0.127500X-0.172500X-0.127500X0.172500X-0.127500X0.172500X0.127500X0*%
%TD*%
%TA.AperFunction,ComponentPad*%
%ADD62R,2.032000X2.032000*%
%TD*%
%TA.AperFunction,ComponentPad*%
%ADD63O,2.032000X2.032000*%
%TD*%
%TA.AperFunction,ViaPad*%
%ADD64C,0.500000*%
%TD*%
%TA.AperFunction,ViaPad*%
%ADD65C,0.800000*%
%TD*%
%TA.AperFunction,Conductor*%
%ADD66C,0.250000*%
%TD*%
%TA.AperFunction,Conductor*%
%ADD67C,0.200000*%
%TD*%
%TA.AperFunction,Conductor*%
%ADD68C,0.350000*%
%TD*%
%TA.AperFunction,Conductor*%
%ADD69C,0.450000*%
%TD*%
%TA.AperFunction,Conductor*%
%ADD70C,1.200000*%
%TD*%
%TA.AperFunction,Conductor*%
%ADD71C,0.160000*%
%TD*%
%TA.AperFunction,Conductor*%
%ADD72C,0.120000*%
%TD*%
%TA.AperFunction,Conductor*%
%ADD73C,0.550000*%
%TD*%
%TA.AperFunction,Conductor*%
%ADD74C,0.800000*%
%TD*%
%TA.AperFunction,Conductor*%
%ADD75C,0.400000*%
%TD*%
%TA.AperFunction,Conductor*%
%ADD76C,1.000000*%
%TD*%
%TA.AperFunction,Conductor*%
%ADD77C,0.180000*%
%TD*%
G04 APERTURE END LIST*
%TA.AperFunction,EtchedComponent*%
%TO.C,X2*%
G36*
X100613935Y-57313048D02*
G01*
X100966374Y-57423549D01*
X101301158Y-57579573D01*
X101612436Y-57778392D01*
X101894770Y-58016533D01*
X102143226Y-58289834D01*
X102353461Y-58593520D01*
X102521803Y-58922282D01*
X102645309Y-59270377D01*
X102721820Y-59631721D01*
X102750000Y-60000000D01*
X102724373Y-60369189D01*
X102649760Y-60731666D01*
X102527494Y-61080963D01*
X102359756Y-61410843D01*
X102149540Y-61715419D01*
X101900599Y-61989254D01*
X101617377Y-62227460D01*
X101304928Y-62425785D01*
X100968831Y-62580689D01*
X100250000Y-62750000D01*
X100250000Y-61950000D01*
X100538173Y-61911580D01*
X100816787Y-61828553D01*
X101078983Y-61702963D01*
X101318304Y-61537903D01*
X101528858Y-61337437D01*
X101705460Y-61106501D01*
X101843761Y-60850782D01*
X101940356Y-60576576D01*
X102000000Y-60000000D01*
X101992867Y-59709365D01*
X101940356Y-59423424D01*
X101843761Y-59149218D01*
X101705460Y-58893499D01*
X101528858Y-58662563D01*
X101318304Y-58462097D01*
X101078983Y-58297037D01*
X100816787Y-58171447D01*
X100250000Y-58050000D01*
X100250000Y-57250000D01*
X100613935Y-57313048D01*
G37*
%TD.AperFunction*%
%TA.AperFunction,EtchedComponent*%
G36*
X137750000Y-58050000D02*
G01*
X137461827Y-58088420D01*
X137183213Y-58171447D01*
X136921017Y-58297037D01*
X136681696Y-58462097D01*
X136471142Y-58662563D01*
X136294540Y-58893499D01*
X136156239Y-59149218D01*
X136059644Y-59423424D01*
X136000000Y-60000000D01*
X136007133Y-60290635D01*
X136059644Y-60576576D01*
X136156239Y-60850782D01*
X136294540Y-61106501D01*
X136471142Y-61337437D01*
X136681696Y-61537903D01*
X136921017Y-61702963D01*
X137183213Y-61828553D01*
X137750000Y-61950000D01*
X137750000Y-62750000D01*
X137386065Y-62686952D01*
X137033626Y-62576451D01*
X136698842Y-62420427D01*
X136387564Y-62221608D01*
X136105230Y-61983467D01*
X135856774Y-61710166D01*
X135646539Y-61406480D01*
X135478197Y-61077718D01*
X135354691Y-60729623D01*
X135278180Y-60368279D01*
X135250000Y-60000000D01*
X135275627Y-59630811D01*
X135350240Y-59268334D01*
X135472506Y-58919037D01*
X135640244Y-58589157D01*
X135850460Y-58284581D01*
X136099401Y-58010746D01*
X136382623Y-57772540D01*
X136695072Y-57574215D01*
X137031169Y-57419311D01*
X137750000Y-57250000D01*
X137750000Y-58050000D01*
G37*
%TD.AperFunction*%
%TD*%
D10*
%TO.P,R26,1*%
%TO.N,Net-(C25-Pad2)*%
X121250000Y-56725000D03*
%TO.P,R26,2*%
%TO.N,Net-(C29-Pad1)*%
X121250000Y-58275000D03*
%TD*%
%TO.P,R21,1*%
%TO.N,Net-(D3-PadA)*%
X105000000Y-49225000D03*
%TO.P,R21,2*%
%TO.N,Net-(U4-LINK_ST)*%
X105000000Y-50775000D03*
%TD*%
%TO.P,R16,1*%
%TO.N,Net-(D1-PadA)*%
X107500000Y-49225000D03*
%TO.P,R16,2*%
%TO.N,Net-(U4-LED_0)*%
X107500000Y-50775000D03*
%TD*%
D11*
%TO.P,Q1,1,G*%
%TO.N,Net-(Q1-G)*%
X117025000Y-85450000D03*
%TO.P,Q1,2,S*%
%TO.N,GND*%
X117025000Y-83550000D03*
%TO.P,Q1,3,D*%
%TO.N,Net-(Q1-D)*%
X114975000Y-84500000D03*
%TD*%
D12*
%TO.P,R19,1*%
%TO.N,GND*%
X102050000Y-56100000D03*
%TO.P,R19,2*%
X102850000Y-56100000D03*
%TO.P,R19,3*%
X103650000Y-56100000D03*
%TO.P,R19,4*%
%TO.N,unconnected-(R19-Pad4)*%
X104450000Y-56100000D03*
%TO.P,R19,5*%
%TO.N,unconnected-(R19-Pad5)*%
X104450000Y-54400000D03*
%TO.P,R19,6*%
%TO.N,Net-(U4-LED_0)*%
X103650000Y-54400000D03*
%TO.P,R19,7*%
%TO.N,Net-(U4-LINK_ST)*%
X102850000Y-54400000D03*
%TO.P,R19,8*%
%TO.N,Net-(U4-LED_1)*%
X102050000Y-54400000D03*
%TD*%
D13*
%TO.P,R6,1*%
%TO.N,Net-(Q1-G)*%
X113195000Y-85500000D03*
%TO.P,R6,2*%
%TO.N,GND*%
X112305000Y-85500000D03*
%TD*%
D14*
%TO.P,L3,1*%
%TO.N,Net-(J1-Pin_3)*%
X132520000Y-43750000D03*
%TO.P,L3,2*%
%TO.N,Net-(J1-Pin_2)*%
X129980000Y-43750000D03*
%TO.P,L3,3*%
%TO.N,Net-(L1-Pad7)*%
X129980000Y-51250000D03*
%TO.P,L3,4*%
%TO.N,Net-(L1-Pad6)*%
X132520000Y-51250000D03*
%TD*%
D15*
%TO.P,R30,1*%
%TO.N,Net-(U7-FB)*%
X133805000Y-94750000D03*
%TO.P,R30,2*%
%TO.N,GND*%
X134695000Y-94750000D03*
%TD*%
D16*
%TO.P,D4,1,+*%
%TO.N,/PoDL Device Handling/PoDL+*%
X130750000Y-85200000D03*
%TO.P,D4,2,\u223F*%
%TO.N,Net-(D4-\u223F-Pad2)*%
X130750000Y-79300000D03*
%TO.P,D4,3,\u223F*%
%TO.N,Net-(D4-\u223F-Pad3)*%
X133250000Y-79300000D03*
%TO.P,D4,4,-*%
%TO.N,GND*%
X133250000Y-85200000D03*
%TD*%
D17*
%TO.P,R18,1*%
%TO.N,/Ethernet MAC+PHY/DATA-*%
X111975000Y-61305000D03*
%TO.P,R18,2*%
%TO.N,Net-(U4-RXN)*%
X111975000Y-62195000D03*
%TD*%
D18*
%TO.P,C7,1*%
%TO.N,Net-(U4-CEXT_3)*%
X106655000Y-65500000D03*
%TO.P,C7,2*%
%TO.N,GND*%
X105845000Y-65500000D03*
%TD*%
D10*
%TO.P,R8,1*%
%TO.N,Net-(U3-REF)*%
X119250000Y-83725000D03*
%TO.P,R8,2*%
%TO.N,Net-(Q1-D)*%
X119250000Y-85275000D03*
%TD*%
D19*
%TO.P,L2,1*%
%TO.N,Net-(D4-\u223F-Pad3)*%
X131750000Y-74750000D03*
%TO.P,L2,2*%
%TO.N,Net-(L1-Pad6)*%
X131750000Y-66750000D03*
%TO.P,L2,3*%
%TO.N,Net-(L1-Pad7)*%
X126750000Y-66750000D03*
%TO.P,L2,4*%
%TO.N,Net-(D4-\u223F-Pad2)*%
X126750000Y-74750000D03*
%TD*%
D15*
%TO.P,R14,1*%
%TO.N,+3.3V*%
X103305000Y-73250000D03*
%TO.P,R14,2*%
%TO.N,/Ethernet MAC+PHY/~{INT}*%
X104195000Y-73250000D03*
%TD*%
D20*
%TO.P,U5,1,VCC*%
%TO.N,+3.3V*%
X115525000Y-95505000D03*
%TO.P,U5,2,EN*%
X116175000Y-95505000D03*
%TO.P,U5,3,REF*%
%TO.N,GND*%
X116825000Y-95505000D03*
%TO.P,U5,4,GND*%
X117475000Y-95505000D03*
%TO.P,U5,5,Vout*%
%TO.N,/MicroMod Function Board/ANALOG*%
X117475000Y-92995000D03*
%TO.P,U5,6,NC*%
%TO.N,unconnected-(U5-NC-Pad6)*%
X116825000Y-92995000D03*
%TO.P,U5,7,S+*%
%TO.N,Net-(U5-S+)*%
X116175000Y-92995000D03*
%TO.P,U5,8,S-*%
%TO.N,Net-(U5-S-)*%
X115525000Y-92995000D03*
%TD*%
D18*
%TO.P,C6,1*%
%TO.N,Net-(U4-CEXT_2)*%
X106655000Y-64250000D03*
%TO.P,C6,2*%
%TO.N,GND*%
X105845000Y-64250000D03*
%TD*%
D21*
%TO.P,U4,1,SDI*%
%TO.N,/Ethernet MAC+PHY/COPI*%
X112937500Y-74250000D03*
%TO.P,U4,2,SDO/SPI_CFG0*%
%TO.N,/Ethernet MAC+PHY/CIPO*%
X112937500Y-73750000D03*
%TO.P,U4,3,LED_0*%
%TO.N,Net-(U4-LED_0)*%
X112937500Y-73250000D03*
%TO.P,U4,4,LINK_ST*%
%TO.N,Net-(U4-LINK_ST)*%
X112937500Y-72750000D03*
%TO.P,U4,5,~{RESET}*%
%TO.N,/Ethernet MAC+PHY/~{RESET}*%
X112937500Y-72250000D03*
%TO.P,U4,6,LED_1*%
%TO.N,Net-(U4-LED_1)*%
X112937500Y-71750000D03*
%TO.P,U4,7,CLK25_REF*%
%TO.N,unconnected-(U4-CLK25_REF-Pad7)*%
X112937500Y-71250000D03*
%TO.P,U4,8,XTAL_I/CLK_IN*%
%TO.N,Net-(U4-XTAL_I{slash}CLK_IN)*%
X112937500Y-70750000D03*
%TO.P,U4,9,XTAL_O*%
%TO.N,Net-(U4-XTAL_O)*%
X112937500Y-70250000D03*
%TO.P,U4,10,NC*%
%TO.N,unconnected-(U4-NC-Pad10)*%
X112937500Y-69750000D03*
D22*
%TO.P,U4,11,NC*%
%TO.N,unconnected-(U4-NC-Pad11)*%
X112250000Y-69062500D03*
%TO.P,U4,12,TXN*%
%TO.N,Net-(U4-TXN)*%
X111750000Y-69062500D03*
%TO.P,U4,13,RXN*%
%TO.N,Net-(U4-RXN)*%
X111250000Y-69062500D03*
%TO.P,U4,14,RXP*%
%TO.N,Net-(U4-RXP)*%
X110750000Y-69062500D03*
%TO.P,U4,15,TXP*%
%TO.N,Net-(U4-TXP)*%
X110250000Y-69062500D03*
%TO.P,U4,16,AVDD_H*%
%TO.N,+3.3V*%
X109750000Y-69062500D03*
%TO.P,U4,17,AVDD_H*%
X109250000Y-69062500D03*
%TO.P,U4,18,NC*%
%TO.N,unconnected-(U4-NC-Pad18)*%
X108750000Y-69062500D03*
%TO.P,U4,19,CEXT_2*%
%TO.N,Net-(U4-CEXT_2)*%
X108250000Y-69062500D03*
%TO.P,U4,20,CEXT_3*%
%TO.N,Net-(U4-CEXT_3)*%
X107750000Y-69062500D03*
D21*
%TO.P,U4,21,NC*%
%TO.N,unconnected-(U4-NC-Pad21)*%
X107062500Y-69750000D03*
%TO.P,U4,22,AVDD_L*%
%TO.N,+3.3V*%
X107062500Y-70250000D03*
%TO.P,U4,23,DLDO_1P1*%
%TO.N,Net-(U4-DLDO_1P1)*%
X107062500Y-70750000D03*
%TO.P,U4,24,DVDD_1P1*%
X107062500Y-71250000D03*
%TO.P,U4,25,~{INT}*%
%TO.N,/Ethernet MAC+PHY/~{INT}*%
X107062500Y-71750000D03*
%TO.P,U4,26,TEST1*%
%TO.N,Net-(U4-TEST1)*%
X107062500Y-72250000D03*
%TO.P,U4,27,TEST2*%
%TO.N,unconnected-(U4-TEST2-Pad27)*%
X107062500Y-72750000D03*
%TO.P,U4,28,NC*%
%TO.N,unconnected-(U4-NC-Pad28)*%
X107062500Y-73250000D03*
%TO.P,U4,29,~{CS}*%
%TO.N,/Ethernet MAC+PHY/~{CS}*%
X107062500Y-73750000D03*
%TO.P,U4,30,TS_TIMER/MS_SEL*%
%TO.N,Net-(U4-TS_TIMER{slash}MS_SEL)*%
X107062500Y-74250000D03*
D22*
%TO.P,U4,31,~{TX2P4_EN}*%
%TO.N,Net-(U4-~{TX2P4_EN})*%
X107750000Y-74937500D03*
%TO.P,U4,32,NC*%
%TO.N,unconnected-(U4-NC-Pad32)*%
X108250000Y-74937500D03*
%TO.P,U4,33,~{SWPD_EN}*%
%TO.N,Net-(U4-~{SWPD_EN})*%
X108750000Y-74937500D03*
%TO.P,U4,34,NC*%
%TO.N,unconnected-(U4-NC-Pad34)*%
X109250000Y-74937500D03*
%TO.P,U4,35,VDDIO*%
%TO.N,+3.3V*%
X109750000Y-74937500D03*
%TO.P,U4,36,NC*%
%TO.N,unconnected-(U4-NC-Pad36)*%
X110250000Y-74937500D03*
%TO.P,U4,37,SPI_CFG1*%
%TO.N,Net-(U4-SPI_CFG1)*%
X110750000Y-74937500D03*
%TO.P,U4,38,SCLK*%
%TO.N,/Ethernet MAC+PHY/CLK*%
X111250000Y-74937500D03*
%TO.P,U4,39,NC*%
%TO.N,unconnected-(U4-NC-Pad39)*%
X111750000Y-74937500D03*
%TO.P,U4,40,TS_CAPT*%
%TO.N,unconnected-(U4-TS_CAPT-Pad40)*%
X112250000Y-74937500D03*
D23*
%TO.P,U4,41,EP(GND)*%
%TO.N,GND*%
X111025000Y-73025000D03*
X111000000Y-72000000D03*
X111000000Y-71000000D03*
X110000000Y-73025000D03*
X110000000Y-72000000D03*
D24*
X110000000Y-72000000D03*
D23*
X110000000Y-71000000D03*
X109000000Y-73025000D03*
X109000000Y-72000000D03*
X109000000Y-71000000D03*
%TD*%
D18*
%TO.P,C16,1*%
%TO.N,+3.3V*%
X104155000Y-69000000D03*
%TO.P,C16,2*%
%TO.N,GND*%
X103345000Y-69000000D03*
%TD*%
D25*
%TO.P,IC1,1,A0*%
%TO.N,Net-(IC1-A0)*%
X110345000Y-97405000D03*
%TO.P,IC1,2,A1*%
%TO.N,Net-(IC1-A1)*%
X110345000Y-96135000D03*
%TO.P,IC1,3,A2*%
%TO.N,Net-(IC1-A2)*%
X110345000Y-94865000D03*
%TO.P,IC1,4,GND*%
%TO.N,GND*%
X110345000Y-93595000D03*
%TO.P,IC1,5,SDA*%
%TO.N,/MicroMod Function Board/SDA*%
X104655000Y-93595000D03*
%TO.P,IC1,6,SCL*%
%TO.N,/MicroMod Function Board/SCL*%
X104655000Y-94865000D03*
%TO.P,IC1,7,WP*%
%TO.N,Net-(IC1-WP)*%
X104655000Y-96135000D03*
%TO.P,IC1,8,VCC*%
%TO.N,+3.3V*%
X104655000Y-97405000D03*
%TD*%
D26*
%TO.P,R23,1*%
%TO.N,Net-(U4-TXN)*%
X112275000Y-65750000D03*
%TO.P,R23,2*%
%TO.N,Net-(U4-RXP)*%
X110725000Y-65750000D03*
%TD*%
D27*
%TO.P,C24,1*%
%TO.N,Net-(C24-Pad1)*%
X122025000Y-60750000D03*
%TO.P,C24,2*%
%TO.N,/Ethernet MAC+PHY/DATA+*%
X120475000Y-60750000D03*
%TD*%
D13*
%TO.P,R3,1*%
%TO.N,Net-(U2-REF)*%
X113195000Y-82500000D03*
%TO.P,R3,2*%
%TO.N,Net-(U2-+)*%
X112305000Y-82500000D03*
%TD*%
D17*
%TO.P,R2,1*%
%TO.N,Net-(U2--)*%
X120250000Y-80805000D03*
%TO.P,R2,2*%
%TO.N,GND*%
X120250000Y-81695000D03*
%TD*%
D18*
%TO.P,C12,1*%
%TO.N,+3.3V*%
X106655000Y-61750000D03*
%TO.P,C12,2*%
%TO.N,GND*%
X105845000Y-61750000D03*
%TD*%
D28*
%TO.P,C11,1*%
%TO.N,Net-(U4-XTAL_O)*%
X116725000Y-67000000D03*
%TO.P,C11,2*%
%TO.N,GND*%
X118275000Y-67000000D03*
%TD*%
D29*
%TO.P,U2,1*%
%TO.N,Net-(R4-Pad2)*%
X114975000Y-79050000D03*
%TO.P,U2,2,V-*%
%TO.N,GND*%
X114975000Y-80000000D03*
%TO.P,U2,3,+*%
%TO.N,Net-(U2-+)*%
X114975000Y-80950000D03*
%TO.P,U2,4,-*%
%TO.N,Net-(U2--)*%
X117025000Y-80950000D03*
%TO.P,U2,5,REF*%
%TO.N,Net-(U2-REF)*%
X117025000Y-80000000D03*
%TO.P,U2,6,V+*%
%TO.N,Net-(U1-VOUT)*%
X117025000Y-79050000D03*
%TD*%
D13*
%TO.P,R34,1*%
%TO.N,Net-(U8-ILIM)*%
X125945000Y-90750000D03*
%TO.P,R34,2*%
%TO.N,Net-(U8-EP)*%
X125055000Y-90750000D03*
%TD*%
D30*
%TO.P,R7,1*%
%TO.N,Net-(U3-C)*%
X121250000Y-85275000D03*
%TO.P,R7,2*%
%TO.N,Net-(U3-REF)*%
X121250000Y-83725000D03*
%TD*%
D31*
%TO.P,C1,1*%
%TO.N,/PoDL Device Handling/PoDL+*%
X127750000Y-80775000D03*
%TO.P,C1,2*%
%TO.N,GND*%
X127750000Y-79225000D03*
%TD*%
D32*
%TO.P,U6,1,VIN*%
%TO.N,+POWER*%
X102050000Y-82500000D03*
%TO.P,U6,2,GND*%
%TO.N,GND*%
X103000000Y-82500000D03*
%TO.P,U6,3,EN*%
%TO.N,Net-(U6-EN)*%
X103950000Y-82500000D03*
%TO.P,U6,4,NC*%
%TO.N,unconnected-(U6-NC-Pad4)*%
X103950000Y-80000000D03*
%TO.P,U6,5,VOUT*%
%TO.N,+3.3V*%
X102050000Y-80000000D03*
%TD*%
D15*
%TO.P,R12,1*%
%TO.N,+3.3V*%
X101555000Y-96000000D03*
%TO.P,R12,2*%
%TO.N,Net-(IC1-WP)*%
X102445000Y-96000000D03*
%TD*%
D33*
%TO.P,U7,1,PGOOD*%
%TO.N,unconnected-(U7-PGOOD-Pad1)*%
X130960000Y-94112500D03*
D34*
%TO.P,U7,2,EN*%
%TO.N,Net-(U7-EN)*%
X130150000Y-94100000D03*
%TO.P,U7,3,VIN*%
X129650000Y-94100000D03*
D35*
%TO.P,U7,4,VOUT*%
%TO.N,Net-(U5-S+)*%
X128000000Y-94500000D03*
D36*
%TO.P,U7,5,SW*%
%TO.N,unconnected-(U7-SW-Pad5)*%
X128000000Y-96500000D03*
D34*
%TO.P,U7,6,SW*%
%TO.N,unconnected-(U7-SW-Pad6)*%
X129650000Y-96900000D03*
%TO.P,U7,7,BOOT*%
%TO.N,unconnected-(U7-BOOT-Pad7)*%
X130150000Y-96900000D03*
D33*
%TO.P,U7,8,VCC*%
%TO.N,Net-(U7-VCC)*%
X130960000Y-96887500D03*
D37*
%TO.P,U7,9,FB*%
%TO.N,Net-(U7-FB)*%
X131059998Y-95999999D03*
D38*
%TO.P,U7,10,GND*%
%TO.N,GND*%
X130690000Y-95500000D03*
D37*
%TO.P,U7,11,RT*%
%TO.N,Net-(U7-RT)*%
X131059998Y-95000001D03*
%TD*%
D39*
%TO.P,C14,1*%
%TO.N,+3.3V*%
X109750000Y-77345000D03*
%TO.P,C14,2*%
%TO.N,GND*%
X109750000Y-78155000D03*
%TD*%
D40*
%TO.P,J1,1,Pin_1*%
%TO.N,Earth*%
X121540000Y-51580000D03*
X121540000Y-46500000D03*
D41*
%TO.P,J1,2,Pin_2*%
%TO.N,Net-(J1-Pin_2)*%
X119000000Y-51580000D03*
X119000000Y-46500000D03*
%TO.P,J1,3,Pin_3*%
%TO.N,Net-(J1-Pin_3)*%
X116460000Y-51580000D03*
X116460000Y-46500000D03*
%TD*%
D42*
%TO.P,C4,1*%
%TO.N,Net-(U7-EN)*%
X133845000Y-91750000D03*
%TO.P,C4,2*%
%TO.N,GND*%
X134655000Y-91750000D03*
%TD*%
D18*
%TO.P,C13,1*%
%TO.N,+3.3V*%
X106655000Y-63000000D03*
%TO.P,C13,2*%
%TO.N,GND*%
X105845000Y-63000000D03*
%TD*%
D43*
%TO.P,R27,1*%
%TO.N,Net-(U5-S+)*%
X118505000Y-89750000D03*
%TO.P,R27,2*%
%TO.N,Net-(U5-S-)*%
X115495000Y-89750000D03*
%TD*%
D44*
%TO.P,C18,1*%
%TO.N,+POWER*%
X102125000Y-84750000D03*
%TO.P,C18,2*%
%TO.N,GND*%
X103875000Y-84750000D03*
%TD*%
D13*
%TO.P,R4,1*%
%TO.N,Net-(U2-+)*%
X113195000Y-81000000D03*
%TO.P,R4,2*%
%TO.N,Net-(R4-Pad2)*%
X112305000Y-81000000D03*
%TD*%
D39*
%TO.P,C15,1*%
%TO.N,+3.3V*%
X108500000Y-77345000D03*
%TO.P,C15,2*%
%TO.N,GND*%
X108500000Y-78155000D03*
%TD*%
D45*
%TO.P,R13,1*%
%TO.N,+3.3V*%
X108700000Y-54400000D03*
%TO.P,R13,2*%
X107900000Y-54400000D03*
%TO.P,R13,3*%
X107100000Y-54400000D03*
%TO.P,R13,4*%
X106300000Y-54400000D03*
%TO.P,R13,5*%
%TO.N,Net-(R13-Pad5)*%
X106300000Y-56100000D03*
%TO.P,R13,6*%
%TO.N,Net-(R13-Pad6)*%
X107100000Y-56100000D03*
%TO.P,R13,7*%
%TO.N,Net-(R13-Pad7)*%
X107900000Y-56100000D03*
%TO.P,R13,8*%
%TO.N,Net-(R13-Pad8)*%
X108700000Y-56100000D03*
%TD*%
D26*
%TO.P,R20,1*%
%TO.N,Net-(U4-RXN)*%
X111525000Y-64000000D03*
%TO.P,R20,2*%
%TO.N,Net-(U4-TXP)*%
X109975000Y-64000000D03*
%TD*%
D46*
%TO.P,L1,1*%
%TO.N,Net-(C22-Pad1)*%
X127270000Y-60200000D03*
%TO.P,L1,2*%
%TO.N,Net-(C24-Pad1)*%
X127270000Y-59550000D03*
D47*
%TO.P,L1,3*%
%TO.N,Net-(C25-Pad2)*%
X126870000Y-57500000D03*
%TO.P,L1,4*%
%TO.N,Net-(C25-Pad1)*%
X127720000Y-57500000D03*
D46*
%TO.P,L1,5*%
%TO.N,Net-(C23-Pad1)*%
X131250000Y-60200000D03*
%TO.P,L1,6*%
%TO.N,Net-(L1-Pad6)*%
X131250000Y-58150000D03*
%TO.P,L1,7*%
%TO.N,Net-(L1-Pad7)*%
X131250000Y-57500000D03*
%TD*%
D48*
%TO.P,C29,1*%
%TO.N,Net-(C29-Pad1)*%
X119000000Y-58225000D03*
%TO.P,C29,2*%
%TO.N,Earth*%
X119000000Y-55275000D03*
%TD*%
D29*
%TO.P,D7,1,A1*%
%TO.N,/Ethernet MAC+PHY/DATA+*%
X116225000Y-60800000D03*
%TO.P,D7,2,C2*%
%TO.N,/Ethernet MAC+PHY/DATA-*%
X116225000Y-62700000D03*
%TO.P,D7,3*%
%TO.N,GND*%
X118275000Y-61750000D03*
%TD*%
D30*
%TO.P,R28,1*%
%TO.N,Net-(U5-S-)*%
X110000000Y-50775000D03*
%TO.P,R28,2*%
%TO.N,Net-(D5-PadA)*%
X110000000Y-49225000D03*
%TD*%
D42*
%TO.P,C32,1*%
%TO.N,Net-(U8-dVdT)*%
X122845000Y-90750000D03*
%TO.P,C32,2*%
%TO.N,Net-(U8-EP)*%
X123655000Y-90750000D03*
%TD*%
D10*
%TO.P,R29,1*%
%TO.N,Earth*%
X113750000Y-56725000D03*
%TO.P,R29,2*%
%TO.N,GND*%
X113750000Y-58275000D03*
%TD*%
D49*
%TO.P,X1,1,1*%
%TO.N,Net-(U4-XTAL_O)*%
X116640000Y-69090000D03*
%TO.P,X1,2,2*%
%TO.N,GND*%
X116640000Y-71410000D03*
%TO.P,X1,3,3*%
%TO.N,Net-(U4-XTAL_I{slash}CLK_IN)*%
X118360000Y-71410000D03*
%TO.P,X1,4,4*%
%TO.N,GND*%
X118360000Y-69090000D03*
%TD*%
D15*
%TO.P,R5,1*%
%TO.N,Net-(R4-Pad2)*%
X112305000Y-84000000D03*
%TO.P,R5,2*%
%TO.N,Net-(Q1-G)*%
X113195000Y-84000000D03*
%TD*%
D11*
%TO.P,U1,1,VIN*%
%TO.N,/PoDL Device Handling/PoDL+*%
X125525000Y-80950000D03*
%TO.P,U1,2,VOUT*%
%TO.N,Net-(U1-VOUT)*%
X125525000Y-79050000D03*
%TO.P,U1,3,GND*%
%TO.N,GND*%
X123475000Y-80000000D03*
%TD*%
D17*
%TO.P,R25,1*%
%TO.N,/Ethernet MAC+PHY/DATA+*%
X110750000Y-61305000D03*
%TO.P,R25,2*%
%TO.N,Net-(U4-RXP)*%
X110750000Y-62195000D03*
%TD*%
D18*
%TO.P,C17,1*%
%TO.N,+3.3V*%
X104155000Y-67750000D03*
%TO.P,C17,2*%
%TO.N,GND*%
X103345000Y-67750000D03*
%TD*%
D27*
%TO.P,C22,1*%
%TO.N,Net-(C22-Pad1)*%
X122025000Y-62750000D03*
%TO.P,C22,2*%
%TO.N,/Ethernet MAC+PHY/DATA-*%
X120475000Y-62750000D03*
%TD*%
D13*
%TO.P,R32,1*%
%TO.N,Net-(U8-OVP)*%
X125945000Y-89250000D03*
%TO.P,R32,2*%
%TO.N,Net-(U8-EP)*%
X125055000Y-89250000D03*
%TD*%
D42*
%TO.P,C27,1*%
%TO.N,Net-(U7-VCC)*%
X133845000Y-97750000D03*
%TO.P,C27,2*%
%TO.N,GND*%
X134655000Y-97750000D03*
%TD*%
D50*
%TO.P,D5,A,A*%
%TO.N,Net-(D5-PadA)*%
X110000000Y-42510000D03*
%TO.P,D5,C,C*%
%TO.N,GND*%
X110000000Y-40990000D03*
%TD*%
D10*
%TO.P,R15,1*%
%TO.N,+3.3V*%
X121300000Y-72725000D03*
%TO.P,R15,2*%
%TO.N,Net-(R15-Pad2)*%
X121300000Y-74275000D03*
%TD*%
D51*
%TO.P,D6,A,A*%
%TO.N,Net-(U5-S-)*%
X112640000Y-89000000D03*
%TO.P,D6,C,C*%
%TO.N,+POWER*%
X108360000Y-89000000D03*
%TD*%
D52*
%TO.P,X2,1,GND*%
%TO.N,GND*%
X128250000Y-102725000D03*
%TO.P,X2,3,SPI_SCK*%
%TO.N,/Ethernet MAC+PHY/CLK*%
X127750000Y-102725000D03*
%TO.P,X2,5,SPI_SDI*%
%TO.N,/Ethernet MAC+PHY/COPI*%
X127250000Y-102725000D03*
%TO.P,X2,7,SPI_SDO*%
%TO.N,/Ethernet MAC+PHY/CIPO*%
X126750000Y-102725000D03*
%TO.P,X2,9*%
%TO.N,N/C*%
X126250000Y-102725000D03*
%TO.P,X2,11*%
X125750000Y-102725000D03*
%TO.P,X2,13,FUNC_TX*%
%TO.N,unconnected-(X2-FUNC_TX-Pad13)*%
X125250000Y-102725000D03*
%TO.P,X2,15,FUNC_RX*%
%TO.N,unconnected-(X2-FUNC_RX-Pad15)*%
X124750000Y-102725000D03*
%TO.P,X2,17*%
%TO.N,N/C*%
X124250000Y-102725000D03*
%TO.P,X2,19,I2C_SDA*%
%TO.N,/MicroMod Function Board/SDA*%
X123750000Y-102725000D03*
%TO.P,X2,21,I2C_SCL*%
%TO.N,/MicroMod Function Board/SCL*%
X123250000Y-102725000D03*
%TO.P,X2,23,~{I2C_INT}*%
%TO.N,unconnected-(X2-~{I2C_INT}-Pad23)*%
X122750000Y-102725000D03*
%TO.P,X2,33,GND*%
%TO.N,GND*%
X120250000Y-102725000D03*
%TO.P,X2,35,USBHOST_D+*%
%TO.N,unconnected-(X2-USBHOST_D+-Pad35)*%
X119750000Y-102725000D03*
%TO.P,X2,37,USBHOST_D-*%
%TO.N,unconnected-(X2-USBHOST_D--Pad37)*%
X119250000Y-102725000D03*
%TO.P,X2,39,GND*%
%TO.N,GND*%
X118750000Y-102725000D03*
%TO.P,X2,41,CAN_TX*%
%TO.N,unconnected-(X2-CAN_TX-Pad41)*%
X118250000Y-102725000D03*
%TO.P,X2,43,CAN_RX*%
%TO.N,unconnected-(X2-CAN_RX-Pad43)*%
X117750000Y-102725000D03*
%TO.P,X2,45,GND*%
%TO.N,GND*%
X117250000Y-102725000D03*
%TO.P,X2,47,F0/~{INT}*%
%TO.N,/Ethernet MAC+PHY/~{INT}*%
X116750000Y-102725000D03*
%TO.P,X2,49,F1/~{CS}*%
%TO.N,/Ethernet MAC+PHY/~{CS}*%
X116250000Y-102725000D03*
%TO.P,X2,51,F2/PWM*%
%TO.N,unconnected-(X2-F2{slash}PWM-Pad51)*%
X115750000Y-102725000D03*
%TO.P,X2,53,F3*%
%TO.N,unconnected-(X2-F3-Pad53)*%
X115250000Y-102725000D03*
%TO.P,X2,55,F4*%
%TO.N,unconnected-(X2-F4-Pad55)*%
X114750000Y-102725000D03*
%TO.P,X2,57,F5*%
%TO.N,/Ethernet MAC+PHY/~{RESET}*%
X114250000Y-102725000D03*
%TO.P,X2,59,F6*%
%TO.N,unconnected-(X2-F6-Pad59)*%
X113750000Y-102725000D03*
%TO.P,X2,61,F7*%
%TO.N,unconnected-(X2-F7-Pad61)*%
X113250000Y-102725000D03*
%TO.P,X2,63*%
%TO.N,N/C*%
X112750000Y-102725000D03*
%TO.P,X2,65*%
X112250000Y-102725000D03*
%TO.P,X2,67*%
X111750000Y-102725000D03*
%TO.P,X2,69*%
X111250000Y-102725000D03*
%TO.P,X2,71,PWR_EN*%
%TO.N,unconnected-(X2-PWR_EN-Pad71)*%
X110750000Y-102725000D03*
%TO.P,X2,73,3V3*%
%TO.N,+3.3V_MCU*%
X110250000Y-102725000D03*
%TO.P,X2,75,GND*%
%TO.N,GND*%
X109750000Y-102725000D03*
D53*
%TO.P,X2,MNT*%
%TO.N,N/C*%
X101000000Y-57900000D03*
X101000000Y-62100000D03*
X102300000Y-60000000D03*
X135700000Y-60000000D03*
X137000000Y-57900000D03*
X137000000Y-62100000D03*
%TD*%
D54*
%TO.P,C31,1*%
%TO.N,Net-(U7-EN)*%
X134250000Y-90125000D03*
%TO.P,C31,2*%
%TO.N,GND*%
X134250000Y-88375000D03*
%TD*%
D28*
%TO.P,C23,1*%
%TO.N,Net-(C23-Pad1)*%
X132450000Y-62750000D03*
%TO.P,C23,2*%
%TO.N,GND*%
X134000000Y-62750000D03*
%TD*%
D55*
%TO.P,C2,1*%
%TO.N,Net-(U1-VOUT)*%
X121250000Y-76375000D03*
%TO.P,C2,2*%
%TO.N,GND*%
X121250000Y-78125000D03*
%TD*%
D54*
%TO.P,C25,1*%
%TO.N,Net-(C25-Pad1)*%
X123750000Y-58125000D03*
%TO.P,C25,2*%
%TO.N,Net-(C25-Pad2)*%
X123750000Y-56375000D03*
%TD*%
D50*
%TO.P,D2,A,A*%
%TO.N,Net-(D2-PadA)*%
X102500000Y-42510000D03*
%TO.P,D2,C,C*%
%TO.N,GND*%
X102500000Y-40990000D03*
%TD*%
%TO.P,D3,A,A*%
%TO.N,Net-(D3-PadA)*%
X105000000Y-42510000D03*
%TO.P,D3,C,C*%
%TO.N,GND*%
X105000000Y-40990000D03*
%TD*%
D56*
%TO.P,C30,1*%
%TO.N,Earth*%
X116250000Y-55275000D03*
%TO.P,C30,2*%
%TO.N,GND*%
X116250000Y-58225000D03*
%TD*%
D39*
%TO.P,C28,1*%
%TO.N,/MicroMod Function Board/ANALOG*%
X119250000Y-93845000D03*
%TO.P,C28,2*%
%TO.N,GND*%
X119250000Y-94655000D03*
%TD*%
D13*
%TO.P,R36,1*%
%TO.N,Net-(U8-ULVO)*%
X123695000Y-87750000D03*
%TO.P,R36,2*%
%TO.N,Net-(U8-OVP)*%
X122805000Y-87750000D03*
%TD*%
%TO.P,R35,1*%
%TO.N,/PoDL Device Handling/PoDL+*%
X125945000Y-87750000D03*
%TO.P,R35,2*%
%TO.N,Net-(U8-ULVO)*%
X125055000Y-87750000D03*
%TD*%
D15*
%TO.P,R10,1*%
%TO.N,+3.3V*%
X103305000Y-74500000D03*
%TO.P,R10,2*%
%TO.N,Net-(U4-TEST1)*%
X104195000Y-74500000D03*
%TD*%
D11*
%TO.P,U3,1,C*%
%TO.N,Net-(U3-C)*%
X125525000Y-85450000D03*
%TO.P,U3,2,REF*%
%TO.N,Net-(U3-REF)*%
X125525000Y-83550000D03*
%TO.P,U3,3,A*%
%TO.N,Net-(Q1-D)*%
X123475000Y-84500000D03*
%TD*%
D18*
%TO.P,C8,1*%
%TO.N,Net-(U4-DLDO_1P1)*%
X104155000Y-71500000D03*
%TO.P,C8,2*%
%TO.N,GND*%
X103345000Y-71500000D03*
%TD*%
D39*
%TO.P,C3,1*%
%TO.N,Net-(U2--)*%
X119000000Y-80845000D03*
%TO.P,C3,2*%
%TO.N,GND*%
X119000000Y-81655000D03*
%TD*%
D17*
%TO.P,R24,1*%
%TO.N,/Ethernet MAC+PHY/DATA+*%
X109500000Y-61305000D03*
%TO.P,R24,2*%
%TO.N,Net-(U4-TXP)*%
X109500000Y-62195000D03*
%TD*%
D57*
%TO.P,U8,1,IN*%
%TO.N,/PoDL Device Handling/PoDL+*%
X130750000Y-87850000D03*
%TO.P,U8,2,ULVO*%
%TO.N,Net-(U8-ULVO)*%
X130250000Y-87850000D03*
%TO.P,U8,3,OVP*%
%TO.N,Net-(U8-OVP)*%
X129750000Y-87850000D03*
%TO.P,U8,4,~{SHDN}*%
%TO.N,unconnected-(U8-~{SHDN}-Pad4)*%
X129250000Y-87850000D03*
%TO.P,U8,5,RTN*%
%TO.N,Net-(U8-EP)*%
X128750000Y-87850000D03*
%TO.P,U8,6,GND*%
%TO.N,GND*%
X128750000Y-90650000D03*
%TO.P,U8,7,ILIM*%
%TO.N,Net-(U8-ILIM)*%
X129250000Y-90650000D03*
%TO.P,U8,8,dVdT*%
%TO.N,Net-(U8-dVdT)*%
X129750000Y-90650000D03*
%TO.P,U8,9,~{FLT}*%
%TO.N,unconnected-(U8-~{FLT}-Pad9)*%
X130250000Y-90650000D03*
%TO.P,U8,10,OUT*%
%TO.N,Net-(U7-EN)*%
X130750000Y-90650000D03*
D58*
%TO.P,U8,11,EP*%
%TO.N,Net-(U8-EP)*%
X129750000Y-88675000D03*
X130700000Y-89250000D03*
D59*
X129750000Y-89250000D03*
D58*
X128800000Y-89250000D03*
X129750000Y-89825000D03*
%TD*%
D18*
%TO.P,C20,1*%
%TO.N,+3.3V*%
X102405000Y-97500000D03*
%TO.P,C20,2*%
%TO.N,GND*%
X101595000Y-97500000D03*
%TD*%
D60*
%TO.P,C19,1*%
%TO.N,+3.3V*%
X113750000Y-94655000D03*
%TO.P,C19,2*%
%TO.N,GND*%
X113750000Y-93845000D03*
%TD*%
D13*
%TO.P,R33,1*%
%TO.N,Net-(U5-S+)*%
X134695000Y-96250000D03*
%TO.P,R33,2*%
%TO.N,Net-(U7-FB)*%
X133805000Y-96250000D03*
%TD*%
D10*
%TO.P,R17,1*%
%TO.N,Net-(D2-PadA)*%
X102500000Y-49225000D03*
%TO.P,R17,2*%
%TO.N,Net-(U4-LED_1)*%
X102500000Y-50775000D03*
%TD*%
D50*
%TO.P,D1,A,A*%
%TO.N,Net-(D1-PadA)*%
X107500000Y-42510000D03*
%TO.P,D1,C,C*%
%TO.N,GND*%
X107500000Y-40990000D03*
%TD*%
D55*
%TO.P,C26,1*%
%TO.N,Net-(U5-S+)*%
X124250000Y-94625000D03*
%TO.P,C26,2*%
%TO.N,GND*%
X124250000Y-96375000D03*
%TD*%
D18*
%TO.P,C9,1*%
%TO.N,Net-(U4-DLDO_1P1)*%
X104155000Y-70250000D03*
%TO.P,C9,2*%
%TO.N,GND*%
X103345000Y-70250000D03*
%TD*%
D10*
%TO.P,R11,1*%
%TO.N,+POWER*%
X106000000Y-80475000D03*
%TO.P,R11,2*%
%TO.N,Net-(U6-EN)*%
X106000000Y-82025000D03*
%TD*%
D44*
%TO.P,C21,1*%
%TO.N,+3.3V*%
X102125000Y-77750000D03*
%TO.P,C21,2*%
%TO.N,GND*%
X103875000Y-77750000D03*
%TD*%
D10*
%TO.P,R9,1*%
%TO.N,/PoDL Device Handling/PoDL+*%
X127750000Y-83725000D03*
%TO.P,R9,2*%
%TO.N,Net-(U3-C)*%
X127750000Y-85275000D03*
%TD*%
D27*
%TO.P,C10,1*%
%TO.N,Net-(U4-XTAL_I{slash}CLK_IN)*%
X118275000Y-73500000D03*
%TO.P,C10,2*%
%TO.N,GND*%
X116725000Y-73500000D03*
%TD*%
D61*
%TO.P,R1,1*%
%TO.N,/PoDL Device Handling/PoDL+*%
X121500000Y-81695000D03*
%TO.P,R1,2*%
%TO.N,Net-(U2--)*%
X121500000Y-80805000D03*
%TD*%
D55*
%TO.P,C5,1*%
%TO.N,Net-(U5-S+)*%
X121750000Y-94625000D03*
%TO.P,C5,2*%
%TO.N,GND*%
X121750000Y-96375000D03*
%TD*%
D17*
%TO.P,R22,1*%
%TO.N,/Ethernet MAC+PHY/DATA-*%
X113250000Y-61305000D03*
%TO.P,R22,2*%
%TO.N,Net-(U4-TXN)*%
X113250000Y-62195000D03*
%TD*%
D15*
%TO.P,R31,1*%
%TO.N,Net-(U7-RT)*%
X133805000Y-93250000D03*
%TO.P,R31,2*%
%TO.N,GND*%
X134695000Y-93250000D03*
%TD*%
D62*
%TO.P,P2,1,P1*%
%TO.N,GND*%
X103000000Y-90525000D03*
D63*
%TO.P,P2,2,P2*%
%TO.N,+POWER*%
X103000000Y-87985000D03*
%TD*%
D64*
%TO.N,/PoDL Device Handling/PoDL+*%
X126250000Y-87000004D03*
X129250000Y-85250000D03*
%TO.N,GND*%
X122000000Y-100000000D03*
X121250000Y-79750000D03*
X102600002Y-71500000D03*
X129250000Y-99000000D03*
X119249994Y-95425000D03*
X104800000Y-66000000D03*
X135750000Y-91750000D03*
X133000000Y-94250000D03*
X105000000Y-77500000D03*
X127500000Y-91000000D03*
X104200000Y-64199998D03*
X108600000Y-93400000D03*
X129500000Y-95500000D03*
X104499999Y-76749999D03*
X105250000Y-84000000D03*
X102600000Y-70250000D03*
X104800000Y-64800000D03*
D65*
X135250000Y-62750000D03*
D64*
X101500000Y-98500000D03*
X122750000Y-97750000D03*
X105250000Y-84750000D03*
X135750000Y-94750000D03*
X116800000Y-100000000D03*
X135500000Y-85250000D03*
X124750000Y-98000000D03*
X135500000Y-86250000D03*
X105250000Y-85500000D03*
X112400000Y-91400000D03*
X104200000Y-57521987D03*
X108600000Y-99000000D03*
X119250000Y-67500000D03*
X102600000Y-67750000D03*
X112300000Y-86799996D03*
X108500000Y-78750000D03*
X112800000Y-80000000D03*
D65*
X116500000Y-59500000D03*
X111489999Y-40989999D03*
D64*
X133000000Y-95250000D03*
D65*
X119500000Y-61750000D03*
D64*
X119499996Y-82600000D03*
X116800000Y-75000000D03*
X135750000Y-97750000D03*
X135750000Y-93250000D03*
%TO.N,Net-(IC1-A0)*%
X119575000Y-99500000D03*
%TO.N,Net-(IC1-A1)*%
X120249986Y-99250000D03*
%TO.N,Net-(IC1-A2)*%
X121000000Y-99200000D03*
%TO.N,Net-(IC1-WP)*%
X118200000Y-100000000D03*
X107000000Y-96200000D03*
%TO.N,Net-(R13-Pad5)*%
X106000000Y-57600000D03*
%TO.N,Net-(R13-Pad6)*%
X106800000Y-58000000D03*
%TO.N,Net-(R13-Pad7)*%
X107600000Y-58400000D03*
%TO.N,Net-(R13-Pad8)*%
X108400000Y-58800004D03*
%TO.N,/Ethernet MAC+PHY/~{INT}*%
X104200000Y-72400000D03*
X115199996Y-100000000D03*
%TO.N,Net-(R15-Pad2)*%
X120300010Y-75200000D03*
%TO.N,Net-(U4-LED_0)*%
X115000000Y-73600000D03*
X106606589Y-51793412D03*
%TO.N,Net-(U4-LED_1)*%
X115000000Y-71400000D03*
X102499998Y-51899998D03*
%TO.N,Net-(U4-LINK_ST)*%
X105000000Y-52200000D03*
X115025000Y-72775000D03*
%TO.N,Net-(U4-SPI_CFG1)*%
X109500000Y-79700000D03*
%TO.N,/Ethernet MAC+PHY/CIPO*%
X125750000Y-99325000D03*
X117200000Y-76299999D03*
%TO.N,Net-(U4-TS_TIMER{slash}MS_SEL)*%
X102800004Y-75475000D03*
%TO.N,Net-(U4-~{SWPD_EN})*%
X107193410Y-78593410D03*
%TO.N,Net-(U4-~{TX2P4_EN})*%
X106500000Y-78200000D03*
%TO.N,/Ethernet MAC+PHY/COPI*%
X116599994Y-77000000D03*
X123750000Y-98750000D03*
%TO.N,/Ethernet MAC+PHY/~{RESET}*%
X113599997Y-100000003D03*
X113570753Y-87252643D03*
X118199998Y-87122865D03*
X118008909Y-76268909D03*
%TO.N,/Ethernet MAC+PHY/~{CS}*%
X114393411Y-100006589D03*
X105406587Y-74406587D03*
%TO.N,/Ethernet MAC+PHY/CLK*%
X119000000Y-87400000D03*
X127250000Y-98500000D03*
X113600000Y-86499997D03*
X112400000Y-77600000D03*
%TO.N,Net-(U5-S+)*%
X126000000Y-94600000D03*
X135750000Y-96250000D03*
%TO.N,/MicroMod Function Board/ANALOG*%
X118500000Y-96200000D03*
%TO.N,Net-(U5-S-)*%
X110000000Y-81300000D03*
X101000000Y-56000000D03*
%TD*%
D66*
%TO.N,/PoDL Device Handling/PoDL+*%
X130750000Y-83000000D02*
X130750000Y-85200000D01*
X130750000Y-87850000D02*
X130750000Y-85200000D01*
D67*
X125945000Y-87305004D02*
X126250000Y-87000004D01*
X125945000Y-87750000D02*
X125945000Y-87305004D01*
D68*
X126975000Y-80775000D02*
X127750000Y-80775000D01*
X127775000Y-80775000D02*
X128750000Y-81750000D01*
X130750000Y-85200000D02*
X130200000Y-85200000D01*
D66*
X122055000Y-82250000D02*
X130000000Y-82250000D01*
D68*
X128750000Y-81750000D02*
X129500000Y-81750000D01*
X127750000Y-80775000D02*
X127775000Y-80775000D01*
X128725000Y-83725000D02*
X127750000Y-83725000D01*
X126800000Y-80950000D02*
X126975000Y-80775000D01*
X129500000Y-81750000D02*
X130000000Y-82250000D01*
D66*
X121500000Y-81695000D02*
X122055000Y-82250000D01*
D68*
X130200000Y-85200000D02*
X128725000Y-83725000D01*
D66*
X130000000Y-82250000D02*
X130750000Y-83000000D01*
D68*
X125525000Y-80950000D02*
X126800000Y-80950000D01*
D66*
%TO.N,GND*%
X108500000Y-78155000D02*
X108500000Y-78750000D01*
X134695000Y-93250000D02*
X135750000Y-93250000D01*
X116725000Y-73500000D02*
X116725000Y-74925000D01*
X103345000Y-67750000D02*
X102600000Y-67750000D01*
X119000000Y-82600000D02*
X119499996Y-82600000D01*
X119040000Y-81695000D02*
X119000000Y-81655000D01*
X116825000Y-95505000D02*
X116825000Y-94325000D01*
X105300000Y-65500000D02*
X104800000Y-66000000D01*
X128750000Y-91250000D02*
X128500000Y-91500000D01*
X118360000Y-69090000D02*
X118360000Y-67085000D01*
X119250000Y-94655000D02*
X119250000Y-95424994D01*
D68*
X109750000Y-100150000D02*
X108600000Y-99000000D01*
D66*
X113750000Y-93845000D02*
X113750000Y-92750000D01*
X103000000Y-57521987D02*
X104200000Y-57521987D01*
X101595000Y-97500000D02*
X101595000Y-98405000D01*
D68*
X108795000Y-93595000D02*
X108600000Y-93400000D01*
D66*
X103345000Y-71500000D02*
X102600002Y-71500000D01*
X107500000Y-40990000D02*
X110000000Y-40990000D01*
X134655000Y-91750000D02*
X135750000Y-91750000D01*
X116250000Y-59250000D02*
X116500000Y-59500000D01*
X102050000Y-57050000D02*
X102521987Y-57521987D01*
X116640000Y-71410000D02*
X116640000Y-73415000D01*
D68*
X103875000Y-77750000D02*
X104125000Y-77500000D01*
D66*
X109750000Y-78155000D02*
X108500000Y-78155000D01*
X119250000Y-95424994D02*
X119249994Y-95425000D01*
D68*
X109750000Y-100200000D02*
X109750000Y-100150000D01*
D66*
X117450000Y-94250000D02*
X116750000Y-94250000D01*
X118275000Y-67000000D02*
X118750000Y-67000000D01*
X120250000Y-100750000D02*
X121000000Y-100000000D01*
X105845000Y-63000000D02*
X105200000Y-63000000D01*
X112305000Y-85500000D02*
X112305000Y-86794996D01*
X122250000Y-80000000D02*
X122000000Y-79750000D01*
D68*
X134000000Y-62750000D02*
X135250000Y-62750000D01*
D66*
X128250000Y-102725000D02*
X128250000Y-100000000D01*
X110000000Y-40990000D02*
X111489998Y-40990000D01*
X118360000Y-67085000D02*
X118275000Y-67000000D01*
D68*
X103875000Y-84750000D02*
X105250000Y-84750000D01*
D66*
X132750000Y-95500000D02*
X133000000Y-95250000D01*
X102850000Y-56100000D02*
X102850000Y-57371987D01*
D68*
X103875000Y-84625000D02*
X103000000Y-83750000D01*
D66*
X116750000Y-94250000D02*
X114750000Y-94250000D01*
D68*
X103875000Y-84750000D02*
X103875000Y-84625000D01*
D66*
X118025000Y-94275000D02*
X118405000Y-94655000D01*
X116725000Y-74925000D02*
X116800000Y-75000000D01*
D68*
X121250000Y-78125000D02*
X121250000Y-79750000D01*
D66*
X103700000Y-57521987D02*
X104200000Y-57521987D01*
X105845000Y-63000000D02*
X105845000Y-61750000D01*
X116640000Y-73415000D02*
X116725000Y-73500000D01*
X107500000Y-40990000D02*
X105000000Y-40990000D01*
X130690000Y-95500000D02*
X132750000Y-95500000D01*
X118750000Y-67000000D02*
X119250000Y-67500000D01*
X102500000Y-40990000D02*
X105000000Y-40990000D01*
X113800000Y-58225000D02*
X113750000Y-58275000D01*
X112305000Y-86794996D02*
X112300000Y-86799996D01*
X114345000Y-93845000D02*
X113750000Y-93845000D01*
X117200000Y-100000000D02*
X116800000Y-100000000D01*
X134655000Y-97750000D02*
X135750000Y-97750000D01*
X128250000Y-100000000D02*
X129250000Y-99000000D01*
D68*
X118275000Y-61750000D02*
X119500000Y-61750000D01*
D66*
X114750000Y-94250000D02*
X114345000Y-93845000D01*
X117250000Y-100450000D02*
X116800000Y-100000000D01*
X126250000Y-80000000D02*
X123475000Y-80000000D01*
X102050000Y-56100000D02*
X102050000Y-57050000D01*
X111489998Y-40990000D02*
X111489999Y-40989999D01*
X119750000Y-81695000D02*
X119750000Y-82349996D01*
X103345000Y-70250000D02*
X102600000Y-70250000D01*
X103650000Y-57471987D02*
X103700000Y-57521987D01*
X105200000Y-63000000D02*
X104200000Y-64000000D01*
X117475000Y-94275000D02*
X117450000Y-94250000D01*
X134695000Y-94750000D02*
X135750000Y-94750000D01*
X118405000Y-94655000D02*
X119250000Y-94655000D01*
X127025000Y-79225000D02*
X126250000Y-80000000D01*
X103345000Y-69000000D02*
X103345000Y-67750000D01*
X105845000Y-64250000D02*
X105350000Y-64250000D01*
X118750000Y-101550000D02*
X117200000Y-100000000D01*
X119750000Y-82349996D02*
X119499996Y-82600000D01*
X128750000Y-90650000D02*
X128750000Y-91250000D01*
X118050000Y-83550000D02*
X119000000Y-82600000D01*
X114975000Y-80000000D02*
X112800000Y-80000000D01*
X102521987Y-57521987D02*
X104200000Y-57521987D01*
X103650000Y-56100000D02*
X103650000Y-57471987D01*
X118750000Y-102725000D02*
X118750000Y-101550000D01*
X116250000Y-58225000D02*
X116250000Y-59250000D01*
X116250000Y-58225000D02*
X113800000Y-58225000D01*
X117025000Y-83550000D02*
X118050000Y-83550000D01*
X119750000Y-81695000D02*
X119040000Y-81695000D01*
X128000000Y-91500000D02*
X127500000Y-91000000D01*
D68*
X104125000Y-77500000D02*
X105000000Y-77500000D01*
X110345000Y-93595000D02*
X108795000Y-93595000D01*
D66*
X121000000Y-100000000D02*
X122000000Y-100000000D01*
X123475000Y-80000000D02*
X122250000Y-80000000D01*
X117475000Y-94275000D02*
X118025000Y-94275000D01*
X117250000Y-102725000D02*
X117250000Y-100450000D01*
X104200000Y-64000000D02*
X104200000Y-64199998D01*
X102850000Y-57371987D02*
X103000000Y-57521987D01*
D68*
X103000000Y-83750000D02*
X103000000Y-82500000D01*
D66*
X117475000Y-95505000D02*
X117475000Y-94275000D01*
X128500000Y-91500000D02*
X128000000Y-91500000D01*
X105350000Y-64250000D02*
X104800000Y-64800000D01*
X113750000Y-92750000D02*
X112400000Y-91400000D01*
X122000000Y-79750000D02*
X121250000Y-79750000D01*
X120250000Y-81695000D02*
X119750000Y-81695000D01*
X130690000Y-95500000D02*
X129500000Y-95500000D01*
X105845000Y-65500000D02*
X105300000Y-65500000D01*
X116825000Y-94325000D02*
X116750000Y-94250000D01*
X120250000Y-102725000D02*
X120250000Y-100750000D01*
X127750000Y-79225000D02*
X127025000Y-79225000D01*
X101595000Y-98405000D02*
X101500000Y-98500000D01*
D68*
X109750000Y-102725000D02*
X109750000Y-100200000D01*
D66*
%TO.N,Net-(U2--)*%
X119040000Y-80805000D02*
X119000000Y-80845000D01*
X118895000Y-80950000D02*
X119000000Y-80845000D01*
X121500000Y-80805000D02*
X120250000Y-80805000D01*
X117025000Y-80950000D02*
X118895000Y-80950000D01*
X120250000Y-80805000D02*
X119040000Y-80805000D01*
%TO.N,Net-(U4-CEXT_2)*%
X108250000Y-67750000D02*
X108000000Y-67500000D01*
X108000000Y-65000000D02*
X107250000Y-64250000D01*
X107250000Y-64250000D02*
X106655000Y-64250000D01*
X108250000Y-69062500D02*
X108250000Y-67750000D01*
X108000000Y-67500000D02*
X108000000Y-65000000D01*
%TO.N,Net-(U4-CEXT_3)*%
X107500000Y-67750000D02*
X107750000Y-68000000D01*
X107750000Y-68000000D02*
X107750000Y-69062500D01*
X106655000Y-65500000D02*
X107202500Y-65500000D01*
X107500000Y-65797500D02*
X107500000Y-67750000D01*
X107202500Y-65500000D02*
X107500000Y-65797500D01*
%TO.N,Net-(U4-DLDO_1P1)*%
X107062500Y-70750000D02*
X105250000Y-70750000D01*
X105250000Y-70750000D02*
X104750000Y-70250000D01*
X107062500Y-71250000D02*
X105250000Y-71250000D01*
X104155000Y-71500000D02*
X104155000Y-70250000D01*
X104750000Y-70250000D02*
X104155000Y-70250000D01*
X105250000Y-71250000D02*
X105000000Y-71500000D01*
X105000000Y-71500000D02*
X104155000Y-71500000D01*
%TO.N,Net-(U4-XTAL_I{slash}CLK_IN)*%
X112937500Y-70750000D02*
X114250000Y-70750000D01*
X114250000Y-70750000D02*
X114750000Y-70250000D01*
X118275000Y-71495000D02*
X118360000Y-71410000D01*
X114750000Y-70250000D02*
X117200000Y-70250000D01*
X118275000Y-73500000D02*
X118275000Y-71495000D01*
X117200000Y-70250000D02*
X118360000Y-71410000D01*
%TO.N,Net-(U4-XTAL_O)*%
X112937500Y-70250000D02*
X113950000Y-70250000D01*
X113950000Y-70250000D02*
X115110000Y-69090000D01*
X116725000Y-69005000D02*
X116640000Y-69090000D01*
X116725000Y-67000000D02*
X116725000Y-69005000D01*
X115110000Y-69090000D02*
X116640000Y-69090000D01*
%TO.N,+3.3V*%
X106300000Y-53200000D02*
X106500000Y-53000000D01*
X112800000Y-93000000D02*
X111600000Y-91800000D01*
X107998392Y-77345000D02*
X107775000Y-77568392D01*
X105400000Y-60800000D02*
X105000000Y-60800000D01*
X108500000Y-67000000D02*
X108500000Y-64000000D01*
X109750000Y-67625000D02*
X109000000Y-66875000D01*
X104850000Y-76100000D02*
X102400000Y-76100000D01*
X107062500Y-70250000D02*
X106250000Y-70250000D01*
X107500000Y-63000000D02*
X106655000Y-63000000D01*
X106500000Y-53000000D02*
X105400000Y-54100000D01*
X108700000Y-53100000D02*
X108600000Y-53000000D01*
X104000000Y-60800000D02*
X104000000Y-62400000D01*
X119600000Y-74425000D02*
X121300000Y-72725000D01*
X105750000Y-77000000D02*
X104850000Y-76100000D01*
X106400000Y-60800000D02*
X105400000Y-60800000D01*
X105400000Y-54100000D02*
X105400000Y-59400000D01*
X109000000Y-66875000D02*
X109000000Y-63500000D01*
X115525000Y-95505000D02*
X115525000Y-96475000D01*
X104800000Y-92600000D02*
X101800000Y-92600000D01*
X109250000Y-67750000D02*
X108500000Y-67000000D01*
X102500000Y-97405000D02*
X102405000Y-97500000D01*
X106655000Y-61055000D02*
X106400000Y-60800000D01*
X104155000Y-66755000D02*
X104000000Y-66600000D01*
X101555000Y-96049932D02*
X101555000Y-96000000D01*
X113255000Y-94655000D02*
X112800000Y-94200000D01*
X116175000Y-96325000D02*
X116175000Y-95505000D01*
X109750000Y-77345000D02*
X108500000Y-77345000D01*
X108500000Y-77345000D02*
X107998392Y-77345000D01*
X102405000Y-96899932D02*
X101555000Y-96049932D01*
X106655000Y-61750000D02*
X106655000Y-61055000D01*
X103305000Y-74500000D02*
X102000000Y-74500000D01*
X107100000Y-53100000D02*
X107000000Y-53000000D01*
X113400000Y-77800000D02*
X117731587Y-77800000D01*
X105000000Y-60800000D02*
X104600000Y-61200000D01*
X113750000Y-94655000D02*
X113255000Y-94655000D01*
X107250000Y-61750000D02*
X106655000Y-61750000D01*
X106250000Y-79250000D02*
X105750000Y-78750000D01*
X109000000Y-63500000D02*
X107250000Y-61750000D01*
X109250000Y-69062500D02*
X109250000Y-67750000D01*
X105000000Y-69000000D02*
X104155000Y-69000000D01*
X106300000Y-54400000D02*
X106300000Y-53200000D01*
X105400000Y-59400000D02*
X104000000Y-60800000D01*
X104155000Y-67750000D02*
X104155000Y-66755000D01*
X107800000Y-53000000D02*
X107000000Y-53000000D01*
X108700000Y-54400000D02*
X108700000Y-53100000D01*
X113750000Y-94655000D02*
X113750000Y-95000000D01*
X106655000Y-63000000D02*
X106655000Y-61750000D01*
X108500000Y-80400000D02*
X110800000Y-80400000D01*
X110800000Y-80400000D02*
X113400000Y-77800000D01*
X104600000Y-61200000D02*
X104600000Y-62400000D01*
X115500000Y-96500000D02*
X116000000Y-96500000D01*
X107350000Y-79250000D02*
X108500000Y-80400000D01*
X106250000Y-70250000D02*
X105000000Y-69000000D01*
X115525000Y-96475000D02*
X115500000Y-96500000D01*
X109750000Y-74937500D02*
X109750000Y-77345000D01*
X104155000Y-69000000D02*
X104155000Y-67750000D01*
X107900000Y-54400000D02*
X107900000Y-53100000D01*
D68*
X102050000Y-80000000D02*
X102050000Y-77825000D01*
D66*
X115250000Y-96500000D02*
X115500000Y-96500000D01*
X106500000Y-53000000D02*
X107000000Y-53000000D01*
X107900000Y-53100000D02*
X107800000Y-53000000D01*
X107100000Y-54400000D02*
X107100000Y-53100000D01*
X107775000Y-78825000D02*
X107350000Y-79250000D01*
X102405000Y-97500000D02*
X102405000Y-96899932D01*
X111600000Y-91800000D02*
X105600000Y-91800000D01*
X117731587Y-77800000D02*
X119600000Y-75931587D01*
X108600000Y-53000000D02*
X107800000Y-53000000D01*
X109750000Y-69062500D02*
X109750000Y-67625000D01*
X105600000Y-91800000D02*
X104800000Y-92600000D01*
X105750000Y-78750000D02*
X105750000Y-77000000D01*
D68*
X102050000Y-77825000D02*
X102125000Y-77750000D01*
D66*
X102400000Y-76100000D02*
X102250000Y-76250000D01*
X104655000Y-97405000D02*
X102500000Y-97405000D01*
X113750000Y-95000000D02*
X115250000Y-96500000D01*
X112800000Y-94200000D02*
X112800000Y-93000000D01*
X107775000Y-77568392D02*
X107775000Y-78825000D01*
X107350000Y-79250000D02*
X106250000Y-79250000D01*
X108500000Y-64000000D02*
X107500000Y-63000000D01*
X103305000Y-73250000D02*
X102250000Y-73250000D01*
X119600000Y-75931587D02*
X119600000Y-74425000D01*
X116000000Y-96500000D02*
X116175000Y-96325000D01*
D69*
%TO.N,+POWER*%
X102125000Y-84750000D02*
X102125000Y-85875000D01*
D66*
X106000000Y-80475000D02*
X105225000Y-81250000D01*
D70*
X103000000Y-87985000D02*
X105235000Y-87985000D01*
D66*
X105225000Y-81250000D02*
X102500000Y-81250000D01*
D69*
X103000000Y-86750000D02*
X103000000Y-87985000D01*
X102125000Y-85875000D02*
X103000000Y-86750000D01*
D68*
X102050000Y-82500000D02*
X102050000Y-84675000D01*
D66*
X102500000Y-81250000D02*
X102050000Y-81700000D01*
D70*
X106250000Y-89000000D02*
X108360000Y-89000000D01*
X105235000Y-87985000D02*
X106250000Y-89000000D01*
D68*
X102050000Y-84675000D02*
X102125000Y-84750000D01*
D66*
X102050000Y-81700000D02*
X102050000Y-82500000D01*
D68*
%TO.N,Net-(C22-Pad1)*%
X123500000Y-62750000D02*
X122025000Y-62750000D01*
X126050000Y-60200000D02*
X123500000Y-62750000D01*
X127270000Y-60200000D02*
X126050000Y-60200000D01*
D71*
%TO.N,/Ethernet MAC+PHY/DATA-*%
X114055000Y-61305000D02*
X115450000Y-62700000D01*
D68*
X120475000Y-62750000D02*
X116275000Y-62750000D01*
D71*
X111975000Y-61305000D02*
X113250000Y-61305000D01*
X113250000Y-61305000D02*
X114055000Y-61305000D01*
X115450000Y-62700000D02*
X116225000Y-62700000D01*
D68*
X116275000Y-62750000D02*
X116225000Y-62700000D01*
%TO.N,Net-(C23-Pad1)*%
X132500000Y-62700000D02*
X132450000Y-62750000D01*
X131250000Y-60200000D02*
X132200000Y-60200000D01*
X132500000Y-60500000D02*
X132500000Y-62700000D01*
X132200000Y-60200000D02*
X132500000Y-60500000D01*
%TO.N,Net-(C24-Pad1)*%
X125700000Y-59550000D02*
X124500000Y-60750000D01*
X124500000Y-60750000D02*
X122025000Y-60750000D01*
X127270000Y-59550000D02*
X125700000Y-59550000D01*
%TO.N,/Ethernet MAC+PHY/DATA+*%
X120475000Y-60750000D02*
X116275000Y-60750000D01*
D71*
X110750000Y-61305000D02*
X111305000Y-60750000D01*
X109500000Y-61305000D02*
X110750000Y-61305000D01*
X111305000Y-60750000D02*
X116175000Y-60750000D01*
D68*
X116275000Y-60750000D02*
X116225000Y-60800000D01*
D72*
X116175000Y-60750000D02*
X116225000Y-60800000D01*
D68*
%TO.N,Net-(C25-Pad1)*%
X124125000Y-58500000D02*
X123750000Y-58125000D01*
X127320000Y-58500000D02*
X124125000Y-58500000D01*
X127720000Y-57500000D02*
X127720000Y-58100000D01*
X127720000Y-58100000D02*
X127320000Y-58500000D01*
%TO.N,Net-(C25-Pad2)*%
X126870000Y-57500000D02*
X126000000Y-57500000D01*
X121600000Y-56375000D02*
X121250000Y-56725000D01*
X124875000Y-56375000D02*
X123750000Y-56375000D01*
X123750000Y-56375000D02*
X121600000Y-56375000D01*
X126000000Y-57500000D02*
X124875000Y-56375000D01*
D66*
%TO.N,Net-(D1-PadA)*%
X107500000Y-42510000D02*
X107500000Y-49225000D01*
%TO.N,Net-(D2-PadA)*%
X102500000Y-42510000D02*
X102500000Y-49225000D01*
%TO.N,Net-(D3-PadA)*%
X105000000Y-42510000D02*
X105000000Y-49225000D01*
D68*
%TO.N,Net-(C29-Pad1)*%
X119050000Y-58275000D02*
X119000000Y-58225000D01*
X121250000Y-58275000D02*
X119050000Y-58275000D01*
D73*
%TO.N,Net-(D4-\u223F-Pad2)*%
X130250000Y-77750000D02*
X129250000Y-77750000D01*
X130750000Y-78250000D02*
X130250000Y-77750000D01*
X129250000Y-77750000D02*
X126750000Y-75250000D01*
X126750000Y-75250000D02*
X126750000Y-74750000D01*
X130750000Y-79300000D02*
X130750000Y-78250000D01*
%TO.N,Net-(D4-\u223F-Pad3)*%
X133250000Y-79300000D02*
X133250000Y-78250000D01*
X133250000Y-78250000D02*
X131750000Y-76750000D01*
X131750000Y-76750000D02*
X131750000Y-74750000D01*
D66*
%TO.N,Net-(IC1-A0)*%
X118875000Y-98800000D02*
X119575000Y-99500000D01*
X112405000Y-97405000D02*
X113800000Y-98800000D01*
X113800000Y-98800000D02*
X118875000Y-98800000D01*
X110345000Y-97405000D02*
X112405000Y-97405000D01*
%TO.N,Net-(IC1-A1)*%
X110345000Y-96135000D02*
X111771396Y-96135000D01*
X111771396Y-96135000D02*
X113986396Y-98350000D01*
X113986396Y-98350000D02*
X119350000Y-98350000D01*
X120249986Y-99249986D02*
X120249986Y-99250000D01*
X119350000Y-98350000D02*
X120249986Y-99249986D01*
%TO.N,Net-(IC1-A2)*%
X119900000Y-97900000D02*
X121000000Y-99000000D01*
X111205000Y-94865000D02*
X114240000Y-97900000D01*
X121000000Y-99000000D02*
X121000000Y-99200000D01*
X114240000Y-97900000D02*
X119900000Y-97900000D01*
X110345000Y-94865000D02*
X111205000Y-94865000D01*
%TO.N,/MicroMod Function Board/SDA*%
X105970000Y-92600000D02*
X111400000Y-92600000D01*
X111400000Y-92600000D02*
X112000000Y-93200000D01*
X112000000Y-93200000D02*
X112000000Y-94250000D01*
X104655000Y-93595000D02*
X104975000Y-93595000D01*
X112000000Y-94250000D02*
X114750000Y-97000000D01*
X123750000Y-100131802D02*
X123750000Y-102725000D01*
X104975000Y-93595000D02*
X105970000Y-92600000D01*
X120618198Y-97000000D02*
X123750000Y-100131802D01*
X114750000Y-97000000D02*
X120618198Y-97000000D01*
%TO.N,/MicroMod Function Board/SCL*%
X104975000Y-94865000D02*
X105590000Y-94250000D01*
X114563604Y-97450000D02*
X120431802Y-97450000D01*
X111363604Y-94250000D02*
X114563604Y-97450000D01*
X120431802Y-97450000D02*
X123250000Y-100268198D01*
X123250000Y-100268198D02*
X123250000Y-102725000D01*
X104655000Y-94865000D02*
X104975000Y-94865000D01*
X105590000Y-94250000D02*
X111363604Y-94250000D01*
%TO.N,Net-(IC1-WP)*%
X104655000Y-96135000D02*
X102580000Y-96135000D01*
X104655000Y-96135000D02*
X106935000Y-96135000D01*
X111400000Y-99400000D02*
X117600000Y-99400000D01*
X110200000Y-99400000D02*
X107000000Y-96200000D01*
X111400000Y-99400000D02*
X110200000Y-99400000D01*
X117600000Y-99400000D02*
X118200000Y-100000000D01*
X102580000Y-96135000D02*
X102445000Y-96000000D01*
X106935000Y-96135000D02*
X107000000Y-96200000D01*
D69*
%TO.N,Net-(J1-Pin_2)*%
X119000000Y-51580000D02*
X119000000Y-46500000D01*
D73*
X129500000Y-41750000D02*
X120250000Y-41750000D01*
X129980000Y-43750000D02*
X129980000Y-42230000D01*
X120250000Y-41750000D02*
X119000000Y-43000000D01*
X119000000Y-43000000D02*
X119000000Y-46500000D01*
X129980000Y-42230000D02*
X129500000Y-41750000D01*
D66*
%TO.N,Net-(D5-PadA)*%
X110000000Y-42510000D02*
X110000000Y-49225000D01*
%TO.N,Net-(Q1-G)*%
X113195000Y-85500000D02*
X113195000Y-84000000D01*
X116975000Y-85500000D02*
X117025000Y-85450000D01*
X113195000Y-85500000D02*
X116975000Y-85500000D01*
%TO.N,Net-(Q1-D)*%
X123475000Y-84500000D02*
X120025000Y-84500000D01*
X114975000Y-84500000D02*
X118475000Y-84500000D01*
X120025000Y-84500000D02*
X119250000Y-85275000D01*
X118475000Y-84500000D02*
X119250000Y-85275000D01*
%TO.N,Net-(U2-REF)*%
X116000000Y-82000000D02*
X115500000Y-82500000D01*
X117025000Y-80000000D02*
X116250000Y-80000000D01*
X116250000Y-80000000D02*
X116000000Y-80250000D01*
X115500000Y-82500000D02*
X113195000Y-82500000D01*
X116000000Y-80250000D02*
X116000000Y-82000000D01*
%TO.N,Net-(U2-+)*%
X113195000Y-81000000D02*
X114925000Y-81000000D01*
X113195000Y-81182534D02*
X112305000Y-82072534D01*
X113195000Y-81000000D02*
X113195000Y-81182534D01*
X112305000Y-82072534D02*
X112305000Y-82500000D01*
X114925000Y-81000000D02*
X114975000Y-80950000D01*
%TO.N,Net-(R4-Pad2)*%
X111500000Y-83750000D02*
X111500000Y-81250000D01*
X112305000Y-84000000D02*
X111750000Y-84000000D01*
X111750000Y-81000000D02*
X112305000Y-81000000D01*
X111750000Y-84000000D02*
X111500000Y-83750000D01*
X114975000Y-79050000D02*
X112936827Y-79050000D01*
X111500000Y-81250000D02*
X111750000Y-81000000D01*
X112225000Y-79761827D02*
X112225000Y-80920000D01*
X112225000Y-80920000D02*
X112305000Y-81000000D01*
X112936827Y-79050000D02*
X112225000Y-79761827D01*
%TO.N,Net-(U3-C)*%
X122275000Y-85275000D02*
X121250000Y-85275000D01*
X127000000Y-85250000D02*
X127725000Y-85250000D01*
X122450000Y-85450000D02*
X122275000Y-85275000D01*
X125525000Y-85450000D02*
X122450000Y-85450000D01*
X125525000Y-85450000D02*
X126800000Y-85450000D01*
X126800000Y-85450000D02*
X127000000Y-85250000D01*
X127725000Y-85250000D02*
X127750000Y-85275000D01*
%TO.N,Net-(U3-REF)*%
X119250000Y-83725000D02*
X121250000Y-83725000D01*
X125525000Y-83550000D02*
X122450000Y-83550000D01*
X122275000Y-83725000D02*
X121250000Y-83725000D01*
X122450000Y-83550000D02*
X122275000Y-83725000D01*
%TO.N,Net-(U4-TEST1)*%
X106445000Y-72250000D02*
X107062500Y-72250000D01*
X104195000Y-74500000D02*
X106445000Y-72250000D01*
%TO.N,Net-(U6-EN)*%
X106000000Y-82750000D02*
X106000000Y-82025000D01*
X103950000Y-82950000D02*
X104250000Y-83250000D01*
X105500000Y-83250000D02*
X106000000Y-82750000D01*
X103950000Y-82500000D02*
X103950000Y-82950000D01*
X104250000Y-83250000D02*
X105500000Y-83250000D01*
%TO.N,Net-(R13-Pad5)*%
X106300000Y-56100000D02*
X106300000Y-57300000D01*
X106300000Y-57300000D02*
X106000000Y-57600000D01*
%TO.N,Net-(R13-Pad6)*%
X107100000Y-56100000D02*
X107100000Y-57700000D01*
X107100000Y-57700000D02*
X106800000Y-58000000D01*
%TO.N,Net-(R13-Pad7)*%
X107900000Y-58100000D02*
X107600000Y-58400000D01*
X107900000Y-56100000D02*
X107900000Y-58100000D01*
%TO.N,Net-(R13-Pad8)*%
X108700000Y-56100000D02*
X108700000Y-58500004D01*
X108700000Y-58500004D02*
X108400000Y-58800004D01*
%TO.N,/Ethernet MAC+PHY/~{INT}*%
X107062500Y-71750000D02*
X105750000Y-71750000D01*
X116750000Y-102725000D02*
X116750000Y-100950000D01*
X104250000Y-73250000D02*
X104195000Y-73250000D01*
X104195000Y-73250000D02*
X104195000Y-72405000D01*
X116750000Y-100950000D02*
X115800000Y-100000000D01*
X104195000Y-72405000D02*
X104200000Y-72400000D01*
X105750000Y-71750000D02*
X104250000Y-73250000D01*
X115800000Y-100000000D02*
X115199996Y-100000000D01*
%TO.N,Net-(R15-Pad2)*%
X121300000Y-74275000D02*
X121300000Y-75000000D01*
X121100000Y-75200000D02*
X120300010Y-75200000D01*
X121300000Y-75000000D02*
X121100000Y-75200000D01*
%TO.N,Net-(U4-LED_0)*%
X112937500Y-73250000D02*
X114650000Y-73250000D01*
X107475000Y-50775000D02*
X107500000Y-50775000D01*
X106606589Y-51793412D02*
X106606589Y-51643411D01*
X105400001Y-53000000D02*
X106606589Y-51793412D01*
X114650000Y-73250000D02*
X115000000Y-73600000D01*
X104200000Y-53000000D02*
X105400001Y-53000000D01*
X103650000Y-54400000D02*
X103650000Y-53550000D01*
X103650000Y-53550000D02*
X104200000Y-53000000D01*
X106606589Y-51643411D02*
X107475000Y-50775000D01*
%TO.N,Net-(U4-LED_1)*%
X102500000Y-51899996D02*
X102499998Y-51899998D01*
X114050000Y-71750000D02*
X114400000Y-71400000D01*
X102050000Y-52349996D02*
X102499998Y-51899998D01*
X102499998Y-50775002D02*
X102500000Y-50775000D01*
X112937500Y-71750000D02*
X114050000Y-71750000D01*
X102050000Y-54400000D02*
X102050000Y-52349996D01*
X114400000Y-71400000D02*
X115000000Y-71400000D01*
X102499998Y-51899998D02*
X102499998Y-50775002D01*
D71*
%TO.N,Net-(U4-RXN)*%
X111525000Y-63225000D02*
X111975000Y-62775000D01*
X111975000Y-62775000D02*
X111975000Y-62195000D01*
X111250000Y-69062500D02*
X111250000Y-67250000D01*
X111250000Y-67250000D02*
X111500000Y-67000000D01*
X111500000Y-67000000D02*
X111500000Y-64025000D01*
X111525000Y-64000000D02*
X111525000Y-63225000D01*
X111500000Y-64025000D02*
X111525000Y-64000000D01*
D66*
%TO.N,Net-(U4-LINK_ST)*%
X112937500Y-72750000D02*
X115000000Y-72750000D01*
X102850000Y-53350000D02*
X104000000Y-52200000D01*
X115000000Y-72750000D02*
X115025000Y-72775000D01*
X102850000Y-54400000D02*
X102850000Y-53350000D01*
X104000000Y-52200000D02*
X105000000Y-52200000D01*
X105000000Y-52200000D02*
X105000000Y-50775000D01*
D71*
%TO.N,Net-(U4-TXP)*%
X109975000Y-66975000D02*
X109975000Y-64000000D01*
X110250000Y-67250000D02*
X109975000Y-66975000D01*
X110250000Y-69062500D02*
X110250000Y-67250000D01*
X109975000Y-64000000D02*
X109975000Y-63225000D01*
X109500000Y-62750000D02*
X109500000Y-62195000D01*
X109975000Y-63225000D02*
X109500000Y-62750000D01*
%TO.N,Net-(U4-TXN)*%
X111750000Y-69062500D02*
X111750000Y-67500000D01*
X113250000Y-62750000D02*
X113250000Y-62195000D01*
X112275000Y-63725000D02*
X113250000Y-62750000D01*
X112275000Y-66975000D02*
X112275000Y-65750000D01*
X112275000Y-65750000D02*
X112275000Y-63725000D01*
X111750000Y-67500000D02*
X112275000Y-66975000D01*
%TO.N,Net-(U4-RXP)*%
X110725000Y-62220000D02*
X110750000Y-62195000D01*
X110750000Y-65775000D02*
X110725000Y-65750000D01*
X110750000Y-69062500D02*
X110750000Y-65775000D01*
X110725000Y-65750000D02*
X110725000Y-62220000D01*
D73*
%TO.N,Net-(J1-Pin_3)*%
X132520000Y-42020000D02*
X131250000Y-40750000D01*
X132520000Y-43750000D02*
X132520000Y-42020000D01*
D69*
X116460000Y-46500000D02*
X116460000Y-51580000D01*
D73*
X131250000Y-40750000D02*
X119000000Y-40750000D01*
X116460000Y-43290000D02*
X116460000Y-46500000D01*
X119000000Y-40750000D02*
X116460000Y-43290000D01*
D66*
%TO.N,Net-(U4-SPI_CFG1)*%
X109800000Y-79700000D02*
X109500000Y-79700000D01*
X110750000Y-78750000D02*
X109800000Y-79700000D01*
X110750000Y-74937500D02*
X110750000Y-78750000D01*
%TO.N,/Ethernet MAC+PHY/CIPO*%
X126750000Y-100325000D02*
X125750000Y-99325000D01*
X116486826Y-76299999D02*
X117200000Y-76299999D01*
X112937500Y-73750000D02*
X113936827Y-73750000D01*
X113936827Y-73750000D02*
X116486826Y-76299999D01*
X126750000Y-102725000D02*
X126750000Y-100325000D01*
%TO.N,Net-(U4-TS_TIMER{slash}MS_SEL)*%
X105275000Y-75475000D02*
X102800004Y-75475000D01*
X106500000Y-74250000D02*
X105275000Y-75475000D01*
X107062500Y-74250000D02*
X106500000Y-74250000D01*
%TO.N,Net-(U4-~{SWPD_EN})*%
X108750000Y-75750000D02*
X107193410Y-77306590D01*
X108750000Y-74937500D02*
X108750000Y-75750000D01*
X107193410Y-77306590D02*
X107193410Y-78593410D01*
%TO.N,Net-(U4-~{TX2P4_EN})*%
X107750000Y-74937500D02*
X107750000Y-76000000D01*
X106500000Y-77250000D02*
X106500000Y-78200000D01*
X107750000Y-76000000D02*
X106500000Y-77250000D01*
D69*
%TO.N,Earth*%
X121540000Y-51580000D02*
X121540000Y-53160000D01*
X121540000Y-51580000D02*
X121540000Y-46500000D01*
X121540000Y-53160000D02*
X119425000Y-55275000D01*
D68*
X113750000Y-55750000D02*
X114225000Y-55275000D01*
D69*
X119000000Y-55275000D02*
X116250000Y-55275000D01*
X119425000Y-55275000D02*
X119000000Y-55275000D01*
D68*
X113750000Y-56725000D02*
X113750000Y-55750000D01*
X114225000Y-55275000D02*
X116250000Y-55275000D01*
D66*
%TO.N,/Ethernet MAC+PHY/COPI*%
X112937500Y-74250000D02*
X113650000Y-74250000D01*
X116400000Y-77000000D02*
X116599994Y-77000000D01*
X127250000Y-102725000D02*
X127250000Y-99750000D01*
X113650000Y-74250000D02*
X116400000Y-77000000D01*
X126250000Y-98750000D02*
X123750000Y-98750000D01*
X127250000Y-99750000D02*
X126250000Y-98750000D01*
%TO.N,/Ethernet MAC+PHY/~{RESET}*%
X115600000Y-74776777D02*
X116423223Y-75600000D01*
X113570753Y-87252643D02*
X118070220Y-87252643D01*
X114250000Y-101350000D02*
X113599997Y-100699997D01*
X114250000Y-102725000D02*
X114250000Y-101350000D01*
X118070220Y-87252643D02*
X118199998Y-87122865D01*
D67*
X112937500Y-72250000D02*
X115450000Y-72250000D01*
D66*
X113599997Y-100699997D02*
X113599997Y-100000003D01*
X117340000Y-75600000D02*
X118008909Y-76268909D01*
X115600000Y-72400000D02*
X115600000Y-74776777D01*
X116423223Y-75600000D02*
X117340000Y-75600000D01*
D67*
X115450000Y-72250000D02*
X115600000Y-72400000D01*
D66*
%TO.N,/Ethernet MAC+PHY/~{CS}*%
X114800000Y-100800000D02*
X114393411Y-100393411D01*
X107062500Y-73750000D02*
X106063174Y-73750000D01*
X115600000Y-100800000D02*
X114800000Y-100800000D01*
X106063174Y-73750000D02*
X105406587Y-74406587D01*
X116250000Y-102725000D02*
X116250000Y-101450000D01*
X116250000Y-101450000D02*
X115600000Y-100800000D01*
X114393411Y-100393411D02*
X114393411Y-100006589D01*
%TO.N,/Ethernet MAC+PHY/CLK*%
X127250000Y-98587500D02*
X127250000Y-98500000D01*
X113600000Y-86499997D02*
X113699997Y-86400000D01*
X118400000Y-86400000D02*
X119000000Y-87000000D01*
X127750000Y-99087500D02*
X127250000Y-98587500D01*
X113699997Y-86400000D02*
X118400000Y-86400000D01*
X119000000Y-87000000D02*
X119000000Y-87400000D01*
X111250000Y-74937500D02*
X111250000Y-76450000D01*
X127750000Y-102725000D02*
X127750000Y-99087500D01*
X111250000Y-76450000D02*
X112400000Y-77600000D01*
%TO.N,Net-(U5-S+)*%
X127700000Y-94200000D02*
X127700000Y-92900000D01*
X117250000Y-90000000D02*
X117500000Y-89750000D01*
X117500000Y-89750000D02*
X118505000Y-89750000D01*
D74*
X118505000Y-89750000D02*
X119750000Y-89750000D01*
D66*
X128200000Y-92900000D02*
X128200000Y-94500000D01*
X127200000Y-94200000D02*
X127200000Y-93000000D01*
X128000000Y-94500000D02*
X128700000Y-94500000D01*
X128000000Y-94500000D02*
X128200000Y-94500000D01*
X134695000Y-96250000D02*
X135750000Y-96250000D01*
X128700000Y-92900000D02*
X128700000Y-94500000D01*
X117250000Y-91000000D02*
X116175000Y-92075000D01*
X128000000Y-94500000D02*
X127200000Y-94200000D01*
X116175000Y-92075000D02*
X116175000Y-92995000D01*
X117250000Y-91000000D02*
X117250000Y-90000000D01*
X128000000Y-94500000D02*
X127700000Y-94200000D01*
%TO.N,/MicroMod Function Board/ANALOG*%
X119550000Y-96200000D02*
X118500000Y-96200000D01*
X118750000Y-91750000D02*
X119250000Y-92250000D01*
X119250000Y-92250000D02*
X119250000Y-93845000D01*
X117475000Y-92025000D02*
X117750000Y-91750000D01*
X117750000Y-91750000D02*
X118750000Y-91750000D01*
X119845000Y-93845000D02*
X120000000Y-94000000D01*
X120000000Y-95750000D02*
X119550000Y-96200000D01*
X120000000Y-94000000D02*
X120000000Y-95750000D01*
X117475000Y-92995000D02*
X117475000Y-92025000D01*
X119250000Y-93845000D02*
X119845000Y-93845000D01*
D68*
%TO.N,Net-(L1-Pad6)*%
X131250000Y-58150000D02*
X130350000Y-58150000D01*
D69*
X132850000Y-58150000D02*
X134000000Y-57000000D01*
X130000000Y-58500000D02*
X130000000Y-62031250D01*
X132520000Y-53895000D02*
X132520000Y-51250000D01*
X131250000Y-63281250D02*
X131250000Y-66250000D01*
X134000000Y-57000000D02*
X134000000Y-55375000D01*
X132600000Y-58150000D02*
X132850000Y-58150000D01*
X130000000Y-62031250D02*
X131250000Y-63281250D01*
D68*
X131250000Y-58150000D02*
X132600000Y-58150000D01*
D69*
X134000000Y-55375000D02*
X132520000Y-53895000D01*
D68*
X131250000Y-66250000D02*
X131750000Y-66750000D01*
D75*
X130350000Y-58150000D02*
X130000000Y-58500000D01*
D69*
%TO.N,Net-(L1-Pad7)*%
X129000000Y-62250000D02*
X126750000Y-64500000D01*
X129000000Y-58250000D02*
X129000000Y-62250000D01*
X126750000Y-64500000D02*
X126750000Y-66750000D01*
D68*
X131250000Y-57500000D02*
X130000000Y-57500000D01*
X131250000Y-57500000D02*
X132250000Y-57500000D01*
D69*
X133000000Y-56750000D02*
X133000000Y-55750000D01*
X132250000Y-57500000D02*
X133000000Y-56750000D01*
X133000000Y-55750000D02*
X129980000Y-52730000D01*
X129980000Y-52730000D02*
X129980000Y-51250000D01*
X130000000Y-57500000D02*
X129750000Y-57500000D01*
X129750000Y-57500000D02*
X129000000Y-58250000D01*
D67*
%TO.N,Net-(U5-S-)*%
X111000000Y-87360000D02*
X111000000Y-82300000D01*
D66*
X116750000Y-90000000D02*
X116500000Y-89750000D01*
D76*
X112640000Y-89000000D02*
X113570000Y-89000000D01*
D67*
X109987500Y-50775000D02*
X109237500Y-50025000D01*
X109237500Y-50025000D02*
X101775000Y-50025000D01*
X110000000Y-50775000D02*
X109987500Y-50775000D01*
D76*
X114320000Y-89750000D02*
X115495000Y-89750000D01*
D66*
X116750000Y-90750000D02*
X116750000Y-90000000D01*
X116500000Y-89750000D02*
X115495000Y-89750000D01*
D67*
X112640000Y-89000000D02*
X111000000Y-87360000D01*
X111000000Y-82300000D02*
X110000000Y-81300000D01*
D76*
X113570000Y-89000000D02*
X114320000Y-89750000D01*
D67*
X101000000Y-50800000D02*
X101000000Y-56000000D01*
D66*
X115525000Y-91975000D02*
X115525000Y-92995000D01*
D67*
X101775000Y-50025000D02*
X101000000Y-50800000D01*
D66*
X116750000Y-90750000D02*
X115525000Y-91975000D01*
%TO.N,Net-(U7-VCC)*%
X133250000Y-97750000D02*
X133845000Y-97750000D01*
X132750000Y-98250000D02*
X133250000Y-97750000D01*
X130960000Y-97710000D02*
X131500000Y-98250000D01*
X131500000Y-98250000D02*
X132750000Y-98250000D01*
X130960000Y-96887500D02*
X130960000Y-97710000D01*
%TO.N,Net-(U7-FB)*%
X131059998Y-95999999D02*
X131999999Y-95999999D01*
X133805000Y-96250000D02*
X133805000Y-94750000D01*
X131999999Y-95999999D02*
X132250000Y-96250000D01*
X132250000Y-96250000D02*
X133805000Y-96250000D01*
%TO.N,Net-(U7-RT)*%
X131999999Y-95000001D02*
X132200000Y-94800000D01*
X132200000Y-94800000D02*
X132200000Y-93800000D01*
X132200000Y-93800000D02*
X132750000Y-93250000D01*
X132750000Y-93250000D02*
X133805000Y-93250000D01*
X131059998Y-95000001D02*
X131999999Y-95000001D01*
D68*
%TO.N,Net-(U1-VOUT)*%
X117025000Y-79050000D02*
X118200000Y-79050000D01*
X118200000Y-79050000D02*
X120875000Y-76375000D01*
X124300000Y-79050000D02*
X125525000Y-79050000D01*
X121250000Y-76375000D02*
X121625000Y-76375000D01*
X121625000Y-76375000D02*
X124300000Y-79050000D01*
X120875000Y-76375000D02*
X121250000Y-76375000D01*
D66*
%TO.N,Net-(U7-EN)*%
X130150000Y-94100000D02*
X130150000Y-92400000D01*
X130150000Y-92400000D02*
X130125000Y-92375000D01*
X130125000Y-92375000D02*
X130750000Y-91750000D01*
X133375000Y-90125000D02*
X131750000Y-91750000D01*
X129650000Y-94100000D02*
X129650000Y-92850000D01*
X130750000Y-91750000D02*
X130750000Y-90650000D01*
X131750000Y-91750000D02*
X130750000Y-91750000D01*
X133845000Y-91750000D02*
X131750000Y-91750000D01*
X134250000Y-90125000D02*
X133375000Y-90125000D01*
X129650000Y-92850000D02*
X130125000Y-92375000D01*
D72*
%TO.N,Net-(U8-dVdT)*%
X129750000Y-90650000D02*
X129750000Y-91250000D01*
X128750000Y-92250000D02*
X127500000Y-92250000D01*
X129750000Y-91250000D02*
X128750000Y-92250000D01*
X123528708Y-91500000D02*
X122845000Y-90816292D01*
X122845000Y-90816292D02*
X122845000Y-90750000D01*
X126750000Y-91500000D02*
X123528708Y-91500000D01*
X127500000Y-92250000D02*
X126750000Y-91500000D01*
D66*
%TO.N,Net-(U8-EP)*%
X125055000Y-90000000D02*
X125055000Y-90750000D01*
X127500000Y-87250000D02*
X128500000Y-87250000D01*
X123655000Y-90750000D02*
X125055000Y-90750000D01*
X127250000Y-87500000D02*
X127500000Y-87250000D01*
X129500000Y-89500000D02*
X129750000Y-89250000D01*
X128500000Y-87250000D02*
X128750000Y-87500000D01*
X128750000Y-87500000D02*
X128750000Y-87850000D01*
X125055000Y-89250000D02*
X125055000Y-90000000D01*
X125055000Y-90000000D02*
X126750000Y-90000000D01*
X126750000Y-90000000D02*
X127250000Y-89500000D01*
X127250000Y-89500000D02*
X127250000Y-87500000D01*
X127250000Y-89500000D02*
X129500000Y-89500000D01*
D67*
%TO.N,Net-(U8-OVP)*%
X125945000Y-88695000D02*
X125945000Y-89250000D01*
D77*
X126750000Y-88445000D02*
X125945000Y-89250000D01*
D67*
X122805000Y-88305000D02*
X123000000Y-88500000D01*
D77*
X129129999Y-86630000D02*
X127370000Y-86630000D01*
D67*
X122805000Y-87750000D02*
X122805000Y-88305000D01*
D77*
X129750000Y-87250001D02*
X129129999Y-86630000D01*
X126750000Y-87250000D02*
X126750000Y-88445000D01*
X129750000Y-87850000D02*
X129750000Y-87250001D01*
D67*
X125750000Y-88500000D02*
X125945000Y-88695000D01*
X123000000Y-88500000D02*
X125750000Y-88500000D01*
D77*
X127370000Y-86630000D02*
X126750000Y-87250000D01*
D72*
%TO.N,Net-(U8-ILIM)*%
X129250000Y-90650000D02*
X129250000Y-91297452D01*
X126452548Y-90750000D02*
X125945000Y-90750000D01*
X127632548Y-91930000D02*
X126452548Y-90750000D01*
X129250000Y-91297452D02*
X128617452Y-91930000D01*
X128617452Y-91930000D02*
X127632548Y-91930000D01*
D77*
%TO.N,Net-(U8-ULVO)*%
X130250000Y-87212599D02*
X129287401Y-86250000D01*
X125055000Y-87063162D02*
X125055000Y-87750000D01*
X125868162Y-86250000D02*
X125055000Y-87063162D01*
X129287401Y-86250000D02*
X125868162Y-86250000D01*
D66*
X123695000Y-87750000D02*
X125055000Y-87750000D01*
D77*
X130250000Y-87850000D02*
X130250000Y-87212599D01*
%TD*%
%TA.AperFunction,Conductor*%
%TO.N,Net-(U7-EN)*%
G36*
X134250000Y-90375000D02*
G01*
X133215000Y-90375000D01*
X133215000Y-90453670D01*
X133230185Y-90569019D01*
X133230187Y-90569024D01*
X133289633Y-90712541D01*
X133289633Y-90712542D01*
X133384207Y-90835792D01*
X133507458Y-90930366D01*
X133546976Y-90946735D01*
X133601380Y-90990575D01*
X133623445Y-91056869D01*
X133606166Y-91124569D01*
X133555029Y-91172180D01*
X133540479Y-91178337D01*
X133486040Y-91197386D01*
X133486035Y-91197388D01*
X133377495Y-91277495D01*
X133297388Y-91386035D01*
X133257512Y-91499999D01*
X133257512Y-91500000D01*
X133971000Y-91500000D01*
X134038039Y-91519685D01*
X134083794Y-91572489D01*
X134095000Y-91624000D01*
X134095000Y-91876000D01*
X134075315Y-91943039D01*
X134022511Y-91988794D01*
X133971000Y-92000000D01*
X133257512Y-92000000D01*
X133297388Y-92113964D01*
X133377495Y-92222504D01*
X133450290Y-92276230D01*
X133492541Y-92331878D01*
X133497999Y-92401534D01*
X133464931Y-92463083D01*
X133403837Y-92496984D01*
X133376656Y-92500000D01*
X131249999Y-92500000D01*
X130586319Y-93163681D01*
X130524996Y-93197166D01*
X130498638Y-93200000D01*
X129374000Y-93200000D01*
X129306961Y-93180315D01*
X129261206Y-93127511D01*
X129250000Y-93076000D01*
X129250000Y-92301361D01*
X129269685Y-92234322D01*
X129286314Y-92213685D01*
X130290188Y-91209811D01*
X130351509Y-91176328D01*
X130421201Y-91181312D01*
X130446490Y-91197565D01*
X130448046Y-91195295D01*
X130457525Y-91201788D01*
X130560123Y-91247089D01*
X130585206Y-91249999D01*
X130914785Y-91249999D01*
X130914808Y-91249997D01*
X130939869Y-91247091D01*
X130939873Y-91247090D01*
X131042474Y-91201788D01*
X131042479Y-91201785D01*
X131121785Y-91122479D01*
X131121787Y-91122476D01*
X131143230Y-91073914D01*
X131188316Y-91020538D01*
X131255102Y-91000010D01*
X131256665Y-91000000D01*
X132000000Y-91000000D01*
X133088682Y-89911317D01*
X133150003Y-89877834D01*
X133176361Y-89875000D01*
X134250000Y-89875000D01*
X134250000Y-90375000D01*
G37*
%TD.AperFunction*%
%TD*%
%TA.AperFunction,Conductor*%
%TO.N,/PoDL Device Handling/PoDL+*%
G36*
X131925500Y-81519962D02*
G01*
X131980038Y-81574500D01*
X132000000Y-81649000D01*
X132000000Y-87101000D01*
X131980038Y-87175500D01*
X131925500Y-87230038D01*
X131851000Y-87250000D01*
X130938282Y-87250000D01*
X130938282Y-87249185D01*
X130919570Y-87250554D01*
X130914793Y-87250000D01*
X130649000Y-87250000D01*
X130574500Y-87230038D01*
X130519962Y-87175500D01*
X130500000Y-87101000D01*
X130500000Y-87000000D01*
X129500000Y-86000000D01*
X128649000Y-86000000D01*
X128574500Y-85980038D01*
X128519962Y-85925500D01*
X128500000Y-85851000D01*
X128500000Y-85450000D01*
X129850001Y-85450000D01*
X129850001Y-85844794D01*
X129852909Y-85869874D01*
X129898212Y-85972477D01*
X129898212Y-85972478D01*
X129977521Y-86051786D01*
X130080128Y-86097091D01*
X130105204Y-86099999D01*
X130500000Y-86099999D01*
X130999999Y-86099999D01*
X131394795Y-86099999D01*
X131419874Y-86097090D01*
X131522477Y-86051787D01*
X131522477Y-86051786D01*
X131601786Y-85972478D01*
X131647091Y-85869871D01*
X131650000Y-85844795D01*
X131650000Y-85450000D01*
X131000000Y-85450000D01*
X130999999Y-86099999D01*
X130500000Y-86099999D01*
X130500000Y-85450000D01*
X129850001Y-85450000D01*
X128500000Y-85450000D01*
X128500000Y-84950000D01*
X129849999Y-84950000D01*
X130500000Y-84950000D01*
X130500000Y-84300000D01*
X130999999Y-84300000D01*
X130999999Y-84949999D01*
X131000000Y-84950000D01*
X131649999Y-84950000D01*
X131649999Y-84555205D01*
X131647090Y-84530125D01*
X131601787Y-84427522D01*
X131522478Y-84348213D01*
X131419871Y-84302908D01*
X131394796Y-84300000D01*
X130999999Y-84300000D01*
X130500000Y-84300000D01*
X130105205Y-84300000D01*
X130080125Y-84302909D01*
X129977522Y-84348212D01*
X129977522Y-84348213D01*
X129898213Y-84427521D01*
X129852908Y-84530128D01*
X129850000Y-84555204D01*
X129849999Y-84950000D01*
X128500000Y-84950000D01*
X128500000Y-84164092D01*
X128509394Y-84112022D01*
X128533437Y-84047557D01*
X128539998Y-83986529D01*
X128540000Y-83986511D01*
X128540000Y-83975000D01*
X128500000Y-83975000D01*
X128500000Y-83475000D01*
X128539999Y-83475000D01*
X128539999Y-83463492D01*
X128539997Y-83463467D01*
X128533437Y-83402444D01*
X128533435Y-83402435D01*
X128509394Y-83337975D01*
X128500000Y-83285907D01*
X128500000Y-81649000D01*
X128519962Y-81574500D01*
X128574500Y-81519962D01*
X128649000Y-81500000D01*
X131851000Y-81500000D01*
X131925500Y-81519962D01*
G37*
%TD.AperFunction*%
%TD*%
%TA.AperFunction,Conductor*%
%TO.N,GND*%
G36*
X121580436Y-98992807D02*
G01*
X121602574Y-99010388D01*
X122380505Y-99788319D01*
X122413990Y-99849642D01*
X122409006Y-99919334D01*
X122367134Y-99975267D01*
X122301670Y-99999684D01*
X122292824Y-100000000D01*
X120224000Y-100000000D01*
X120156961Y-99980315D01*
X120111206Y-99927511D01*
X120100000Y-99876001D01*
X120100000Y-99828200D01*
X120100000Y-99776918D01*
X120119683Y-99709883D01*
X120172486Y-99664127D01*
X120241645Y-99654183D01*
X120243372Y-99654444D01*
X120247135Y-99655040D01*
X120249985Y-99655492D01*
X120249986Y-99655492D01*
X120249989Y-99655492D01*
X120375286Y-99635647D01*
X120375287Y-99635647D01*
X120375288Y-99635646D01*
X120375290Y-99635646D01*
X120488328Y-99578050D01*
X120515002Y-99551376D01*
X120562312Y-99504067D01*
X120623635Y-99470582D01*
X120693327Y-99475566D01*
X120737674Y-99504067D01*
X120761652Y-99528045D01*
X120761654Y-99528046D01*
X120761658Y-99528050D01*
X120874696Y-99585646D01*
X120874697Y-99585646D01*
X120874699Y-99585647D01*
X120999997Y-99605492D01*
X121000000Y-99605492D01*
X121000003Y-99605492D01*
X121125300Y-99585647D01*
X121125301Y-99585647D01*
X121125302Y-99585646D01*
X121125304Y-99585646D01*
X121238342Y-99528050D01*
X121328050Y-99438342D01*
X121385646Y-99325304D01*
X121385646Y-99325302D01*
X121385647Y-99325301D01*
X121385647Y-99325300D01*
X121405492Y-99200003D01*
X121405492Y-99199998D01*
X121392420Y-99117467D01*
X121401374Y-99048174D01*
X121446370Y-98994722D01*
X121513122Y-98974082D01*
X121580436Y-98992807D01*
G37*
%TD.AperFunction*%
%TA.AperFunction,Conductor*%
G36*
X137942539Y-84019685D02*
G01*
X137988294Y-84072489D01*
X137999500Y-84124000D01*
X137999500Y-99496514D01*
X137999110Y-99503462D01*
X137996530Y-99526351D01*
X137986066Y-99605829D01*
X137980169Y-99630597D01*
X137968223Y-99664735D01*
X137966983Y-99667984D01*
X137944536Y-99722180D01*
X137934967Y-99740702D01*
X137913097Y-99775508D01*
X137909786Y-99780267D01*
X137873005Y-99828200D01*
X137867653Y-99834304D01*
X137834304Y-99867653D01*
X137828200Y-99873005D01*
X137780267Y-99909786D01*
X137775508Y-99913097D01*
X137740702Y-99934967D01*
X137722180Y-99944536D01*
X137667984Y-99966983D01*
X137664735Y-99968223D01*
X137630597Y-99980169D01*
X137605829Y-99986066D01*
X137526351Y-99996530D01*
X137505688Y-99998859D01*
X137503460Y-99999110D01*
X137496514Y-99999500D01*
X129368607Y-99999500D01*
X129367631Y-99999610D01*
X129360685Y-100000000D01*
X128149499Y-100000000D01*
X128082460Y-99980315D01*
X128036705Y-99927511D01*
X128025499Y-99876000D01*
X128025499Y-99126846D01*
X128027883Y-99102647D01*
X128028810Y-99097989D01*
X128030897Y-99087500D01*
X128022265Y-99044103D01*
X128009515Y-98980005D01*
X127966501Y-98915631D01*
X127948624Y-98888875D01*
X127935775Y-98880290D01*
X127916985Y-98864869D01*
X127686033Y-98633917D01*
X127652548Y-98572594D01*
X127651241Y-98526836D01*
X127651265Y-98526689D01*
X127655492Y-98500000D01*
X127643131Y-98421954D01*
X127635647Y-98374699D01*
X127635647Y-98374698D01*
X127635646Y-98374696D01*
X127578050Y-98261658D01*
X127578046Y-98261654D01*
X127578045Y-98261652D01*
X127488347Y-98171954D01*
X127488344Y-98171952D01*
X127488342Y-98171950D01*
X127375304Y-98114354D01*
X127375303Y-98114353D01*
X127375300Y-98114352D01*
X127250003Y-98094508D01*
X127249997Y-98094508D01*
X127124699Y-98114352D01*
X127124698Y-98114352D01*
X127049619Y-98152608D01*
X127011658Y-98171950D01*
X127011657Y-98171951D01*
X127011652Y-98171954D01*
X126921954Y-98261652D01*
X126921951Y-98261657D01*
X126864352Y-98374698D01*
X126864352Y-98374699D01*
X126844508Y-98499996D01*
X126844508Y-98500003D01*
X126864352Y-98625300D01*
X126864352Y-98625301D01*
X126871930Y-98640172D01*
X126884826Y-98708841D01*
X126858550Y-98773582D01*
X126801443Y-98813839D01*
X126731638Y-98816831D01*
X126673764Y-98784148D01*
X126472627Y-98583011D01*
X126457205Y-98564219D01*
X126448624Y-98551376D01*
X126448620Y-98551372D01*
X126425623Y-98536007D01*
X126417975Y-98530897D01*
X126385975Y-98509515D01*
X126357495Y-98490485D01*
X126357494Y-98490484D01*
X126357492Y-98490483D01*
X126357493Y-98490483D01*
X126272849Y-98473647D01*
X126272816Y-98473641D01*
X126258854Y-98470864D01*
X126250001Y-98469103D01*
X126250000Y-98469103D01*
X126234846Y-98472117D01*
X126210656Y-98474500D01*
X124092255Y-98474500D01*
X124025216Y-98454815D01*
X124004574Y-98438181D01*
X123988347Y-98421954D01*
X123988344Y-98421952D01*
X123988342Y-98421950D01*
X123875304Y-98364354D01*
X123875303Y-98364353D01*
X123875300Y-98364352D01*
X123750003Y-98344508D01*
X123749997Y-98344508D01*
X123624699Y-98364352D01*
X123624698Y-98364352D01*
X123549337Y-98402751D01*
X123511658Y-98421950D01*
X123511656Y-98421951D01*
X123511657Y-98421951D01*
X123511652Y-98421954D01*
X123421954Y-98511652D01*
X123421951Y-98511657D01*
X123421950Y-98511658D01*
X123413683Y-98527883D01*
X123364352Y-98624698D01*
X123364352Y-98624699D01*
X123344508Y-98749996D01*
X123344508Y-98750003D01*
X123364352Y-98875300D01*
X123364352Y-98875301D01*
X123373118Y-98892505D01*
X123421950Y-98988342D01*
X123421952Y-98988344D01*
X123421954Y-98988347D01*
X123511652Y-99078045D01*
X123511654Y-99078046D01*
X123511658Y-99078050D01*
X123624696Y-99135646D01*
X123624697Y-99135646D01*
X123624699Y-99135647D01*
X123749997Y-99155492D01*
X123750000Y-99155492D01*
X123750003Y-99155492D01*
X123875300Y-99135647D01*
X123875301Y-99135647D01*
X123875302Y-99135646D01*
X123875304Y-99135646D01*
X123988342Y-99078050D01*
X123991696Y-99074696D01*
X124004574Y-99061819D01*
X124065897Y-99028334D01*
X124092255Y-99025500D01*
X125250762Y-99025500D01*
X125317801Y-99045185D01*
X125363556Y-99097989D01*
X125373500Y-99167147D01*
X125366237Y-99190049D01*
X125367369Y-99190417D01*
X125364352Y-99199699D01*
X125344508Y-99324996D01*
X125344508Y-99325003D01*
X125364352Y-99450300D01*
X125364352Y-99450301D01*
X125364354Y-99450304D01*
X125421950Y-99563342D01*
X125421952Y-99563344D01*
X125421954Y-99563347D01*
X125511652Y-99653045D01*
X125511654Y-99653046D01*
X125511658Y-99653050D01*
X125624696Y-99710646D01*
X125729071Y-99727177D01*
X125792204Y-99757106D01*
X125797353Y-99761969D01*
X125823703Y-99788319D01*
X125857188Y-99849642D01*
X125852204Y-99919334D01*
X125810332Y-99975267D01*
X125744868Y-99999684D01*
X125736022Y-100000000D01*
X124059552Y-100000000D01*
X123992513Y-99980315D01*
X123956450Y-99944891D01*
X123956213Y-99944536D01*
X123948624Y-99933178D01*
X123948622Y-99933176D01*
X123948621Y-99933175D01*
X123935775Y-99924592D01*
X123916985Y-99909171D01*
X121536319Y-97528505D01*
X121502834Y-97467182D01*
X121500000Y-97440824D01*
X121500000Y-96625000D01*
X122000000Y-96625000D01*
X122000000Y-97455000D01*
X122239371Y-97455000D01*
X122239374Y-97454999D01*
X122371895Y-97440068D01*
X122371905Y-97440066D01*
X122539936Y-97381269D01*
X122539939Y-97381267D01*
X122690674Y-97286554D01*
X122816554Y-97160674D01*
X122895006Y-97035819D01*
X122947341Y-96989528D01*
X123016394Y-96978880D01*
X123080242Y-97007255D01*
X123104994Y-97035819D01*
X123183445Y-97160674D01*
X123309325Y-97286554D01*
X123460060Y-97381267D01*
X123460063Y-97381269D01*
X123628094Y-97440066D01*
X123628104Y-97440068D01*
X123760625Y-97454999D01*
X123760629Y-97455000D01*
X124000000Y-97455000D01*
X124000000Y-96625000D01*
X124500000Y-96625000D01*
X124500000Y-97455000D01*
X124739371Y-97455000D01*
X124739374Y-97454999D01*
X124871895Y-97440068D01*
X124871905Y-97440066D01*
X125039936Y-97381269D01*
X125039939Y-97381267D01*
X125190674Y-97286554D01*
X125316554Y-97160674D01*
X125411267Y-97009939D01*
X125411269Y-97009936D01*
X125470066Y-96841905D01*
X125470068Y-96841895D01*
X125484999Y-96709374D01*
X125485000Y-96709370D01*
X125485000Y-96625000D01*
X124500000Y-96625000D01*
X124000000Y-96625000D01*
X122000000Y-96625000D01*
X121500000Y-96625000D01*
X120515000Y-96625000D01*
X120504815Y-96635184D01*
X120495315Y-96667539D01*
X120442511Y-96713294D01*
X120391000Y-96724500D01*
X120224000Y-96724500D01*
X120156961Y-96704815D01*
X120111206Y-96652011D01*
X120100000Y-96600500D01*
X120100000Y-96090976D01*
X120119685Y-96023937D01*
X120136314Y-96003300D01*
X120166990Y-95972624D01*
X120185774Y-95957209D01*
X120198624Y-95948624D01*
X120216448Y-95921950D01*
X120236122Y-95892505D01*
X120259515Y-95857495D01*
X120264140Y-95834245D01*
X120279842Y-95755309D01*
X120312227Y-95693398D01*
X120372943Y-95658824D01*
X120401459Y-95655500D01*
X120443559Y-95655500D01*
X120510598Y-95675185D01*
X120556353Y-95727989D01*
X120566297Y-95797147D01*
X120560600Y-95820455D01*
X120529933Y-95908093D01*
X120529931Y-95908104D01*
X120515000Y-96040625D01*
X120515000Y-96125000D01*
X125485000Y-96125000D01*
X125485000Y-96040629D01*
X125484999Y-96040625D01*
X125470068Y-95908104D01*
X125470066Y-95908093D01*
X125439400Y-95820455D01*
X125435838Y-95750676D01*
X125470566Y-95690049D01*
X125532560Y-95657821D01*
X125556441Y-95655500D01*
X126276000Y-95655500D01*
X126343039Y-95675185D01*
X126388794Y-95727989D01*
X126400000Y-95779500D01*
X126400000Y-97800000D01*
X130622516Y-97800000D01*
X130689555Y-97819685D01*
X130725618Y-97855109D01*
X130761373Y-97908621D01*
X130761376Y-97908624D01*
X130774221Y-97917206D01*
X130793011Y-97932627D01*
X131277369Y-98416985D01*
X131292790Y-98435775D01*
X131301373Y-98448621D01*
X131301374Y-98448622D01*
X131301376Y-98448624D01*
X131324376Y-98463992D01*
X131324378Y-98463994D01*
X131392505Y-98509515D01*
X131392507Y-98509515D01*
X131392507Y-98509516D01*
X131499998Y-98530897D01*
X131499999Y-98530897D01*
X131499999Y-98530896D01*
X131500000Y-98530897D01*
X131515153Y-98527882D01*
X131539344Y-98525500D01*
X132710656Y-98525500D01*
X132734846Y-98527882D01*
X132750000Y-98530897D01*
X132777132Y-98525500D01*
X132777133Y-98525500D01*
X132857495Y-98509515D01*
X132912342Y-98472867D01*
X132925622Y-98463994D01*
X132925622Y-98463993D01*
X132939051Y-98455021D01*
X132939053Y-98455018D01*
X132948624Y-98448624D01*
X132957208Y-98435775D01*
X132972624Y-98416990D01*
X133288320Y-98101295D01*
X133349642Y-98067811D01*
X133419334Y-98072795D01*
X133475267Y-98114667D01*
X133499684Y-98180131D01*
X133500000Y-98188977D01*
X133500000Y-98500000D01*
X134225599Y-98500000D01*
X134260193Y-98504923D01*
X134405000Y-98546992D01*
X134405000Y-98500000D01*
X134905000Y-98500000D01*
X134905000Y-98546991D01*
X135049807Y-98504923D01*
X135084401Y-98500000D01*
X135300000Y-98500000D01*
X135300000Y-98367194D01*
X135317268Y-98304073D01*
X135401468Y-98161697D01*
X135401470Y-98161691D01*
X135447110Y-98004600D01*
X135447111Y-98004595D01*
X135447473Y-98000000D01*
X135300000Y-98000000D01*
X135300000Y-97500000D01*
X135447473Y-97500000D01*
X135447473Y-97499999D01*
X135447111Y-97495404D01*
X135447110Y-97495399D01*
X135401470Y-97338308D01*
X135401468Y-97338301D01*
X135317268Y-97195926D01*
X135300000Y-97132805D01*
X135300000Y-96665754D01*
X135319685Y-96598715D01*
X135372489Y-96552960D01*
X135441647Y-96543016D01*
X135505203Y-96572041D01*
X135511650Y-96578044D01*
X135511654Y-96578046D01*
X135511658Y-96578050D01*
X135624696Y-96635646D01*
X135624697Y-96635646D01*
X135624699Y-96635647D01*
X135749997Y-96655492D01*
X135750000Y-96655492D01*
X135750003Y-96655492D01*
X135875300Y-96635647D01*
X135875301Y-96635647D01*
X135875302Y-96635646D01*
X135875304Y-96635646D01*
X135988342Y-96578050D01*
X136078050Y-96488342D01*
X136135646Y-96375304D01*
X136135646Y-96375302D01*
X136135647Y-96375301D01*
X136135647Y-96375300D01*
X136155492Y-96250003D01*
X136155492Y-96249996D01*
X136135647Y-96124699D01*
X136135647Y-96124698D01*
X136119244Y-96092506D01*
X136078050Y-96011658D01*
X136078046Y-96011654D01*
X136078045Y-96011652D01*
X135988347Y-95921954D01*
X135988344Y-95921952D01*
X135988342Y-95921950D01*
X135875304Y-95864354D01*
X135875303Y-95864353D01*
X135875300Y-95864352D01*
X135750003Y-95844508D01*
X135749997Y-95844508D01*
X135624699Y-95864352D01*
X135624698Y-95864352D01*
X135549337Y-95902751D01*
X135511658Y-95921950D01*
X135511656Y-95921951D01*
X135511657Y-95921951D01*
X135503759Y-95927689D01*
X135503011Y-95926659D01*
X135450358Y-95955411D01*
X135380666Y-95950427D01*
X135324733Y-95908555D01*
X135300316Y-95843091D01*
X135300000Y-95834245D01*
X135300000Y-95381312D01*
X135318828Y-95317188D01*
X135318292Y-95316871D01*
X135319543Y-95314754D01*
X135319685Y-95314273D01*
X135320562Y-95313032D01*
X135402967Y-95173691D01*
X135402969Y-95173686D01*
X135447198Y-95021449D01*
X135447198Y-95021448D01*
X135448887Y-95000000D01*
X135300000Y-95000000D01*
X135300000Y-94500000D01*
X135448887Y-94500000D01*
X135448887Y-94499999D01*
X135447198Y-94478551D01*
X135447198Y-94478550D01*
X135402969Y-94326313D01*
X135402967Y-94326308D01*
X135318292Y-94183129D01*
X135320875Y-94181600D01*
X135300482Y-94129612D01*
X135300000Y-94118687D01*
X135300000Y-93881312D01*
X135318828Y-93817188D01*
X135318292Y-93816871D01*
X135319543Y-93814754D01*
X135319685Y-93814273D01*
X135320562Y-93813032D01*
X135402967Y-93673691D01*
X135402969Y-93673686D01*
X135447198Y-93521449D01*
X135447198Y-93521448D01*
X135448887Y-93500000D01*
X135300000Y-93500000D01*
X135300000Y-93000000D01*
X135448887Y-93000000D01*
X135448887Y-92999999D01*
X135447198Y-92978551D01*
X135447198Y-92978550D01*
X135402969Y-92826313D01*
X135402967Y-92826308D01*
X135318292Y-92683130D01*
X135320875Y-92681601D01*
X135300482Y-92629613D01*
X135300000Y-92618688D01*
X135300000Y-92367194D01*
X135317268Y-92304073D01*
X135401468Y-92161697D01*
X135401470Y-92161691D01*
X135447110Y-92004600D01*
X135447111Y-92004595D01*
X135447473Y-92000000D01*
X135300000Y-92000000D01*
X135300000Y-91500000D01*
X135447473Y-91500000D01*
X135447473Y-91499999D01*
X135447111Y-91495404D01*
X135447110Y-91495399D01*
X135401470Y-91338308D01*
X135401468Y-91338301D01*
X135317268Y-91195926D01*
X135300000Y-91132805D01*
X135300000Y-89222744D01*
X135319006Y-89156772D01*
X135411267Y-89009939D01*
X135411269Y-89009936D01*
X135470066Y-88841905D01*
X135470068Y-88841895D01*
X135484999Y-88709374D01*
X135485000Y-88709370D01*
X135485000Y-88625000D01*
X133015000Y-88625000D01*
X133015000Y-88709374D01*
X133029931Y-88841895D01*
X133029933Y-88841905D01*
X133088730Y-89009936D01*
X133088733Y-89009941D01*
X133088787Y-89010027D01*
X133088804Y-89010090D01*
X133091755Y-89016217D01*
X133090682Y-89016733D01*
X133107788Y-89077263D01*
X133087421Y-89144098D01*
X133034154Y-89189313D01*
X132983794Y-89200000D01*
X132624000Y-89200000D01*
X132556961Y-89180315D01*
X132511206Y-89127511D01*
X132500000Y-89076000D01*
X132500000Y-88125000D01*
X133015000Y-88125000D01*
X134000000Y-88125000D01*
X134000000Y-87295000D01*
X134500000Y-87295000D01*
X134500000Y-88125000D01*
X135485000Y-88125000D01*
X135485000Y-88040629D01*
X135484999Y-88040625D01*
X135470068Y-87908104D01*
X135470066Y-87908094D01*
X135411269Y-87740063D01*
X135411267Y-87740060D01*
X135316554Y-87589325D01*
X135190674Y-87463445D01*
X135039939Y-87368732D01*
X135039936Y-87368730D01*
X134871905Y-87309933D01*
X134871895Y-87309931D01*
X134739374Y-87295000D01*
X134500000Y-87295000D01*
X134000000Y-87295000D01*
X133760625Y-87295000D01*
X133628104Y-87309931D01*
X133628094Y-87309933D01*
X133460063Y-87368730D01*
X133460060Y-87368732D01*
X133309325Y-87463445D01*
X133183445Y-87589325D01*
X133088732Y-87740060D01*
X133088730Y-87740063D01*
X133029933Y-87908094D01*
X133029931Y-87908104D01*
X133015000Y-88040625D01*
X133015000Y-88125000D01*
X132500000Y-88125000D01*
X132500000Y-86424000D01*
X132519685Y-86356961D01*
X132572489Y-86311206D01*
X132624000Y-86300000D01*
X132999999Y-86300000D01*
X133000000Y-85450000D01*
X133500000Y-85450000D01*
X133500000Y-86300000D01*
X133897828Y-86300000D01*
X133897844Y-86299999D01*
X133957372Y-86293598D01*
X133957379Y-86293596D01*
X134092086Y-86243354D01*
X134092093Y-86243350D01*
X134207187Y-86157190D01*
X134207190Y-86157187D01*
X134293350Y-86042093D01*
X134293354Y-86042086D01*
X134343596Y-85907379D01*
X134343598Y-85907372D01*
X134349999Y-85847844D01*
X134350000Y-85847827D01*
X134350000Y-85450000D01*
X133500000Y-85450000D01*
X133000000Y-85450000D01*
X133000000Y-85074000D01*
X133019685Y-85006961D01*
X133072489Y-84961206D01*
X133124000Y-84950000D01*
X134350000Y-84950000D01*
X134350000Y-84552172D01*
X134349999Y-84552155D01*
X134343598Y-84492627D01*
X134343596Y-84492620D01*
X134293354Y-84357913D01*
X134293350Y-84357906D01*
X134207190Y-84242812D01*
X134207187Y-84242809D01*
X134181081Y-84223266D01*
X134139210Y-84167332D01*
X134134226Y-84097641D01*
X134167712Y-84036318D01*
X134229035Y-84002834D01*
X134255392Y-84000000D01*
X137875500Y-84000000D01*
X137942539Y-84019685D01*
G37*
%TD.AperFunction*%
%TA.AperFunction,Conductor*%
G36*
X133443039Y-93769685D02*
G01*
X133488794Y-93822489D01*
X133500000Y-93874000D01*
X133500000Y-94310486D01*
X133480315Y-94377525D01*
X133463683Y-94398166D01*
X133444178Y-94417671D01*
X133402197Y-94512746D01*
X133402197Y-94512748D01*
X133399500Y-94535992D01*
X133399500Y-94964007D01*
X133402197Y-94987251D01*
X133402198Y-94987255D01*
X133444176Y-95082327D01*
X133444177Y-95082328D01*
X133444178Y-95082329D01*
X133463681Y-95101832D01*
X133497166Y-95163153D01*
X133500000Y-95189513D01*
X133500000Y-95810487D01*
X133480315Y-95877526D01*
X133463681Y-95898168D01*
X133444176Y-95917672D01*
X133442187Y-95920577D01*
X133437206Y-95924642D01*
X133436053Y-95925796D01*
X133435936Y-95925679D01*
X133388061Y-95964760D01*
X133339888Y-95974500D01*
X132415478Y-95974500D01*
X132348439Y-95954815D01*
X132327797Y-95938181D01*
X132222626Y-95833010D01*
X132207204Y-95814218D01*
X132198623Y-95801375D01*
X132198620Y-95801372D01*
X132179286Y-95788454D01*
X132179283Y-95788452D01*
X132175621Y-95786005D01*
X132146422Y-95766495D01*
X132129681Y-95755309D01*
X132107495Y-95740484D01*
X132107489Y-95740482D01*
X132049815Y-95729010D01*
X131987904Y-95696625D01*
X131976360Y-95676353D01*
X131950006Y-95649999D01*
X131824000Y-95649999D01*
X131756961Y-95630314D01*
X131711206Y-95577510D01*
X131700000Y-95525999D01*
X131700000Y-95474001D01*
X131719685Y-95406962D01*
X131772489Y-95361207D01*
X131824000Y-95350001D01*
X131950006Y-95350001D01*
X131967716Y-95332290D01*
X131969691Y-95325567D01*
X132022495Y-95279812D01*
X132049808Y-95270990D01*
X132107494Y-95259516D01*
X132136476Y-95240151D01*
X132151670Y-95229999D01*
X132189048Y-95205023D01*
X132189050Y-95205020D01*
X132198623Y-95198625D01*
X132207207Y-95185776D01*
X132222623Y-95166991D01*
X132366990Y-95022624D01*
X132385774Y-95007209D01*
X132398624Y-94998624D01*
X132419043Y-94968066D01*
X132445780Y-94928050D01*
X132459515Y-94907495D01*
X132459515Y-94907493D01*
X132459516Y-94907493D01*
X132480896Y-94800003D01*
X132480897Y-94799998D01*
X132477882Y-94784843D01*
X132475499Y-94760650D01*
X132475499Y-94344178D01*
X132475499Y-93965473D01*
X132495184Y-93898438D01*
X132511809Y-93877805D01*
X132603298Y-93786316D01*
X132664620Y-93752834D01*
X132690977Y-93750000D01*
X133376000Y-93750000D01*
X133443039Y-93769685D01*
G37*
%TD.AperFunction*%
%TD*%
%TA.AperFunction,Conductor*%
%TO.N,+3.3V*%
G36*
X105292539Y-61769685D02*
G01*
X105338294Y-61822489D01*
X105349500Y-61874000D01*
X105349499Y-61935522D01*
X105359355Y-62003171D01*
X105410365Y-62107513D01*
X105463681Y-62160829D01*
X105497166Y-62222152D01*
X105500000Y-62248510D01*
X105500000Y-62501490D01*
X105480315Y-62568529D01*
X105463681Y-62589171D01*
X105414671Y-62638181D01*
X105353348Y-62671666D01*
X105326990Y-62674500D01*
X105216922Y-62674500D01*
X105211518Y-62674264D01*
X105206107Y-62673790D01*
X105171192Y-62670735D01*
X105171191Y-62670735D01*
X105132091Y-62681212D01*
X105126811Y-62682383D01*
X105086959Y-62689410D01*
X105081961Y-62691229D01*
X105065117Y-62698206D01*
X105060313Y-62700446D01*
X105027166Y-62723656D01*
X105022606Y-62726562D01*
X104987548Y-62746804D01*
X104987540Y-62746810D01*
X104961523Y-62777815D01*
X104957869Y-62781804D01*
X103981803Y-63757870D01*
X103977814Y-63761525D01*
X103946806Y-63787545D01*
X103926562Y-63822604D01*
X103923657Y-63827165D01*
X103911575Y-63844421D01*
X103907641Y-63849464D01*
X103817118Y-63953935D01*
X103817117Y-63953936D01*
X103763302Y-64071772D01*
X103744867Y-64199998D01*
X103763302Y-64328223D01*
X103812308Y-64435528D01*
X103817118Y-64446061D01*
X103901951Y-64543965D01*
X104010931Y-64614002D01*
X104061112Y-64628736D01*
X104135225Y-64650497D01*
X104135227Y-64650498D01*
X104223258Y-64650498D01*
X104290297Y-64670183D01*
X104336052Y-64722987D01*
X104345996Y-64792142D01*
X104344867Y-64799995D01*
X104344867Y-64799999D01*
X104363302Y-64928225D01*
X104395524Y-64998780D01*
X104417118Y-65046063D01*
X104501951Y-65143967D01*
X104610931Y-65214004D01*
X104722729Y-65246830D01*
X104735225Y-65250499D01*
X104735227Y-65250500D01*
X104789812Y-65250500D01*
X104856851Y-65270185D01*
X104902606Y-65322989D01*
X104912550Y-65392147D01*
X104883525Y-65455703D01*
X104877493Y-65462181D01*
X104826493Y-65513181D01*
X104765170Y-65546666D01*
X104738812Y-65549500D01*
X104735226Y-65549500D01*
X104610935Y-65585994D01*
X104610932Y-65585995D01*
X104610931Y-65585996D01*
X104559677Y-65618934D01*
X104501950Y-65656033D01*
X104417118Y-65753937D01*
X104417117Y-65753938D01*
X104363302Y-65871774D01*
X104344867Y-66000000D01*
X104363302Y-66128225D01*
X104417117Y-66246061D01*
X104417118Y-66246063D01*
X104501951Y-66343967D01*
X104610931Y-66414004D01*
X104735225Y-66450499D01*
X104735227Y-66450500D01*
X104750137Y-66450500D01*
X104817176Y-66470185D01*
X104862931Y-66522989D01*
X104872875Y-66592147D01*
X104843850Y-66655703D01*
X104837818Y-66662181D01*
X104566881Y-66933117D01*
X104505558Y-66966602D01*
X104444604Y-66964512D01*
X104405000Y-66953006D01*
X104404999Y-67095000D01*
X103905000Y-67595000D01*
X103905000Y-66953006D01*
X103904998Y-66953005D01*
X103748307Y-66998528D01*
X103748304Y-66998530D01*
X103607491Y-67081806D01*
X103607483Y-67081812D01*
X103491813Y-67197482D01*
X103488698Y-67201499D01*
X103432056Y-67242406D01*
X103390717Y-67249500D01*
X103164472Y-67249500D01*
X103113740Y-67256891D01*
X103096828Y-67259355D01*
X102992486Y-67310365D01*
X102967958Y-67334894D01*
X102906635Y-67368379D01*
X102836943Y-67363395D01*
X102813242Y-67351531D01*
X102789069Y-67335996D01*
X102789065Y-67335994D01*
X102789064Y-67335994D01*
X102664774Y-67299500D01*
X102664772Y-67299500D01*
X102535228Y-67299500D01*
X102535226Y-67299500D01*
X102410935Y-67335994D01*
X102410932Y-67335995D01*
X102410931Y-67335996D01*
X102368297Y-67363395D01*
X102301950Y-67406033D01*
X102217118Y-67503937D01*
X102217117Y-67503938D01*
X102163302Y-67621774D01*
X102144867Y-67750000D01*
X102163302Y-67878225D01*
X102189472Y-67935528D01*
X102217118Y-67996063D01*
X102301951Y-68093967D01*
X102410931Y-68164004D01*
X102414681Y-68165105D01*
X102535225Y-68200499D01*
X102535227Y-68200500D01*
X102535228Y-68200500D01*
X102664773Y-68200500D01*
X102664773Y-68200499D01*
X102761225Y-68172179D01*
X102789066Y-68164005D01*
X102789066Y-68164004D01*
X102789069Y-68164004D01*
X102813238Y-68148471D01*
X102880275Y-68128786D01*
X102947315Y-68148470D01*
X102967958Y-68165105D01*
X102983181Y-68180328D01*
X103016666Y-68241651D01*
X103019500Y-68268009D01*
X103019500Y-68429137D01*
X102999815Y-68496176D01*
X102983181Y-68516818D01*
X102750000Y-68749999D01*
X102750000Y-69675500D01*
X102730315Y-69742539D01*
X102677511Y-69788294D01*
X102626000Y-69799500D01*
X102535226Y-69799500D01*
X102410935Y-69835994D01*
X102410932Y-69835995D01*
X102410931Y-69835996D01*
X102369142Y-69862852D01*
X102301950Y-69906033D01*
X102217118Y-70003937D01*
X102217117Y-70003938D01*
X102163302Y-70121774D01*
X102144867Y-70250000D01*
X102163302Y-70378225D01*
X102184436Y-70424500D01*
X102217118Y-70496063D01*
X102301951Y-70593967D01*
X102410931Y-70664004D01*
X102498228Y-70689636D01*
X102535225Y-70700499D01*
X102535227Y-70700500D01*
X102626000Y-70700500D01*
X102693039Y-70720185D01*
X102738794Y-70772989D01*
X102750000Y-70824500D01*
X102750000Y-70925500D01*
X102730315Y-70992539D01*
X102677511Y-71038294D01*
X102626000Y-71049500D01*
X102535228Y-71049500D01*
X102410937Y-71085994D01*
X102410934Y-71085995D01*
X102410933Y-71085996D01*
X102369143Y-71112853D01*
X102301952Y-71156033D01*
X102217120Y-71253937D01*
X102217119Y-71253938D01*
X102163304Y-71371774D01*
X102144869Y-71499999D01*
X102163304Y-71628225D01*
X102205268Y-71720111D01*
X102217120Y-71746063D01*
X102301953Y-71843967D01*
X102410933Y-71914004D01*
X102498230Y-71939636D01*
X102535227Y-71950499D01*
X102535229Y-71950500D01*
X102626000Y-71950500D01*
X102693039Y-71970185D01*
X102738794Y-72022989D01*
X102750000Y-72074500D01*
X102750000Y-72566218D01*
X102730315Y-72633257D01*
X102713681Y-72653899D01*
X102677741Y-72689838D01*
X102677735Y-72689846D01*
X102597032Y-72826308D01*
X102597030Y-72826313D01*
X102552801Y-72978550D01*
X102552801Y-72978551D01*
X102551112Y-72999999D01*
X102551113Y-73000000D01*
X102750000Y-73000000D01*
X102750000Y-73500000D01*
X102551113Y-73500000D01*
X102552801Y-73521448D01*
X102552801Y-73521449D01*
X102597030Y-73673686D01*
X102597034Y-73673695D01*
X102678755Y-73811880D01*
X102695938Y-73879604D01*
X102678755Y-73938120D01*
X102597034Y-74076304D01*
X102597030Y-74076313D01*
X102552801Y-74228550D01*
X102552801Y-74228551D01*
X102551112Y-74249999D01*
X102551113Y-74250000D01*
X102750000Y-74250000D01*
X102750000Y-74750000D01*
X102551113Y-74750000D01*
X102552801Y-74771448D01*
X102552801Y-74771449D01*
X102597030Y-74923686D01*
X102597031Y-74923689D01*
X102598879Y-74926813D01*
X102599581Y-74929581D01*
X102600130Y-74930849D01*
X102599925Y-74930937D01*
X102616063Y-74994537D01*
X102593904Y-75060800D01*
X102559188Y-75094251D01*
X102501955Y-75131032D01*
X102417122Y-75228937D01*
X102417121Y-75228938D01*
X102363306Y-75346774D01*
X102344871Y-75474999D01*
X102363306Y-75603225D01*
X102417121Y-75721061D01*
X102417122Y-75721063D01*
X102501955Y-75818967D01*
X102610935Y-75889004D01*
X102660934Y-75903684D01*
X102719712Y-75941458D01*
X102748738Y-76005013D01*
X102750000Y-76022662D01*
X102750000Y-76410525D01*
X102730315Y-76477564D01*
X102677511Y-76523319D01*
X102608353Y-76533263D01*
X102598416Y-76531418D01*
X102591905Y-76529932D01*
X102459374Y-76515000D01*
X102375000Y-76515000D01*
X102375000Y-78901000D01*
X102355315Y-78968039D01*
X102302511Y-79013794D01*
X102288062Y-79016937D01*
X102280000Y-79024999D01*
X102280000Y-80106000D01*
X102260315Y-80173039D01*
X102207511Y-80218794D01*
X102156000Y-80230000D01*
X101320001Y-80230000D01*
X101320001Y-80522107D01*
X101322744Y-80556972D01*
X101366093Y-80706182D01*
X101366097Y-80706191D01*
X101445187Y-80839927D01*
X101445196Y-80839939D01*
X101555060Y-80949803D01*
X101555072Y-80949812D01*
X101688808Y-81028902D01*
X101688817Y-81028906D01*
X101838023Y-81072255D01*
X101838029Y-81072256D01*
X101872890Y-81074999D01*
X101915307Y-81074999D01*
X101982347Y-81094682D01*
X102028103Y-81147485D01*
X102038048Y-81216643D01*
X102009025Y-81280200D01*
X102002991Y-81286680D01*
X101831803Y-81457870D01*
X101827814Y-81461525D01*
X101796805Y-81487545D01*
X101776562Y-81522606D01*
X101773656Y-81527166D01*
X101750446Y-81560313D01*
X101748206Y-81565117D01*
X101741229Y-81581961D01*
X101739410Y-81586959D01*
X101732383Y-81626811D01*
X101731212Y-81632091D01*
X101720735Y-81671191D01*
X101724264Y-81711513D01*
X101724500Y-81716920D01*
X101724500Y-81752954D01*
X101704815Y-81819993D01*
X101688181Y-81840635D01*
X101672571Y-81856244D01*
X101625548Y-81957085D01*
X101619500Y-82003029D01*
X101619500Y-82996962D01*
X101619501Y-82996968D01*
X101625549Y-83042917D01*
X101662882Y-83122978D01*
X101674500Y-83175381D01*
X101674500Y-83755260D01*
X101654815Y-83822299D01*
X101605071Y-83865401D01*
X101605299Y-83865818D01*
X101603385Y-83866862D01*
X101602011Y-83868054D01*
X101598668Y-83869438D01*
X101597511Y-83870070D01*
X101484597Y-83954597D01*
X101400073Y-84067507D01*
X101400069Y-84067514D01*
X101350782Y-84199661D01*
X101350781Y-84199665D01*
X101344500Y-84258085D01*
X101344500Y-84258092D01*
X101344500Y-84258093D01*
X101344500Y-85241912D01*
X101344501Y-85241918D01*
X101350780Y-85300335D01*
X101400069Y-85432485D01*
X101400070Y-85432487D01*
X101400071Y-85432489D01*
X101484597Y-85545403D01*
X101597511Y-85629929D01*
X101618833Y-85637881D01*
X101674765Y-85679750D01*
X101699184Y-85745214D01*
X101699500Y-85754063D01*
X101699500Y-85942394D01*
X101706962Y-85965358D01*
X101711503Y-85984273D01*
X101714470Y-86003010D01*
X101715281Y-86008127D01*
X101726243Y-86029641D01*
X101733688Y-86047615D01*
X101741150Y-86070580D01*
X101755340Y-86090110D01*
X101765508Y-86106703D01*
X101776470Y-86128218D01*
X102394496Y-86746244D01*
X102427981Y-86807567D01*
X102422997Y-86877259D01*
X102381125Y-86933192D01*
X102377938Y-86935500D01*
X102215060Y-87049547D01*
X102064548Y-87200059D01*
X101942456Y-87374425D01*
X101942455Y-87374427D01*
X101852498Y-87567341D01*
X101852494Y-87567350D01*
X101797406Y-87772944D01*
X101797404Y-87772955D01*
X101778853Y-87984998D01*
X101778853Y-87985001D01*
X101797404Y-88197044D01*
X101797406Y-88197055D01*
X101852494Y-88402649D01*
X101852496Y-88402653D01*
X101852497Y-88402657D01*
X101896834Y-88497738D01*
X101942456Y-88595574D01*
X101942458Y-88595578D01*
X102064543Y-88769933D01*
X102064548Y-88769939D01*
X102215060Y-88920451D01*
X102215066Y-88920456D01*
X102389421Y-89042541D01*
X102389423Y-89042542D01*
X102389426Y-89042544D01*
X102452848Y-89072118D01*
X102505287Y-89118290D01*
X102524439Y-89185484D01*
X102504223Y-89252365D01*
X102451058Y-89297700D01*
X102400443Y-89308500D01*
X101964247Y-89308500D01*
X101905770Y-89320131D01*
X101905769Y-89320132D01*
X101839447Y-89364447D01*
X101795132Y-89430769D01*
X101795131Y-89430770D01*
X101783500Y-89489247D01*
X101783500Y-91560752D01*
X101795131Y-91619229D01*
X101795132Y-91619230D01*
X101839447Y-91685552D01*
X101905769Y-91729867D01*
X101905770Y-91729868D01*
X101964247Y-91741499D01*
X101964250Y-91741500D01*
X102626000Y-91741500D01*
X102693039Y-91761185D01*
X102738794Y-91813989D01*
X102750000Y-91865500D01*
X102750000Y-95376413D01*
X102730315Y-95443452D01*
X102677511Y-95489207D01*
X102615064Y-95498570D01*
X102614986Y-95499766D01*
X102610940Y-95499500D01*
X102610934Y-95499500D01*
X102288272Y-95499500D01*
X102221233Y-95479815D01*
X102187966Y-95445290D01*
X102187043Y-95446007D01*
X102182258Y-95439838D01*
X102070161Y-95327741D01*
X102070153Y-95327735D01*
X101933689Y-95247031D01*
X101933688Y-95247030D01*
X101804999Y-95209642D01*
X101805000Y-96126000D01*
X101785315Y-96193039D01*
X101732511Y-96238794D01*
X101681000Y-96250000D01*
X100801113Y-96250000D01*
X100802801Y-96271448D01*
X100802801Y-96271449D01*
X100847030Y-96423686D01*
X100847032Y-96423691D01*
X100927735Y-96560153D01*
X100927741Y-96560161D01*
X101039838Y-96672258D01*
X101039846Y-96672264D01*
X101176308Y-96752967D01*
X101304049Y-96790079D01*
X101362935Y-96827686D01*
X101392142Y-96891158D01*
X101382396Y-96960345D01*
X101336792Y-97013279D01*
X101323916Y-97020556D01*
X101242487Y-97060364D01*
X101160365Y-97142486D01*
X101109355Y-97246828D01*
X101106539Y-97266156D01*
X101099500Y-97314472D01*
X101099500Y-97685528D01*
X101109355Y-97753170D01*
X101160364Y-97857511D01*
X101233181Y-97930328D01*
X101266665Y-97991649D01*
X101269499Y-98018008D01*
X101269499Y-98044913D01*
X101249814Y-98111952D01*
X101212541Y-98149227D01*
X101201951Y-98156032D01*
X101201949Y-98156034D01*
X101117118Y-98253937D01*
X101117117Y-98253938D01*
X101063302Y-98371774D01*
X101044867Y-98499999D01*
X101063302Y-98628225D01*
X101117117Y-98746061D01*
X101117118Y-98746063D01*
X101201951Y-98843967D01*
X101310931Y-98914004D01*
X101435225Y-98950499D01*
X101435227Y-98950500D01*
X101435228Y-98950500D01*
X101564773Y-98950500D01*
X101564773Y-98950499D01*
X101689069Y-98914004D01*
X101798049Y-98843967D01*
X101882882Y-98746063D01*
X101936697Y-98628226D01*
X101955133Y-98500000D01*
X101943333Y-98417929D01*
X101953277Y-98348772D01*
X101999032Y-98295968D01*
X102066071Y-98276283D01*
X102100666Y-98281207D01*
X102155000Y-98296992D01*
X102155000Y-97374000D01*
X102174685Y-97306961D01*
X102227489Y-97261206D01*
X102279000Y-97250000D01*
X102531000Y-97250000D01*
X102598039Y-97269685D01*
X102643794Y-97322489D01*
X102655000Y-97374000D01*
X102655000Y-98296992D01*
X102700451Y-98331118D01*
X102742243Y-98387111D01*
X102750000Y-98430279D01*
X102750000Y-99875500D01*
X102730315Y-99942539D01*
X102677511Y-99988294D01*
X102626000Y-99999500D01*
X100553482Y-99999500D01*
X100546542Y-99999110D01*
X100528154Y-99997038D01*
X100523659Y-99996532D01*
X100432067Y-99984473D01*
X100407299Y-99978575D01*
X100369469Y-99965338D01*
X100366219Y-99964097D01*
X100304355Y-99938472D01*
X100285836Y-99928905D01*
X100247115Y-99904575D01*
X100242355Y-99901264D01*
X100188358Y-99859831D01*
X100182261Y-99854485D01*
X100145512Y-99817736D01*
X100140167Y-99811640D01*
X100098734Y-99757643D01*
X100095423Y-99752883D01*
X100071093Y-99714162D01*
X100061526Y-99695643D01*
X100035901Y-99633779D01*
X100034674Y-99630566D01*
X100021421Y-99592692D01*
X100015526Y-99567937D01*
X100003468Y-99476349D01*
X100000890Y-99453458D01*
X100000500Y-99446513D01*
X100000500Y-95749999D01*
X100801112Y-95749999D01*
X100801113Y-95750000D01*
X101305000Y-95750000D01*
X101305000Y-95209642D01*
X101176311Y-95247030D01*
X101176310Y-95247031D01*
X101039846Y-95327735D01*
X101039838Y-95327741D01*
X100927741Y-95439838D01*
X100927735Y-95439846D01*
X100847032Y-95576308D01*
X100847030Y-95576313D01*
X100802801Y-95728550D01*
X100802801Y-95728551D01*
X100801112Y-95749999D01*
X100000500Y-95749999D01*
X100000500Y-78000000D01*
X101045000Y-78000000D01*
X101045000Y-78239374D01*
X101059931Y-78371895D01*
X101059933Y-78371905D01*
X101118730Y-78539936D01*
X101118732Y-78539939D01*
X101213445Y-78690674D01*
X101339325Y-78816554D01*
X101483639Y-78907233D01*
X101529930Y-78959568D01*
X101540578Y-79028621D01*
X101512203Y-79092470D01*
X101505349Y-79099908D01*
X101445193Y-79160064D01*
X101445187Y-79160072D01*
X101366097Y-79293808D01*
X101366093Y-79293817D01*
X101322744Y-79443023D01*
X101322743Y-79443029D01*
X101320000Y-79477889D01*
X101320000Y-79770000D01*
X101820000Y-79770000D01*
X101820000Y-78991362D01*
X101839685Y-78924323D01*
X101856319Y-78903681D01*
X101875000Y-78885000D01*
X101875000Y-78000000D01*
X101045000Y-78000000D01*
X100000500Y-78000000D01*
X100000500Y-77500000D01*
X101045000Y-77500000D01*
X101875000Y-77500000D01*
X101875000Y-76515000D01*
X101790625Y-76515000D01*
X101658104Y-76529931D01*
X101658094Y-76529933D01*
X101490063Y-76588730D01*
X101490060Y-76588732D01*
X101339325Y-76683445D01*
X101213445Y-76809325D01*
X101118732Y-76960060D01*
X101118730Y-76960063D01*
X101059933Y-77128094D01*
X101059931Y-77128104D01*
X101045000Y-77260625D01*
X101045000Y-77500000D01*
X100000500Y-77500000D01*
X100000500Y-63049729D01*
X100020185Y-62982690D01*
X100072989Y-62936935D01*
X100142147Y-62926991D01*
X100178302Y-62938009D01*
X100204237Y-62950500D01*
X100204254Y-62950508D01*
X100204882Y-62950647D01*
X100205606Y-62950812D01*
X100205625Y-62950811D01*
X100205626Y-62950812D01*
X100250713Y-62950500D01*
X100295763Y-62950500D01*
X100305077Y-62946013D01*
X100330441Y-62937039D01*
X100751227Y-62837928D01*
X101012495Y-62776391D01*
X101018700Y-62775084D01*
X101032239Y-62772235D01*
X101032254Y-62772227D01*
X101034564Y-62771463D01*
X101036774Y-62770672D01*
X101036786Y-62770670D01*
X101054931Y-62761776D01*
X101378049Y-62612853D01*
X101383237Y-62610742D01*
X101393304Y-62607169D01*
X101397541Y-62604478D01*
X101404803Y-62600523D01*
X101409368Y-62598420D01*
X101417844Y-62591891D01*
X101422414Y-62588690D01*
X101714781Y-62403112D01*
X101719634Y-62400333D01*
X101729144Y-62395444D01*
X101732981Y-62392215D01*
X101739670Y-62387313D01*
X101743897Y-62384632D01*
X101751411Y-62377047D01*
X101755545Y-62373238D01*
X102020538Y-62150365D01*
X102025001Y-62146944D01*
X102027015Y-62145539D01*
X102033761Y-62140840D01*
X102037133Y-62137130D01*
X102043098Y-62131390D01*
X102046943Y-62128157D01*
X102053390Y-62119623D01*
X102056955Y-62115324D01*
X102289897Y-61859089D01*
X102293843Y-61855126D01*
X102301721Y-61847901D01*
X102304574Y-61843765D01*
X102309717Y-61837286D01*
X102313093Y-61833575D01*
X102318343Y-61824262D01*
X102321303Y-61819526D01*
X102332325Y-61803557D01*
X102386611Y-61759568D01*
X102434374Y-61750000D01*
X105225500Y-61750000D01*
X105292539Y-61769685D01*
G37*
%TD.AperFunction*%
%TD*%
%TA.AperFunction,Conductor*%
%TO.N,Net-(U5-S+)*%
G36*
X122193039Y-88519685D02*
G01*
X122238794Y-88572489D01*
X122250000Y-88624000D01*
X122250000Y-91500000D01*
X123179654Y-91500000D01*
X123246693Y-91519685D01*
X123267335Y-91536319D01*
X123339672Y-91608656D01*
X123350649Y-91624125D01*
X123351188Y-91623696D01*
X123359900Y-91634620D01*
X123385498Y-91655034D01*
X123390680Y-91659664D01*
X123396632Y-91665616D01*
X123403098Y-91669678D01*
X123403751Y-91670089D01*
X123409422Y-91674111D01*
X123435027Y-91694531D01*
X123435028Y-91694531D01*
X123435029Y-91694532D01*
X123445947Y-91699789D01*
X123457390Y-91703793D01*
X123457396Y-91703797D01*
X123489944Y-91707464D01*
X123496779Y-91708625D01*
X123504992Y-91710500D01*
X123513403Y-91710500D01*
X123520341Y-91710889D01*
X123552882Y-91714556D01*
X123552882Y-91714555D01*
X123552883Y-91714556D01*
X123566765Y-91712992D01*
X123566842Y-91713677D01*
X123585542Y-91710500D01*
X126611446Y-91710500D01*
X126678485Y-91730185D01*
X126699127Y-91746819D01*
X127310964Y-92358656D01*
X127321941Y-92374125D01*
X127322480Y-92373696D01*
X127331192Y-92384620D01*
X127356790Y-92405034D01*
X127361972Y-92409664D01*
X127367924Y-92415616D01*
X127374390Y-92419678D01*
X127375043Y-92420089D01*
X127380714Y-92424111D01*
X127406319Y-92444531D01*
X127406320Y-92444531D01*
X127406321Y-92444532D01*
X127417239Y-92449789D01*
X127428682Y-92453793D01*
X127428688Y-92453797D01*
X127461236Y-92457464D01*
X127468071Y-92458625D01*
X127476284Y-92460500D01*
X127484695Y-92460500D01*
X127491633Y-92460889D01*
X127524174Y-92464556D01*
X127524174Y-92464555D01*
X127524175Y-92464556D01*
X127538057Y-92462992D01*
X127538134Y-92463677D01*
X127556834Y-92460500D01*
X128693165Y-92460500D01*
X128711864Y-92463677D01*
X128711942Y-92462992D01*
X128725823Y-92464556D01*
X128725824Y-92464555D01*
X128725825Y-92464556D01*
X128758365Y-92460889D01*
X128765304Y-92460500D01*
X128773713Y-92460500D01*
X128773716Y-92460500D01*
X128781928Y-92458625D01*
X128788756Y-92457464D01*
X128821312Y-92453797D01*
X128821314Y-92453795D01*
X128834503Y-92449181D01*
X128836031Y-92453548D01*
X128877132Y-92441886D01*
X128943989Y-92462182D01*
X128989260Y-92515402D01*
X129000000Y-92565881D01*
X129000000Y-93076000D01*
X128980315Y-93143039D01*
X128927511Y-93188794D01*
X128876000Y-93200000D01*
X126400000Y-93200000D01*
X126400000Y-95376000D01*
X126380315Y-95443039D01*
X126327511Y-95488794D01*
X126276000Y-95500000D01*
X125241239Y-95500000D01*
X125174200Y-95480315D01*
X125128445Y-95427511D01*
X125118501Y-95358353D01*
X125142864Y-95300513D01*
X125210363Y-95212547D01*
X125210366Y-95212541D01*
X125269812Y-95069024D01*
X125269814Y-95069019D01*
X125285000Y-94953670D01*
X125285000Y-94875000D01*
X123215000Y-94875000D01*
X123215000Y-94953670D01*
X123230185Y-95069019D01*
X123230187Y-95069024D01*
X123289633Y-95212541D01*
X123289636Y-95212547D01*
X123357136Y-95300513D01*
X123382331Y-95365682D01*
X123368293Y-95434127D01*
X123319479Y-95484117D01*
X123258761Y-95500000D01*
X122741239Y-95500000D01*
X122674200Y-95480315D01*
X122628445Y-95427511D01*
X122618501Y-95358353D01*
X122642864Y-95300513D01*
X122710363Y-95212547D01*
X122710366Y-95212541D01*
X122769812Y-95069024D01*
X122769814Y-95069019D01*
X122785000Y-94953670D01*
X122785000Y-94875000D01*
X120715000Y-94875000D01*
X120715000Y-94953670D01*
X120730185Y-95069019D01*
X120730187Y-95069024D01*
X120789633Y-95212541D01*
X120789636Y-95212547D01*
X120857136Y-95300513D01*
X120882331Y-95365682D01*
X120868293Y-95434127D01*
X120819479Y-95484117D01*
X120758761Y-95500000D01*
X120399499Y-95500000D01*
X120332460Y-95480315D01*
X120286705Y-95427511D01*
X120275499Y-95376000D01*
X120275499Y-94375000D01*
X120715000Y-94375000D01*
X121500000Y-94375000D01*
X121500000Y-93745000D01*
X122000000Y-93745000D01*
X122000000Y-94375000D01*
X122785000Y-94375000D01*
X123215000Y-94375000D01*
X124000000Y-94375000D01*
X124000000Y-93745000D01*
X124500000Y-93745000D01*
X124500000Y-94375000D01*
X125284999Y-94375000D01*
X125285000Y-94296329D01*
X125269814Y-94180980D01*
X125269812Y-94180975D01*
X125210366Y-94037458D01*
X125210366Y-94037457D01*
X125115792Y-93914207D01*
X124992541Y-93819633D01*
X124849024Y-93760187D01*
X124849019Y-93760185D01*
X124733671Y-93745000D01*
X124500000Y-93745000D01*
X124000000Y-93745000D01*
X123766329Y-93745000D01*
X123650980Y-93760185D01*
X123650975Y-93760187D01*
X123507458Y-93819633D01*
X123507457Y-93819633D01*
X123384207Y-93914207D01*
X123289633Y-94037457D01*
X123289633Y-94037458D01*
X123230187Y-94180975D01*
X123230185Y-94180980D01*
X123215000Y-94296329D01*
X123215000Y-94375000D01*
X122785000Y-94375000D01*
X122785000Y-94296329D01*
X122769814Y-94180980D01*
X122769812Y-94180975D01*
X122710366Y-94037458D01*
X122710366Y-94037457D01*
X122615792Y-93914207D01*
X122492541Y-93819633D01*
X122349024Y-93760187D01*
X122349019Y-93760185D01*
X122233671Y-93745000D01*
X122000000Y-93745000D01*
X121500000Y-93745000D01*
X121266329Y-93745000D01*
X121150980Y-93760185D01*
X121150975Y-93760187D01*
X121007458Y-93819633D01*
X121007457Y-93819633D01*
X120884207Y-93914207D01*
X120789633Y-94037457D01*
X120789633Y-94037458D01*
X120730187Y-94180975D01*
X120730185Y-94180980D01*
X120715000Y-94296329D01*
X120715000Y-94375000D01*
X120275499Y-94375000D01*
X120275499Y-94039346D01*
X120277883Y-94015147D01*
X120280897Y-93999999D01*
X120271448Y-93952495D01*
X120259515Y-93892507D01*
X120259515Y-93892505D01*
X120259512Y-93892501D01*
X120259438Y-93892319D01*
X120250000Y-93844868D01*
X120250000Y-91500000D01*
X118905132Y-91500000D01*
X118857677Y-91490560D01*
X118857493Y-91490483D01*
X118772849Y-91473647D01*
X118772816Y-91473641D01*
X118757817Y-91470658D01*
X118750001Y-91469103D01*
X118750000Y-91469103D01*
X118734846Y-91472117D01*
X118710656Y-91474500D01*
X118124000Y-91474500D01*
X118056961Y-91454815D01*
X118011206Y-91402011D01*
X118000000Y-91350500D01*
X118000000Y-91049976D01*
X118019685Y-90982937D01*
X118072489Y-90937182D01*
X118138787Y-90926861D01*
X118206552Y-90935000D01*
X118254999Y-90935000D01*
X118255000Y-90000000D01*
X118755000Y-90000000D01*
X118755000Y-90935000D01*
X118803450Y-90935000D01*
X118892638Y-90924289D01*
X119034571Y-90868318D01*
X119156134Y-90776134D01*
X119248318Y-90654571D01*
X119304289Y-90512638D01*
X119315000Y-90423450D01*
X119315000Y-90000000D01*
X118755000Y-90000000D01*
X118255000Y-90000000D01*
X118255000Y-89624000D01*
X118274685Y-89556961D01*
X118327489Y-89511206D01*
X118379000Y-89500000D01*
X119315000Y-89500000D01*
X119315000Y-89076549D01*
X119304289Y-88987361D01*
X119248318Y-88845428D01*
X119156134Y-88723866D01*
X119154735Y-88722805D01*
X119153775Y-88721506D01*
X119150137Y-88717868D01*
X119150683Y-88717321D01*
X119113211Y-88666613D01*
X119108658Y-88596892D01*
X119142523Y-88535777D01*
X119204052Y-88502673D01*
X119229659Y-88500000D01*
X122126000Y-88500000D01*
X122193039Y-88519685D01*
G37*
%TD.AperFunction*%
%TD*%
M02*
