%TF.GenerationSoftware,KiCad,Pcbnew,7.0.6*%
%TF.CreationDate,2023-08-17T07:35:16+09:30*%
%TF.ProjectId,spe-sink,7370652d-7369-46e6-9b2e-6b696361645f,V1.0*%
%TF.SameCoordinates,Original*%
%TF.FileFunction,Soldermask,Top*%
%TF.FilePolarity,Negative*%
%FSLAX46Y46*%
G04 Gerber Fmt 4.6, Leading zero omitted, Abs format (unit mm)*
G04 Created by KiCad (PCBNEW 7.0.6) date 2023-08-17 07:35:16*
%MOMM*%
%LPD*%
G01*
G04 APERTURE LIST*
G04 Aperture macros list*
%AMRoundRect*
0 Rectangle with rounded corners*
0 $1 Rounding radius*
0 $2 $3 $4 $5 $6 $7 $8 $9 X,Y pos of 4 corners*
0 Add a 4 corners polygon primitive as box body*
4,1,4,$2,$3,$4,$5,$6,$7,$8,$9,$2,$3,0*
0 Add four circle primitives for the rounded corners*
1,1,$1+$1,$2,$3*
1,1,$1+$1,$4,$5*
1,1,$1+$1,$6,$7*
1,1,$1+$1,$8,$9*
0 Add four rect primitives between the rounded corners*
20,1,$1+$1,$2,$3,$4,$5,0*
20,1,$1+$1,$4,$5,$6,$7,0*
20,1,$1+$1,$6,$7,$8,$9,0*
20,1,$1+$1,$8,$9,$2,$3,0*%
%AMFreePoly0*
4,1,45,0.553535,1.028540,0.554999,1.025004,0.554999,-1.025004,0.553535,-1.028540,0.549999,-1.030004,-0.549999,-1.030004,-0.553535,-1.028540,-0.554999,-1.025004,-0.555006,-0.930006,-0.934994,-0.930006,-0.938530,-0.928542,-0.939994,-0.925006,-0.939994,-0.674994,-0.938530,-0.671458,-0.934994,-0.669994,-0.555006,-0.669994,-0.555006,-0.430006,-0.934994,-0.430006,-0.938530,-0.428542,-0.939994,-0.425006,
-0.939994,-0.174994,-0.938530,-0.171458,-0.934994,-0.169994,-0.555006,-0.169994,-0.555006,0.069994,-0.934994,0.069994,-0.938530,0.071458,-0.939994,0.074994,-0.939994,0.325006,-0.938530,0.328542,-0.934994,0.330006,-0.555006,0.330006,-0.555006,0.569994,-0.934994,0.569994,-0.938530,0.571458,-0.939994,0.574994,-0.939994,0.825006,-0.938530,0.828542,-0.934994,0.830006,-0.555006,0.830006,
-0.554999,1.025004,-0.553535,1.028540,-0.549999,1.030004,0.549999,1.030004,0.553535,1.028540,0.553535,1.028540,$1*%
%AMFreePoly1*
4,1,45,0.553535,1.028540,0.554999,1.025004,0.555006,0.830006,0.934994,0.830006,0.938530,0.828542,0.939994,0.825006,0.939994,0.574994,0.938530,0.571458,0.934994,0.569994,0.555006,0.569994,0.555006,0.330006,0.934994,0.330006,0.938530,0.328542,0.939994,0.325006,0.939994,0.074994,0.938530,0.071458,0.934994,0.069994,0.555006,0.069994,0.555006,-0.169994,0.934994,-0.169994,
0.938530,-0.171458,0.939994,-0.174994,0.939994,-0.425006,0.938530,-0.428542,0.934994,-0.430006,0.555006,-0.430006,0.555006,-0.669994,0.934994,-0.669994,0.938530,-0.671458,0.939994,-0.674994,0.939994,-0.925006,0.938530,-0.928542,0.934994,-0.930006,0.555006,-0.930006,0.554999,-1.025004,0.553535,-1.028540,0.549999,-1.030004,-0.549999,-1.030004,-0.553535,-1.028540,-0.554999,-1.025004,
-0.554999,1.025004,-0.553535,1.028540,-0.549999,1.030004,0.549999,1.030004,0.553535,1.028540,0.553535,1.028540,$1*%
%AMFreePoly2*
4,1,21,-0.125000,1.200000,0.125000,1.200000,0.125000,1.700000,0.375000,1.700000,0.375000,1.200000,0.825000,1.200000,0.825000,-1.200000,0.375000,-1.200000,0.375000,-1.700000,0.125000,-1.700000,0.125000,-1.200000,-0.125000,-1.200000,-0.125000,-1.700000,-0.375000,-1.700000,-0.375000,-1.200000,-0.825000,-1.200000,-0.825000,1.200000,-0.375000,1.200000,-0.375000,1.700000,-0.125000,1.700000,
-0.125000,1.200000,-0.125000,1.200000,$1*%
G04 Aperture macros list end*
%ADD10RoundRect,0.212500X0.277500X-0.212500X0.277500X0.212500X-0.277500X0.212500X-0.277500X-0.212500X0*%
%ADD11RoundRect,0.152500X-0.437500X0.152500X-0.437500X-0.152500X0.437500X-0.152500X0.437500X0.152500X0*%
%ADD12RoundRect,0.100000X0.100000X-0.350000X0.100000X0.350000X-0.100000X0.350000X-0.100000X-0.350000X0*%
%ADD13RoundRect,0.127500X-0.127500X-0.172500X0.127500X-0.172500X0.127500X0.172500X-0.127500X0.172500X0*%
%ADD14R,1.200000X2.000000*%
%ADD15RoundRect,0.127500X0.127500X0.172500X-0.127500X0.172500X-0.127500X-0.172500X0.127500X-0.172500X0*%
%ADD16RoundRect,0.100000X0.600000X0.600000X-0.600000X0.600000X-0.600000X-0.600000X0.600000X-0.600000X0*%
%ADD17RoundRect,0.127500X0.172500X-0.127500X0.172500X0.127500X-0.172500X0.127500X-0.172500X-0.127500X0*%
%ADD18RoundRect,0.147500X-0.147500X-0.152500X0.147500X-0.152500X0.147500X0.152500X-0.147500X0.152500X0*%
%ADD19R,3.000000X4.000000*%
%ADD20RoundRect,0.120000X0.120000X-0.485000X0.120000X0.485000X-0.120000X0.485000X-0.120000X-0.485000X0*%
%ADD21RoundRect,0.062500X0.350000X0.062500X-0.350000X0.062500X-0.350000X-0.062500X0.350000X-0.062500X0*%
%ADD22RoundRect,0.062500X0.062500X0.350000X-0.062500X0.350000X-0.062500X-0.350000X0.062500X-0.350000X0*%
%ADD23R,3.500000X3.500000*%
%ADD24R,1.220000X0.580000*%
%ADD25RoundRect,0.212500X-0.212500X-0.277500X0.212500X-0.277500X0.212500X0.277500X-0.212500X0.277500X0*%
%ADD26RoundRect,0.230000X-0.230000X-0.255000X0.230000X-0.255000X0.230000X0.255000X-0.230000X0.255000X0*%
%ADD27RoundRect,0.230000X0.230000X0.255000X-0.230000X0.255000X-0.230000X-0.255000X0.230000X-0.255000X0*%
%ADD28RoundRect,0.152500X0.437500X-0.152500X0.437500X0.152500X-0.437500X0.152500X-0.437500X-0.152500X0*%
%ADD29RoundRect,0.212500X-0.277500X0.212500X-0.277500X-0.212500X0.277500X-0.212500X0.277500X0.212500X0*%
%ADD30RoundRect,0.230000X-0.255000X0.230000X-0.255000X-0.230000X0.255000X-0.230000X0.255000X0.230000X0*%
%ADD31RoundRect,0.115000X0.115000X-0.460000X0.115000X0.460000X-0.115000X0.460000X-0.115000X-0.460000X0*%
%ADD32R,0.370002X1.124991*%
%ADD33R,0.250012X1.099998*%
%ADD34FreePoly0,270.000000*%
%ADD35FreePoly1,270.000000*%
%ADD36R,0.800000X0.250000*%
%ADD37R,1.520012X0.299999*%
%ADD38RoundRect,0.147500X0.152500X-0.147500X0.152500X0.147500X-0.152500X0.147500X-0.152500X-0.147500X0*%
%ADD39R,2.000000X2.000000*%
%ADD40C,2.000000*%
%ADD41RoundRect,0.147500X0.147500X0.152500X-0.147500X0.152500X-0.147500X-0.152500X0.147500X-0.152500X0*%
%ADD42RoundRect,0.255000X-0.255000X-0.630000X0.255000X-0.630000X0.255000X0.630000X-0.255000X0.630000X0*%
%ADD43RoundRect,0.290000X0.290000X0.445000X-0.290000X0.445000X-0.290000X-0.445000X0.290000X-0.445000X0*%
%ADD44RoundRect,0.100000X-0.100000X0.350000X-0.100000X-0.350000X0.100000X-0.350000X0.100000X0.350000X0*%
%ADD45R,1.200000X0.500000*%
%ADD46R,0.420000X0.500000*%
%ADD47RoundRect,0.290000X-0.620000X0.290000X-0.620000X-0.290000X0.620000X-0.290000X0.620000X0.290000X0*%
%ADD48R,1.090000X1.190000*%
%ADD49RoundRect,0.227500X-0.237500X0.227500X-0.237500X-0.227500X0.237500X-0.227500X0.237500X0.227500X0*%
%ADD50R,1.730000X2.230000*%
%ADD51RoundRect,0.101600X0.175000X0.725000X-0.175000X0.725000X-0.175000X-0.725000X0.175000X-0.725000X0*%
%ADD52C,0.657200*%
%ADD53RoundRect,0.290000X-0.445000X0.290000X-0.445000X-0.290000X0.445000X-0.290000X0.445000X0.290000X0*%
%ADD54RoundRect,0.290000X0.445000X-0.290000X0.445000X0.290000X-0.445000X0.290000X-0.445000X-0.290000X0*%
%ADD55RoundRect,0.290000X0.620000X-0.290000X0.620000X0.290000X-0.620000X0.290000X-0.620000X-0.290000X0*%
%ADD56R,0.240000X0.600000*%
%ADD57FreePoly2,270.000000*%
%ADD58RoundRect,0.147500X-0.152500X0.147500X-0.152500X-0.147500X0.152500X-0.147500X0.152500X0.147500X0*%
%ADD59RoundRect,0.127500X-0.172500X0.127500X-0.172500X-0.127500X0.172500X-0.127500X0.172500X0.127500X0*%
%ADD60R,2.032000X2.032000*%
%ADD61O,2.032000X2.032000*%
G04 APERTURE END LIST*
%TO.C,X2*%
G36*
X100358947Y-57273527D02*
G01*
X100711752Y-57343704D01*
X101052379Y-57459331D01*
X101375000Y-57618430D01*
X101674094Y-57818278D01*
X101944544Y-58055456D01*
X102181722Y-58325906D01*
X102381570Y-58625000D01*
X102540669Y-58947621D01*
X102656296Y-59288248D01*
X102750000Y-60000000D01*
X102726473Y-60358947D01*
X102656296Y-60711752D01*
X102540669Y-61052379D01*
X102381570Y-61375000D01*
X102181722Y-61674094D01*
X101944544Y-61944544D01*
X101674094Y-62181722D01*
X101375000Y-62381570D01*
X101052379Y-62540669D01*
X100711752Y-62656296D01*
X100358947Y-62726473D01*
X100000000Y-62750000D01*
X100000000Y-61750000D01*
X100303884Y-61723414D01*
X100598535Y-61644462D01*
X100875000Y-61515544D01*
X101124878Y-61340578D01*
X101340578Y-61124878D01*
X101515544Y-60875000D01*
X101644462Y-60598535D01*
X101723414Y-60303884D01*
X101750000Y-60000000D01*
X101723414Y-59696116D01*
X101644462Y-59401465D01*
X101515544Y-59125000D01*
X101340578Y-58875122D01*
X101124878Y-58659422D01*
X100875000Y-58484456D01*
X100598535Y-58355538D01*
X100000000Y-58250000D01*
X100000000Y-57250000D01*
X100358947Y-57273527D01*
G37*
G36*
X138000000Y-58250000D02*
G01*
X137696116Y-58276586D01*
X137401465Y-58355538D01*
X137125000Y-58484456D01*
X136875122Y-58659422D01*
X136659422Y-58875122D01*
X136484456Y-59125000D01*
X136355538Y-59401465D01*
X136276586Y-59696116D01*
X136250000Y-60000000D01*
X136276586Y-60303884D01*
X136355538Y-60598535D01*
X136484456Y-60875000D01*
X136659422Y-61124878D01*
X136875122Y-61340578D01*
X137125000Y-61515544D01*
X137401465Y-61644462D01*
X138000000Y-61750000D01*
X138000000Y-62750000D01*
X137641053Y-62726473D01*
X137288248Y-62656296D01*
X136947621Y-62540669D01*
X136625000Y-62381570D01*
X136325906Y-62181722D01*
X136055456Y-61944544D01*
X135818278Y-61674094D01*
X135618430Y-61375000D01*
X135459331Y-61052379D01*
X135343704Y-60711752D01*
X135250000Y-60000000D01*
X135273527Y-59641053D01*
X135343704Y-59288248D01*
X135459331Y-58947621D01*
X135618430Y-58625000D01*
X135818278Y-58325906D01*
X136055456Y-58055456D01*
X136325906Y-57818278D01*
X136625000Y-57618430D01*
X136947621Y-57459331D01*
X137288248Y-57343704D01*
X137641053Y-57273527D01*
X138000000Y-57250000D01*
X138000000Y-58250000D01*
G37*
%TD*%
D10*
%TO.C,R26*%
X121250000Y-56725000D03*
X121250000Y-58275000D03*
%TD*%
%TO.C,R21*%
X105000000Y-49225000D03*
X105000000Y-50775000D03*
%TD*%
%TO.C,R16*%
X107500000Y-49225000D03*
X107500000Y-50775000D03*
%TD*%
D11*
%TO.C,Q1*%
X117025000Y-85450000D03*
X117025000Y-83550000D03*
X114975000Y-84500000D03*
%TD*%
D12*
%TO.C,R19*%
X102050000Y-56100000D03*
X102850000Y-56100000D03*
X103650000Y-56100000D03*
X104450000Y-56100000D03*
X104450000Y-54400000D03*
X103650000Y-54400000D03*
X102850000Y-54400000D03*
X102050000Y-54400000D03*
%TD*%
D13*
%TO.C,R6*%
X113195000Y-85500000D03*
X112305000Y-85500000D03*
%TD*%
D14*
%TO.C,L3*%
X132520000Y-43750000D03*
X129980000Y-43750000D03*
X129980000Y-51250000D03*
X132520000Y-51250000D03*
%TD*%
D15*
%TO.C,R30*%
X133805000Y-94750000D03*
X134695000Y-94750000D03*
%TD*%
D16*
%TO.C,D4*%
X130750000Y-85200000D03*
X130750000Y-79300000D03*
X133250000Y-79300000D03*
X133250000Y-85200000D03*
%TD*%
D17*
%TO.C,R18*%
X111975000Y-61305000D03*
X111975000Y-62195000D03*
%TD*%
D18*
%TO.C,C7*%
X106655000Y-65500000D03*
X105845000Y-65500000D03*
%TD*%
D10*
%TO.C,R8*%
X119250000Y-83725000D03*
X119250000Y-85275000D03*
%TD*%
D19*
%TO.C,L2*%
X131750000Y-74750000D03*
X131750000Y-66750000D03*
X126750000Y-66750000D03*
X126750000Y-74750000D03*
%TD*%
D15*
%TO.C,R14*%
X103305000Y-73250000D03*
X104195000Y-73250000D03*
%TD*%
D20*
%TO.C,U5*%
X115525000Y-95505000D03*
X116175000Y-95505000D03*
X116825000Y-95505000D03*
X117475000Y-95505000D03*
X117475000Y-92995000D03*
X116825000Y-92995000D03*
X116175000Y-92995000D03*
X115525000Y-92995000D03*
%TD*%
D18*
%TO.C,C6*%
X106655000Y-64250000D03*
X105845000Y-64250000D03*
%TD*%
D21*
%TO.C,U4*%
X112937500Y-74250000D03*
X112937500Y-73750000D03*
X112937500Y-73250000D03*
X112937500Y-72750000D03*
X112937500Y-72250000D03*
X112937500Y-71750000D03*
X112937500Y-71250000D03*
X112937500Y-70750000D03*
X112937500Y-70250000D03*
X112937500Y-69750000D03*
D22*
X112250000Y-69062500D03*
X111750000Y-69062500D03*
X111250000Y-69062500D03*
X110750000Y-69062500D03*
X110250000Y-69062500D03*
X109750000Y-69062500D03*
X109250000Y-69062500D03*
X108750000Y-69062500D03*
X108250000Y-69062500D03*
X107750000Y-69062500D03*
D21*
X107062500Y-69750000D03*
X107062500Y-70250000D03*
X107062500Y-70750000D03*
X107062500Y-71250000D03*
X107062500Y-71750000D03*
X107062500Y-72250000D03*
X107062500Y-72750000D03*
X107062500Y-73250000D03*
X107062500Y-73750000D03*
X107062500Y-74250000D03*
D22*
X107750000Y-74937500D03*
X108250000Y-74937500D03*
X108750000Y-74937500D03*
X109250000Y-74937500D03*
X109750000Y-74937500D03*
X110250000Y-74937500D03*
X110750000Y-74937500D03*
X111250000Y-74937500D03*
X111750000Y-74937500D03*
X112250000Y-74937500D03*
D23*
X110000000Y-72000000D03*
%TD*%
D18*
%TO.C,C16*%
X104155000Y-69000000D03*
X103345000Y-69000000D03*
%TD*%
D24*
%TO.C,IC1*%
X110345000Y-97405000D03*
X110345000Y-96135000D03*
X110345000Y-94865000D03*
X110345000Y-93595000D03*
X104655000Y-93595000D03*
X104655000Y-94865000D03*
X104655000Y-96135000D03*
X104655000Y-97405000D03*
%TD*%
D25*
%TO.C,R23*%
X112275000Y-65750000D03*
X110725000Y-65750000D03*
%TD*%
D26*
%TO.C,C24*%
X122025000Y-60750000D03*
X120475000Y-60750000D03*
%TD*%
D13*
%TO.C,R3*%
X113195000Y-82500000D03*
X112305000Y-82500000D03*
%TD*%
D17*
%TO.C,R2*%
X120250000Y-80805000D03*
X120250000Y-81695000D03*
%TD*%
D18*
%TO.C,C12*%
X106655000Y-61750000D03*
X105845000Y-61750000D03*
%TD*%
D27*
%TO.C,C11*%
X116725000Y-67000000D03*
X118275000Y-67000000D03*
%TD*%
D28*
%TO.C,U2*%
X114975000Y-79050000D03*
X114975000Y-80000000D03*
X114975000Y-80950000D03*
X117025000Y-80950000D03*
X117025000Y-80000000D03*
X117025000Y-79050000D03*
%TD*%
D13*
%TO.C,R34*%
X125945000Y-90750000D03*
X125055000Y-90750000D03*
%TD*%
D29*
%TO.C,R7*%
X121250000Y-85275000D03*
X121250000Y-83725000D03*
%TD*%
D30*
%TO.C,C1*%
X127750000Y-80775000D03*
X127750000Y-79225000D03*
%TD*%
D31*
%TO.C,U6*%
X102050000Y-82500000D03*
X103000000Y-82500000D03*
X103950000Y-82500000D03*
X103950000Y-80000000D03*
X102050000Y-80000000D03*
%TD*%
D15*
%TO.C,R12*%
X101555000Y-96000000D03*
X102445000Y-96000000D03*
%TD*%
D32*
%TO.C,U7*%
X130960000Y-94112500D03*
D33*
X130150000Y-94100000D03*
X129650000Y-94100000D03*
D34*
X128000000Y-94500000D03*
D35*
X128000000Y-96500000D03*
D33*
X129650000Y-96900000D03*
X130150000Y-96900000D03*
D32*
X130960000Y-96887500D03*
D36*
X131059998Y-95999999D03*
D37*
X130690000Y-95500000D03*
D36*
X131059998Y-95000001D03*
%TD*%
D38*
%TO.C,C14*%
X109750000Y-77345000D03*
X109750000Y-78155000D03*
%TD*%
D39*
%TO.C,J1*%
X121540000Y-51580000D03*
X121540000Y-46500000D03*
D40*
X119000000Y-51580000D03*
X119000000Y-46500000D03*
X116460000Y-51580000D03*
X116460000Y-46500000D03*
%TD*%
D41*
%TO.C,C4*%
X133845000Y-91750000D03*
X134655000Y-91750000D03*
%TD*%
D18*
%TO.C,C13*%
X106655000Y-63000000D03*
X105845000Y-63000000D03*
%TD*%
D42*
%TO.C,R27*%
X118505000Y-89750000D03*
X115495000Y-89750000D03*
%TD*%
D43*
%TO.C,C18*%
X102125000Y-84750000D03*
X103875000Y-84750000D03*
%TD*%
D13*
%TO.C,R4*%
X113195000Y-81000000D03*
X112305000Y-81000000D03*
%TD*%
D38*
%TO.C,C15*%
X108500000Y-77345000D03*
X108500000Y-78155000D03*
%TD*%
D44*
%TO.C,R13*%
X108700000Y-54400000D03*
X107900000Y-54400000D03*
X107100000Y-54400000D03*
X106300000Y-54400000D03*
X106300000Y-56100000D03*
X107100000Y-56100000D03*
X107900000Y-56100000D03*
X108700000Y-56100000D03*
%TD*%
D25*
%TO.C,R20*%
X111525000Y-64000000D03*
X109975000Y-64000000D03*
%TD*%
D45*
%TO.C,L1*%
X127270000Y-60200000D03*
X127270000Y-59550000D03*
D46*
X126870000Y-57500000D03*
X127720000Y-57500000D03*
D45*
X131250000Y-60200000D03*
X131250000Y-58150000D03*
X131250000Y-57500000D03*
%TD*%
D47*
%TO.C,C29*%
X119000000Y-58225000D03*
X119000000Y-55275000D03*
%TD*%
D28*
%TO.C,D7*%
X116225000Y-60800000D03*
X116225000Y-62700000D03*
X118275000Y-61750000D03*
%TD*%
D29*
%TO.C,R28*%
X110000000Y-50775000D03*
X110000000Y-49225000D03*
%TD*%
D41*
%TO.C,C32*%
X122845000Y-90750000D03*
X123655000Y-90750000D03*
%TD*%
D10*
%TO.C,R29*%
X113750000Y-56725000D03*
X113750000Y-58275000D03*
%TD*%
D48*
%TO.C,X1*%
X116640000Y-69090000D03*
X116640000Y-71410000D03*
X118360000Y-71410000D03*
X118360000Y-69090000D03*
%TD*%
D15*
%TO.C,R5*%
X112305000Y-84000000D03*
X113195000Y-84000000D03*
%TD*%
D11*
%TO.C,U1*%
X125525000Y-80950000D03*
X125525000Y-79050000D03*
X123475000Y-80000000D03*
%TD*%
D17*
%TO.C,R25*%
X110750000Y-61305000D03*
X110750000Y-62195000D03*
%TD*%
D18*
%TO.C,C17*%
X104155000Y-67750000D03*
X103345000Y-67750000D03*
%TD*%
D26*
%TO.C,C22*%
X122025000Y-62750000D03*
X120475000Y-62750000D03*
%TD*%
D13*
%TO.C,R32*%
X125945000Y-89250000D03*
X125055000Y-89250000D03*
%TD*%
D41*
%TO.C,C27*%
X133845000Y-97750000D03*
X134655000Y-97750000D03*
%TD*%
D49*
%TO.C,D5*%
X110000000Y-42510000D03*
X110000000Y-40990000D03*
%TD*%
D10*
%TO.C,R15*%
X121300000Y-72725000D03*
X121300000Y-74275000D03*
%TD*%
D50*
%TO.C,D6*%
X112640000Y-89000000D03*
X108360000Y-89000000D03*
%TD*%
D51*
%TO.C,X2*%
X128250000Y-102725000D03*
X127750000Y-102725000D03*
X127250000Y-102725000D03*
X126750000Y-102725000D03*
X126250000Y-102725000D03*
X125750000Y-102725000D03*
X125250000Y-102725000D03*
X124750000Y-102725000D03*
X124250000Y-102725000D03*
X123750000Y-102725000D03*
X123250000Y-102725000D03*
X122750000Y-102725000D03*
X120250000Y-102725000D03*
X119750000Y-102725000D03*
X119250000Y-102725000D03*
X118750000Y-102725000D03*
X118250000Y-102725000D03*
X117750000Y-102725000D03*
X117250000Y-102725000D03*
X116750000Y-102725000D03*
X116250000Y-102725000D03*
X115750000Y-102725000D03*
X115250000Y-102725000D03*
X114750000Y-102725000D03*
X114250000Y-102725000D03*
X113750000Y-102725000D03*
X113250000Y-102725000D03*
X112750000Y-102725000D03*
X112250000Y-102725000D03*
X111750000Y-102725000D03*
X111250000Y-102725000D03*
X110750000Y-102725000D03*
X110250000Y-102725000D03*
X109750000Y-102725000D03*
D52*
X101000000Y-57900000D03*
X101000000Y-62100000D03*
X102300000Y-60000000D03*
X135700000Y-60000000D03*
X137000000Y-57900000D03*
X137000000Y-62100000D03*
%TD*%
D53*
%TO.C,C31*%
X134250000Y-90125000D03*
X134250000Y-88375000D03*
%TD*%
D27*
%TO.C,C23*%
X132450000Y-62750000D03*
X134000000Y-62750000D03*
%TD*%
D54*
%TO.C,C2*%
X121250000Y-76375000D03*
X121250000Y-78125000D03*
%TD*%
D53*
%TO.C,C25*%
X123750000Y-58125000D03*
X123750000Y-56375000D03*
%TD*%
D49*
%TO.C,D2*%
X102500000Y-42510000D03*
X102500000Y-40990000D03*
%TD*%
%TO.C,D3*%
X105000000Y-42510000D03*
X105000000Y-40990000D03*
%TD*%
D55*
%TO.C,C30*%
X116250000Y-55275000D03*
X116250000Y-58225000D03*
%TD*%
D38*
%TO.C,C28*%
X119250000Y-93845000D03*
X119250000Y-94655000D03*
%TD*%
D13*
%TO.C,R36*%
X123695000Y-87750000D03*
X122805000Y-87750000D03*
%TD*%
%TO.C,R35*%
X125945000Y-87750000D03*
X125055000Y-87750000D03*
%TD*%
D15*
%TO.C,R10*%
X103305000Y-74500000D03*
X104195000Y-74500000D03*
%TD*%
D11*
%TO.C,U3*%
X125525000Y-85450000D03*
X125525000Y-83550000D03*
X123475000Y-84500000D03*
%TD*%
D18*
%TO.C,C8*%
X104155000Y-71500000D03*
X103345000Y-71500000D03*
%TD*%
D38*
%TO.C,C3*%
X119000000Y-80845000D03*
X119000000Y-81655000D03*
%TD*%
D17*
%TO.C,R24*%
X109500000Y-61305000D03*
X109500000Y-62195000D03*
%TD*%
D56*
%TO.C,U8*%
X130750000Y-87850000D03*
X130250000Y-87850000D03*
X129750000Y-87850000D03*
X129250000Y-87850000D03*
X128750000Y-87850000D03*
X128750000Y-90650000D03*
X129250000Y-90650000D03*
X129750000Y-90650000D03*
X130250000Y-90650000D03*
X130750000Y-90650000D03*
D57*
X129750000Y-89250000D03*
%TD*%
D18*
%TO.C,C20*%
X102405000Y-97500000D03*
X101595000Y-97500000D03*
%TD*%
D58*
%TO.C,C19*%
X113750000Y-94655000D03*
X113750000Y-93845000D03*
%TD*%
D13*
%TO.C,R33*%
X134695000Y-96250000D03*
X133805000Y-96250000D03*
%TD*%
D10*
%TO.C,R17*%
X102500000Y-49225000D03*
X102500000Y-50775000D03*
%TD*%
D49*
%TO.C,D1*%
X107500000Y-42510000D03*
X107500000Y-40990000D03*
%TD*%
D54*
%TO.C,C26*%
X124250000Y-94625000D03*
X124250000Y-96375000D03*
%TD*%
D18*
%TO.C,C9*%
X104155000Y-70250000D03*
X103345000Y-70250000D03*
%TD*%
D10*
%TO.C,R11*%
X106000000Y-80475000D03*
X106000000Y-82025000D03*
%TD*%
D43*
%TO.C,C21*%
X102125000Y-77750000D03*
X103875000Y-77750000D03*
%TD*%
D10*
%TO.C,R9*%
X127750000Y-83725000D03*
X127750000Y-85275000D03*
%TD*%
D26*
%TO.C,C10*%
X118275000Y-73500000D03*
X116725000Y-73500000D03*
%TD*%
D59*
%TO.C,R1*%
X121500000Y-81695000D03*
X121500000Y-80805000D03*
%TD*%
D54*
%TO.C,C5*%
X121750000Y-94625000D03*
X121750000Y-96375000D03*
%TD*%
D17*
%TO.C,R22*%
X113250000Y-61305000D03*
X113250000Y-62195000D03*
%TD*%
D15*
%TO.C,R31*%
X133805000Y-93250000D03*
X134695000Y-93250000D03*
%TD*%
D60*
%TO.C,P2*%
X103000000Y-90525000D03*
D61*
X103000000Y-87985000D03*
%TD*%
M02*
