%TF.GenerationSoftware,KiCad,Pcbnew,7.0.6*%
%TF.CreationDate,2023-08-17T07:35:15+09:30*%
%TF.ProjectId,spe-sink,7370652d-7369-46e6-9b2e-6b696361645f,V1.0*%
%TF.SameCoordinates,Original*%
%TF.FileFunction,Legend,Top*%
%TF.FilePolarity,Positive*%
%FSLAX46Y46*%
G04 Gerber Fmt 4.6, Leading zero omitted, Abs format (unit mm)*
G04 Created by KiCad (PCBNEW 7.0.6) date 2023-08-17 07:35:15*
%MOMM*%
%LPD*%
G01*
G04 APERTURE LIST*
%ADD10C,0.140000*%
%ADD11C,0.150000*%
%ADD12C,0.180000*%
%ADD13C,0.120000*%
%ADD14C,0.200000*%
%ADD15C,0.152400*%
%ADD16C,0.254000*%
%ADD17C,0.400000*%
%ADD18C,0.130000*%
G04 APERTURE END LIST*
D10*
X107862815Y-45363533D02*
X107862815Y-45649247D01*
X107862815Y-45649247D02*
X107062815Y-45649247D01*
X107443767Y-45163533D02*
X107443767Y-44963533D01*
X107862815Y-44877819D02*
X107862815Y-45163533D01*
X107862815Y-45163533D02*
X107062815Y-45163533D01*
X107062815Y-45163533D02*
X107062815Y-44877819D01*
X107862815Y-44620676D02*
X107062815Y-44620676D01*
X107062815Y-44620676D02*
X107062815Y-44477819D01*
X107062815Y-44477819D02*
X107100910Y-44392105D01*
X107100910Y-44392105D02*
X107177100Y-44334962D01*
X107177100Y-44334962D02*
X107253291Y-44306391D01*
X107253291Y-44306391D02*
X107405672Y-44277819D01*
X107405672Y-44277819D02*
X107519958Y-44277819D01*
X107519958Y-44277819D02*
X107672339Y-44306391D01*
X107672339Y-44306391D02*
X107748529Y-44334962D01*
X107748529Y-44334962D02*
X107824720Y-44392105D01*
X107824720Y-44392105D02*
X107862815Y-44477819D01*
X107862815Y-44477819D02*
X107862815Y-44620676D01*
X107062815Y-43906391D02*
X107062815Y-43849248D01*
X107062815Y-43849248D02*
X107100910Y-43792105D01*
X107100910Y-43792105D02*
X107139005Y-43763534D01*
X107139005Y-43763534D02*
X107215196Y-43734962D01*
X107215196Y-43734962D02*
X107367577Y-43706391D01*
X107367577Y-43706391D02*
X107558053Y-43706391D01*
X107558053Y-43706391D02*
X107710434Y-43734962D01*
X107710434Y-43734962D02*
X107786624Y-43763534D01*
X107786624Y-43763534D02*
X107824720Y-43792105D01*
X107824720Y-43792105D02*
X107862815Y-43849248D01*
X107862815Y-43849248D02*
X107862815Y-43906391D01*
X107862815Y-43906391D02*
X107824720Y-43963534D01*
X107824720Y-43963534D02*
X107786624Y-43992105D01*
X107786624Y-43992105D02*
X107710434Y-44020676D01*
X107710434Y-44020676D02*
X107558053Y-44049248D01*
X107558053Y-44049248D02*
X107367577Y-44049248D01*
X107367577Y-44049248D02*
X107215196Y-44020676D01*
X107215196Y-44020676D02*
X107139005Y-43992105D01*
X107139005Y-43992105D02*
X107100910Y-43963534D01*
X107100910Y-43963534D02*
X107062815Y-43906391D01*
D11*
X106282561Y-90060588D02*
X106330180Y-89965350D01*
X106330180Y-89965350D02*
X106330180Y-89822493D01*
X106330180Y-89822493D02*
X106282561Y-89679636D01*
X106282561Y-89679636D02*
X106187323Y-89584398D01*
X106187323Y-89584398D02*
X106092085Y-89536779D01*
X106092085Y-89536779D02*
X105901609Y-89489160D01*
X105901609Y-89489160D02*
X105758752Y-89489160D01*
X105758752Y-89489160D02*
X105568276Y-89536779D01*
X105568276Y-89536779D02*
X105473038Y-89584398D01*
X105473038Y-89584398D02*
X105377800Y-89679636D01*
X105377800Y-89679636D02*
X105330180Y-89822493D01*
X105330180Y-89822493D02*
X105330180Y-89917731D01*
X105330180Y-89917731D02*
X105377800Y-90060588D01*
X105377800Y-90060588D02*
X105425419Y-90108207D01*
X105425419Y-90108207D02*
X105758752Y-90108207D01*
X105758752Y-90108207D02*
X105758752Y-89917731D01*
X105330180Y-90536779D02*
X106330180Y-90536779D01*
X106330180Y-90536779D02*
X105330180Y-91108207D01*
X105330180Y-91108207D02*
X106330180Y-91108207D01*
X105330180Y-91584398D02*
X106330180Y-91584398D01*
X106330180Y-91584398D02*
X106330180Y-91822493D01*
X106330180Y-91822493D02*
X106282561Y-91965350D01*
X106282561Y-91965350D02*
X106187323Y-92060588D01*
X106187323Y-92060588D02*
X106092085Y-92108207D01*
X106092085Y-92108207D02*
X105901609Y-92155826D01*
X105901609Y-92155826D02*
X105758752Y-92155826D01*
X105758752Y-92155826D02*
X105568276Y-92108207D01*
X105568276Y-92108207D02*
X105473038Y-92060588D01*
X105473038Y-92060588D02*
X105377800Y-91965350D01*
X105377800Y-91965350D02*
X105330180Y-91822493D01*
X105330180Y-91822493D02*
X105330180Y-91584398D01*
D12*
X106331740Y-87632706D02*
X106331740Y-87156516D01*
X106331740Y-87156516D02*
X105855550Y-87108897D01*
X105855550Y-87108897D02*
X105903169Y-87156516D01*
X105903169Y-87156516D02*
X105950788Y-87251754D01*
X105950788Y-87251754D02*
X105950788Y-87489849D01*
X105950788Y-87489849D02*
X105903169Y-87585087D01*
X105903169Y-87585087D02*
X105855550Y-87632706D01*
X105855550Y-87632706D02*
X105760312Y-87680325D01*
X105760312Y-87680325D02*
X105522217Y-87680325D01*
X105522217Y-87680325D02*
X105426979Y-87632706D01*
X105426979Y-87632706D02*
X105379360Y-87585087D01*
X105379360Y-87585087D02*
X105331740Y-87489849D01*
X105331740Y-87489849D02*
X105331740Y-87251754D01*
X105331740Y-87251754D02*
X105379360Y-87156516D01*
X105379360Y-87156516D02*
X105426979Y-87108897D01*
X106331740Y-87966040D02*
X105331740Y-88299373D01*
X105331740Y-88299373D02*
X106331740Y-88632706D01*
D10*
X126016666Y-69509077D02*
X126016666Y-70151934D01*
X126016666Y-70151934D02*
X125983333Y-70280505D01*
X125983333Y-70280505D02*
X125916666Y-70366220D01*
X125916666Y-70366220D02*
X125816666Y-70409077D01*
X125816666Y-70409077D02*
X125750000Y-70409077D01*
X126683333Y-70409077D02*
X126349999Y-70409077D01*
X126349999Y-70409077D02*
X126349999Y-69509077D01*
X127316666Y-70323362D02*
X127283333Y-70366220D01*
X127283333Y-70366220D02*
X127183333Y-70409077D01*
X127183333Y-70409077D02*
X127116666Y-70409077D01*
X127116666Y-70409077D02*
X127016666Y-70366220D01*
X127016666Y-70366220D02*
X126950000Y-70280505D01*
X126950000Y-70280505D02*
X126916666Y-70194791D01*
X126916666Y-70194791D02*
X126883333Y-70023362D01*
X126883333Y-70023362D02*
X126883333Y-69894791D01*
X126883333Y-69894791D02*
X126916666Y-69723362D01*
X126916666Y-69723362D02*
X126950000Y-69637648D01*
X126950000Y-69637648D02*
X127016666Y-69551934D01*
X127016666Y-69551934D02*
X127116666Y-69509077D01*
X127116666Y-69509077D02*
X127183333Y-69509077D01*
X127183333Y-69509077D02*
X127283333Y-69551934D01*
X127283333Y-69551934D02*
X127316666Y-69594791D01*
X127816666Y-69509077D02*
X127816666Y-70151934D01*
X127816666Y-70151934D02*
X127783333Y-70280505D01*
X127783333Y-70280505D02*
X127716666Y-70366220D01*
X127716666Y-70366220D02*
X127616666Y-70409077D01*
X127616666Y-70409077D02*
X127550000Y-70409077D01*
X128483333Y-70409077D02*
X128149999Y-70409077D01*
X128149999Y-70409077D02*
X128149999Y-69509077D01*
X129116666Y-70323362D02*
X129083333Y-70366220D01*
X129083333Y-70366220D02*
X128983333Y-70409077D01*
X128983333Y-70409077D02*
X128916666Y-70409077D01*
X128916666Y-70409077D02*
X128816666Y-70366220D01*
X128816666Y-70366220D02*
X128750000Y-70280505D01*
X128750000Y-70280505D02*
X128716666Y-70194791D01*
X128716666Y-70194791D02*
X128683333Y-70023362D01*
X128683333Y-70023362D02*
X128683333Y-69894791D01*
X128683333Y-69894791D02*
X128716666Y-69723362D01*
X128716666Y-69723362D02*
X128750000Y-69637648D01*
X128750000Y-69637648D02*
X128816666Y-69551934D01*
X128816666Y-69551934D02*
X128916666Y-69509077D01*
X128916666Y-69509077D02*
X128983333Y-69509077D01*
X128983333Y-69509077D02*
X129083333Y-69551934D01*
X129083333Y-69551934D02*
X129116666Y-69594791D01*
X129616666Y-69509077D02*
X129616666Y-70151934D01*
X129616666Y-70151934D02*
X129583333Y-70280505D01*
X129583333Y-70280505D02*
X129516666Y-70366220D01*
X129516666Y-70366220D02*
X129416666Y-70409077D01*
X129416666Y-70409077D02*
X129350000Y-70409077D01*
X130283333Y-70409077D02*
X129949999Y-70409077D01*
X129949999Y-70409077D02*
X129949999Y-69509077D01*
X130916666Y-70323362D02*
X130883333Y-70366220D01*
X130883333Y-70366220D02*
X130783333Y-70409077D01*
X130783333Y-70409077D02*
X130716666Y-70409077D01*
X130716666Y-70409077D02*
X130616666Y-70366220D01*
X130616666Y-70366220D02*
X130550000Y-70280505D01*
X130550000Y-70280505D02*
X130516666Y-70194791D01*
X130516666Y-70194791D02*
X130483333Y-70023362D01*
X130483333Y-70023362D02*
X130483333Y-69894791D01*
X130483333Y-69894791D02*
X130516666Y-69723362D01*
X130516666Y-69723362D02*
X130550000Y-69637648D01*
X130550000Y-69637648D02*
X130616666Y-69551934D01*
X130616666Y-69551934D02*
X130716666Y-69509077D01*
X130716666Y-69509077D02*
X130783333Y-69509077D01*
X130783333Y-69509077D02*
X130883333Y-69551934D01*
X130883333Y-69551934D02*
X130916666Y-69594791D01*
X131416666Y-69509077D02*
X131416666Y-70151934D01*
X131416666Y-70151934D02*
X131383333Y-70280505D01*
X131383333Y-70280505D02*
X131316666Y-70366220D01*
X131316666Y-70366220D02*
X131216666Y-70409077D01*
X131216666Y-70409077D02*
X131150000Y-70409077D01*
X132083333Y-70409077D02*
X131749999Y-70409077D01*
X131749999Y-70409077D02*
X131749999Y-69509077D01*
X132716666Y-70323362D02*
X132683333Y-70366220D01*
X132683333Y-70366220D02*
X132583333Y-70409077D01*
X132583333Y-70409077D02*
X132516666Y-70409077D01*
X132516666Y-70409077D02*
X132416666Y-70366220D01*
X132416666Y-70366220D02*
X132350000Y-70280505D01*
X132350000Y-70280505D02*
X132316666Y-70194791D01*
X132316666Y-70194791D02*
X132283333Y-70023362D01*
X132283333Y-70023362D02*
X132283333Y-69894791D01*
X132283333Y-69894791D02*
X132316666Y-69723362D01*
X132316666Y-69723362D02*
X132350000Y-69637648D01*
X132350000Y-69637648D02*
X132416666Y-69551934D01*
X132416666Y-69551934D02*
X132516666Y-69509077D01*
X132516666Y-69509077D02*
X132583333Y-69509077D01*
X132583333Y-69509077D02*
X132683333Y-69551934D01*
X132683333Y-69551934D02*
X132716666Y-69594791D01*
X102862815Y-45363533D02*
X102862815Y-45649247D01*
X102862815Y-45649247D02*
X102062815Y-45649247D01*
X102443767Y-45163533D02*
X102443767Y-44963533D01*
X102862815Y-44877819D02*
X102862815Y-45163533D01*
X102862815Y-45163533D02*
X102062815Y-45163533D01*
X102062815Y-45163533D02*
X102062815Y-44877819D01*
X102862815Y-44620676D02*
X102062815Y-44620676D01*
X102062815Y-44620676D02*
X102062815Y-44477819D01*
X102062815Y-44477819D02*
X102100910Y-44392105D01*
X102100910Y-44392105D02*
X102177100Y-44334962D01*
X102177100Y-44334962D02*
X102253291Y-44306391D01*
X102253291Y-44306391D02*
X102405672Y-44277819D01*
X102405672Y-44277819D02*
X102519958Y-44277819D01*
X102519958Y-44277819D02*
X102672339Y-44306391D01*
X102672339Y-44306391D02*
X102748529Y-44334962D01*
X102748529Y-44334962D02*
X102824720Y-44392105D01*
X102824720Y-44392105D02*
X102862815Y-44477819D01*
X102862815Y-44477819D02*
X102862815Y-44620676D01*
X102862815Y-43706391D02*
X102862815Y-44049248D01*
X102862815Y-43877819D02*
X102062815Y-43877819D01*
X102062815Y-43877819D02*
X102177100Y-43934962D01*
X102177100Y-43934962D02*
X102253291Y-43992105D01*
X102253291Y-43992105D02*
X102291386Y-44049248D01*
X110362815Y-45677818D02*
X109562815Y-45677818D01*
X109562815Y-45677818D02*
X109562815Y-45449247D01*
X109562815Y-45449247D02*
X109600910Y-45392104D01*
X109600910Y-45392104D02*
X109639005Y-45363533D01*
X109639005Y-45363533D02*
X109715196Y-45334961D01*
X109715196Y-45334961D02*
X109829481Y-45334961D01*
X109829481Y-45334961D02*
X109905672Y-45363533D01*
X109905672Y-45363533D02*
X109943767Y-45392104D01*
X109943767Y-45392104D02*
X109981862Y-45449247D01*
X109981862Y-45449247D02*
X109981862Y-45677818D01*
X110362815Y-44992104D02*
X110324720Y-45049247D01*
X110324720Y-45049247D02*
X110286624Y-45077818D01*
X110286624Y-45077818D02*
X110210434Y-45106390D01*
X110210434Y-45106390D02*
X109981862Y-45106390D01*
X109981862Y-45106390D02*
X109905672Y-45077818D01*
X109905672Y-45077818D02*
X109867577Y-45049247D01*
X109867577Y-45049247D02*
X109829481Y-44992104D01*
X109829481Y-44992104D02*
X109829481Y-44906390D01*
X109829481Y-44906390D02*
X109867577Y-44849247D01*
X109867577Y-44849247D02*
X109905672Y-44820676D01*
X109905672Y-44820676D02*
X109981862Y-44792104D01*
X109981862Y-44792104D02*
X110210434Y-44792104D01*
X110210434Y-44792104D02*
X110286624Y-44820676D01*
X110286624Y-44820676D02*
X110324720Y-44849247D01*
X110324720Y-44849247D02*
X110362815Y-44906390D01*
X110362815Y-44906390D02*
X110362815Y-44992104D01*
X110362815Y-44534961D02*
X109562815Y-44534961D01*
X109562815Y-44534961D02*
X109562815Y-44392104D01*
X109562815Y-44392104D02*
X109600910Y-44306390D01*
X109600910Y-44306390D02*
X109677100Y-44249247D01*
X109677100Y-44249247D02*
X109753291Y-44220676D01*
X109753291Y-44220676D02*
X109905672Y-44192104D01*
X109905672Y-44192104D02*
X110019958Y-44192104D01*
X110019958Y-44192104D02*
X110172339Y-44220676D01*
X110172339Y-44220676D02*
X110248529Y-44249247D01*
X110248529Y-44249247D02*
X110324720Y-44306390D01*
X110324720Y-44306390D02*
X110362815Y-44392104D01*
X110362815Y-44392104D02*
X110362815Y-44534961D01*
X110362815Y-43649247D02*
X110362815Y-43934961D01*
X110362815Y-43934961D02*
X109562815Y-43934961D01*
X105362815Y-45163532D02*
X105362815Y-45449246D01*
X105362815Y-45449246D02*
X104562815Y-45449246D01*
X105362815Y-44963532D02*
X104562815Y-44963532D01*
X105362815Y-44677818D02*
X104562815Y-44677818D01*
X104562815Y-44677818D02*
X105362815Y-44334961D01*
X105362815Y-44334961D02*
X104562815Y-44334961D01*
X105362815Y-44049247D02*
X104562815Y-44049247D01*
X105362815Y-43706390D02*
X104905672Y-43963533D01*
X104562815Y-43706390D02*
X105019958Y-44049247D01*
D13*
X120896428Y-55817593D02*
X120713094Y-55484260D01*
X120582142Y-55817593D02*
X120582142Y-55117593D01*
X120582142Y-55117593D02*
X120791666Y-55117593D01*
X120791666Y-55117593D02*
X120844047Y-55150926D01*
X120844047Y-55150926D02*
X120870237Y-55184260D01*
X120870237Y-55184260D02*
X120896428Y-55250926D01*
X120896428Y-55250926D02*
X120896428Y-55350926D01*
X120896428Y-55350926D02*
X120870237Y-55417593D01*
X120870237Y-55417593D02*
X120844047Y-55450926D01*
X120844047Y-55450926D02*
X120791666Y-55484260D01*
X120791666Y-55484260D02*
X120582142Y-55484260D01*
X121105951Y-55184260D02*
X121132142Y-55150926D01*
X121132142Y-55150926D02*
X121184523Y-55117593D01*
X121184523Y-55117593D02*
X121315475Y-55117593D01*
X121315475Y-55117593D02*
X121367856Y-55150926D01*
X121367856Y-55150926D02*
X121394047Y-55184260D01*
X121394047Y-55184260D02*
X121420237Y-55250926D01*
X121420237Y-55250926D02*
X121420237Y-55317593D01*
X121420237Y-55317593D02*
X121394047Y-55417593D01*
X121394047Y-55417593D02*
X121079761Y-55817593D01*
X121079761Y-55817593D02*
X121420237Y-55817593D01*
X121891666Y-55117593D02*
X121786904Y-55117593D01*
X121786904Y-55117593D02*
X121734523Y-55150926D01*
X121734523Y-55150926D02*
X121708333Y-55184260D01*
X121708333Y-55184260D02*
X121655952Y-55284260D01*
X121655952Y-55284260D02*
X121629761Y-55417593D01*
X121629761Y-55417593D02*
X121629761Y-55684260D01*
X121629761Y-55684260D02*
X121655952Y-55750926D01*
X121655952Y-55750926D02*
X121682142Y-55784260D01*
X121682142Y-55784260D02*
X121734523Y-55817593D01*
X121734523Y-55817593D02*
X121839285Y-55817593D01*
X121839285Y-55817593D02*
X121891666Y-55784260D01*
X121891666Y-55784260D02*
X121917857Y-55750926D01*
X121917857Y-55750926D02*
X121944047Y-55684260D01*
X121944047Y-55684260D02*
X121944047Y-55517593D01*
X121944047Y-55517593D02*
X121917857Y-55450926D01*
X121917857Y-55450926D02*
X121891666Y-55417593D01*
X121891666Y-55417593D02*
X121839285Y-55384260D01*
X121839285Y-55384260D02*
X121734523Y-55384260D01*
X121734523Y-55384260D02*
X121682142Y-55417593D01*
X121682142Y-55417593D02*
X121655952Y-55450926D01*
X121655952Y-55450926D02*
X121629761Y-55517593D01*
D11*
X105408557Y-52950000D02*
X104979985Y-53183333D01*
X105408557Y-53350000D02*
X104508557Y-53350000D01*
X104508557Y-53350000D02*
X104508557Y-53083333D01*
X104508557Y-53083333D02*
X104551414Y-53016667D01*
X104551414Y-53016667D02*
X104594271Y-52983333D01*
X104594271Y-52983333D02*
X104679985Y-52950000D01*
X104679985Y-52950000D02*
X104808557Y-52950000D01*
X104808557Y-52950000D02*
X104894271Y-52983333D01*
X104894271Y-52983333D02*
X104937128Y-53016667D01*
X104937128Y-53016667D02*
X104979985Y-53083333D01*
X104979985Y-53083333D02*
X104979985Y-53350000D01*
X104594271Y-52683333D02*
X104551414Y-52650000D01*
X104551414Y-52650000D02*
X104508557Y-52583333D01*
X104508557Y-52583333D02*
X104508557Y-52416667D01*
X104508557Y-52416667D02*
X104551414Y-52350000D01*
X104551414Y-52350000D02*
X104594271Y-52316667D01*
X104594271Y-52316667D02*
X104679985Y-52283333D01*
X104679985Y-52283333D02*
X104765700Y-52283333D01*
X104765700Y-52283333D02*
X104894271Y-52316667D01*
X104894271Y-52316667D02*
X105408557Y-52716667D01*
X105408557Y-52716667D02*
X105408557Y-52283333D01*
X105408557Y-51616666D02*
X105408557Y-52016666D01*
X105408557Y-51816666D02*
X104508557Y-51816666D01*
X104508557Y-51816666D02*
X104637128Y-51883333D01*
X104637128Y-51883333D02*
X104722842Y-51950000D01*
X104722842Y-51950000D02*
X104765700Y-52016666D01*
X107908557Y-52950000D02*
X107479985Y-53183333D01*
X107908557Y-53350000D02*
X107008557Y-53350000D01*
X107008557Y-53350000D02*
X107008557Y-53083333D01*
X107008557Y-53083333D02*
X107051414Y-53016667D01*
X107051414Y-53016667D02*
X107094271Y-52983333D01*
X107094271Y-52983333D02*
X107179985Y-52950000D01*
X107179985Y-52950000D02*
X107308557Y-52950000D01*
X107308557Y-52950000D02*
X107394271Y-52983333D01*
X107394271Y-52983333D02*
X107437128Y-53016667D01*
X107437128Y-53016667D02*
X107479985Y-53083333D01*
X107479985Y-53083333D02*
X107479985Y-53350000D01*
X107908557Y-52283333D02*
X107908557Y-52683333D01*
X107908557Y-52483333D02*
X107008557Y-52483333D01*
X107008557Y-52483333D02*
X107137128Y-52550000D01*
X107137128Y-52550000D02*
X107222842Y-52616667D01*
X107222842Y-52616667D02*
X107265700Y-52683333D01*
X107008557Y-51683333D02*
X107008557Y-51816666D01*
X107008557Y-51816666D02*
X107051414Y-51883333D01*
X107051414Y-51883333D02*
X107094271Y-51916666D01*
X107094271Y-51916666D02*
X107222842Y-51983333D01*
X107222842Y-51983333D02*
X107394271Y-52016666D01*
X107394271Y-52016666D02*
X107737128Y-52016666D01*
X107737128Y-52016666D02*
X107822842Y-51983333D01*
X107822842Y-51983333D02*
X107865700Y-51950000D01*
X107865700Y-51950000D02*
X107908557Y-51883333D01*
X107908557Y-51883333D02*
X107908557Y-51750000D01*
X107908557Y-51750000D02*
X107865700Y-51683333D01*
X107865700Y-51683333D02*
X107822842Y-51650000D01*
X107822842Y-51650000D02*
X107737128Y-51616666D01*
X107737128Y-51616666D02*
X107522842Y-51616666D01*
X107522842Y-51616666D02*
X107437128Y-51650000D01*
X107437128Y-51650000D02*
X107394271Y-51683333D01*
X107394271Y-51683333D02*
X107351414Y-51750000D01*
X107351414Y-51750000D02*
X107351414Y-51883333D01*
X107351414Y-51883333D02*
X107394271Y-51950000D01*
X107394271Y-51950000D02*
X107437128Y-51983333D01*
X107437128Y-51983333D02*
X107522842Y-52016666D01*
D13*
X116197619Y-84884260D02*
X116145238Y-84850926D01*
X116145238Y-84850926D02*
X116092857Y-84784260D01*
X116092857Y-84784260D02*
X116014285Y-84684260D01*
X116014285Y-84684260D02*
X115961904Y-84650926D01*
X115961904Y-84650926D02*
X115909523Y-84650926D01*
X115935714Y-84817593D02*
X115883333Y-84784260D01*
X115883333Y-84784260D02*
X115830952Y-84717593D01*
X115830952Y-84717593D02*
X115804761Y-84584260D01*
X115804761Y-84584260D02*
X115804761Y-84350926D01*
X115804761Y-84350926D02*
X115830952Y-84217593D01*
X115830952Y-84217593D02*
X115883333Y-84150926D01*
X115883333Y-84150926D02*
X115935714Y-84117593D01*
X115935714Y-84117593D02*
X116040476Y-84117593D01*
X116040476Y-84117593D02*
X116092857Y-84150926D01*
X116092857Y-84150926D02*
X116145238Y-84217593D01*
X116145238Y-84217593D02*
X116171428Y-84350926D01*
X116171428Y-84350926D02*
X116171428Y-84584260D01*
X116171428Y-84584260D02*
X116145238Y-84717593D01*
X116145238Y-84717593D02*
X116092857Y-84784260D01*
X116092857Y-84784260D02*
X116040476Y-84817593D01*
X116040476Y-84817593D02*
X115935714Y-84817593D01*
X116695237Y-84817593D02*
X116380951Y-84817593D01*
X116538094Y-84817593D02*
X116538094Y-84117593D01*
X116538094Y-84117593D02*
X116485713Y-84217593D01*
X116485713Y-84217593D02*
X116433332Y-84284260D01*
X116433332Y-84284260D02*
X116380951Y-84317593D01*
D11*
X103549999Y-58158557D02*
X103316666Y-57729985D01*
X103149999Y-58158557D02*
X103149999Y-57258557D01*
X103149999Y-57258557D02*
X103416666Y-57258557D01*
X103416666Y-57258557D02*
X103483333Y-57301414D01*
X103483333Y-57301414D02*
X103516666Y-57344271D01*
X103516666Y-57344271D02*
X103549999Y-57429985D01*
X103549999Y-57429985D02*
X103549999Y-57558557D01*
X103549999Y-57558557D02*
X103516666Y-57644271D01*
X103516666Y-57644271D02*
X103483333Y-57687128D01*
X103483333Y-57687128D02*
X103416666Y-57729985D01*
X103416666Y-57729985D02*
X103149999Y-57729985D01*
X104216666Y-58158557D02*
X103816666Y-58158557D01*
X104016666Y-58158557D02*
X104016666Y-57258557D01*
X104016666Y-57258557D02*
X103949999Y-57387128D01*
X103949999Y-57387128D02*
X103883333Y-57472842D01*
X103883333Y-57472842D02*
X103816666Y-57515700D01*
X104550000Y-58158557D02*
X104683333Y-58158557D01*
X104683333Y-58158557D02*
X104750000Y-58115700D01*
X104750000Y-58115700D02*
X104783333Y-58072842D01*
X104783333Y-58072842D02*
X104850000Y-57944271D01*
X104850000Y-57944271D02*
X104883333Y-57772842D01*
X104883333Y-57772842D02*
X104883333Y-57429985D01*
X104883333Y-57429985D02*
X104850000Y-57344271D01*
X104850000Y-57344271D02*
X104816666Y-57301414D01*
X104816666Y-57301414D02*
X104750000Y-57258557D01*
X104750000Y-57258557D02*
X104616666Y-57258557D01*
X104616666Y-57258557D02*
X104550000Y-57301414D01*
X104550000Y-57301414D02*
X104516666Y-57344271D01*
X104516666Y-57344271D02*
X104483333Y-57429985D01*
X104483333Y-57429985D02*
X104483333Y-57644271D01*
X104483333Y-57644271D02*
X104516666Y-57729985D01*
X104516666Y-57729985D02*
X104550000Y-57772842D01*
X104550000Y-57772842D02*
X104616666Y-57815700D01*
X104616666Y-57815700D02*
X104750000Y-57815700D01*
X104750000Y-57815700D02*
X104816666Y-57772842D01*
X104816666Y-57772842D02*
X104850000Y-57729985D01*
X104850000Y-57729985D02*
X104883333Y-57644271D01*
X110883333Y-85908557D02*
X110650000Y-85479985D01*
X110483333Y-85908557D02*
X110483333Y-85008557D01*
X110483333Y-85008557D02*
X110750000Y-85008557D01*
X110750000Y-85008557D02*
X110816667Y-85051414D01*
X110816667Y-85051414D02*
X110850000Y-85094271D01*
X110850000Y-85094271D02*
X110883333Y-85179985D01*
X110883333Y-85179985D02*
X110883333Y-85308557D01*
X110883333Y-85308557D02*
X110850000Y-85394271D01*
X110850000Y-85394271D02*
X110816667Y-85437128D01*
X110816667Y-85437128D02*
X110750000Y-85479985D01*
X110750000Y-85479985D02*
X110483333Y-85479985D01*
X111483333Y-85008557D02*
X111350000Y-85008557D01*
X111350000Y-85008557D02*
X111283333Y-85051414D01*
X111283333Y-85051414D02*
X111250000Y-85094271D01*
X111250000Y-85094271D02*
X111183333Y-85222842D01*
X111183333Y-85222842D02*
X111150000Y-85394271D01*
X111150000Y-85394271D02*
X111150000Y-85737128D01*
X111150000Y-85737128D02*
X111183333Y-85822842D01*
X111183333Y-85822842D02*
X111216667Y-85865700D01*
X111216667Y-85865700D02*
X111283333Y-85908557D01*
X111283333Y-85908557D02*
X111416667Y-85908557D01*
X111416667Y-85908557D02*
X111483333Y-85865700D01*
X111483333Y-85865700D02*
X111516667Y-85822842D01*
X111516667Y-85822842D02*
X111550000Y-85737128D01*
X111550000Y-85737128D02*
X111550000Y-85522842D01*
X111550000Y-85522842D02*
X111516667Y-85437128D01*
X111516667Y-85437128D02*
X111483333Y-85394271D01*
X111483333Y-85394271D02*
X111416667Y-85351414D01*
X111416667Y-85351414D02*
X111283333Y-85351414D01*
X111283333Y-85351414D02*
X111216667Y-85394271D01*
X111216667Y-85394271D02*
X111183333Y-85437128D01*
X111183333Y-85437128D02*
X111150000Y-85522842D01*
X131108333Y-47883557D02*
X130774999Y-47883557D01*
X130774999Y-47883557D02*
X130774999Y-46983557D01*
X131275000Y-46983557D02*
X131708333Y-46983557D01*
X131708333Y-46983557D02*
X131475000Y-47326414D01*
X131475000Y-47326414D02*
X131575000Y-47326414D01*
X131575000Y-47326414D02*
X131641666Y-47369271D01*
X131641666Y-47369271D02*
X131675000Y-47412128D01*
X131675000Y-47412128D02*
X131708333Y-47497842D01*
X131708333Y-47497842D02*
X131708333Y-47712128D01*
X131708333Y-47712128D02*
X131675000Y-47797842D01*
X131675000Y-47797842D02*
X131641666Y-47840700D01*
X131641666Y-47840700D02*
X131575000Y-47883557D01*
X131575000Y-47883557D02*
X131375000Y-47883557D01*
X131375000Y-47883557D02*
X131308333Y-47840700D01*
X131308333Y-47840700D02*
X131275000Y-47797842D01*
X136049999Y-95158557D02*
X135816666Y-94729985D01*
X135649999Y-95158557D02*
X135649999Y-94258557D01*
X135649999Y-94258557D02*
X135916666Y-94258557D01*
X135916666Y-94258557D02*
X135983333Y-94301414D01*
X135983333Y-94301414D02*
X136016666Y-94344271D01*
X136016666Y-94344271D02*
X136049999Y-94429985D01*
X136049999Y-94429985D02*
X136049999Y-94558557D01*
X136049999Y-94558557D02*
X136016666Y-94644271D01*
X136016666Y-94644271D02*
X135983333Y-94687128D01*
X135983333Y-94687128D02*
X135916666Y-94729985D01*
X135916666Y-94729985D02*
X135649999Y-94729985D01*
X136283333Y-94258557D02*
X136716666Y-94258557D01*
X136716666Y-94258557D02*
X136483333Y-94601414D01*
X136483333Y-94601414D02*
X136583333Y-94601414D01*
X136583333Y-94601414D02*
X136649999Y-94644271D01*
X136649999Y-94644271D02*
X136683333Y-94687128D01*
X136683333Y-94687128D02*
X136716666Y-94772842D01*
X136716666Y-94772842D02*
X136716666Y-94987128D01*
X136716666Y-94987128D02*
X136683333Y-95072842D01*
X136683333Y-95072842D02*
X136649999Y-95115700D01*
X136649999Y-95115700D02*
X136583333Y-95158557D01*
X136583333Y-95158557D02*
X136383333Y-95158557D01*
X136383333Y-95158557D02*
X136316666Y-95115700D01*
X136316666Y-95115700D02*
X136283333Y-95072842D01*
X137150000Y-94258557D02*
X137216666Y-94258557D01*
X137216666Y-94258557D02*
X137283333Y-94301414D01*
X137283333Y-94301414D02*
X137316666Y-94344271D01*
X137316666Y-94344271D02*
X137350000Y-94429985D01*
X137350000Y-94429985D02*
X137383333Y-94601414D01*
X137383333Y-94601414D02*
X137383333Y-94815700D01*
X137383333Y-94815700D02*
X137350000Y-94987128D01*
X137350000Y-94987128D02*
X137316666Y-95072842D01*
X137316666Y-95072842D02*
X137283333Y-95115700D01*
X137283333Y-95115700D02*
X137216666Y-95158557D01*
X137216666Y-95158557D02*
X137150000Y-95158557D01*
X137150000Y-95158557D02*
X137083333Y-95115700D01*
X137083333Y-95115700D02*
X137050000Y-95072842D01*
X137050000Y-95072842D02*
X137016666Y-94987128D01*
X137016666Y-94987128D02*
X136983333Y-94815700D01*
X136983333Y-94815700D02*
X136983333Y-94601414D01*
X136983333Y-94601414D02*
X137016666Y-94429985D01*
X137016666Y-94429985D02*
X137050000Y-94344271D01*
X137050000Y-94344271D02*
X137083333Y-94301414D01*
X137083333Y-94301414D02*
X137150000Y-94258557D01*
X131483333Y-82658557D02*
X131483333Y-81758557D01*
X131483333Y-81758557D02*
X131650000Y-81758557D01*
X131650000Y-81758557D02*
X131750000Y-81801414D01*
X131750000Y-81801414D02*
X131816667Y-81887128D01*
X131816667Y-81887128D02*
X131850000Y-81972842D01*
X131850000Y-81972842D02*
X131883333Y-82144271D01*
X131883333Y-82144271D02*
X131883333Y-82272842D01*
X131883333Y-82272842D02*
X131850000Y-82444271D01*
X131850000Y-82444271D02*
X131816667Y-82529985D01*
X131816667Y-82529985D02*
X131750000Y-82615700D01*
X131750000Y-82615700D02*
X131650000Y-82658557D01*
X131650000Y-82658557D02*
X131483333Y-82658557D01*
X132483333Y-82058557D02*
X132483333Y-82658557D01*
X132316667Y-81715700D02*
X132150000Y-82358557D01*
X132150000Y-82358557D02*
X132583333Y-82358557D01*
D13*
X112317593Y-60103571D02*
X111984260Y-60286905D01*
X112317593Y-60417857D02*
X111617593Y-60417857D01*
X111617593Y-60417857D02*
X111617593Y-60208333D01*
X111617593Y-60208333D02*
X111650926Y-60155952D01*
X111650926Y-60155952D02*
X111684260Y-60129762D01*
X111684260Y-60129762D02*
X111750926Y-60103571D01*
X111750926Y-60103571D02*
X111850926Y-60103571D01*
X111850926Y-60103571D02*
X111917593Y-60129762D01*
X111917593Y-60129762D02*
X111950926Y-60155952D01*
X111950926Y-60155952D02*
X111984260Y-60208333D01*
X111984260Y-60208333D02*
X111984260Y-60417857D01*
X112317593Y-59579762D02*
X112317593Y-59894048D01*
X112317593Y-59736905D02*
X111617593Y-59736905D01*
X111617593Y-59736905D02*
X111717593Y-59789286D01*
X111717593Y-59789286D02*
X111784260Y-59841667D01*
X111784260Y-59841667D02*
X111817593Y-59894048D01*
X111917593Y-59265476D02*
X111884260Y-59317857D01*
X111884260Y-59317857D02*
X111850926Y-59344047D01*
X111850926Y-59344047D02*
X111784260Y-59370238D01*
X111784260Y-59370238D02*
X111750926Y-59370238D01*
X111750926Y-59370238D02*
X111684260Y-59344047D01*
X111684260Y-59344047D02*
X111650926Y-59317857D01*
X111650926Y-59317857D02*
X111617593Y-59265476D01*
X111617593Y-59265476D02*
X111617593Y-59160714D01*
X111617593Y-59160714D02*
X111650926Y-59108333D01*
X111650926Y-59108333D02*
X111684260Y-59082142D01*
X111684260Y-59082142D02*
X111750926Y-59055952D01*
X111750926Y-59055952D02*
X111784260Y-59055952D01*
X111784260Y-59055952D02*
X111850926Y-59082142D01*
X111850926Y-59082142D02*
X111884260Y-59108333D01*
X111884260Y-59108333D02*
X111917593Y-59160714D01*
X111917593Y-59160714D02*
X111917593Y-59265476D01*
X111917593Y-59265476D02*
X111950926Y-59317857D01*
X111950926Y-59317857D02*
X111984260Y-59344047D01*
X111984260Y-59344047D02*
X112050926Y-59370238D01*
X112050926Y-59370238D02*
X112184260Y-59370238D01*
X112184260Y-59370238D02*
X112250926Y-59344047D01*
X112250926Y-59344047D02*
X112284260Y-59317857D01*
X112284260Y-59317857D02*
X112317593Y-59265476D01*
X112317593Y-59265476D02*
X112317593Y-59160714D01*
X112317593Y-59160714D02*
X112284260Y-59108333D01*
X112284260Y-59108333D02*
X112250926Y-59082142D01*
X112250926Y-59082142D02*
X112184260Y-59055952D01*
X112184260Y-59055952D02*
X112050926Y-59055952D01*
X112050926Y-59055952D02*
X111984260Y-59082142D01*
X111984260Y-59082142D02*
X111950926Y-59108333D01*
X111950926Y-59108333D02*
X111917593Y-59160714D01*
D11*
X104133333Y-65822842D02*
X104100000Y-65865700D01*
X104100000Y-65865700D02*
X104000000Y-65908557D01*
X104000000Y-65908557D02*
X103933333Y-65908557D01*
X103933333Y-65908557D02*
X103833333Y-65865700D01*
X103833333Y-65865700D02*
X103766667Y-65779985D01*
X103766667Y-65779985D02*
X103733333Y-65694271D01*
X103733333Y-65694271D02*
X103700000Y-65522842D01*
X103700000Y-65522842D02*
X103700000Y-65394271D01*
X103700000Y-65394271D02*
X103733333Y-65222842D01*
X103733333Y-65222842D02*
X103766667Y-65137128D01*
X103766667Y-65137128D02*
X103833333Y-65051414D01*
X103833333Y-65051414D02*
X103933333Y-65008557D01*
X103933333Y-65008557D02*
X104000000Y-65008557D01*
X104000000Y-65008557D02*
X104100000Y-65051414D01*
X104100000Y-65051414D02*
X104133333Y-65094271D01*
X104366667Y-65008557D02*
X104833333Y-65008557D01*
X104833333Y-65008557D02*
X104533333Y-65908557D01*
X119658557Y-87116666D02*
X119229985Y-87349999D01*
X119658557Y-87516666D02*
X118758557Y-87516666D01*
X118758557Y-87516666D02*
X118758557Y-87249999D01*
X118758557Y-87249999D02*
X118801414Y-87183333D01*
X118801414Y-87183333D02*
X118844271Y-87149999D01*
X118844271Y-87149999D02*
X118929985Y-87116666D01*
X118929985Y-87116666D02*
X119058557Y-87116666D01*
X119058557Y-87116666D02*
X119144271Y-87149999D01*
X119144271Y-87149999D02*
X119187128Y-87183333D01*
X119187128Y-87183333D02*
X119229985Y-87249999D01*
X119229985Y-87249999D02*
X119229985Y-87516666D01*
X119144271Y-86716666D02*
X119101414Y-86783333D01*
X119101414Y-86783333D02*
X119058557Y-86816666D01*
X119058557Y-86816666D02*
X118972842Y-86849999D01*
X118972842Y-86849999D02*
X118929985Y-86849999D01*
X118929985Y-86849999D02*
X118844271Y-86816666D01*
X118844271Y-86816666D02*
X118801414Y-86783333D01*
X118801414Y-86783333D02*
X118758557Y-86716666D01*
X118758557Y-86716666D02*
X118758557Y-86583333D01*
X118758557Y-86583333D02*
X118801414Y-86516666D01*
X118801414Y-86516666D02*
X118844271Y-86483333D01*
X118844271Y-86483333D02*
X118929985Y-86449999D01*
X118929985Y-86449999D02*
X118972842Y-86449999D01*
X118972842Y-86449999D02*
X119058557Y-86483333D01*
X119058557Y-86483333D02*
X119101414Y-86516666D01*
X119101414Y-86516666D02*
X119144271Y-86583333D01*
X119144271Y-86583333D02*
X119144271Y-86716666D01*
X119144271Y-86716666D02*
X119187128Y-86783333D01*
X119187128Y-86783333D02*
X119229985Y-86816666D01*
X119229985Y-86816666D02*
X119315700Y-86849999D01*
X119315700Y-86849999D02*
X119487128Y-86849999D01*
X119487128Y-86849999D02*
X119572842Y-86816666D01*
X119572842Y-86816666D02*
X119615700Y-86783333D01*
X119615700Y-86783333D02*
X119658557Y-86716666D01*
X119658557Y-86716666D02*
X119658557Y-86583333D01*
X119658557Y-86583333D02*
X119615700Y-86516666D01*
X119615700Y-86516666D02*
X119572842Y-86483333D01*
X119572842Y-86483333D02*
X119487128Y-86449999D01*
X119487128Y-86449999D02*
X119315700Y-86449999D01*
X119315700Y-86449999D02*
X119229985Y-86483333D01*
X119229985Y-86483333D02*
X119187128Y-86516666D01*
X119187128Y-86516666D02*
X119144271Y-86583333D01*
X129083333Y-72158557D02*
X128749999Y-72158557D01*
X128749999Y-72158557D02*
X128749999Y-71258557D01*
X129283333Y-71344271D02*
X129316666Y-71301414D01*
X129316666Y-71301414D02*
X129383333Y-71258557D01*
X129383333Y-71258557D02*
X129550000Y-71258557D01*
X129550000Y-71258557D02*
X129616666Y-71301414D01*
X129616666Y-71301414D02*
X129650000Y-71344271D01*
X129650000Y-71344271D02*
X129683333Y-71429985D01*
X129683333Y-71429985D02*
X129683333Y-71515700D01*
X129683333Y-71515700D02*
X129650000Y-71644271D01*
X129650000Y-71644271D02*
X129250000Y-72158557D01*
X129250000Y-72158557D02*
X129683333Y-72158557D01*
X101216666Y-73658557D02*
X100983333Y-73229985D01*
X100816666Y-73658557D02*
X100816666Y-72758557D01*
X100816666Y-72758557D02*
X101083333Y-72758557D01*
X101083333Y-72758557D02*
X101150000Y-72801414D01*
X101150000Y-72801414D02*
X101183333Y-72844271D01*
X101183333Y-72844271D02*
X101216666Y-72929985D01*
X101216666Y-72929985D02*
X101216666Y-73058557D01*
X101216666Y-73058557D02*
X101183333Y-73144271D01*
X101183333Y-73144271D02*
X101150000Y-73187128D01*
X101150000Y-73187128D02*
X101083333Y-73229985D01*
X101083333Y-73229985D02*
X100816666Y-73229985D01*
X101883333Y-73658557D02*
X101483333Y-73658557D01*
X101683333Y-73658557D02*
X101683333Y-72758557D01*
X101683333Y-72758557D02*
X101616666Y-72887128D01*
X101616666Y-72887128D02*
X101550000Y-72972842D01*
X101550000Y-72972842D02*
X101483333Y-73015700D01*
X102483333Y-73058557D02*
X102483333Y-73658557D01*
X102316667Y-72715700D02*
X102150000Y-73358557D01*
X102150000Y-73358557D02*
X102583333Y-73358557D01*
D13*
X116080952Y-93867593D02*
X116080952Y-94434260D01*
X116080952Y-94434260D02*
X116107142Y-94500926D01*
X116107142Y-94500926D02*
X116133333Y-94534260D01*
X116133333Y-94534260D02*
X116185714Y-94567593D01*
X116185714Y-94567593D02*
X116290476Y-94567593D01*
X116290476Y-94567593D02*
X116342857Y-94534260D01*
X116342857Y-94534260D02*
X116369047Y-94500926D01*
X116369047Y-94500926D02*
X116395238Y-94434260D01*
X116395238Y-94434260D02*
X116395238Y-93867593D01*
X116919047Y-93867593D02*
X116657142Y-93867593D01*
X116657142Y-93867593D02*
X116630951Y-94200926D01*
X116630951Y-94200926D02*
X116657142Y-94167593D01*
X116657142Y-94167593D02*
X116709523Y-94134260D01*
X116709523Y-94134260D02*
X116840475Y-94134260D01*
X116840475Y-94134260D02*
X116892856Y-94167593D01*
X116892856Y-94167593D02*
X116919047Y-94200926D01*
X116919047Y-94200926D02*
X116945237Y-94267593D01*
X116945237Y-94267593D02*
X116945237Y-94434260D01*
X116945237Y-94434260D02*
X116919047Y-94500926D01*
X116919047Y-94500926D02*
X116892856Y-94534260D01*
X116892856Y-94534260D02*
X116840475Y-94567593D01*
X116840475Y-94567593D02*
X116709523Y-94567593D01*
X116709523Y-94567593D02*
X116657142Y-94534260D01*
X116657142Y-94534260D02*
X116630951Y-94500926D01*
D11*
X104133333Y-64572842D02*
X104100000Y-64615700D01*
X104100000Y-64615700D02*
X104000000Y-64658557D01*
X104000000Y-64658557D02*
X103933333Y-64658557D01*
X103933333Y-64658557D02*
X103833333Y-64615700D01*
X103833333Y-64615700D02*
X103766667Y-64529985D01*
X103766667Y-64529985D02*
X103733333Y-64444271D01*
X103733333Y-64444271D02*
X103700000Y-64272842D01*
X103700000Y-64272842D02*
X103700000Y-64144271D01*
X103700000Y-64144271D02*
X103733333Y-63972842D01*
X103733333Y-63972842D02*
X103766667Y-63887128D01*
X103766667Y-63887128D02*
X103833333Y-63801414D01*
X103833333Y-63801414D02*
X103933333Y-63758557D01*
X103933333Y-63758557D02*
X104000000Y-63758557D01*
X104000000Y-63758557D02*
X104100000Y-63801414D01*
X104100000Y-63801414D02*
X104133333Y-63844271D01*
X104733333Y-63758557D02*
X104600000Y-63758557D01*
X104600000Y-63758557D02*
X104533333Y-63801414D01*
X104533333Y-63801414D02*
X104500000Y-63844271D01*
X104500000Y-63844271D02*
X104433333Y-63972842D01*
X104433333Y-63972842D02*
X104400000Y-64144271D01*
X104400000Y-64144271D02*
X104400000Y-64487128D01*
X104400000Y-64487128D02*
X104433333Y-64572842D01*
X104433333Y-64572842D02*
X104466667Y-64615700D01*
X104466667Y-64615700D02*
X104533333Y-64658557D01*
X104533333Y-64658557D02*
X104666667Y-64658557D01*
X104666667Y-64658557D02*
X104733333Y-64615700D01*
X104733333Y-64615700D02*
X104766667Y-64572842D01*
X104766667Y-64572842D02*
X104800000Y-64487128D01*
X104800000Y-64487128D02*
X104800000Y-64272842D01*
X104800000Y-64272842D02*
X104766667Y-64187128D01*
X104766667Y-64187128D02*
X104733333Y-64144271D01*
X104733333Y-64144271D02*
X104666667Y-64101414D01*
X104666667Y-64101414D02*
X104533333Y-64101414D01*
X104533333Y-64101414D02*
X104466667Y-64144271D01*
X104466667Y-64144271D02*
X104433333Y-64187128D01*
X104433333Y-64187128D02*
X104400000Y-64272842D01*
X113666666Y-75308557D02*
X113666666Y-76037128D01*
X113666666Y-76037128D02*
X113700000Y-76122842D01*
X113700000Y-76122842D02*
X113733333Y-76165700D01*
X113733333Y-76165700D02*
X113800000Y-76208557D01*
X113800000Y-76208557D02*
X113933333Y-76208557D01*
X113933333Y-76208557D02*
X114000000Y-76165700D01*
X114000000Y-76165700D02*
X114033333Y-76122842D01*
X114033333Y-76122842D02*
X114066666Y-76037128D01*
X114066666Y-76037128D02*
X114066666Y-75308557D01*
X114699999Y-75608557D02*
X114699999Y-76208557D01*
X114533333Y-75265700D02*
X114366666Y-75908557D01*
X114366666Y-75908557D02*
X114799999Y-75908557D01*
X101216666Y-69322842D02*
X101183333Y-69365700D01*
X101183333Y-69365700D02*
X101083333Y-69408557D01*
X101083333Y-69408557D02*
X101016666Y-69408557D01*
X101016666Y-69408557D02*
X100916666Y-69365700D01*
X100916666Y-69365700D02*
X100850000Y-69279985D01*
X100850000Y-69279985D02*
X100816666Y-69194271D01*
X100816666Y-69194271D02*
X100783333Y-69022842D01*
X100783333Y-69022842D02*
X100783333Y-68894271D01*
X100783333Y-68894271D02*
X100816666Y-68722842D01*
X100816666Y-68722842D02*
X100850000Y-68637128D01*
X100850000Y-68637128D02*
X100916666Y-68551414D01*
X100916666Y-68551414D02*
X101016666Y-68508557D01*
X101016666Y-68508557D02*
X101083333Y-68508557D01*
X101083333Y-68508557D02*
X101183333Y-68551414D01*
X101183333Y-68551414D02*
X101216666Y-68594271D01*
X101883333Y-69408557D02*
X101483333Y-69408557D01*
X101683333Y-69408557D02*
X101683333Y-68508557D01*
X101683333Y-68508557D02*
X101616666Y-68637128D01*
X101616666Y-68637128D02*
X101550000Y-68722842D01*
X101550000Y-68722842D02*
X101483333Y-68765700D01*
X102483333Y-68508557D02*
X102350000Y-68508557D01*
X102350000Y-68508557D02*
X102283333Y-68551414D01*
X102283333Y-68551414D02*
X102250000Y-68594271D01*
X102250000Y-68594271D02*
X102183333Y-68722842D01*
X102183333Y-68722842D02*
X102150000Y-68894271D01*
X102150000Y-68894271D02*
X102150000Y-69237128D01*
X102150000Y-69237128D02*
X102183333Y-69322842D01*
X102183333Y-69322842D02*
X102216667Y-69365700D01*
X102216667Y-69365700D02*
X102283333Y-69408557D01*
X102283333Y-69408557D02*
X102416667Y-69408557D01*
X102416667Y-69408557D02*
X102483333Y-69365700D01*
X102483333Y-69365700D02*
X102516667Y-69322842D01*
X102516667Y-69322842D02*
X102550000Y-69237128D01*
X102550000Y-69237128D02*
X102550000Y-69022842D01*
X102550000Y-69022842D02*
X102516667Y-68937128D01*
X102516667Y-68937128D02*
X102483333Y-68894271D01*
X102483333Y-68894271D02*
X102416667Y-68851414D01*
X102416667Y-68851414D02*
X102283333Y-68851414D01*
X102283333Y-68851414D02*
X102216667Y-68894271D01*
X102216667Y-68894271D02*
X102183333Y-68937128D01*
X102183333Y-68937128D02*
X102150000Y-69022842D01*
D13*
X106963095Y-95817593D02*
X106963095Y-95117593D01*
X107539286Y-95750926D02*
X107513095Y-95784260D01*
X107513095Y-95784260D02*
X107434524Y-95817593D01*
X107434524Y-95817593D02*
X107382143Y-95817593D01*
X107382143Y-95817593D02*
X107303571Y-95784260D01*
X107303571Y-95784260D02*
X107251190Y-95717593D01*
X107251190Y-95717593D02*
X107225000Y-95650926D01*
X107225000Y-95650926D02*
X107198809Y-95517593D01*
X107198809Y-95517593D02*
X107198809Y-95417593D01*
X107198809Y-95417593D02*
X107225000Y-95284260D01*
X107225000Y-95284260D02*
X107251190Y-95217593D01*
X107251190Y-95217593D02*
X107303571Y-95150926D01*
X107303571Y-95150926D02*
X107382143Y-95117593D01*
X107382143Y-95117593D02*
X107434524Y-95117593D01*
X107434524Y-95117593D02*
X107513095Y-95150926D01*
X107513095Y-95150926D02*
X107539286Y-95184260D01*
X108063095Y-95817593D02*
X107748809Y-95817593D01*
X107905952Y-95817593D02*
X107905952Y-95117593D01*
X107905952Y-95117593D02*
X107853571Y-95217593D01*
X107853571Y-95217593D02*
X107801190Y-95284260D01*
X107801190Y-95284260D02*
X107748809Y-95317593D01*
D11*
X113549999Y-66158557D02*
X113316666Y-65729985D01*
X113149999Y-66158557D02*
X113149999Y-65258557D01*
X113149999Y-65258557D02*
X113416666Y-65258557D01*
X113416666Y-65258557D02*
X113483333Y-65301414D01*
X113483333Y-65301414D02*
X113516666Y-65344271D01*
X113516666Y-65344271D02*
X113549999Y-65429985D01*
X113549999Y-65429985D02*
X113549999Y-65558557D01*
X113549999Y-65558557D02*
X113516666Y-65644271D01*
X113516666Y-65644271D02*
X113483333Y-65687128D01*
X113483333Y-65687128D02*
X113416666Y-65729985D01*
X113416666Y-65729985D02*
X113149999Y-65729985D01*
X113816666Y-65344271D02*
X113849999Y-65301414D01*
X113849999Y-65301414D02*
X113916666Y-65258557D01*
X113916666Y-65258557D02*
X114083333Y-65258557D01*
X114083333Y-65258557D02*
X114149999Y-65301414D01*
X114149999Y-65301414D02*
X114183333Y-65344271D01*
X114183333Y-65344271D02*
X114216666Y-65429985D01*
X114216666Y-65429985D02*
X114216666Y-65515700D01*
X114216666Y-65515700D02*
X114183333Y-65644271D01*
X114183333Y-65644271D02*
X113783333Y-66158557D01*
X113783333Y-66158557D02*
X114216666Y-66158557D01*
X114450000Y-65258557D02*
X114883333Y-65258557D01*
X114883333Y-65258557D02*
X114650000Y-65601414D01*
X114650000Y-65601414D02*
X114750000Y-65601414D01*
X114750000Y-65601414D02*
X114816666Y-65644271D01*
X114816666Y-65644271D02*
X114850000Y-65687128D01*
X114850000Y-65687128D02*
X114883333Y-65772842D01*
X114883333Y-65772842D02*
X114883333Y-65987128D01*
X114883333Y-65987128D02*
X114850000Y-66072842D01*
X114850000Y-66072842D02*
X114816666Y-66115700D01*
X114816666Y-66115700D02*
X114750000Y-66158557D01*
X114750000Y-66158557D02*
X114550000Y-66158557D01*
X114550000Y-66158557D02*
X114483333Y-66115700D01*
X114483333Y-66115700D02*
X114450000Y-66072842D01*
X123349999Y-61072842D02*
X123316666Y-61115700D01*
X123316666Y-61115700D02*
X123216666Y-61158557D01*
X123216666Y-61158557D02*
X123149999Y-61158557D01*
X123149999Y-61158557D02*
X123049999Y-61115700D01*
X123049999Y-61115700D02*
X122983333Y-61029985D01*
X122983333Y-61029985D02*
X122949999Y-60944271D01*
X122949999Y-60944271D02*
X122916666Y-60772842D01*
X122916666Y-60772842D02*
X122916666Y-60644271D01*
X122916666Y-60644271D02*
X122949999Y-60472842D01*
X122949999Y-60472842D02*
X122983333Y-60387128D01*
X122983333Y-60387128D02*
X123049999Y-60301414D01*
X123049999Y-60301414D02*
X123149999Y-60258557D01*
X123149999Y-60258557D02*
X123216666Y-60258557D01*
X123216666Y-60258557D02*
X123316666Y-60301414D01*
X123316666Y-60301414D02*
X123349999Y-60344271D01*
X123616666Y-60344271D02*
X123649999Y-60301414D01*
X123649999Y-60301414D02*
X123716666Y-60258557D01*
X123716666Y-60258557D02*
X123883333Y-60258557D01*
X123883333Y-60258557D02*
X123949999Y-60301414D01*
X123949999Y-60301414D02*
X123983333Y-60344271D01*
X123983333Y-60344271D02*
X124016666Y-60429985D01*
X124016666Y-60429985D02*
X124016666Y-60515700D01*
X124016666Y-60515700D02*
X123983333Y-60644271D01*
X123983333Y-60644271D02*
X123583333Y-61158557D01*
X123583333Y-61158557D02*
X124016666Y-61158557D01*
X124616666Y-60558557D02*
X124616666Y-61158557D01*
X124450000Y-60215700D02*
X124283333Y-60858557D01*
X124283333Y-60858557D02*
X124716666Y-60858557D01*
X110883333Y-82908557D02*
X110650000Y-82479985D01*
X110483333Y-82908557D02*
X110483333Y-82008557D01*
X110483333Y-82008557D02*
X110750000Y-82008557D01*
X110750000Y-82008557D02*
X110816667Y-82051414D01*
X110816667Y-82051414D02*
X110850000Y-82094271D01*
X110850000Y-82094271D02*
X110883333Y-82179985D01*
X110883333Y-82179985D02*
X110883333Y-82308557D01*
X110883333Y-82308557D02*
X110850000Y-82394271D01*
X110850000Y-82394271D02*
X110816667Y-82437128D01*
X110816667Y-82437128D02*
X110750000Y-82479985D01*
X110750000Y-82479985D02*
X110483333Y-82479985D01*
X111116667Y-82008557D02*
X111550000Y-82008557D01*
X111550000Y-82008557D02*
X111316667Y-82351414D01*
X111316667Y-82351414D02*
X111416667Y-82351414D01*
X111416667Y-82351414D02*
X111483333Y-82394271D01*
X111483333Y-82394271D02*
X111516667Y-82437128D01*
X111516667Y-82437128D02*
X111550000Y-82522842D01*
X111550000Y-82522842D02*
X111550000Y-82737128D01*
X111550000Y-82737128D02*
X111516667Y-82822842D01*
X111516667Y-82822842D02*
X111483333Y-82865700D01*
X111483333Y-82865700D02*
X111416667Y-82908557D01*
X111416667Y-82908557D02*
X111216667Y-82908557D01*
X111216667Y-82908557D02*
X111150000Y-82865700D01*
X111150000Y-82865700D02*
X111116667Y-82822842D01*
X120658557Y-79866666D02*
X120229985Y-80099999D01*
X120658557Y-80266666D02*
X119758557Y-80266666D01*
X119758557Y-80266666D02*
X119758557Y-79999999D01*
X119758557Y-79999999D02*
X119801414Y-79933333D01*
X119801414Y-79933333D02*
X119844271Y-79899999D01*
X119844271Y-79899999D02*
X119929985Y-79866666D01*
X119929985Y-79866666D02*
X120058557Y-79866666D01*
X120058557Y-79866666D02*
X120144271Y-79899999D01*
X120144271Y-79899999D02*
X120187128Y-79933333D01*
X120187128Y-79933333D02*
X120229985Y-79999999D01*
X120229985Y-79999999D02*
X120229985Y-80266666D01*
X119844271Y-79599999D02*
X119801414Y-79566666D01*
X119801414Y-79566666D02*
X119758557Y-79499999D01*
X119758557Y-79499999D02*
X119758557Y-79333333D01*
X119758557Y-79333333D02*
X119801414Y-79266666D01*
X119801414Y-79266666D02*
X119844271Y-79233333D01*
X119844271Y-79233333D02*
X119929985Y-79199999D01*
X119929985Y-79199999D02*
X120015700Y-79199999D01*
X120015700Y-79199999D02*
X120144271Y-79233333D01*
X120144271Y-79233333D02*
X120658557Y-79633333D01*
X120658557Y-79633333D02*
X120658557Y-79199999D01*
X103549999Y-62072842D02*
X103516666Y-62115700D01*
X103516666Y-62115700D02*
X103416666Y-62158557D01*
X103416666Y-62158557D02*
X103349999Y-62158557D01*
X103349999Y-62158557D02*
X103249999Y-62115700D01*
X103249999Y-62115700D02*
X103183333Y-62029985D01*
X103183333Y-62029985D02*
X103149999Y-61944271D01*
X103149999Y-61944271D02*
X103116666Y-61772842D01*
X103116666Y-61772842D02*
X103116666Y-61644271D01*
X103116666Y-61644271D02*
X103149999Y-61472842D01*
X103149999Y-61472842D02*
X103183333Y-61387128D01*
X103183333Y-61387128D02*
X103249999Y-61301414D01*
X103249999Y-61301414D02*
X103349999Y-61258557D01*
X103349999Y-61258557D02*
X103416666Y-61258557D01*
X103416666Y-61258557D02*
X103516666Y-61301414D01*
X103516666Y-61301414D02*
X103549999Y-61344271D01*
X104216666Y-62158557D02*
X103816666Y-62158557D01*
X104016666Y-62158557D02*
X104016666Y-61258557D01*
X104016666Y-61258557D02*
X103949999Y-61387128D01*
X103949999Y-61387128D02*
X103883333Y-61472842D01*
X103883333Y-61472842D02*
X103816666Y-61515700D01*
X104483333Y-61344271D02*
X104516666Y-61301414D01*
X104516666Y-61301414D02*
X104583333Y-61258557D01*
X104583333Y-61258557D02*
X104750000Y-61258557D01*
X104750000Y-61258557D02*
X104816666Y-61301414D01*
X104816666Y-61301414D02*
X104850000Y-61344271D01*
X104850000Y-61344271D02*
X104883333Y-61429985D01*
X104883333Y-61429985D02*
X104883333Y-61515700D01*
X104883333Y-61515700D02*
X104850000Y-61644271D01*
X104850000Y-61644271D02*
X104450000Y-62158557D01*
X104450000Y-62158557D02*
X104883333Y-62158557D01*
X117049999Y-65822842D02*
X117016666Y-65865700D01*
X117016666Y-65865700D02*
X116916666Y-65908557D01*
X116916666Y-65908557D02*
X116849999Y-65908557D01*
X116849999Y-65908557D02*
X116749999Y-65865700D01*
X116749999Y-65865700D02*
X116683333Y-65779985D01*
X116683333Y-65779985D02*
X116649999Y-65694271D01*
X116649999Y-65694271D02*
X116616666Y-65522842D01*
X116616666Y-65522842D02*
X116616666Y-65394271D01*
X116616666Y-65394271D02*
X116649999Y-65222842D01*
X116649999Y-65222842D02*
X116683333Y-65137128D01*
X116683333Y-65137128D02*
X116749999Y-65051414D01*
X116749999Y-65051414D02*
X116849999Y-65008557D01*
X116849999Y-65008557D02*
X116916666Y-65008557D01*
X116916666Y-65008557D02*
X117016666Y-65051414D01*
X117016666Y-65051414D02*
X117049999Y-65094271D01*
X117716666Y-65908557D02*
X117316666Y-65908557D01*
X117516666Y-65908557D02*
X117516666Y-65008557D01*
X117516666Y-65008557D02*
X117449999Y-65137128D01*
X117449999Y-65137128D02*
X117383333Y-65222842D01*
X117383333Y-65222842D02*
X117316666Y-65265700D01*
X118383333Y-65908557D02*
X117983333Y-65908557D01*
X118183333Y-65908557D02*
X118183333Y-65008557D01*
X118183333Y-65008557D02*
X118116666Y-65137128D01*
X118116666Y-65137128D02*
X118050000Y-65222842D01*
X118050000Y-65222842D02*
X117983333Y-65265700D01*
D13*
X115617593Y-80419047D02*
X116184260Y-80419047D01*
X116184260Y-80419047D02*
X116250926Y-80392857D01*
X116250926Y-80392857D02*
X116284260Y-80366666D01*
X116284260Y-80366666D02*
X116317593Y-80314285D01*
X116317593Y-80314285D02*
X116317593Y-80209523D01*
X116317593Y-80209523D02*
X116284260Y-80157142D01*
X116284260Y-80157142D02*
X116250926Y-80130952D01*
X116250926Y-80130952D02*
X116184260Y-80104761D01*
X116184260Y-80104761D02*
X115617593Y-80104761D01*
X115684260Y-79869048D02*
X115650926Y-79842857D01*
X115650926Y-79842857D02*
X115617593Y-79790476D01*
X115617593Y-79790476D02*
X115617593Y-79659524D01*
X115617593Y-79659524D02*
X115650926Y-79607143D01*
X115650926Y-79607143D02*
X115684260Y-79580952D01*
X115684260Y-79580952D02*
X115750926Y-79554762D01*
X115750926Y-79554762D02*
X115817593Y-79554762D01*
X115817593Y-79554762D02*
X115917593Y-79580952D01*
X115917593Y-79580952D02*
X116317593Y-79895238D01*
X116317593Y-79895238D02*
X116317593Y-79554762D01*
D11*
X125049999Y-92658557D02*
X124816666Y-92229985D01*
X124649999Y-92658557D02*
X124649999Y-91758557D01*
X124649999Y-91758557D02*
X124916666Y-91758557D01*
X124916666Y-91758557D02*
X124983333Y-91801414D01*
X124983333Y-91801414D02*
X125016666Y-91844271D01*
X125016666Y-91844271D02*
X125049999Y-91929985D01*
X125049999Y-91929985D02*
X125049999Y-92058557D01*
X125049999Y-92058557D02*
X125016666Y-92144271D01*
X125016666Y-92144271D02*
X124983333Y-92187128D01*
X124983333Y-92187128D02*
X124916666Y-92229985D01*
X124916666Y-92229985D02*
X124649999Y-92229985D01*
X125283333Y-91758557D02*
X125716666Y-91758557D01*
X125716666Y-91758557D02*
X125483333Y-92101414D01*
X125483333Y-92101414D02*
X125583333Y-92101414D01*
X125583333Y-92101414D02*
X125649999Y-92144271D01*
X125649999Y-92144271D02*
X125683333Y-92187128D01*
X125683333Y-92187128D02*
X125716666Y-92272842D01*
X125716666Y-92272842D02*
X125716666Y-92487128D01*
X125716666Y-92487128D02*
X125683333Y-92572842D01*
X125683333Y-92572842D02*
X125649999Y-92615700D01*
X125649999Y-92615700D02*
X125583333Y-92658557D01*
X125583333Y-92658557D02*
X125383333Y-92658557D01*
X125383333Y-92658557D02*
X125316666Y-92615700D01*
X125316666Y-92615700D02*
X125283333Y-92572842D01*
X126316666Y-92058557D02*
X126316666Y-92658557D01*
X126150000Y-91715700D02*
X125983333Y-92358557D01*
X125983333Y-92358557D02*
X126416666Y-92358557D01*
X121658557Y-87116666D02*
X121229985Y-87349999D01*
X121658557Y-87516666D02*
X120758557Y-87516666D01*
X120758557Y-87516666D02*
X120758557Y-87249999D01*
X120758557Y-87249999D02*
X120801414Y-87183333D01*
X120801414Y-87183333D02*
X120844271Y-87149999D01*
X120844271Y-87149999D02*
X120929985Y-87116666D01*
X120929985Y-87116666D02*
X121058557Y-87116666D01*
X121058557Y-87116666D02*
X121144271Y-87149999D01*
X121144271Y-87149999D02*
X121187128Y-87183333D01*
X121187128Y-87183333D02*
X121229985Y-87249999D01*
X121229985Y-87249999D02*
X121229985Y-87516666D01*
X120758557Y-86883333D02*
X120758557Y-86416666D01*
X120758557Y-86416666D02*
X121658557Y-86716666D01*
X128072842Y-77866666D02*
X128115700Y-77899999D01*
X128115700Y-77899999D02*
X128158557Y-77999999D01*
X128158557Y-77999999D02*
X128158557Y-78066666D01*
X128158557Y-78066666D02*
X128115700Y-78166666D01*
X128115700Y-78166666D02*
X128029985Y-78233333D01*
X128029985Y-78233333D02*
X127944271Y-78266666D01*
X127944271Y-78266666D02*
X127772842Y-78299999D01*
X127772842Y-78299999D02*
X127644271Y-78299999D01*
X127644271Y-78299999D02*
X127472842Y-78266666D01*
X127472842Y-78266666D02*
X127387128Y-78233333D01*
X127387128Y-78233333D02*
X127301414Y-78166666D01*
X127301414Y-78166666D02*
X127258557Y-78066666D01*
X127258557Y-78066666D02*
X127258557Y-77999999D01*
X127258557Y-77999999D02*
X127301414Y-77899999D01*
X127301414Y-77899999D02*
X127344271Y-77866666D01*
X128158557Y-77199999D02*
X128158557Y-77599999D01*
X128158557Y-77399999D02*
X127258557Y-77399999D01*
X127258557Y-77399999D02*
X127387128Y-77466666D01*
X127387128Y-77466666D02*
X127472842Y-77533333D01*
X127472842Y-77533333D02*
X127515700Y-77599999D01*
D13*
X102580952Y-80867593D02*
X102580952Y-81434260D01*
X102580952Y-81434260D02*
X102607142Y-81500926D01*
X102607142Y-81500926D02*
X102633333Y-81534260D01*
X102633333Y-81534260D02*
X102685714Y-81567593D01*
X102685714Y-81567593D02*
X102790476Y-81567593D01*
X102790476Y-81567593D02*
X102842857Y-81534260D01*
X102842857Y-81534260D02*
X102869047Y-81500926D01*
X102869047Y-81500926D02*
X102895238Y-81434260D01*
X102895238Y-81434260D02*
X102895238Y-80867593D01*
X103392856Y-80867593D02*
X103288094Y-80867593D01*
X103288094Y-80867593D02*
X103235713Y-80900926D01*
X103235713Y-80900926D02*
X103209523Y-80934260D01*
X103209523Y-80934260D02*
X103157142Y-81034260D01*
X103157142Y-81034260D02*
X103130951Y-81167593D01*
X103130951Y-81167593D02*
X103130951Y-81434260D01*
X103130951Y-81434260D02*
X103157142Y-81500926D01*
X103157142Y-81500926D02*
X103183332Y-81534260D01*
X103183332Y-81534260D02*
X103235713Y-81567593D01*
X103235713Y-81567593D02*
X103340475Y-81567593D01*
X103340475Y-81567593D02*
X103392856Y-81534260D01*
X103392856Y-81534260D02*
X103419047Y-81500926D01*
X103419047Y-81500926D02*
X103445237Y-81434260D01*
X103445237Y-81434260D02*
X103445237Y-81267593D01*
X103445237Y-81267593D02*
X103419047Y-81200926D01*
X103419047Y-81200926D02*
X103392856Y-81167593D01*
X103392856Y-81167593D02*
X103340475Y-81134260D01*
X103340475Y-81134260D02*
X103235713Y-81134260D01*
X103235713Y-81134260D02*
X103183332Y-81167593D01*
X103183332Y-81167593D02*
X103157142Y-81200926D01*
X103157142Y-81200926D02*
X103130951Y-81267593D01*
D11*
X101549999Y-93658557D02*
X101316666Y-93229985D01*
X101149999Y-93658557D02*
X101149999Y-92758557D01*
X101149999Y-92758557D02*
X101416666Y-92758557D01*
X101416666Y-92758557D02*
X101483333Y-92801414D01*
X101483333Y-92801414D02*
X101516666Y-92844271D01*
X101516666Y-92844271D02*
X101549999Y-92929985D01*
X101549999Y-92929985D02*
X101549999Y-93058557D01*
X101549999Y-93058557D02*
X101516666Y-93144271D01*
X101516666Y-93144271D02*
X101483333Y-93187128D01*
X101483333Y-93187128D02*
X101416666Y-93229985D01*
X101416666Y-93229985D02*
X101149999Y-93229985D01*
X102216666Y-93658557D02*
X101816666Y-93658557D01*
X102016666Y-93658557D02*
X102016666Y-92758557D01*
X102016666Y-92758557D02*
X101949999Y-92887128D01*
X101949999Y-92887128D02*
X101883333Y-92972842D01*
X101883333Y-92972842D02*
X101816666Y-93015700D01*
X102483333Y-92844271D02*
X102516666Y-92801414D01*
X102516666Y-92801414D02*
X102583333Y-92758557D01*
X102583333Y-92758557D02*
X102750000Y-92758557D01*
X102750000Y-92758557D02*
X102816666Y-92801414D01*
X102816666Y-92801414D02*
X102850000Y-92844271D01*
X102850000Y-92844271D02*
X102883333Y-92929985D01*
X102883333Y-92929985D02*
X102883333Y-93015700D01*
X102883333Y-93015700D02*
X102850000Y-93144271D01*
X102850000Y-93144271D02*
X102450000Y-93658557D01*
X102450000Y-93658557D02*
X102883333Y-93658557D01*
D13*
X129117593Y-95919047D02*
X129684260Y-95919047D01*
X129684260Y-95919047D02*
X129750926Y-95892857D01*
X129750926Y-95892857D02*
X129784260Y-95866666D01*
X129784260Y-95866666D02*
X129817593Y-95814285D01*
X129817593Y-95814285D02*
X129817593Y-95709523D01*
X129817593Y-95709523D02*
X129784260Y-95657142D01*
X129784260Y-95657142D02*
X129750926Y-95630952D01*
X129750926Y-95630952D02*
X129684260Y-95604761D01*
X129684260Y-95604761D02*
X129117593Y-95604761D01*
X129117593Y-95395238D02*
X129117593Y-95028571D01*
X129117593Y-95028571D02*
X129817593Y-95264286D01*
D11*
X113072842Y-78200000D02*
X113115700Y-78233333D01*
X113115700Y-78233333D02*
X113158557Y-78333333D01*
X113158557Y-78333333D02*
X113158557Y-78400000D01*
X113158557Y-78400000D02*
X113115700Y-78500000D01*
X113115700Y-78500000D02*
X113029985Y-78566667D01*
X113029985Y-78566667D02*
X112944271Y-78600000D01*
X112944271Y-78600000D02*
X112772842Y-78633333D01*
X112772842Y-78633333D02*
X112644271Y-78633333D01*
X112644271Y-78633333D02*
X112472842Y-78600000D01*
X112472842Y-78600000D02*
X112387128Y-78566667D01*
X112387128Y-78566667D02*
X112301414Y-78500000D01*
X112301414Y-78500000D02*
X112258557Y-78400000D01*
X112258557Y-78400000D02*
X112258557Y-78333333D01*
X112258557Y-78333333D02*
X112301414Y-78233333D01*
X112301414Y-78233333D02*
X112344271Y-78200000D01*
X113158557Y-77533333D02*
X113158557Y-77933333D01*
X113158557Y-77733333D02*
X112258557Y-77733333D01*
X112258557Y-77733333D02*
X112387128Y-77800000D01*
X112387128Y-77800000D02*
X112472842Y-77866667D01*
X112472842Y-77866667D02*
X112515700Y-77933333D01*
X112558557Y-76933333D02*
X113158557Y-76933333D01*
X112215700Y-77100000D02*
X112858557Y-77266666D01*
X112858557Y-77266666D02*
X112858557Y-76833333D01*
X136049999Y-92072842D02*
X136016666Y-92115700D01*
X136016666Y-92115700D02*
X135916666Y-92158557D01*
X135916666Y-92158557D02*
X135849999Y-92158557D01*
X135849999Y-92158557D02*
X135749999Y-92115700D01*
X135749999Y-92115700D02*
X135683333Y-92029985D01*
X135683333Y-92029985D02*
X135649999Y-91944271D01*
X135649999Y-91944271D02*
X135616666Y-91772842D01*
X135616666Y-91772842D02*
X135616666Y-91644271D01*
X135616666Y-91644271D02*
X135649999Y-91472842D01*
X135649999Y-91472842D02*
X135683333Y-91387128D01*
X135683333Y-91387128D02*
X135749999Y-91301414D01*
X135749999Y-91301414D02*
X135849999Y-91258557D01*
X135849999Y-91258557D02*
X135916666Y-91258557D01*
X135916666Y-91258557D02*
X136016666Y-91301414D01*
X136016666Y-91301414D02*
X136049999Y-91344271D01*
X136649999Y-91558557D02*
X136649999Y-92158557D01*
X136483333Y-91215700D02*
X136316666Y-91858557D01*
X136316666Y-91858557D02*
X136749999Y-91858557D01*
X103549999Y-63322842D02*
X103516666Y-63365700D01*
X103516666Y-63365700D02*
X103416666Y-63408557D01*
X103416666Y-63408557D02*
X103349999Y-63408557D01*
X103349999Y-63408557D02*
X103249999Y-63365700D01*
X103249999Y-63365700D02*
X103183333Y-63279985D01*
X103183333Y-63279985D02*
X103149999Y-63194271D01*
X103149999Y-63194271D02*
X103116666Y-63022842D01*
X103116666Y-63022842D02*
X103116666Y-62894271D01*
X103116666Y-62894271D02*
X103149999Y-62722842D01*
X103149999Y-62722842D02*
X103183333Y-62637128D01*
X103183333Y-62637128D02*
X103249999Y-62551414D01*
X103249999Y-62551414D02*
X103349999Y-62508557D01*
X103349999Y-62508557D02*
X103416666Y-62508557D01*
X103416666Y-62508557D02*
X103516666Y-62551414D01*
X103516666Y-62551414D02*
X103549999Y-62594271D01*
X104216666Y-63408557D02*
X103816666Y-63408557D01*
X104016666Y-63408557D02*
X104016666Y-62508557D01*
X104016666Y-62508557D02*
X103949999Y-62637128D01*
X103949999Y-62637128D02*
X103883333Y-62722842D01*
X103883333Y-62722842D02*
X103816666Y-62765700D01*
X104450000Y-62508557D02*
X104883333Y-62508557D01*
X104883333Y-62508557D02*
X104650000Y-62851414D01*
X104650000Y-62851414D02*
X104750000Y-62851414D01*
X104750000Y-62851414D02*
X104816666Y-62894271D01*
X104816666Y-62894271D02*
X104850000Y-62937128D01*
X104850000Y-62937128D02*
X104883333Y-63022842D01*
X104883333Y-63022842D02*
X104883333Y-63237128D01*
X104883333Y-63237128D02*
X104850000Y-63322842D01*
X104850000Y-63322842D02*
X104816666Y-63365700D01*
X104816666Y-63365700D02*
X104750000Y-63408557D01*
X104750000Y-63408557D02*
X104550000Y-63408557D01*
X104550000Y-63408557D02*
X104483333Y-63365700D01*
X104483333Y-63365700D02*
X104450000Y-63322842D01*
D13*
X117317593Y-90103571D02*
X116984260Y-90286905D01*
X117317593Y-90417857D02*
X116617593Y-90417857D01*
X116617593Y-90417857D02*
X116617593Y-90208333D01*
X116617593Y-90208333D02*
X116650926Y-90155952D01*
X116650926Y-90155952D02*
X116684260Y-90129762D01*
X116684260Y-90129762D02*
X116750926Y-90103571D01*
X116750926Y-90103571D02*
X116850926Y-90103571D01*
X116850926Y-90103571D02*
X116917593Y-90129762D01*
X116917593Y-90129762D02*
X116950926Y-90155952D01*
X116950926Y-90155952D02*
X116984260Y-90208333D01*
X116984260Y-90208333D02*
X116984260Y-90417857D01*
X116684260Y-89894048D02*
X116650926Y-89867857D01*
X116650926Y-89867857D02*
X116617593Y-89815476D01*
X116617593Y-89815476D02*
X116617593Y-89684524D01*
X116617593Y-89684524D02*
X116650926Y-89632143D01*
X116650926Y-89632143D02*
X116684260Y-89605952D01*
X116684260Y-89605952D02*
X116750926Y-89579762D01*
X116750926Y-89579762D02*
X116817593Y-89579762D01*
X116817593Y-89579762D02*
X116917593Y-89605952D01*
X116917593Y-89605952D02*
X117317593Y-89920238D01*
X117317593Y-89920238D02*
X117317593Y-89579762D01*
X116617593Y-89396428D02*
X116617593Y-89029761D01*
X116617593Y-89029761D02*
X117317593Y-89265476D01*
D11*
X105299999Y-85072842D02*
X105266666Y-85115700D01*
X105266666Y-85115700D02*
X105166666Y-85158557D01*
X105166666Y-85158557D02*
X105099999Y-85158557D01*
X105099999Y-85158557D02*
X104999999Y-85115700D01*
X104999999Y-85115700D02*
X104933333Y-85029985D01*
X104933333Y-85029985D02*
X104899999Y-84944271D01*
X104899999Y-84944271D02*
X104866666Y-84772842D01*
X104866666Y-84772842D02*
X104866666Y-84644271D01*
X104866666Y-84644271D02*
X104899999Y-84472842D01*
X104899999Y-84472842D02*
X104933333Y-84387128D01*
X104933333Y-84387128D02*
X104999999Y-84301414D01*
X104999999Y-84301414D02*
X105099999Y-84258557D01*
X105099999Y-84258557D02*
X105166666Y-84258557D01*
X105166666Y-84258557D02*
X105266666Y-84301414D01*
X105266666Y-84301414D02*
X105299999Y-84344271D01*
X105966666Y-85158557D02*
X105566666Y-85158557D01*
X105766666Y-85158557D02*
X105766666Y-84258557D01*
X105766666Y-84258557D02*
X105699999Y-84387128D01*
X105699999Y-84387128D02*
X105633333Y-84472842D01*
X105633333Y-84472842D02*
X105566666Y-84515700D01*
X106366666Y-84644271D02*
X106300000Y-84601414D01*
X106300000Y-84601414D02*
X106266666Y-84558557D01*
X106266666Y-84558557D02*
X106233333Y-84472842D01*
X106233333Y-84472842D02*
X106233333Y-84429985D01*
X106233333Y-84429985D02*
X106266666Y-84344271D01*
X106266666Y-84344271D02*
X106300000Y-84301414D01*
X106300000Y-84301414D02*
X106366666Y-84258557D01*
X106366666Y-84258557D02*
X106500000Y-84258557D01*
X106500000Y-84258557D02*
X106566666Y-84301414D01*
X106566666Y-84301414D02*
X106600000Y-84344271D01*
X106600000Y-84344271D02*
X106633333Y-84429985D01*
X106633333Y-84429985D02*
X106633333Y-84472842D01*
X106633333Y-84472842D02*
X106600000Y-84558557D01*
X106600000Y-84558557D02*
X106566666Y-84601414D01*
X106566666Y-84601414D02*
X106500000Y-84644271D01*
X106500000Y-84644271D02*
X106366666Y-84644271D01*
X106366666Y-84644271D02*
X106300000Y-84687128D01*
X106300000Y-84687128D02*
X106266666Y-84729985D01*
X106266666Y-84729985D02*
X106233333Y-84815700D01*
X106233333Y-84815700D02*
X106233333Y-84987128D01*
X106233333Y-84987128D02*
X106266666Y-85072842D01*
X106266666Y-85072842D02*
X106300000Y-85115700D01*
X106300000Y-85115700D02*
X106366666Y-85158557D01*
X106366666Y-85158557D02*
X106500000Y-85158557D01*
X106500000Y-85158557D02*
X106566666Y-85115700D01*
X106566666Y-85115700D02*
X106600000Y-85072842D01*
X106600000Y-85072842D02*
X106633333Y-84987128D01*
X106633333Y-84987128D02*
X106633333Y-84815700D01*
X106633333Y-84815700D02*
X106600000Y-84729985D01*
X106600000Y-84729985D02*
X106566666Y-84687128D01*
X106566666Y-84687128D02*
X106500000Y-84644271D01*
X110883333Y-81408557D02*
X110650000Y-80979985D01*
X110483333Y-81408557D02*
X110483333Y-80508557D01*
X110483333Y-80508557D02*
X110750000Y-80508557D01*
X110750000Y-80508557D02*
X110816667Y-80551414D01*
X110816667Y-80551414D02*
X110850000Y-80594271D01*
X110850000Y-80594271D02*
X110883333Y-80679985D01*
X110883333Y-80679985D02*
X110883333Y-80808557D01*
X110883333Y-80808557D02*
X110850000Y-80894271D01*
X110850000Y-80894271D02*
X110816667Y-80937128D01*
X110816667Y-80937128D02*
X110750000Y-80979985D01*
X110750000Y-80979985D02*
X110483333Y-80979985D01*
X111483333Y-80808557D02*
X111483333Y-81408557D01*
X111316667Y-80465700D02*
X111150000Y-81108557D01*
X111150000Y-81108557D02*
X111583333Y-81108557D01*
X111572842Y-78200000D02*
X111615700Y-78233333D01*
X111615700Y-78233333D02*
X111658557Y-78333333D01*
X111658557Y-78333333D02*
X111658557Y-78400000D01*
X111658557Y-78400000D02*
X111615700Y-78500000D01*
X111615700Y-78500000D02*
X111529985Y-78566667D01*
X111529985Y-78566667D02*
X111444271Y-78600000D01*
X111444271Y-78600000D02*
X111272842Y-78633333D01*
X111272842Y-78633333D02*
X111144271Y-78633333D01*
X111144271Y-78633333D02*
X110972842Y-78600000D01*
X110972842Y-78600000D02*
X110887128Y-78566667D01*
X110887128Y-78566667D02*
X110801414Y-78500000D01*
X110801414Y-78500000D02*
X110758557Y-78400000D01*
X110758557Y-78400000D02*
X110758557Y-78333333D01*
X110758557Y-78333333D02*
X110801414Y-78233333D01*
X110801414Y-78233333D02*
X110844271Y-78200000D01*
X111658557Y-77533333D02*
X111658557Y-77933333D01*
X111658557Y-77733333D02*
X110758557Y-77733333D01*
X110758557Y-77733333D02*
X110887128Y-77800000D01*
X110887128Y-77800000D02*
X110972842Y-77866667D01*
X110972842Y-77866667D02*
X111015700Y-77933333D01*
X110758557Y-76900000D02*
X110758557Y-77233333D01*
X110758557Y-77233333D02*
X111187128Y-77266666D01*
X111187128Y-77266666D02*
X111144271Y-77233333D01*
X111144271Y-77233333D02*
X111101414Y-77166666D01*
X111101414Y-77166666D02*
X111101414Y-77000000D01*
X111101414Y-77000000D02*
X111144271Y-76933333D01*
X111144271Y-76933333D02*
X111187128Y-76900000D01*
X111187128Y-76900000D02*
X111272842Y-76866666D01*
X111272842Y-76866666D02*
X111487128Y-76866666D01*
X111487128Y-76866666D02*
X111572842Y-76900000D01*
X111572842Y-76900000D02*
X111615700Y-76933333D01*
X111615700Y-76933333D02*
X111658557Y-77000000D01*
X111658557Y-77000000D02*
X111658557Y-77166666D01*
X111658557Y-77166666D02*
X111615700Y-77233333D01*
X111615700Y-77233333D02*
X111572842Y-77266666D01*
X107049999Y-58158557D02*
X106816666Y-57729985D01*
X106649999Y-58158557D02*
X106649999Y-57258557D01*
X106649999Y-57258557D02*
X106916666Y-57258557D01*
X106916666Y-57258557D02*
X106983333Y-57301414D01*
X106983333Y-57301414D02*
X107016666Y-57344271D01*
X107016666Y-57344271D02*
X107049999Y-57429985D01*
X107049999Y-57429985D02*
X107049999Y-57558557D01*
X107049999Y-57558557D02*
X107016666Y-57644271D01*
X107016666Y-57644271D02*
X106983333Y-57687128D01*
X106983333Y-57687128D02*
X106916666Y-57729985D01*
X106916666Y-57729985D02*
X106649999Y-57729985D01*
X107716666Y-58158557D02*
X107316666Y-58158557D01*
X107516666Y-58158557D02*
X107516666Y-57258557D01*
X107516666Y-57258557D02*
X107449999Y-57387128D01*
X107449999Y-57387128D02*
X107383333Y-57472842D01*
X107383333Y-57472842D02*
X107316666Y-57515700D01*
X107950000Y-57258557D02*
X108383333Y-57258557D01*
X108383333Y-57258557D02*
X108150000Y-57601414D01*
X108150000Y-57601414D02*
X108250000Y-57601414D01*
X108250000Y-57601414D02*
X108316666Y-57644271D01*
X108316666Y-57644271D02*
X108350000Y-57687128D01*
X108350000Y-57687128D02*
X108383333Y-57772842D01*
X108383333Y-57772842D02*
X108383333Y-57987128D01*
X108383333Y-57987128D02*
X108350000Y-58072842D01*
X108350000Y-58072842D02*
X108316666Y-58115700D01*
X108316666Y-58115700D02*
X108250000Y-58158557D01*
X108250000Y-58158557D02*
X108050000Y-58158557D01*
X108050000Y-58158557D02*
X107983333Y-58115700D01*
X107983333Y-58115700D02*
X107950000Y-58072842D01*
X113549999Y-64408557D02*
X113316666Y-63979985D01*
X113149999Y-64408557D02*
X113149999Y-63508557D01*
X113149999Y-63508557D02*
X113416666Y-63508557D01*
X113416666Y-63508557D02*
X113483333Y-63551414D01*
X113483333Y-63551414D02*
X113516666Y-63594271D01*
X113516666Y-63594271D02*
X113549999Y-63679985D01*
X113549999Y-63679985D02*
X113549999Y-63808557D01*
X113549999Y-63808557D02*
X113516666Y-63894271D01*
X113516666Y-63894271D02*
X113483333Y-63937128D01*
X113483333Y-63937128D02*
X113416666Y-63979985D01*
X113416666Y-63979985D02*
X113149999Y-63979985D01*
X113816666Y-63594271D02*
X113849999Y-63551414D01*
X113849999Y-63551414D02*
X113916666Y-63508557D01*
X113916666Y-63508557D02*
X114083333Y-63508557D01*
X114083333Y-63508557D02*
X114149999Y-63551414D01*
X114149999Y-63551414D02*
X114183333Y-63594271D01*
X114183333Y-63594271D02*
X114216666Y-63679985D01*
X114216666Y-63679985D02*
X114216666Y-63765700D01*
X114216666Y-63765700D02*
X114183333Y-63894271D01*
X114183333Y-63894271D02*
X113783333Y-64408557D01*
X113783333Y-64408557D02*
X114216666Y-64408557D01*
X114650000Y-63508557D02*
X114716666Y-63508557D01*
X114716666Y-63508557D02*
X114783333Y-63551414D01*
X114783333Y-63551414D02*
X114816666Y-63594271D01*
X114816666Y-63594271D02*
X114850000Y-63679985D01*
X114850000Y-63679985D02*
X114883333Y-63851414D01*
X114883333Y-63851414D02*
X114883333Y-64065700D01*
X114883333Y-64065700D02*
X114850000Y-64237128D01*
X114850000Y-64237128D02*
X114816666Y-64322842D01*
X114816666Y-64322842D02*
X114783333Y-64365700D01*
X114783333Y-64365700D02*
X114716666Y-64408557D01*
X114716666Y-64408557D02*
X114650000Y-64408557D01*
X114650000Y-64408557D02*
X114583333Y-64365700D01*
X114583333Y-64365700D02*
X114550000Y-64322842D01*
X114550000Y-64322842D02*
X114516666Y-64237128D01*
X114516666Y-64237128D02*
X114483333Y-64065700D01*
X114483333Y-64065700D02*
X114483333Y-63851414D01*
X114483333Y-63851414D02*
X114516666Y-63679985D01*
X114516666Y-63679985D02*
X114550000Y-63594271D01*
X114550000Y-63594271D02*
X114583333Y-63551414D01*
X114583333Y-63551414D02*
X114650000Y-63508557D01*
X129118333Y-59258557D02*
X128784999Y-59258557D01*
X128784999Y-59258557D02*
X128784999Y-58358557D01*
X129718333Y-59258557D02*
X129318333Y-59258557D01*
X129518333Y-59258557D02*
X129518333Y-58358557D01*
X129518333Y-58358557D02*
X129451666Y-58487128D01*
X129451666Y-58487128D02*
X129385000Y-58572842D01*
X129385000Y-58572842D02*
X129318333Y-58615700D01*
D13*
X115896428Y-57000926D02*
X115870237Y-57034260D01*
X115870237Y-57034260D02*
X115791666Y-57067593D01*
X115791666Y-57067593D02*
X115739285Y-57067593D01*
X115739285Y-57067593D02*
X115660713Y-57034260D01*
X115660713Y-57034260D02*
X115608332Y-56967593D01*
X115608332Y-56967593D02*
X115582142Y-56900926D01*
X115582142Y-56900926D02*
X115555951Y-56767593D01*
X115555951Y-56767593D02*
X115555951Y-56667593D01*
X115555951Y-56667593D02*
X115582142Y-56534260D01*
X115582142Y-56534260D02*
X115608332Y-56467593D01*
X115608332Y-56467593D02*
X115660713Y-56400926D01*
X115660713Y-56400926D02*
X115739285Y-56367593D01*
X115739285Y-56367593D02*
X115791666Y-56367593D01*
X115791666Y-56367593D02*
X115870237Y-56400926D01*
X115870237Y-56400926D02*
X115896428Y-56434260D01*
X116105951Y-56434260D02*
X116132142Y-56400926D01*
X116132142Y-56400926D02*
X116184523Y-56367593D01*
X116184523Y-56367593D02*
X116315475Y-56367593D01*
X116315475Y-56367593D02*
X116367856Y-56400926D01*
X116367856Y-56400926D02*
X116394047Y-56434260D01*
X116394047Y-56434260D02*
X116420237Y-56500926D01*
X116420237Y-56500926D02*
X116420237Y-56567593D01*
X116420237Y-56567593D02*
X116394047Y-56667593D01*
X116394047Y-56667593D02*
X116079761Y-57067593D01*
X116079761Y-57067593D02*
X116420237Y-57067593D01*
X116682142Y-57067593D02*
X116786904Y-57067593D01*
X116786904Y-57067593D02*
X116839285Y-57034260D01*
X116839285Y-57034260D02*
X116865476Y-57000926D01*
X116865476Y-57000926D02*
X116917857Y-56900926D01*
X116917857Y-56900926D02*
X116944047Y-56767593D01*
X116944047Y-56767593D02*
X116944047Y-56500926D01*
X116944047Y-56500926D02*
X116917857Y-56434260D01*
X116917857Y-56434260D02*
X116891666Y-56400926D01*
X116891666Y-56400926D02*
X116839285Y-56367593D01*
X116839285Y-56367593D02*
X116734523Y-56367593D01*
X116734523Y-56367593D02*
X116682142Y-56400926D01*
X116682142Y-56400926D02*
X116655952Y-56434260D01*
X116655952Y-56434260D02*
X116629761Y-56500926D01*
X116629761Y-56500926D02*
X116629761Y-56667593D01*
X116629761Y-56667593D02*
X116655952Y-56734260D01*
X116655952Y-56734260D02*
X116682142Y-56767593D01*
X116682142Y-56767593D02*
X116734523Y-56800926D01*
X116734523Y-56800926D02*
X116839285Y-56800926D01*
X116839285Y-56800926D02*
X116891666Y-56767593D01*
X116891666Y-56767593D02*
X116917857Y-56734260D01*
X116917857Y-56734260D02*
X116944047Y-56667593D01*
X116594047Y-62067593D02*
X116594047Y-61367593D01*
X116594047Y-61367593D02*
X116724999Y-61367593D01*
X116724999Y-61367593D02*
X116803571Y-61400926D01*
X116803571Y-61400926D02*
X116855952Y-61467593D01*
X116855952Y-61467593D02*
X116882142Y-61534260D01*
X116882142Y-61534260D02*
X116908333Y-61667593D01*
X116908333Y-61667593D02*
X116908333Y-61767593D01*
X116908333Y-61767593D02*
X116882142Y-61900926D01*
X116882142Y-61900926D02*
X116855952Y-61967593D01*
X116855952Y-61967593D02*
X116803571Y-62034260D01*
X116803571Y-62034260D02*
X116724999Y-62067593D01*
X116724999Y-62067593D02*
X116594047Y-62067593D01*
X117091666Y-61367593D02*
X117458333Y-61367593D01*
X117458333Y-61367593D02*
X117222618Y-62067593D01*
D11*
X110408557Y-52950000D02*
X109979985Y-53183333D01*
X110408557Y-53350000D02*
X109508557Y-53350000D01*
X109508557Y-53350000D02*
X109508557Y-53083333D01*
X109508557Y-53083333D02*
X109551414Y-53016667D01*
X109551414Y-53016667D02*
X109594271Y-52983333D01*
X109594271Y-52983333D02*
X109679985Y-52950000D01*
X109679985Y-52950000D02*
X109808557Y-52950000D01*
X109808557Y-52950000D02*
X109894271Y-52983333D01*
X109894271Y-52983333D02*
X109937128Y-53016667D01*
X109937128Y-53016667D02*
X109979985Y-53083333D01*
X109979985Y-53083333D02*
X109979985Y-53350000D01*
X109594271Y-52683333D02*
X109551414Y-52650000D01*
X109551414Y-52650000D02*
X109508557Y-52583333D01*
X109508557Y-52583333D02*
X109508557Y-52416667D01*
X109508557Y-52416667D02*
X109551414Y-52350000D01*
X109551414Y-52350000D02*
X109594271Y-52316667D01*
X109594271Y-52316667D02*
X109679985Y-52283333D01*
X109679985Y-52283333D02*
X109765700Y-52283333D01*
X109765700Y-52283333D02*
X109894271Y-52316667D01*
X109894271Y-52316667D02*
X110408557Y-52716667D01*
X110408557Y-52716667D02*
X110408557Y-52283333D01*
X109894271Y-51883333D02*
X109851414Y-51950000D01*
X109851414Y-51950000D02*
X109808557Y-51983333D01*
X109808557Y-51983333D02*
X109722842Y-52016666D01*
X109722842Y-52016666D02*
X109679985Y-52016666D01*
X109679985Y-52016666D02*
X109594271Y-51983333D01*
X109594271Y-51983333D02*
X109551414Y-51950000D01*
X109551414Y-51950000D02*
X109508557Y-51883333D01*
X109508557Y-51883333D02*
X109508557Y-51750000D01*
X109508557Y-51750000D02*
X109551414Y-51683333D01*
X109551414Y-51683333D02*
X109594271Y-51650000D01*
X109594271Y-51650000D02*
X109679985Y-51616666D01*
X109679985Y-51616666D02*
X109722842Y-51616666D01*
X109722842Y-51616666D02*
X109808557Y-51650000D01*
X109808557Y-51650000D02*
X109851414Y-51683333D01*
X109851414Y-51683333D02*
X109894271Y-51750000D01*
X109894271Y-51750000D02*
X109894271Y-51883333D01*
X109894271Y-51883333D02*
X109937128Y-51950000D01*
X109937128Y-51950000D02*
X109979985Y-51983333D01*
X109979985Y-51983333D02*
X110065700Y-52016666D01*
X110065700Y-52016666D02*
X110237128Y-52016666D01*
X110237128Y-52016666D02*
X110322842Y-51983333D01*
X110322842Y-51983333D02*
X110365700Y-51950000D01*
X110365700Y-51950000D02*
X110408557Y-51883333D01*
X110408557Y-51883333D02*
X110408557Y-51750000D01*
X110408557Y-51750000D02*
X110365700Y-51683333D01*
X110365700Y-51683333D02*
X110322842Y-51650000D01*
X110322842Y-51650000D02*
X110237128Y-51616666D01*
X110237128Y-51616666D02*
X110065700Y-51616666D01*
X110065700Y-51616666D02*
X109979985Y-51650000D01*
X109979985Y-51650000D02*
X109937128Y-51683333D01*
X109937128Y-51683333D02*
X109894271Y-51750000D01*
X122799999Y-92572842D02*
X122766666Y-92615700D01*
X122766666Y-92615700D02*
X122666666Y-92658557D01*
X122666666Y-92658557D02*
X122599999Y-92658557D01*
X122599999Y-92658557D02*
X122499999Y-92615700D01*
X122499999Y-92615700D02*
X122433333Y-92529985D01*
X122433333Y-92529985D02*
X122399999Y-92444271D01*
X122399999Y-92444271D02*
X122366666Y-92272842D01*
X122366666Y-92272842D02*
X122366666Y-92144271D01*
X122366666Y-92144271D02*
X122399999Y-91972842D01*
X122399999Y-91972842D02*
X122433333Y-91887128D01*
X122433333Y-91887128D02*
X122499999Y-91801414D01*
X122499999Y-91801414D02*
X122599999Y-91758557D01*
X122599999Y-91758557D02*
X122666666Y-91758557D01*
X122666666Y-91758557D02*
X122766666Y-91801414D01*
X122766666Y-91801414D02*
X122799999Y-91844271D01*
X123033333Y-91758557D02*
X123466666Y-91758557D01*
X123466666Y-91758557D02*
X123233333Y-92101414D01*
X123233333Y-92101414D02*
X123333333Y-92101414D01*
X123333333Y-92101414D02*
X123399999Y-92144271D01*
X123399999Y-92144271D02*
X123433333Y-92187128D01*
X123433333Y-92187128D02*
X123466666Y-92272842D01*
X123466666Y-92272842D02*
X123466666Y-92487128D01*
X123466666Y-92487128D02*
X123433333Y-92572842D01*
X123433333Y-92572842D02*
X123399999Y-92615700D01*
X123399999Y-92615700D02*
X123333333Y-92658557D01*
X123333333Y-92658557D02*
X123133333Y-92658557D01*
X123133333Y-92658557D02*
X123066666Y-92615700D01*
X123066666Y-92615700D02*
X123033333Y-92572842D01*
X123733333Y-91844271D02*
X123766666Y-91801414D01*
X123766666Y-91801414D02*
X123833333Y-91758557D01*
X123833333Y-91758557D02*
X124000000Y-91758557D01*
X124000000Y-91758557D02*
X124066666Y-91801414D01*
X124066666Y-91801414D02*
X124100000Y-91844271D01*
X124100000Y-91844271D02*
X124133333Y-91929985D01*
X124133333Y-91929985D02*
X124133333Y-92015700D01*
X124133333Y-92015700D02*
X124100000Y-92144271D01*
X124100000Y-92144271D02*
X123700000Y-92658557D01*
X123700000Y-92658557D02*
X124133333Y-92658557D01*
X114158557Y-55200000D02*
X113729985Y-55433333D01*
X114158557Y-55600000D02*
X113258557Y-55600000D01*
X113258557Y-55600000D02*
X113258557Y-55333333D01*
X113258557Y-55333333D02*
X113301414Y-55266667D01*
X113301414Y-55266667D02*
X113344271Y-55233333D01*
X113344271Y-55233333D02*
X113429985Y-55200000D01*
X113429985Y-55200000D02*
X113558557Y-55200000D01*
X113558557Y-55200000D02*
X113644271Y-55233333D01*
X113644271Y-55233333D02*
X113687128Y-55266667D01*
X113687128Y-55266667D02*
X113729985Y-55333333D01*
X113729985Y-55333333D02*
X113729985Y-55600000D01*
X113344271Y-54933333D02*
X113301414Y-54900000D01*
X113301414Y-54900000D02*
X113258557Y-54833333D01*
X113258557Y-54833333D02*
X113258557Y-54666667D01*
X113258557Y-54666667D02*
X113301414Y-54600000D01*
X113301414Y-54600000D02*
X113344271Y-54566667D01*
X113344271Y-54566667D02*
X113429985Y-54533333D01*
X113429985Y-54533333D02*
X113515700Y-54533333D01*
X113515700Y-54533333D02*
X113644271Y-54566667D01*
X113644271Y-54566667D02*
X114158557Y-54966667D01*
X114158557Y-54966667D02*
X114158557Y-54533333D01*
X114158557Y-54200000D02*
X114158557Y-54066666D01*
X114158557Y-54066666D02*
X114115700Y-54000000D01*
X114115700Y-54000000D02*
X114072842Y-53966666D01*
X114072842Y-53966666D02*
X113944271Y-53900000D01*
X113944271Y-53900000D02*
X113772842Y-53866666D01*
X113772842Y-53866666D02*
X113429985Y-53866666D01*
X113429985Y-53866666D02*
X113344271Y-53900000D01*
X113344271Y-53900000D02*
X113301414Y-53933333D01*
X113301414Y-53933333D02*
X113258557Y-54000000D01*
X113258557Y-54000000D02*
X113258557Y-54133333D01*
X113258557Y-54133333D02*
X113301414Y-54200000D01*
X113301414Y-54200000D02*
X113344271Y-54233333D01*
X113344271Y-54233333D02*
X113429985Y-54266666D01*
X113429985Y-54266666D02*
X113644271Y-54266666D01*
X113644271Y-54266666D02*
X113729985Y-54233333D01*
X113729985Y-54233333D02*
X113772842Y-54200000D01*
X113772842Y-54200000D02*
X113815700Y-54133333D01*
X113815700Y-54133333D02*
X113815700Y-54000000D01*
X113815700Y-54000000D02*
X113772842Y-53933333D01*
X113772842Y-53933333D02*
X113729985Y-53900000D01*
X113729985Y-53900000D02*
X113644271Y-53866666D01*
X117033333Y-69758557D02*
X117499999Y-70658557D01*
X117499999Y-69758557D02*
X117033333Y-70658557D01*
X118133333Y-70658557D02*
X117733333Y-70658557D01*
X117933333Y-70658557D02*
X117933333Y-69758557D01*
X117933333Y-69758557D02*
X117866666Y-69887128D01*
X117866666Y-69887128D02*
X117800000Y-69972842D01*
X117800000Y-69972842D02*
X117733333Y-70015700D01*
X110883333Y-84408557D02*
X110650000Y-83979985D01*
X110483333Y-84408557D02*
X110483333Y-83508557D01*
X110483333Y-83508557D02*
X110750000Y-83508557D01*
X110750000Y-83508557D02*
X110816667Y-83551414D01*
X110816667Y-83551414D02*
X110850000Y-83594271D01*
X110850000Y-83594271D02*
X110883333Y-83679985D01*
X110883333Y-83679985D02*
X110883333Y-83808557D01*
X110883333Y-83808557D02*
X110850000Y-83894271D01*
X110850000Y-83894271D02*
X110816667Y-83937128D01*
X110816667Y-83937128D02*
X110750000Y-83979985D01*
X110750000Y-83979985D02*
X110483333Y-83979985D01*
X111516667Y-83508557D02*
X111183333Y-83508557D01*
X111183333Y-83508557D02*
X111150000Y-83937128D01*
X111150000Y-83937128D02*
X111183333Y-83894271D01*
X111183333Y-83894271D02*
X111250000Y-83851414D01*
X111250000Y-83851414D02*
X111416667Y-83851414D01*
X111416667Y-83851414D02*
X111483333Y-83894271D01*
X111483333Y-83894271D02*
X111516667Y-83937128D01*
X111516667Y-83937128D02*
X111550000Y-84022842D01*
X111550000Y-84022842D02*
X111550000Y-84237128D01*
X111550000Y-84237128D02*
X111516667Y-84322842D01*
X111516667Y-84322842D02*
X111483333Y-84365700D01*
X111483333Y-84365700D02*
X111416667Y-84408557D01*
X111416667Y-84408557D02*
X111250000Y-84408557D01*
X111250000Y-84408557D02*
X111183333Y-84365700D01*
X111183333Y-84365700D02*
X111150000Y-84322842D01*
D13*
X124580952Y-79617593D02*
X124580952Y-80184260D01*
X124580952Y-80184260D02*
X124607142Y-80250926D01*
X124607142Y-80250926D02*
X124633333Y-80284260D01*
X124633333Y-80284260D02*
X124685714Y-80317593D01*
X124685714Y-80317593D02*
X124790476Y-80317593D01*
X124790476Y-80317593D02*
X124842857Y-80284260D01*
X124842857Y-80284260D02*
X124869047Y-80250926D01*
X124869047Y-80250926D02*
X124895238Y-80184260D01*
X124895238Y-80184260D02*
X124895238Y-79617593D01*
X125445237Y-80317593D02*
X125130951Y-80317593D01*
X125288094Y-80317593D02*
X125288094Y-79617593D01*
X125288094Y-79617593D02*
X125235713Y-79717593D01*
X125235713Y-79717593D02*
X125183332Y-79784260D01*
X125183332Y-79784260D02*
X125130951Y-79817593D01*
X111067593Y-60103571D02*
X110734260Y-60286905D01*
X111067593Y-60417857D02*
X110367593Y-60417857D01*
X110367593Y-60417857D02*
X110367593Y-60208333D01*
X110367593Y-60208333D02*
X110400926Y-60155952D01*
X110400926Y-60155952D02*
X110434260Y-60129762D01*
X110434260Y-60129762D02*
X110500926Y-60103571D01*
X110500926Y-60103571D02*
X110600926Y-60103571D01*
X110600926Y-60103571D02*
X110667593Y-60129762D01*
X110667593Y-60129762D02*
X110700926Y-60155952D01*
X110700926Y-60155952D02*
X110734260Y-60208333D01*
X110734260Y-60208333D02*
X110734260Y-60417857D01*
X110434260Y-59894048D02*
X110400926Y-59867857D01*
X110400926Y-59867857D02*
X110367593Y-59815476D01*
X110367593Y-59815476D02*
X110367593Y-59684524D01*
X110367593Y-59684524D02*
X110400926Y-59632143D01*
X110400926Y-59632143D02*
X110434260Y-59605952D01*
X110434260Y-59605952D02*
X110500926Y-59579762D01*
X110500926Y-59579762D02*
X110567593Y-59579762D01*
X110567593Y-59579762D02*
X110667593Y-59605952D01*
X110667593Y-59605952D02*
X111067593Y-59920238D01*
X111067593Y-59920238D02*
X111067593Y-59579762D01*
X110367593Y-59082142D02*
X110367593Y-59344047D01*
X110367593Y-59344047D02*
X110700926Y-59370238D01*
X110700926Y-59370238D02*
X110667593Y-59344047D01*
X110667593Y-59344047D02*
X110634260Y-59291666D01*
X110634260Y-59291666D02*
X110634260Y-59160714D01*
X110634260Y-59160714D02*
X110667593Y-59108333D01*
X110667593Y-59108333D02*
X110700926Y-59082142D01*
X110700926Y-59082142D02*
X110767593Y-59055952D01*
X110767593Y-59055952D02*
X110934260Y-59055952D01*
X110934260Y-59055952D02*
X111000926Y-59082142D01*
X111000926Y-59082142D02*
X111034260Y-59108333D01*
X111034260Y-59108333D02*
X111067593Y-59160714D01*
X111067593Y-59160714D02*
X111067593Y-59291666D01*
X111067593Y-59291666D02*
X111034260Y-59344047D01*
X111034260Y-59344047D02*
X111000926Y-59370238D01*
D11*
X101216666Y-68072842D02*
X101183333Y-68115700D01*
X101183333Y-68115700D02*
X101083333Y-68158557D01*
X101083333Y-68158557D02*
X101016666Y-68158557D01*
X101016666Y-68158557D02*
X100916666Y-68115700D01*
X100916666Y-68115700D02*
X100850000Y-68029985D01*
X100850000Y-68029985D02*
X100816666Y-67944271D01*
X100816666Y-67944271D02*
X100783333Y-67772842D01*
X100783333Y-67772842D02*
X100783333Y-67644271D01*
X100783333Y-67644271D02*
X100816666Y-67472842D01*
X100816666Y-67472842D02*
X100850000Y-67387128D01*
X100850000Y-67387128D02*
X100916666Y-67301414D01*
X100916666Y-67301414D02*
X101016666Y-67258557D01*
X101016666Y-67258557D02*
X101083333Y-67258557D01*
X101083333Y-67258557D02*
X101183333Y-67301414D01*
X101183333Y-67301414D02*
X101216666Y-67344271D01*
X101883333Y-68158557D02*
X101483333Y-68158557D01*
X101683333Y-68158557D02*
X101683333Y-67258557D01*
X101683333Y-67258557D02*
X101616666Y-67387128D01*
X101616666Y-67387128D02*
X101550000Y-67472842D01*
X101550000Y-67472842D02*
X101483333Y-67515700D01*
X102116667Y-67258557D02*
X102583333Y-67258557D01*
X102583333Y-67258557D02*
X102283333Y-68158557D01*
X123349999Y-63072842D02*
X123316666Y-63115700D01*
X123316666Y-63115700D02*
X123216666Y-63158557D01*
X123216666Y-63158557D02*
X123149999Y-63158557D01*
X123149999Y-63158557D02*
X123049999Y-63115700D01*
X123049999Y-63115700D02*
X122983333Y-63029985D01*
X122983333Y-63029985D02*
X122949999Y-62944271D01*
X122949999Y-62944271D02*
X122916666Y-62772842D01*
X122916666Y-62772842D02*
X122916666Y-62644271D01*
X122916666Y-62644271D02*
X122949999Y-62472842D01*
X122949999Y-62472842D02*
X122983333Y-62387128D01*
X122983333Y-62387128D02*
X123049999Y-62301414D01*
X123049999Y-62301414D02*
X123149999Y-62258557D01*
X123149999Y-62258557D02*
X123216666Y-62258557D01*
X123216666Y-62258557D02*
X123316666Y-62301414D01*
X123316666Y-62301414D02*
X123349999Y-62344271D01*
X123616666Y-62344271D02*
X123649999Y-62301414D01*
X123649999Y-62301414D02*
X123716666Y-62258557D01*
X123716666Y-62258557D02*
X123883333Y-62258557D01*
X123883333Y-62258557D02*
X123949999Y-62301414D01*
X123949999Y-62301414D02*
X123983333Y-62344271D01*
X123983333Y-62344271D02*
X124016666Y-62429985D01*
X124016666Y-62429985D02*
X124016666Y-62515700D01*
X124016666Y-62515700D02*
X123983333Y-62644271D01*
X123983333Y-62644271D02*
X123583333Y-63158557D01*
X123583333Y-63158557D02*
X124016666Y-63158557D01*
X124283333Y-62344271D02*
X124316666Y-62301414D01*
X124316666Y-62301414D02*
X124383333Y-62258557D01*
X124383333Y-62258557D02*
X124550000Y-62258557D01*
X124550000Y-62258557D02*
X124616666Y-62301414D01*
X124616666Y-62301414D02*
X124650000Y-62344271D01*
X124650000Y-62344271D02*
X124683333Y-62429985D01*
X124683333Y-62429985D02*
X124683333Y-62515700D01*
X124683333Y-62515700D02*
X124650000Y-62644271D01*
X124650000Y-62644271D02*
X124250000Y-63158557D01*
X124250000Y-63158557D02*
X124683333Y-63158557D01*
X123049999Y-89658557D02*
X122816666Y-89229985D01*
X122649999Y-89658557D02*
X122649999Y-88758557D01*
X122649999Y-88758557D02*
X122916666Y-88758557D01*
X122916666Y-88758557D02*
X122983333Y-88801414D01*
X122983333Y-88801414D02*
X123016666Y-88844271D01*
X123016666Y-88844271D02*
X123049999Y-88929985D01*
X123049999Y-88929985D02*
X123049999Y-89058557D01*
X123049999Y-89058557D02*
X123016666Y-89144271D01*
X123016666Y-89144271D02*
X122983333Y-89187128D01*
X122983333Y-89187128D02*
X122916666Y-89229985D01*
X122916666Y-89229985D02*
X122649999Y-89229985D01*
X123283333Y-88758557D02*
X123716666Y-88758557D01*
X123716666Y-88758557D02*
X123483333Y-89101414D01*
X123483333Y-89101414D02*
X123583333Y-89101414D01*
X123583333Y-89101414D02*
X123649999Y-89144271D01*
X123649999Y-89144271D02*
X123683333Y-89187128D01*
X123683333Y-89187128D02*
X123716666Y-89272842D01*
X123716666Y-89272842D02*
X123716666Y-89487128D01*
X123716666Y-89487128D02*
X123683333Y-89572842D01*
X123683333Y-89572842D02*
X123649999Y-89615700D01*
X123649999Y-89615700D02*
X123583333Y-89658557D01*
X123583333Y-89658557D02*
X123383333Y-89658557D01*
X123383333Y-89658557D02*
X123316666Y-89615700D01*
X123316666Y-89615700D02*
X123283333Y-89572842D01*
X123983333Y-88844271D02*
X124016666Y-88801414D01*
X124016666Y-88801414D02*
X124083333Y-88758557D01*
X124083333Y-88758557D02*
X124250000Y-88758557D01*
X124250000Y-88758557D02*
X124316666Y-88801414D01*
X124316666Y-88801414D02*
X124350000Y-88844271D01*
X124350000Y-88844271D02*
X124383333Y-88929985D01*
X124383333Y-88929985D02*
X124383333Y-89015700D01*
X124383333Y-89015700D02*
X124350000Y-89144271D01*
X124350000Y-89144271D02*
X123950000Y-89658557D01*
X123950000Y-89658557D02*
X124383333Y-89658557D01*
X136049999Y-98072842D02*
X136016666Y-98115700D01*
X136016666Y-98115700D02*
X135916666Y-98158557D01*
X135916666Y-98158557D02*
X135849999Y-98158557D01*
X135849999Y-98158557D02*
X135749999Y-98115700D01*
X135749999Y-98115700D02*
X135683333Y-98029985D01*
X135683333Y-98029985D02*
X135649999Y-97944271D01*
X135649999Y-97944271D02*
X135616666Y-97772842D01*
X135616666Y-97772842D02*
X135616666Y-97644271D01*
X135616666Y-97644271D02*
X135649999Y-97472842D01*
X135649999Y-97472842D02*
X135683333Y-97387128D01*
X135683333Y-97387128D02*
X135749999Y-97301414D01*
X135749999Y-97301414D02*
X135849999Y-97258557D01*
X135849999Y-97258557D02*
X135916666Y-97258557D01*
X135916666Y-97258557D02*
X136016666Y-97301414D01*
X136016666Y-97301414D02*
X136049999Y-97344271D01*
X136316666Y-97344271D02*
X136349999Y-97301414D01*
X136349999Y-97301414D02*
X136416666Y-97258557D01*
X136416666Y-97258557D02*
X136583333Y-97258557D01*
X136583333Y-97258557D02*
X136649999Y-97301414D01*
X136649999Y-97301414D02*
X136683333Y-97344271D01*
X136683333Y-97344271D02*
X136716666Y-97429985D01*
X136716666Y-97429985D02*
X136716666Y-97515700D01*
X136716666Y-97515700D02*
X136683333Y-97644271D01*
X136683333Y-97644271D02*
X136283333Y-98158557D01*
X136283333Y-98158557D02*
X136716666Y-98158557D01*
X136950000Y-97258557D02*
X137416666Y-97258557D01*
X137416666Y-97258557D02*
X137116666Y-98158557D01*
X120208557Y-73950000D02*
X119779985Y-74183333D01*
X120208557Y-74350000D02*
X119308557Y-74350000D01*
X119308557Y-74350000D02*
X119308557Y-74083333D01*
X119308557Y-74083333D02*
X119351414Y-74016667D01*
X119351414Y-74016667D02*
X119394271Y-73983333D01*
X119394271Y-73983333D02*
X119479985Y-73950000D01*
X119479985Y-73950000D02*
X119608557Y-73950000D01*
X119608557Y-73950000D02*
X119694271Y-73983333D01*
X119694271Y-73983333D02*
X119737128Y-74016667D01*
X119737128Y-74016667D02*
X119779985Y-74083333D01*
X119779985Y-74083333D02*
X119779985Y-74350000D01*
X120208557Y-73283333D02*
X120208557Y-73683333D01*
X120208557Y-73483333D02*
X119308557Y-73483333D01*
X119308557Y-73483333D02*
X119437128Y-73550000D01*
X119437128Y-73550000D02*
X119522842Y-73616667D01*
X119522842Y-73616667D02*
X119565700Y-73683333D01*
X119308557Y-72650000D02*
X119308557Y-72983333D01*
X119308557Y-72983333D02*
X119737128Y-73016666D01*
X119737128Y-73016666D02*
X119694271Y-72983333D01*
X119694271Y-72983333D02*
X119651414Y-72916666D01*
X119651414Y-72916666D02*
X119651414Y-72750000D01*
X119651414Y-72750000D02*
X119694271Y-72683333D01*
X119694271Y-72683333D02*
X119737128Y-72650000D01*
X119737128Y-72650000D02*
X119822842Y-72616666D01*
X119822842Y-72616666D02*
X120037128Y-72616666D01*
X120037128Y-72616666D02*
X120122842Y-72650000D01*
X120122842Y-72650000D02*
X120165700Y-72683333D01*
X120165700Y-72683333D02*
X120208557Y-72750000D01*
X120208557Y-72750000D02*
X120208557Y-72916666D01*
X120208557Y-72916666D02*
X120165700Y-72983333D01*
X120165700Y-72983333D02*
X120122842Y-73016666D01*
X109983333Y-89408557D02*
X109983333Y-88508557D01*
X109983333Y-88508557D02*
X110150000Y-88508557D01*
X110150000Y-88508557D02*
X110250000Y-88551414D01*
X110250000Y-88551414D02*
X110316667Y-88637128D01*
X110316667Y-88637128D02*
X110350000Y-88722842D01*
X110350000Y-88722842D02*
X110383333Y-88894271D01*
X110383333Y-88894271D02*
X110383333Y-89022842D01*
X110383333Y-89022842D02*
X110350000Y-89194271D01*
X110350000Y-89194271D02*
X110316667Y-89279985D01*
X110316667Y-89279985D02*
X110250000Y-89365700D01*
X110250000Y-89365700D02*
X110150000Y-89408557D01*
X110150000Y-89408557D02*
X109983333Y-89408557D01*
X110983333Y-88508557D02*
X110850000Y-88508557D01*
X110850000Y-88508557D02*
X110783333Y-88551414D01*
X110783333Y-88551414D02*
X110750000Y-88594271D01*
X110750000Y-88594271D02*
X110683333Y-88722842D01*
X110683333Y-88722842D02*
X110650000Y-88894271D01*
X110650000Y-88894271D02*
X110650000Y-89237128D01*
X110650000Y-89237128D02*
X110683333Y-89322842D01*
X110683333Y-89322842D02*
X110716667Y-89365700D01*
X110716667Y-89365700D02*
X110783333Y-89408557D01*
X110783333Y-89408557D02*
X110916667Y-89408557D01*
X110916667Y-89408557D02*
X110983333Y-89365700D01*
X110983333Y-89365700D02*
X111016667Y-89322842D01*
X111016667Y-89322842D02*
X111050000Y-89237128D01*
X111050000Y-89237128D02*
X111050000Y-89022842D01*
X111050000Y-89022842D02*
X111016667Y-88937128D01*
X111016667Y-88937128D02*
X110983333Y-88894271D01*
X110983333Y-88894271D02*
X110916667Y-88851414D01*
X110916667Y-88851414D02*
X110783333Y-88851414D01*
X110783333Y-88851414D02*
X110716667Y-88894271D01*
X110716667Y-88894271D02*
X110683333Y-88937128D01*
X110683333Y-88937128D02*
X110650000Y-89022842D01*
X136049999Y-89572842D02*
X136016666Y-89615700D01*
X136016666Y-89615700D02*
X135916666Y-89658557D01*
X135916666Y-89658557D02*
X135849999Y-89658557D01*
X135849999Y-89658557D02*
X135749999Y-89615700D01*
X135749999Y-89615700D02*
X135683333Y-89529985D01*
X135683333Y-89529985D02*
X135649999Y-89444271D01*
X135649999Y-89444271D02*
X135616666Y-89272842D01*
X135616666Y-89272842D02*
X135616666Y-89144271D01*
X135616666Y-89144271D02*
X135649999Y-88972842D01*
X135649999Y-88972842D02*
X135683333Y-88887128D01*
X135683333Y-88887128D02*
X135749999Y-88801414D01*
X135749999Y-88801414D02*
X135849999Y-88758557D01*
X135849999Y-88758557D02*
X135916666Y-88758557D01*
X135916666Y-88758557D02*
X136016666Y-88801414D01*
X136016666Y-88801414D02*
X136049999Y-88844271D01*
X136283333Y-88758557D02*
X136716666Y-88758557D01*
X136716666Y-88758557D02*
X136483333Y-89101414D01*
X136483333Y-89101414D02*
X136583333Y-89101414D01*
X136583333Y-89101414D02*
X136649999Y-89144271D01*
X136649999Y-89144271D02*
X136683333Y-89187128D01*
X136683333Y-89187128D02*
X136716666Y-89272842D01*
X136716666Y-89272842D02*
X136716666Y-89487128D01*
X136716666Y-89487128D02*
X136683333Y-89572842D01*
X136683333Y-89572842D02*
X136649999Y-89615700D01*
X136649999Y-89615700D02*
X136583333Y-89658557D01*
X136583333Y-89658557D02*
X136383333Y-89658557D01*
X136383333Y-89658557D02*
X136316666Y-89615700D01*
X136316666Y-89615700D02*
X136283333Y-89572842D01*
X137383333Y-89658557D02*
X136983333Y-89658557D01*
X137183333Y-89658557D02*
X137183333Y-88758557D01*
X137183333Y-88758557D02*
X137116666Y-88887128D01*
X137116666Y-88887128D02*
X137050000Y-88972842D01*
X137050000Y-88972842D02*
X136983333Y-89015700D01*
X130299999Y-63072842D02*
X130266666Y-63115700D01*
X130266666Y-63115700D02*
X130166666Y-63158557D01*
X130166666Y-63158557D02*
X130099999Y-63158557D01*
X130099999Y-63158557D02*
X129999999Y-63115700D01*
X129999999Y-63115700D02*
X129933333Y-63029985D01*
X129933333Y-63029985D02*
X129899999Y-62944271D01*
X129899999Y-62944271D02*
X129866666Y-62772842D01*
X129866666Y-62772842D02*
X129866666Y-62644271D01*
X129866666Y-62644271D02*
X129899999Y-62472842D01*
X129899999Y-62472842D02*
X129933333Y-62387128D01*
X129933333Y-62387128D02*
X129999999Y-62301414D01*
X129999999Y-62301414D02*
X130099999Y-62258557D01*
X130099999Y-62258557D02*
X130166666Y-62258557D01*
X130166666Y-62258557D02*
X130266666Y-62301414D01*
X130266666Y-62301414D02*
X130299999Y-62344271D01*
X130566666Y-62344271D02*
X130599999Y-62301414D01*
X130599999Y-62301414D02*
X130666666Y-62258557D01*
X130666666Y-62258557D02*
X130833333Y-62258557D01*
X130833333Y-62258557D02*
X130899999Y-62301414D01*
X130899999Y-62301414D02*
X130933333Y-62344271D01*
X130933333Y-62344271D02*
X130966666Y-62429985D01*
X130966666Y-62429985D02*
X130966666Y-62515700D01*
X130966666Y-62515700D02*
X130933333Y-62644271D01*
X130933333Y-62644271D02*
X130533333Y-63158557D01*
X130533333Y-63158557D02*
X130966666Y-63158557D01*
X131200000Y-62258557D02*
X131633333Y-62258557D01*
X131633333Y-62258557D02*
X131400000Y-62601414D01*
X131400000Y-62601414D02*
X131500000Y-62601414D01*
X131500000Y-62601414D02*
X131566666Y-62644271D01*
X131566666Y-62644271D02*
X131600000Y-62687128D01*
X131600000Y-62687128D02*
X131633333Y-62772842D01*
X131633333Y-62772842D02*
X131633333Y-62987128D01*
X131633333Y-62987128D02*
X131600000Y-63072842D01*
X131600000Y-63072842D02*
X131566666Y-63115700D01*
X131566666Y-63115700D02*
X131500000Y-63158557D01*
X131500000Y-63158557D02*
X131300000Y-63158557D01*
X131300000Y-63158557D02*
X131233333Y-63115700D01*
X131233333Y-63115700D02*
X131200000Y-63072842D01*
X119922842Y-77366666D02*
X119965700Y-77399999D01*
X119965700Y-77399999D02*
X120008557Y-77499999D01*
X120008557Y-77499999D02*
X120008557Y-77566666D01*
X120008557Y-77566666D02*
X119965700Y-77666666D01*
X119965700Y-77666666D02*
X119879985Y-77733333D01*
X119879985Y-77733333D02*
X119794271Y-77766666D01*
X119794271Y-77766666D02*
X119622842Y-77799999D01*
X119622842Y-77799999D02*
X119494271Y-77799999D01*
X119494271Y-77799999D02*
X119322842Y-77766666D01*
X119322842Y-77766666D02*
X119237128Y-77733333D01*
X119237128Y-77733333D02*
X119151414Y-77666666D01*
X119151414Y-77666666D02*
X119108557Y-77566666D01*
X119108557Y-77566666D02*
X119108557Y-77499999D01*
X119108557Y-77499999D02*
X119151414Y-77399999D01*
X119151414Y-77399999D02*
X119194271Y-77366666D01*
X119194271Y-77099999D02*
X119151414Y-77066666D01*
X119151414Y-77066666D02*
X119108557Y-76999999D01*
X119108557Y-76999999D02*
X119108557Y-76833333D01*
X119108557Y-76833333D02*
X119151414Y-76766666D01*
X119151414Y-76766666D02*
X119194271Y-76733333D01*
X119194271Y-76733333D02*
X119279985Y-76699999D01*
X119279985Y-76699999D02*
X119365700Y-76699999D01*
X119365700Y-76699999D02*
X119494271Y-76733333D01*
X119494271Y-76733333D02*
X120008557Y-77133333D01*
X120008557Y-77133333D02*
X120008557Y-76699999D01*
X124072842Y-54950000D02*
X124115700Y-54983333D01*
X124115700Y-54983333D02*
X124158557Y-55083333D01*
X124158557Y-55083333D02*
X124158557Y-55150000D01*
X124158557Y-55150000D02*
X124115700Y-55250000D01*
X124115700Y-55250000D02*
X124029985Y-55316667D01*
X124029985Y-55316667D02*
X123944271Y-55350000D01*
X123944271Y-55350000D02*
X123772842Y-55383333D01*
X123772842Y-55383333D02*
X123644271Y-55383333D01*
X123644271Y-55383333D02*
X123472842Y-55350000D01*
X123472842Y-55350000D02*
X123387128Y-55316667D01*
X123387128Y-55316667D02*
X123301414Y-55250000D01*
X123301414Y-55250000D02*
X123258557Y-55150000D01*
X123258557Y-55150000D02*
X123258557Y-55083333D01*
X123258557Y-55083333D02*
X123301414Y-54983333D01*
X123301414Y-54983333D02*
X123344271Y-54950000D01*
X123344271Y-54683333D02*
X123301414Y-54650000D01*
X123301414Y-54650000D02*
X123258557Y-54583333D01*
X123258557Y-54583333D02*
X123258557Y-54416667D01*
X123258557Y-54416667D02*
X123301414Y-54350000D01*
X123301414Y-54350000D02*
X123344271Y-54316667D01*
X123344271Y-54316667D02*
X123429985Y-54283333D01*
X123429985Y-54283333D02*
X123515700Y-54283333D01*
X123515700Y-54283333D02*
X123644271Y-54316667D01*
X123644271Y-54316667D02*
X124158557Y-54716667D01*
X124158557Y-54716667D02*
X124158557Y-54283333D01*
X123258557Y-53650000D02*
X123258557Y-53983333D01*
X123258557Y-53983333D02*
X123687128Y-54016666D01*
X123687128Y-54016666D02*
X123644271Y-53983333D01*
X123644271Y-53983333D02*
X123601414Y-53916666D01*
X123601414Y-53916666D02*
X123601414Y-53750000D01*
X123601414Y-53750000D02*
X123644271Y-53683333D01*
X123644271Y-53683333D02*
X123687128Y-53650000D01*
X123687128Y-53650000D02*
X123772842Y-53616666D01*
X123772842Y-53616666D02*
X123987128Y-53616666D01*
X123987128Y-53616666D02*
X124072842Y-53650000D01*
X124072842Y-53650000D02*
X124115700Y-53683333D01*
X124115700Y-53683333D02*
X124158557Y-53750000D01*
X124158557Y-53750000D02*
X124158557Y-53916666D01*
X124158557Y-53916666D02*
X124115700Y-53983333D01*
X124115700Y-53983333D02*
X124072842Y-54016666D01*
D13*
X118646428Y-57000926D02*
X118620237Y-57034260D01*
X118620237Y-57034260D02*
X118541666Y-57067593D01*
X118541666Y-57067593D02*
X118489285Y-57067593D01*
X118489285Y-57067593D02*
X118410713Y-57034260D01*
X118410713Y-57034260D02*
X118358332Y-56967593D01*
X118358332Y-56967593D02*
X118332142Y-56900926D01*
X118332142Y-56900926D02*
X118305951Y-56767593D01*
X118305951Y-56767593D02*
X118305951Y-56667593D01*
X118305951Y-56667593D02*
X118332142Y-56534260D01*
X118332142Y-56534260D02*
X118358332Y-56467593D01*
X118358332Y-56467593D02*
X118410713Y-56400926D01*
X118410713Y-56400926D02*
X118489285Y-56367593D01*
X118489285Y-56367593D02*
X118541666Y-56367593D01*
X118541666Y-56367593D02*
X118620237Y-56400926D01*
X118620237Y-56400926D02*
X118646428Y-56434260D01*
X118829761Y-56367593D02*
X119170237Y-56367593D01*
X119170237Y-56367593D02*
X118986904Y-56634260D01*
X118986904Y-56634260D02*
X119065475Y-56634260D01*
X119065475Y-56634260D02*
X119117856Y-56667593D01*
X119117856Y-56667593D02*
X119144047Y-56700926D01*
X119144047Y-56700926D02*
X119170237Y-56767593D01*
X119170237Y-56767593D02*
X119170237Y-56934260D01*
X119170237Y-56934260D02*
X119144047Y-57000926D01*
X119144047Y-57000926D02*
X119117856Y-57034260D01*
X119117856Y-57034260D02*
X119065475Y-57067593D01*
X119065475Y-57067593D02*
X118908332Y-57067593D01*
X118908332Y-57067593D02*
X118855951Y-57034260D01*
X118855951Y-57034260D02*
X118829761Y-57000926D01*
X119510714Y-56367593D02*
X119563095Y-56367593D01*
X119563095Y-56367593D02*
X119615476Y-56400926D01*
X119615476Y-56400926D02*
X119641666Y-56434260D01*
X119641666Y-56434260D02*
X119667857Y-56500926D01*
X119667857Y-56500926D02*
X119694047Y-56634260D01*
X119694047Y-56634260D02*
X119694047Y-56800926D01*
X119694047Y-56800926D02*
X119667857Y-56934260D01*
X119667857Y-56934260D02*
X119641666Y-57000926D01*
X119641666Y-57000926D02*
X119615476Y-57034260D01*
X119615476Y-57034260D02*
X119563095Y-57067593D01*
X119563095Y-57067593D02*
X119510714Y-57067593D01*
X119510714Y-57067593D02*
X119458333Y-57034260D01*
X119458333Y-57034260D02*
X119432142Y-57000926D01*
X119432142Y-57000926D02*
X119405952Y-56934260D01*
X119405952Y-56934260D02*
X119379761Y-56800926D01*
X119379761Y-56800926D02*
X119379761Y-56634260D01*
X119379761Y-56634260D02*
X119405952Y-56500926D01*
X119405952Y-56500926D02*
X119432142Y-56434260D01*
X119432142Y-56434260D02*
X119458333Y-56400926D01*
X119458333Y-56400926D02*
X119510714Y-56367593D01*
D11*
X119572842Y-97200000D02*
X119615700Y-97233333D01*
X119615700Y-97233333D02*
X119658557Y-97333333D01*
X119658557Y-97333333D02*
X119658557Y-97400000D01*
X119658557Y-97400000D02*
X119615700Y-97500000D01*
X119615700Y-97500000D02*
X119529985Y-97566667D01*
X119529985Y-97566667D02*
X119444271Y-97600000D01*
X119444271Y-97600000D02*
X119272842Y-97633333D01*
X119272842Y-97633333D02*
X119144271Y-97633333D01*
X119144271Y-97633333D02*
X118972842Y-97600000D01*
X118972842Y-97600000D02*
X118887128Y-97566667D01*
X118887128Y-97566667D02*
X118801414Y-97500000D01*
X118801414Y-97500000D02*
X118758557Y-97400000D01*
X118758557Y-97400000D02*
X118758557Y-97333333D01*
X118758557Y-97333333D02*
X118801414Y-97233333D01*
X118801414Y-97233333D02*
X118844271Y-97200000D01*
X118844271Y-96933333D02*
X118801414Y-96900000D01*
X118801414Y-96900000D02*
X118758557Y-96833333D01*
X118758557Y-96833333D02*
X118758557Y-96666667D01*
X118758557Y-96666667D02*
X118801414Y-96600000D01*
X118801414Y-96600000D02*
X118844271Y-96566667D01*
X118844271Y-96566667D02*
X118929985Y-96533333D01*
X118929985Y-96533333D02*
X119015700Y-96533333D01*
X119015700Y-96533333D02*
X119144271Y-96566667D01*
X119144271Y-96566667D02*
X119658557Y-96966667D01*
X119658557Y-96966667D02*
X119658557Y-96533333D01*
X119144271Y-96133333D02*
X119101414Y-96200000D01*
X119101414Y-96200000D02*
X119058557Y-96233333D01*
X119058557Y-96233333D02*
X118972842Y-96266666D01*
X118972842Y-96266666D02*
X118929985Y-96266666D01*
X118929985Y-96266666D02*
X118844271Y-96233333D01*
X118844271Y-96233333D02*
X118801414Y-96200000D01*
X118801414Y-96200000D02*
X118758557Y-96133333D01*
X118758557Y-96133333D02*
X118758557Y-96000000D01*
X118758557Y-96000000D02*
X118801414Y-95933333D01*
X118801414Y-95933333D02*
X118844271Y-95900000D01*
X118844271Y-95900000D02*
X118929985Y-95866666D01*
X118929985Y-95866666D02*
X118972842Y-95866666D01*
X118972842Y-95866666D02*
X119058557Y-95900000D01*
X119058557Y-95900000D02*
X119101414Y-95933333D01*
X119101414Y-95933333D02*
X119144271Y-96000000D01*
X119144271Y-96000000D02*
X119144271Y-96133333D01*
X119144271Y-96133333D02*
X119187128Y-96200000D01*
X119187128Y-96200000D02*
X119229985Y-96233333D01*
X119229985Y-96233333D02*
X119315700Y-96266666D01*
X119315700Y-96266666D02*
X119487128Y-96266666D01*
X119487128Y-96266666D02*
X119572842Y-96233333D01*
X119572842Y-96233333D02*
X119615700Y-96200000D01*
X119615700Y-96200000D02*
X119658557Y-96133333D01*
X119658557Y-96133333D02*
X119658557Y-96000000D01*
X119658557Y-96000000D02*
X119615700Y-95933333D01*
X119615700Y-95933333D02*
X119572842Y-95900000D01*
X119572842Y-95900000D02*
X119487128Y-95866666D01*
X119487128Y-95866666D02*
X119315700Y-95866666D01*
X119315700Y-95866666D02*
X119229985Y-95900000D01*
X119229985Y-95900000D02*
X119187128Y-95933333D01*
X119187128Y-95933333D02*
X119144271Y-96000000D01*
D13*
X122896428Y-86917593D02*
X122713094Y-86584260D01*
X122582142Y-86917593D02*
X122582142Y-86217593D01*
X122582142Y-86217593D02*
X122791666Y-86217593D01*
X122791666Y-86217593D02*
X122844047Y-86250926D01*
X122844047Y-86250926D02*
X122870237Y-86284260D01*
X122870237Y-86284260D02*
X122896428Y-86350926D01*
X122896428Y-86350926D02*
X122896428Y-86450926D01*
X122896428Y-86450926D02*
X122870237Y-86517593D01*
X122870237Y-86517593D02*
X122844047Y-86550926D01*
X122844047Y-86550926D02*
X122791666Y-86584260D01*
X122791666Y-86584260D02*
X122582142Y-86584260D01*
X123079761Y-86217593D02*
X123420237Y-86217593D01*
X123420237Y-86217593D02*
X123236904Y-86484260D01*
X123236904Y-86484260D02*
X123315475Y-86484260D01*
X123315475Y-86484260D02*
X123367856Y-86517593D01*
X123367856Y-86517593D02*
X123394047Y-86550926D01*
X123394047Y-86550926D02*
X123420237Y-86617593D01*
X123420237Y-86617593D02*
X123420237Y-86784260D01*
X123420237Y-86784260D02*
X123394047Y-86850926D01*
X123394047Y-86850926D02*
X123367856Y-86884260D01*
X123367856Y-86884260D02*
X123315475Y-86917593D01*
X123315475Y-86917593D02*
X123158332Y-86917593D01*
X123158332Y-86917593D02*
X123105951Y-86884260D01*
X123105951Y-86884260D02*
X123079761Y-86850926D01*
X123891666Y-86217593D02*
X123786904Y-86217593D01*
X123786904Y-86217593D02*
X123734523Y-86250926D01*
X123734523Y-86250926D02*
X123708333Y-86284260D01*
X123708333Y-86284260D02*
X123655952Y-86384260D01*
X123655952Y-86384260D02*
X123629761Y-86517593D01*
X123629761Y-86517593D02*
X123629761Y-86784260D01*
X123629761Y-86784260D02*
X123655952Y-86850926D01*
X123655952Y-86850926D02*
X123682142Y-86884260D01*
X123682142Y-86884260D02*
X123734523Y-86917593D01*
X123734523Y-86917593D02*
X123839285Y-86917593D01*
X123839285Y-86917593D02*
X123891666Y-86884260D01*
X123891666Y-86884260D02*
X123917857Y-86850926D01*
X123917857Y-86850926D02*
X123944047Y-86784260D01*
X123944047Y-86784260D02*
X123944047Y-86617593D01*
X123944047Y-86617593D02*
X123917857Y-86550926D01*
X123917857Y-86550926D02*
X123891666Y-86517593D01*
X123891666Y-86517593D02*
X123839285Y-86484260D01*
X123839285Y-86484260D02*
X123734523Y-86484260D01*
X123734523Y-86484260D02*
X123682142Y-86517593D01*
X123682142Y-86517593D02*
X123655952Y-86550926D01*
X123655952Y-86550926D02*
X123629761Y-86617593D01*
X125146428Y-86917593D02*
X124963094Y-86584260D01*
X124832142Y-86917593D02*
X124832142Y-86217593D01*
X124832142Y-86217593D02*
X125041666Y-86217593D01*
X125041666Y-86217593D02*
X125094047Y-86250926D01*
X125094047Y-86250926D02*
X125120237Y-86284260D01*
X125120237Y-86284260D02*
X125146428Y-86350926D01*
X125146428Y-86350926D02*
X125146428Y-86450926D01*
X125146428Y-86450926D02*
X125120237Y-86517593D01*
X125120237Y-86517593D02*
X125094047Y-86550926D01*
X125094047Y-86550926D02*
X125041666Y-86584260D01*
X125041666Y-86584260D02*
X124832142Y-86584260D01*
X125329761Y-86217593D02*
X125670237Y-86217593D01*
X125670237Y-86217593D02*
X125486904Y-86484260D01*
X125486904Y-86484260D02*
X125565475Y-86484260D01*
X125565475Y-86484260D02*
X125617856Y-86517593D01*
X125617856Y-86517593D02*
X125644047Y-86550926D01*
X125644047Y-86550926D02*
X125670237Y-86617593D01*
X125670237Y-86617593D02*
X125670237Y-86784260D01*
X125670237Y-86784260D02*
X125644047Y-86850926D01*
X125644047Y-86850926D02*
X125617856Y-86884260D01*
X125617856Y-86884260D02*
X125565475Y-86917593D01*
X125565475Y-86917593D02*
X125408332Y-86917593D01*
X125408332Y-86917593D02*
X125355951Y-86884260D01*
X125355951Y-86884260D02*
X125329761Y-86850926D01*
X126167857Y-86217593D02*
X125905952Y-86217593D01*
X125905952Y-86217593D02*
X125879761Y-86550926D01*
X125879761Y-86550926D02*
X125905952Y-86517593D01*
X125905952Y-86517593D02*
X125958333Y-86484260D01*
X125958333Y-86484260D02*
X126089285Y-86484260D01*
X126089285Y-86484260D02*
X126141666Y-86517593D01*
X126141666Y-86517593D02*
X126167857Y-86550926D01*
X126167857Y-86550926D02*
X126194047Y-86617593D01*
X126194047Y-86617593D02*
X126194047Y-86784260D01*
X126194047Y-86784260D02*
X126167857Y-86850926D01*
X126167857Y-86850926D02*
X126141666Y-86884260D01*
X126141666Y-86884260D02*
X126089285Y-86917593D01*
X126089285Y-86917593D02*
X125958333Y-86917593D01*
X125958333Y-86917593D02*
X125905952Y-86884260D01*
X125905952Y-86884260D02*
X125879761Y-86850926D01*
D11*
X101216666Y-74908557D02*
X100983333Y-74479985D01*
X100816666Y-74908557D02*
X100816666Y-74008557D01*
X100816666Y-74008557D02*
X101083333Y-74008557D01*
X101083333Y-74008557D02*
X101150000Y-74051414D01*
X101150000Y-74051414D02*
X101183333Y-74094271D01*
X101183333Y-74094271D02*
X101216666Y-74179985D01*
X101216666Y-74179985D02*
X101216666Y-74308557D01*
X101216666Y-74308557D02*
X101183333Y-74394271D01*
X101183333Y-74394271D02*
X101150000Y-74437128D01*
X101150000Y-74437128D02*
X101083333Y-74479985D01*
X101083333Y-74479985D02*
X100816666Y-74479985D01*
X101883333Y-74908557D02*
X101483333Y-74908557D01*
X101683333Y-74908557D02*
X101683333Y-74008557D01*
X101683333Y-74008557D02*
X101616666Y-74137128D01*
X101616666Y-74137128D02*
X101550000Y-74222842D01*
X101550000Y-74222842D02*
X101483333Y-74265700D01*
X102316667Y-74008557D02*
X102383333Y-74008557D01*
X102383333Y-74008557D02*
X102450000Y-74051414D01*
X102450000Y-74051414D02*
X102483333Y-74094271D01*
X102483333Y-74094271D02*
X102516667Y-74179985D01*
X102516667Y-74179985D02*
X102550000Y-74351414D01*
X102550000Y-74351414D02*
X102550000Y-74565700D01*
X102550000Y-74565700D02*
X102516667Y-74737128D01*
X102516667Y-74737128D02*
X102483333Y-74822842D01*
X102483333Y-74822842D02*
X102450000Y-74865700D01*
X102450000Y-74865700D02*
X102383333Y-74908557D01*
X102383333Y-74908557D02*
X102316667Y-74908557D01*
X102316667Y-74908557D02*
X102250000Y-74865700D01*
X102250000Y-74865700D02*
X102216667Y-74822842D01*
X102216667Y-74822842D02*
X102183333Y-74737128D01*
X102183333Y-74737128D02*
X102150000Y-74565700D01*
X102150000Y-74565700D02*
X102150000Y-74351414D01*
X102150000Y-74351414D02*
X102183333Y-74179985D01*
X102183333Y-74179985D02*
X102216667Y-74094271D01*
X102216667Y-74094271D02*
X102250000Y-74051414D01*
X102250000Y-74051414D02*
X102316667Y-74008557D01*
D13*
X124330952Y-84117593D02*
X124330952Y-84684260D01*
X124330952Y-84684260D02*
X124357142Y-84750926D01*
X124357142Y-84750926D02*
X124383333Y-84784260D01*
X124383333Y-84784260D02*
X124435714Y-84817593D01*
X124435714Y-84817593D02*
X124540476Y-84817593D01*
X124540476Y-84817593D02*
X124592857Y-84784260D01*
X124592857Y-84784260D02*
X124619047Y-84750926D01*
X124619047Y-84750926D02*
X124645238Y-84684260D01*
X124645238Y-84684260D02*
X124645238Y-84117593D01*
X124854761Y-84117593D02*
X125195237Y-84117593D01*
X125195237Y-84117593D02*
X125011904Y-84384260D01*
X125011904Y-84384260D02*
X125090475Y-84384260D01*
X125090475Y-84384260D02*
X125142856Y-84417593D01*
X125142856Y-84417593D02*
X125169047Y-84450926D01*
X125169047Y-84450926D02*
X125195237Y-84517593D01*
X125195237Y-84517593D02*
X125195237Y-84684260D01*
X125195237Y-84684260D02*
X125169047Y-84750926D01*
X125169047Y-84750926D02*
X125142856Y-84784260D01*
X125142856Y-84784260D02*
X125090475Y-84817593D01*
X125090475Y-84817593D02*
X124933332Y-84817593D01*
X124933332Y-84817593D02*
X124880951Y-84784260D01*
X124880951Y-84784260D02*
X124854761Y-84750926D01*
D11*
X101883333Y-71822842D02*
X101850000Y-71865700D01*
X101850000Y-71865700D02*
X101750000Y-71908557D01*
X101750000Y-71908557D02*
X101683333Y-71908557D01*
X101683333Y-71908557D02*
X101583333Y-71865700D01*
X101583333Y-71865700D02*
X101516667Y-71779985D01*
X101516667Y-71779985D02*
X101483333Y-71694271D01*
X101483333Y-71694271D02*
X101450000Y-71522842D01*
X101450000Y-71522842D02*
X101450000Y-71394271D01*
X101450000Y-71394271D02*
X101483333Y-71222842D01*
X101483333Y-71222842D02*
X101516667Y-71137128D01*
X101516667Y-71137128D02*
X101583333Y-71051414D01*
X101583333Y-71051414D02*
X101683333Y-71008557D01*
X101683333Y-71008557D02*
X101750000Y-71008557D01*
X101750000Y-71008557D02*
X101850000Y-71051414D01*
X101850000Y-71051414D02*
X101883333Y-71094271D01*
X102283333Y-71394271D02*
X102216667Y-71351414D01*
X102216667Y-71351414D02*
X102183333Y-71308557D01*
X102183333Y-71308557D02*
X102150000Y-71222842D01*
X102150000Y-71222842D02*
X102150000Y-71179985D01*
X102150000Y-71179985D02*
X102183333Y-71094271D01*
X102183333Y-71094271D02*
X102216667Y-71051414D01*
X102216667Y-71051414D02*
X102283333Y-71008557D01*
X102283333Y-71008557D02*
X102416667Y-71008557D01*
X102416667Y-71008557D02*
X102483333Y-71051414D01*
X102483333Y-71051414D02*
X102516667Y-71094271D01*
X102516667Y-71094271D02*
X102550000Y-71179985D01*
X102550000Y-71179985D02*
X102550000Y-71222842D01*
X102550000Y-71222842D02*
X102516667Y-71308557D01*
X102516667Y-71308557D02*
X102483333Y-71351414D01*
X102483333Y-71351414D02*
X102416667Y-71394271D01*
X102416667Y-71394271D02*
X102283333Y-71394271D01*
X102283333Y-71394271D02*
X102216667Y-71437128D01*
X102216667Y-71437128D02*
X102183333Y-71479985D01*
X102183333Y-71479985D02*
X102150000Y-71565700D01*
X102150000Y-71565700D02*
X102150000Y-71737128D01*
X102150000Y-71737128D02*
X102183333Y-71822842D01*
X102183333Y-71822842D02*
X102216667Y-71865700D01*
X102216667Y-71865700D02*
X102283333Y-71908557D01*
X102283333Y-71908557D02*
X102416667Y-71908557D01*
X102416667Y-71908557D02*
X102483333Y-71865700D01*
X102483333Y-71865700D02*
X102516667Y-71822842D01*
X102516667Y-71822842D02*
X102550000Y-71737128D01*
X102550000Y-71737128D02*
X102550000Y-71565700D01*
X102550000Y-71565700D02*
X102516667Y-71479985D01*
X102516667Y-71479985D02*
X102483333Y-71437128D01*
X102483333Y-71437128D02*
X102416667Y-71394271D01*
X119322842Y-79866666D02*
X119365700Y-79899999D01*
X119365700Y-79899999D02*
X119408557Y-79999999D01*
X119408557Y-79999999D02*
X119408557Y-80066666D01*
X119408557Y-80066666D02*
X119365700Y-80166666D01*
X119365700Y-80166666D02*
X119279985Y-80233333D01*
X119279985Y-80233333D02*
X119194271Y-80266666D01*
X119194271Y-80266666D02*
X119022842Y-80299999D01*
X119022842Y-80299999D02*
X118894271Y-80299999D01*
X118894271Y-80299999D02*
X118722842Y-80266666D01*
X118722842Y-80266666D02*
X118637128Y-80233333D01*
X118637128Y-80233333D02*
X118551414Y-80166666D01*
X118551414Y-80166666D02*
X118508557Y-80066666D01*
X118508557Y-80066666D02*
X118508557Y-79999999D01*
X118508557Y-79999999D02*
X118551414Y-79899999D01*
X118551414Y-79899999D02*
X118594271Y-79866666D01*
X118508557Y-79633333D02*
X118508557Y-79199999D01*
X118508557Y-79199999D02*
X118851414Y-79433333D01*
X118851414Y-79433333D02*
X118851414Y-79333333D01*
X118851414Y-79333333D02*
X118894271Y-79266666D01*
X118894271Y-79266666D02*
X118937128Y-79233333D01*
X118937128Y-79233333D02*
X119022842Y-79199999D01*
X119022842Y-79199999D02*
X119237128Y-79199999D01*
X119237128Y-79199999D02*
X119322842Y-79233333D01*
X119322842Y-79233333D02*
X119365700Y-79266666D01*
X119365700Y-79266666D02*
X119408557Y-79333333D01*
X119408557Y-79333333D02*
X119408557Y-79533333D01*
X119408557Y-79533333D02*
X119365700Y-79599999D01*
X119365700Y-79599999D02*
X119322842Y-79633333D01*
D13*
X109817593Y-60103571D02*
X109484260Y-60286905D01*
X109817593Y-60417857D02*
X109117593Y-60417857D01*
X109117593Y-60417857D02*
X109117593Y-60208333D01*
X109117593Y-60208333D02*
X109150926Y-60155952D01*
X109150926Y-60155952D02*
X109184260Y-60129762D01*
X109184260Y-60129762D02*
X109250926Y-60103571D01*
X109250926Y-60103571D02*
X109350926Y-60103571D01*
X109350926Y-60103571D02*
X109417593Y-60129762D01*
X109417593Y-60129762D02*
X109450926Y-60155952D01*
X109450926Y-60155952D02*
X109484260Y-60208333D01*
X109484260Y-60208333D02*
X109484260Y-60417857D01*
X109184260Y-59894048D02*
X109150926Y-59867857D01*
X109150926Y-59867857D02*
X109117593Y-59815476D01*
X109117593Y-59815476D02*
X109117593Y-59684524D01*
X109117593Y-59684524D02*
X109150926Y-59632143D01*
X109150926Y-59632143D02*
X109184260Y-59605952D01*
X109184260Y-59605952D02*
X109250926Y-59579762D01*
X109250926Y-59579762D02*
X109317593Y-59579762D01*
X109317593Y-59579762D02*
X109417593Y-59605952D01*
X109417593Y-59605952D02*
X109817593Y-59920238D01*
X109817593Y-59920238D02*
X109817593Y-59579762D01*
X109350926Y-59108333D02*
X109817593Y-59108333D01*
X109084260Y-59239285D02*
X109584260Y-59370238D01*
X109584260Y-59370238D02*
X109584260Y-59029761D01*
D11*
X131908557Y-89733333D02*
X132637128Y-89733333D01*
X132637128Y-89733333D02*
X132722842Y-89700000D01*
X132722842Y-89700000D02*
X132765700Y-89666666D01*
X132765700Y-89666666D02*
X132808557Y-89600000D01*
X132808557Y-89600000D02*
X132808557Y-89466666D01*
X132808557Y-89466666D02*
X132765700Y-89400000D01*
X132765700Y-89400000D02*
X132722842Y-89366666D01*
X132722842Y-89366666D02*
X132637128Y-89333333D01*
X132637128Y-89333333D02*
X131908557Y-89333333D01*
X132294271Y-88900000D02*
X132251414Y-88966667D01*
X132251414Y-88966667D02*
X132208557Y-89000000D01*
X132208557Y-89000000D02*
X132122842Y-89033333D01*
X132122842Y-89033333D02*
X132079985Y-89033333D01*
X132079985Y-89033333D02*
X131994271Y-89000000D01*
X131994271Y-89000000D02*
X131951414Y-88966667D01*
X131951414Y-88966667D02*
X131908557Y-88900000D01*
X131908557Y-88900000D02*
X131908557Y-88766667D01*
X131908557Y-88766667D02*
X131951414Y-88700000D01*
X131951414Y-88700000D02*
X131994271Y-88666667D01*
X131994271Y-88666667D02*
X132079985Y-88633333D01*
X132079985Y-88633333D02*
X132122842Y-88633333D01*
X132122842Y-88633333D02*
X132208557Y-88666667D01*
X132208557Y-88666667D02*
X132251414Y-88700000D01*
X132251414Y-88700000D02*
X132294271Y-88766667D01*
X132294271Y-88766667D02*
X132294271Y-88900000D01*
X132294271Y-88900000D02*
X132337128Y-88966667D01*
X132337128Y-88966667D02*
X132379985Y-89000000D01*
X132379985Y-89000000D02*
X132465700Y-89033333D01*
X132465700Y-89033333D02*
X132637128Y-89033333D01*
X132637128Y-89033333D02*
X132722842Y-89000000D01*
X132722842Y-89000000D02*
X132765700Y-88966667D01*
X132765700Y-88966667D02*
X132808557Y-88900000D01*
X132808557Y-88900000D02*
X132808557Y-88766667D01*
X132808557Y-88766667D02*
X132765700Y-88700000D01*
X132765700Y-88700000D02*
X132722842Y-88666667D01*
X132722842Y-88666667D02*
X132637128Y-88633333D01*
X132637128Y-88633333D02*
X132465700Y-88633333D01*
X132465700Y-88633333D02*
X132379985Y-88666667D01*
X132379985Y-88666667D02*
X132337128Y-88700000D01*
X132337128Y-88700000D02*
X132294271Y-88766667D01*
X101549999Y-94822842D02*
X101516666Y-94865700D01*
X101516666Y-94865700D02*
X101416666Y-94908557D01*
X101416666Y-94908557D02*
X101349999Y-94908557D01*
X101349999Y-94908557D02*
X101249999Y-94865700D01*
X101249999Y-94865700D02*
X101183333Y-94779985D01*
X101183333Y-94779985D02*
X101149999Y-94694271D01*
X101149999Y-94694271D02*
X101116666Y-94522842D01*
X101116666Y-94522842D02*
X101116666Y-94394271D01*
X101116666Y-94394271D02*
X101149999Y-94222842D01*
X101149999Y-94222842D02*
X101183333Y-94137128D01*
X101183333Y-94137128D02*
X101249999Y-94051414D01*
X101249999Y-94051414D02*
X101349999Y-94008557D01*
X101349999Y-94008557D02*
X101416666Y-94008557D01*
X101416666Y-94008557D02*
X101516666Y-94051414D01*
X101516666Y-94051414D02*
X101549999Y-94094271D01*
X101816666Y-94094271D02*
X101849999Y-94051414D01*
X101849999Y-94051414D02*
X101916666Y-94008557D01*
X101916666Y-94008557D02*
X102083333Y-94008557D01*
X102083333Y-94008557D02*
X102149999Y-94051414D01*
X102149999Y-94051414D02*
X102183333Y-94094271D01*
X102183333Y-94094271D02*
X102216666Y-94179985D01*
X102216666Y-94179985D02*
X102216666Y-94265700D01*
X102216666Y-94265700D02*
X102183333Y-94394271D01*
X102183333Y-94394271D02*
X101783333Y-94908557D01*
X101783333Y-94908557D02*
X102216666Y-94908557D01*
X102650000Y-94008557D02*
X102716666Y-94008557D01*
X102716666Y-94008557D02*
X102783333Y-94051414D01*
X102783333Y-94051414D02*
X102816666Y-94094271D01*
X102816666Y-94094271D02*
X102850000Y-94179985D01*
X102850000Y-94179985D02*
X102883333Y-94351414D01*
X102883333Y-94351414D02*
X102883333Y-94565700D01*
X102883333Y-94565700D02*
X102850000Y-94737128D01*
X102850000Y-94737128D02*
X102816666Y-94822842D01*
X102816666Y-94822842D02*
X102783333Y-94865700D01*
X102783333Y-94865700D02*
X102716666Y-94908557D01*
X102716666Y-94908557D02*
X102650000Y-94908557D01*
X102650000Y-94908557D02*
X102583333Y-94865700D01*
X102583333Y-94865700D02*
X102550000Y-94822842D01*
X102550000Y-94822842D02*
X102516666Y-94737128D01*
X102516666Y-94737128D02*
X102483333Y-94565700D01*
X102483333Y-94565700D02*
X102483333Y-94351414D01*
X102483333Y-94351414D02*
X102516666Y-94179985D01*
X102516666Y-94179985D02*
X102550000Y-94094271D01*
X102550000Y-94094271D02*
X102583333Y-94051414D01*
X102583333Y-94051414D02*
X102650000Y-94008557D01*
X114072842Y-97200000D02*
X114115700Y-97233333D01*
X114115700Y-97233333D02*
X114158557Y-97333333D01*
X114158557Y-97333333D02*
X114158557Y-97400000D01*
X114158557Y-97400000D02*
X114115700Y-97500000D01*
X114115700Y-97500000D02*
X114029985Y-97566667D01*
X114029985Y-97566667D02*
X113944271Y-97600000D01*
X113944271Y-97600000D02*
X113772842Y-97633333D01*
X113772842Y-97633333D02*
X113644271Y-97633333D01*
X113644271Y-97633333D02*
X113472842Y-97600000D01*
X113472842Y-97600000D02*
X113387128Y-97566667D01*
X113387128Y-97566667D02*
X113301414Y-97500000D01*
X113301414Y-97500000D02*
X113258557Y-97400000D01*
X113258557Y-97400000D02*
X113258557Y-97333333D01*
X113258557Y-97333333D02*
X113301414Y-97233333D01*
X113301414Y-97233333D02*
X113344271Y-97200000D01*
X114158557Y-96533333D02*
X114158557Y-96933333D01*
X114158557Y-96733333D02*
X113258557Y-96733333D01*
X113258557Y-96733333D02*
X113387128Y-96800000D01*
X113387128Y-96800000D02*
X113472842Y-96866667D01*
X113472842Y-96866667D02*
X113515700Y-96933333D01*
X114158557Y-96200000D02*
X114158557Y-96066666D01*
X114158557Y-96066666D02*
X114115700Y-96000000D01*
X114115700Y-96000000D02*
X114072842Y-95966666D01*
X114072842Y-95966666D02*
X113944271Y-95900000D01*
X113944271Y-95900000D02*
X113772842Y-95866666D01*
X113772842Y-95866666D02*
X113429985Y-95866666D01*
X113429985Y-95866666D02*
X113344271Y-95900000D01*
X113344271Y-95900000D02*
X113301414Y-95933333D01*
X113301414Y-95933333D02*
X113258557Y-96000000D01*
X113258557Y-96000000D02*
X113258557Y-96133333D01*
X113258557Y-96133333D02*
X113301414Y-96200000D01*
X113301414Y-96200000D02*
X113344271Y-96233333D01*
X113344271Y-96233333D02*
X113429985Y-96266666D01*
X113429985Y-96266666D02*
X113644271Y-96266666D01*
X113644271Y-96266666D02*
X113729985Y-96233333D01*
X113729985Y-96233333D02*
X113772842Y-96200000D01*
X113772842Y-96200000D02*
X113815700Y-96133333D01*
X113815700Y-96133333D02*
X113815700Y-96000000D01*
X113815700Y-96000000D02*
X113772842Y-95933333D01*
X113772842Y-95933333D02*
X113729985Y-95900000D01*
X113729985Y-95900000D02*
X113644271Y-95866666D01*
X136049999Y-96658557D02*
X135816666Y-96229985D01*
X135649999Y-96658557D02*
X135649999Y-95758557D01*
X135649999Y-95758557D02*
X135916666Y-95758557D01*
X135916666Y-95758557D02*
X135983333Y-95801414D01*
X135983333Y-95801414D02*
X136016666Y-95844271D01*
X136016666Y-95844271D02*
X136049999Y-95929985D01*
X136049999Y-95929985D02*
X136049999Y-96058557D01*
X136049999Y-96058557D02*
X136016666Y-96144271D01*
X136016666Y-96144271D02*
X135983333Y-96187128D01*
X135983333Y-96187128D02*
X135916666Y-96229985D01*
X135916666Y-96229985D02*
X135649999Y-96229985D01*
X136283333Y-95758557D02*
X136716666Y-95758557D01*
X136716666Y-95758557D02*
X136483333Y-96101414D01*
X136483333Y-96101414D02*
X136583333Y-96101414D01*
X136583333Y-96101414D02*
X136649999Y-96144271D01*
X136649999Y-96144271D02*
X136683333Y-96187128D01*
X136683333Y-96187128D02*
X136716666Y-96272842D01*
X136716666Y-96272842D02*
X136716666Y-96487128D01*
X136716666Y-96487128D02*
X136683333Y-96572842D01*
X136683333Y-96572842D02*
X136649999Y-96615700D01*
X136649999Y-96615700D02*
X136583333Y-96658557D01*
X136583333Y-96658557D02*
X136383333Y-96658557D01*
X136383333Y-96658557D02*
X136316666Y-96615700D01*
X136316666Y-96615700D02*
X136283333Y-96572842D01*
X136950000Y-95758557D02*
X137383333Y-95758557D01*
X137383333Y-95758557D02*
X137150000Y-96101414D01*
X137150000Y-96101414D02*
X137250000Y-96101414D01*
X137250000Y-96101414D02*
X137316666Y-96144271D01*
X137316666Y-96144271D02*
X137350000Y-96187128D01*
X137350000Y-96187128D02*
X137383333Y-96272842D01*
X137383333Y-96272842D02*
X137383333Y-96487128D01*
X137383333Y-96487128D02*
X137350000Y-96572842D01*
X137350000Y-96572842D02*
X137316666Y-96615700D01*
X137316666Y-96615700D02*
X137250000Y-96658557D01*
X137250000Y-96658557D02*
X137050000Y-96658557D01*
X137050000Y-96658557D02*
X136983333Y-96615700D01*
X136983333Y-96615700D02*
X136950000Y-96572842D01*
X102908557Y-52950000D02*
X102479985Y-53183333D01*
X102908557Y-53350000D02*
X102008557Y-53350000D01*
X102008557Y-53350000D02*
X102008557Y-53083333D01*
X102008557Y-53083333D02*
X102051414Y-53016667D01*
X102051414Y-53016667D02*
X102094271Y-52983333D01*
X102094271Y-52983333D02*
X102179985Y-52950000D01*
X102179985Y-52950000D02*
X102308557Y-52950000D01*
X102308557Y-52950000D02*
X102394271Y-52983333D01*
X102394271Y-52983333D02*
X102437128Y-53016667D01*
X102437128Y-53016667D02*
X102479985Y-53083333D01*
X102479985Y-53083333D02*
X102479985Y-53350000D01*
X102908557Y-52283333D02*
X102908557Y-52683333D01*
X102908557Y-52483333D02*
X102008557Y-52483333D01*
X102008557Y-52483333D02*
X102137128Y-52550000D01*
X102137128Y-52550000D02*
X102222842Y-52616667D01*
X102222842Y-52616667D02*
X102265700Y-52683333D01*
X102008557Y-52050000D02*
X102008557Y-51583333D01*
X102008557Y-51583333D02*
X102908557Y-51883333D01*
X124572842Y-98950000D02*
X124615700Y-98983333D01*
X124615700Y-98983333D02*
X124658557Y-99083333D01*
X124658557Y-99083333D02*
X124658557Y-99150000D01*
X124658557Y-99150000D02*
X124615700Y-99250000D01*
X124615700Y-99250000D02*
X124529985Y-99316667D01*
X124529985Y-99316667D02*
X124444271Y-99350000D01*
X124444271Y-99350000D02*
X124272842Y-99383333D01*
X124272842Y-99383333D02*
X124144271Y-99383333D01*
X124144271Y-99383333D02*
X123972842Y-99350000D01*
X123972842Y-99350000D02*
X123887128Y-99316667D01*
X123887128Y-99316667D02*
X123801414Y-99250000D01*
X123801414Y-99250000D02*
X123758557Y-99150000D01*
X123758557Y-99150000D02*
X123758557Y-99083333D01*
X123758557Y-99083333D02*
X123801414Y-98983333D01*
X123801414Y-98983333D02*
X123844271Y-98950000D01*
X123844271Y-98683333D02*
X123801414Y-98650000D01*
X123801414Y-98650000D02*
X123758557Y-98583333D01*
X123758557Y-98583333D02*
X123758557Y-98416667D01*
X123758557Y-98416667D02*
X123801414Y-98350000D01*
X123801414Y-98350000D02*
X123844271Y-98316667D01*
X123844271Y-98316667D02*
X123929985Y-98283333D01*
X123929985Y-98283333D02*
X124015700Y-98283333D01*
X124015700Y-98283333D02*
X124144271Y-98316667D01*
X124144271Y-98316667D02*
X124658557Y-98716667D01*
X124658557Y-98716667D02*
X124658557Y-98283333D01*
X123758557Y-97683333D02*
X123758557Y-97816666D01*
X123758557Y-97816666D02*
X123801414Y-97883333D01*
X123801414Y-97883333D02*
X123844271Y-97916666D01*
X123844271Y-97916666D02*
X123972842Y-97983333D01*
X123972842Y-97983333D02*
X124144271Y-98016666D01*
X124144271Y-98016666D02*
X124487128Y-98016666D01*
X124487128Y-98016666D02*
X124572842Y-97983333D01*
X124572842Y-97983333D02*
X124615700Y-97950000D01*
X124615700Y-97950000D02*
X124658557Y-97883333D01*
X124658557Y-97883333D02*
X124658557Y-97750000D01*
X124658557Y-97750000D02*
X124615700Y-97683333D01*
X124615700Y-97683333D02*
X124572842Y-97650000D01*
X124572842Y-97650000D02*
X124487128Y-97616666D01*
X124487128Y-97616666D02*
X124272842Y-97616666D01*
X124272842Y-97616666D02*
X124187128Y-97650000D01*
X124187128Y-97650000D02*
X124144271Y-97683333D01*
X124144271Y-97683333D02*
X124101414Y-97750000D01*
X124101414Y-97750000D02*
X124101414Y-97883333D01*
X124101414Y-97883333D02*
X124144271Y-97950000D01*
X124144271Y-97950000D02*
X124187128Y-97983333D01*
X124187128Y-97983333D02*
X124272842Y-98016666D01*
X101883333Y-70572842D02*
X101850000Y-70615700D01*
X101850000Y-70615700D02*
X101750000Y-70658557D01*
X101750000Y-70658557D02*
X101683333Y-70658557D01*
X101683333Y-70658557D02*
X101583333Y-70615700D01*
X101583333Y-70615700D02*
X101516667Y-70529985D01*
X101516667Y-70529985D02*
X101483333Y-70444271D01*
X101483333Y-70444271D02*
X101450000Y-70272842D01*
X101450000Y-70272842D02*
X101450000Y-70144271D01*
X101450000Y-70144271D02*
X101483333Y-69972842D01*
X101483333Y-69972842D02*
X101516667Y-69887128D01*
X101516667Y-69887128D02*
X101583333Y-69801414D01*
X101583333Y-69801414D02*
X101683333Y-69758557D01*
X101683333Y-69758557D02*
X101750000Y-69758557D01*
X101750000Y-69758557D02*
X101850000Y-69801414D01*
X101850000Y-69801414D02*
X101883333Y-69844271D01*
X102216667Y-70658557D02*
X102350000Y-70658557D01*
X102350000Y-70658557D02*
X102416667Y-70615700D01*
X102416667Y-70615700D02*
X102450000Y-70572842D01*
X102450000Y-70572842D02*
X102516667Y-70444271D01*
X102516667Y-70444271D02*
X102550000Y-70272842D01*
X102550000Y-70272842D02*
X102550000Y-69929985D01*
X102550000Y-69929985D02*
X102516667Y-69844271D01*
X102516667Y-69844271D02*
X102483333Y-69801414D01*
X102483333Y-69801414D02*
X102416667Y-69758557D01*
X102416667Y-69758557D02*
X102283333Y-69758557D01*
X102283333Y-69758557D02*
X102216667Y-69801414D01*
X102216667Y-69801414D02*
X102183333Y-69844271D01*
X102183333Y-69844271D02*
X102150000Y-69929985D01*
X102150000Y-69929985D02*
X102150000Y-70144271D01*
X102150000Y-70144271D02*
X102183333Y-70229985D01*
X102183333Y-70229985D02*
X102216667Y-70272842D01*
X102216667Y-70272842D02*
X102283333Y-70315700D01*
X102283333Y-70315700D02*
X102416667Y-70315700D01*
X102416667Y-70315700D02*
X102483333Y-70272842D01*
X102483333Y-70272842D02*
X102516667Y-70229985D01*
X102516667Y-70229985D02*
X102550000Y-70144271D01*
X108158557Y-81700000D02*
X107729985Y-81933333D01*
X108158557Y-82100000D02*
X107258557Y-82100000D01*
X107258557Y-82100000D02*
X107258557Y-81833333D01*
X107258557Y-81833333D02*
X107301414Y-81766667D01*
X107301414Y-81766667D02*
X107344271Y-81733333D01*
X107344271Y-81733333D02*
X107429985Y-81700000D01*
X107429985Y-81700000D02*
X107558557Y-81700000D01*
X107558557Y-81700000D02*
X107644271Y-81733333D01*
X107644271Y-81733333D02*
X107687128Y-81766667D01*
X107687128Y-81766667D02*
X107729985Y-81833333D01*
X107729985Y-81833333D02*
X107729985Y-82100000D01*
X108158557Y-81033333D02*
X108158557Y-81433333D01*
X108158557Y-81233333D02*
X107258557Y-81233333D01*
X107258557Y-81233333D02*
X107387128Y-81300000D01*
X107387128Y-81300000D02*
X107472842Y-81366667D01*
X107472842Y-81366667D02*
X107515700Y-81433333D01*
X108158557Y-80366666D02*
X108158557Y-80766666D01*
X108158557Y-80566666D02*
X107258557Y-80566666D01*
X107258557Y-80566666D02*
X107387128Y-80633333D01*
X107387128Y-80633333D02*
X107472842Y-80700000D01*
X107472842Y-80700000D02*
X107515700Y-80766666D01*
X105349999Y-78122842D02*
X105316666Y-78165700D01*
X105316666Y-78165700D02*
X105216666Y-78208557D01*
X105216666Y-78208557D02*
X105149999Y-78208557D01*
X105149999Y-78208557D02*
X105049999Y-78165700D01*
X105049999Y-78165700D02*
X104983333Y-78079985D01*
X104983333Y-78079985D02*
X104949999Y-77994271D01*
X104949999Y-77994271D02*
X104916666Y-77822842D01*
X104916666Y-77822842D02*
X104916666Y-77694271D01*
X104916666Y-77694271D02*
X104949999Y-77522842D01*
X104949999Y-77522842D02*
X104983333Y-77437128D01*
X104983333Y-77437128D02*
X105049999Y-77351414D01*
X105049999Y-77351414D02*
X105149999Y-77308557D01*
X105149999Y-77308557D02*
X105216666Y-77308557D01*
X105216666Y-77308557D02*
X105316666Y-77351414D01*
X105316666Y-77351414D02*
X105349999Y-77394271D01*
X105616666Y-77394271D02*
X105649999Y-77351414D01*
X105649999Y-77351414D02*
X105716666Y-77308557D01*
X105716666Y-77308557D02*
X105883333Y-77308557D01*
X105883333Y-77308557D02*
X105949999Y-77351414D01*
X105949999Y-77351414D02*
X105983333Y-77394271D01*
X105983333Y-77394271D02*
X106016666Y-77479985D01*
X106016666Y-77479985D02*
X106016666Y-77565700D01*
X106016666Y-77565700D02*
X105983333Y-77694271D01*
X105983333Y-77694271D02*
X105583333Y-78208557D01*
X105583333Y-78208557D02*
X106016666Y-78208557D01*
X106683333Y-78208557D02*
X106283333Y-78208557D01*
X106483333Y-78208557D02*
X106483333Y-77308557D01*
X106483333Y-77308557D02*
X106416666Y-77437128D01*
X106416666Y-77437128D02*
X106350000Y-77522842D01*
X106350000Y-77522842D02*
X106283333Y-77565700D01*
X128158557Y-82366666D02*
X127729985Y-82599999D01*
X128158557Y-82766666D02*
X127258557Y-82766666D01*
X127258557Y-82766666D02*
X127258557Y-82499999D01*
X127258557Y-82499999D02*
X127301414Y-82433333D01*
X127301414Y-82433333D02*
X127344271Y-82399999D01*
X127344271Y-82399999D02*
X127429985Y-82366666D01*
X127429985Y-82366666D02*
X127558557Y-82366666D01*
X127558557Y-82366666D02*
X127644271Y-82399999D01*
X127644271Y-82399999D02*
X127687128Y-82433333D01*
X127687128Y-82433333D02*
X127729985Y-82499999D01*
X127729985Y-82499999D02*
X127729985Y-82766666D01*
X128158557Y-82033333D02*
X128158557Y-81899999D01*
X128158557Y-81899999D02*
X128115700Y-81833333D01*
X128115700Y-81833333D02*
X128072842Y-81799999D01*
X128072842Y-81799999D02*
X127944271Y-81733333D01*
X127944271Y-81733333D02*
X127772842Y-81699999D01*
X127772842Y-81699999D02*
X127429985Y-81699999D01*
X127429985Y-81699999D02*
X127344271Y-81733333D01*
X127344271Y-81733333D02*
X127301414Y-81766666D01*
X127301414Y-81766666D02*
X127258557Y-81833333D01*
X127258557Y-81833333D02*
X127258557Y-81966666D01*
X127258557Y-81966666D02*
X127301414Y-82033333D01*
X127301414Y-82033333D02*
X127344271Y-82066666D01*
X127344271Y-82066666D02*
X127429985Y-82099999D01*
X127429985Y-82099999D02*
X127644271Y-82099999D01*
X127644271Y-82099999D02*
X127729985Y-82066666D01*
X127729985Y-82066666D02*
X127772842Y-82033333D01*
X127772842Y-82033333D02*
X127815700Y-81966666D01*
X127815700Y-81966666D02*
X127815700Y-81833333D01*
X127815700Y-81833333D02*
X127772842Y-81766666D01*
X127772842Y-81766666D02*
X127729985Y-81733333D01*
X127729985Y-81733333D02*
X127644271Y-81699999D01*
X117049999Y-75422842D02*
X117016666Y-75465700D01*
X117016666Y-75465700D02*
X116916666Y-75508557D01*
X116916666Y-75508557D02*
X116849999Y-75508557D01*
X116849999Y-75508557D02*
X116749999Y-75465700D01*
X116749999Y-75465700D02*
X116683333Y-75379985D01*
X116683333Y-75379985D02*
X116649999Y-75294271D01*
X116649999Y-75294271D02*
X116616666Y-75122842D01*
X116616666Y-75122842D02*
X116616666Y-74994271D01*
X116616666Y-74994271D02*
X116649999Y-74822842D01*
X116649999Y-74822842D02*
X116683333Y-74737128D01*
X116683333Y-74737128D02*
X116749999Y-74651414D01*
X116749999Y-74651414D02*
X116849999Y-74608557D01*
X116849999Y-74608557D02*
X116916666Y-74608557D01*
X116916666Y-74608557D02*
X117016666Y-74651414D01*
X117016666Y-74651414D02*
X117049999Y-74694271D01*
X117716666Y-75508557D02*
X117316666Y-75508557D01*
X117516666Y-75508557D02*
X117516666Y-74608557D01*
X117516666Y-74608557D02*
X117449999Y-74737128D01*
X117449999Y-74737128D02*
X117383333Y-74822842D01*
X117383333Y-74822842D02*
X117316666Y-74865700D01*
X118150000Y-74608557D02*
X118216666Y-74608557D01*
X118216666Y-74608557D02*
X118283333Y-74651414D01*
X118283333Y-74651414D02*
X118316666Y-74694271D01*
X118316666Y-74694271D02*
X118350000Y-74779985D01*
X118350000Y-74779985D02*
X118383333Y-74951414D01*
X118383333Y-74951414D02*
X118383333Y-75165700D01*
X118383333Y-75165700D02*
X118350000Y-75337128D01*
X118350000Y-75337128D02*
X118316666Y-75422842D01*
X118316666Y-75422842D02*
X118283333Y-75465700D01*
X118283333Y-75465700D02*
X118216666Y-75508557D01*
X118216666Y-75508557D02*
X118150000Y-75508557D01*
X118150000Y-75508557D02*
X118083333Y-75465700D01*
X118083333Y-75465700D02*
X118050000Y-75422842D01*
X118050000Y-75422842D02*
X118016666Y-75337128D01*
X118016666Y-75337128D02*
X117983333Y-75165700D01*
X117983333Y-75165700D02*
X117983333Y-74951414D01*
X117983333Y-74951414D02*
X118016666Y-74779985D01*
X118016666Y-74779985D02*
X118050000Y-74694271D01*
X118050000Y-74694271D02*
X118083333Y-74651414D01*
X118083333Y-74651414D02*
X118150000Y-74608557D01*
X121908557Y-79866666D02*
X121479985Y-80099999D01*
X121908557Y-80266666D02*
X121008557Y-80266666D01*
X121008557Y-80266666D02*
X121008557Y-79999999D01*
X121008557Y-79999999D02*
X121051414Y-79933333D01*
X121051414Y-79933333D02*
X121094271Y-79899999D01*
X121094271Y-79899999D02*
X121179985Y-79866666D01*
X121179985Y-79866666D02*
X121308557Y-79866666D01*
X121308557Y-79866666D02*
X121394271Y-79899999D01*
X121394271Y-79899999D02*
X121437128Y-79933333D01*
X121437128Y-79933333D02*
X121479985Y-79999999D01*
X121479985Y-79999999D02*
X121479985Y-80266666D01*
X121908557Y-79199999D02*
X121908557Y-79599999D01*
X121908557Y-79399999D02*
X121008557Y-79399999D01*
X121008557Y-79399999D02*
X121137128Y-79466666D01*
X121137128Y-79466666D02*
X121222842Y-79533333D01*
X121222842Y-79533333D02*
X121265700Y-79599999D01*
X122072842Y-98366666D02*
X122115700Y-98399999D01*
X122115700Y-98399999D02*
X122158557Y-98499999D01*
X122158557Y-98499999D02*
X122158557Y-98566666D01*
X122158557Y-98566666D02*
X122115700Y-98666666D01*
X122115700Y-98666666D02*
X122029985Y-98733333D01*
X122029985Y-98733333D02*
X121944271Y-98766666D01*
X121944271Y-98766666D02*
X121772842Y-98799999D01*
X121772842Y-98799999D02*
X121644271Y-98799999D01*
X121644271Y-98799999D02*
X121472842Y-98766666D01*
X121472842Y-98766666D02*
X121387128Y-98733333D01*
X121387128Y-98733333D02*
X121301414Y-98666666D01*
X121301414Y-98666666D02*
X121258557Y-98566666D01*
X121258557Y-98566666D02*
X121258557Y-98499999D01*
X121258557Y-98499999D02*
X121301414Y-98399999D01*
X121301414Y-98399999D02*
X121344271Y-98366666D01*
X121258557Y-97733333D02*
X121258557Y-98066666D01*
X121258557Y-98066666D02*
X121687128Y-98099999D01*
X121687128Y-98099999D02*
X121644271Y-98066666D01*
X121644271Y-98066666D02*
X121601414Y-97999999D01*
X121601414Y-97999999D02*
X121601414Y-97833333D01*
X121601414Y-97833333D02*
X121644271Y-97766666D01*
X121644271Y-97766666D02*
X121687128Y-97733333D01*
X121687128Y-97733333D02*
X121772842Y-97699999D01*
X121772842Y-97699999D02*
X121987128Y-97699999D01*
X121987128Y-97699999D02*
X122072842Y-97733333D01*
X122072842Y-97733333D02*
X122115700Y-97766666D01*
X122115700Y-97766666D02*
X122158557Y-97833333D01*
X122158557Y-97833333D02*
X122158557Y-97999999D01*
X122158557Y-97999999D02*
X122115700Y-98066666D01*
X122115700Y-98066666D02*
X122072842Y-98099999D01*
D13*
X113567593Y-60103571D02*
X113234260Y-60286905D01*
X113567593Y-60417857D02*
X112867593Y-60417857D01*
X112867593Y-60417857D02*
X112867593Y-60208333D01*
X112867593Y-60208333D02*
X112900926Y-60155952D01*
X112900926Y-60155952D02*
X112934260Y-60129762D01*
X112934260Y-60129762D02*
X113000926Y-60103571D01*
X113000926Y-60103571D02*
X113100926Y-60103571D01*
X113100926Y-60103571D02*
X113167593Y-60129762D01*
X113167593Y-60129762D02*
X113200926Y-60155952D01*
X113200926Y-60155952D02*
X113234260Y-60208333D01*
X113234260Y-60208333D02*
X113234260Y-60417857D01*
X112934260Y-59894048D02*
X112900926Y-59867857D01*
X112900926Y-59867857D02*
X112867593Y-59815476D01*
X112867593Y-59815476D02*
X112867593Y-59684524D01*
X112867593Y-59684524D02*
X112900926Y-59632143D01*
X112900926Y-59632143D02*
X112934260Y-59605952D01*
X112934260Y-59605952D02*
X113000926Y-59579762D01*
X113000926Y-59579762D02*
X113067593Y-59579762D01*
X113067593Y-59579762D02*
X113167593Y-59605952D01*
X113167593Y-59605952D02*
X113567593Y-59920238D01*
X113567593Y-59920238D02*
X113567593Y-59579762D01*
X112934260Y-59370238D02*
X112900926Y-59344047D01*
X112900926Y-59344047D02*
X112867593Y-59291666D01*
X112867593Y-59291666D02*
X112867593Y-59160714D01*
X112867593Y-59160714D02*
X112900926Y-59108333D01*
X112900926Y-59108333D02*
X112934260Y-59082142D01*
X112934260Y-59082142D02*
X113000926Y-59055952D01*
X113000926Y-59055952D02*
X113067593Y-59055952D01*
X113067593Y-59055952D02*
X113167593Y-59082142D01*
X113167593Y-59082142D02*
X113567593Y-59396428D01*
X113567593Y-59396428D02*
X113567593Y-59055952D01*
D11*
X136049999Y-93658557D02*
X135816666Y-93229985D01*
X135649999Y-93658557D02*
X135649999Y-92758557D01*
X135649999Y-92758557D02*
X135916666Y-92758557D01*
X135916666Y-92758557D02*
X135983333Y-92801414D01*
X135983333Y-92801414D02*
X136016666Y-92844271D01*
X136016666Y-92844271D02*
X136049999Y-92929985D01*
X136049999Y-92929985D02*
X136049999Y-93058557D01*
X136049999Y-93058557D02*
X136016666Y-93144271D01*
X136016666Y-93144271D02*
X135983333Y-93187128D01*
X135983333Y-93187128D02*
X135916666Y-93229985D01*
X135916666Y-93229985D02*
X135649999Y-93229985D01*
X136283333Y-92758557D02*
X136716666Y-92758557D01*
X136716666Y-92758557D02*
X136483333Y-93101414D01*
X136483333Y-93101414D02*
X136583333Y-93101414D01*
X136583333Y-93101414D02*
X136649999Y-93144271D01*
X136649999Y-93144271D02*
X136683333Y-93187128D01*
X136683333Y-93187128D02*
X136716666Y-93272842D01*
X136716666Y-93272842D02*
X136716666Y-93487128D01*
X136716666Y-93487128D02*
X136683333Y-93572842D01*
X136683333Y-93572842D02*
X136649999Y-93615700D01*
X136649999Y-93615700D02*
X136583333Y-93658557D01*
X136583333Y-93658557D02*
X136383333Y-93658557D01*
X136383333Y-93658557D02*
X136316666Y-93615700D01*
X136316666Y-93615700D02*
X136283333Y-93572842D01*
X137383333Y-93658557D02*
X136983333Y-93658557D01*
X137183333Y-93658557D02*
X137183333Y-92758557D01*
X137183333Y-92758557D02*
X137116666Y-92887128D01*
X137116666Y-92887128D02*
X137050000Y-92972842D01*
X137050000Y-92972842D02*
X136983333Y-93015700D01*
D13*
%TO.C,R26*%
X121920000Y-58300000D02*
X121920000Y-56700000D01*
X120580000Y-58300000D02*
X120580000Y-56700000D01*
%TO.C,R21*%
X105670000Y-50800000D02*
X105670000Y-49200000D01*
X104330000Y-50800000D02*
X104330000Y-49200000D01*
%TO.C,R16*%
X108170000Y-50800000D02*
X108170000Y-49200000D01*
X106830000Y-50800000D02*
X106830000Y-49200000D01*
%TO.C,Q1*%
X115300000Y-86000000D02*
X115300000Y-84985000D01*
X117555000Y-86000000D02*
X115300000Y-86000000D01*
X115300000Y-83000000D02*
X115300000Y-84015000D01*
X116700000Y-83000000D02*
X115300000Y-83000000D01*
D14*
X118035000Y-85450000D02*
G75*
G03*
X118035000Y-85450000I-100000J0D01*
G01*
D11*
%TO.C,R19*%
X101625000Y-54850000D02*
X101625000Y-55650000D01*
X104875000Y-54850000D02*
X104875000Y-55650000D01*
D13*
%TO.C,R6*%
X112250000Y-85980000D02*
X113250000Y-85980000D01*
X112250000Y-85020000D02*
X113250000Y-85020000D01*
D11*
%TO.C,L3*%
X134250000Y-42900000D02*
X133450000Y-42900000D01*
X134250000Y-42900000D02*
X134250000Y-52100000D01*
X131550000Y-42900000D02*
X130950000Y-42900000D01*
X129050000Y-42900000D02*
X128250000Y-42900000D01*
X134250000Y-52100000D02*
X133450000Y-52100000D01*
X131550000Y-52100000D02*
X130950000Y-52100000D01*
X129050000Y-52100000D02*
X128250000Y-52100000D01*
X128250000Y-52100000D02*
X128250000Y-42900000D01*
D13*
%TO.C,R30*%
X134750000Y-94270000D02*
X133750000Y-94270000D01*
X134750000Y-95230000D02*
X133750000Y-95230000D01*
D11*
%TO.C,D4*%
X134250000Y-85250000D02*
X134000000Y-85250000D01*
X134250000Y-79250000D02*
X134250000Y-85250000D01*
X134250000Y-79250000D02*
X134000000Y-79250000D01*
X132500000Y-85250000D02*
X131500000Y-85250000D01*
X132500000Y-79250000D02*
X131500000Y-79250000D01*
X129750000Y-85250000D02*
X130000000Y-85250000D01*
X129750000Y-85250000D02*
X129750000Y-79250000D01*
X129750000Y-79250000D02*
X130000000Y-79250000D01*
D13*
%TO.C,R18*%
X112455000Y-62250000D02*
X112455000Y-61250000D01*
X111495000Y-62250000D02*
X111495000Y-61250000D01*
%TO.C,C7*%
X105750000Y-65980000D02*
X106750000Y-65980000D01*
X105750000Y-65020000D02*
X106750000Y-65020000D01*
%TO.C,R8*%
X119920000Y-85300000D02*
X119920000Y-83700000D01*
X118580000Y-85300000D02*
X118580000Y-83700000D01*
D11*
%TO.C,L2*%
X134250000Y-75750000D02*
X134250000Y-65750000D01*
X134250000Y-75750000D02*
X133500000Y-75750000D01*
X134250000Y-65750000D02*
X133500000Y-65750000D01*
X130000000Y-75750000D02*
X128500000Y-75750000D01*
X128500000Y-65750000D02*
X130000000Y-65750000D01*
X124250000Y-75750000D02*
X125000000Y-75750000D01*
X124250000Y-75750000D02*
X124250000Y-65750000D01*
X124250000Y-65750000D02*
X125000000Y-65750000D01*
D13*
%TO.C,R14*%
X104250000Y-72770000D02*
X103250000Y-72770000D01*
X104250000Y-73730000D02*
X103250000Y-73730000D01*
%TO.C,U5*%
X115000000Y-95130000D02*
X115000000Y-93370000D01*
X115105000Y-95130000D02*
X115105000Y-96050000D01*
X118000000Y-95130000D02*
X118000000Y-93370000D01*
%TO.C,C6*%
X105750000Y-64730000D02*
X106750000Y-64730000D01*
X105750000Y-63770000D02*
X106750000Y-63770000D01*
%TO.C,U4*%
X113110000Y-68890000D02*
X113110000Y-69365000D01*
X112635000Y-75110000D02*
X113110000Y-75110000D01*
X112635000Y-68890000D02*
X113110000Y-68890000D01*
X107365000Y-75110000D02*
X106890000Y-75110000D01*
X107365000Y-68890000D02*
X106890000Y-68890000D01*
X106890000Y-75110000D02*
X106890000Y-74635000D01*
X106890000Y-68890000D02*
X106890000Y-69365000D01*
%TO.C,C16*%
X103250000Y-69480000D02*
X104250000Y-69480000D01*
X103250000Y-68520000D02*
X104250000Y-68520000D01*
%TO.C,IC1*%
X105470000Y-98110000D02*
X105470000Y-97875000D01*
X109530000Y-98110000D02*
X105470000Y-98110000D01*
X109530000Y-97875000D02*
X109530000Y-98110000D01*
X110895000Y-97875000D02*
X109530000Y-97875000D01*
X109530000Y-93125000D02*
X109530000Y-92890000D01*
X105470000Y-92890000D02*
X105470000Y-93125000D01*
X109530000Y-92890000D02*
X105470000Y-92890000D01*
D14*
X111375000Y-97405000D02*
G75*
G03*
X111375000Y-97405000I-100000J0D01*
G01*
D13*
%TO.C,R23*%
X110700000Y-66420000D02*
X112300000Y-66420000D01*
X110700000Y-65080000D02*
X112300000Y-65080000D01*
%TO.C,C24*%
X120450000Y-61415000D02*
X122050000Y-61415000D01*
X120450000Y-60085000D02*
X122050000Y-60085000D01*
%TO.C,R3*%
X112250000Y-82980000D02*
X113250000Y-82980000D01*
X112250000Y-82020000D02*
X113250000Y-82020000D01*
%TO.C,R2*%
X120730000Y-81750000D02*
X120730000Y-80750000D01*
X119770000Y-81750000D02*
X119770000Y-80750000D01*
%TO.C,C12*%
X105750000Y-62230000D02*
X106750000Y-62230000D01*
X105750000Y-61270000D02*
X106750000Y-61270000D01*
%TO.C,C11*%
X118300000Y-66335000D02*
X116700000Y-66335000D01*
X118300000Y-67665000D02*
X116700000Y-67665000D01*
%TO.C,U2*%
X114445000Y-78500000D02*
X116700000Y-78500000D01*
X115300000Y-81500000D02*
X116700000Y-81500000D01*
D14*
X114165000Y-79050000D02*
G75*
G03*
X114165000Y-79050000I-100000J0D01*
G01*
D13*
%TO.C,R34*%
X125000000Y-91230000D02*
X126000000Y-91230000D01*
X125000000Y-90270000D02*
X126000000Y-90270000D01*
%TO.C,R7*%
X120580000Y-83700000D02*
X120580000Y-85300000D01*
X121920000Y-83700000D02*
X121920000Y-85300000D01*
%TO.C,C1*%
X127085000Y-79200000D02*
X127085000Y-80800000D01*
X128415000Y-79200000D02*
X128415000Y-80800000D01*
%TO.C,U6*%
X101490000Y-80400000D02*
X101640000Y-80400000D01*
X101490000Y-82100000D02*
X101490000Y-80400000D01*
X101640000Y-82100000D02*
X101490000Y-82100000D01*
X104360000Y-82100000D02*
X104510000Y-82100000D01*
X104510000Y-80400000D02*
X104360000Y-80400000D01*
X104510000Y-82100000D02*
X104510000Y-80400000D01*
%TO.C,R12*%
X102500000Y-95520000D02*
X101500000Y-95520000D01*
X102500000Y-96480000D02*
X101500000Y-96480000D01*
D15*
%TO.C,U7*%
X131375000Y-93564200D02*
X131375000Y-94675000D01*
X126607046Y-93600000D02*
X126775000Y-93600000D01*
X131392954Y-96289200D02*
X131392954Y-97400000D01*
X131392954Y-97400000D02*
X131250000Y-97400000D01*
X126775000Y-97400000D02*
X126607046Y-97400000D01*
X126607046Y-97400000D02*
X126607046Y-93600000D01*
D16*
X131159000Y-92960000D02*
G75*
G03*
X131159000Y-92960000I-127000J0D01*
G01*
D13*
%TO.C,C14*%
X110230000Y-78250000D02*
X110230000Y-77250000D01*
X109270000Y-78250000D02*
X109270000Y-77250000D01*
%TO.C,J1*%
X124740000Y-53030000D02*
X115620000Y-53030000D01*
X124740000Y-39030000D02*
X124740000Y-53030000D01*
X115620000Y-53030000D02*
X115620000Y-39030000D01*
X115620000Y-39030000D02*
X124740000Y-39030000D01*
D17*
X121740000Y-53980000D02*
G75*
G03*
X121740000Y-53980000I-200000J0D01*
G01*
D13*
%TO.C,C4*%
X134750000Y-91270000D02*
X133750000Y-91270000D01*
X134750000Y-92230000D02*
X133750000Y-92230000D01*
%TO.C,C13*%
X105750000Y-63480000D02*
X106750000Y-63480000D01*
X105750000Y-62520000D02*
X106750000Y-62520000D01*
%TO.C,R27*%
X115400000Y-90815000D02*
X118600000Y-90815000D01*
X115400000Y-88685000D02*
X118600000Y-88685000D01*
%TO.C,C18*%
X104000000Y-83835000D02*
X102000000Y-83835000D01*
X104000000Y-85665000D02*
X102000000Y-85665000D01*
%TO.C,R4*%
X112250000Y-81480000D02*
X113250000Y-81480000D01*
X112250000Y-80520000D02*
X113250000Y-80520000D01*
%TO.C,C15*%
X108980000Y-78250000D02*
X108980000Y-77250000D01*
X108020000Y-78250000D02*
X108020000Y-77250000D01*
D11*
%TO.C,R13*%
X109125000Y-55650000D02*
X109125000Y-54850000D01*
X105875000Y-55650000D02*
X105875000Y-54850000D01*
D13*
%TO.C,R20*%
X109950000Y-64670000D02*
X111550000Y-64670000D01*
X109950000Y-63330000D02*
X111550000Y-63330000D01*
D18*
%TO.C,L1*%
X126910000Y-57240000D02*
X131610000Y-57240000D01*
X126910000Y-57850000D02*
X126910000Y-59210000D01*
X126910000Y-60460000D02*
X131610000Y-60460000D01*
X131610000Y-58490000D02*
X131610000Y-59850000D01*
D13*
%TO.C,C29*%
X117910000Y-55150000D02*
X117910000Y-58350000D01*
X120090000Y-55150000D02*
X120090000Y-58350000D01*
%TO.C,D7*%
X117950000Y-60250000D02*
X117950000Y-61265000D01*
X115695000Y-60250000D02*
X117950000Y-60250000D01*
X117950000Y-63250000D02*
X117950000Y-62235000D01*
X116550000Y-63250000D02*
X117950000Y-63250000D01*
D14*
X115415000Y-60800000D02*
G75*
G03*
X115415000Y-60800000I-100000J0D01*
G01*
D13*
%TO.C,R28*%
X109330000Y-49200000D02*
X109330000Y-50800000D01*
X110670000Y-49200000D02*
X110670000Y-50800000D01*
%TO.C,C32*%
X123750000Y-90270000D02*
X122750000Y-90270000D01*
X123750000Y-91230000D02*
X122750000Y-91230000D01*
%TO.C,R29*%
X114420000Y-58300000D02*
X114420000Y-56700000D01*
X113080000Y-58300000D02*
X113080000Y-56700000D01*
%TO.C,X1*%
X116140000Y-69865000D02*
X116140000Y-70635000D01*
X118860000Y-70635000D02*
X118860000Y-69865000D01*
%TO.C,R5*%
X113250000Y-83520000D02*
X112250000Y-83520000D01*
X113250000Y-84480000D02*
X112250000Y-84480000D01*
%TO.C,U1*%
X123800000Y-81500000D02*
X123800000Y-80485000D01*
X126055000Y-81500000D02*
X123800000Y-81500000D01*
X123800000Y-78500000D02*
X123800000Y-79515000D01*
X125200000Y-78500000D02*
X123800000Y-78500000D01*
D14*
X126535000Y-80950000D02*
G75*
G03*
X126535000Y-80950000I-100000J0D01*
G01*
D13*
%TO.C,R25*%
X111230000Y-62250000D02*
X111230000Y-61250000D01*
X110270000Y-62250000D02*
X110270000Y-61250000D01*
%TO.C,C17*%
X103250000Y-68230000D02*
X104250000Y-68230000D01*
X103250000Y-67270000D02*
X104250000Y-67270000D01*
%TO.C,C22*%
X120450000Y-63415000D02*
X122050000Y-63415000D01*
X120450000Y-62085000D02*
X122050000Y-62085000D01*
%TO.C,R32*%
X125000000Y-89730000D02*
X126000000Y-89730000D01*
X125000000Y-88770000D02*
X126000000Y-88770000D01*
%TO.C,C27*%
X134750000Y-97270000D02*
X133750000Y-97270000D01*
X134750000Y-98230000D02*
X133750000Y-98230000D01*
%TO.C,D5*%
X110645000Y-40355000D02*
X109355000Y-40355000D01*
X109355000Y-40355000D02*
X109355000Y-42550000D01*
X110645000Y-42550000D02*
X110645000Y-40355000D01*
%TO.C,R15*%
X121970000Y-74300000D02*
X121970000Y-72700000D01*
X120630000Y-74300000D02*
X120630000Y-72700000D01*
%TO.C,D6*%
X107315000Y-87030000D02*
X107315000Y-90970000D01*
X107315000Y-90970000D02*
X112660000Y-90970000D01*
X112660000Y-87030000D02*
X107315000Y-87030000D01*
D14*
X107095000Y-89000000D02*
G75*
G03*
X107095000Y-89000000I-100000J0D01*
G01*
%TO.C,X2*%
G36*
X123681000Y-100405000D02*
G01*
X122841000Y-100405000D01*
X122841000Y-100365000D01*
X123681000Y-100365000D01*
X123681000Y-100405000D01*
G37*
G36*
X123681000Y-100445000D02*
G01*
X122841000Y-100445000D01*
X122841000Y-100405000D01*
X123681000Y-100405000D01*
X123681000Y-100445000D01*
G37*
G36*
X123681000Y-100485000D02*
G01*
X122841000Y-100485000D01*
X122841000Y-100445000D01*
X123681000Y-100445000D01*
X123681000Y-100485000D01*
G37*
G36*
X123681000Y-100525000D02*
G01*
X122841000Y-100525000D01*
X122841000Y-100485000D01*
X123681000Y-100485000D01*
X123681000Y-100525000D01*
G37*
G36*
X123641000Y-100565000D02*
G01*
X122841000Y-100565000D01*
X122841000Y-100525000D01*
X123641000Y-100525000D01*
X123641000Y-100565000D01*
G37*
G36*
X123121000Y-100605000D02*
G01*
X122841000Y-100605000D01*
X122841000Y-100565000D01*
X123121000Y-100565000D01*
X123121000Y-100605000D01*
G37*
G36*
X123121000Y-100645000D02*
G01*
X122841000Y-100645000D01*
X122841000Y-100605000D01*
X123121000Y-100605000D01*
X123121000Y-100645000D01*
G37*
G36*
X123121000Y-100685000D02*
G01*
X122841000Y-100685000D01*
X122841000Y-100645000D01*
X123121000Y-100645000D01*
X123121000Y-100685000D01*
G37*
G36*
X123441000Y-100725000D02*
G01*
X122841000Y-100725000D01*
X122841000Y-100685000D01*
X123441000Y-100685000D01*
X123441000Y-100725000D01*
G37*
G36*
X123521000Y-100765000D02*
G01*
X122841000Y-100765000D01*
X122841000Y-100725000D01*
X123521000Y-100725000D01*
X123521000Y-100765000D01*
G37*
G36*
X123521000Y-100805000D02*
G01*
X122841000Y-100805000D01*
X122841000Y-100765000D01*
X123521000Y-100765000D01*
X123521000Y-100805000D01*
G37*
G36*
X123521000Y-100845000D02*
G01*
X122841000Y-100845000D01*
X122841000Y-100805000D01*
X123521000Y-100805000D01*
X123521000Y-100845000D01*
G37*
G36*
X123521000Y-100885000D02*
G01*
X122841000Y-100885000D01*
X122841000Y-100845000D01*
X123521000Y-100845000D01*
X123521000Y-100885000D01*
G37*
G36*
X123521000Y-100925000D02*
G01*
X122841000Y-100925000D01*
X122841000Y-100885000D01*
X123521000Y-100885000D01*
X123521000Y-100925000D01*
G37*
G36*
X123481000Y-100965000D02*
G01*
X122841000Y-100965000D01*
X122841000Y-100925000D01*
X123481000Y-100925000D01*
X123481000Y-100965000D01*
G37*
G36*
X123121000Y-101005000D02*
G01*
X122841000Y-101005000D01*
X122841000Y-100965000D01*
X123121000Y-100965000D01*
X123121000Y-101005000D01*
G37*
G36*
X123121000Y-101045000D02*
G01*
X122841000Y-101045000D01*
X122841000Y-101005000D01*
X123121000Y-101005000D01*
X123121000Y-101045000D01*
G37*
G36*
X123121000Y-101085000D02*
G01*
X122841000Y-101085000D01*
X122841000Y-101045000D01*
X123121000Y-101045000D01*
X123121000Y-101085000D01*
G37*
G36*
X123601000Y-101125000D02*
G01*
X122841000Y-101125000D01*
X122841000Y-101085000D01*
X123601000Y-101085000D01*
X123601000Y-101125000D01*
G37*
G36*
X123681000Y-101165000D02*
G01*
X122841000Y-101165000D01*
X122841000Y-101125000D01*
X123681000Y-101125000D01*
X123681000Y-101165000D01*
G37*
G36*
X123681000Y-101205000D02*
G01*
X122841000Y-101205000D01*
X122841000Y-101165000D01*
X123681000Y-101165000D01*
X123681000Y-101205000D01*
G37*
G36*
X123681000Y-101245000D02*
G01*
X122841000Y-101245000D01*
X122841000Y-101205000D01*
X123681000Y-101205000D01*
X123681000Y-101245000D01*
G37*
G36*
X123681000Y-101285000D02*
G01*
X122841000Y-101285000D01*
X122841000Y-101245000D01*
X123681000Y-101245000D01*
X123681000Y-101285000D01*
G37*
G36*
X123681000Y-101325000D02*
G01*
X122841000Y-101325000D01*
X122841000Y-101285000D01*
X123681000Y-101285000D01*
X123681000Y-101325000D01*
G37*
G36*
X123681000Y-100365000D02*
G01*
X122881000Y-100365000D01*
X122881000Y-100325000D01*
X123681000Y-100325000D01*
X123681000Y-100365000D01*
G37*
G36*
X123641000Y-101365000D02*
G01*
X122881000Y-101365000D01*
X122881000Y-101325000D01*
X123641000Y-101325000D01*
X123641000Y-101365000D01*
G37*
G36*
X123601000Y-100325000D02*
G01*
X122961000Y-100325000D01*
X122961000Y-100285000D01*
X123601000Y-100285000D01*
X123601000Y-100325000D01*
G37*
D13*
%TO.C,C31*%
X133335000Y-88250000D02*
X133335000Y-90250000D01*
X135165000Y-88250000D02*
X135165000Y-90250000D01*
%TO.C,C23*%
X134025000Y-62085000D02*
X132425000Y-62085000D01*
X134025000Y-63415000D02*
X132425000Y-63415000D01*
%TO.C,C2*%
X122165000Y-78250000D02*
X122165000Y-76250000D01*
X120335000Y-78250000D02*
X120335000Y-76250000D01*
%TO.C,C25*%
X122835000Y-56250000D02*
X122835000Y-58250000D01*
X124665000Y-56250000D02*
X124665000Y-58250000D01*
%TO.C,D2*%
X103145000Y-40355000D02*
X101855000Y-40355000D01*
X101855000Y-40355000D02*
X101855000Y-42550000D01*
X103145000Y-42550000D02*
X103145000Y-40355000D01*
%TO.C,D3*%
X105645000Y-40355000D02*
X104355000Y-40355000D01*
X104355000Y-40355000D02*
X104355000Y-42550000D01*
X105645000Y-42550000D02*
X105645000Y-40355000D01*
%TO.C,C30*%
X117340000Y-58350000D02*
X117340000Y-55150000D01*
X115160000Y-58350000D02*
X115160000Y-55150000D01*
%TO.C,C28*%
X119730000Y-94750000D02*
X119730000Y-93750000D01*
X118770000Y-94750000D02*
X118770000Y-93750000D01*
%TO.C,R36*%
X122750000Y-88230000D02*
X123750000Y-88230000D01*
X122750000Y-87270000D02*
X123750000Y-87270000D01*
%TO.C,R35*%
X125000000Y-88230000D02*
X126000000Y-88230000D01*
X125000000Y-87270000D02*
X126000000Y-87270000D01*
%TO.C,R10*%
X104250000Y-74020000D02*
X103250000Y-74020000D01*
X104250000Y-74980000D02*
X103250000Y-74980000D01*
%TO.C,U3*%
X123800000Y-86000000D02*
X123800000Y-84985000D01*
X126055000Y-86000000D02*
X123800000Y-86000000D01*
X123800000Y-83000000D02*
X123800000Y-84015000D01*
X125200000Y-83000000D02*
X123800000Y-83000000D01*
D14*
X126535000Y-85450000D02*
G75*
G03*
X126535000Y-85450000I-100000J0D01*
G01*
D13*
%TO.C,C8*%
X103250000Y-71980000D02*
X104250000Y-71980000D01*
X103250000Y-71020000D02*
X104250000Y-71020000D01*
%TO.C,C3*%
X119480000Y-81750000D02*
X119480000Y-80750000D01*
X118520000Y-81750000D02*
X118520000Y-80750000D01*
%TO.C,R24*%
X109980000Y-62250000D02*
X109980000Y-61250000D01*
X109020000Y-62250000D02*
X109020000Y-61250000D01*
%TO.C,U8*%
X131360000Y-87610000D02*
X131360000Y-88615000D01*
X128370000Y-87640000D02*
X128140000Y-87640000D01*
X128140000Y-87640000D02*
X128140000Y-88615000D01*
X131360000Y-89885000D02*
X131360000Y-90860000D01*
X128140000Y-89885000D02*
X128140000Y-90860000D01*
X131360000Y-90860000D02*
X131130000Y-90860000D01*
X128370000Y-90860000D02*
X128140000Y-90860000D01*
%TO.C,C20*%
X101500000Y-97980000D02*
X102500000Y-97980000D01*
X101500000Y-97020000D02*
X102500000Y-97020000D01*
%TO.C,C19*%
X113270000Y-93750000D02*
X113270000Y-94750000D01*
X114230000Y-93750000D02*
X114230000Y-94750000D01*
%TO.C,R33*%
X133750000Y-96730000D02*
X134750000Y-96730000D01*
X133750000Y-95770000D02*
X134750000Y-95770000D01*
%TO.C,R17*%
X103170000Y-50800000D02*
X103170000Y-49200000D01*
X101830000Y-50800000D02*
X101830000Y-49200000D01*
%TO.C,D1*%
X108145000Y-40355000D02*
X106855000Y-40355000D01*
X106855000Y-40355000D02*
X106855000Y-42550000D01*
X108145000Y-42550000D02*
X108145000Y-40355000D01*
%TO.C,C26*%
X125165000Y-96500000D02*
X125165000Y-94500000D01*
X123335000Y-96500000D02*
X123335000Y-94500000D01*
%TO.C,C9*%
X103250000Y-70730000D02*
X104250000Y-70730000D01*
X103250000Y-69770000D02*
X104250000Y-69770000D01*
%TO.C,R11*%
X106670000Y-82050000D02*
X106670000Y-80450000D01*
X105330000Y-82050000D02*
X105330000Y-80450000D01*
%TO.C,C21*%
X104000000Y-76835000D02*
X102000000Y-76835000D01*
X104000000Y-78665000D02*
X102000000Y-78665000D01*
%TO.C,R9*%
X128420000Y-85300000D02*
X128420000Y-83700000D01*
X127080000Y-85300000D02*
X127080000Y-83700000D01*
%TO.C,C10*%
X116700000Y-74165000D02*
X118300000Y-74165000D01*
X116700000Y-72835000D02*
X118300000Y-72835000D01*
%TO.C,R1*%
X121020000Y-80750000D02*
X121020000Y-81750000D01*
X121980000Y-80750000D02*
X121980000Y-81750000D01*
%TO.C,C5*%
X122665000Y-96500000D02*
X122665000Y-94500000D01*
X120835000Y-96500000D02*
X120835000Y-94500000D01*
%TO.C,R22*%
X113730000Y-62250000D02*
X113730000Y-61250000D01*
X112770000Y-62250000D02*
X112770000Y-61250000D01*
%TO.C,R31*%
X134750000Y-92770000D02*
X133750000Y-92770000D01*
X134750000Y-93730000D02*
X133750000Y-93730000D01*
D11*
%TO.C,P2*%
X104550000Y-92075000D02*
X101450000Y-92075000D01*
X104550000Y-90525000D02*
X104550000Y-92075000D01*
X104270000Y-89255000D02*
X104270000Y-86715000D01*
X104270000Y-86715000D02*
X101730000Y-86715000D01*
X101730000Y-89255000D02*
X104270000Y-89255000D01*
X101730000Y-89255000D02*
X101730000Y-86715000D01*
X101450000Y-92075000D02*
X101450000Y-90525000D01*
%TD*%
M02*
