%TF.GenerationSoftware,KiCad,Pcbnew,7.0.6*%
%TF.CreationDate,2023-08-09T16:46:37+09:30*%
%TF.ProjectId,interior-lighting,696e7465-7269-46f7-922d-6c6967687469,V1.0*%
%TF.SameCoordinates,Original*%
%TF.FileFunction,Drillmap*%
%TF.FilePolarity,Positive*%
%FSLAX45Y45*%
G04 Gerber Fmt 4.5, Leading zero omitted, Abs format (unit mm)*
G04 Created by KiCad (PCBNEW 7.0.6) date 2023-08-09 16:46:37*
%MOMM*%
%LPD*%
G01*
G04 APERTURE LIST*
%ADD10C,0.250000*%
%ADD11C,0.200000*%
G04 APERTURE END LIST*
D10*
X11669438Y-11195495D02*
G75*
G03*
X11986440Y-11055673I69622J271415D01*
G01*
X8803505Y-11668438D02*
G75*
G03*
X8708216Y-11330285I-339025J86968D01*
G01*
X10301341Y-11925581D02*
G75*
G03*
X10798352Y-11443311I-92731J592802D01*
G01*
X8943328Y-8012561D02*
G75*
G03*
X8803506Y-8329562I131592J-247379D01*
G01*
X11291783Y-11330284D02*
G75*
G03*
X11196494Y-11668438I243737J-251186D01*
G01*
X10301340Y-8072424D02*
G75*
G03*
X9698660Y-8072424I-301340J-1926575D01*
G01*
X8803505Y-11668438D02*
G75*
G03*
X8943327Y-11985440I271415J-69622D01*
G01*
X9201654Y-11443310D02*
G75*
G03*
X9698660Y-11925576I589726J110520D01*
G01*
X11926576Y-10300340D02*
G75*
G03*
X11926576Y-9697660I-1926576J301340D01*
G01*
X11669438Y-11195495D02*
G75*
G03*
X11331285Y-11290784I-86968J-339025D01*
G01*
X8955785Y-11012232D02*
G75*
G03*
X8986768Y-11043215I1043655J1012672D01*
G01*
X8986767Y-8954784D02*
G75*
G03*
X9201648Y-8554689I-522277J538254D01*
G01*
X11331284Y-8707217D02*
G75*
G03*
X11669438Y-8802506I251186J243737D01*
G01*
X11926581Y-9697659D02*
G75*
G03*
X11444311Y-9200648I-592802J-92731D01*
G01*
X8330562Y-8802505D02*
G75*
G03*
X8668715Y-8707216I86968J339025D01*
G01*
X8943327Y-11985440D02*
G75*
G03*
X11056673Y-11985440I1056673J1986440D01*
G01*
X11444311Y-10797351D02*
G75*
G03*
X11044215Y-11012232I138169J-737179D01*
G01*
X8330562Y-8802505D02*
G75*
G03*
X8013560Y-8942327I-69622J-271415D01*
G01*
X8986768Y-8954785D02*
G75*
G03*
X8955785Y-8985768I1012672J-1043655D01*
G01*
X8668715Y-11290784D02*
G75*
G03*
X8708216Y-11330285I1330855J1291354D01*
G01*
X11196495Y-8329562D02*
G75*
G03*
X11056673Y-8012560I-271415J69622D01*
G01*
X8073418Y-10300341D02*
G75*
G03*
X8555689Y-10797352I592802J92731D01*
G01*
X10798351Y-8554689D02*
G75*
G03*
X11013232Y-8954785I737179J138169D01*
G01*
X11044217Y-8985767D02*
G75*
G03*
X11444311Y-9200648I538253J522277D01*
G01*
X8708216Y-8667715D02*
G75*
G03*
X8668715Y-8707216I1291354J-1330855D01*
G01*
X9698660Y-11925576D02*
G75*
G03*
X10301340Y-11925576I301340J1926575D01*
G01*
X11013233Y-11043217D02*
G75*
G03*
X10798352Y-11443311I522277J-538253D01*
G01*
X8013561Y-11055672D02*
G75*
G03*
X8330562Y-11195494I247379J131592D01*
G01*
X11444310Y-10797346D02*
G75*
G03*
X11926576Y-10300340I-110520J589726D01*
G01*
X8555689Y-9200649D02*
G75*
G03*
X8955785Y-8985768I-138169J737179D01*
G01*
X8708217Y-8667716D02*
G75*
G03*
X8803506Y-8329562I-243737J251186D01*
G01*
X11291784Y-11330285D02*
G75*
G03*
X11331285Y-11290784I-1291354J1330855D01*
G01*
X11044215Y-8985768D02*
G75*
G03*
X11013232Y-8954785I-1043655J-1012672D01*
G01*
X8668716Y-11290783D02*
G75*
G03*
X8330562Y-11195494I-251186J-243737D01*
G01*
X10798346Y-8554690D02*
G75*
G03*
X10301340Y-8072424I-589726J-110520D01*
G01*
X11056672Y-11985439D02*
G75*
G03*
X11196494Y-11668438I-131592J247379D01*
G01*
X8955784Y-11012233D02*
G75*
G03*
X8555689Y-10797352I-538254J-522277D01*
G01*
X8555690Y-9200654D02*
G75*
G03*
X8073424Y-9697660I110520J-589726D01*
G01*
X9698660Y-8072424D02*
G75*
G03*
X9201648Y-8554689I92726J-592799D01*
G01*
X11331285Y-8707216D02*
G75*
G03*
X11291784Y-8667715I-1330855J-1291354D01*
G01*
X8073424Y-9697660D02*
G75*
G03*
X8073424Y-10300340I1926576J-301340D01*
G01*
X11196495Y-8329562D02*
G75*
G03*
X11291784Y-8667715I339025J-86968D01*
G01*
X11013232Y-11043215D02*
G75*
G03*
X11044215Y-11012232I-1012672J1043655D01*
G01*
X9201649Y-11443311D02*
G75*
G03*
X8986768Y-11043215I-737179J-138169D01*
G01*
X8013560Y-8942327D02*
G75*
G03*
X8013560Y-11055673I1986440J-1056673D01*
G01*
X11986440Y-11055673D02*
G75*
G03*
X11986440Y-8942327I-1986440J1056673D01*
G01*
X11056673Y-8012560D02*
G75*
G03*
X8943327Y-8012560I-1056673J-1986440D01*
G01*
X11986439Y-8942328D02*
G75*
G03*
X11669438Y-8802506I-247379J-131592D01*
G01*
D11*
X7998277Y-12572984D02*
X7998277Y-12372984D01*
X7998277Y-12372984D02*
X8045896Y-12372984D01*
X8045896Y-12372984D02*
X8074467Y-12382508D01*
X8074467Y-12382508D02*
X8093515Y-12401555D01*
X8093515Y-12401555D02*
X8103039Y-12420603D01*
X8103039Y-12420603D02*
X8112562Y-12458698D01*
X8112562Y-12458698D02*
X8112562Y-12487269D01*
X8112562Y-12487269D02*
X8103039Y-12525365D01*
X8103039Y-12525365D02*
X8093515Y-12544412D01*
X8093515Y-12544412D02*
X8074467Y-12563460D01*
X8074467Y-12563460D02*
X8045896Y-12572984D01*
X8045896Y-12572984D02*
X7998277Y-12572984D01*
X8198277Y-12572984D02*
X8198277Y-12439650D01*
X8198277Y-12477746D02*
X8207801Y-12458698D01*
X8207801Y-12458698D02*
X8217324Y-12449174D01*
X8217324Y-12449174D02*
X8236372Y-12439650D01*
X8236372Y-12439650D02*
X8255420Y-12439650D01*
X8322086Y-12572984D02*
X8322086Y-12439650D01*
X8322086Y-12372984D02*
X8312562Y-12382508D01*
X8312562Y-12382508D02*
X8322086Y-12392031D01*
X8322086Y-12392031D02*
X8331610Y-12382508D01*
X8331610Y-12382508D02*
X8322086Y-12372984D01*
X8322086Y-12372984D02*
X8322086Y-12392031D01*
X8445896Y-12572984D02*
X8426848Y-12563460D01*
X8426848Y-12563460D02*
X8417324Y-12544412D01*
X8417324Y-12544412D02*
X8417324Y-12372984D01*
X8550658Y-12572984D02*
X8531610Y-12563460D01*
X8531610Y-12563460D02*
X8522086Y-12544412D01*
X8522086Y-12544412D02*
X8522086Y-12372984D01*
X8779229Y-12572984D02*
X8779229Y-12372984D01*
X8779229Y-12372984D02*
X8845896Y-12515841D01*
X8845896Y-12515841D02*
X8912563Y-12372984D01*
X8912563Y-12372984D02*
X8912563Y-12572984D01*
X9093515Y-12572984D02*
X9093515Y-12468222D01*
X9093515Y-12468222D02*
X9083991Y-12449174D01*
X9083991Y-12449174D02*
X9064944Y-12439650D01*
X9064944Y-12439650D02*
X9026848Y-12439650D01*
X9026848Y-12439650D02*
X9007801Y-12449174D01*
X9093515Y-12563460D02*
X9074467Y-12572984D01*
X9074467Y-12572984D02*
X9026848Y-12572984D01*
X9026848Y-12572984D02*
X9007801Y-12563460D01*
X9007801Y-12563460D02*
X8998277Y-12544412D01*
X8998277Y-12544412D02*
X8998277Y-12525365D01*
X8998277Y-12525365D02*
X9007801Y-12506317D01*
X9007801Y-12506317D02*
X9026848Y-12496793D01*
X9026848Y-12496793D02*
X9074467Y-12496793D01*
X9074467Y-12496793D02*
X9093515Y-12487269D01*
X9188753Y-12439650D02*
X9188753Y-12639650D01*
X9188753Y-12449174D02*
X9207801Y-12439650D01*
X9207801Y-12439650D02*
X9245896Y-12439650D01*
X9245896Y-12439650D02*
X9264944Y-12449174D01*
X9264944Y-12449174D02*
X9274467Y-12458698D01*
X9274467Y-12458698D02*
X9283991Y-12477746D01*
X9283991Y-12477746D02*
X9283991Y-12534888D01*
X9283991Y-12534888D02*
X9274467Y-12553936D01*
X9274467Y-12553936D02*
X9264944Y-12563460D01*
X9264944Y-12563460D02*
X9245896Y-12572984D01*
X9245896Y-12572984D02*
X9207801Y-12572984D01*
X9207801Y-12572984D02*
X9188753Y-12563460D01*
X9369705Y-12553936D02*
X9379229Y-12563460D01*
X9379229Y-12563460D02*
X9369705Y-12572984D01*
X9369705Y-12572984D02*
X9360182Y-12563460D01*
X9360182Y-12563460D02*
X9369705Y-12553936D01*
X9369705Y-12553936D02*
X9369705Y-12572984D01*
X9369705Y-12449174D02*
X9379229Y-12458698D01*
X9379229Y-12458698D02*
X9369705Y-12468222D01*
X9369705Y-12468222D02*
X9360182Y-12458698D01*
X9360182Y-12458698D02*
X9369705Y-12449174D01*
X9369705Y-12449174D02*
X9369705Y-12468222D01*
M02*
