%TF.GenerationSoftware,KiCad,Pcbnew,7.0.6*%
%TF.CreationDate,2023-08-09T16:46:23+09:30*%
%TF.ProjectId,interior-lighting,696e7465-7269-46f7-922d-6c6967687469,V1.0*%
%TF.SameCoordinates,Original*%
%TF.FileFunction,Copper,L2,Bot*%
%TF.FilePolarity,Positive*%
%FSLAX46Y46*%
G04 Gerber Fmt 4.6, Leading zero omitted, Abs format (unit mm)*
G04 Created by KiCad (PCBNEW 7.0.6) date 2023-08-09 16:46:23*
%MOMM*%
%LPD*%
G01*
G04 APERTURE LIST*
G04 Aperture macros list*
%AMRoundRect*
0 Rectangle with rounded corners*
0 $1 Rounding radius*
0 $2 $3 $4 $5 $6 $7 $8 $9 X,Y pos of 4 corners*
0 Add a 4 corners polygon primitive as box body*
4,1,4,$2,$3,$4,$5,$6,$7,$8,$9,$2,$3,0*
0 Add four circle primitives for the rounded corners*
1,1,$1+$1,$2,$3*
1,1,$1+$1,$4,$5*
1,1,$1+$1,$6,$7*
1,1,$1+$1,$8,$9*
0 Add four rect primitives between the rounded corners*
20,1,$1+$1,$2,$3,$4,$5,0*
20,1,$1+$1,$4,$5,$6,$7,0*
20,1,$1+$1,$6,$7,$8,$9,0*
20,1,$1+$1,$8,$9,$2,$3,0*%
G04 Aperture macros list end*
%TA.AperFunction,SMDPad,CuDef*%
%ADD10RoundRect,0.180000X-0.255000X0.180000X-0.255000X-0.180000X0.255000X-0.180000X0.255000X0.180000X0*%
%TD*%
%TA.AperFunction,SMDPad,CuDef*%
%ADD11RoundRect,0.180000X-0.239866X-0.199724X0.107868X-0.292899X0.239866X0.199724X-0.107868X0.292899X0*%
%TD*%
%TA.AperFunction,SMDPad,CuDef*%
%ADD12RoundRect,0.180000X-0.180000X-0.255000X0.180000X-0.255000X0.180000X0.255000X-0.180000X0.255000X0*%
%TD*%
%TA.AperFunction,SMDPad,CuDef*%
%ADD13RoundRect,0.180000X-0.107868X-0.292899X0.239866X-0.199724X0.107868X0.292899X-0.239866X0.199724X0*%
%TD*%
%TA.AperFunction,SMDPad,CuDef*%
%ADD14RoundRect,0.180000X0.255000X-0.180000X0.255000X0.180000X-0.255000X0.180000X-0.255000X-0.180000X0*%
%TD*%
%TA.AperFunction,SMDPad,CuDef*%
%ADD15RoundRect,0.180000X0.199724X-0.239866X0.292899X0.107868X-0.199724X0.239866X-0.292899X-0.107868X0*%
%TD*%
%TA.AperFunction,SMDPad,CuDef*%
%ADD16RoundRect,0.180000X0.292899X-0.107868X0.199724X0.239866X-0.292899X0.107868X-0.199724X-0.239866X0*%
%TD*%
%TA.AperFunction,SMDPad,CuDef*%
%ADD17RoundRect,0.180000X0.180000X0.255000X-0.180000X0.255000X-0.180000X-0.255000X0.180000X-0.255000X0*%
%TD*%
%TA.AperFunction,SMDPad,CuDef*%
%ADD18RoundRect,0.180000X0.239866X0.199724X-0.107868X0.292899X-0.239866X-0.199724X0.107868X-0.292899X0*%
%TD*%
%TA.AperFunction,SMDPad,CuDef*%
%ADD19RoundRect,0.180000X0.107868X0.292899X-0.239866X0.199724X-0.107868X-0.292899X0.239866X-0.199724X0*%
%TD*%
%TA.AperFunction,SMDPad,CuDef*%
%ADD20RoundRect,0.500000X-0.405580X-0.579228X0.579228X-0.405580X0.405580X0.579228X-0.579228X0.405580X0*%
%TD*%
%TA.AperFunction,SMDPad,CuDef*%
%ADD21RoundRect,0.500000X-0.353553X-0.612372X0.612372X-0.353553X0.353553X0.612372X-0.612372X0.353553X0*%
%TD*%
%TA.AperFunction,SMDPad,CuDef*%
%ADD22RoundRect,0.500000X0.612372X0.353553X-0.353553X0.612372X-0.612372X-0.353553X0.353553X-0.612372X0*%
%TD*%
%TA.AperFunction,SMDPad,CuDef*%
%ADD23RoundRect,0.500000X-0.454519X-0.541675X0.541675X-0.454519X0.454519X0.541675X-0.541675X0.454519X0*%
%TD*%
%TA.AperFunction,SMDPad,CuDef*%
%ADD24RoundRect,0.500000X0.517145X0.482246X-0.482246X0.517145X-0.517145X-0.482246X0.482246X-0.517145X0*%
%TD*%
%TA.AperFunction,SMDPad,CuDef*%
%ADD25RoundRect,0.500000X0.500000X0.500000X-0.500000X0.500000X-0.500000X-0.500000X0.500000X-0.500000X0*%
%TD*%
%TA.AperFunction,ViaPad*%
%ADD26C,0.500000*%
%TD*%
%TA.AperFunction,Conductor*%
%ADD27C,0.250000*%
%TD*%
%TA.AperFunction,Conductor*%
%ADD28C,0.200000*%
%TD*%
G04 APERTURE END LIST*
D10*
%TO.P,C21,1*%
%TO.N,+3.3V*%
X82900000Y-90875000D03*
%TO.P,C21,2*%
%TO.N,GND*%
X82900000Y-89525000D03*
%TD*%
D11*
%TO.P,C20,1*%
%TO.N,+3.3V*%
X80452000Y-94874703D03*
%TO.P,C20,2*%
%TO.N,GND*%
X79148000Y-94525297D03*
%TD*%
D12*
%TO.P,C19,1*%
%TO.N,+3.3V*%
X79675000Y-100000000D03*
%TO.P,C19,2*%
%TO.N,GND*%
X78325000Y-100000000D03*
%TD*%
D13*
%TO.P,C18,1*%
%TO.N,+3.3V*%
X80452000Y-105325297D03*
%TO.P,C18,2*%
%TO.N,GND*%
X79148000Y-105674703D03*
%TD*%
D14*
%TO.P,C17,1*%
%TO.N,+3.3V*%
X83300000Y-109025000D03*
%TO.P,C17,2*%
%TO.N,GND*%
X83300000Y-110375000D03*
%TD*%
D12*
%TO.P,C15,1*%
%TO.N,+3.3V*%
X91075000Y-116600000D03*
%TO.P,C15,2*%
%TO.N,GND*%
X89725000Y-116600000D03*
%TD*%
D15*
%TO.P,C14,1*%
%TO.N,+3.3V*%
X94774703Y-119548000D03*
%TO.P,C14,2*%
%TO.N,GND*%
X94425297Y-120852000D03*
%TD*%
D14*
%TO.P,C13,1*%
%TO.N,+3.3V*%
X100000000Y-120325000D03*
%TO.P,C13,2*%
%TO.N,GND*%
X100000000Y-121675000D03*
%TD*%
D16*
%TO.P,C12,1*%
%TO.N,+3.3V*%
X105225297Y-119648000D03*
%TO.P,C12,2*%
%TO.N,GND*%
X105574703Y-120952000D03*
%TD*%
D17*
%TO.P,C11,1*%
%TO.N,+3.3V*%
X108925000Y-116700000D03*
%TO.P,C11,2*%
%TO.N,GND*%
X110275000Y-116700000D03*
%TD*%
D14*
%TO.P,C9,1*%
%TO.N,+3.3V*%
X116900000Y-108825000D03*
%TO.P,C9,2*%
%TO.N,GND*%
X116900000Y-110175000D03*
%TD*%
D18*
%TO.P,C8,1*%
%TO.N,+3.3V*%
X119548000Y-105125297D03*
%TO.P,C8,2*%
%TO.N,GND*%
X120852000Y-105474703D03*
%TD*%
D17*
%TO.P,C7,1*%
%TO.N,+3.3V*%
X120325000Y-100000000D03*
%TO.P,C7,2*%
%TO.N,GND*%
X121675000Y-100000000D03*
%TD*%
D19*
%TO.P,C6,1*%
%TO.N,+3.3V*%
X119648000Y-94974703D03*
%TO.P,C6,2*%
%TO.N,GND*%
X120952000Y-94625297D03*
%TD*%
D10*
%TO.P,C5,1*%
%TO.N,+3.3V*%
X116900000Y-90875000D03*
%TO.P,C5,2*%
%TO.N,GND*%
X116900000Y-89525000D03*
%TD*%
D17*
%TO.P,C3,1*%
%TO.N,+3.3V*%
X109125000Y-82900000D03*
%TO.P,C3,2*%
%TO.N,GND*%
X110475000Y-82900000D03*
%TD*%
D20*
%TO.P,P6,1,P1*%
%TO.N,Net-(P6-P1)*%
X96000000Y-79050000D03*
%TD*%
D21*
%TO.P,P5,1,P1*%
%TO.N,Net-(P5-P1)*%
X93600000Y-79650000D03*
%TD*%
D22*
%TO.P,P4,1,P1*%
%TO.N,+3.3V*%
X90500000Y-85900000D03*
%TD*%
D23*
%TO.P,P3,1,P1*%
%TO.N,Net-(P3-P1)*%
X98400000Y-78650000D03*
%TD*%
D24*
%TO.P,P2,1,P1*%
%TO.N,Net-(P2-P1)*%
X100800000Y-78650000D03*
%TD*%
D25*
%TO.P,P1,1,P1*%
%TO.N,GND*%
X89500000Y-82300000D03*
%TD*%
D26*
%TO.N,GND*%
X88100000Y-88050000D03*
X90750000Y-83050000D03*
%TO.N,+3.3V*%
X107700000Y-118000000D03*
%TO.N,GND*%
X91700000Y-118500000D03*
%TO.N,+3.3V*%
X81900000Y-107700000D03*
%TO.N,GND*%
X92000000Y-81100000D03*
%TO.N,Net-(P6-P1)*%
X96600000Y-79100000D03*
%TO.N,Net-(P5-P1)*%
X94500000Y-79300000D03*
%TO.N,GND*%
X81400000Y-91400000D03*
%TO.N,Net-(P2-P1)*%
X100000000Y-78600000D03*
%TO.N,Net-(P3-P1)*%
X97800000Y-78200000D03*
%TO.N,GND*%
X118500000Y-108300000D03*
%TO.N,+3.3V*%
X117700000Y-92400000D03*
%TO.N,GND*%
X108400000Y-81400000D03*
%TO.N,+3.3V*%
X92400000Y-82200000D03*
%TO.N,GND*%
X109200000Y-114500000D03*
X113700000Y-109500000D03*
X102300000Y-120700000D03*
X79300000Y-97000000D03*
X110000000Y-87300000D03*
X97450000Y-80050000D03*
X120800000Y-97600000D03*
X118800000Y-92200000D03*
X97100000Y-120600000D03*
X107400000Y-119000000D03*
X90000000Y-112700000D03*
X120700000Y-103100000D03*
X114800000Y-90800000D03*
X79300000Y-102500000D03*
X102500000Y-79100000D03*
X85200000Y-109200000D03*
X80800000Y-107500000D03*
%TO.N,+3.3V*%
X114600000Y-108700000D03*
X107100000Y-81200000D03*
X108900000Y-85200000D03*
X112600000Y-90400000D03*
X109600000Y-112500000D03*
X80100000Y-103200000D03*
X79900000Y-97900000D03*
X103400000Y-119800000D03*
X120100000Y-102000000D03*
X118300000Y-107000000D03*
X92900000Y-118800000D03*
X90400000Y-87400000D03*
X102900000Y-80000000D03*
X81200000Y-92800000D03*
X91300000Y-114700000D03*
X85200000Y-91000000D03*
X95000000Y-80600000D03*
X119900000Y-96700000D03*
X98100000Y-120100000D03*
X87400000Y-109600000D03*
%TD*%
D27*
%TO.N,+3.3V*%
X80475000Y-94600000D02*
X81050000Y-93650000D01*
X81050000Y-93650000D02*
X81200000Y-92800000D01*
D28*
%TO.N,GND*%
X97450000Y-80050000D02*
X101650000Y-80050000D01*
X101650000Y-80050000D02*
X102500000Y-79200000D01*
X102500000Y-79200000D02*
X102500000Y-79100000D01*
X90750000Y-83050000D02*
X90250000Y-83050000D01*
X90250000Y-83050000D02*
X89500000Y-82300000D01*
%TO.N,Net-(P5-P1)*%
X93600000Y-79600000D02*
X94500000Y-79300000D01*
%TO.N,Net-(P6-P1)*%
X96000000Y-78900000D02*
X96600000Y-79100000D01*
%TD*%
%TA.AperFunction,Conductor*%
%TO.N,GND*%
G36*
X102317608Y-77916355D02*
G01*
X102706441Y-77956095D01*
X103601598Y-78084606D01*
X104490778Y-78249468D01*
X105372505Y-78450409D01*
X106245317Y-78687094D01*
X107107766Y-78959131D01*
X107958418Y-79266067D01*
X108795865Y-79607395D01*
X109618714Y-79982548D01*
X110423773Y-80389977D01*
X110423916Y-80390049D01*
X110427184Y-80391861D01*
X110660838Y-80533327D01*
X110665363Y-80536423D01*
X110881171Y-80702363D01*
X110885339Y-80705952D01*
X111081432Y-80894805D01*
X111085169Y-80898827D01*
X111259113Y-81108246D01*
X111262383Y-81112661D01*
X111412039Y-81340072D01*
X111414803Y-81344828D01*
X111538319Y-81587414D01*
X111540539Y-81592446D01*
X111636408Y-81847248D01*
X111638056Y-81852495D01*
X111705084Y-82116339D01*
X111706140Y-82121737D01*
X111743507Y-82391392D01*
X111743959Y-82396874D01*
X111751202Y-82669008D01*
X111751043Y-82674506D01*
X111728074Y-82945764D01*
X111727306Y-82951211D01*
X111674176Y-83219421D01*
X111673567Y-83222101D01*
X111660197Y-83274223D01*
X111660145Y-83274519D01*
X111628738Y-83397053D01*
X111628733Y-83397077D01*
X111572423Y-83756251D01*
X111572421Y-83756267D01*
X111550651Y-84119177D01*
X111550651Y-84119193D01*
X111563620Y-84482536D01*
X111563621Y-84482557D01*
X111611214Y-84843001D01*
X111611216Y-84843014D01*
X111692993Y-85197266D01*
X111692998Y-85197286D01*
X111808223Y-85542134D01*
X111955831Y-85874395D01*
X111955841Y-85874415D01*
X112134491Y-86191072D01*
X112342557Y-86489240D01*
X112342560Y-86489244D01*
X112578127Y-86766182D01*
X112578129Y-86766184D01*
X112578132Y-86766187D01*
X112578133Y-86766188D01*
X112662978Y-86848549D01*
X112669070Y-86854462D01*
X112669171Y-86854576D01*
X112674420Y-86859669D01*
X112674421Y-86859671D01*
X112708579Y-86892815D01*
X112839413Y-87021047D01*
X112968953Y-87150587D01*
X113095524Y-87279726D01*
X113097179Y-87281431D01*
X113097179Y-87281432D01*
X113223803Y-87411876D01*
X113223807Y-87411879D01*
X113223808Y-87411881D01*
X113500739Y-87647442D01*
X113500752Y-87647453D01*
X113798922Y-87855520D01*
X114115591Y-88034177D01*
X114257286Y-88097125D01*
X114447860Y-88181788D01*
X114447859Y-88181788D01*
X114447864Y-88181789D01*
X114447867Y-88181791D01*
X114792716Y-88297016D01*
X115146988Y-88378798D01*
X115440680Y-88417576D01*
X115507440Y-88426391D01*
X115507442Y-88426391D01*
X115507449Y-88426392D01*
X115870808Y-88439362D01*
X115953389Y-88434408D01*
X116233734Y-88417591D01*
X116233739Y-88417590D01*
X116233745Y-88417590D01*
X116592946Y-88361275D01*
X116715370Y-88329895D01*
X116715497Y-88329873D01*
X116722940Y-88327963D01*
X116722945Y-88327964D01*
X116745434Y-88322194D01*
X116751038Y-88322141D01*
X116766088Y-88317125D01*
X116772129Y-88315527D01*
X117038793Y-88262704D01*
X117044223Y-88261938D01*
X117315500Y-88238967D01*
X117320986Y-88238809D01*
X117593136Y-88246053D01*
X117598605Y-88246503D01*
X117868261Y-88283871D01*
X117873648Y-88284925D01*
X118050823Y-88329935D01*
X118137505Y-88351956D01*
X118142747Y-88353602D01*
X118397558Y-88449474D01*
X118402567Y-88451684D01*
X118645179Y-88575214D01*
X118649921Y-88577971D01*
X118877331Y-88727626D01*
X118881743Y-88730894D01*
X119091165Y-88904839D01*
X119095186Y-88908576D01*
X119284037Y-89104668D01*
X119287626Y-89108835D01*
X119453556Y-89324629D01*
X119453562Y-89324636D01*
X119456667Y-89329176D01*
X119598199Y-89562940D01*
X119600022Y-89566226D01*
X120007452Y-90371286D01*
X120382605Y-91194136D01*
X120723932Y-92031582D01*
X121030869Y-92882234D01*
X121233990Y-93526197D01*
X121233463Y-93587381D01*
X121197074Y-93636569D01*
X121138722Y-93654974D01*
X121135588Y-93654898D01*
X121004753Y-93649625D01*
X121004746Y-93649625D01*
X120936964Y-93661343D01*
X120936938Y-93661349D01*
X120903189Y-93670391D01*
X121184312Y-94719558D01*
X121184312Y-94719560D01*
X121387180Y-95476672D01*
X121420951Y-95467625D01*
X121485519Y-95443878D01*
X121579058Y-95384728D01*
X121638345Y-95369607D01*
X121695198Y-95392223D01*
X121727899Y-95443936D01*
X121728495Y-95446404D01*
X121740532Y-95499222D01*
X121905394Y-96388402D01*
X122033905Y-97283559D01*
X122125851Y-98183207D01*
X122172388Y-98943801D01*
X122175340Y-98992038D01*
X122160022Y-99051275D01*
X122112811Y-99090194D01*
X122051740Y-99093931D01*
X122047073Y-99092602D01*
X121978473Y-99071225D01*
X121909964Y-99065000D01*
X121875000Y-99065000D01*
X121875000Y-100934999D01*
X121875001Y-100935000D01*
X121909952Y-100935000D01*
X121909964Y-100934999D01*
X121978473Y-100928774D01*
X121978479Y-100928772D01*
X122045824Y-100907787D01*
X122107004Y-100908526D01*
X122156067Y-100945085D01*
X122174270Y-101003500D01*
X122174092Y-101008350D01*
X122125851Y-101796793D01*
X122033905Y-102696441D01*
X121905394Y-103591598D01*
X121740532Y-104480778D01*
X121691445Y-104696167D01*
X121660080Y-104748702D01*
X121603826Y-104772768D01*
X121544171Y-104759172D01*
X121529962Y-104747872D01*
X121529723Y-104748165D01*
X121525083Y-104744377D01*
X121385519Y-104656121D01*
X121320964Y-104632379D01*
X121320947Y-104632374D01*
X121287180Y-104623326D01*
X121090083Y-105358904D01*
X121090083Y-105358905D01*
X120803189Y-106429606D01*
X120836962Y-106438656D01*
X120904750Y-106450374D01*
X121069745Y-106443725D01*
X121076429Y-106441789D01*
X121137583Y-106443757D01*
X121185900Y-106481295D01*
X121202926Y-106540064D01*
X121198392Y-106566659D01*
X121030869Y-107097766D01*
X120723932Y-107948418D01*
X120382605Y-108785864D01*
X120007452Y-109608714D01*
X119599950Y-110413916D01*
X119598127Y-110417203D01*
X119456676Y-110650831D01*
X119453571Y-110655370D01*
X119287636Y-110871171D01*
X119284047Y-110875339D01*
X119095194Y-111071432D01*
X119091165Y-111075176D01*
X118881758Y-111249109D01*
X118877338Y-111252383D01*
X118649927Y-111402039D01*
X118645171Y-111404803D01*
X118402585Y-111528319D01*
X118397553Y-111530539D01*
X118142751Y-111626408D01*
X118137504Y-111628056D01*
X117873660Y-111695084D01*
X117868262Y-111696140D01*
X117598607Y-111733507D01*
X117593125Y-111733959D01*
X117320991Y-111741202D01*
X117315493Y-111741043D01*
X117044233Y-111718074D01*
X117038786Y-111717306D01*
X116770587Y-111664178D01*
X116767906Y-111663569D01*
X116715810Y-111650205D01*
X116715494Y-111650149D01*
X116592946Y-111618738D01*
X116592922Y-111618733D01*
X116233748Y-111562423D01*
X116233732Y-111562421D01*
X115870814Y-111540651D01*
X115870809Y-111540651D01*
X115870807Y-111540651D01*
X115760301Y-111544595D01*
X115507463Y-111553620D01*
X115507442Y-111553621D01*
X115146998Y-111601214D01*
X115146985Y-111601216D01*
X114792733Y-111682993D01*
X114792713Y-111682998D01*
X114447865Y-111798223D01*
X114115604Y-111945831D01*
X114115584Y-111945841D01*
X113798927Y-112124491D01*
X113500759Y-112332557D01*
X113500755Y-112332560D01*
X113223810Y-112568133D01*
X113133054Y-112661626D01*
X113132951Y-112661718D01*
X113117243Y-112677907D01*
X113097185Y-112698579D01*
X112994393Y-112803457D01*
X112968953Y-112829413D01*
X112839413Y-112958953D01*
X112710351Y-113085448D01*
X112578120Y-113213806D01*
X112578118Y-113213808D01*
X112342550Y-113490747D01*
X112342547Y-113490751D01*
X112134481Y-113788921D01*
X112134477Y-113788926D01*
X111955825Y-114105587D01*
X111955819Y-114105598D01*
X111808211Y-114437860D01*
X111692985Y-114782710D01*
X111692980Y-114782730D01*
X111611203Y-115136982D01*
X111611201Y-115136995D01*
X111563608Y-115497440D01*
X111563607Y-115497461D01*
X111550638Y-115860807D01*
X111550638Y-115860823D01*
X111572408Y-116223734D01*
X111572410Y-116223750D01*
X111628720Y-116582924D01*
X111628725Y-116582948D01*
X111653113Y-116678097D01*
X111660053Y-116705174D01*
X111661147Y-116709440D01*
X111661170Y-116709570D01*
X111673519Y-116757712D01*
X111674128Y-116760393D01*
X111727294Y-117028789D01*
X111728062Y-117034235D01*
X111751031Y-117305493D01*
X111751190Y-117310991D01*
X111743947Y-117583124D01*
X111743495Y-117588606D01*
X111706128Y-117858260D01*
X111705072Y-117863658D01*
X111638043Y-118127505D01*
X111636395Y-118132753D01*
X111540531Y-118387543D01*
X111538311Y-118392575D01*
X111414792Y-118635166D01*
X111412028Y-118639921D01*
X111262373Y-118867331D01*
X111259099Y-118871751D01*
X111085167Y-119081157D01*
X111081423Y-119085186D01*
X110885331Y-119274037D01*
X110881163Y-119277627D01*
X110665363Y-119443562D01*
X110660823Y-119446667D01*
X110427059Y-119588199D01*
X110423773Y-119590022D01*
X109618714Y-119997452D01*
X108795865Y-120372605D01*
X107958418Y-120713933D01*
X107107766Y-121020869D01*
X106676914Y-121156769D01*
X106615731Y-121156242D01*
X106566543Y-121119853D01*
X106548138Y-121061501D01*
X106548214Y-121058367D01*
X106550374Y-121004753D01*
X106550374Y-121004746D01*
X106538656Y-120936962D01*
X106529606Y-120903189D01*
X105458905Y-121190083D01*
X105458903Y-121190083D01*
X104723326Y-121387180D01*
X104732374Y-121420947D01*
X104732379Y-121420964D01*
X104756122Y-121485521D01*
X104783292Y-121528486D01*
X104798414Y-121587774D01*
X104775799Y-121644626D01*
X104724086Y-121677328D01*
X104721617Y-121677924D01*
X104490778Y-121730532D01*
X103601598Y-121895394D01*
X102706441Y-122023905D01*
X101806793Y-122115851D01*
X101011332Y-122164521D01*
X100952095Y-122149203D01*
X100913175Y-122101992D01*
X100909439Y-122040921D01*
X100910769Y-122036252D01*
X100928773Y-121978476D01*
X100928774Y-121978473D01*
X100934999Y-121909964D01*
X100935000Y-121909951D01*
X100935000Y-121875001D01*
X100934999Y-121875000D01*
X99065001Y-121875000D01*
X99065000Y-121875001D01*
X99065000Y-121909964D01*
X99071225Y-121978473D01*
X99071227Y-121978479D01*
X99089230Y-122036253D01*
X99088491Y-122097434D01*
X99051932Y-122146496D01*
X98993517Y-122164699D01*
X98988667Y-122164521D01*
X98193207Y-122115851D01*
X97293559Y-122023905D01*
X96398402Y-121895394D01*
X95509222Y-121730532D01*
X95223111Y-121665328D01*
X95170576Y-121633963D01*
X95146510Y-121577710D01*
X95160106Y-121518054D01*
X95161436Y-121515890D01*
X95243877Y-121385521D01*
X95267625Y-121320951D01*
X95276672Y-121287180D01*
X94519561Y-121084312D01*
X94519558Y-121084312D01*
X93470391Y-120803189D01*
X93461349Y-120836938D01*
X93461343Y-120836964D01*
X93449625Y-120904746D01*
X93449625Y-120904753D01*
X93455868Y-121059655D01*
X93439319Y-121118560D01*
X93391307Y-121156488D01*
X93330172Y-121158952D01*
X93327168Y-121158057D01*
X92892234Y-121020869D01*
X92041582Y-120713933D01*
X91204135Y-120372605D01*
X90381286Y-119997452D01*
X89576083Y-119589950D01*
X89572806Y-119588132D01*
X89339165Y-119446674D01*
X89334629Y-119443571D01*
X89334617Y-119443562D01*
X89118827Y-119277635D01*
X89114660Y-119274047D01*
X88918567Y-119085194D01*
X88914830Y-119081173D01*
X88740884Y-118871750D01*
X88737616Y-118867338D01*
X88712658Y-118829413D01*
X88587957Y-118639923D01*
X88585196Y-118635171D01*
X88585193Y-118635166D01*
X88461679Y-118392584D01*
X88459460Y-118387553D01*
X88435989Y-118325171D01*
X88363588Y-118132743D01*
X88361947Y-118127519D01*
X88294913Y-117863650D01*
X88293859Y-117858262D01*
X88256492Y-117588607D01*
X88256041Y-117583137D01*
X88248797Y-117310986D01*
X88248956Y-117305493D01*
X88254830Y-117236123D01*
X88271926Y-117034221D01*
X88272693Y-117028786D01*
X88296230Y-116909964D01*
X88865000Y-116909964D01*
X88871225Y-116978473D01*
X88871227Y-116978479D01*
X88920351Y-117136123D01*
X88920356Y-117136135D01*
X89005781Y-117277445D01*
X89122554Y-117394218D01*
X89263864Y-117479643D01*
X89263876Y-117479648D01*
X89421520Y-117528772D01*
X89421526Y-117528774D01*
X89490035Y-117534999D01*
X89490048Y-117535000D01*
X89524999Y-117535000D01*
X89525000Y-117534998D01*
X89525000Y-116800001D01*
X89524999Y-116800000D01*
X88865001Y-116800000D01*
X88865000Y-116800001D01*
X88865000Y-116909964D01*
X88296230Y-116909964D01*
X88325814Y-116760617D01*
X88326443Y-116757866D01*
X88335576Y-116722540D01*
X88335804Y-116721361D01*
X88337964Y-116712945D01*
X88337963Y-116712941D01*
X88339878Y-116705478D01*
X88339929Y-116705182D01*
X88371262Y-116582944D01*
X88399944Y-116399999D01*
X88865000Y-116399999D01*
X88865001Y-116400000D01*
X89524999Y-116400000D01*
X89525000Y-116399999D01*
X89525000Y-115665000D01*
X89490035Y-115665000D01*
X89421526Y-115671225D01*
X89421520Y-115671227D01*
X89263876Y-115720351D01*
X89263864Y-115720356D01*
X89122554Y-115805781D01*
X89005781Y-115922554D01*
X88920356Y-116063864D01*
X88920351Y-116063876D01*
X88871227Y-116221520D01*
X88871225Y-116221526D01*
X88865000Y-116290035D01*
X88865000Y-116399999D01*
X88399944Y-116399999D01*
X88427577Y-116223743D01*
X88427711Y-116221520D01*
X88449348Y-115860822D01*
X88449349Y-115860807D01*
X88436379Y-115497451D01*
X88388785Y-115136991D01*
X88307003Y-114782719D01*
X88191779Y-114437872D01*
X88140793Y-114323105D01*
X88063719Y-114149612D01*
X88044165Y-114105597D01*
X88044160Y-114105589D01*
X88044158Y-114105584D01*
X87865508Y-113788927D01*
X87676922Y-113518675D01*
X87657443Y-113490760D01*
X87657436Y-113490752D01*
X87421872Y-113213817D01*
X87421859Y-113213804D01*
X87331135Y-113125735D01*
X87331039Y-113125627D01*
X87291959Y-113087707D01*
X87291897Y-113087591D01*
X87291777Y-113087530D01*
X87291424Y-113087188D01*
X87291415Y-113087179D01*
X87160587Y-112958953D01*
X87031047Y-112829413D01*
X86904511Y-112700310D01*
X86902821Y-112698568D01*
X86776197Y-112568124D01*
X86776191Y-112568119D01*
X86776191Y-112568118D01*
X86499252Y-112332550D01*
X86499248Y-112332547D01*
X86376020Y-112246557D01*
X86201078Y-112124480D01*
X86127955Y-112083226D01*
X86084506Y-112058713D01*
X85884409Y-111945823D01*
X85884405Y-111945821D01*
X85884401Y-111945819D01*
X85552139Y-111798211D01*
X85552140Y-111798211D01*
X85207289Y-111682985D01*
X85207269Y-111682980D01*
X84853017Y-111601203D01*
X84853014Y-111601202D01*
X84853012Y-111601202D01*
X84834767Y-111598793D01*
X84492559Y-111553608D01*
X84492538Y-111553607D01*
X84129192Y-111540638D01*
X84129176Y-111540638D01*
X83766265Y-111562408D01*
X83766249Y-111562410D01*
X83407075Y-111618720D01*
X83407051Y-111618725D01*
X83280549Y-111651149D01*
X83280426Y-111651171D01*
X83232298Y-111663516D01*
X83229618Y-111664125D01*
X82961211Y-111717294D01*
X82955764Y-111718062D01*
X82684506Y-111741031D01*
X82679008Y-111741190D01*
X82406875Y-111733947D01*
X82401393Y-111733495D01*
X82131739Y-111696128D01*
X82126341Y-111695072D01*
X81862494Y-111628043D01*
X81857246Y-111626395D01*
X81707799Y-111570166D01*
X81602449Y-111530528D01*
X81597424Y-111528311D01*
X81550292Y-111504313D01*
X81354826Y-111404788D01*
X81350078Y-111402028D01*
X81122668Y-111252373D01*
X81118253Y-111249103D01*
X80908835Y-111075160D01*
X80904813Y-111071423D01*
X80715962Y-110875331D01*
X80712372Y-110871163D01*
X80685429Y-110836123D01*
X80546432Y-110655356D01*
X80543332Y-110650823D01*
X80518594Y-110609964D01*
X82365000Y-110609964D01*
X82371225Y-110678473D01*
X82371227Y-110678479D01*
X82420351Y-110836123D01*
X82420356Y-110836135D01*
X82505781Y-110977445D01*
X82622554Y-111094218D01*
X82763864Y-111179643D01*
X82763876Y-111179648D01*
X82921520Y-111228772D01*
X82921526Y-111228774D01*
X82990035Y-111234999D01*
X82990048Y-111235000D01*
X83099999Y-111235000D01*
X83100000Y-111234999D01*
X83500000Y-111234999D01*
X83500001Y-111235000D01*
X83609952Y-111235000D01*
X83609964Y-111234999D01*
X83678473Y-111228774D01*
X83678479Y-111228772D01*
X83836123Y-111179648D01*
X83836135Y-111179643D01*
X83977445Y-111094218D01*
X84094218Y-110977445D01*
X84179643Y-110836135D01*
X84179648Y-110836123D01*
X84228772Y-110678479D01*
X84228774Y-110678473D01*
X84234999Y-110609964D01*
X84235000Y-110609951D01*
X84235000Y-110575001D01*
X84234999Y-110575000D01*
X83500001Y-110575000D01*
X83500000Y-110575001D01*
X83500000Y-111234999D01*
X83100000Y-111234999D01*
X83100000Y-110575001D01*
X83099999Y-110575000D01*
X82365001Y-110575000D01*
X82365000Y-110575001D01*
X82365000Y-110609964D01*
X80518594Y-110609964D01*
X80401800Y-110417059D01*
X80399977Y-110413773D01*
X79992548Y-109608714D01*
X79617395Y-108785864D01*
X79276068Y-107948418D01*
X78969131Y-107097766D01*
X78947827Y-107030226D01*
X78866956Y-106773836D01*
X78867483Y-106712658D01*
X78903872Y-106663469D01*
X78962223Y-106645064D01*
X78965358Y-106645140D01*
X79095246Y-106650374D01*
X79095253Y-106650374D01*
X79163037Y-106638656D01*
X79196809Y-106629606D01*
X78903051Y-105533282D01*
X78712818Y-104823326D01*
X78679052Y-104832374D01*
X78679035Y-104832379D01*
X78614479Y-104856121D01*
X78497277Y-104930236D01*
X78437989Y-104945356D01*
X78381137Y-104922741D01*
X78348436Y-104871028D01*
X78347862Y-104868653D01*
X78259468Y-104480778D01*
X78094606Y-103591598D01*
X77966095Y-102696441D01*
X77874149Y-101796793D01*
X77825907Y-101008348D01*
X77841225Y-100949113D01*
X77888436Y-100910194D01*
X77949507Y-100906457D01*
X77954175Y-100907787D01*
X78021520Y-100928772D01*
X78021526Y-100928774D01*
X78090035Y-100934999D01*
X78090048Y-100935000D01*
X78124999Y-100935000D01*
X78125000Y-100934999D01*
X78125000Y-99065001D01*
X78124999Y-99065000D01*
X78090035Y-99065000D01*
X78021526Y-99071225D01*
X77952927Y-99092602D01*
X77891746Y-99091862D01*
X77842685Y-99055302D01*
X77824482Y-98996887D01*
X77824660Y-98992038D01*
X77827612Y-98943801D01*
X77874149Y-98183207D01*
X77966095Y-97283559D01*
X78094606Y-96388402D01*
X78259468Y-95499222D01*
X78304870Y-95299996D01*
X78336234Y-95247462D01*
X78392488Y-95223396D01*
X78452144Y-95236991D01*
X78472796Y-95253416D01*
X78474914Y-95255621D01*
X78474916Y-95255622D01*
X78614480Y-95343878D01*
X78679053Y-95367626D01*
X78712818Y-95376673D01*
X78903051Y-94666718D01*
X79196809Y-93570392D01*
X79163043Y-93561345D01*
X79163032Y-93561342D01*
X79095249Y-93549625D01*
X78930252Y-93556274D01*
X78930249Y-93556275D01*
X78916619Y-93560223D01*
X78855465Y-93558250D01*
X78807151Y-93520708D01*
X78790131Y-93461938D01*
X78794662Y-93435356D01*
X78969131Y-92882234D01*
X79276068Y-92031582D01*
X79617395Y-91194136D01*
X79992548Y-90371286D01*
X80400057Y-89566067D01*
X80401855Y-89562826D01*
X80543333Y-89329153D01*
X80546174Y-89324999D01*
X81965000Y-89324999D01*
X81965001Y-89325000D01*
X82699999Y-89325000D01*
X82700000Y-89324999D01*
X83100000Y-89324999D01*
X83100001Y-89325000D01*
X83834999Y-89325000D01*
X83835000Y-89324999D01*
X83835000Y-89290048D01*
X83834999Y-89290035D01*
X83828774Y-89221526D01*
X83828772Y-89221520D01*
X83779648Y-89063876D01*
X83779643Y-89063864D01*
X83694218Y-88922554D01*
X83577445Y-88805781D01*
X83436135Y-88720356D01*
X83436123Y-88720351D01*
X83278479Y-88671227D01*
X83278473Y-88671225D01*
X83209964Y-88665000D01*
X83100001Y-88665000D01*
X83100000Y-88665001D01*
X83100000Y-89324999D01*
X82700000Y-89324999D01*
X82700000Y-88665001D01*
X82699999Y-88665000D01*
X82590035Y-88665000D01*
X82521526Y-88671225D01*
X82521520Y-88671227D01*
X82363876Y-88720351D01*
X82363864Y-88720356D01*
X82222554Y-88805781D01*
X82105781Y-88922554D01*
X82020356Y-89063864D01*
X82020351Y-89063876D01*
X81971227Y-89221520D01*
X81971225Y-89221526D01*
X81965000Y-89290035D01*
X81965000Y-89324999D01*
X80546174Y-89324999D01*
X80546417Y-89324644D01*
X80712372Y-89108816D01*
X80715945Y-89104668D01*
X80904805Y-88908566D01*
X80908817Y-88904838D01*
X81118258Y-88730877D01*
X81122652Y-88727622D01*
X81350084Y-88577952D01*
X81354814Y-88575203D01*
X81597422Y-88451676D01*
X81602441Y-88449461D01*
X81857261Y-88353586D01*
X81862475Y-88351949D01*
X82126352Y-88284912D01*
X82131732Y-88283859D01*
X82401394Y-88246491D01*
X82406861Y-88246041D01*
X82679013Y-88238797D01*
X82684499Y-88238955D01*
X82955776Y-88261926D01*
X82961211Y-88262692D01*
X83229383Y-88315815D01*
X83232086Y-88316430D01*
X83270483Y-88326309D01*
X83270815Y-88326363D01*
X83277055Y-88327964D01*
X83277058Y-88327963D01*
X83284544Y-88329884D01*
X83284832Y-88329933D01*
X83407056Y-88361262D01*
X83766257Y-88417577D01*
X83766260Y-88417577D01*
X83766267Y-88417578D01*
X83924067Y-88427043D01*
X84129193Y-88439349D01*
X84492549Y-88426379D01*
X84853009Y-88378785D01*
X85207281Y-88297003D01*
X85552128Y-88181779D01*
X85884403Y-88034165D01*
X86201071Y-87855509D01*
X86499240Y-87647443D01*
X86776188Y-87411867D01*
X86864030Y-87321373D01*
X86864150Y-87321269D01*
X86873209Y-87311933D01*
X86902815Y-87281421D01*
X87031047Y-87150587D01*
X87160587Y-87021047D01*
X87289832Y-86894371D01*
X87291431Y-86892820D01*
X87291432Y-86892821D01*
X87421876Y-86766197D01*
X87657453Y-86489248D01*
X87865520Y-86191078D01*
X88044177Y-85874409D01*
X88191791Y-85542133D01*
X88307016Y-85197284D01*
X88388798Y-84843012D01*
X88436392Y-84482551D01*
X88449362Y-84119192D01*
X88430202Y-83799813D01*
X88445591Y-83740595D01*
X88492849Y-83701731D01*
X88553925Y-83698067D01*
X88574861Y-83706135D01*
X88627138Y-83733442D01*
X88822667Y-83789390D01*
X88942000Y-83800000D01*
X89299999Y-83800000D01*
X89300000Y-83799999D01*
X89300000Y-80800001D01*
X89299999Y-80800000D01*
X89283033Y-80800000D01*
X89224842Y-80781093D01*
X89188878Y-80731593D01*
X89188878Y-80670407D01*
X89222684Y-80622520D01*
X89334651Y-80536426D01*
X89339168Y-80533336D01*
X89572939Y-80391800D01*
X89576218Y-80389981D01*
X90381286Y-79982548D01*
X91204135Y-79607395D01*
X91950763Y-79303082D01*
X92011784Y-79298629D01*
X92063771Y-79330894D01*
X92086471Y-79386591D01*
X92086712Y-79386569D01*
X92086784Y-79387359D01*
X92086864Y-79387554D01*
X92086905Y-79388674D01*
X92087127Y-79391092D01*
X92093589Y-79425957D01*
X92101500Y-79468640D01*
X92147990Y-79642143D01*
X92392941Y-80556310D01*
X92419267Y-80630656D01*
X92429053Y-80647606D01*
X92441772Y-80707455D01*
X92416884Y-80763349D01*
X92411824Y-80768570D01*
X92380451Y-80798644D01*
X92380449Y-80798646D01*
X92309646Y-80903919D01*
X92283866Y-80959397D01*
X92283861Y-80959405D01*
X92283861Y-80959406D01*
X92249057Y-81081403D01*
X92249055Y-81081412D01*
X92241076Y-81147130D01*
X92235365Y-81170302D01*
X92222791Y-81203457D01*
X92211699Y-81224590D01*
X92191564Y-81253760D01*
X92175739Y-81271623D01*
X92149190Y-81295144D01*
X92129547Y-81308702D01*
X92098160Y-81325175D01*
X92075847Y-81333638D01*
X92063031Y-81336797D01*
X92041420Y-81342123D01*
X92017731Y-81345000D01*
X91998064Y-81345000D01*
X91981100Y-81345711D01*
X91956138Y-81347806D01*
X91922467Y-81352056D01*
X91922456Y-81352058D01*
X91802206Y-81392516D01*
X91747989Y-81420856D01*
X91747986Y-81420857D01*
X91646130Y-81496489D01*
X91646121Y-81496498D01*
X91169727Y-81982901D01*
X91115503Y-82011244D01*
X91054974Y-82002301D01*
X91011262Y-81959489D01*
X91000000Y-81913629D01*
X91000000Y-81742000D01*
X90989390Y-81622667D01*
X90933442Y-81427138D01*
X90839279Y-81246871D01*
X90710755Y-81089249D01*
X90710750Y-81089244D01*
X90553128Y-80960720D01*
X90372861Y-80866557D01*
X90177332Y-80810609D01*
X90058000Y-80800000D01*
X89700000Y-80800000D01*
X89700000Y-83799999D01*
X89700001Y-83800000D01*
X90057999Y-83800000D01*
X90099459Y-83796313D01*
X90159096Y-83809992D01*
X90199303Y-83856112D01*
X90205274Y-83914497D01*
X90148428Y-84196342D01*
X90148429Y-84196341D01*
X90144970Y-84221584D01*
X90144970Y-84221585D01*
X90142218Y-84259054D01*
X90141899Y-84289554D01*
X90122382Y-84347543D01*
X90072508Y-84382986D01*
X90053266Y-84386972D01*
X90051811Y-84387125D01*
X90051802Y-84387127D01*
X90051800Y-84387127D01*
X89962419Y-84406125D01*
X89866647Y-84426483D01*
X89866643Y-84426484D01*
X89693719Y-84503474D01*
X89693717Y-84503475D01*
X89540573Y-84614740D01*
X89413911Y-84755414D01*
X89413910Y-84755416D01*
X89319268Y-84919343D01*
X89314596Y-84932537D01*
X89292941Y-84993687D01*
X89197053Y-85351549D01*
X89001502Y-86081359D01*
X88987127Y-86158908D01*
X88987127Y-86303637D01*
X88987127Y-86348200D01*
X89017108Y-86489248D01*
X89026483Y-86533352D01*
X89026484Y-86533356D01*
X89103474Y-86706280D01*
X89103475Y-86706282D01*
X89109353Y-86714372D01*
X89128260Y-86772563D01*
X89109353Y-86830754D01*
X89092719Y-86848549D01*
X89052780Y-86881903D01*
X89052776Y-86881906D01*
X89052775Y-86881908D01*
X88661824Y-87293166D01*
X88460892Y-87504535D01*
X88401470Y-87584931D01*
X88377704Y-87627129D01*
X88377703Y-87627132D01*
X88339767Y-87719586D01*
X88339765Y-87719592D01*
X88325997Y-87845703D01*
X88325997Y-87845716D01*
X88328953Y-87906824D01*
X88328954Y-87906861D01*
X88329643Y-87910163D01*
X88330324Y-87914299D01*
X88345350Y-88038065D01*
X88345350Y-88061928D01*
X88341077Y-88097125D01*
X88335365Y-88120301D01*
X88322790Y-88153457D01*
X88311700Y-88174587D01*
X88306739Y-88181776D01*
X88291565Y-88203759D01*
X88275739Y-88221623D01*
X88249190Y-88245144D01*
X88229547Y-88258702D01*
X88198160Y-88275175D01*
X88175847Y-88283638D01*
X88163096Y-88286781D01*
X88141420Y-88292123D01*
X88117731Y-88295000D01*
X88081889Y-88295000D01*
X88065044Y-88293405D01*
X88065041Y-88293430D01*
X88064436Y-88293347D01*
X88063312Y-88293241D01*
X88062450Y-88293076D01*
X87977414Y-88281470D01*
X87972206Y-88281315D01*
X87935768Y-88280236D01*
X87935764Y-88280236D01*
X87935754Y-88280236D01*
X87850221Y-88286781D01*
X87850216Y-88286782D01*
X87730586Y-88329025D01*
X87708009Y-88341257D01*
X87676796Y-88358169D01*
X87676788Y-88358173D01*
X87676786Y-88358174D01*
X87676782Y-88358176D01*
X87609341Y-88409834D01*
X87587724Y-88426392D01*
X87576069Y-88435319D01*
X86681999Y-89375829D01*
X86639826Y-89402097D01*
X84041418Y-90215622D01*
X84016284Y-90220044D01*
X83882700Y-90226049D01*
X83882699Y-90226049D01*
X83837455Y-90230634D01*
X83837445Y-90230636D01*
X83834433Y-90231615D01*
X83832800Y-90231614D01*
X83832287Y-90231723D01*
X83832264Y-90231614D01*
X83773248Y-90231610D01*
X83723751Y-90195642D01*
X83704848Y-90137450D01*
X83719126Y-90086241D01*
X83779645Y-89986130D01*
X83779648Y-89986123D01*
X83828772Y-89828479D01*
X83828774Y-89828473D01*
X83834999Y-89759964D01*
X83835000Y-89759951D01*
X83835000Y-89725001D01*
X83834999Y-89725000D01*
X81965001Y-89725000D01*
X81965000Y-89725001D01*
X81965000Y-89759964D01*
X81971225Y-89828473D01*
X81971227Y-89828479D01*
X82020351Y-89986123D01*
X82020356Y-89986135D01*
X82105781Y-90127445D01*
X82181893Y-90203557D01*
X82209670Y-90258074D01*
X82200099Y-90318506D01*
X82190431Y-90333828D01*
X82137937Y-90402239D01*
X82137932Y-90402248D01*
X82079443Y-90543453D01*
X82079441Y-90543462D01*
X82064500Y-90656952D01*
X82064500Y-91047505D01*
X82045593Y-91105696D01*
X81996093Y-91141660D01*
X81991509Y-91143027D01*
X81954673Y-91153056D01*
X81954667Y-91153058D01*
X81838987Y-91205121D01*
X81838986Y-91205121D01*
X81745047Y-91290389D01*
X81745045Y-91290392D01*
X81706738Y-91338086D01*
X81706731Y-91338094D01*
X81706723Y-91338105D01*
X81643740Y-91448217D01*
X81643735Y-91448226D01*
X81622788Y-91503460D01*
X81611696Y-91524593D01*
X81591561Y-91553762D01*
X81575738Y-91571623D01*
X81549191Y-91595143D01*
X81529547Y-91608702D01*
X81498160Y-91625175D01*
X81475847Y-91633638D01*
X81463031Y-91636797D01*
X81441420Y-91642123D01*
X81417731Y-91645000D01*
X81382272Y-91645000D01*
X81358582Y-91642123D01*
X81311166Y-91630436D01*
X81304937Y-91628457D01*
X81284652Y-91620499D01*
X81276593Y-91617337D01*
X81276593Y-91617338D01*
X81234451Y-91603415D01*
X81108311Y-91589834D01*
X81047198Y-91592883D01*
X80923049Y-91618943D01*
X80923045Y-91618944D01*
X80813012Y-91682099D01*
X80813011Y-91682100D01*
X80765370Y-91720480D01*
X80765360Y-91720488D01*
X80680241Y-91814542D01*
X80680231Y-91814555D01*
X79874992Y-93047685D01*
X79866317Y-93061990D01*
X79731800Y-93301392D01*
X79725576Y-93313386D01*
X79716938Y-93331482D01*
X79713484Y-93339385D01*
X79711540Y-93343835D01*
X79675114Y-93435350D01*
X79610599Y-93597431D01*
X79606022Y-93610146D01*
X79599859Y-93629243D01*
X79598849Y-93632769D01*
X79591143Y-93644200D01*
X79386083Y-94409498D01*
X79386083Y-94409499D01*
X79099189Y-95480200D01*
X79132961Y-95489250D01*
X79140889Y-95490620D01*
X79195010Y-95519160D01*
X79222020Y-95574061D01*
X79221447Y-95605814D01*
X79116967Y-96182792D01*
X79109168Y-96225863D01*
X79108835Y-96227776D01*
X79108642Y-96228890D01*
X79108598Y-96229148D01*
X79108598Y-96229151D01*
X79107064Y-96356008D01*
X79114865Y-96409435D01*
X79114905Y-96409990D01*
X79115903Y-96416549D01*
X79115904Y-96416551D01*
X79115904Y-96416552D01*
X79153647Y-96537676D01*
X79226972Y-96641209D01*
X79226976Y-96641213D01*
X79269709Y-96684993D01*
X79371430Y-96760793D01*
X79371434Y-96760796D01*
X79371436Y-96760797D01*
X79371440Y-96760800D01*
X79429554Y-96791301D01*
X79449190Y-96804856D01*
X79475737Y-96828374D01*
X79491560Y-96846233D01*
X79511702Y-96875414D01*
X79522790Y-96896541D01*
X79535365Y-96929697D01*
X79541077Y-96952872D01*
X79545350Y-96988067D01*
X79545350Y-97011931D01*
X79541077Y-97047126D01*
X79535365Y-97070301D01*
X79522790Y-97103457D01*
X79511700Y-97124588D01*
X79491565Y-97153759D01*
X79475739Y-97171623D01*
X79449190Y-97195144D01*
X79429550Y-97208700D01*
X79398164Y-97225174D01*
X79375846Y-97233638D01*
X79337177Y-97243168D01*
X79320168Y-97245818D01*
X79307930Y-97246646D01*
X79305288Y-97246825D01*
X79278080Y-97249589D01*
X79156587Y-97286116D01*
X79101470Y-97312682D01*
X79101462Y-97312686D01*
X78997209Y-97384965D01*
X78997206Y-97384967D01*
X78920387Y-97485928D01*
X78891412Y-97539817D01*
X78891394Y-97539849D01*
X78891390Y-97539858D01*
X78849540Y-97659620D01*
X78844551Y-97687183D01*
X78842251Y-97702608D01*
X78812356Y-97956638D01*
X78811276Y-97969144D01*
X78810243Y-97987826D01*
X78809938Y-98000415D01*
X78811693Y-98256189D01*
X78812282Y-98271802D01*
X78862703Y-99002932D01*
X78847844Y-99062286D01*
X78800936Y-99101570D01*
X78739896Y-99105779D01*
X78734485Y-99104260D01*
X78628479Y-99071227D01*
X78628473Y-99071225D01*
X78559964Y-99065000D01*
X78525001Y-99065000D01*
X78525000Y-99065001D01*
X78525000Y-100934999D01*
X78525001Y-100935000D01*
X78559952Y-100935000D01*
X78559964Y-100934999D01*
X78628473Y-100928774D01*
X78628479Y-100928772D01*
X78786123Y-100879648D01*
X78786131Y-100879645D01*
X78870300Y-100828763D01*
X78929880Y-100814839D01*
X78986266Y-100838594D01*
X79017919Y-100890956D01*
X79017556Y-100937516D01*
X79016815Y-100940478D01*
X79016540Y-100941421D01*
X79016349Y-100942337D01*
X79005171Y-101068710D01*
X79057492Y-101827356D01*
X79057581Y-101828621D01*
X79057582Y-101828633D01*
X79086387Y-101952178D01*
X79086393Y-101952196D01*
X79109428Y-102008855D01*
X79109429Y-102008857D01*
X79175003Y-102117458D01*
X79175004Y-102117459D01*
X79175005Y-102117460D01*
X79270932Y-102200487D01*
X79270937Y-102200490D01*
X79312454Y-102226309D01*
X79317791Y-102232642D01*
X79343916Y-102246353D01*
X79343916Y-102246354D01*
X79429549Y-102291298D01*
X79449189Y-102304855D01*
X79475737Y-102328374D01*
X79491560Y-102346233D01*
X79511702Y-102375414D01*
X79522790Y-102396541D01*
X79535365Y-102429697D01*
X79541077Y-102452872D01*
X79545350Y-102488067D01*
X79545350Y-102511931D01*
X79541077Y-102547126D01*
X79535365Y-102570301D01*
X79522790Y-102603457D01*
X79511700Y-102624587D01*
X79506690Y-102631847D01*
X79491565Y-102653759D01*
X79475737Y-102671625D01*
X79449192Y-102695141D01*
X79429562Y-102708692D01*
X79420653Y-102713368D01*
X79420647Y-102713372D01*
X79420644Y-102713373D01*
X79420646Y-102713373D01*
X79333474Y-102774993D01*
X79333471Y-102774994D01*
X79333469Y-102774997D01*
X79295579Y-102810108D01*
X79227515Y-102892331D01*
X79177832Y-103009067D01*
X79162975Y-103068417D01*
X79151797Y-103194788D01*
X79172991Y-103502101D01*
X79179101Y-103590694D01*
X79180611Y-103605812D01*
X79212667Y-103852565D01*
X79214603Y-103864621D01*
X79218030Y-103882493D01*
X79220700Y-103894455D01*
X79261749Y-104055318D01*
X79282274Y-104135751D01*
X79286471Y-104150332D01*
X79418555Y-104562406D01*
X79420340Y-104566636D01*
X79425543Y-104627600D01*
X79393918Y-104679979D01*
X79337546Y-104703765D01*
X79325142Y-104704044D01*
X79200753Y-104699031D01*
X79200746Y-104699031D01*
X79132964Y-104710749D01*
X79132938Y-104710755D01*
X79099189Y-104719797D01*
X79380312Y-105768964D01*
X79380312Y-105768966D01*
X79583180Y-106526078D01*
X79616951Y-106517031D01*
X79681519Y-106493284D01*
X79821083Y-106405028D01*
X79821086Y-106405027D01*
X79862195Y-106362227D01*
X79916141Y-106333357D01*
X79976753Y-106341709D01*
X80020881Y-106384092D01*
X80031437Y-106415707D01*
X80048926Y-106529037D01*
X80177411Y-106929885D01*
X80177411Y-106929886D01*
X80177413Y-106929893D01*
X80177416Y-106929900D01*
X80186458Y-106953103D01*
X80201855Y-106986414D01*
X80225473Y-107030229D01*
X80260490Y-107070733D01*
X80308440Y-107126197D01*
X80308445Y-107126202D01*
X80308446Y-107126203D01*
X80355210Y-107165659D01*
X80463776Y-107231294D01*
X80587315Y-107260169D01*
X80611724Y-107261942D01*
X80648336Y-107264603D01*
X80648339Y-107264603D01*
X80648347Y-107264603D01*
X80648348Y-107264603D01*
X80759546Y-107255176D01*
X80763726Y-107255000D01*
X80817728Y-107255000D01*
X80841416Y-107257876D01*
X80868713Y-107264603D01*
X80875840Y-107266359D01*
X80898161Y-107274824D01*
X80929553Y-107291301D01*
X80949191Y-107304856D01*
X80975737Y-107328373D01*
X80991560Y-107346233D01*
X81011702Y-107375414D01*
X81022790Y-107396541D01*
X81035365Y-107429697D01*
X81041077Y-107452872D01*
X81045350Y-107488067D01*
X81045350Y-107511933D01*
X81041076Y-107547130D01*
X81035365Y-107570301D01*
X81022793Y-107603452D01*
X81011702Y-107624585D01*
X80964723Y-107692646D01*
X80955872Y-107706683D01*
X80947228Y-107721038D01*
X80947226Y-107721042D01*
X80902040Y-107839580D01*
X80902036Y-107839594D01*
X80889458Y-107899452D01*
X80889456Y-107899466D01*
X80883109Y-108026166D01*
X80916226Y-108148629D01*
X80916228Y-108148635D01*
X80920785Y-108158808D01*
X80941243Y-108204472D01*
X80941245Y-108204476D01*
X80995005Y-108286840D01*
X81010592Y-108310720D01*
X81054720Y-108359501D01*
X81299247Y-108629812D01*
X81312076Y-108642990D01*
X81461692Y-108785864D01*
X81527501Y-108848708D01*
X81538587Y-108858545D01*
X81561171Y-108877157D01*
X81572944Y-108886158D01*
X81811581Y-109055150D01*
X81823983Y-109063269D01*
X81844098Y-109075410D01*
X81849048Y-109078398D01*
X81862005Y-109085587D01*
X82048670Y-109180408D01*
X82060481Y-109185931D01*
X82072560Y-109191342D01*
X82195555Y-109222453D01*
X82256483Y-109227992D01*
X82256486Y-109227993D01*
X82256487Y-109227992D01*
X82256489Y-109227993D01*
X82368123Y-109220568D01*
X82427439Y-109235572D01*
X82466609Y-109282576D01*
X82472845Y-109306429D01*
X82479441Y-109356539D01*
X82479442Y-109356541D01*
X82533920Y-109488066D01*
X82537934Y-109497755D01*
X82537936Y-109497758D01*
X82537937Y-109497759D01*
X82590431Y-109566171D01*
X82610855Y-109623846D01*
X82593478Y-109682512D01*
X82581893Y-109696441D01*
X82505786Y-109772548D01*
X82505781Y-109772554D01*
X82420356Y-109913864D01*
X82420351Y-109913876D01*
X82371227Y-110071520D01*
X82371225Y-110071526D01*
X82365000Y-110140035D01*
X82365000Y-110174999D01*
X82365001Y-110175000D01*
X84234999Y-110175000D01*
X84235000Y-110174999D01*
X84235000Y-110140048D01*
X84234999Y-110140035D01*
X84228774Y-110071526D01*
X84228772Y-110071520D01*
X84186033Y-109934365D01*
X84186772Y-109873184D01*
X84223331Y-109824122D01*
X84281746Y-109805919D01*
X84305108Y-109809007D01*
X84340988Y-109818197D01*
X84352187Y-109820726D01*
X84363612Y-109823134D01*
X84490397Y-109827733D01*
X84490397Y-109827732D01*
X84490398Y-109827733D01*
X84551132Y-109820359D01*
X84551137Y-109820358D01*
X84551140Y-109820358D01*
X84551142Y-109820357D01*
X84673140Y-109785551D01*
X84673141Y-109785550D01*
X84673142Y-109785550D01*
X84778415Y-109714746D01*
X84823219Y-109673077D01*
X84901459Y-109573210D01*
X84945010Y-109454051D01*
X84956765Y-109394006D01*
X84961362Y-109267222D01*
X84954648Y-109211926D01*
X84954648Y-109188074D01*
X84958922Y-109152865D01*
X84964634Y-109129695D01*
X84977207Y-109096544D01*
X84988297Y-109075414D01*
X85008435Y-109046238D01*
X85024262Y-109028373D01*
X85050807Y-109004856D01*
X85070444Y-108991300D01*
X85101843Y-108974820D01*
X85124144Y-108966363D01*
X85158583Y-108957875D01*
X85182267Y-108955000D01*
X85217728Y-108955000D01*
X85241416Y-108957876D01*
X85269421Y-108964777D01*
X85275840Y-108966359D01*
X85298161Y-108974824D01*
X85329553Y-108991301D01*
X85349191Y-109004856D01*
X85375737Y-109028373D01*
X85391560Y-109046233D01*
X85411702Y-109075414D01*
X85422790Y-109096542D01*
X85435365Y-109129699D01*
X85441077Y-109152871D01*
X85445350Y-109188061D01*
X85445350Y-109211928D01*
X85441076Y-109247129D01*
X85435365Y-109270302D01*
X85422792Y-109303454D01*
X85411701Y-109324585D01*
X85353652Y-109408687D01*
X85353188Y-109409358D01*
X85331871Y-109454051D01*
X85301754Y-109517194D01*
X85298570Y-109523869D01*
X85298568Y-109523873D01*
X85281192Y-109582531D01*
X85280803Y-109585217D01*
X85280768Y-109585755D01*
X85264632Y-109708318D01*
X85287751Y-109833057D01*
X85287755Y-109833072D01*
X85308175Y-109890736D01*
X85308176Y-109890739D01*
X85368707Y-110002226D01*
X85368708Y-110002227D01*
X85368710Y-110002230D01*
X85460737Y-110089561D01*
X85494375Y-110112680D01*
X85500646Y-110119202D01*
X85511161Y-110124217D01*
X85511161Y-110124218D01*
X85625670Y-110178837D01*
X87519247Y-110739752D01*
X87569670Y-110774407D01*
X87571517Y-110776894D01*
X88540104Y-112124491D01*
X88920469Y-112653695D01*
X88926847Y-112662568D01*
X88926846Y-112662567D01*
X88944353Y-112683742D01*
X88944354Y-112683742D01*
X88959762Y-112700000D01*
X88972165Y-112713087D01*
X88988582Y-112728215D01*
X89012492Y-112750248D01*
X89012499Y-112750253D01*
X89062805Y-112779043D01*
X89122607Y-112813268D01*
X89179811Y-112834978D01*
X89304000Y-112860885D01*
X89430122Y-112847147D01*
X89474868Y-112834976D01*
X89489159Y-112831089D01*
X89489159Y-112831088D01*
X89489162Y-112831088D01*
X89489172Y-112831085D01*
X89604875Y-112779043D01*
X89698833Y-112693793D01*
X89730354Y-112654562D01*
X89736394Y-112650607D01*
X89752815Y-112626818D01*
X89752815Y-112626817D01*
X89753499Y-112625825D01*
X89753501Y-112625826D01*
X89808439Y-112546232D01*
X89824256Y-112528377D01*
X89850811Y-112504851D01*
X89870444Y-112491300D01*
X89901843Y-112474820D01*
X89924144Y-112466363D01*
X89958583Y-112457875D01*
X89982267Y-112455000D01*
X90017728Y-112455000D01*
X90041418Y-112457876D01*
X90075843Y-112466360D01*
X90098156Y-112474821D01*
X90129561Y-112491304D01*
X90149191Y-112504854D01*
X90175740Y-112528374D01*
X90191556Y-112546227D01*
X90211702Y-112575414D01*
X90222790Y-112596541D01*
X90235365Y-112629697D01*
X90241077Y-112652872D01*
X90245350Y-112688067D01*
X90245350Y-112711931D01*
X90241077Y-112747126D01*
X90235365Y-112770301D01*
X90222790Y-112803457D01*
X90211700Y-112824587D01*
X90207216Y-112831085D01*
X90191565Y-112853759D01*
X90175738Y-112871624D01*
X90149188Y-112895145D01*
X90129549Y-112908701D01*
X90098168Y-112925172D01*
X90075850Y-112933636D01*
X89983365Y-112956431D01*
X89970687Y-112959205D01*
X89854037Y-113009075D01*
X89802230Y-113041634D01*
X89706702Y-113125108D01*
X89706701Y-113125110D01*
X89641640Y-113234021D01*
X89618865Y-113290808D01*
X89618862Y-113290818D01*
X89590641Y-113414493D01*
X89590642Y-113414493D01*
X89597509Y-113490752D01*
X89602021Y-113540848D01*
X89602023Y-113540861D01*
X89606863Y-113560061D01*
X89613775Y-113584289D01*
X89613775Y-113584290D01*
X89670798Y-113697633D01*
X89715204Y-113759414D01*
X89730726Y-113792660D01*
X90183172Y-115561314D01*
X90179277Y-115622375D01*
X90140234Y-115669484D01*
X90080957Y-115684648D01*
X90057809Y-115680367D01*
X90028473Y-115671225D01*
X89959964Y-115665000D01*
X89925001Y-115665000D01*
X89925000Y-115665001D01*
X89925000Y-117534998D01*
X89925001Y-117535000D01*
X89959952Y-117535000D01*
X89959964Y-117534999D01*
X90028473Y-117528774D01*
X90028479Y-117528772D01*
X90186123Y-117479648D01*
X90186135Y-117479643D01*
X90327445Y-117394218D01*
X90327446Y-117394217D01*
X90403558Y-117318106D01*
X90458075Y-117290329D01*
X90518507Y-117299900D01*
X90533830Y-117309569D01*
X90602239Y-117362062D01*
X90602241Y-117362063D01*
X90602245Y-117362066D01*
X90716929Y-117409569D01*
X90720838Y-117411188D01*
X90767364Y-117450924D01*
X90781648Y-117510419D01*
X90776779Y-117534238D01*
X90771536Y-117549810D01*
X90771536Y-117549811D01*
X90770193Y-117676658D01*
X90770193Y-117676664D01*
X90770193Y-117676670D01*
X90770194Y-117676670D01*
X90779125Y-117737199D01*
X90779126Y-117737205D01*
X90817049Y-117858260D01*
X90817054Y-117858274D01*
X90908435Y-118042407D01*
X90915195Y-118054909D01*
X90925897Y-118073141D01*
X90933514Y-118085135D01*
X90958046Y-118120930D01*
X90958047Y-118120931D01*
X90970118Y-118136811D01*
X90970119Y-118136811D01*
X90989033Y-118159305D01*
X90989032Y-118159304D01*
X91016157Y-118188518D01*
X91016159Y-118188520D01*
X91119676Y-118261836D01*
X91119681Y-118261839D01*
X91119683Y-118261840D01*
X91119686Y-118261842D01*
X91174534Y-118288959D01*
X91174536Y-118288960D01*
X91295660Y-118326704D01*
X91422519Y-118325171D01*
X91482831Y-118314870D01*
X91482832Y-118314870D01*
X91603008Y-118274210D01*
X91603018Y-118274204D01*
X91606583Y-118272678D01*
X91606711Y-118272977D01*
X91624155Y-118266360D01*
X91658579Y-118257876D01*
X91682269Y-118255000D01*
X91717728Y-118255000D01*
X91741416Y-118257876D01*
X91769421Y-118264777D01*
X91775840Y-118266359D01*
X91798161Y-118274824D01*
X91829553Y-118291301D01*
X91849191Y-118304856D01*
X91860089Y-118314511D01*
X91872122Y-118325171D01*
X91875737Y-118328373D01*
X91891560Y-118346233D01*
X91911702Y-118375414D01*
X91922790Y-118396541D01*
X91935365Y-118429697D01*
X91941077Y-118452872D01*
X91945350Y-118488067D01*
X91945350Y-118511934D01*
X91941076Y-118547129D01*
X91935366Y-118570298D01*
X91913454Y-118628077D01*
X91910956Y-118633615D01*
X91903832Y-118647126D01*
X91867735Y-118768745D01*
X91859716Y-118829401D01*
X91859715Y-118829413D01*
X91862967Y-118956226D01*
X91862967Y-118956228D01*
X91862968Y-118956231D01*
X91899319Y-119059062D01*
X91905254Y-119075852D01*
X91934420Y-119129637D01*
X92011594Y-119230323D01*
X92011597Y-119230327D01*
X92080773Y-119296044D01*
X92569227Y-119760076D01*
X92584454Y-119773417D01*
X92838757Y-119978861D01*
X92851812Y-119988568D01*
X92878353Y-120006698D01*
X92892149Y-120015332D01*
X93170869Y-120174559D01*
X93185324Y-120182064D01*
X93214425Y-120195718D01*
X93225328Y-120200310D01*
X93229408Y-120202029D01*
X93355733Y-120249367D01*
X93510641Y-120307417D01*
X93558497Y-120345542D01*
X93574804Y-120404514D01*
X93573119Y-120415430D01*
X93573920Y-120416818D01*
X94283876Y-120607050D01*
X94283878Y-120607051D01*
X95380200Y-120900809D01*
X95408938Y-120884218D01*
X95468787Y-120871497D01*
X95485632Y-120874763D01*
X96207126Y-121080904D01*
X96325793Y-121096441D01*
X96325798Y-121096440D01*
X96325800Y-121096441D01*
X96332800Y-121096315D01*
X96383583Y-121095405D01*
X96501622Y-121075623D01*
X96614663Y-121018026D01*
X96664163Y-120982062D01*
X96664167Y-120982059D01*
X96753875Y-120892348D01*
X96811470Y-120779307D01*
X96827183Y-120730945D01*
X96827182Y-120730944D01*
X96834666Y-120707911D01*
X96833767Y-120702235D01*
X96836347Y-120690560D01*
X96843720Y-120664716D01*
X96846542Y-120654828D01*
X96846542Y-120654826D01*
X96846544Y-120654820D01*
X96858922Y-120552866D01*
X96864633Y-120529699D01*
X96877208Y-120496542D01*
X96888296Y-120475414D01*
X96908436Y-120446235D01*
X96924262Y-120428373D01*
X96950807Y-120404856D01*
X96970444Y-120391300D01*
X97001843Y-120374820D01*
X97024144Y-120366363D01*
X97058583Y-120357875D01*
X97082267Y-120355000D01*
X97117728Y-120355000D01*
X97141418Y-120357876D01*
X97175843Y-120366360D01*
X97198156Y-120374821D01*
X97229561Y-120391304D01*
X97249191Y-120404854D01*
X97275740Y-120428374D01*
X97291556Y-120446227D01*
X97311702Y-120475414D01*
X97322790Y-120496541D01*
X97335365Y-120529697D01*
X97341076Y-120552869D01*
X97345015Y-120585304D01*
X97345351Y-120588066D01*
X97345351Y-120611935D01*
X97341077Y-120647128D01*
X97335366Y-120670297D01*
X97320743Y-120708858D01*
X97318265Y-120715393D01*
X97312848Y-120731775D01*
X97312848Y-120731776D01*
X97307745Y-120748394D01*
X97307744Y-120748396D01*
X97307744Y-120748399D01*
X97304037Y-120779307D01*
X97292636Y-120874362D01*
X97294943Y-120935513D01*
X97319500Y-121059971D01*
X97319503Y-121059980D01*
X97381317Y-121170761D01*
X97381319Y-121170763D01*
X97419124Y-121218872D01*
X97512150Y-121305134D01*
X97627282Y-121358428D01*
X97686144Y-121375128D01*
X97686148Y-121375129D01*
X97701056Y-121376917D01*
X97812104Y-121390236D01*
X97812104Y-121390235D01*
X97812113Y-121390237D01*
X98962269Y-121346833D01*
X99021129Y-121363533D01*
X99058934Y-121411641D01*
X99065000Y-121445763D01*
X99064999Y-121474999D01*
X99065001Y-121475000D01*
X100934999Y-121475000D01*
X100935000Y-121474999D01*
X100935000Y-121440048D01*
X100934999Y-121440038D01*
X100929263Y-121376917D01*
X100942826Y-121317254D01*
X100988868Y-121276958D01*
X101024118Y-121269028D01*
X101569398Y-121248452D01*
X101649055Y-121237467D01*
X101687038Y-121228319D01*
X101762959Y-121201834D01*
X101868235Y-121131034D01*
X101913040Y-121089367D01*
X101991280Y-120989507D01*
X102034837Y-120870350D01*
X102046595Y-120810305D01*
X102046596Y-120810298D01*
X102049414Y-120732636D01*
X102049743Y-120728468D01*
X102051508Y-120713933D01*
X102058923Y-120652865D01*
X102064634Y-120629695D01*
X102073223Y-120607050D01*
X102077207Y-120596543D01*
X102088297Y-120575414D01*
X102108435Y-120546238D01*
X102124262Y-120528373D01*
X102150807Y-120504856D01*
X102170444Y-120491300D01*
X102201843Y-120474820D01*
X102224144Y-120466363D01*
X102258583Y-120457875D01*
X102282267Y-120455000D01*
X102317728Y-120455000D01*
X102341416Y-120457876D01*
X102369421Y-120464777D01*
X102375840Y-120466359D01*
X102398160Y-120474823D01*
X102399277Y-120475410D01*
X102429553Y-120491301D01*
X102449191Y-120504856D01*
X102475737Y-120528373D01*
X102491560Y-120546234D01*
X102511702Y-120575414D01*
X102522792Y-120596544D01*
X102535365Y-120629699D01*
X102541075Y-120652865D01*
X102543203Y-120670391D01*
X102563866Y-120757885D01*
X102563871Y-120757902D01*
X102571515Y-120779308D01*
X102578540Y-120798978D01*
X102617977Y-120879774D01*
X102629055Y-120892348D01*
X102701844Y-120974964D01*
X102701849Y-120974969D01*
X102733065Y-121000809D01*
X102748978Y-121013982D01*
X102748982Y-121013984D01*
X102748983Y-121013985D01*
X102858149Y-121078593D01*
X102858153Y-121078595D01*
X102981957Y-121106311D01*
X103019152Y-121108663D01*
X103040007Y-121109983D01*
X103042174Y-121110253D01*
X103043020Y-121110173D01*
X103043022Y-121110174D01*
X103169331Y-121098275D01*
X104474031Y-120763736D01*
X104474035Y-120763734D01*
X104476988Y-120762977D01*
X104538051Y-120766839D01*
X104585183Y-120805855D01*
X104600497Y-120862860D01*
X104599031Y-120899245D01*
X104599031Y-120899253D01*
X104610748Y-120967032D01*
X104610751Y-120967043D01*
X104619798Y-121000809D01*
X105716124Y-120707051D01*
X106426079Y-120516818D01*
X106417032Y-120483053D01*
X106393284Y-120418480D01*
X106375110Y-120389740D01*
X106359989Y-120330453D01*
X106382605Y-120273601D01*
X106434318Y-120240899D01*
X106441731Y-120239308D01*
X106461177Y-120235913D01*
X106562349Y-120201263D01*
X106577277Y-120195483D01*
X106606299Y-120182907D01*
X106620730Y-120175964D01*
X106899729Y-120027909D01*
X106913570Y-120019848D01*
X106940250Y-120002865D01*
X106953401Y-119993745D01*
X107121021Y-119867431D01*
X107127145Y-119862816D01*
X107148030Y-119844721D01*
X107148032Y-119844719D01*
X107176919Y-119816025D01*
X107213346Y-119774543D01*
X107273658Y-119662928D01*
X107293966Y-119605212D01*
X107316835Y-119480425D01*
X107300024Y-119354675D01*
X107283179Y-119298224D01*
X107282951Y-119297305D01*
X107282530Y-119296044D01*
X107282528Y-119296039D01*
X107227679Y-119181640D01*
X107191784Y-119129637D01*
X107188298Y-119124586D01*
X107177208Y-119103458D01*
X107164630Y-119070294D01*
X107158922Y-119047132D01*
X107154648Y-119011926D01*
X107154648Y-118988074D01*
X107158922Y-118952865D01*
X107164634Y-118929695D01*
X107164959Y-118928840D01*
X107177207Y-118896543D01*
X107188297Y-118875414D01*
X107208435Y-118846238D01*
X107224262Y-118828373D01*
X107250807Y-118804856D01*
X107270444Y-118791300D01*
X107301843Y-118774820D01*
X107324144Y-118766363D01*
X107358583Y-118757875D01*
X107382267Y-118755000D01*
X107417728Y-118755000D01*
X107441416Y-118757876D01*
X107469421Y-118764777D01*
X107475840Y-118766359D01*
X107498160Y-118774824D01*
X107529555Y-118791302D01*
X107549192Y-118804856D01*
X107570277Y-118823535D01*
X107611902Y-118860412D01*
X107611903Y-118860412D01*
X107611906Y-118860415D01*
X107633804Y-118877298D01*
X107667682Y-118899915D01*
X107667689Y-118899919D01*
X107667692Y-118899921D01*
X107686180Y-118910518D01*
X107715617Y-118927391D01*
X107715621Y-118927392D01*
X107715623Y-118927393D01*
X107836983Y-118964298D01*
X107836985Y-118964298D01*
X107836997Y-118964302D01*
X107897600Y-118972727D01*
X107897600Y-118972726D01*
X107897601Y-118972727D01*
X107929310Y-118972126D01*
X108024442Y-118970325D01*
X108144337Y-118928842D01*
X108198318Y-118900037D01*
X108299526Y-118823535D01*
X108325184Y-118796887D01*
X108445490Y-118671936D01*
X108456212Y-118659874D01*
X108476431Y-118635220D01*
X108486162Y-118622342D01*
X108603919Y-118452872D01*
X108667838Y-118360884D01*
X108671214Y-118355586D01*
X108676512Y-118347277D01*
X108692565Y-118319733D01*
X108700132Y-118305473D01*
X108700133Y-118305472D01*
X108840625Y-118013202D01*
X108840626Y-118013200D01*
X108848602Y-117994773D01*
X108899226Y-117863660D01*
X108902531Y-117855101D01*
X108923331Y-117780911D01*
X108929970Y-117744047D01*
X108936360Y-117667246D01*
X108935035Y-117659493D01*
X108933614Y-117651172D01*
X108942451Y-117590628D01*
X108985187Y-117546842D01*
X109031200Y-117535499D01*
X109143044Y-117535499D01*
X109143046Y-117535499D01*
X109256541Y-117520558D01*
X109397755Y-117462066D01*
X109440087Y-117429583D01*
X109466170Y-117409569D01*
X109523846Y-117389144D01*
X109582511Y-117406521D01*
X109596442Y-117418106D01*
X109672554Y-117494218D01*
X109813864Y-117579643D01*
X109813876Y-117579648D01*
X109971520Y-117628772D01*
X109971526Y-117628774D01*
X110040035Y-117634999D01*
X110040048Y-117635000D01*
X110074999Y-117635000D01*
X110075000Y-117634999D01*
X110075000Y-116900000D01*
X110475000Y-116900000D01*
X110475000Y-117634999D01*
X110475001Y-117635000D01*
X110509952Y-117635000D01*
X110509964Y-117634999D01*
X110578473Y-117628774D01*
X110578479Y-117628772D01*
X110736123Y-117579648D01*
X110736135Y-117579643D01*
X110877445Y-117494218D01*
X110994218Y-117377445D01*
X111079643Y-117236135D01*
X111079648Y-117236123D01*
X111128772Y-117078479D01*
X111128774Y-117078473D01*
X111134999Y-117009964D01*
X111135000Y-117009951D01*
X111135000Y-116900001D01*
X111134999Y-116900000D01*
X110475000Y-116900000D01*
X110075000Y-116900000D01*
X110075000Y-116499998D01*
X110475000Y-116499998D01*
X110475001Y-116500000D01*
X111134999Y-116500000D01*
X111135000Y-116499999D01*
X111135000Y-116390048D01*
X111134999Y-116390035D01*
X111128774Y-116321526D01*
X111128772Y-116321520D01*
X111079648Y-116163876D01*
X111079643Y-116163864D01*
X110994218Y-116022554D01*
X110877445Y-115905781D01*
X110736135Y-115820356D01*
X110736123Y-115820351D01*
X110578479Y-115771227D01*
X110578473Y-115771225D01*
X110509964Y-115765000D01*
X110475001Y-115765000D01*
X110475000Y-115765001D01*
X110475000Y-116499998D01*
X110075000Y-116499998D01*
X110075000Y-115765001D01*
X110074999Y-115765000D01*
X110040035Y-115765000D01*
X109971526Y-115771225D01*
X109851959Y-115808484D01*
X109790778Y-115807744D01*
X109741717Y-115771184D01*
X109723514Y-115712769D01*
X109727677Y-115685537D01*
X109793320Y-115466643D01*
X109821419Y-115372948D01*
X109821419Y-115372947D01*
X109826620Y-115351380D01*
X109832540Y-115319201D01*
X109832540Y-115319200D01*
X109838166Y-115275212D01*
X109838167Y-115275207D01*
X109827451Y-115148792D01*
X109812809Y-115089384D01*
X109812808Y-115089380D01*
X109763550Y-114972464D01*
X109763550Y-114972463D01*
X109680581Y-114876498D01*
X109680576Y-114876493D01*
X109680575Y-114876492D01*
X109633810Y-114837037D01*
X109525238Y-114771403D01*
X109525237Y-114771402D01*
X109401707Y-114742533D01*
X109401698Y-114742532D01*
X109340671Y-114738099D01*
X109268688Y-114744203D01*
X109261378Y-114744823D01*
X109257197Y-114745000D01*
X109182274Y-114745000D01*
X109158582Y-114742123D01*
X109124153Y-114733637D01*
X109101837Y-114725174D01*
X109070449Y-114708700D01*
X109050809Y-114695143D01*
X109024261Y-114671624D01*
X109008438Y-114653765D01*
X108988294Y-114624581D01*
X108977207Y-114603456D01*
X108964632Y-114570298D01*
X108958922Y-114547132D01*
X108954648Y-114511926D01*
X108954648Y-114488074D01*
X108958922Y-114452865D01*
X108964634Y-114429695D01*
X108965753Y-114426746D01*
X108977207Y-114396543D01*
X108988297Y-114375414D01*
X109008435Y-114346238D01*
X109024262Y-114328373D01*
X109050807Y-114304856D01*
X109070444Y-114291300D01*
X109101843Y-114274820D01*
X109124144Y-114266363D01*
X109158583Y-114257875D01*
X109182267Y-114255000D01*
X109217728Y-114255000D01*
X109241416Y-114257876D01*
X109269421Y-114264777D01*
X109275840Y-114266359D01*
X109298160Y-114274824D01*
X109329553Y-114291301D01*
X109349190Y-114304855D01*
X109400430Y-114350249D01*
X109409073Y-114357480D01*
X109417843Y-114364613D01*
X109417842Y-114364613D01*
X109528450Y-114426743D01*
X109528452Y-114426743D01*
X109528456Y-114426746D01*
X109585833Y-114447997D01*
X109585841Y-114448000D01*
X109710240Y-114472907D01*
X109836248Y-114458154D01*
X109895157Y-114441620D01*
X109895163Y-114441618D01*
X110010443Y-114388647D01*
X110103712Y-114302645D01*
X110118004Y-114284562D01*
X110133277Y-114263927D01*
X110133278Y-114263924D01*
X110133280Y-114263922D01*
X110159136Y-114210179D01*
X110188282Y-114149603D01*
X110217385Y-114052552D01*
X110234689Y-114019423D01*
X112061716Y-111719400D01*
X112081617Y-111700474D01*
X113234865Y-110875339D01*
X113657794Y-110572739D01*
X113670001Y-110563282D01*
X113687468Y-110548653D01*
X113710354Y-110527954D01*
X113786159Y-110426224D01*
X113794692Y-110409964D01*
X115965000Y-110409964D01*
X115971225Y-110478473D01*
X115971227Y-110478479D01*
X116020351Y-110636123D01*
X116020356Y-110636135D01*
X116105781Y-110777445D01*
X116222554Y-110894218D01*
X116363864Y-110979643D01*
X116363876Y-110979648D01*
X116521520Y-111028772D01*
X116521526Y-111028774D01*
X116590035Y-111034999D01*
X116590048Y-111035000D01*
X116699999Y-111035000D01*
X116700000Y-111034999D01*
X117100000Y-111034999D01*
X117100001Y-111035000D01*
X117209952Y-111035000D01*
X117209964Y-111034999D01*
X117278473Y-111028774D01*
X117278479Y-111028772D01*
X117436123Y-110979648D01*
X117436135Y-110979643D01*
X117577445Y-110894218D01*
X117694218Y-110777445D01*
X117779643Y-110636135D01*
X117779648Y-110636123D01*
X117828772Y-110478479D01*
X117828774Y-110478473D01*
X117834999Y-110409964D01*
X117835000Y-110409951D01*
X117835000Y-110375001D01*
X117834999Y-110375000D01*
X117100001Y-110375000D01*
X117100000Y-110375001D01*
X117100000Y-111034999D01*
X116700000Y-111034999D01*
X116700000Y-111034998D01*
X116700000Y-110375001D01*
X116699999Y-110375000D01*
X115965001Y-110375000D01*
X115965000Y-110375001D01*
X115965000Y-110409964D01*
X113794692Y-110409964D01*
X113813773Y-110373607D01*
X113814487Y-110372360D01*
X113814592Y-110372047D01*
X113814594Y-110372046D01*
X113855252Y-110251869D01*
X113856784Y-110125010D01*
X113847943Y-110064467D01*
X113810201Y-109943348D01*
X113767757Y-109883418D01*
X113736875Y-109839813D01*
X113736873Y-109839812D01*
X113729541Y-109832301D01*
X113694139Y-109796032D01*
X113694138Y-109796031D01*
X113659954Y-109770558D01*
X113592413Y-109720227D01*
X113592403Y-109720221D01*
X113570443Y-109708695D01*
X113550806Y-109695141D01*
X113535319Y-109681421D01*
X113524259Y-109671623D01*
X113508438Y-109653765D01*
X113488294Y-109624581D01*
X113477207Y-109603456D01*
X113470397Y-109585500D01*
X113464631Y-109570296D01*
X113458922Y-109547132D01*
X113454648Y-109511926D01*
X113454648Y-109488074D01*
X113458922Y-109452865D01*
X113464634Y-109429695D01*
X113472337Y-109409386D01*
X113477207Y-109396543D01*
X113488297Y-109375414D01*
X113508435Y-109346238D01*
X113524262Y-109328373D01*
X113550807Y-109304856D01*
X113570444Y-109291300D01*
X113601843Y-109274820D01*
X113624144Y-109266363D01*
X113658583Y-109257875D01*
X113682267Y-109255000D01*
X113717728Y-109255000D01*
X113741416Y-109257876D01*
X113769421Y-109264777D01*
X113775840Y-109266359D01*
X113798161Y-109274824D01*
X113829553Y-109291301D01*
X113849191Y-109304856D01*
X113875737Y-109328373D01*
X113891560Y-109346234D01*
X113911702Y-109375414D01*
X113922791Y-109396541D01*
X113935365Y-109429696D01*
X113941076Y-109452868D01*
X113943850Y-109475710D01*
X113945742Y-109488087D01*
X113949098Y-109506258D01*
X113954407Y-109530748D01*
X113954408Y-109530750D01*
X114003985Y-109647530D01*
X114036411Y-109699416D01*
X114036413Y-109699419D01*
X114119652Y-109795163D01*
X114193977Y-109839815D01*
X114228404Y-109860498D01*
X114285134Y-109883415D01*
X114285137Y-109883416D01*
X114285148Y-109883420D01*
X114408756Y-109911946D01*
X114408757Y-109911945D01*
X114408762Y-109911947D01*
X114535147Y-109900879D01*
X114554845Y-109895966D01*
X114579209Y-109889074D01*
X114692666Y-109832302D01*
X114758236Y-109785386D01*
X114791669Y-109769897D01*
X115967564Y-109473845D01*
X116028608Y-109477973D01*
X116075569Y-109517194D01*
X116090507Y-109576528D01*
X116076456Y-109621065D01*
X116020353Y-109713871D01*
X116020351Y-109713876D01*
X115971227Y-109871520D01*
X115971225Y-109871526D01*
X115965000Y-109940035D01*
X115965000Y-109974999D01*
X115965001Y-109975000D01*
X117834999Y-109975000D01*
X117835000Y-109974999D01*
X117835000Y-109940048D01*
X117834999Y-109940035D01*
X117828774Y-109871526D01*
X117828772Y-109871520D01*
X117779648Y-109713876D01*
X117779643Y-109713864D01*
X117694218Y-109572554D01*
X117618106Y-109496442D01*
X117590329Y-109441925D01*
X117599900Y-109381493D01*
X117609569Y-109366170D01*
X117662062Y-109297760D01*
X117662061Y-109297760D01*
X117662066Y-109297755D01*
X117720558Y-109156541D01*
X117735500Y-109043047D01*
X117735499Y-108746460D01*
X117754406Y-108688271D01*
X117803906Y-108652307D01*
X117830914Y-108647526D01*
X117859941Y-108646475D01*
X117979102Y-108602931D01*
X117988854Y-108597509D01*
X118032575Y-108573201D01*
X118032576Y-108573199D01*
X118032578Y-108573199D01*
X118032585Y-108573195D01*
X118132457Y-108494956D01*
X118203264Y-108389685D01*
X118229050Y-108334198D01*
X118229052Y-108334193D01*
X118240772Y-108293113D01*
X118242084Y-108289158D01*
X118242913Y-108286973D01*
X118277209Y-108196536D01*
X118288293Y-108175417D01*
X118308440Y-108146228D01*
X118324260Y-108128374D01*
X118350808Y-108104855D01*
X118370444Y-108091300D01*
X118401843Y-108074820D01*
X118424144Y-108066363D01*
X118458583Y-108057875D01*
X118482267Y-108055000D01*
X118576288Y-108055000D01*
X118599070Y-108052991D01*
X118647233Y-108048745D01*
X118681340Y-108042684D01*
X118750094Y-108024114D01*
X118860891Y-107962312D01*
X118899046Y-107932337D01*
X118905113Y-107928711D01*
X118909006Y-107924514D01*
X118909007Y-107924514D01*
X118995284Y-107831498D01*
X119569010Y-106976013D01*
X119579095Y-106959655D01*
X119731850Y-106689478D01*
X119738933Y-106675755D01*
X119751888Y-106648125D01*
X119753152Y-106645140D01*
X119757909Y-106633897D01*
X119867900Y-106343641D01*
X119874021Y-106325427D01*
X119894923Y-106254362D01*
X119894923Y-106254363D01*
X119897113Y-106245438D01*
X119899304Y-106236512D01*
X119904570Y-106209908D01*
X119910066Y-106173560D01*
X119910066Y-106173557D01*
X119910311Y-106168549D01*
X119912263Y-106168644D01*
X119926041Y-106117207D01*
X119973588Y-106078698D01*
X120034689Y-106075490D01*
X120080473Y-106102539D01*
X120178913Y-106205026D01*
X120178916Y-106205028D01*
X120318480Y-106293284D01*
X120383053Y-106317032D01*
X120416818Y-106326079D01*
X120607051Y-105616124D01*
X120900809Y-104519798D01*
X120867043Y-104510751D01*
X120867032Y-104510748D01*
X120799249Y-104499031D01*
X120634255Y-104505680D01*
X120544455Y-104531691D01*
X120483301Y-104529719D01*
X120434986Y-104492179D01*
X120417963Y-104433409D01*
X120427474Y-104394151D01*
X120465795Y-104313412D01*
X120614096Y-103809197D01*
X120630522Y-103753348D01*
X120630524Y-103753341D01*
X120630524Y-103753340D01*
X120646764Y-103652813D01*
X120648454Y-103603511D01*
X120639135Y-103502101D01*
X120592712Y-103384032D01*
X120583592Y-103368528D01*
X120583589Y-103368514D01*
X120562533Y-103332725D01*
X120562340Y-103331856D01*
X120561206Y-103330212D01*
X120559277Y-103327189D01*
X120550029Y-103311467D01*
X120547645Y-103309946D01*
X120542613Y-103303275D01*
X120488298Y-103224586D01*
X120477208Y-103203458D01*
X120464630Y-103170294D01*
X120458922Y-103147132D01*
X120454648Y-103111926D01*
X120454648Y-103088074D01*
X120458922Y-103052865D01*
X120464634Y-103029695D01*
X120472458Y-103009067D01*
X120477207Y-102996543D01*
X120488297Y-102975414D01*
X120508435Y-102946238D01*
X120524259Y-102928374D01*
X120550808Y-102904854D01*
X120570445Y-102891301D01*
X120601843Y-102874821D01*
X120624157Y-102866359D01*
X120630826Y-102864716D01*
X120709814Y-102836298D01*
X120746539Y-102818601D01*
X120817979Y-102774532D01*
X120905132Y-102682338D01*
X120939691Y-102631847D01*
X120939692Y-102631846D01*
X120994090Y-102517232D01*
X121148667Y-101991679D01*
X121153834Y-101970894D01*
X121222941Y-101632011D01*
X121225663Y-101615007D01*
X121229606Y-101581234D01*
X121230875Y-101564074D01*
X121241727Y-101218428D01*
X121241492Y-101197025D01*
X121232288Y-101025179D01*
X121248056Y-100966062D01*
X121295561Y-100927502D01*
X121356659Y-100924230D01*
X121360602Y-100925370D01*
X121371521Y-100928773D01*
X121371526Y-100928774D01*
X121440035Y-100934999D01*
X121440048Y-100935000D01*
X121474999Y-100935000D01*
X121475000Y-100934999D01*
X121475000Y-99065001D01*
X121474999Y-99065000D01*
X121440035Y-99065000D01*
X121371526Y-99071225D01*
X121371517Y-99071227D01*
X121242194Y-99111526D01*
X121181014Y-99110787D01*
X121131952Y-99074227D01*
X121113749Y-99015812D01*
X121114273Y-99006772D01*
X121120819Y-98943803D01*
X121120819Y-98943801D01*
X121085771Y-98289375D01*
X121085536Y-98285632D01*
X121085267Y-98281669D01*
X121082961Y-98271803D01*
X121056393Y-98158128D01*
X121033319Y-98101460D01*
X121033318Y-98101457D01*
X121000034Y-98046402D01*
X120967683Y-97992890D01*
X120925755Y-97956641D01*
X120871711Y-97909917D01*
X120871709Y-97909916D01*
X120819740Y-97877637D01*
X120819729Y-97877632D01*
X120730719Y-97840133D01*
X120726930Y-97838345D01*
X120670447Y-97808698D01*
X120650808Y-97795142D01*
X120624261Y-97771624D01*
X120608438Y-97753765D01*
X120588294Y-97724581D01*
X120577207Y-97703456D01*
X120576885Y-97702608D01*
X120564631Y-97670296D01*
X120558922Y-97647132D01*
X120554648Y-97611926D01*
X120554648Y-97588074D01*
X120558922Y-97552865D01*
X120564634Y-97529695D01*
X120577207Y-97496544D01*
X120588297Y-97475414D01*
X120608440Y-97446231D01*
X120624259Y-97428373D01*
X120650809Y-97404851D01*
X120670439Y-97391302D01*
X120741001Y-97354269D01*
X120825874Y-97294761D01*
X120862955Y-97260926D01*
X120929968Y-97181844D01*
X120981437Y-97065885D01*
X120997205Y-97006767D01*
X121004048Y-96940938D01*
X121010322Y-96880586D01*
X121010322Y-96880582D01*
X121005839Y-96796886D01*
X120990421Y-96508999D01*
X120988674Y-96489931D01*
X120954283Y-96225850D01*
X120948675Y-96182792D01*
X120946105Y-96167594D01*
X120939892Y-96137791D01*
X120936177Y-96122837D01*
X120850153Y-95825363D01*
X120844135Y-95807167D01*
X120816858Y-95734146D01*
X120814206Y-95673018D01*
X120847991Y-95622006D01*
X120894472Y-95604072D01*
X120894090Y-95601861D01*
X120967037Y-95589250D01*
X121000809Y-95580200D01*
X120707051Y-94483876D01*
X120516818Y-93773920D01*
X120483052Y-93782968D01*
X120483035Y-93782973D01*
X120418480Y-93806715D01*
X120278916Y-93894971D01*
X120278910Y-93894975D01*
X120264970Y-93909488D01*
X120211023Y-93938355D01*
X120150411Y-93930000D01*
X120106285Y-93887614D01*
X120096556Y-93860614D01*
X120072189Y-93740663D01*
X120072187Y-93740659D01*
X120072187Y-93740656D01*
X119923054Y-93341429D01*
X119916495Y-93325549D01*
X119905544Y-93301392D01*
X119800500Y-93069666D01*
X119794373Y-93057289D01*
X119784635Y-93039194D01*
X119777679Y-93027262D01*
X119628893Y-92790908D01*
X119621140Y-92779475D01*
X119609031Y-92762865D01*
X119606952Y-92760209D01*
X119600521Y-92751988D01*
X119456322Y-92580111D01*
X119439954Y-92565727D01*
X119364231Y-92499179D01*
X119314390Y-92467286D01*
X119314384Y-92467283D01*
X119314375Y-92467278D01*
X119202334Y-92417579D01*
X119076211Y-92403818D01*
X119057502Y-92404724D01*
X119057467Y-92404714D01*
X119018217Y-92406627D01*
X118996139Y-92407696D01*
X118987834Y-92412448D01*
X118981662Y-92413735D01*
X118975717Y-92414603D01*
X118965968Y-92415427D01*
X118957636Y-92413479D01*
X118941313Y-92417502D01*
X118899791Y-92427722D01*
X118899580Y-92427788D01*
X118863907Y-92436581D01*
X118841420Y-92442123D01*
X118817731Y-92445000D01*
X118782274Y-92445000D01*
X118758582Y-92442123D01*
X118724153Y-92433637D01*
X118701837Y-92425174D01*
X118670449Y-92408700D01*
X118650809Y-92395143D01*
X118624261Y-92371624D01*
X118608438Y-92353765D01*
X118588294Y-92324581D01*
X118577207Y-92303456D01*
X118576597Y-92301848D01*
X118564631Y-92270296D01*
X118558922Y-92247132D01*
X118554648Y-92211926D01*
X118554648Y-92188074D01*
X118558922Y-92152864D01*
X118564632Y-92129699D01*
X118582693Y-92082080D01*
X118606489Y-91983738D01*
X118611983Y-91935031D01*
X118610692Y-91833861D01*
X118604827Y-91814555D01*
X118573818Y-91712478D01*
X118573814Y-91712468D01*
X118559069Y-91682099D01*
X118547091Y-91657429D01*
X118538421Y-91645000D01*
X118474511Y-91553379D01*
X118474510Y-91553378D01*
X118474508Y-91553375D01*
X118267364Y-91338105D01*
X118128493Y-91193785D01*
X118114612Y-91180421D01*
X118114611Y-91180420D01*
X118092126Y-91160370D01*
X118071610Y-91144316D01*
X118071609Y-91144315D01*
X118071607Y-91144314D01*
X118039910Y-91122641D01*
X117995123Y-91096068D01*
X117874464Y-91056865D01*
X117874462Y-91056864D01*
X117874460Y-91056864D01*
X117819012Y-91048082D01*
X117764496Y-91020305D01*
X117736718Y-90965788D01*
X117735499Y-90950301D01*
X117735499Y-90656956D01*
X117735499Y-90656954D01*
X117720558Y-90543459D01*
X117662066Y-90402245D01*
X117662063Y-90402241D01*
X117662062Y-90402239D01*
X117609569Y-90333830D01*
X117589144Y-90276154D01*
X117606521Y-90217489D01*
X117618106Y-90203558D01*
X117694217Y-90127446D01*
X117694218Y-90127445D01*
X117779643Y-89986135D01*
X117779648Y-89986123D01*
X117828772Y-89828479D01*
X117828774Y-89828473D01*
X117834999Y-89759964D01*
X117835000Y-89759951D01*
X117835000Y-89725001D01*
X117834999Y-89725000D01*
X115965001Y-89725000D01*
X115965000Y-89725001D01*
X115965000Y-89759964D01*
X115971225Y-89828473D01*
X115971227Y-89828479D01*
X116020351Y-89986123D01*
X116020356Y-89986135D01*
X116105781Y-90127445D01*
X116181893Y-90203557D01*
X116209670Y-90258074D01*
X116200099Y-90318506D01*
X116190431Y-90333828D01*
X116135205Y-90405800D01*
X116084781Y-90440456D01*
X116052666Y-90444452D01*
X115547906Y-90424056D01*
X115547902Y-90424056D01*
X115547901Y-90424056D01*
X115524197Y-90424484D01*
X115506782Y-90425819D01*
X115489363Y-90427154D01*
X115489364Y-90427154D01*
X115442448Y-90433523D01*
X115442443Y-90433525D01*
X115323293Y-90477075D01*
X115323288Y-90477078D01*
X115269811Y-90506816D01*
X115169952Y-90585054D01*
X115099150Y-90690330D01*
X115073266Y-90746035D01*
X115072958Y-90747255D01*
X115045988Y-90841789D01*
X115044670Y-90845764D01*
X115022792Y-90903453D01*
X115011701Y-90924586D01*
X114991561Y-90953764D01*
X114975734Y-90971629D01*
X114949192Y-90995143D01*
X114929551Y-91008700D01*
X114898161Y-91025175D01*
X114875847Y-91033638D01*
X114863031Y-91036797D01*
X114841420Y-91042123D01*
X114817731Y-91045000D01*
X114782274Y-91045000D01*
X114758582Y-91042123D01*
X114724153Y-91033637D01*
X114701837Y-91025174D01*
X114670449Y-91008700D01*
X114650809Y-90995143D01*
X114624261Y-90971624D01*
X114608438Y-90953764D01*
X114588294Y-90924581D01*
X114577207Y-90903456D01*
X114564632Y-90870298D01*
X114558922Y-90847132D01*
X114554648Y-90811926D01*
X114554648Y-90788074D01*
X114559312Y-90749652D01*
X114563061Y-90732176D01*
X114567504Y-90717895D01*
X114567506Y-90717889D01*
X114574272Y-90690331D01*
X114576178Y-90682570D01*
X114576177Y-90682571D01*
X114576180Y-90682559D01*
X114585004Y-90634046D01*
X114580185Y-90507269D01*
X114568325Y-90447245D01*
X114568325Y-90447244D01*
X114563284Y-90433525D01*
X114524567Y-90328166D01*
X114524563Y-90328159D01*
X114448652Y-90231615D01*
X114446148Y-90228430D01*
X114401272Y-90186841D01*
X114401271Y-90186840D01*
X114401266Y-90186836D01*
X114295883Y-90116227D01*
X114295879Y-90116224D01*
X114295875Y-90116222D01*
X114292154Y-90114501D01*
X113099725Y-89562940D01*
X112874041Y-89458549D01*
X112843367Y-89436393D01*
X112738978Y-89324999D01*
X115965000Y-89324999D01*
X115965001Y-89325000D01*
X116699999Y-89325000D01*
X116700000Y-89324998D01*
X116700000Y-88665001D01*
X116699999Y-88665000D01*
X117100000Y-88665000D01*
X117100000Y-89324999D01*
X117100001Y-89325000D01*
X117834999Y-89325000D01*
X117835000Y-89324999D01*
X117835000Y-89290048D01*
X117834999Y-89290035D01*
X117828774Y-89221526D01*
X117828772Y-89221520D01*
X117779648Y-89063876D01*
X117779643Y-89063864D01*
X117694218Y-88922554D01*
X117577445Y-88805781D01*
X117436135Y-88720356D01*
X117436123Y-88720351D01*
X117278479Y-88671227D01*
X117278473Y-88671225D01*
X117209964Y-88665000D01*
X117100000Y-88665000D01*
X116699999Y-88665000D01*
X116590035Y-88665000D01*
X116521526Y-88671225D01*
X116521520Y-88671227D01*
X116363876Y-88720351D01*
X116363864Y-88720356D01*
X116222554Y-88805781D01*
X116105781Y-88922554D01*
X116020356Y-89063864D01*
X116020351Y-89063876D01*
X115971227Y-89221520D01*
X115971225Y-89221526D01*
X115965000Y-89290035D01*
X115965000Y-89324999D01*
X112738978Y-89324999D01*
X111248021Y-87733985D01*
X110956150Y-87422527D01*
X110956148Y-87422526D01*
X110956146Y-87422523D01*
X110873569Y-87354938D01*
X110829639Y-87327766D01*
X110829640Y-87327766D01*
X110829638Y-87327765D01*
X110732279Y-87284058D01*
X110712577Y-87281424D01*
X110606529Y-87267246D01*
X110606526Y-87267246D01*
X110545367Y-87268724D01*
X110545356Y-87268725D01*
X110420576Y-87291593D01*
X110420573Y-87291594D01*
X110308962Y-87351903D01*
X110261618Y-87388080D01*
X110260834Y-87388640D01*
X110260334Y-87389060D01*
X110215225Y-87436405D01*
X110212210Y-87439312D01*
X110149189Y-87495144D01*
X110129549Y-87508700D01*
X110098162Y-87525174D01*
X110075847Y-87533638D01*
X110063031Y-87536797D01*
X110041420Y-87542123D01*
X110017731Y-87545000D01*
X109982274Y-87545000D01*
X109958582Y-87542123D01*
X109924153Y-87533637D01*
X109901837Y-87525174D01*
X109870449Y-87508700D01*
X109850809Y-87495143D01*
X109824261Y-87471624D01*
X109808438Y-87453765D01*
X109788294Y-87424581D01*
X109777207Y-87403456D01*
X109771747Y-87389060D01*
X109764631Y-87370296D01*
X109758922Y-87347132D01*
X109754648Y-87311926D01*
X109754648Y-87288074D01*
X109758922Y-87252865D01*
X109764634Y-87229695D01*
X109777207Y-87196544D01*
X109788297Y-87175414D01*
X109808435Y-87146238D01*
X109824262Y-87128373D01*
X109850807Y-87104856D01*
X109870444Y-87091300D01*
X109901843Y-87074820D01*
X109924144Y-87066363D01*
X109958583Y-87057875D01*
X109979411Y-87055346D01*
X109979408Y-87055295D01*
X109980592Y-87055203D01*
X109982267Y-87055000D01*
X109983219Y-87055000D01*
X109983220Y-87055000D01*
X110106630Y-87035765D01*
X110164030Y-87017426D01*
X110275729Y-86961546D01*
X110366316Y-86872723D01*
X110402765Y-86823579D01*
X110461471Y-86711112D01*
X110482549Y-86586007D01*
X110483151Y-86524825D01*
X110483151Y-86524822D01*
X110464538Y-86399326D01*
X110003842Y-84932537D01*
X109999615Y-84910849D01*
X109987049Y-84755416D01*
X109917240Y-83891954D01*
X109931397Y-83832432D01*
X109977837Y-83792596D01*
X110038824Y-83787665D01*
X110045372Y-83789462D01*
X110171523Y-83828773D01*
X110171526Y-83828774D01*
X110240035Y-83834999D01*
X110240048Y-83835000D01*
X110274999Y-83835000D01*
X110275000Y-83834999D01*
X110675000Y-83834999D01*
X110675001Y-83835000D01*
X110709952Y-83835000D01*
X110709964Y-83834999D01*
X110778473Y-83828774D01*
X110778479Y-83828772D01*
X110936123Y-83779648D01*
X110936135Y-83779643D01*
X111077445Y-83694218D01*
X111194218Y-83577445D01*
X111279643Y-83436135D01*
X111279648Y-83436123D01*
X111328772Y-83278479D01*
X111328774Y-83278473D01*
X111334999Y-83209964D01*
X111335000Y-83209951D01*
X111335000Y-83100001D01*
X111334999Y-83100000D01*
X110675001Y-83100000D01*
X110675000Y-83100001D01*
X110675000Y-83834999D01*
X110275000Y-83834999D01*
X110275000Y-82699999D01*
X110675000Y-82699999D01*
X110675001Y-82700000D01*
X111334999Y-82700000D01*
X111335000Y-82699999D01*
X111335000Y-82590048D01*
X111334999Y-82590035D01*
X111328774Y-82521526D01*
X111328772Y-82521520D01*
X111279648Y-82363876D01*
X111279643Y-82363864D01*
X111194218Y-82222554D01*
X111077445Y-82105781D01*
X110936135Y-82020356D01*
X110936123Y-82020351D01*
X110778479Y-81971227D01*
X110778473Y-81971225D01*
X110709964Y-81965000D01*
X110675001Y-81965000D01*
X110675000Y-81965001D01*
X110675000Y-82699999D01*
X110275000Y-82699999D01*
X110275000Y-81965001D01*
X110274999Y-81965000D01*
X110240035Y-81965000D01*
X110171526Y-81971225D01*
X110171520Y-81971227D01*
X110013876Y-82020351D01*
X110013864Y-82020356D01*
X109872554Y-82105781D01*
X109872548Y-82105786D01*
X109796441Y-82181893D01*
X109741924Y-82209670D01*
X109681492Y-82200098D01*
X109666171Y-82190431D01*
X109597759Y-82137937D01*
X109597758Y-82137936D01*
X109597755Y-82137934D01*
X109597752Y-82137933D01*
X109597751Y-82137932D01*
X109456546Y-82079443D01*
X109456537Y-82079441D01*
X109343047Y-82064500D01*
X108913600Y-82064500D01*
X108855409Y-82045593D01*
X108822541Y-82000354D01*
X108822173Y-82000542D01*
X108820988Y-81998217D01*
X108819445Y-81996093D01*
X108819444Y-81996087D01*
X108818636Y-81993601D01*
X108818636Y-81993600D01*
X108761039Y-81880559D01*
X108740649Y-81852495D01*
X108725076Y-81831060D01*
X108725074Y-81831058D01*
X108635363Y-81741348D01*
X108635362Y-81741347D01*
X108522331Y-81683756D01*
X108522321Y-81683752D01*
X108464136Y-81664847D01*
X108464127Y-81664845D01*
X108428821Y-81659252D01*
X108424719Y-81658423D01*
X108324152Y-81633636D01*
X108301837Y-81625173D01*
X108270450Y-81608700D01*
X108250809Y-81595143D01*
X108224261Y-81571624D01*
X108208438Y-81553765D01*
X108188294Y-81524581D01*
X108177207Y-81503456D01*
X108174568Y-81496498D01*
X108164631Y-81470296D01*
X108158922Y-81447130D01*
X108154648Y-81411926D01*
X108154648Y-81388074D01*
X108158922Y-81352863D01*
X108164632Y-81329697D01*
X108199531Y-81237680D01*
X108225326Y-81115115D01*
X108228489Y-81054775D01*
X108215650Y-80930184D01*
X108164517Y-80814076D01*
X108164514Y-80814071D01*
X108131402Y-80762628D01*
X108046895Y-80668005D01*
X108046889Y-80668000D01*
X108021912Y-80647606D01*
X107764540Y-80437455D01*
X107751254Y-80427319D01*
X107528573Y-80268851D01*
X107517387Y-80261435D01*
X107500375Y-80250952D01*
X107495704Y-80248282D01*
X107488702Y-80244280D01*
X107248512Y-80117394D01*
X107236443Y-80111520D01*
X107218203Y-80103379D01*
X107205753Y-80098310D01*
X107043975Y-80038610D01*
X106949361Y-80003696D01*
X106933507Y-79998435D01*
X105103192Y-79457660D01*
X103313067Y-78928759D01*
X103313068Y-78928759D01*
X103289459Y-78923293D01*
X103254254Y-78917330D01*
X103206095Y-78912106D01*
X103079977Y-78925880D01*
X103079974Y-78925880D01*
X103079972Y-78925881D01*
X103020943Y-78941955D01*
X103020937Y-78941957D01*
X102905268Y-78994018D01*
X102905267Y-78994019D01*
X102811323Y-79079295D01*
X102773014Y-79126994D01*
X102773010Y-79126998D01*
X102744787Y-79176341D01*
X102742556Y-79179885D01*
X102691565Y-79253759D01*
X102675737Y-79271624D01*
X102649189Y-79295143D01*
X102629550Y-79308700D01*
X102560368Y-79345010D01*
X102555609Y-79347195D01*
X102510536Y-79365071D01*
X102510521Y-79365078D01*
X102464229Y-79391186D01*
X102464223Y-79391190D01*
X102464222Y-79391191D01*
X102376689Y-79457659D01*
X102376688Y-79457660D01*
X102376681Y-79457666D01*
X102309441Y-79524906D01*
X102254924Y-79552683D01*
X102194492Y-79543111D01*
X102151228Y-79499846D01*
X102141657Y-79439414D01*
X102144764Y-79425957D01*
X102155393Y-79391191D01*
X102171070Y-79339915D01*
X102179998Y-79261555D01*
X102219295Y-78136200D01*
X102215856Y-78057407D01*
X102211173Y-78037122D01*
X102216504Y-77976170D01*
X102256645Y-77929992D01*
X102316262Y-77916228D01*
X102317608Y-77916355D01*
G37*
%TD.AperFunction*%
%TD*%
%TA.AperFunction,Conductor*%
%TO.N,+3.3V*%
G36*
X103209791Y-79321075D02*
G01*
X103492231Y-79404523D01*
X106812170Y-80385414D01*
X106815277Y-80386445D01*
X107059064Y-80476408D01*
X107065037Y-80479074D01*
X107293351Y-80599687D01*
X107298928Y-80603124D01*
X107510650Y-80753793D01*
X107513257Y-80755782D01*
X107790429Y-80982099D01*
X107823545Y-81033548D01*
X107820382Y-81093888D01*
X107763764Y-81243179D01*
X107763762Y-81243183D01*
X107744722Y-81399998D01*
X107744722Y-81400001D01*
X107763762Y-81556816D01*
X107763763Y-81556818D01*
X107799816Y-81651882D01*
X107819780Y-81704523D01*
X107909515Y-81834528D01*
X107909516Y-81834529D01*
X107909517Y-81834530D01*
X108027760Y-81939283D01*
X108167635Y-82012696D01*
X108321015Y-82050500D01*
X108321018Y-82050500D01*
X108338828Y-82050500D01*
X108397019Y-82069407D01*
X108432983Y-82118907D01*
X108432983Y-82180093D01*
X108408832Y-82219504D01*
X108405782Y-82222553D01*
X108405781Y-82222554D01*
X108320356Y-82363864D01*
X108320351Y-82363876D01*
X108271227Y-82521520D01*
X108271225Y-82521526D01*
X108265000Y-82590035D01*
X108265000Y-82699999D01*
X108265001Y-82700000D01*
X109226000Y-82700000D01*
X109284191Y-82718907D01*
X109320155Y-82768407D01*
X109325000Y-82799000D01*
X109325000Y-83834999D01*
X109325001Y-83835000D01*
X109359952Y-83835000D01*
X109359961Y-83834999D01*
X109405169Y-83830891D01*
X109464832Y-83844454D01*
X109505128Y-83890496D01*
X109512807Y-83921507D01*
X109581899Y-84776119D01*
X109581899Y-84776120D01*
X109581901Y-84776135D01*
X109600000Y-85000000D01*
X109859706Y-85826866D01*
X110077671Y-86520835D01*
X110077069Y-86582017D01*
X110040620Y-86631161D01*
X109983220Y-86649500D01*
X109921012Y-86649500D01*
X109767635Y-86687303D01*
X109627758Y-86760718D01*
X109509515Y-86865471D01*
X109419780Y-86995476D01*
X109363763Y-87143182D01*
X109363762Y-87143183D01*
X109344722Y-87299998D01*
X109344722Y-87300001D01*
X109363762Y-87456816D01*
X109363763Y-87456818D01*
X109385429Y-87513946D01*
X109419780Y-87604523D01*
X109509515Y-87734528D01*
X109509516Y-87734529D01*
X109509517Y-87734530D01*
X109627760Y-87839283D01*
X109767635Y-87912696D01*
X109921015Y-87950500D01*
X109921018Y-87950500D01*
X110078982Y-87950500D01*
X110078985Y-87950500D01*
X110232365Y-87912696D01*
X110372240Y-87839283D01*
X110490483Y-87734530D01*
X110506547Y-87711256D01*
X110555163Y-87674107D01*
X110616331Y-87672628D01*
X110660261Y-87699800D01*
X110672837Y-87713220D01*
X112614652Y-89785348D01*
X114125640Y-90484258D01*
X114170516Y-90525847D01*
X114182376Y-90585871D01*
X114176645Y-90609213D01*
X114163762Y-90643183D01*
X114144722Y-90799998D01*
X114144722Y-90800001D01*
X114163762Y-90956816D01*
X114163763Y-90956818D01*
X114208584Y-91075001D01*
X114219780Y-91104523D01*
X114309515Y-91234528D01*
X114309516Y-91234529D01*
X114309517Y-91234530D01*
X114427760Y-91339283D01*
X114567635Y-91412696D01*
X114721015Y-91450500D01*
X114721018Y-91450500D01*
X114878982Y-91450500D01*
X114878985Y-91450500D01*
X115032365Y-91412696D01*
X115172240Y-91339283D01*
X115290483Y-91234530D01*
X115376464Y-91109964D01*
X115965000Y-91109964D01*
X115971225Y-91178473D01*
X115971227Y-91178479D01*
X116020351Y-91336123D01*
X116020356Y-91336135D01*
X116105781Y-91477445D01*
X116222554Y-91594218D01*
X116363864Y-91679643D01*
X116363876Y-91679648D01*
X116521520Y-91728772D01*
X116521526Y-91728774D01*
X116590035Y-91734999D01*
X116590048Y-91735000D01*
X116699999Y-91735000D01*
X116700000Y-91734998D01*
X116700000Y-91075001D01*
X116699999Y-91075000D01*
X115965001Y-91075000D01*
X115965000Y-91075001D01*
X115965000Y-91109964D01*
X115376464Y-91109964D01*
X115380220Y-91104523D01*
X115436237Y-90956818D01*
X115441109Y-90916688D01*
X115466890Y-90861204D01*
X115520363Y-90831468D01*
X115543373Y-90829704D01*
X116479954Y-90867549D01*
X116783275Y-90903142D01*
X117077641Y-90984502D01*
X117100000Y-90994554D01*
X117100000Y-91734999D01*
X117100001Y-91735000D01*
X117209952Y-91735000D01*
X117209964Y-91734999D01*
X117278473Y-91728774D01*
X117278479Y-91728772D01*
X117436123Y-91679648D01*
X117436135Y-91679643D01*
X117577445Y-91594218D01*
X117577450Y-91594214D01*
X117696084Y-91475580D01*
X117750601Y-91447802D01*
X117811033Y-91457373D01*
X117831976Y-91471693D01*
X117838947Y-91477909D01*
X117841665Y-91480526D01*
X118182303Y-91834528D01*
X118182314Y-91834539D01*
X118209038Y-91889580D01*
X118203544Y-91938287D01*
X118182100Y-91994832D01*
X118163763Y-92043182D01*
X118163762Y-92043183D01*
X118144722Y-92199998D01*
X118144722Y-92200001D01*
X118163762Y-92356816D01*
X118163763Y-92356818D01*
X118179799Y-92399101D01*
X118219780Y-92504523D01*
X118309515Y-92634528D01*
X118309516Y-92634529D01*
X118309517Y-92634530D01*
X118427760Y-92739283D01*
X118567635Y-92812696D01*
X118721015Y-92850500D01*
X118721018Y-92850500D01*
X118878982Y-92850500D01*
X118878985Y-92850500D01*
X119032365Y-92812696D01*
X119032373Y-92812691D01*
X119034715Y-92811804D01*
X119036295Y-92811727D01*
X119038180Y-92811263D01*
X119038270Y-92811631D01*
X119095829Y-92808843D01*
X119145670Y-92840736D01*
X119189528Y-92893013D01*
X119285431Y-93007326D01*
X119289405Y-93012777D01*
X119294850Y-93021426D01*
X119430833Y-93237443D01*
X119434026Y-93243376D01*
X119544331Y-93486705D01*
X119545618Y-93489821D01*
X119591043Y-93611423D01*
X119671925Y-93827946D01*
X119692325Y-93882555D01*
X119694976Y-93943683D01*
X119661190Y-93994695D01*
X119625206Y-94012826D01*
X119599190Y-94019796D01*
X119599189Y-94019797D01*
X119880312Y-95068964D01*
X119880312Y-95068966D01*
X120083180Y-95826078D01*
X120116951Y-95817031D01*
X120181521Y-95793283D01*
X120260164Y-95743552D01*
X120319451Y-95728430D01*
X120376304Y-95751045D01*
X120405818Y-95792581D01*
X120461569Y-95941827D01*
X120462748Y-95945392D01*
X120470915Y-95973632D01*
X120544498Y-96228086D01*
X120547566Y-96242803D01*
X120585571Y-96534629D01*
X120585912Y-96538351D01*
X120594073Y-96690716D01*
X120605402Y-96902265D01*
X120589634Y-96961383D01*
X120552553Y-96995218D01*
X120427759Y-97060716D01*
X120309515Y-97165471D01*
X120219780Y-97295476D01*
X120163763Y-97443182D01*
X120163762Y-97443183D01*
X120144722Y-97599998D01*
X120144722Y-97600001D01*
X120163762Y-97756816D01*
X120163763Y-97756818D01*
X120219780Y-97904522D01*
X120219780Y-97904523D01*
X120309515Y-98034528D01*
X120309516Y-98034529D01*
X120309517Y-98034530D01*
X120427760Y-98139283D01*
X120567635Y-98212696D01*
X120605786Y-98222099D01*
X120657759Y-98254380D01*
X120680833Y-98311048D01*
X120680951Y-98312927D01*
X120715899Y-98965484D01*
X120700131Y-99024602D01*
X120652625Y-99063162D01*
X120608084Y-99069372D01*
X120559968Y-99065000D01*
X120525001Y-99065000D01*
X120525000Y-99065001D01*
X120525000Y-100934998D01*
X120525001Y-100935000D01*
X120559952Y-100935000D01*
X120559964Y-100934999D01*
X120628473Y-100928774D01*
X120628476Y-100928773D01*
X120696377Y-100907614D01*
X120757558Y-100908353D01*
X120806620Y-100944911D01*
X120824689Y-100996836D01*
X120830567Y-101106583D01*
X120836111Y-101210101D01*
X120836157Y-101214290D01*
X120825845Y-101542750D01*
X120823898Y-101559424D01*
X120758233Y-101881429D01*
X120757219Y-101885508D01*
X120605068Y-102402811D01*
X120570509Y-102453302D01*
X120533784Y-102470999D01*
X120467636Y-102487303D01*
X120327758Y-102560718D01*
X120209515Y-102665471D01*
X120119780Y-102795476D01*
X120063763Y-102943182D01*
X120063762Y-102943183D01*
X120044722Y-103099998D01*
X120044722Y-103100001D01*
X120063762Y-103256816D01*
X120063763Y-103256818D01*
X120119780Y-103404523D01*
X120209517Y-103534530D01*
X120212172Y-103536882D01*
X120213301Y-103538801D01*
X120213486Y-103539010D01*
X120213445Y-103539046D01*
X120243192Y-103589619D01*
X120241502Y-103638921D01*
X120076773Y-104198992D01*
X120042214Y-104249483D01*
X119998575Y-104265030D01*
X119983180Y-104273919D01*
X119786083Y-105009498D01*
X119786083Y-105009499D01*
X119497384Y-106086938D01*
X119506787Y-106131175D01*
X119503306Y-106148762D01*
X119487180Y-106203589D01*
X119485979Y-106207163D01*
X119381459Y-106482981D01*
X119375062Y-106496625D01*
X119229889Y-106753392D01*
X119227910Y-106756602D01*
X118658507Y-107605641D01*
X118610392Y-107643439D01*
X118576285Y-107649500D01*
X118421012Y-107649500D01*
X118267635Y-107687303D01*
X118127758Y-107760718D01*
X118009515Y-107865471D01*
X117919780Y-107995476D01*
X117863763Y-108143182D01*
X117861319Y-108163306D01*
X117835533Y-108218793D01*
X117782057Y-108248525D01*
X117721318Y-108241148D01*
X117693037Y-108221373D01*
X117577445Y-108105781D01*
X117436135Y-108020356D01*
X117436123Y-108020351D01*
X117278479Y-107971227D01*
X117278473Y-107971225D01*
X117209964Y-107965000D01*
X117100001Y-107965000D01*
X117100000Y-107965001D01*
X117099999Y-108770581D01*
X116089469Y-109025000D01*
X115964999Y-109025000D01*
X115942445Y-109047554D01*
X115896613Y-109073554D01*
X114967373Y-109307507D01*
X114967371Y-109307507D01*
X114600000Y-109400000D01*
X114456713Y-109502519D01*
X114437015Y-109507432D01*
X114380283Y-109484515D01*
X114347857Y-109432629D01*
X114345639Y-109420617D01*
X114336237Y-109343182D01*
X114280220Y-109195477D01*
X114190483Y-109065470D01*
X114072240Y-108960717D01*
X113980745Y-108912696D01*
X113932364Y-108887303D01*
X113778987Y-108849500D01*
X113778985Y-108849500D01*
X113621015Y-108849500D01*
X113621012Y-108849500D01*
X113467635Y-108887303D01*
X113327758Y-108960718D01*
X113209515Y-109065471D01*
X113119780Y-109195476D01*
X113063763Y-109343182D01*
X113063762Y-109343183D01*
X113044722Y-109499998D01*
X113044722Y-109500001D01*
X113063762Y-109656816D01*
X113063763Y-109656818D01*
X113114286Y-109790036D01*
X113119780Y-109804523D01*
X113209515Y-109934528D01*
X113209516Y-109934529D01*
X113209517Y-109934530D01*
X113327760Y-110039283D01*
X113403962Y-110079277D01*
X113446699Y-110123060D01*
X113455540Y-110183603D01*
X113427106Y-110237780D01*
X113415560Y-110247450D01*
X112151893Y-111151589D01*
X111788174Y-111411826D01*
X111613844Y-111631287D01*
X111613843Y-111631289D01*
X111282217Y-112048768D01*
X109856838Y-113843162D01*
X109799871Y-114033123D01*
X109785579Y-114051206D01*
X109726670Y-114067740D01*
X109669293Y-114046489D01*
X109665042Y-114042932D01*
X109572240Y-113960717D01*
X109502302Y-113924010D01*
X109432364Y-113887303D01*
X109278987Y-113849500D01*
X109278985Y-113849500D01*
X109121015Y-113849500D01*
X109121012Y-113849500D01*
X108967635Y-113887303D01*
X108827758Y-113960718D01*
X108709515Y-114065471D01*
X108619780Y-114195476D01*
X108563763Y-114343182D01*
X108563762Y-114343183D01*
X108544722Y-114499998D01*
X108544722Y-114500001D01*
X108563762Y-114656816D01*
X108563763Y-114656818D01*
X108590259Y-114726682D01*
X108619780Y-114804523D01*
X108709515Y-114934528D01*
X108709516Y-114934529D01*
X108709517Y-114934530D01*
X108827760Y-115039283D01*
X108967635Y-115112696D01*
X109121015Y-115150500D01*
X109121018Y-115150500D01*
X109278982Y-115150500D01*
X109278985Y-115150500D01*
X109311301Y-115142535D01*
X109372326Y-115146967D01*
X109419091Y-115186422D01*
X109433733Y-115245830D01*
X109429821Y-115267095D01*
X109326654Y-115611118D01*
X109322169Y-115626074D01*
X109298592Y-115699518D01*
X109297141Y-115703503D01*
X109259451Y-115751702D01*
X109200629Y-115768543D01*
X109195167Y-115768199D01*
X109159966Y-115765000D01*
X109125001Y-115765000D01*
X109125000Y-115765001D01*
X109124999Y-116153214D01*
X108836645Y-116900000D01*
X108065001Y-116900000D01*
X108065000Y-116900001D01*
X108065000Y-117009964D01*
X108071225Y-117078473D01*
X108071227Y-117078479D01*
X108120351Y-117236123D01*
X108120356Y-117236135D01*
X108205781Y-117377445D01*
X108322554Y-117494218D01*
X108463864Y-117579643D01*
X108469334Y-117582105D01*
X108468510Y-117583934D01*
X108511277Y-117614219D01*
X108530890Y-117672175D01*
X108524251Y-117709039D01*
X108473240Y-117841150D01*
X108471675Y-117844766D01*
X108338161Y-118122519D01*
X108330234Y-118136120D01*
X108157766Y-118384325D01*
X108147783Y-118396498D01*
X108007416Y-118542285D01*
X107953435Y-118571090D01*
X107892832Y-118562665D01*
X107870452Y-118547724D01*
X107772240Y-118460717D01*
X107702302Y-118424010D01*
X107632364Y-118387303D01*
X107478987Y-118349500D01*
X107478985Y-118349500D01*
X107321015Y-118349500D01*
X107321012Y-118349500D01*
X107167635Y-118387303D01*
X107027758Y-118460718D01*
X106909515Y-118565471D01*
X106819780Y-118695476D01*
X106763763Y-118843182D01*
X106763762Y-118843183D01*
X106744722Y-118999998D01*
X106744722Y-119000001D01*
X106763762Y-119156816D01*
X106763763Y-119156818D01*
X106819780Y-119304523D01*
X106888257Y-119403730D01*
X106893959Y-119411990D01*
X106911454Y-119470621D01*
X106891146Y-119528337D01*
X106872064Y-119547292D01*
X106715750Y-119665087D01*
X106702576Y-119673473D01*
X106437724Y-119814021D01*
X106423393Y-119820231D01*
X106329793Y-119852287D01*
X106268616Y-119853253D01*
X106218554Y-119818076D01*
X106198729Y-119760191D01*
X106198797Y-119754640D01*
X106200968Y-119700753D01*
X106200968Y-119700746D01*
X106189250Y-119632962D01*
X106180200Y-119599189D01*
X105109499Y-119886083D01*
X105109497Y-119886083D01*
X104373920Y-120083180D01*
X104382968Y-120116947D01*
X104382973Y-120116964D01*
X104406715Y-120181520D01*
X104432399Y-120222135D01*
X104447519Y-120281423D01*
X104424904Y-120338275D01*
X104373315Y-120370943D01*
X103772497Y-120525000D01*
X103068615Y-120705482D01*
X103007552Y-120701620D01*
X102960420Y-120662604D01*
X102945748Y-120621519D01*
X102936237Y-120543182D01*
X102880220Y-120395477D01*
X102790483Y-120265470D01*
X102672240Y-120160717D01*
X102566213Y-120105069D01*
X102532364Y-120087303D01*
X102378987Y-120049500D01*
X102378985Y-120049500D01*
X102221015Y-120049500D01*
X102221012Y-120049500D01*
X102067635Y-120087303D01*
X101927758Y-120160718D01*
X101809515Y-120265471D01*
X101719780Y-120395476D01*
X101663763Y-120543182D01*
X101663762Y-120543183D01*
X101644722Y-120699998D01*
X101648653Y-120732380D01*
X101636895Y-120792425D01*
X101592090Y-120834092D01*
X101554107Y-120843240D01*
X100993514Y-120864394D01*
X100934652Y-120847694D01*
X100896847Y-120799585D01*
X100894540Y-120738443D01*
X100895264Y-120736011D01*
X100928772Y-120628479D01*
X100928774Y-120628473D01*
X100934999Y-120559964D01*
X100935000Y-120559951D01*
X100935000Y-120525001D01*
X100934999Y-120525000D01*
X99065001Y-120525000D01*
X99065000Y-120525001D01*
X99065000Y-120559964D01*
X99071225Y-120628473D01*
X99071227Y-120628479D01*
X99120351Y-120786123D01*
X99120354Y-120786130D01*
X99121451Y-120787944D01*
X99121753Y-120789238D01*
X99122811Y-120791588D01*
X99122351Y-120791794D01*
X99135377Y-120847523D01*
X99111624Y-120903910D01*
X99059264Y-120935566D01*
X99040464Y-120938094D01*
X97796822Y-120985025D01*
X97737960Y-120968325D01*
X97700155Y-120920216D01*
X97697848Y-120859075D01*
X97700517Y-120851003D01*
X97736237Y-120756818D01*
X97755278Y-120600000D01*
X97754378Y-120592591D01*
X97736237Y-120443183D01*
X97736237Y-120443182D01*
X97680220Y-120295477D01*
X97609665Y-120193260D01*
X97590484Y-120165471D01*
X97538817Y-120119698D01*
X97472240Y-120060717D01*
X97388852Y-120016951D01*
X97332364Y-119987303D01*
X97178987Y-119949500D01*
X97178985Y-119949500D01*
X97021015Y-119949500D01*
X97021012Y-119949500D01*
X96867635Y-119987303D01*
X96727758Y-120060718D01*
X96609515Y-120165471D01*
X96519780Y-120295476D01*
X96463763Y-120443182D01*
X96463762Y-120443183D01*
X96444000Y-120605945D01*
X96441528Y-120605644D01*
X96425815Y-120654006D01*
X96376315Y-120689970D01*
X96318525Y-120691006D01*
X95480028Y-120451436D01*
X95429270Y-120417270D01*
X95408289Y-120359794D01*
X95425098Y-120300963D01*
X95438646Y-120284845D01*
X95505026Y-120221086D01*
X95505028Y-120221083D01*
X95593284Y-120081519D01*
X95617031Y-120016951D01*
X95626078Y-119983180D01*
X94868967Y-119780312D01*
X94868964Y-119780312D01*
X93819797Y-119499189D01*
X93810755Y-119532938D01*
X93810749Y-119532964D01*
X93799031Y-119600746D01*
X93799031Y-119600753D01*
X93805680Y-119765747D01*
X93805681Y-119765749D01*
X93821353Y-119819856D01*
X93819382Y-119881010D01*
X93781842Y-119929325D01*
X93723072Y-119946348D01*
X93699068Y-119942590D01*
X93673992Y-119935425D01*
X93670258Y-119934195D01*
X93379311Y-119825166D01*
X93364942Y-119818424D01*
X93100359Y-119667273D01*
X93087254Y-119658321D01*
X92845583Y-119463083D01*
X92842595Y-119460465D01*
X92290884Y-118936339D01*
X92261718Y-118882552D01*
X92269737Y-118821895D01*
X92277590Y-118808332D01*
X92280220Y-118804523D01*
X92336237Y-118656818D01*
X92355278Y-118500000D01*
X92336237Y-118343182D01*
X92280220Y-118195477D01*
X92190483Y-118065470D01*
X92072240Y-117960717D01*
X91985436Y-117915158D01*
X91932364Y-117887303D01*
X91778987Y-117849500D01*
X91778985Y-117849500D01*
X91621015Y-117849500D01*
X91621012Y-117849500D01*
X91467634Y-117887304D01*
X91467633Y-117887304D01*
X91414562Y-117915158D01*
X91354250Y-117925459D01*
X91299402Y-117898342D01*
X91286894Y-117883467D01*
X91282219Y-117876646D01*
X91272012Y-117861753D01*
X91268505Y-117855778D01*
X91180282Y-117678009D01*
X91171351Y-117617480D01*
X91199704Y-117563260D01*
X91254511Y-117536061D01*
X91268963Y-117535000D01*
X91309952Y-117535000D01*
X91309964Y-117534999D01*
X91378473Y-117528774D01*
X91378479Y-117528772D01*
X91536123Y-117479648D01*
X91536135Y-117479643D01*
X91677445Y-117394218D01*
X91794218Y-117277445D01*
X91879643Y-117136135D01*
X91879648Y-117136123D01*
X91928772Y-116978479D01*
X91928774Y-116978473D01*
X91934999Y-116909964D01*
X91935000Y-116909951D01*
X91935000Y-116800001D01*
X91934999Y-116800000D01*
X90974000Y-116800000D01*
X90915809Y-116781093D01*
X90912658Y-116776756D01*
X90875000Y-116629546D01*
X90875000Y-115665001D01*
X90874999Y-115665000D01*
X91275000Y-115665000D01*
X91275000Y-116399998D01*
X91275001Y-116400000D01*
X91934999Y-116400000D01*
X91935000Y-116399999D01*
X91935000Y-116290048D01*
X91934999Y-116290035D01*
X91928774Y-116221526D01*
X91928772Y-116221520D01*
X91879648Y-116063876D01*
X91879643Y-116063864D01*
X91794218Y-115922554D01*
X91677445Y-115805781D01*
X91536135Y-115720356D01*
X91536123Y-115720351D01*
X91378479Y-115671227D01*
X91378473Y-115671225D01*
X91309964Y-115665000D01*
X91275000Y-115665000D01*
X90874999Y-115665000D01*
X90840035Y-115665000D01*
X90771524Y-115671226D01*
X90739832Y-115681101D01*
X90678652Y-115680360D01*
X90629591Y-115643800D01*
X90614472Y-115611122D01*
X90100000Y-113600000D01*
X90000067Y-113460963D01*
X89995225Y-113441751D01*
X90018000Y-113384962D01*
X90069804Y-113352405D01*
X90075703Y-113351308D01*
X90078981Y-113350500D01*
X90078985Y-113350500D01*
X90232365Y-113312696D01*
X90372240Y-113239283D01*
X90490483Y-113134530D01*
X90580220Y-113004523D01*
X90636237Y-112856818D01*
X90655278Y-112700000D01*
X90655105Y-112698579D01*
X90636237Y-112543183D01*
X90636237Y-112543182D01*
X90580220Y-112395477D01*
X90534611Y-112329400D01*
X90490484Y-112265471D01*
X90412776Y-112196628D01*
X90372240Y-112160717D01*
X90302302Y-112124010D01*
X90232364Y-112087303D01*
X90078987Y-112049500D01*
X90078985Y-112049500D01*
X89921015Y-112049500D01*
X89921012Y-112049500D01*
X89767635Y-112087303D01*
X89627758Y-112160718D01*
X89509515Y-112265471D01*
X89419779Y-112395478D01*
X89416997Y-112400780D01*
X89414951Y-112399706D01*
X89382732Y-112439804D01*
X89323692Y-112455863D01*
X89266488Y-112434153D01*
X89248109Y-112414760D01*
X88199574Y-110955929D01*
X88199574Y-110955928D01*
X88199567Y-110955919D01*
X88199565Y-110955916D01*
X87800000Y-110400000D01*
X86518026Y-110020254D01*
X86469774Y-110005960D01*
X85740841Y-109790036D01*
X85690417Y-109755380D01*
X85669993Y-109697704D01*
X85687371Y-109639038D01*
X85687484Y-109638875D01*
X85780217Y-109504527D01*
X85780220Y-109504523D01*
X85836237Y-109356818D01*
X85852242Y-109225001D01*
X85855278Y-109200001D01*
X85855278Y-109199998D01*
X85836237Y-109043183D01*
X85836237Y-109043182D01*
X85780220Y-108895477D01*
X85690483Y-108765470D01*
X85572240Y-108660717D01*
X85451809Y-108597509D01*
X85432364Y-108587303D01*
X85278987Y-108549500D01*
X85278985Y-108549500D01*
X85121015Y-108549500D01*
X85121012Y-108549500D01*
X84967635Y-108587303D01*
X84827758Y-108660718D01*
X84709515Y-108765471D01*
X84619780Y-108895476D01*
X84563763Y-109043182D01*
X84563762Y-109043183D01*
X84544722Y-109199998D01*
X84544722Y-109200001D01*
X84558819Y-109316100D01*
X84547064Y-109376145D01*
X84502260Y-109417814D01*
X84441520Y-109425189D01*
X84435981Y-109423938D01*
X84306666Y-109390816D01*
X84254987Y-109358061D01*
X84232430Y-109301186D01*
X84232637Y-109285950D01*
X84234999Y-109259956D01*
X84235000Y-109259951D01*
X84235000Y-109225001D01*
X84234999Y-109225000D01*
X83659287Y-109225000D01*
X83100000Y-109081747D01*
X83100000Y-108824999D01*
X83500000Y-108824999D01*
X83500001Y-108825000D01*
X84234999Y-108825000D01*
X84235000Y-108824999D01*
X84235000Y-108790048D01*
X84234999Y-108790035D01*
X84228774Y-108721526D01*
X84228772Y-108721520D01*
X84179648Y-108563876D01*
X84179643Y-108563864D01*
X84094218Y-108422554D01*
X83977445Y-108305781D01*
X83836135Y-108220356D01*
X83836123Y-108220351D01*
X83678479Y-108171227D01*
X83678473Y-108171225D01*
X83609964Y-108165000D01*
X83500001Y-108165000D01*
X83500000Y-108165001D01*
X83500000Y-108824999D01*
X83100000Y-108824999D01*
X83100000Y-108165001D01*
X83099999Y-108165000D01*
X82990035Y-108165000D01*
X82921526Y-108171225D01*
X82921520Y-108171227D01*
X82763876Y-108220351D01*
X82763864Y-108220356D01*
X82622554Y-108305781D01*
X82505781Y-108422554D01*
X82420356Y-108563864D01*
X82420351Y-108563876D01*
X82371227Y-108721520D01*
X82371224Y-108721534D01*
X82369856Y-108736585D01*
X82345758Y-108792825D01*
X82293205Y-108824159D01*
X82232271Y-108818619D01*
X82226436Y-108815890D01*
X82052257Y-108727412D01*
X82039880Y-108719941D01*
X82017423Y-108704038D01*
X81813338Y-108559514D01*
X81802190Y-108550327D01*
X81597478Y-108354840D01*
X81594987Y-108352281D01*
X81311304Y-108038685D01*
X81286290Y-107982850D01*
X81298872Y-107922972D01*
X81303228Y-107916064D01*
X81380220Y-107804523D01*
X81436237Y-107656818D01*
X81455278Y-107500000D01*
X81436237Y-107343182D01*
X81380220Y-107195477D01*
X81290483Y-107065470D01*
X81172240Y-106960717D01*
X81102302Y-106924010D01*
X81032364Y-106887303D01*
X80878987Y-106849500D01*
X80878985Y-106849500D01*
X80721015Y-106849500D01*
X80721013Y-106849500D01*
X80677725Y-106860169D01*
X80616701Y-106855735D01*
X80569937Y-106816279D01*
X80559764Y-106794270D01*
X80435074Y-106405261D01*
X80435317Y-106344079D01*
X80471477Y-106294723D01*
X80500331Y-106281030D01*
X80500809Y-106280201D01*
X80207051Y-105183876D01*
X80016818Y-104473920D01*
X79983052Y-104482968D01*
X79983047Y-104482969D01*
X79933146Y-104501322D01*
X79872006Y-104503662D01*
X79821167Y-104469617D01*
X79804702Y-104438628D01*
X79674474Y-104032345D01*
X79673661Y-104029520D01*
X79615124Y-103800129D01*
X79614001Y-103794271D01*
X79609685Y-103761051D01*
X79584218Y-103565017D01*
X79583507Y-103559541D01*
X79583213Y-103556596D01*
X79556337Y-103166889D01*
X79571194Y-103107541D01*
X79609088Y-103072427D01*
X79672240Y-103039283D01*
X79790483Y-102934530D01*
X79880220Y-102804523D01*
X79936237Y-102656818D01*
X79955278Y-102500000D01*
X79953736Y-102487304D01*
X79936237Y-102343183D01*
X79936237Y-102343182D01*
X79880220Y-102195477D01*
X79790483Y-102065470D01*
X79672240Y-101960717D01*
X79532365Y-101887304D01*
X79532364Y-101887303D01*
X79532363Y-101887303D01*
X79526768Y-101885181D01*
X79527722Y-101882664D01*
X79485074Y-101856142D01*
X79462032Y-101799465D01*
X79409711Y-101040810D01*
X79424570Y-100981458D01*
X79449005Y-100960993D01*
X79475000Y-100934998D01*
X79475000Y-99065001D01*
X79474999Y-99065000D01*
X79440033Y-99065000D01*
X79375247Y-99070887D01*
X79315584Y-99057323D01*
X79275289Y-99011280D01*
X79267524Y-98979108D01*
X79217256Y-98250214D01*
X79217141Y-98247162D01*
X79215472Y-98003930D01*
X79215811Y-97997800D01*
X79244169Y-97756817D01*
X79244239Y-97756224D01*
X79244686Y-97753227D01*
X79248555Y-97731856D01*
X79277531Y-97677967D01*
X79332648Y-97651401D01*
X79345971Y-97650500D01*
X79378982Y-97650500D01*
X79378985Y-97650500D01*
X79532365Y-97612696D01*
X79672240Y-97539283D01*
X79790483Y-97434530D01*
X79880220Y-97304523D01*
X79936237Y-97156818D01*
X79955278Y-97000000D01*
X79954697Y-96995218D01*
X79936237Y-96843183D01*
X79936237Y-96843182D01*
X79880220Y-96695477D01*
X79790483Y-96565470D01*
X79672240Y-96460717D01*
X79609005Y-96427528D01*
X79559888Y-96401749D01*
X79517149Y-96357964D01*
X79508309Y-96297421D01*
X79508415Y-96296813D01*
X79622465Y-95666989D01*
X79651437Y-95613103D01*
X79706553Y-95586535D01*
X79766759Y-95597437D01*
X79773694Y-95602072D01*
X79773851Y-95601826D01*
X79918480Y-95693284D01*
X79983053Y-95717032D01*
X80016818Y-95726079D01*
X80207051Y-95016124D01*
X80500809Y-93919798D01*
X80467043Y-93910751D01*
X80467032Y-93910748D01*
X80399249Y-93899031D01*
X80234252Y-93905680D01*
X80234250Y-93905681D01*
X80091195Y-93947117D01*
X80030041Y-93945146D01*
X79981726Y-93907606D01*
X79964703Y-93848836D01*
X79967624Y-93827952D01*
X79987832Y-93747366D01*
X79989849Y-93741116D01*
X80085799Y-93500059D01*
X80088623Y-93494142D01*
X80216540Y-93266489D01*
X80218216Y-93263725D01*
X81019755Y-92036263D01*
X81067401Y-91997880D01*
X81128511Y-91994832D01*
X81148654Y-92002734D01*
X81167635Y-92012696D01*
X81321015Y-92050500D01*
X81321018Y-92050500D01*
X81478982Y-92050500D01*
X81478985Y-92050500D01*
X81632365Y-92012696D01*
X81772240Y-91939283D01*
X81890483Y-91834530D01*
X81980220Y-91704523D01*
X82022887Y-91592016D01*
X82061199Y-91544315D01*
X82120236Y-91528241D01*
X82177445Y-91549937D01*
X82185457Y-91557121D01*
X82222554Y-91594218D01*
X82363864Y-91679643D01*
X82363876Y-91679648D01*
X82521520Y-91728772D01*
X82521526Y-91728774D01*
X82590035Y-91734999D01*
X82590048Y-91735000D01*
X82699999Y-91735000D01*
X82700000Y-91734998D01*
X82700000Y-91075000D01*
X83100000Y-91075000D01*
X83100000Y-91734999D01*
X83100001Y-91735000D01*
X83209952Y-91735000D01*
X83209964Y-91734999D01*
X83278473Y-91728774D01*
X83278479Y-91728772D01*
X83436123Y-91679648D01*
X83436135Y-91679643D01*
X83577445Y-91594218D01*
X83694218Y-91477445D01*
X83779643Y-91336135D01*
X83779648Y-91336123D01*
X83828772Y-91178479D01*
X83828774Y-91178473D01*
X83834999Y-91109964D01*
X83835000Y-91109951D01*
X83835000Y-91075001D01*
X83834999Y-91075000D01*
X83100000Y-91075000D01*
X82700000Y-91075000D01*
X82700000Y-90774000D01*
X82718907Y-90715809D01*
X82749973Y-90693237D01*
X82902146Y-90676032D01*
X82925106Y-90675000D01*
X83834999Y-90675000D01*
X83855962Y-90654037D01*
X83900896Y-90631141D01*
X84100000Y-90622192D01*
X86885791Y-89750000D01*
X87869966Y-88714702D01*
X87923757Y-88685558D01*
X87965401Y-88686792D01*
X88021015Y-88700500D01*
X88021018Y-88700500D01*
X88178982Y-88700500D01*
X88178985Y-88700500D01*
X88332365Y-88662696D01*
X88472240Y-88589283D01*
X88590483Y-88484530D01*
X88680220Y-88354523D01*
X88736237Y-88206818D01*
X88755278Y-88050000D01*
X88754069Y-88040047D01*
X88736237Y-87893183D01*
X88736237Y-87893182D01*
X88733979Y-87887230D01*
X88731023Y-87826118D01*
X88754790Y-87783917D01*
X89214813Y-87300001D01*
X89265416Y-87246770D01*
X89265420Y-87246764D01*
X89346671Y-87161292D01*
X89370953Y-87145354D01*
X89432069Y-87148257D01*
X89447985Y-87155965D01*
X89460266Y-87163335D01*
X89572786Y-87204469D01*
X89572788Y-87204469D01*
X89918585Y-87297124D01*
X90255051Y-86041421D01*
X90695042Y-84399346D01*
X90619870Y-84379204D01*
X90568556Y-84345880D01*
X90546629Y-84288758D01*
X90548447Y-84264003D01*
X90557421Y-84219514D01*
X90646083Y-83779925D01*
X90676122Y-83726623D01*
X90731756Y-83701155D01*
X90743129Y-83700500D01*
X90828982Y-83700500D01*
X90828985Y-83700500D01*
X90982365Y-83662696D01*
X91122240Y-83589283D01*
X91240483Y-83484530D01*
X91330220Y-83354523D01*
X91386237Y-83206818D01*
X91405278Y-83050000D01*
X91405208Y-83049427D01*
X91386237Y-82893183D01*
X91386237Y-82893182D01*
X91330220Y-82745477D01*
X91240483Y-82615470D01*
X91237081Y-82610541D01*
X91239169Y-82609099D01*
X91218924Y-82562622D01*
X91232127Y-82502878D01*
X91246731Y-82483800D01*
X91935826Y-81780227D01*
X91990050Y-81751885D01*
X92006553Y-81750500D01*
X92078982Y-81750500D01*
X92078985Y-81750500D01*
X92232365Y-81712696D01*
X92372240Y-81639283D01*
X92490483Y-81534530D01*
X92580220Y-81404523D01*
X92636237Y-81256818D01*
X92651600Y-81130284D01*
X92677383Y-81074799D01*
X92694621Y-81060076D01*
X92700755Y-81055951D01*
X92759590Y-81039166D01*
X92796268Y-81047660D01*
X92845042Y-81069375D01*
X92966644Y-81123516D01*
X93151800Y-81162873D01*
X93341093Y-81162872D01*
X93418640Y-81148500D01*
X93744062Y-81061303D01*
X94506310Y-80857059D01*
X94574920Y-80832763D01*
X94580656Y-80830732D01*
X94744589Y-80736086D01*
X94885261Y-80609425D01*
X94996524Y-80456283D01*
X94998601Y-80451616D01*
X95039538Y-80406144D01*
X95099385Y-80393417D01*
X95137042Y-80405289D01*
X95229034Y-80456282D01*
X95240629Y-80462709D01*
X95418752Y-80517166D01*
X95421650Y-80518052D01*
X95610218Y-80534550D01*
X95610219Y-80534549D01*
X95610223Y-80534550D01*
X95661444Y-80529617D01*
X95688732Y-80526991D01*
X95768596Y-80512907D01*
X95792736Y-80508651D01*
X95853326Y-80517166D01*
X95897339Y-80559669D01*
X95907965Y-80619924D01*
X95881143Y-80674918D01*
X95840031Y-80700459D01*
X95767189Y-80723709D01*
X95318089Y-80906142D01*
X94884343Y-81122530D01*
X94882697Y-81123516D01*
X94468496Y-81371603D01*
X94468497Y-81371603D01*
X94073014Y-81651884D01*
X93754084Y-81916960D01*
X93700231Y-81961720D01*
X93352352Y-82299278D01*
X93031432Y-82662562D01*
X92739369Y-83049427D01*
X92647361Y-83193046D01*
X92491630Y-83436135D01*
X92477888Y-83457585D01*
X92377060Y-83645320D01*
X92248533Y-83884627D01*
X92217246Y-83955454D01*
X92052666Y-84328020D01*
X92037481Y-84371075D01*
X91909608Y-84733634D01*
X91872422Y-84782222D01*
X91813779Y-84799674D01*
X91756077Y-84779323D01*
X91749259Y-84773602D01*
X91714121Y-84741313D01*
X91539732Y-84636664D01*
X91427220Y-84595534D01*
X91081413Y-84502874D01*
X90738083Y-85784201D01*
X90738083Y-85784202D01*
X90304956Y-87400651D01*
X90650759Y-87493311D01*
X90768759Y-87513945D01*
X90768768Y-87513946D01*
X90847220Y-87512621D01*
X90905721Y-87530543D01*
X90942516Y-87579428D01*
X90943550Y-87640605D01*
X90936109Y-87658449D01*
X90868153Y-87784981D01*
X90866451Y-87787906D01*
X90606383Y-88201596D01*
X90604487Y-88204396D01*
X90599192Y-88211665D01*
X90316790Y-88599331D01*
X90314705Y-88601996D01*
X90000691Y-88976377D01*
X89998429Y-88978894D01*
X89658031Y-89332559D01*
X89621019Y-89368474D01*
X89621015Y-89368478D01*
X89604924Y-89384093D01*
X89498979Y-89488979D01*
X89394094Y-89594923D01*
X89375333Y-89614257D01*
X89375332Y-89614258D01*
X89342201Y-89648401D01*
X88988914Y-89988429D01*
X88986397Y-89990690D01*
X88612012Y-90304704D01*
X88609347Y-90306789D01*
X88214393Y-90594496D01*
X88211591Y-90596394D01*
X87797909Y-90856455D01*
X87794998Y-90858149D01*
X87559738Y-90984502D01*
X87364518Y-91089350D01*
X87361484Y-91090848D01*
X86916210Y-91292111D01*
X86913081Y-91293398D01*
X86455120Y-91463771D01*
X86451911Y-91464842D01*
X85983381Y-91603540D01*
X85980106Y-91604389D01*
X85501907Y-91711050D01*
X85501538Y-91711121D01*
X85501532Y-91711122D01*
X85492858Y-91712747D01*
X85447650Y-91721220D01*
X85446849Y-91721436D01*
X85407736Y-91728772D01*
X85263337Y-91755855D01*
X84795167Y-91881481D01*
X84631277Y-91939281D01*
X84338040Y-92042698D01*
X84338037Y-92042698D01*
X84338032Y-92042701D01*
X83894637Y-92238562D01*
X83894638Y-92238562D01*
X83894635Y-92238563D01*
X83894634Y-92238564D01*
X83467592Y-92467911D01*
X83372477Y-92528844D01*
X83059440Y-92729381D01*
X82691269Y-93007326D01*
X82672565Y-93021446D01*
X82309278Y-93342362D01*
X82309272Y-93342367D01*
X82309271Y-93342369D01*
X81971719Y-93690238D01*
X81971720Y-93690238D01*
X81971719Y-93690239D01*
X81661882Y-94063020D01*
X81533463Y-94244219D01*
X81454625Y-94355461D01*
X81405551Y-94392005D01*
X81344370Y-94392725D01*
X81294451Y-94357346D01*
X81288117Y-94347718D01*
X81239477Y-94263472D01*
X81125087Y-94144379D01*
X81125083Y-94144377D01*
X80985519Y-94056121D01*
X80920964Y-94032379D01*
X80920947Y-94032374D01*
X80887180Y-94023326D01*
X80690083Y-94758904D01*
X80690083Y-94758905D01*
X80403189Y-95829606D01*
X80436962Y-95838656D01*
X80504749Y-95850374D01*
X80565263Y-95847936D01*
X80624168Y-95864485D01*
X80662096Y-95912496D01*
X80664560Y-95973632D01*
X80663563Y-95976958D01*
X80632532Y-96074181D01*
X80586319Y-96218971D01*
X80474841Y-96690709D01*
X80474840Y-96690716D01*
X80474839Y-96690717D01*
X80445344Y-96879108D01*
X80445320Y-96879213D01*
X80437353Y-96930159D01*
X80429998Y-96977184D01*
X80378003Y-97309611D01*
X80288819Y-98072552D01*
X80229289Y-98838376D01*
X80222374Y-99016546D01*
X80201223Y-99073959D01*
X80150366Y-99107976D01*
X80093995Y-99107223D01*
X79978479Y-99071227D01*
X79978473Y-99071225D01*
X79909964Y-99065000D01*
X79875001Y-99065000D01*
X79875000Y-99065001D01*
X79875000Y-100934999D01*
X79875001Y-100935000D01*
X79909952Y-100935000D01*
X79909964Y-100934999D01*
X79978473Y-100928774D01*
X79978479Y-100928772D01*
X80094762Y-100892537D01*
X80155943Y-100893276D01*
X80205005Y-100929835D01*
X80223141Y-100983214D01*
X80229289Y-101141624D01*
X80288819Y-101907448D01*
X80378003Y-102670388D01*
X80429404Y-102999025D01*
X80429406Y-102999034D01*
X80431003Y-103009249D01*
X80430969Y-103009458D01*
X80447134Y-103112696D01*
X80474786Y-103289305D01*
X80586270Y-103761045D01*
X80733663Y-104222821D01*
X80733480Y-104222314D01*
X80735508Y-104283466D01*
X80701205Y-104334131D01*
X80643673Y-104354957D01*
X80636404Y-104354931D01*
X80504753Y-104349625D01*
X80504746Y-104349625D01*
X80436964Y-104361343D01*
X80436938Y-104361349D01*
X80403189Y-104370391D01*
X80684312Y-105419558D01*
X80684312Y-105419560D01*
X80887180Y-106176672D01*
X80920951Y-106167625D01*
X80985519Y-106143878D01*
X81125083Y-106055622D01*
X81125087Y-106055620D01*
X81239477Y-105936527D01*
X81322044Y-105793519D01*
X81338112Y-105738045D01*
X81372462Y-105687411D01*
X81430014Y-105666638D01*
X81488783Y-105683661D01*
X81513973Y-105708339D01*
X81661855Y-105917000D01*
X81768405Y-106045195D01*
X81971695Y-106289784D01*
X82309255Y-106637661D01*
X82672537Y-106958574D01*
X82672536Y-106958574D01*
X82672544Y-106958580D01*
X83059412Y-107250642D01*
X83120295Y-107289645D01*
X83467575Y-107512123D01*
X83793755Y-107687303D01*
X83894616Y-107741472D01*
X84338015Y-107937339D01*
X84573384Y-108020351D01*
X84795149Y-108098566D01*
X84795148Y-108098565D01*
X84795151Y-108098566D01*
X85263322Y-108224197D01*
X85446695Y-108258590D01*
X85446798Y-108258619D01*
X85454752Y-108260109D01*
X85454755Y-108260111D01*
X85471424Y-108263234D01*
X85482125Y-108268878D01*
X85490622Y-108268878D01*
X85512173Y-108271252D01*
X85980102Y-108375619D01*
X85983368Y-108376465D01*
X86451915Y-108515166D01*
X86455118Y-108516234D01*
X86913099Y-108686613D01*
X86916192Y-108687885D01*
X87361488Y-108889158D01*
X87364492Y-108890641D01*
X87656653Y-109047554D01*
X87794981Y-109121847D01*
X87797905Y-109123549D01*
X88014882Y-109259951D01*
X88168969Y-109356818D01*
X88211596Y-109383615D01*
X88214376Y-109385498D01*
X88609332Y-109673210D01*
X88611996Y-109675294D01*
X88986377Y-109989308D01*
X88988894Y-109991570D01*
X89342560Y-110331969D01*
X89383611Y-110374276D01*
X89383622Y-110374284D01*
X89389317Y-110380154D01*
X89394094Y-110385077D01*
X89498979Y-110491021D01*
X89604922Y-110595905D01*
X89618253Y-110608840D01*
X89618261Y-110608849D01*
X89658401Y-110647799D01*
X89663587Y-110653187D01*
X89998442Y-111001100D01*
X90000690Y-111003602D01*
X90314704Y-111377987D01*
X90316786Y-111380648D01*
X90333471Y-111403552D01*
X90604496Y-111775606D01*
X90606394Y-111778408D01*
X90711639Y-111945823D01*
X90866457Y-112192094D01*
X90868142Y-112194988D01*
X91099351Y-112625483D01*
X91100848Y-112628515D01*
X91302111Y-113073789D01*
X91303398Y-113076918D01*
X91473771Y-113534879D01*
X91474842Y-113538088D01*
X91613540Y-114006618D01*
X91614389Y-114009894D01*
X91721053Y-114488103D01*
X91731231Y-114542408D01*
X91731446Y-114543207D01*
X91747434Y-114628447D01*
X91765855Y-114726663D01*
X91891481Y-115194833D01*
X91919729Y-115274930D01*
X92045253Y-115630851D01*
X92052701Y-115651968D01*
X92248564Y-116095366D01*
X92477911Y-116522408D01*
X92535198Y-116611832D01*
X92739381Y-116930560D01*
X93031445Y-117317434D01*
X93031471Y-117317463D01*
X93352362Y-117680722D01*
X93352367Y-117680727D01*
X93352369Y-117680729D01*
X93700238Y-118018281D01*
X93700238Y-118018280D01*
X93700239Y-118018281D01*
X94073020Y-118328118D01*
X94160507Y-118390121D01*
X94324446Y-118506307D01*
X94360990Y-118555380D01*
X94361710Y-118616562D01*
X94326331Y-118666481D01*
X94311646Y-118674917D01*
X94311671Y-118674959D01*
X94163472Y-118760522D01*
X94044379Y-118874912D01*
X94044377Y-118874916D01*
X93956121Y-119014480D01*
X93932379Y-119079035D01*
X93932374Y-119079052D01*
X93923326Y-119112818D01*
X94633282Y-119303050D01*
X94633284Y-119303051D01*
X95729606Y-119596809D01*
X95738656Y-119563037D01*
X95750374Y-119495253D01*
X95750374Y-119495246D01*
X95746094Y-119389039D01*
X95762643Y-119330134D01*
X95810654Y-119292206D01*
X95871790Y-119289742D01*
X95875100Y-119290734D01*
X96228971Y-119403681D01*
X96228973Y-119403681D01*
X96228978Y-119403683D01*
X96512239Y-119470621D01*
X96700709Y-119515159D01*
X96700711Y-119515159D01*
X96700714Y-119515160D01*
X96700715Y-119515160D01*
X96885152Y-119544034D01*
X96885273Y-119544063D01*
X96893134Y-119545292D01*
X96893136Y-119545293D01*
X96922867Y-119549942D01*
X96940158Y-119552646D01*
X96940158Y-119552647D01*
X96987181Y-119560002D01*
X96987181Y-119560001D01*
X97032210Y-119567045D01*
X97032215Y-119567045D01*
X97319612Y-119611998D01*
X98082552Y-119701182D01*
X98848376Y-119760712D01*
X99019748Y-119767362D01*
X99077157Y-119788511D01*
X99111175Y-119839368D01*
X99110422Y-119895740D01*
X99071227Y-120021520D01*
X99071225Y-120021526D01*
X99065000Y-120090035D01*
X99065000Y-120124999D01*
X99065001Y-120125000D01*
X100934999Y-120125000D01*
X100935000Y-120124999D01*
X100935000Y-120090048D01*
X100934999Y-120090035D01*
X100928774Y-120021526D01*
X100928773Y-120021523D01*
X100889577Y-119895741D01*
X100890316Y-119834560D01*
X100926875Y-119785498D01*
X100980249Y-119767362D01*
X101151624Y-119760712D01*
X101917448Y-119701182D01*
X101954858Y-119696809D01*
X102680388Y-119611999D01*
X102852945Y-119585007D01*
X103001107Y-119561833D01*
X103001109Y-119561833D01*
X103012820Y-119560001D01*
X103012823Y-119560002D01*
X103019244Y-119558997D01*
X103019454Y-119559031D01*
X103215490Y-119528337D01*
X103299305Y-119515214D01*
X103299307Y-119515213D01*
X103299310Y-119515213D01*
X103487998Y-119470621D01*
X103771045Y-119403730D01*
X104137333Y-119286815D01*
X104198515Y-119287132D01*
X104247828Y-119323353D01*
X104266433Y-119381641D01*
X104262526Y-119408667D01*
X104256275Y-119430249D01*
X104256274Y-119430252D01*
X104249625Y-119595246D01*
X104249625Y-119595253D01*
X104261342Y-119663032D01*
X104261345Y-119663043D01*
X104270392Y-119696809D01*
X105366718Y-119403051D01*
X106076673Y-119212818D01*
X106067626Y-119179053D01*
X106043878Y-119114480D01*
X105955622Y-118974916D01*
X105955620Y-118974912D01*
X105836527Y-118860522D01*
X105693517Y-118777954D01*
X105605949Y-118752590D01*
X105555316Y-118718240D01*
X105534544Y-118660688D01*
X105551567Y-118601919D01*
X105576243Y-118576732D01*
X105927000Y-118328145D01*
X106113391Y-118173225D01*
X106299784Y-118018305D01*
X106647661Y-117680745D01*
X106968574Y-117317463D01*
X106968574Y-117317464D01*
X106998786Y-117277445D01*
X107260642Y-116930588D01*
X107466203Y-116609714D01*
X107522123Y-116522425D01*
X107534167Y-116499999D01*
X108065000Y-116499999D01*
X108065001Y-116500000D01*
X108724999Y-116500000D01*
X108725000Y-116499998D01*
X108725000Y-115765001D01*
X108724999Y-115765000D01*
X108690035Y-115765000D01*
X108621526Y-115771225D01*
X108621520Y-115771227D01*
X108463876Y-115820351D01*
X108463864Y-115820356D01*
X108322554Y-115905781D01*
X108205781Y-116022554D01*
X108120356Y-116163864D01*
X108120351Y-116163876D01*
X108071227Y-116321520D01*
X108071225Y-116321526D01*
X108065000Y-116390035D01*
X108065000Y-116499999D01*
X107534167Y-116499999D01*
X107751471Y-116095386D01*
X107853462Y-115864501D01*
X107947339Y-115651985D01*
X108039527Y-115390597D01*
X108108566Y-115194851D01*
X108108565Y-115194852D01*
X108108566Y-115194849D01*
X108234197Y-114726678D01*
X108268502Y-114543772D01*
X108268530Y-114543676D01*
X108270109Y-114535247D01*
X108270111Y-114535245D01*
X108278871Y-114488498D01*
X108364274Y-114105597D01*
X108385620Y-114009891D01*
X108386463Y-114006638D01*
X108525168Y-113538075D01*
X108526235Y-113534880D01*
X108696617Y-113076889D01*
X108697881Y-113073817D01*
X108899163Y-112628499D01*
X108900635Y-112625518D01*
X109131854Y-112195004D01*
X109133549Y-112192094D01*
X109161061Y-112148331D01*
X109393626Y-111778386D01*
X109395488Y-111775636D01*
X109683228Y-111380642D01*
X109685294Y-111378003D01*
X109888695Y-111135500D01*
X109999317Y-111003611D01*
X110001570Y-111001105D01*
X110001590Y-111001085D01*
X110158152Y-110838420D01*
X110341969Y-110647439D01*
X110385672Y-110605034D01*
X110385677Y-110605025D01*
X110395077Y-110595906D01*
X110501021Y-110491021D01*
X110605906Y-110385077D01*
X110610674Y-110380161D01*
X110610685Y-110380156D01*
X110610683Y-110380154D01*
X110624667Y-110365742D01*
X110624668Y-110365742D01*
X110657812Y-110331585D01*
X110657813Y-110331585D01*
X111011115Y-109991542D01*
X111013602Y-109989309D01*
X111013603Y-109989308D01*
X111387999Y-109675285D01*
X111390629Y-109673227D01*
X111785616Y-109385495D01*
X111788397Y-109383612D01*
X112202124Y-109123524D01*
X112204966Y-109121869D01*
X112635516Y-108890631D01*
X112638497Y-108889159D01*
X113083806Y-108687880D01*
X113086899Y-108686608D01*
X113252503Y-108624999D01*
X115965000Y-108624999D01*
X115965001Y-108625000D01*
X116699999Y-108625000D01*
X116700000Y-108624999D01*
X116700000Y-107965001D01*
X116699999Y-107965000D01*
X116590035Y-107965000D01*
X116521526Y-107971225D01*
X116521520Y-107971227D01*
X116363876Y-108020351D01*
X116363864Y-108020356D01*
X116222554Y-108105781D01*
X116105781Y-108222554D01*
X116020356Y-108363864D01*
X116020351Y-108363876D01*
X115971227Y-108521520D01*
X115971225Y-108521526D01*
X115965000Y-108590035D01*
X115965000Y-108624999D01*
X113252503Y-108624999D01*
X113544889Y-108516224D01*
X113548065Y-108515164D01*
X114016624Y-108376457D01*
X114019893Y-108375610D01*
X114203670Y-108334618D01*
X114498087Y-108268949D01*
X114498462Y-108268879D01*
X114498461Y-108268878D01*
X114498467Y-108268877D01*
X114498468Y-108268878D01*
X114498906Y-108268795D01*
X114539623Y-108261194D01*
X114539929Y-108261106D01*
X114545248Y-108260110D01*
X114545250Y-108260108D01*
X114552509Y-108258748D01*
X114553290Y-108258536D01*
X114736663Y-108224145D01*
X115204833Y-108098519D01*
X115497009Y-107995476D01*
X115661960Y-107937302D01*
X115661962Y-107937301D01*
X115661968Y-107937299D01*
X116105362Y-107741437D01*
X116105362Y-107741438D01*
X116126196Y-107730249D01*
X116532408Y-107512089D01*
X116796068Y-107343183D01*
X116940560Y-107250619D01*
X117327434Y-106958555D01*
X117443829Y-106855735D01*
X117690722Y-106637638D01*
X117690729Y-106637631D01*
X118028281Y-106289762D01*
X118028280Y-106289762D01*
X118028281Y-106289761D01*
X118338118Y-105916980D01*
X118539012Y-105633515D01*
X118588084Y-105596973D01*
X118649265Y-105596253D01*
X118699185Y-105631632D01*
X118705519Y-105641260D01*
X118760522Y-105736527D01*
X118874912Y-105855620D01*
X118874916Y-105855622D01*
X119014480Y-105943878D01*
X119079053Y-105967626D01*
X119112818Y-105976673D01*
X119303051Y-105266718D01*
X119596809Y-104170392D01*
X119563043Y-104161345D01*
X119563032Y-104161342D01*
X119495253Y-104149625D01*
X119495246Y-104149625D01*
X119428268Y-104152324D01*
X119369363Y-104135775D01*
X119331435Y-104087763D01*
X119328972Y-104026627D01*
X119329953Y-104023353D01*
X119413681Y-103761029D01*
X119454188Y-103589619D01*
X119502081Y-103386950D01*
X119525159Y-103289291D01*
X119553967Y-103105269D01*
X119553997Y-103105150D01*
X119562647Y-103049843D01*
X119564571Y-103037540D01*
X119570002Y-103002819D01*
X119570001Y-103002817D01*
X119571536Y-102993008D01*
X119571536Y-102993001D01*
X119601017Y-102804523D01*
X119621998Y-102670388D01*
X119711181Y-101907448D01*
X119770711Y-101141624D01*
X119774623Y-101040810D01*
X119776858Y-100983212D01*
X119798008Y-100925801D01*
X119848866Y-100891784D01*
X119905237Y-100892537D01*
X120021520Y-100928772D01*
X120021526Y-100928774D01*
X120090035Y-100934999D01*
X120090048Y-100935000D01*
X120124999Y-100935000D01*
X120125000Y-100934998D01*
X120125000Y-99065001D01*
X120124999Y-99065000D01*
X120090035Y-99065000D01*
X120021526Y-99071225D01*
X119906002Y-99107224D01*
X119844821Y-99106484D01*
X119795760Y-99069924D01*
X119777625Y-99016550D01*
X119770711Y-98838376D01*
X119711181Y-98072552D01*
X119621997Y-97309612D01*
X119571536Y-96986994D01*
X119571536Y-96986985D01*
X119568998Y-96970759D01*
X119569031Y-96970548D01*
X119555341Y-96883111D01*
X119525214Y-96690695D01*
X119413730Y-96218955D01*
X119367519Y-96074181D01*
X119367838Y-96012997D01*
X119404058Y-95963684D01*
X119462346Y-95945079D01*
X119465819Y-95945158D01*
X119595247Y-95950374D01*
X119595253Y-95950374D01*
X119663037Y-95938656D01*
X119696809Y-95929606D01*
X119403051Y-94833282D01*
X119212818Y-94123326D01*
X119179052Y-94132374D01*
X119179035Y-94132379D01*
X119114480Y-94156121D01*
X118974916Y-94244377D01*
X118974912Y-94244379D01*
X118860522Y-94363472D01*
X118797937Y-94471871D01*
X118752467Y-94512812D01*
X118691616Y-94519206D01*
X118638629Y-94488613D01*
X118627270Y-94473240D01*
X118618437Y-94458492D01*
X118571827Y-94392725D01*
X118338145Y-94063000D01*
X118129807Y-93812339D01*
X118028305Y-93690216D01*
X117690745Y-93342339D01*
X117327463Y-93021426D01*
X117327464Y-93021426D01*
X117308787Y-93007326D01*
X116940588Y-92729358D01*
X116627592Y-92528844D01*
X116532425Y-92467877D01*
X116105386Y-92238529D01*
X116105384Y-92238528D01*
X115661985Y-92042661D01*
X115368866Y-91939281D01*
X115204851Y-91881434D01*
X115204852Y-91881435D01*
X115204849Y-91881434D01*
X114736678Y-91755803D01*
X114552938Y-91721339D01*
X114552835Y-91721311D01*
X114498493Y-91711127D01*
X114019897Y-91604380D01*
X114016621Y-91603531D01*
X113548090Y-91464835D01*
X113544880Y-91463764D01*
X113159726Y-91320479D01*
X113086915Y-91293391D01*
X113083789Y-91292106D01*
X112956403Y-91234528D01*
X112867040Y-91194136D01*
X112638517Y-91090844D01*
X112635491Y-91089350D01*
X112314015Y-90916692D01*
X112205018Y-90858152D01*
X112202094Y-90856450D01*
X111788403Y-90596384D01*
X111785617Y-90594496D01*
X111390661Y-90306784D01*
X111388003Y-90304705D01*
X111013622Y-89990691D01*
X111011105Y-89988429D01*
X110657439Y-89648031D01*
X110618862Y-89608273D01*
X110618849Y-89608262D01*
X110605906Y-89594923D01*
X110501021Y-89488979D01*
X110395077Y-89384094D01*
X110390156Y-89379319D01*
X110390154Y-89379316D01*
X110341598Y-89332201D01*
X110341584Y-89332186D01*
X110001552Y-88978894D01*
X109999309Y-88976397D01*
X109685295Y-88602012D01*
X109683210Y-88599347D01*
X109683198Y-88599331D01*
X109400793Y-88211655D01*
X109395503Y-88204393D01*
X109393605Y-88201591D01*
X109298308Y-88050001D01*
X109133531Y-87787888D01*
X109131862Y-87785020D01*
X108900637Y-87354494D01*
X108899151Y-87351484D01*
X108882929Y-87315595D01*
X108697885Y-86906203D01*
X108696601Y-86903081D01*
X108681652Y-86862899D01*
X108526227Y-86445119D01*
X108525161Y-86441925D01*
X108386459Y-85973381D01*
X108385610Y-85970106D01*
X108278950Y-85491912D01*
X108271541Y-85452335D01*
X108271499Y-85452164D01*
X108270110Y-85444752D01*
X108270109Y-85444750D01*
X108268760Y-85437552D01*
X108268545Y-85436754D01*
X108234145Y-85253337D01*
X108108519Y-84785167D01*
X107947299Y-84328032D01*
X107751436Y-83884634D01*
X107522089Y-83457592D01*
X107363454Y-83209964D01*
X108265000Y-83209964D01*
X108271225Y-83278473D01*
X108271227Y-83278479D01*
X108320351Y-83436123D01*
X108320356Y-83436135D01*
X108405781Y-83577445D01*
X108522554Y-83694218D01*
X108663864Y-83779643D01*
X108663876Y-83779648D01*
X108821520Y-83828772D01*
X108821526Y-83828774D01*
X108890035Y-83834999D01*
X108890048Y-83835000D01*
X108924999Y-83835000D01*
X108925000Y-83834999D01*
X108925000Y-83100001D01*
X108924999Y-83100000D01*
X108265001Y-83100000D01*
X108265000Y-83100001D01*
X108265000Y-83209964D01*
X107363454Y-83209964D01*
X107293009Y-83100001D01*
X107260619Y-83049440D01*
X106968555Y-82662566D01*
X106898352Y-82583094D01*
X106647638Y-82299278D01*
X106612505Y-82265187D01*
X106299762Y-81961719D01*
X106299762Y-81961720D01*
X106299761Y-81961719D01*
X105926980Y-81651882D01*
X105531498Y-81371599D01*
X105115653Y-81122526D01*
X104681908Y-80906138D01*
X104232809Y-80723707D01*
X104232810Y-80723707D01*
X103812182Y-80589454D01*
X103771029Y-80576319D01*
X103771026Y-80576318D01*
X103771022Y-80576317D01*
X103524462Y-80518052D01*
X103299291Y-80464841D01*
X103299283Y-80464839D01*
X103111052Y-80435370D01*
X103110939Y-80435344D01*
X103059842Y-80427353D01*
X103059842Y-80427352D01*
X103012819Y-80419998D01*
X103012818Y-80419998D01*
X103012816Y-80419997D01*
X102680388Y-80368002D01*
X102309957Y-80324699D01*
X102254355Y-80299164D01*
X102224381Y-80245823D01*
X102231485Y-80185051D01*
X102251444Y-80156368D01*
X102663421Y-79744391D01*
X102709729Y-79718274D01*
X102732365Y-79712696D01*
X102872240Y-79639283D01*
X102990483Y-79534530D01*
X103080220Y-79404523D01*
X103089174Y-79380911D01*
X103127485Y-79333209D01*
X103186520Y-79317133D01*
X103209791Y-79321075D01*
G37*
%TD.AperFunction*%
%TD*%
M02*
