M48
; DRILL file {KiCad 7.0.6} date Wed 09 Aug 2023 16:46:36
; FORMAT={-:-/ absolute / metric / decimal}
; #@! TF.CreationDate,2023-08-09T16:46:36+09:30
; #@! TF.GenerationSoftware,Kicad,Pcbnew,7.0.6
; #@! TF.FileFunction,Plated,1,2,PTH
FMAT,2
METRIC
; #@! TA.AperFunction,Plated,PTH,ViaDrill
T1C0.300
%
G90
G05
T1
X79.3Y-97.0
X79.3Y-102.5
X79.9Y-97.9
X80.1Y-103.2
X80.8Y-107.5
X81.2Y-92.8
X81.4Y-91.4
X81.9Y-107.7
X85.2Y-91.0
X85.2Y-109.2
X87.4Y-109.6
X88.1Y-88.05
X90.0Y-112.7
X90.4Y-87.4
X90.75Y-83.05
X91.3Y-114.7
X91.7Y-118.5
X92.0Y-81.1
X92.4Y-82.2
X92.9Y-118.8
X94.5Y-79.3
X95.0Y-80.6
X96.6Y-79.1
X97.1Y-120.6
X97.45Y-80.05
X97.8Y-78.2
X98.1Y-120.1
X100.0Y-78.6
X102.3Y-120.7
X102.5Y-79.1
X102.9Y-80.0
X103.4Y-119.8
X107.1Y-81.2
X107.4Y-119.0
X107.7Y-118.0
X108.4Y-81.4
X108.9Y-85.2
X109.2Y-114.5
X109.6Y-112.5
X110.0Y-87.3
X112.6Y-90.4
X113.7Y-109.5
X114.6Y-108.7
X114.8Y-90.8
X117.7Y-92.4
X118.3Y-107.0
X118.5Y-108.3
X118.8Y-92.2
X119.9Y-96.7
X120.1Y-102.0
X120.7Y-103.1
X120.8Y-97.6
T0
M30
