%TF.GenerationSoftware,KiCad,Pcbnew,7.0.6*%
%TF.CreationDate,2023-08-09T16:46:25+09:30*%
%TF.ProjectId,interior-lighting,696e7465-7269-46f7-922d-6c6967687469,V1.0*%
%TF.SameCoordinates,Original*%
%TF.FileFunction,Soldermask,Top*%
%TF.FilePolarity,Negative*%
%FSLAX46Y46*%
G04 Gerber Fmt 4.6, Leading zero omitted, Abs format (unit mm)*
G04 Created by KiCad (PCBNEW 7.0.6) date 2023-08-09 16:46:25*
%MOMM*%
%LPD*%
G01*
G04 APERTURE LIST*
G04 Aperture macros list*
%AMRotRect*
0 Rectangle, with rotation*
0 The origin of the aperture is its center*
0 $1 length*
0 $2 width*
0 $3 Rotation angle, in degrees counterclockwise*
0 Add horizontal line*
21,1,$1,$2,0,0,$3*%
G04 Aperture macros list end*
%ADD10R,0.800000X0.500000*%
%ADD11R,0.800000X0.300000*%
%ADD12RotRect,0.800000X0.500000X315.000000*%
%ADD13RotRect,0.800000X0.300000X315.000000*%
%ADD14RotRect,0.800000X0.500000X285.000000*%
%ADD15RotRect,0.800000X0.300000X285.000000*%
%ADD16R,0.500000X0.800000*%
%ADD17R,0.300000X0.800000*%
%ADD18RotRect,0.800000X0.500000X45.000000*%
%ADD19RotRect,0.800000X0.300000X45.000000*%
%ADD20RotRect,0.800000X0.500000X75.000000*%
%ADD21RotRect,0.800000X0.300000X75.000000*%
%ADD22RotRect,0.800000X0.300000X105.000000*%
%ADD23RotRect,0.800000X0.500000X105.000000*%
%ADD24RotRect,0.800000X0.500000X225.000000*%
%ADD25RotRect,0.800000X0.300000X225.000000*%
%ADD26RotRect,0.800000X0.500000X255.000000*%
%ADD27RotRect,0.800000X0.300000X255.000000*%
%ADD28RotRect,0.800000X0.500000X345.000000*%
%ADD29RotRect,0.800000X0.300000X345.000000*%
%ADD30RotRect,0.800000X0.500000X195.000000*%
%ADD31RotRect,0.800000X0.300000X195.000000*%
%ADD32RotRect,0.800000X0.500000X165.000000*%
%ADD33RotRect,0.800000X0.300000X165.000000*%
%ADD34RotRect,0.800000X0.500000X135.000000*%
%ADD35RotRect,0.800000X0.300000X135.000000*%
%ADD36RotRect,0.800000X0.500000X15.000000*%
%ADD37RotRect,0.800000X0.300000X15.000000*%
G04 APERTURE END LIST*
D10*
%TO.C,U17*%
X82350000Y-110600000D03*
X84050000Y-110600000D03*
D11*
X84050000Y-109700000D03*
D10*
X84050000Y-108800000D03*
X82350000Y-108800000D03*
D11*
X82350000Y-109700000D03*
%TD*%
D12*
%TO.C,U4*%
X112937437Y-88264645D03*
X111735355Y-87062563D03*
D13*
X111098959Y-87698959D03*
D12*
X110462563Y-88335355D03*
X111664645Y-89537437D03*
D13*
X112301041Y-88901041D03*
%TD*%
D14*
%TO.C,U6*%
X121389329Y-95188100D03*
X120949337Y-93546026D03*
D15*
X120080004Y-93778963D03*
D14*
X119210671Y-94011900D03*
X119650663Y-95653974D03*
D15*
X120519996Y-95421037D03*
%TD*%
D16*
%TO.C,U7*%
X121900000Y-100850000D03*
X121900000Y-99150000D03*
D17*
X121000000Y-99150000D03*
D16*
X120100000Y-99150000D03*
X120100000Y-100850000D03*
D17*
X121000000Y-100850000D03*
%TD*%
D18*
%TO.C,U22*%
X88364645Y-87062563D03*
X87162563Y-88264645D03*
D19*
X87798959Y-88901041D03*
D18*
X88435355Y-89537437D03*
X89637437Y-88335355D03*
D19*
X89001041Y-87698959D03*
%TD*%
D16*
%TO.C,U19*%
X78100000Y-99150000D03*
X78100000Y-100850000D03*
D17*
X79000000Y-100850000D03*
D16*
X79900000Y-100850000D03*
X79900000Y-99150000D03*
D17*
X79000000Y-99150000D03*
%TD*%
D20*
%TO.C,U20*%
X79150663Y-93546026D03*
X78710671Y-95188100D03*
D21*
X79580004Y-95421037D03*
D20*
X80449337Y-95653974D03*
X80889329Y-94011900D03*
D21*
X80019996Y-93778963D03*
%TD*%
D10*
%TO.C,U1*%
X100850000Y-78100000D03*
X99150000Y-78100000D03*
D11*
X99150000Y-79000000D03*
D10*
X99150000Y-79900000D03*
X100850000Y-79900000D03*
D11*
X100850000Y-79000000D03*
%TD*%
D16*
%TO.C,U15*%
X89500000Y-115850000D03*
X89500000Y-117550000D03*
D17*
X90400000Y-117550000D03*
D16*
X91300000Y-117550000D03*
X91300000Y-115850000D03*
D17*
X90400000Y-115850000D03*
%TD*%
D22*
%TO.C,U18*%
X79580004Y-104578963D03*
D23*
X80449337Y-104346026D03*
X80889329Y-105988100D03*
D22*
X80019996Y-106221037D03*
D23*
X79150663Y-106453974D03*
X78710671Y-104811900D03*
%TD*%
D24*
%TO.C,U10*%
X111735355Y-112937437D03*
X112937437Y-111735355D03*
D25*
X112301041Y-111098959D03*
D24*
X111664645Y-110462563D03*
X110462563Y-111664645D03*
D25*
X111098959Y-112301041D03*
%TD*%
D10*
%TO.C,U13*%
X99150000Y-121900000D03*
X100850000Y-121900000D03*
D11*
X100850000Y-121000000D03*
D10*
X100850000Y-120100000D03*
X99150000Y-120100000D03*
D11*
X99150000Y-121000000D03*
%TD*%
D26*
%TO.C,U8*%
X120949337Y-106453974D03*
X121389329Y-104811900D03*
D27*
X120519996Y-104578963D03*
D26*
X119650663Y-104346026D03*
X119210671Y-105988100D03*
D27*
X120080004Y-106221037D03*
%TD*%
D16*
%TO.C,U3*%
X110700000Y-83850000D03*
X110700000Y-82150000D03*
D17*
X109800000Y-82150000D03*
D16*
X108900000Y-82150000D03*
X108900000Y-83850000D03*
D17*
X109800000Y-83850000D03*
%TD*%
D10*
%TO.C,U21*%
X83850000Y-89200000D03*
X82150000Y-89200000D03*
D11*
X82150000Y-90100000D03*
D10*
X82150000Y-91000000D03*
X83850000Y-91000000D03*
D11*
X83850000Y-90100000D03*
%TD*%
D28*
%TO.C,U2*%
X106453974Y-79050663D03*
X104811900Y-78610671D03*
D29*
X104578963Y-79480004D03*
D28*
X104346026Y-80349337D03*
X105988100Y-80789329D03*
D29*
X106221037Y-79919996D03*
%TD*%
D30*
%TO.C,U12*%
X104811900Y-121289329D03*
X106453974Y-120849337D03*
D31*
X106221037Y-119980004D03*
D30*
X105988100Y-119110671D03*
X104346026Y-119550663D03*
D31*
X104578963Y-120419996D03*
%TD*%
D32*
%TO.C,U14*%
X93546026Y-120849337D03*
X95188100Y-121289329D03*
D33*
X95421037Y-120419996D03*
D32*
X95653974Y-119550663D03*
X94011900Y-119110671D03*
D33*
X93778963Y-119980004D03*
%TD*%
D34*
%TO.C,U16*%
X87062563Y-111735355D03*
X88264645Y-112937437D03*
D35*
X88901041Y-112301041D03*
D34*
X89537437Y-111664645D03*
X88335355Y-110462563D03*
D35*
X87698959Y-111098959D03*
%TD*%
D16*
%TO.C,U23*%
X89400000Y-82150000D03*
X89400000Y-83850000D03*
D17*
X90300000Y-83850000D03*
D16*
X91200000Y-83850000D03*
X91200000Y-82150000D03*
D17*
X90300000Y-82150000D03*
%TD*%
D16*
%TO.C,U11*%
X110500000Y-117550000D03*
X110500000Y-115850000D03*
D17*
X109600000Y-115850000D03*
D16*
X108700000Y-115850000D03*
X108700000Y-117550000D03*
D17*
X109600000Y-117550000D03*
%TD*%
D10*
%TO.C,U9*%
X115950000Y-110500000D03*
X117650000Y-110500000D03*
D11*
X117650000Y-109600000D03*
D10*
X117650000Y-108700000D03*
X115950000Y-108700000D03*
D11*
X115950000Y-109600000D03*
%TD*%
D36*
%TO.C,U24*%
X95188100Y-78610671D03*
X93546026Y-79050663D03*
D37*
X93778963Y-79919996D03*
D36*
X94011900Y-80789329D03*
X95653974Y-80349337D03*
D37*
X95421037Y-79480004D03*
%TD*%
D10*
%TO.C,U5*%
X117650000Y-89400000D03*
X115950000Y-89400000D03*
D11*
X115950000Y-90300000D03*
D10*
X115950000Y-91200000D03*
X117650000Y-91200000D03*
D11*
X117650000Y-90300000D03*
%TD*%
M02*
