%TF.GenerationSoftware,KiCad,Pcbnew,7.0.6*%
%TF.CreationDate,2023-08-09T16:46:26+09:30*%
%TF.ProjectId,interior-lighting,696e7465-7269-46f7-922d-6c6967687469,V1.0*%
%TF.SameCoordinates,Original*%
%TF.FileFunction,OtherDrawing,Comment*%
%FSLAX46Y46*%
G04 Gerber Fmt 4.6, Leading zero omitted, Abs format (unit mm)*
G04 Created by KiCad (PCBNEW 7.0.6) date 2023-08-09 16:46:26*
%MOMM*%
%LPD*%
G01*
G04 APERTURE LIST*
%ADD10C,0.100000*%
%ADD11C,0.010050*%
%ADD12C,0.050000*%
G04 APERTURE END LIST*
D10*
X100000000Y-100000000D02*
X79771124Y-111679147D01*
X100000000Y-100000000D02*
X93954429Y-122562379D01*
X100000000Y-100000000D02*
X88320853Y-120228876D01*
D11*
X100005025Y-100000000D02*
G75*
G03*
X100005025Y-100000000I-5025J0D01*
G01*
D10*
X100000000Y-100000000D02*
X106045571Y-77437621D01*
X118540105Y-109862277D02*
G75*
G03*
X118540105Y-90137723I-18540105J9862277D01*
G01*
X90137723Y-118540105D02*
G75*
G03*
X109862277Y-118540105I9862277J18540105D01*
G01*
X100000000Y-100000000D02*
X120228876Y-111679147D01*
X118540094Y-90137729D02*
G75*
G03*
X117067099Y-89488018I-1149494J-611471D01*
G01*
X87763663Y-111873271D02*
G75*
G03*
X88126729Y-112236337I12234337J11871271D01*
G01*
X100000000Y-100000000D02*
X116516808Y-83483192D01*
X100000000Y-100000000D02*
X100000000Y-76641706D01*
X100000000Y-100000000D02*
X76641706Y-100000000D01*
X100000000Y-100000000D02*
X77437621Y-106045571D01*
X111873271Y-112236337D02*
G75*
G03*
X112236337Y-111873271I-11871271J12234337D01*
G01*
X89488004Y-117067095D02*
G75*
G03*
X88126728Y-112236338I-4843204J1242395D01*
G01*
X100000000Y-100000000D02*
X88320853Y-79771124D01*
X88126729Y-87763663D02*
G75*
G03*
X87763663Y-88126729I11871271J-12234337D01*
G01*
D11*
X100005025Y-100000000D02*
G75*
G03*
X100005025Y-100000000I-5025J0D01*
G01*
D10*
X100000000Y-100000000D02*
X123358294Y-100000000D01*
X100000000Y-100000000D02*
X111679147Y-79771124D01*
X100000000Y-100000000D02*
X100000000Y-123358294D01*
X100000000Y-100000000D02*
X93954429Y-77437621D01*
X88126719Y-87763653D02*
G75*
G03*
X89488017Y-82932901I-3481819J3588353D01*
G01*
X81459906Y-109862271D02*
G75*
G03*
X82932901Y-110511982I1149494J611471D01*
G01*
X100000000Y-100000000D02*
X106045571Y-122562379D01*
X100000000Y-100000000D02*
X83483192Y-83483192D01*
X100000000Y-100000000D02*
X122562379Y-106045571D01*
X117067096Y-110511994D02*
G75*
G03*
X118540104Y-109862277I323504J1261194D01*
G01*
X82932905Y-89488004D02*
G75*
G03*
X87763662Y-88126728I1242395J4843204D01*
G01*
X100000000Y-100000000D02*
X77437621Y-93954429D01*
X100000000Y-100000000D02*
X83483192Y-116516808D01*
X117067095Y-110511996D02*
G75*
G03*
X112236338Y-111873272I-1242395J-4843204D01*
G01*
X112236347Y-88126719D02*
G75*
G03*
X117067099Y-89488017I3588353J3481819D01*
G01*
X109862277Y-81459895D02*
G75*
G03*
X90137723Y-81459895I-9862277J-18540105D01*
G01*
X87763653Y-111873281D02*
G75*
G03*
X82932901Y-110511983I-3588353J-3481819D01*
G01*
X110511994Y-82932904D02*
G75*
G03*
X109862277Y-81459896I-1261194J323504D01*
G01*
X111873281Y-112236347D02*
G75*
G03*
X110511983Y-117067099I3481819J-3588353D01*
G01*
X112236337Y-88126729D02*
G75*
G03*
X111873271Y-87763663I-12234337J-11871271D01*
G01*
X100000000Y-100000000D02*
X116516808Y-116516808D01*
X110511996Y-82932905D02*
G75*
G03*
X111873272Y-87763662I4843204J-1242395D01*
G01*
X100000000Y-100000000D02*
X122562379Y-93954429D01*
X100000000Y-100000000D02*
X120228876Y-88320853D01*
X109862271Y-118540094D02*
G75*
G03*
X110511982Y-117067099I-611471J1149494D01*
G01*
X100000000Y-100000000D02*
X79771124Y-88320853D01*
X90137729Y-81459906D02*
G75*
G03*
X89488018Y-82932901I611471J-1149494D01*
G01*
X81459895Y-90137723D02*
G75*
G03*
X81459895Y-109862277I18540105J-9862277D01*
G01*
X82932904Y-89488006D02*
G75*
G03*
X81459896Y-90137723I-323504J-1261194D01*
G01*
X89488006Y-117067096D02*
G75*
G03*
X90137723Y-118540104I1261194J-323504D01*
G01*
X100000000Y-100000000D02*
X111679147Y-120228876D01*
D12*
%TO.C,C21*%
X83138100Y-90200000D02*
G75*
G03*
X83138100Y-90200000I-238100J0D01*
G01*
X82900000Y-89882500D02*
X82900000Y-90517500D01*
X83217500Y-90200000D02*
X82582500Y-90200000D01*
%TO.C,C20*%
X80038100Y-94700000D02*
G75*
G03*
X80038100Y-94700000I-238100J0D01*
G01*
X79493319Y-94617825D02*
X80106681Y-94782175D01*
X79882175Y-94393319D02*
X79717825Y-95006681D01*
%TO.C,C19*%
X79238100Y-100000000D02*
G75*
G03*
X79238100Y-100000000I-238100J0D01*
G01*
X78682500Y-100000000D02*
X79317500Y-100000000D01*
X79000000Y-99682500D02*
X79000000Y-100317500D01*
%TO.C,C18*%
X80038100Y-105500000D02*
G75*
G03*
X80038100Y-105500000I-238100J0D01*
G01*
X79493319Y-105582175D02*
X80106681Y-105417825D01*
X79717825Y-105193319D02*
X79882175Y-105806681D01*
%TO.C,C17*%
X83538100Y-109700000D02*
G75*
G03*
X83538100Y-109700000I-238100J0D01*
G01*
X83300000Y-110017500D02*
X83300000Y-109382500D01*
X82982500Y-109700000D02*
X83617500Y-109700000D01*
%TO.C,C15*%
X90638100Y-116600000D02*
G75*
G03*
X90638100Y-116600000I-238100J0D01*
G01*
X90082500Y-116600000D02*
X90717500Y-116600000D01*
X90400000Y-116282500D02*
X90400000Y-116917500D01*
%TO.C,C14*%
X94838100Y-120200000D02*
G75*
G03*
X94838100Y-120200000I-238100J0D01*
G01*
X94517825Y-120506681D02*
X94682175Y-119893319D01*
X94293319Y-120117825D02*
X94906681Y-120282175D01*
%TO.C,C13*%
X100238100Y-121000000D02*
G75*
G03*
X100238100Y-121000000I-238100J0D01*
G01*
X100000000Y-121317500D02*
X100000000Y-120682500D01*
X99682500Y-121000000D02*
X100317500Y-121000000D01*
%TO.C,C12*%
X105638100Y-120300000D02*
G75*
G03*
X105638100Y-120300000I-238100J0D01*
G01*
X105482175Y-120606681D02*
X105317825Y-119993319D01*
X105093319Y-120382175D02*
X105706681Y-120217825D01*
%TO.C,C11*%
X109838100Y-116700000D02*
G75*
G03*
X109838100Y-116700000I-238100J0D01*
G01*
X109917500Y-116700000D02*
X109282500Y-116700000D01*
X109600000Y-117017500D02*
X109600000Y-116382500D01*
%TO.C,C9*%
X117138100Y-109500000D02*
G75*
G03*
X117138100Y-109500000I-238100J0D01*
G01*
X116900000Y-109817500D02*
X116900000Y-109182500D01*
X116582500Y-109500000D02*
X117217500Y-109500000D01*
%TO.C,C8*%
X120438100Y-105300000D02*
G75*
G03*
X120438100Y-105300000I-238100J0D01*
G01*
X120506681Y-105382175D02*
X119893319Y-105217825D01*
X120117825Y-105606681D02*
X120282175Y-104993319D01*
%TO.C,C7*%
X121238100Y-100000000D02*
G75*
G03*
X121238100Y-100000000I-238100J0D01*
G01*
X121317500Y-100000000D02*
X120682500Y-100000000D01*
X121000000Y-100317500D02*
X121000000Y-99682500D01*
%TO.C,C6*%
X120538100Y-94800000D02*
G75*
G03*
X120538100Y-94800000I-238100J0D01*
G01*
X120606681Y-94717825D02*
X119993319Y-94882175D01*
X120382175Y-95106681D02*
X120217825Y-94493319D01*
%TO.C,C5*%
X117138100Y-90200000D02*
G75*
G03*
X117138100Y-90200000I-238100J0D01*
G01*
X116900000Y-89882500D02*
X116900000Y-90517500D01*
X117217500Y-90200000D02*
X116582500Y-90200000D01*
%TO.C,C3*%
X110038100Y-82900000D02*
G75*
G03*
X110038100Y-82900000I-238100J0D01*
G01*
X110117500Y-82900000D02*
X109482500Y-82900000D01*
X109800000Y-83217500D02*
X109800000Y-82582500D01*
%TD*%
M02*
