%TF.GenerationSoftware,KiCad,Pcbnew,7.0.6*%
%TF.CreationDate,2023-08-09T16:46:37+09:30*%
%TF.ProjectId,interior-lighting,696e7465-7269-46f7-922d-6c6967687469,V1.0*%
%TF.SameCoordinates,Original*%
%TF.FileFunction,Drillmap*%
%TF.FilePolarity,Positive*%
%FSLAX45Y45*%
G04 Gerber Fmt 4.5, Leading zero omitted, Abs format (unit mm)*
G04 Created by KiCad (PCBNEW 7.0.6) date 2023-08-09 16:46:37*
%MOMM*%
%LPD*%
G01*
G04 APERTURE LIST*
%ADD10C,0.250000*%
%ADD11C,0.200000*%
%ADD12C,0.030000*%
G04 APERTURE END LIST*
D10*
X11669438Y-11195495D02*
G75*
G03*
X11986440Y-11055673I69622J271415D01*
G01*
X8803505Y-11668438D02*
G75*
G03*
X8708216Y-11330285I-339025J86968D01*
G01*
X10301341Y-11925581D02*
G75*
G03*
X10798352Y-11443311I-92731J592802D01*
G01*
X8943328Y-8012561D02*
G75*
G03*
X8803506Y-8329562I131592J-247379D01*
G01*
X11291783Y-11330284D02*
G75*
G03*
X11196494Y-11668438I243737J-251186D01*
G01*
X10301340Y-8072424D02*
G75*
G03*
X9698660Y-8072424I-301340J-1926575D01*
G01*
X8803505Y-11668438D02*
G75*
G03*
X8943327Y-11985440I271415J-69622D01*
G01*
X9201654Y-11443310D02*
G75*
G03*
X9698660Y-11925576I589726J110520D01*
G01*
X11926576Y-10300340D02*
G75*
G03*
X11926576Y-9697660I-1926576J301340D01*
G01*
X11669438Y-11195495D02*
G75*
G03*
X11331285Y-11290784I-86968J-339025D01*
G01*
X8955785Y-11012232D02*
G75*
G03*
X8986768Y-11043215I1043655J1012672D01*
G01*
X8986767Y-8954784D02*
G75*
G03*
X9201648Y-8554689I-522277J538254D01*
G01*
X11331284Y-8707217D02*
G75*
G03*
X11669438Y-8802506I251186J243737D01*
G01*
X11926581Y-9697659D02*
G75*
G03*
X11444311Y-9200648I-592802J-92731D01*
G01*
X8330562Y-8802505D02*
G75*
G03*
X8668715Y-8707216I86968J339025D01*
G01*
X8943327Y-11985440D02*
G75*
G03*
X11056673Y-11985440I1056673J1986440D01*
G01*
X11444311Y-10797351D02*
G75*
G03*
X11044215Y-11012232I138169J-737179D01*
G01*
X8330562Y-8802505D02*
G75*
G03*
X8013560Y-8942327I-69622J-271415D01*
G01*
X8986768Y-8954785D02*
G75*
G03*
X8955785Y-8985768I1012672J-1043655D01*
G01*
X8668715Y-11290784D02*
G75*
G03*
X8708216Y-11330285I1330855J1291354D01*
G01*
X11196495Y-8329562D02*
G75*
G03*
X11056673Y-8012560I-271415J69622D01*
G01*
X8073418Y-10300341D02*
G75*
G03*
X8555689Y-10797352I592802J92731D01*
G01*
X10798351Y-8554689D02*
G75*
G03*
X11013232Y-8954785I737179J138169D01*
G01*
X11044217Y-8985767D02*
G75*
G03*
X11444311Y-9200648I538253J522277D01*
G01*
X8708216Y-8667715D02*
G75*
G03*
X8668715Y-8707216I1291354J-1330855D01*
G01*
X9698660Y-11925576D02*
G75*
G03*
X10301340Y-11925576I301340J1926575D01*
G01*
X11013233Y-11043217D02*
G75*
G03*
X10798352Y-11443311I522277J-538253D01*
G01*
X8013561Y-11055672D02*
G75*
G03*
X8330562Y-11195494I247379J131592D01*
G01*
X11444310Y-10797346D02*
G75*
G03*
X11926576Y-10300340I-110520J589726D01*
G01*
X8555689Y-9200649D02*
G75*
G03*
X8955785Y-8985768I-138169J737179D01*
G01*
X8708217Y-8667716D02*
G75*
G03*
X8803506Y-8329562I-243737J251186D01*
G01*
X11291784Y-11330285D02*
G75*
G03*
X11331285Y-11290784I-1291354J1330855D01*
G01*
X11044215Y-8985768D02*
G75*
G03*
X11013232Y-8954785I-1043655J-1012672D01*
G01*
X8668716Y-11290783D02*
G75*
G03*
X8330562Y-11195494I-251186J-243737D01*
G01*
X10798346Y-8554690D02*
G75*
G03*
X10301340Y-8072424I-589726J-110520D01*
G01*
X11056672Y-11985439D02*
G75*
G03*
X11196494Y-11668438I-131592J247379D01*
G01*
X8955784Y-11012233D02*
G75*
G03*
X8555689Y-10797352I-538254J-522277D01*
G01*
X8555690Y-9200654D02*
G75*
G03*
X8073424Y-9697660I110520J-589726D01*
G01*
X9698660Y-8072424D02*
G75*
G03*
X9201648Y-8554689I92726J-592799D01*
G01*
X11331285Y-8707216D02*
G75*
G03*
X11291784Y-8667715I-1330855J-1291354D01*
G01*
X8073424Y-9697660D02*
G75*
G03*
X8073424Y-10300340I1926576J-301340D01*
G01*
X11196495Y-8329562D02*
G75*
G03*
X11291784Y-8667715I339025J-86968D01*
G01*
X11013232Y-11043215D02*
G75*
G03*
X11044215Y-11012232I-1012672J1043655D01*
G01*
X9201649Y-11443311D02*
G75*
G03*
X8986768Y-11043215I-737179J-138169D01*
G01*
X8013560Y-8942327D02*
G75*
G03*
X8013560Y-11055673I1986440J-1056673D01*
G01*
X11986440Y-11055673D02*
G75*
G03*
X11986440Y-8942327I-1986440J1056673D01*
G01*
X11056673Y-8012560D02*
G75*
G03*
X8943327Y-8012560I-1056673J-1986440D01*
G01*
X11986439Y-8942328D02*
G75*
G03*
X11669438Y-8802506I-247379J-131592D01*
G01*
D11*
D12*
X7915000Y-9685000D02*
X7945000Y-9715000D01*
X7945000Y-9685000D02*
X7915000Y-9715000D01*
X7915000Y-10235000D02*
X7945000Y-10265000D01*
X7945000Y-10235000D02*
X7915000Y-10265000D01*
X7975000Y-9775000D02*
X8005000Y-9805000D01*
X8005000Y-9775000D02*
X7975000Y-9805000D01*
X7995000Y-10305000D02*
X8025000Y-10335000D01*
X8025000Y-10305000D02*
X7995000Y-10335000D01*
X8065000Y-10735000D02*
X8095000Y-10765000D01*
X8095000Y-10735000D02*
X8065000Y-10765000D01*
X8105000Y-9265000D02*
X8135000Y-9295000D01*
X8135000Y-9265000D02*
X8105000Y-9295000D01*
X8125000Y-9125000D02*
X8155000Y-9155000D01*
X8155000Y-9125000D02*
X8125000Y-9155000D01*
X8175000Y-10755000D02*
X8205000Y-10785000D01*
X8205000Y-10755000D02*
X8175000Y-10785000D01*
X8505000Y-9085000D02*
X8535000Y-9115000D01*
X8535000Y-9085000D02*
X8505000Y-9115000D01*
X8505000Y-10905000D02*
X8535000Y-10935000D01*
X8535000Y-10905000D02*
X8505000Y-10935000D01*
X8725000Y-10945000D02*
X8755000Y-10975000D01*
X8755000Y-10945000D02*
X8725000Y-10975000D01*
X8795000Y-8790000D02*
X8825000Y-8820000D01*
X8825000Y-8790000D02*
X8795000Y-8820000D01*
X8985000Y-11255000D02*
X9015000Y-11285000D01*
X9015000Y-11255000D02*
X8985000Y-11285000D01*
X9025000Y-8725000D02*
X9055000Y-8755000D01*
X9055000Y-8725000D02*
X9025000Y-8755000D01*
X9060000Y-8290000D02*
X9090000Y-8320000D01*
X9090000Y-8290000D02*
X9060000Y-8320000D01*
X9115000Y-11455000D02*
X9145000Y-11485000D01*
X9145000Y-11455000D02*
X9115000Y-11485000D01*
X9155000Y-11835000D02*
X9185000Y-11865000D01*
X9185000Y-11835000D02*
X9155000Y-11865000D01*
X9185000Y-8095000D02*
X9215000Y-8125000D01*
X9215000Y-8095000D02*
X9185000Y-8125000D01*
X9225000Y-8205000D02*
X9255000Y-8235000D01*
X9255000Y-8205000D02*
X9225000Y-8235000D01*
X9275000Y-11865000D02*
X9305000Y-11895000D01*
X9305000Y-11865000D02*
X9275000Y-11895000D01*
X9435000Y-7915000D02*
X9465000Y-7945000D01*
X9465000Y-7915000D02*
X9435000Y-7945000D01*
X9485000Y-8045000D02*
X9515000Y-8075000D01*
X9515000Y-8045000D02*
X9485000Y-8075000D01*
X9645000Y-7895000D02*
X9675000Y-7925000D01*
X9675000Y-7895000D02*
X9645000Y-7925000D01*
X9695000Y-12045000D02*
X9725000Y-12075000D01*
X9725000Y-12045000D02*
X9695000Y-12075000D01*
X9730000Y-7990000D02*
X9760000Y-8020000D01*
X9760000Y-7990000D02*
X9730000Y-8020000D01*
X9765000Y-7805000D02*
X9795000Y-7835000D01*
X9795000Y-7805000D02*
X9765000Y-7835000D01*
X9795000Y-11995000D02*
X9825000Y-12025000D01*
X9825000Y-11995000D02*
X9795000Y-12025000D01*
X9985000Y-7845000D02*
X10015000Y-7875000D01*
X10015000Y-7845000D02*
X9985000Y-7875000D01*
X10215000Y-12055000D02*
X10245000Y-12085000D01*
X10245000Y-12055000D02*
X10215000Y-12085000D01*
X10235000Y-7895000D02*
X10265000Y-7925000D01*
X10265000Y-7895000D02*
X10235000Y-7925000D01*
X10275000Y-7985000D02*
X10305000Y-8015000D01*
X10305000Y-7985000D02*
X10275000Y-8015000D01*
X10325000Y-11965000D02*
X10355000Y-11995000D01*
X10355000Y-11965000D02*
X10325000Y-11995000D01*
X10695000Y-8105000D02*
X10725000Y-8135000D01*
X10725000Y-8105000D02*
X10695000Y-8135000D01*
X10725000Y-11885000D02*
X10755000Y-11915000D01*
X10755000Y-11885000D02*
X10725000Y-11915000D01*
X10755000Y-11785000D02*
X10785000Y-11815000D01*
X10785000Y-11785000D02*
X10755000Y-11815000D01*
X10825000Y-8125000D02*
X10855000Y-8155000D01*
X10855000Y-8125000D02*
X10825000Y-8155000D01*
X10875000Y-8505000D02*
X10905000Y-8535000D01*
X10905000Y-8505000D02*
X10875000Y-8535000D01*
X10905000Y-11435000D02*
X10935000Y-11465000D01*
X10935000Y-11435000D02*
X10905000Y-11465000D01*
X10945000Y-11235000D02*
X10975000Y-11265000D01*
X10975000Y-11235000D02*
X10945000Y-11265000D01*
X10985000Y-8715000D02*
X11015000Y-8745000D01*
X11015000Y-8715000D02*
X10985000Y-8745000D01*
X11245000Y-9025000D02*
X11275000Y-9055000D01*
X11275000Y-9025000D02*
X11245000Y-9055000D01*
X11355000Y-10935000D02*
X11385000Y-10965000D01*
X11385000Y-10935000D02*
X11355000Y-10965000D01*
X11445000Y-10855000D02*
X11475000Y-10885000D01*
X11475000Y-10855000D02*
X11445000Y-10885000D01*
X11465000Y-9065000D02*
X11495000Y-9095000D01*
X11495000Y-9065000D02*
X11465000Y-9095000D01*
X11755000Y-9225000D02*
X11785000Y-9255000D01*
X11785000Y-9225000D02*
X11755000Y-9255000D01*
X11815000Y-10685000D02*
X11845000Y-10715000D01*
X11845000Y-10685000D02*
X11815000Y-10715000D01*
X11835000Y-10815000D02*
X11865000Y-10845000D01*
X11865000Y-10815000D02*
X11835000Y-10845000D01*
X11865000Y-9205000D02*
X11895000Y-9235000D01*
X11895000Y-9205000D02*
X11865000Y-9235000D01*
X11975000Y-9655000D02*
X12005000Y-9685000D01*
X12005000Y-9655000D02*
X11975000Y-9685000D01*
X11995000Y-10185000D02*
X12025000Y-10215000D01*
X12025000Y-10185000D02*
X11995000Y-10215000D01*
X12055000Y-10295000D02*
X12085000Y-10325000D01*
X12085000Y-10295000D02*
X12055000Y-10325000D01*
X12065000Y-9745000D02*
X12095000Y-9775000D01*
X12095000Y-9745000D02*
X12065000Y-9775000D01*
D11*
X7998277Y-12572984D02*
X7998277Y-12372984D01*
X7998277Y-12372984D02*
X8045896Y-12372984D01*
X8045896Y-12372984D02*
X8074467Y-12382508D01*
X8074467Y-12382508D02*
X8093515Y-12401555D01*
X8093515Y-12401555D02*
X8103039Y-12420603D01*
X8103039Y-12420603D02*
X8112562Y-12458698D01*
X8112562Y-12458698D02*
X8112562Y-12487269D01*
X8112562Y-12487269D02*
X8103039Y-12525365D01*
X8103039Y-12525365D02*
X8093515Y-12544412D01*
X8093515Y-12544412D02*
X8074467Y-12563460D01*
X8074467Y-12563460D02*
X8045896Y-12572984D01*
X8045896Y-12572984D02*
X7998277Y-12572984D01*
X8198277Y-12572984D02*
X8198277Y-12439650D01*
X8198277Y-12477746D02*
X8207801Y-12458698D01*
X8207801Y-12458698D02*
X8217324Y-12449174D01*
X8217324Y-12449174D02*
X8236372Y-12439650D01*
X8236372Y-12439650D02*
X8255420Y-12439650D01*
X8322086Y-12572984D02*
X8322086Y-12439650D01*
X8322086Y-12372984D02*
X8312562Y-12382508D01*
X8312562Y-12382508D02*
X8322086Y-12392031D01*
X8322086Y-12392031D02*
X8331610Y-12382508D01*
X8331610Y-12382508D02*
X8322086Y-12372984D01*
X8322086Y-12372984D02*
X8322086Y-12392031D01*
X8445896Y-12572984D02*
X8426848Y-12563460D01*
X8426848Y-12563460D02*
X8417324Y-12544412D01*
X8417324Y-12544412D02*
X8417324Y-12372984D01*
X8550658Y-12572984D02*
X8531610Y-12563460D01*
X8531610Y-12563460D02*
X8522086Y-12544412D01*
X8522086Y-12544412D02*
X8522086Y-12372984D01*
X8779229Y-12572984D02*
X8779229Y-12372984D01*
X8779229Y-12372984D02*
X8845896Y-12515841D01*
X8845896Y-12515841D02*
X8912563Y-12372984D01*
X8912563Y-12372984D02*
X8912563Y-12572984D01*
X9093515Y-12572984D02*
X9093515Y-12468222D01*
X9093515Y-12468222D02*
X9083991Y-12449174D01*
X9083991Y-12449174D02*
X9064944Y-12439650D01*
X9064944Y-12439650D02*
X9026848Y-12439650D01*
X9026848Y-12439650D02*
X9007801Y-12449174D01*
X9093515Y-12563460D02*
X9074467Y-12572984D01*
X9074467Y-12572984D02*
X9026848Y-12572984D01*
X9026848Y-12572984D02*
X9007801Y-12563460D01*
X9007801Y-12563460D02*
X8998277Y-12544412D01*
X8998277Y-12544412D02*
X8998277Y-12525365D01*
X8998277Y-12525365D02*
X9007801Y-12506317D01*
X9007801Y-12506317D02*
X9026848Y-12496793D01*
X9026848Y-12496793D02*
X9074467Y-12496793D01*
X9074467Y-12496793D02*
X9093515Y-12487269D01*
X9188753Y-12439650D02*
X9188753Y-12639650D01*
X9188753Y-12449174D02*
X9207801Y-12439650D01*
X9207801Y-12439650D02*
X9245896Y-12439650D01*
X9245896Y-12439650D02*
X9264944Y-12449174D01*
X9264944Y-12449174D02*
X9274467Y-12458698D01*
X9274467Y-12458698D02*
X9283991Y-12477746D01*
X9283991Y-12477746D02*
X9283991Y-12534888D01*
X9283991Y-12534888D02*
X9274467Y-12553936D01*
X9274467Y-12553936D02*
X9264944Y-12563460D01*
X9264944Y-12563460D02*
X9245896Y-12572984D01*
X9245896Y-12572984D02*
X9207801Y-12572984D01*
X9207801Y-12572984D02*
X9188753Y-12563460D01*
X9369705Y-12553936D02*
X9379229Y-12563460D01*
X9379229Y-12563460D02*
X9369705Y-12572984D01*
X9369705Y-12572984D02*
X9360182Y-12563460D01*
X9360182Y-12563460D02*
X9369705Y-12553936D01*
X9369705Y-12553936D02*
X9369705Y-12572984D01*
X9369705Y-12449174D02*
X9379229Y-12458698D01*
X9379229Y-12458698D02*
X9369705Y-12468222D01*
X9369705Y-12468222D02*
X9360182Y-12458698D01*
X9360182Y-12458698D02*
X9369705Y-12449174D01*
X9369705Y-12449174D02*
X9369705Y-12468222D01*
D12*
X7707500Y-12886500D02*
X7737500Y-12916500D01*
X7737500Y-12886500D02*
X7707500Y-12916500D01*
D11*
X8036372Y-12792984D02*
X8055420Y-12792984D01*
X8055420Y-12792984D02*
X8074467Y-12802508D01*
X8074467Y-12802508D02*
X8083991Y-12812031D01*
X8083991Y-12812031D02*
X8093515Y-12831079D01*
X8093515Y-12831079D02*
X8103039Y-12869174D01*
X8103039Y-12869174D02*
X8103039Y-12916793D01*
X8103039Y-12916793D02*
X8093515Y-12954888D01*
X8093515Y-12954888D02*
X8083991Y-12973936D01*
X8083991Y-12973936D02*
X8074467Y-12983460D01*
X8074467Y-12983460D02*
X8055420Y-12992984D01*
X8055420Y-12992984D02*
X8036372Y-12992984D01*
X8036372Y-12992984D02*
X8017324Y-12983460D01*
X8017324Y-12983460D02*
X8007801Y-12973936D01*
X8007801Y-12973936D02*
X7998277Y-12954888D01*
X7998277Y-12954888D02*
X7988753Y-12916793D01*
X7988753Y-12916793D02*
X7988753Y-12869174D01*
X7988753Y-12869174D02*
X7998277Y-12831079D01*
X7998277Y-12831079D02*
X8007801Y-12812031D01*
X8007801Y-12812031D02*
X8017324Y-12802508D01*
X8017324Y-12802508D02*
X8036372Y-12792984D01*
X8188753Y-12973936D02*
X8198277Y-12983460D01*
X8198277Y-12983460D02*
X8188753Y-12992984D01*
X8188753Y-12992984D02*
X8179229Y-12983460D01*
X8179229Y-12983460D02*
X8188753Y-12973936D01*
X8188753Y-12973936D02*
X8188753Y-12992984D01*
X8264943Y-12792984D02*
X8388753Y-12792984D01*
X8388753Y-12792984D02*
X8322086Y-12869174D01*
X8322086Y-12869174D02*
X8350658Y-12869174D01*
X8350658Y-12869174D02*
X8369705Y-12878698D01*
X8369705Y-12878698D02*
X8379229Y-12888222D01*
X8379229Y-12888222D02*
X8388753Y-12907269D01*
X8388753Y-12907269D02*
X8388753Y-12954888D01*
X8388753Y-12954888D02*
X8379229Y-12973936D01*
X8379229Y-12973936D02*
X8369705Y-12983460D01*
X8369705Y-12983460D02*
X8350658Y-12992984D01*
X8350658Y-12992984D02*
X8293515Y-12992984D01*
X8293515Y-12992984D02*
X8274467Y-12983460D01*
X8274467Y-12983460D02*
X8264943Y-12973936D01*
X8512563Y-12792984D02*
X8531610Y-12792984D01*
X8531610Y-12792984D02*
X8550658Y-12802508D01*
X8550658Y-12802508D02*
X8560182Y-12812031D01*
X8560182Y-12812031D02*
X8569705Y-12831079D01*
X8569705Y-12831079D02*
X8579229Y-12869174D01*
X8579229Y-12869174D02*
X8579229Y-12916793D01*
X8579229Y-12916793D02*
X8569705Y-12954888D01*
X8569705Y-12954888D02*
X8560182Y-12973936D01*
X8560182Y-12973936D02*
X8550658Y-12983460D01*
X8550658Y-12983460D02*
X8531610Y-12992984D01*
X8531610Y-12992984D02*
X8512563Y-12992984D01*
X8512563Y-12992984D02*
X8493515Y-12983460D01*
X8493515Y-12983460D02*
X8483991Y-12973936D01*
X8483991Y-12973936D02*
X8474467Y-12954888D01*
X8474467Y-12954888D02*
X8464944Y-12916793D01*
X8464944Y-12916793D02*
X8464944Y-12869174D01*
X8464944Y-12869174D02*
X8474467Y-12831079D01*
X8474467Y-12831079D02*
X8483991Y-12812031D01*
X8483991Y-12812031D02*
X8493515Y-12802508D01*
X8493515Y-12802508D02*
X8512563Y-12792984D01*
X8703039Y-12792984D02*
X8722086Y-12792984D01*
X8722086Y-12792984D02*
X8741134Y-12802508D01*
X8741134Y-12802508D02*
X8750658Y-12812031D01*
X8750658Y-12812031D02*
X8760182Y-12831079D01*
X8760182Y-12831079D02*
X8769705Y-12869174D01*
X8769705Y-12869174D02*
X8769705Y-12916793D01*
X8769705Y-12916793D02*
X8760182Y-12954888D01*
X8760182Y-12954888D02*
X8750658Y-12973936D01*
X8750658Y-12973936D02*
X8741134Y-12983460D01*
X8741134Y-12983460D02*
X8722086Y-12992984D01*
X8722086Y-12992984D02*
X8703039Y-12992984D01*
X8703039Y-12992984D02*
X8683991Y-12983460D01*
X8683991Y-12983460D02*
X8674467Y-12973936D01*
X8674467Y-12973936D02*
X8664944Y-12954888D01*
X8664944Y-12954888D02*
X8655420Y-12916793D01*
X8655420Y-12916793D02*
X8655420Y-12869174D01*
X8655420Y-12869174D02*
X8664944Y-12831079D01*
X8664944Y-12831079D02*
X8674467Y-12812031D01*
X8674467Y-12812031D02*
X8683991Y-12802508D01*
X8683991Y-12802508D02*
X8703039Y-12792984D01*
X8855420Y-12992984D02*
X8855420Y-12859650D01*
X8855420Y-12878698D02*
X8864944Y-12869174D01*
X8864944Y-12869174D02*
X8883991Y-12859650D01*
X8883991Y-12859650D02*
X8912563Y-12859650D01*
X8912563Y-12859650D02*
X8931610Y-12869174D01*
X8931610Y-12869174D02*
X8941134Y-12888222D01*
X8941134Y-12888222D02*
X8941134Y-12992984D01*
X8941134Y-12888222D02*
X8950658Y-12869174D01*
X8950658Y-12869174D02*
X8969705Y-12859650D01*
X8969705Y-12859650D02*
X8998277Y-12859650D01*
X8998277Y-12859650D02*
X9017325Y-12869174D01*
X9017325Y-12869174D02*
X9026848Y-12888222D01*
X9026848Y-12888222D02*
X9026848Y-12992984D01*
X9122086Y-12992984D02*
X9122086Y-12859650D01*
X9122086Y-12878698D02*
X9131610Y-12869174D01*
X9131610Y-12869174D02*
X9150658Y-12859650D01*
X9150658Y-12859650D02*
X9179229Y-12859650D01*
X9179229Y-12859650D02*
X9198277Y-12869174D01*
X9198277Y-12869174D02*
X9207801Y-12888222D01*
X9207801Y-12888222D02*
X9207801Y-12992984D01*
X9207801Y-12888222D02*
X9217325Y-12869174D01*
X9217325Y-12869174D02*
X9236372Y-12859650D01*
X9236372Y-12859650D02*
X9264944Y-12859650D01*
X9264944Y-12859650D02*
X9283991Y-12869174D01*
X9283991Y-12869174D02*
X9293515Y-12888222D01*
X9293515Y-12888222D02*
X9293515Y-12992984D01*
X9683991Y-12783460D02*
X9512563Y-13040603D01*
X9941134Y-12792984D02*
X9960182Y-12792984D01*
X9960182Y-12792984D02*
X9979229Y-12802508D01*
X9979229Y-12802508D02*
X9988753Y-12812031D01*
X9988753Y-12812031D02*
X9998277Y-12831079D01*
X9998277Y-12831079D02*
X10007801Y-12869174D01*
X10007801Y-12869174D02*
X10007801Y-12916793D01*
X10007801Y-12916793D02*
X9998277Y-12954888D01*
X9998277Y-12954888D02*
X9988753Y-12973936D01*
X9988753Y-12973936D02*
X9979229Y-12983460D01*
X9979229Y-12983460D02*
X9960182Y-12992984D01*
X9960182Y-12992984D02*
X9941134Y-12992984D01*
X9941134Y-12992984D02*
X9922087Y-12983460D01*
X9922087Y-12983460D02*
X9912563Y-12973936D01*
X9912563Y-12973936D02*
X9903039Y-12954888D01*
X9903039Y-12954888D02*
X9893515Y-12916793D01*
X9893515Y-12916793D02*
X9893515Y-12869174D01*
X9893515Y-12869174D02*
X9903039Y-12831079D01*
X9903039Y-12831079D02*
X9912563Y-12812031D01*
X9912563Y-12812031D02*
X9922087Y-12802508D01*
X9922087Y-12802508D02*
X9941134Y-12792984D01*
X10093515Y-12973936D02*
X10103039Y-12983460D01*
X10103039Y-12983460D02*
X10093515Y-12992984D01*
X10093515Y-12992984D02*
X10083991Y-12983460D01*
X10083991Y-12983460D02*
X10093515Y-12973936D01*
X10093515Y-12973936D02*
X10093515Y-12992984D01*
X10226848Y-12792984D02*
X10245896Y-12792984D01*
X10245896Y-12792984D02*
X10264944Y-12802508D01*
X10264944Y-12802508D02*
X10274468Y-12812031D01*
X10274468Y-12812031D02*
X10283991Y-12831079D01*
X10283991Y-12831079D02*
X10293515Y-12869174D01*
X10293515Y-12869174D02*
X10293515Y-12916793D01*
X10293515Y-12916793D02*
X10283991Y-12954888D01*
X10283991Y-12954888D02*
X10274468Y-12973936D01*
X10274468Y-12973936D02*
X10264944Y-12983460D01*
X10264944Y-12983460D02*
X10245896Y-12992984D01*
X10245896Y-12992984D02*
X10226848Y-12992984D01*
X10226848Y-12992984D02*
X10207801Y-12983460D01*
X10207801Y-12983460D02*
X10198277Y-12973936D01*
X10198277Y-12973936D02*
X10188753Y-12954888D01*
X10188753Y-12954888D02*
X10179229Y-12916793D01*
X10179229Y-12916793D02*
X10179229Y-12869174D01*
X10179229Y-12869174D02*
X10188753Y-12831079D01*
X10188753Y-12831079D02*
X10198277Y-12812031D01*
X10198277Y-12812031D02*
X10207801Y-12802508D01*
X10207801Y-12802508D02*
X10226848Y-12792984D01*
X10483991Y-12992984D02*
X10369706Y-12992984D01*
X10426848Y-12992984D02*
X10426848Y-12792984D01*
X10426848Y-12792984D02*
X10407801Y-12821555D01*
X10407801Y-12821555D02*
X10388753Y-12840603D01*
X10388753Y-12840603D02*
X10369706Y-12850127D01*
X10674468Y-12992984D02*
X10560182Y-12992984D01*
X10617325Y-12992984D02*
X10617325Y-12792984D01*
X10617325Y-12792984D02*
X10598277Y-12821555D01*
X10598277Y-12821555D02*
X10579229Y-12840603D01*
X10579229Y-12840603D02*
X10560182Y-12850127D01*
X10788753Y-12878698D02*
X10769706Y-12869174D01*
X10769706Y-12869174D02*
X10760182Y-12859650D01*
X10760182Y-12859650D02*
X10750658Y-12840603D01*
X10750658Y-12840603D02*
X10750658Y-12831079D01*
X10750658Y-12831079D02*
X10760182Y-12812031D01*
X10760182Y-12812031D02*
X10769706Y-12802508D01*
X10769706Y-12802508D02*
X10788753Y-12792984D01*
X10788753Y-12792984D02*
X10826849Y-12792984D01*
X10826849Y-12792984D02*
X10845896Y-12802508D01*
X10845896Y-12802508D02*
X10855420Y-12812031D01*
X10855420Y-12812031D02*
X10864944Y-12831079D01*
X10864944Y-12831079D02*
X10864944Y-12840603D01*
X10864944Y-12840603D02*
X10855420Y-12859650D01*
X10855420Y-12859650D02*
X10845896Y-12869174D01*
X10845896Y-12869174D02*
X10826849Y-12878698D01*
X10826849Y-12878698D02*
X10788753Y-12878698D01*
X10788753Y-12878698D02*
X10769706Y-12888222D01*
X10769706Y-12888222D02*
X10760182Y-12897746D01*
X10760182Y-12897746D02*
X10750658Y-12916793D01*
X10750658Y-12916793D02*
X10750658Y-12954888D01*
X10750658Y-12954888D02*
X10760182Y-12973936D01*
X10760182Y-12973936D02*
X10769706Y-12983460D01*
X10769706Y-12983460D02*
X10788753Y-12992984D01*
X10788753Y-12992984D02*
X10826849Y-12992984D01*
X10826849Y-12992984D02*
X10845896Y-12983460D01*
X10845896Y-12983460D02*
X10855420Y-12973936D01*
X10855420Y-12973936D02*
X10864944Y-12954888D01*
X10864944Y-12954888D02*
X10864944Y-12916793D01*
X10864944Y-12916793D02*
X10855420Y-12897746D01*
X10855420Y-12897746D02*
X10845896Y-12888222D01*
X10845896Y-12888222D02*
X10826849Y-12878698D01*
X10941134Y-12792984D02*
X10941134Y-12831079D01*
X11017325Y-12792984D02*
X11017325Y-12831079D01*
X11312563Y-13069174D02*
X11303039Y-13059650D01*
X11303039Y-13059650D02*
X11283991Y-13031079D01*
X11283991Y-13031079D02*
X11274468Y-13012031D01*
X11274468Y-13012031D02*
X11264944Y-12983460D01*
X11264944Y-12983460D02*
X11255420Y-12935841D01*
X11255420Y-12935841D02*
X11255420Y-12897746D01*
X11255420Y-12897746D02*
X11264944Y-12850127D01*
X11264944Y-12850127D02*
X11274468Y-12821555D01*
X11274468Y-12821555D02*
X11283991Y-12802508D01*
X11283991Y-12802508D02*
X11303039Y-12773936D01*
X11303039Y-12773936D02*
X11312563Y-12764412D01*
X11483991Y-12792984D02*
X11388753Y-12792984D01*
X11388753Y-12792984D02*
X11379229Y-12888222D01*
X11379229Y-12888222D02*
X11388753Y-12878698D01*
X11388753Y-12878698D02*
X11407801Y-12869174D01*
X11407801Y-12869174D02*
X11455420Y-12869174D01*
X11455420Y-12869174D02*
X11474468Y-12878698D01*
X11474468Y-12878698D02*
X11483991Y-12888222D01*
X11483991Y-12888222D02*
X11493515Y-12907269D01*
X11493515Y-12907269D02*
X11493515Y-12954888D01*
X11493515Y-12954888D02*
X11483991Y-12973936D01*
X11483991Y-12973936D02*
X11474468Y-12983460D01*
X11474468Y-12983460D02*
X11455420Y-12992984D01*
X11455420Y-12992984D02*
X11407801Y-12992984D01*
X11407801Y-12992984D02*
X11388753Y-12983460D01*
X11388753Y-12983460D02*
X11379229Y-12973936D01*
X11569706Y-12812031D02*
X11579229Y-12802508D01*
X11579229Y-12802508D02*
X11598277Y-12792984D01*
X11598277Y-12792984D02*
X11645896Y-12792984D01*
X11645896Y-12792984D02*
X11664944Y-12802508D01*
X11664944Y-12802508D02*
X11674468Y-12812031D01*
X11674468Y-12812031D02*
X11683991Y-12831079D01*
X11683991Y-12831079D02*
X11683991Y-12850127D01*
X11683991Y-12850127D02*
X11674468Y-12878698D01*
X11674468Y-12878698D02*
X11560182Y-12992984D01*
X11560182Y-12992984D02*
X11683991Y-12992984D01*
X11922087Y-12992984D02*
X11922087Y-12792984D01*
X12007801Y-12992984D02*
X12007801Y-12888222D01*
X12007801Y-12888222D02*
X11998277Y-12869174D01*
X11998277Y-12869174D02*
X11979230Y-12859650D01*
X11979230Y-12859650D02*
X11950658Y-12859650D01*
X11950658Y-12859650D02*
X11931610Y-12869174D01*
X11931610Y-12869174D02*
X11922087Y-12878698D01*
X12131610Y-12992984D02*
X12112563Y-12983460D01*
X12112563Y-12983460D02*
X12103039Y-12973936D01*
X12103039Y-12973936D02*
X12093515Y-12954888D01*
X12093515Y-12954888D02*
X12093515Y-12897746D01*
X12093515Y-12897746D02*
X12103039Y-12878698D01*
X12103039Y-12878698D02*
X12112563Y-12869174D01*
X12112563Y-12869174D02*
X12131610Y-12859650D01*
X12131610Y-12859650D02*
X12160182Y-12859650D01*
X12160182Y-12859650D02*
X12179230Y-12869174D01*
X12179230Y-12869174D02*
X12188753Y-12878698D01*
X12188753Y-12878698D02*
X12198277Y-12897746D01*
X12198277Y-12897746D02*
X12198277Y-12954888D01*
X12198277Y-12954888D02*
X12188753Y-12973936D01*
X12188753Y-12973936D02*
X12179230Y-12983460D01*
X12179230Y-12983460D02*
X12160182Y-12992984D01*
X12160182Y-12992984D02*
X12131610Y-12992984D01*
X12312563Y-12992984D02*
X12293515Y-12983460D01*
X12293515Y-12983460D02*
X12283991Y-12964412D01*
X12283991Y-12964412D02*
X12283991Y-12792984D01*
X12464944Y-12983460D02*
X12445896Y-12992984D01*
X12445896Y-12992984D02*
X12407801Y-12992984D01*
X12407801Y-12992984D02*
X12388753Y-12983460D01*
X12388753Y-12983460D02*
X12379230Y-12964412D01*
X12379230Y-12964412D02*
X12379230Y-12888222D01*
X12379230Y-12888222D02*
X12388753Y-12869174D01*
X12388753Y-12869174D02*
X12407801Y-12859650D01*
X12407801Y-12859650D02*
X12445896Y-12859650D01*
X12445896Y-12859650D02*
X12464944Y-12869174D01*
X12464944Y-12869174D02*
X12474468Y-12888222D01*
X12474468Y-12888222D02*
X12474468Y-12907269D01*
X12474468Y-12907269D02*
X12379230Y-12926317D01*
X12550658Y-12983460D02*
X12569706Y-12992984D01*
X12569706Y-12992984D02*
X12607801Y-12992984D01*
X12607801Y-12992984D02*
X12626849Y-12983460D01*
X12626849Y-12983460D02*
X12636372Y-12964412D01*
X12636372Y-12964412D02*
X12636372Y-12954888D01*
X12636372Y-12954888D02*
X12626849Y-12935841D01*
X12626849Y-12935841D02*
X12607801Y-12926317D01*
X12607801Y-12926317D02*
X12579230Y-12926317D01*
X12579230Y-12926317D02*
X12560182Y-12916793D01*
X12560182Y-12916793D02*
X12550658Y-12897746D01*
X12550658Y-12897746D02*
X12550658Y-12888222D01*
X12550658Y-12888222D02*
X12560182Y-12869174D01*
X12560182Y-12869174D02*
X12579230Y-12859650D01*
X12579230Y-12859650D02*
X12607801Y-12859650D01*
X12607801Y-12859650D02*
X12626849Y-12869174D01*
X12703039Y-13069174D02*
X12712563Y-13059650D01*
X12712563Y-13059650D02*
X12731611Y-13031079D01*
X12731611Y-13031079D02*
X12741134Y-13012031D01*
X12741134Y-13012031D02*
X12750658Y-12983460D01*
X12750658Y-12983460D02*
X12760182Y-12935841D01*
X12760182Y-12935841D02*
X12760182Y-12897746D01*
X12760182Y-12897746D02*
X12750658Y-12850127D01*
X12750658Y-12850127D02*
X12741134Y-12821555D01*
X12741134Y-12821555D02*
X12731611Y-12802508D01*
X12731611Y-12802508D02*
X12712563Y-12773936D01*
X12712563Y-12773936D02*
X12703039Y-12764412D01*
M02*
