%TF.GenerationSoftware,KiCad,Pcbnew,7.0.6*%
%TF.CreationDate,2023-08-09T16:46:25+09:30*%
%TF.ProjectId,interior-lighting,696e7465-7269-46f7-922d-6c6967687469,V1.0*%
%TF.SameCoordinates,Original*%
%TF.FileFunction,Legend,Bot*%
%TF.FilePolarity,Positive*%
%FSLAX46Y46*%
G04 Gerber Fmt 4.6, Leading zero omitted, Abs format (unit mm)*
G04 Created by KiCad (PCBNEW 7.0.6) date 2023-08-09 16:46:25*
%MOMM*%
%LPD*%
G01*
G04 APERTURE LIST*
%ADD10C,0.200000*%
%ADD11C,0.150000*%
%ADD12C,0.100000*%
G04 APERTURE END LIST*
D10*
X86180049Y-109887090D02*
X86287799Y-109940965D01*
X86287799Y-109940965D02*
X86422486Y-110075652D01*
X86422486Y-110075652D02*
X86449423Y-110156464D01*
X86449423Y-110156464D02*
X86449423Y-110210339D01*
X86449423Y-110210339D02*
X86422486Y-110291151D01*
X86422486Y-110291151D02*
X86368611Y-110345026D01*
X86368611Y-110345026D02*
X86287799Y-110371963D01*
X86287799Y-110371963D02*
X86233924Y-110371963D01*
X86233924Y-110371963D02*
X86153112Y-110345026D01*
X86153112Y-110345026D02*
X86018425Y-110264213D01*
X86018425Y-110264213D02*
X85937612Y-110237276D01*
X85937612Y-110237276D02*
X85883738Y-110237276D01*
X85883738Y-110237276D02*
X85802925Y-110264213D01*
X85802925Y-110264213D02*
X85749051Y-110318088D01*
X85749051Y-110318088D02*
X85722113Y-110398901D01*
X85722113Y-110398901D02*
X85722113Y-110452775D01*
X85722113Y-110452775D02*
X85749051Y-110533588D01*
X85749051Y-110533588D02*
X85883738Y-110668275D01*
X85883738Y-110668275D02*
X85991487Y-110722149D01*
X86718797Y-110479713D02*
X86772672Y-110479713D01*
X86772672Y-110479713D02*
X86772672Y-110425838D01*
X86772672Y-110425838D02*
X86718797Y-110425838D01*
X86718797Y-110425838D02*
X86718797Y-110479713D01*
X86718797Y-110479713D02*
X86772672Y-110425838D01*
X87365295Y-111018461D02*
X86907359Y-111099273D01*
X87042046Y-110695212D02*
X86476360Y-111260897D01*
X86476360Y-111260897D02*
X86691860Y-111476396D01*
X86691860Y-111476396D02*
X86772672Y-111503334D01*
X86772672Y-111503334D02*
X86826547Y-111503334D01*
X86826547Y-111503334D02*
X86907359Y-111476396D01*
X86907359Y-111476396D02*
X86988171Y-111395584D01*
X86988171Y-111395584D02*
X87015108Y-111314772D01*
X87015108Y-111314772D02*
X87015108Y-111260897D01*
X87015108Y-111260897D02*
X86988171Y-111180085D01*
X86988171Y-111180085D02*
X86772672Y-110964586D01*
X87419169Y-111395584D02*
X87688543Y-111664958D01*
X87526919Y-111180085D02*
X87149795Y-111934332D01*
X87149795Y-111934332D02*
X87904043Y-111557209D01*
X88092604Y-111745770D02*
X87526919Y-112311456D01*
X87526919Y-112311456D02*
X87742418Y-112526955D01*
X87742418Y-112526955D02*
X87823230Y-112553892D01*
X87823230Y-112553892D02*
X87877105Y-112553892D01*
X87877105Y-112553892D02*
X87957917Y-112526955D01*
X87957917Y-112526955D02*
X88038729Y-112446143D01*
X88038729Y-112446143D02*
X88065667Y-112365330D01*
X88065667Y-112365330D02*
X88065667Y-112311456D01*
X88065667Y-112311456D02*
X88038729Y-112230643D01*
X88038729Y-112230643D02*
X87823230Y-112015144D01*
X88604415Y-112311456D02*
X88712164Y-112365330D01*
X88712164Y-112365330D02*
X88846851Y-112500017D01*
X88846851Y-112500017D02*
X88873789Y-112580830D01*
X88873789Y-112580830D02*
X88873789Y-112634704D01*
X88873789Y-112634704D02*
X88846851Y-112715517D01*
X88846851Y-112715517D02*
X88792977Y-112769392D01*
X88792977Y-112769392D02*
X88712164Y-112796329D01*
X88712164Y-112796329D02*
X88658290Y-112796329D01*
X88658290Y-112796329D02*
X88577477Y-112769392D01*
X88577477Y-112769392D02*
X88442790Y-112688579D01*
X88442790Y-112688579D02*
X88361978Y-112661642D01*
X88361978Y-112661642D02*
X88308103Y-112661642D01*
X88308103Y-112661642D02*
X88227291Y-112688579D01*
X88227291Y-112688579D02*
X88173416Y-112742454D01*
X88173416Y-112742454D02*
X88146479Y-112823266D01*
X88146479Y-112823266D02*
X88146479Y-112877141D01*
X88146479Y-112877141D02*
X88173416Y-112957953D01*
X88173416Y-112957953D02*
X88308103Y-113092640D01*
X88308103Y-113092640D02*
X88415853Y-113146515D01*
X88739102Y-113523639D02*
X88846852Y-113631389D01*
X88846852Y-113631389D02*
X88927664Y-113658326D01*
X88927664Y-113658326D02*
X89035413Y-113658326D01*
X89035413Y-113658326D02*
X89170100Y-113577514D01*
X89170100Y-113577514D02*
X89358662Y-113388952D01*
X89358662Y-113388952D02*
X89439474Y-113254265D01*
X89439474Y-113254265D02*
X89439474Y-113146515D01*
X89439474Y-113146515D02*
X89412537Y-113065703D01*
X89412537Y-113065703D02*
X89304787Y-112957953D01*
X89304787Y-112957953D02*
X89223975Y-112931016D01*
X89223975Y-112931016D02*
X89116226Y-112931016D01*
X89116226Y-112931016D02*
X88981539Y-113011828D01*
X88981539Y-113011828D02*
X88792977Y-113200390D01*
X88792977Y-113200390D02*
X88712165Y-113335077D01*
X88712165Y-113335077D02*
X88712165Y-113442827D01*
X88712165Y-113442827D02*
X88739102Y-113523639D01*
X89789660Y-113442827D02*
X89223975Y-114008512D01*
X89223975Y-114008512D02*
X90112909Y-113766075D01*
X90112909Y-113766075D02*
X89547224Y-114331761D01*
X113004265Y-88969728D02*
X112250017Y-89346851D01*
X112250017Y-89346851D02*
X112627141Y-88592604D01*
X111576583Y-88673417D02*
X111899831Y-88996665D01*
X111738207Y-88835041D02*
X112303892Y-88269356D01*
X112303892Y-88269356D02*
X112276955Y-88404043D01*
X112276955Y-88404043D02*
X112276955Y-88511792D01*
X112276955Y-88511792D02*
X112303892Y-88592604D01*
X111388021Y-88377105D02*
X111334146Y-88377105D01*
X111334146Y-88377105D02*
X111334146Y-88430980D01*
X111334146Y-88430980D02*
X111388021Y-88430980D01*
X111388021Y-88430980D02*
X111388021Y-88377105D01*
X111388021Y-88377105D02*
X111334146Y-88430980D01*
X111522708Y-87488171D02*
X111468833Y-87434296D01*
X111468833Y-87434296D02*
X111388021Y-87407359D01*
X111388021Y-87407359D02*
X111334146Y-87407359D01*
X111334146Y-87407359D02*
X111253334Y-87434296D01*
X111253334Y-87434296D02*
X111118647Y-87515108D01*
X111118647Y-87515108D02*
X110983960Y-87649795D01*
X110983960Y-87649795D02*
X110903148Y-87784482D01*
X110903148Y-87784482D02*
X110876210Y-87865295D01*
X110876210Y-87865295D02*
X110876210Y-87919169D01*
X110876210Y-87919169D02*
X110903148Y-87999982D01*
X110903148Y-87999982D02*
X110957023Y-88053856D01*
X110957023Y-88053856D02*
X111037835Y-88080794D01*
X111037835Y-88080794D02*
X111091710Y-88080794D01*
X111091710Y-88080794D02*
X111172522Y-88053856D01*
X111172522Y-88053856D02*
X111307209Y-87973044D01*
X111307209Y-87973044D02*
X111441896Y-87838357D01*
X111441896Y-87838357D02*
X111522708Y-87703670D01*
X111522708Y-87703670D02*
X111549645Y-87622858D01*
X111549645Y-87622858D02*
X111549645Y-87568983D01*
X111549645Y-87568983D02*
X111522708Y-87488171D01*
D11*
X93175000Y-81375000D02*
X93525000Y-81425000D01*
X93475000Y-81775000D02*
X93525000Y-81425000D01*
X93525000Y-81425000D02*
X93475000Y-81775000D01*
X92925000Y-81925000D02*
X93525000Y-81425000D01*
X93525000Y-81425000D02*
X92925000Y-81925000D01*
X97050000Y-77900000D02*
X97450000Y-80350000D01*
D10*
X92160888Y-80328739D02*
X91953832Y-79555998D01*
X91953832Y-79555998D02*
X91769847Y-79605297D01*
X91769847Y-79605297D02*
X91669315Y-79671674D01*
X91669315Y-79671674D02*
X91615440Y-79764987D01*
X91615440Y-79764987D02*
X91598362Y-79848442D01*
X91598362Y-79848442D02*
X91601004Y-80005490D01*
X91601004Y-80005490D02*
X91630584Y-80115882D01*
X91630584Y-80115882D02*
X91706820Y-80253211D01*
X91706820Y-80253211D02*
X91763337Y-80316945D01*
X91763337Y-80316945D02*
X91856651Y-80370820D01*
X91856651Y-80370820D02*
X91976902Y-80378038D01*
X91976902Y-80378038D02*
X92160888Y-80328739D01*
X102170802Y-78715504D02*
X102208898Y-78753600D01*
X102208898Y-78753600D02*
X102323183Y-78791695D01*
X102323183Y-78791695D02*
X102399374Y-78791695D01*
X102399374Y-78791695D02*
X102513660Y-78753600D01*
X102513660Y-78753600D02*
X102589850Y-78677409D01*
X102589850Y-78677409D02*
X102627945Y-78601219D01*
X102627945Y-78601219D02*
X102666041Y-78448838D01*
X102666041Y-78448838D02*
X102666041Y-78334552D01*
X102666041Y-78334552D02*
X102627945Y-78182171D01*
X102627945Y-78182171D02*
X102589850Y-78105980D01*
X102589850Y-78105980D02*
X102513660Y-78029790D01*
X102513660Y-78029790D02*
X102399374Y-77991695D01*
X102399374Y-77991695D02*
X102323183Y-77991695D01*
X102323183Y-77991695D02*
X102208898Y-78029790D01*
X102208898Y-78029790D02*
X102170802Y-78067885D01*
D11*
X103575000Y-79475000D02*
X103325000Y-79725000D01*
X103325000Y-79225000D02*
X103575000Y-79475000D01*
X103575000Y-79475000D02*
X103325000Y-79225000D01*
X102775000Y-79475000D02*
X103575000Y-79475000D01*
D10*
X89380326Y-83736266D02*
X88618422Y-83736266D01*
X89880326Y-87486266D02*
X89118422Y-87486266D01*
X89499374Y-87867219D02*
X89499374Y-87105314D01*
D12*
%TO.C,C21*%
X83485000Y-89400000D02*
X83485000Y-91000000D01*
X82315000Y-89400000D02*
X82315000Y-91000000D01*
%TO.C,C20*%
X79178668Y-93927878D02*
X80724150Y-94341989D01*
X78875850Y-95058011D02*
X80421332Y-95472122D01*
%TO.C,C19*%
X78200000Y-99415000D02*
X79800000Y-99415000D01*
X78200000Y-100585000D02*
X79800000Y-100585000D01*
%TO.C,C18*%
X78875850Y-105141989D02*
X80421332Y-104727878D01*
X79178668Y-106272122D02*
X80724150Y-105858011D01*
%TO.C,C17*%
X82715000Y-110500000D02*
X82715000Y-108900000D01*
X83885000Y-110500000D02*
X83885000Y-108900000D01*
%TO.C,C15*%
X89600000Y-116015000D02*
X91200000Y-116015000D01*
X89600000Y-117185000D02*
X91200000Y-117185000D01*
%TO.C,C14*%
X93827878Y-120821332D02*
X94241989Y-119275850D01*
X94958011Y-121124150D02*
X95372122Y-119578668D01*
%TO.C,C13*%
X99415000Y-121800000D02*
X99415000Y-120200000D01*
X100585000Y-121800000D02*
X100585000Y-120200000D01*
%TO.C,C12*%
X105041989Y-121224150D02*
X104627878Y-119678668D01*
X106172122Y-120921332D02*
X105758011Y-119375850D01*
%TO.C,C11*%
X110400000Y-117285000D02*
X108800000Y-117285000D01*
X110400000Y-116115000D02*
X108800000Y-116115000D01*
%TO.C,C9*%
X116315000Y-110300000D02*
X116315000Y-108700000D01*
X117485000Y-110300000D02*
X117485000Y-108700000D01*
%TO.C,C8*%
X120821332Y-106072122D02*
X119275850Y-105658011D01*
X121124150Y-104941989D02*
X119578668Y-104527878D01*
%TO.C,C7*%
X121800000Y-100585000D02*
X120200000Y-100585000D01*
X121800000Y-99415000D02*
X120200000Y-99415000D01*
%TO.C,C6*%
X121224150Y-95158011D02*
X119678668Y-95572122D01*
X120921332Y-94027878D02*
X119375850Y-94441989D01*
%TO.C,C5*%
X117485000Y-89400000D02*
X117485000Y-91000000D01*
X116315000Y-89400000D02*
X116315000Y-91000000D01*
%TO.C,C3*%
X110600000Y-83485000D02*
X109000000Y-83485000D01*
X110600000Y-82315000D02*
X109000000Y-82315000D01*
%TD*%
M02*
