%TF.GenerationSoftware,KiCad,Pcbnew,7.0.6*%
%TF.CreationDate,2023-08-09T16:46:28+09:30*%
%TF.ProjectId,interior-lighting,696e7465-7269-46f7-922d-6c6967687469,V1.0*%
%TF.SameCoordinates,Original*%
%TF.FileFunction,Profile,NP*%
%FSLAX46Y46*%
G04 Gerber Fmt 4.6, Leading zero omitted, Abs format (unit mm)*
G04 Created by KiCad (PCBNEW 7.0.6) date 2023-08-09 16:46:28*
%MOMM*%
%LPD*%
G01*
G04 APERTURE LIST*
%TA.AperFunction,Profile*%
%ADD10C,0.250000*%
%TD*%
G04 APERTURE END LIST*
D10*
X116694378Y-111954950D02*
G75*
G03*
X119864397Y-110556726I696222J2714150D01*
G01*
X88035049Y-116684378D02*
G75*
G03*
X87082160Y-113302847I-3390249J869678D01*
G01*
X103013413Y-119255815D02*
G75*
G03*
X107983520Y-114433109I-927313J5928015D01*
G01*
X89433280Y-80125613D02*
G75*
G03*
X88035062Y-83295619I1315920J-2473787D01*
G01*
X112917831Y-113302838D02*
G75*
G03*
X111964939Y-116684381I2437369J-2511862D01*
G01*
X103013404Y-80724243D02*
G75*
G03*
X96986596Y-80724243I-3013404J-19265749D01*
G01*
X88035050Y-116684378D02*
G75*
G03*
X89433274Y-119854397I2714150J-696222D01*
G01*
X92016536Y-114433098D02*
G75*
G03*
X96986596Y-119255756I5897264J1105198D01*
G01*
X119265756Y-103003404D02*
G75*
G03*
X119265756Y-96976596I-19265756J3013404D01*
G01*
X116694378Y-111954951D02*
G75*
G03*
X113312847Y-112907840I-869678J-3390249D01*
G01*
X89557849Y-110122321D02*
G75*
G03*
X89867679Y-110432151I10436551J10126721D01*
G01*
X89867666Y-89547835D02*
G75*
G03*
X92016479Y-85546891I-5222766J5382535D01*
G01*
X113312838Y-87072169D02*
G75*
G03*
X116694381Y-88025061I2511862J2437369D01*
G01*
X119265815Y-96976587D02*
G75*
G03*
X114443109Y-92006480I-5928015J-927313D01*
G01*
X83305622Y-88025049D02*
G75*
G03*
X86687153Y-87072160I869678J3390249D01*
G01*
X89433274Y-119854398D02*
G75*
G03*
X110566726Y-119854398I10566726J19864399D01*
G01*
X114443107Y-107973509D02*
G75*
G03*
X110442153Y-110122323I1381693J-7371791D01*
G01*
X83305622Y-88025050D02*
G75*
G03*
X80135603Y-89423274I-696222J-2714150D01*
G01*
X89867679Y-89547849D02*
G75*
G03*
X89557849Y-89857679I10126721J-10436551D01*
G01*
X86687153Y-112907840D02*
G75*
G03*
X87082160Y-113302847I13308547J12913540D01*
G01*
X111964950Y-83295622D02*
G75*
G03*
X110566726Y-80125603I-2714150J696222D01*
G01*
X80734185Y-103003413D02*
G75*
G03*
X85556891Y-107973520I5928015J927313D01*
G01*
X107983509Y-85546893D02*
G75*
G03*
X110132323Y-89547847I7371791J1381693D01*
G01*
X110442165Y-89857666D02*
G75*
G03*
X114443109Y-92006479I5382535J5222766D01*
G01*
X87082160Y-86677153D02*
G75*
G03*
X86687153Y-87072160I12913540J-13308547D01*
G01*
X96986596Y-119255757D02*
G75*
G03*
X103013404Y-119255757I3013404J19265749D01*
G01*
X110132334Y-110432165D02*
G75*
G03*
X107983521Y-114433109I5222766J-5382535D01*
G01*
X80135613Y-110556720D02*
G75*
G03*
X83305619Y-111954938I2473787J1315920D01*
G01*
X114443098Y-107973464D02*
G75*
G03*
X119265756Y-103003404I-1105198J5897264D01*
G01*
X85556893Y-92006491D02*
G75*
G03*
X89557847Y-89857677I-1381693J7371791D01*
G01*
X87082169Y-86677162D02*
G75*
G03*
X88035061Y-83295619I-2437369J2511862D01*
G01*
X112917840Y-113302847D02*
G75*
G03*
X113312847Y-112907840I-12913540J13308547D01*
G01*
X110442151Y-89857679D02*
G75*
G03*
X110132321Y-89547849I-10436551J-10126721D01*
G01*
X86687162Y-112907831D02*
G75*
G03*
X83305619Y-111954939I-2511862J-2437369D01*
G01*
X107983464Y-85546902D02*
G75*
G03*
X103013404Y-80724244I-5897264J-1105198D01*
G01*
X110566720Y-119854387D02*
G75*
G03*
X111964938Y-116684381I-1315920J2473787D01*
G01*
X89557835Y-110122334D02*
G75*
G03*
X85556891Y-107973521I-5382535J-5222766D01*
G01*
X85556902Y-92006536D02*
G75*
G03*
X80734244Y-96976596I1105198J-5897264D01*
G01*
X96986596Y-80724241D02*
G75*
G03*
X92016479Y-85546891I927264J-5927989D01*
G01*
X113312847Y-87072160D02*
G75*
G03*
X112917840Y-86677153I-13308547J-12913540D01*
G01*
X80734244Y-96976596D02*
G75*
G03*
X80734244Y-103003404I19265756J-3013404D01*
G01*
X111964951Y-83295622D02*
G75*
G03*
X112917840Y-86677153I3390249J-869678D01*
G01*
X110132321Y-110432151D02*
G75*
G03*
X110442151Y-110122321I-10126721J10436551D01*
G01*
X92016491Y-114433107D02*
G75*
G03*
X89867677Y-110432153I-7371791J-1381693D01*
G01*
X80135602Y-89423274D02*
G75*
G03*
X80135602Y-110556726I19864398J-10566726D01*
G01*
X119864398Y-110556726D02*
G75*
G03*
X119864398Y-89423274I-19864398J10566726D01*
G01*
X110566726Y-80125602D02*
G75*
G03*
X89433274Y-80125602I-10566726J-19864399D01*
G01*
X119864387Y-89423280D02*
G75*
G03*
X116694381Y-88025062I-2473787J-1315920D01*
G01*
M02*
