%TF.GenerationSoftware,KiCad,Pcbnew,7.0.6*%
%TF.CreationDate,2023-08-09T16:46:22+09:30*%
%TF.ProjectId,interior-lighting,696e7465-7269-46f7-922d-6c6967687469,V1.0*%
%TF.SameCoordinates,Original*%
%TF.FileFunction,Copper,L1,Top*%
%TF.FilePolarity,Positive*%
%FSLAX46Y46*%
G04 Gerber Fmt 4.6, Leading zero omitted, Abs format (unit mm)*
G04 Created by KiCad (PCBNEW 7.0.6) date 2023-08-09 16:46:22*
%MOMM*%
%LPD*%
G01*
G04 APERTURE LIST*
G04 Aperture macros list*
%AMRotRect*
0 Rectangle, with rotation*
0 The origin of the aperture is its center*
0 $1 length*
0 $2 width*
0 $3 Rotation angle, in degrees counterclockwise*
0 Add horizontal line*
21,1,$1,$2,0,0,$3*%
G04 Aperture macros list end*
%TA.AperFunction,SMDPad,CuDef*%
%ADD10R,0.800000X0.500000*%
%TD*%
%TA.AperFunction,SMDPad,CuDef*%
%ADD11R,0.800000X0.300000*%
%TD*%
%TA.AperFunction,SMDPad,CuDef*%
%ADD12RotRect,0.800000X0.500000X315.000000*%
%TD*%
%TA.AperFunction,SMDPad,CuDef*%
%ADD13RotRect,0.800000X0.300000X315.000000*%
%TD*%
%TA.AperFunction,SMDPad,CuDef*%
%ADD14RotRect,0.800000X0.500000X285.000000*%
%TD*%
%TA.AperFunction,SMDPad,CuDef*%
%ADD15RotRect,0.800000X0.300000X285.000000*%
%TD*%
%TA.AperFunction,SMDPad,CuDef*%
%ADD16R,0.500000X0.800000*%
%TD*%
%TA.AperFunction,SMDPad,CuDef*%
%ADD17R,0.300000X0.800000*%
%TD*%
%TA.AperFunction,SMDPad,CuDef*%
%ADD18RotRect,0.800000X0.500000X45.000000*%
%TD*%
%TA.AperFunction,SMDPad,CuDef*%
%ADD19RotRect,0.800000X0.300000X45.000000*%
%TD*%
%TA.AperFunction,SMDPad,CuDef*%
%ADD20RotRect,0.800000X0.500000X75.000000*%
%TD*%
%TA.AperFunction,SMDPad,CuDef*%
%ADD21RotRect,0.800000X0.300000X75.000000*%
%TD*%
%TA.AperFunction,SMDPad,CuDef*%
%ADD22RotRect,0.800000X0.300000X105.000000*%
%TD*%
%TA.AperFunction,SMDPad,CuDef*%
%ADD23RotRect,0.800000X0.500000X105.000000*%
%TD*%
%TA.AperFunction,SMDPad,CuDef*%
%ADD24RotRect,0.800000X0.500000X225.000000*%
%TD*%
%TA.AperFunction,SMDPad,CuDef*%
%ADD25RotRect,0.800000X0.300000X225.000000*%
%TD*%
%TA.AperFunction,SMDPad,CuDef*%
%ADD26RotRect,0.800000X0.500000X255.000000*%
%TD*%
%TA.AperFunction,SMDPad,CuDef*%
%ADD27RotRect,0.800000X0.300000X255.000000*%
%TD*%
%TA.AperFunction,SMDPad,CuDef*%
%ADD28RotRect,0.800000X0.500000X345.000000*%
%TD*%
%TA.AperFunction,SMDPad,CuDef*%
%ADD29RotRect,0.800000X0.300000X345.000000*%
%TD*%
%TA.AperFunction,SMDPad,CuDef*%
%ADD30RotRect,0.800000X0.500000X195.000000*%
%TD*%
%TA.AperFunction,SMDPad,CuDef*%
%ADD31RotRect,0.800000X0.300000X195.000000*%
%TD*%
%TA.AperFunction,SMDPad,CuDef*%
%ADD32RotRect,0.800000X0.500000X165.000000*%
%TD*%
%TA.AperFunction,SMDPad,CuDef*%
%ADD33RotRect,0.800000X0.300000X165.000000*%
%TD*%
%TA.AperFunction,SMDPad,CuDef*%
%ADD34RotRect,0.800000X0.500000X135.000000*%
%TD*%
%TA.AperFunction,SMDPad,CuDef*%
%ADD35RotRect,0.800000X0.300000X135.000000*%
%TD*%
%TA.AperFunction,SMDPad,CuDef*%
%ADD36RotRect,0.800000X0.500000X15.000000*%
%TD*%
%TA.AperFunction,SMDPad,CuDef*%
%ADD37RotRect,0.800000X0.300000X15.000000*%
%TD*%
%TA.AperFunction,ViaPad*%
%ADD38C,0.500000*%
%TD*%
%TA.AperFunction,Conductor*%
%ADD39C,0.200000*%
%TD*%
G04 APERTURE END LIST*
D10*
%TO.P,U17,1,SDO*%
%TO.N,Net-(U17-SDO)*%
X82350000Y-110600000D03*
%TO.P,U17,2,SDI*%
%TO.N,Net-(U16-SDO)*%
X84050000Y-110600000D03*
D11*
%TO.P,U17,3,CKI*%
%TO.N,Net-(U16-CK0)*%
X84050000Y-109700000D03*
D10*
%TO.P,U17,4,GND*%
%TO.N,GND*%
X84050000Y-108800000D03*
%TO.P,U17,5,VDD*%
%TO.N,+3.3V*%
X82350000Y-108800000D03*
D11*
%TO.P,U17,6,CK0*%
%TO.N,Net-(U17-CK0)*%
X82350000Y-109700000D03*
%TD*%
D12*
%TO.P,U4,1,SDO*%
%TO.N,Net-(U4-SDO)*%
X112937437Y-88264645D03*
%TO.P,U4,2,SDI*%
%TO.N,Net-(U3-SDO)*%
X111735355Y-87062563D03*
D13*
%TO.P,U4,3,CKI*%
%TO.N,Net-(U3-CK0)*%
X111098959Y-87698959D03*
D12*
%TO.P,U4,4,GND*%
%TO.N,GND*%
X110462563Y-88335355D03*
%TO.P,U4,5,VDD*%
%TO.N,+3.3V*%
X111664645Y-89537437D03*
D13*
%TO.P,U4,6,CK0*%
%TO.N,Net-(U4-CK0)*%
X112301041Y-88901041D03*
%TD*%
D14*
%TO.P,U6,1,SDO*%
%TO.N,Net-(U6-SDO)*%
X121389329Y-95188100D03*
%TO.P,U6,2,SDI*%
%TO.N,Net-(U5-SDO)*%
X120949337Y-93546026D03*
D15*
%TO.P,U6,3,CKI*%
%TO.N,Net-(U5-CK0)*%
X120080004Y-93778963D03*
D14*
%TO.P,U6,4,GND*%
%TO.N,GND*%
X119210671Y-94011900D03*
%TO.P,U6,5,VDD*%
%TO.N,+3.3V*%
X119650663Y-95653974D03*
D15*
%TO.P,U6,6,CK0*%
%TO.N,Net-(U6-CK0)*%
X120519996Y-95421037D03*
%TD*%
D16*
%TO.P,U7,1,SDO*%
%TO.N,Net-(U7-SDO)*%
X121900000Y-100850000D03*
%TO.P,U7,2,SDI*%
%TO.N,Net-(U6-SDO)*%
X121900000Y-99150000D03*
D17*
%TO.P,U7,3,CKI*%
%TO.N,Net-(U6-CK0)*%
X121000000Y-99150000D03*
D16*
%TO.P,U7,4,GND*%
%TO.N,GND*%
X120100000Y-99150000D03*
%TO.P,U7,5,VDD*%
%TO.N,+3.3V*%
X120100000Y-100850000D03*
D17*
%TO.P,U7,6,CK0*%
%TO.N,Net-(U7-CK0)*%
X121000000Y-100850000D03*
%TD*%
D18*
%TO.P,U22,1,SDO*%
%TO.N,Net-(U22-SDO)*%
X88364645Y-87062563D03*
%TO.P,U22,2,SDI*%
%TO.N,Net-(U21-SDO)*%
X87162563Y-88264645D03*
D19*
%TO.P,U22,3,CKI*%
%TO.N,Net-(U21-CK0)*%
X87798959Y-88901041D03*
D18*
%TO.P,U22,4,GND*%
%TO.N,GND*%
X88435355Y-89537437D03*
%TO.P,U22,5,VDD*%
%TO.N,+3.3V*%
X89637437Y-88335355D03*
D19*
%TO.P,U22,6,CK0*%
%TO.N,Net-(U22-CK0)*%
X89001041Y-87698959D03*
%TD*%
D16*
%TO.P,U19,1,SDO*%
%TO.N,Net-(U19-SDO)*%
X78100000Y-99150000D03*
%TO.P,U19,2,SDI*%
%TO.N,Net-(U18-SDO)*%
X78100000Y-100850000D03*
D17*
%TO.P,U19,3,CKI*%
%TO.N,Net-(U18-CK0)*%
X79000000Y-100850000D03*
D16*
%TO.P,U19,4,GND*%
%TO.N,GND*%
X79900000Y-100850000D03*
%TO.P,U19,5,VDD*%
%TO.N,+3.3V*%
X79900000Y-99150000D03*
D17*
%TO.P,U19,6,CK0*%
%TO.N,Net-(U19-CK0)*%
X79000000Y-99150000D03*
%TD*%
D20*
%TO.P,U20,1,SDO*%
%TO.N,Net-(U20-SDO)*%
X79150663Y-93546026D03*
%TO.P,U20,2,SDI*%
%TO.N,Net-(U19-SDO)*%
X78710671Y-95188100D03*
D21*
%TO.P,U20,3,CKI*%
%TO.N,Net-(U19-CK0)*%
X79580004Y-95421037D03*
D20*
%TO.P,U20,4,GND*%
%TO.N,GND*%
X80449337Y-95653974D03*
%TO.P,U20,5,VDD*%
%TO.N,+3.3V*%
X80889329Y-94011900D03*
D21*
%TO.P,U20,6,CK0*%
%TO.N,Net-(U20-CK0)*%
X80019996Y-93778963D03*
%TD*%
D10*
%TO.P,U1,1,SDO*%
%TO.N,Net-(U1-SDO)*%
X100850000Y-78100000D03*
%TO.P,U1,2,SDI*%
%TO.N,Net-(P3-P1)*%
X99150000Y-78100000D03*
D11*
%TO.P,U1,3,CKI*%
%TO.N,Net-(P2-P1)*%
X99150000Y-79000000D03*
D10*
%TO.P,U1,4,GND*%
%TO.N,GND*%
X99150000Y-79900000D03*
%TO.P,U1,5,VDD*%
%TO.N,+3.3V*%
X100850000Y-79900000D03*
D11*
%TO.P,U1,6,CK0*%
%TO.N,Net-(U1-CK0)*%
X100850000Y-79000000D03*
%TD*%
D16*
%TO.P,U15,1,SDO*%
%TO.N,Net-(U15-SDO)*%
X89500000Y-115850000D03*
%TO.P,U15,2,SDI*%
%TO.N,Net-(U14-SDO)*%
X89500000Y-117550000D03*
D17*
%TO.P,U15,3,CKI*%
%TO.N,Net-(U14-CK0)*%
X90400000Y-117550000D03*
D16*
%TO.P,U15,4,GND*%
%TO.N,GND*%
X91300000Y-117550000D03*
%TO.P,U15,5,VDD*%
%TO.N,+3.3V*%
X91300000Y-115850000D03*
D17*
%TO.P,U15,6,CK0*%
%TO.N,Net-(U15-CK0)*%
X90400000Y-115850000D03*
%TD*%
D22*
%TO.P,U18,6,CK0*%
%TO.N,Net-(U18-CK0)*%
X79580004Y-104578963D03*
D23*
%TO.P,U18,5,VDD*%
%TO.N,+3.3V*%
X80449337Y-104346026D03*
%TO.P,U18,4,GND*%
%TO.N,GND*%
X80889329Y-105988100D03*
D22*
%TO.P,U18,3,CKI*%
%TO.N,Net-(U17-CK0)*%
X80019996Y-106221037D03*
D23*
%TO.P,U18,2,SDI*%
%TO.N,Net-(U17-SDO)*%
X79150663Y-106453974D03*
%TO.P,U18,1,SDO*%
%TO.N,Net-(U18-SDO)*%
X78710671Y-104811900D03*
%TD*%
D24*
%TO.P,U10,1,SDO*%
%TO.N,Net-(U10-SDO)*%
X111735355Y-112937437D03*
%TO.P,U10,2,SDI*%
%TO.N,Net-(U10-SDI)*%
X112937437Y-111735355D03*
D25*
%TO.P,U10,3,CKI*%
%TO.N,Net-(U10-CKI)*%
X112301041Y-111098959D03*
D24*
%TO.P,U10,4,GND*%
%TO.N,GND*%
X111664645Y-110462563D03*
%TO.P,U10,5,VDD*%
%TO.N,+3.3V*%
X110462563Y-111664645D03*
D25*
%TO.P,U10,6,CK0*%
%TO.N,Net-(U10-CK0)*%
X111098959Y-112301041D03*
%TD*%
D10*
%TO.P,U13,1,SDO*%
%TO.N,Net-(U13-SDO)*%
X99150000Y-121900000D03*
%TO.P,U13,2,SDI*%
%TO.N,Net-(U12-SDO)*%
X100850000Y-121900000D03*
D11*
%TO.P,U13,3,CKI*%
%TO.N,Net-(U12-CK0)*%
X100850000Y-121000000D03*
D10*
%TO.P,U13,4,GND*%
%TO.N,GND*%
X100850000Y-120100000D03*
%TO.P,U13,5,VDD*%
%TO.N,+3.3V*%
X99150000Y-120100000D03*
D11*
%TO.P,U13,6,CK0*%
%TO.N,Net-(U13-CK0)*%
X99150000Y-121000000D03*
%TD*%
D26*
%TO.P,U8,1,SDO*%
%TO.N,Net-(U8-SDO)*%
X120949337Y-106453974D03*
%TO.P,U8,2,SDI*%
%TO.N,Net-(U7-SDO)*%
X121389329Y-104811900D03*
D27*
%TO.P,U8,3,CKI*%
%TO.N,Net-(U7-CK0)*%
X120519996Y-104578963D03*
D26*
%TO.P,U8,4,GND*%
%TO.N,GND*%
X119650663Y-104346026D03*
%TO.P,U8,5,VDD*%
%TO.N,+3.3V*%
X119210671Y-105988100D03*
D27*
%TO.P,U8,6,CK0*%
%TO.N,Net-(U8-CK0)*%
X120080004Y-106221037D03*
%TD*%
D16*
%TO.P,U3,1,SDO*%
%TO.N,Net-(U3-SDO)*%
X110700000Y-83850000D03*
%TO.P,U3,2,SDI*%
%TO.N,Net-(U2-SDO)*%
X110700000Y-82150000D03*
D17*
%TO.P,U3,3,CKI*%
%TO.N,Net-(U2-CK0)*%
X109800000Y-82150000D03*
D16*
%TO.P,U3,4,GND*%
%TO.N,GND*%
X108900000Y-82150000D03*
%TO.P,U3,5,VDD*%
%TO.N,+3.3V*%
X108900000Y-83850000D03*
D17*
%TO.P,U3,6,CK0*%
%TO.N,Net-(U3-CK0)*%
X109800000Y-83850000D03*
%TD*%
D10*
%TO.P,U21,1,SDO*%
%TO.N,Net-(U21-SDO)*%
X83850000Y-89200000D03*
%TO.P,U21,2,SDI*%
%TO.N,Net-(U20-SDO)*%
X82150000Y-89200000D03*
D11*
%TO.P,U21,3,CKI*%
%TO.N,Net-(U20-CK0)*%
X82150000Y-90100000D03*
D10*
%TO.P,U21,4,GND*%
%TO.N,GND*%
X82150000Y-91000000D03*
%TO.P,U21,5,VDD*%
%TO.N,+3.3V*%
X83850000Y-91000000D03*
D11*
%TO.P,U21,6,CK0*%
%TO.N,Net-(U21-CK0)*%
X83850000Y-90100000D03*
%TD*%
D28*
%TO.P,U2,1,SDO*%
%TO.N,Net-(U2-SDO)*%
X106453974Y-79050663D03*
%TO.P,U2,2,SDI*%
%TO.N,Net-(U1-SDO)*%
X104811900Y-78610671D03*
D29*
%TO.P,U2,3,CKI*%
%TO.N,Net-(U1-CK0)*%
X104578963Y-79480004D03*
D28*
%TO.P,U2,4,GND*%
%TO.N,GND*%
X104346026Y-80349337D03*
%TO.P,U2,5,VDD*%
%TO.N,+3.3V*%
X105988100Y-80789329D03*
D29*
%TO.P,U2,6,CK0*%
%TO.N,Net-(U2-CK0)*%
X106221037Y-79919996D03*
%TD*%
D30*
%TO.P,U12,1,SDO*%
%TO.N,Net-(U12-SDO)*%
X104811900Y-121289329D03*
%TO.P,U12,2,SDI*%
%TO.N,Net-(U11-SDO)*%
X106453974Y-120849337D03*
D31*
%TO.P,U12,3,CKI*%
%TO.N,Net-(U11-CK0)*%
X106221037Y-119980004D03*
D30*
%TO.P,U12,4,GND*%
%TO.N,GND*%
X105988100Y-119110671D03*
%TO.P,U12,5,VDD*%
%TO.N,+3.3V*%
X104346026Y-119550663D03*
D31*
%TO.P,U12,6,CK0*%
%TO.N,Net-(U12-CK0)*%
X104578963Y-120419996D03*
%TD*%
D32*
%TO.P,U14,1,SDO*%
%TO.N,Net-(U14-SDO)*%
X93546026Y-120849337D03*
%TO.P,U14,2,SDI*%
%TO.N,Net-(U13-SDO)*%
X95188100Y-121289329D03*
D33*
%TO.P,U14,3,CKI*%
%TO.N,Net-(U13-CK0)*%
X95421037Y-120419996D03*
D32*
%TO.P,U14,4,GND*%
%TO.N,GND*%
X95653974Y-119550663D03*
%TO.P,U14,5,VDD*%
%TO.N,+3.3V*%
X94011900Y-119110671D03*
D33*
%TO.P,U14,6,CK0*%
%TO.N,Net-(U14-CK0)*%
X93778963Y-119980004D03*
%TD*%
D34*
%TO.P,U16,1,SDO*%
%TO.N,Net-(U16-SDO)*%
X87062563Y-111735355D03*
%TO.P,U16,2,SDI*%
%TO.N,Net-(U15-SDO)*%
X88264645Y-112937437D03*
D35*
%TO.P,U16,3,CKI*%
%TO.N,Net-(U15-CK0)*%
X88901041Y-112301041D03*
D34*
%TO.P,U16,4,GND*%
%TO.N,GND*%
X89537437Y-111664645D03*
%TO.P,U16,5,VDD*%
%TO.N,+3.3V*%
X88335355Y-110462563D03*
D35*
%TO.P,U16,6,CK0*%
%TO.N,Net-(U16-CK0)*%
X87698959Y-111098959D03*
%TD*%
D16*
%TO.P,U23,1,SDO*%
%TO.N,Net-(U23-SDO)*%
X89400000Y-82150000D03*
%TO.P,U23,2,SDI*%
%TO.N,Net-(U22-SDO)*%
X89400000Y-83850000D03*
D17*
%TO.P,U23,3,CKI*%
%TO.N,Net-(U22-CK0)*%
X90300000Y-83850000D03*
D16*
%TO.P,U23,4,GND*%
%TO.N,GND*%
X91200000Y-83850000D03*
%TO.P,U23,5,VDD*%
%TO.N,+3.3V*%
X91200000Y-82150000D03*
D17*
%TO.P,U23,6,CK0*%
%TO.N,Net-(U23-CK0)*%
X90300000Y-82150000D03*
%TD*%
D16*
%TO.P,U11,1,SDO*%
%TO.N,Net-(U11-SDO)*%
X110500000Y-117550000D03*
%TO.P,U11,2,SDI*%
%TO.N,Net-(U10-SDO)*%
X110500000Y-115850000D03*
D17*
%TO.P,U11,3,CKI*%
%TO.N,Net-(U10-CK0)*%
X109600000Y-115850000D03*
D16*
%TO.P,U11,4,GND*%
%TO.N,GND*%
X108700000Y-115850000D03*
%TO.P,U11,5,VDD*%
%TO.N,+3.3V*%
X108700000Y-117550000D03*
D17*
%TO.P,U11,6,CK0*%
%TO.N,Net-(U11-CK0)*%
X109600000Y-117550000D03*
%TD*%
D10*
%TO.P,U9,1,SDO*%
%TO.N,Net-(U10-SDI)*%
X115950000Y-110500000D03*
%TO.P,U9,2,SDI*%
%TO.N,Net-(U8-SDO)*%
X117650000Y-110500000D03*
D11*
%TO.P,U9,3,CKI*%
%TO.N,Net-(U8-CK0)*%
X117650000Y-109600000D03*
D10*
%TO.P,U9,4,GND*%
%TO.N,GND*%
X117650000Y-108700000D03*
%TO.P,U9,5,VDD*%
%TO.N,+3.3V*%
X115950000Y-108700000D03*
D11*
%TO.P,U9,6,CK0*%
%TO.N,Net-(U10-CKI)*%
X115950000Y-109600000D03*
%TD*%
D36*
%TO.P,U24,1,SDO*%
%TO.N,Net-(P5-P1)*%
X95188100Y-78610671D03*
%TO.P,U24,2,SDI*%
%TO.N,Net-(U23-SDO)*%
X93546026Y-79050663D03*
D37*
%TO.P,U24,3,CKI*%
%TO.N,Net-(U23-CK0)*%
X93778963Y-79919996D03*
D36*
%TO.P,U24,4,GND*%
%TO.N,GND*%
X94011900Y-80789329D03*
%TO.P,U24,5,VDD*%
%TO.N,+3.3V*%
X95653974Y-80349337D03*
D37*
%TO.P,U24,6,CK0*%
%TO.N,Net-(P6-P1)*%
X95421037Y-79480004D03*
%TD*%
D10*
%TO.P,U5,1,SDO*%
%TO.N,Net-(U5-SDO)*%
X117650000Y-89400000D03*
%TO.P,U5,2,SDI*%
%TO.N,Net-(U4-SDO)*%
X115950000Y-89400000D03*
D11*
%TO.P,U5,3,CKI*%
%TO.N,Net-(U4-CK0)*%
X115950000Y-90300000D03*
D10*
%TO.P,U5,4,GND*%
%TO.N,GND*%
X115950000Y-91200000D03*
%TO.P,U5,5,VDD*%
%TO.N,+3.3V*%
X117650000Y-91200000D03*
D11*
%TO.P,U5,6,CK0*%
%TO.N,Net-(U5-CK0)*%
X117650000Y-90300000D03*
%TD*%
D38*
%TO.N,GND*%
X88100000Y-88050000D03*
X90750000Y-83050000D03*
%TO.N,+3.3V*%
X107700000Y-118000000D03*
%TO.N,GND*%
X91700000Y-118500000D03*
%TO.N,+3.3V*%
X81900000Y-107700000D03*
%TO.N,GND*%
X92000000Y-81100000D03*
%TO.N,Net-(P6-P1)*%
X96600000Y-79100000D03*
%TO.N,Net-(P5-P1)*%
X94500000Y-79300000D03*
%TO.N,GND*%
X81400000Y-91400000D03*
%TO.N,Net-(P2-P1)*%
X100000000Y-78600000D03*
%TO.N,Net-(P3-P1)*%
X97800000Y-78200000D03*
%TO.N,GND*%
X118500000Y-108300000D03*
%TO.N,+3.3V*%
X117700000Y-92400000D03*
%TO.N,GND*%
X108400000Y-81400000D03*
%TO.N,+3.3V*%
X92400000Y-82200000D03*
%TO.N,GND*%
X109200000Y-114500000D03*
X113700000Y-109500000D03*
X102300000Y-120700000D03*
X79300000Y-97000000D03*
X110000000Y-87300000D03*
X97450000Y-80050000D03*
X120800000Y-97600000D03*
X118800000Y-92200000D03*
X97100000Y-120600000D03*
X107400000Y-119000000D03*
X90000000Y-112700000D03*
X120700000Y-103100000D03*
X114800000Y-90800000D03*
X79300000Y-102500000D03*
X102500000Y-79100000D03*
X85200000Y-109200000D03*
X80800000Y-107500000D03*
%TO.N,+3.3V*%
X114600000Y-108700000D03*
X107100000Y-81200000D03*
X108900000Y-85200000D03*
X112600000Y-90400000D03*
X109600000Y-112500000D03*
X80100000Y-103200000D03*
X79900000Y-97900000D03*
X103400000Y-119800000D03*
X120100000Y-102000000D03*
X118300000Y-107000000D03*
X92900000Y-118800000D03*
X90400000Y-87400000D03*
X102900000Y-80000000D03*
X81200000Y-92800000D03*
X91300000Y-114700000D03*
X85200000Y-91000000D03*
X95000000Y-80600000D03*
X119900000Y-96700000D03*
X98100000Y-120100000D03*
X87400000Y-109600000D03*
%TD*%
D39*
%TO.N,GND*%
X88800000Y-88650000D02*
X88100000Y-88050000D01*
X88435355Y-89537437D02*
X88850000Y-89100000D01*
X88850000Y-89100000D02*
X88800000Y-88650000D01*
X97450000Y-80050000D02*
X97600000Y-79900000D01*
X97600000Y-79900000D02*
X99150000Y-79900000D01*
X91200000Y-83850000D02*
X91200000Y-83250000D01*
X91200000Y-83250000D02*
X91000000Y-83050000D01*
X91000000Y-83050000D02*
X90750000Y-83050000D01*
X113700000Y-109500000D02*
X112627208Y-109500000D01*
X112627208Y-109500000D02*
X111664645Y-110462563D01*
%TO.N,+3.3V*%
X102900000Y-80000000D02*
X102800000Y-79900000D01*
X102800000Y-79900000D02*
X100850000Y-79900000D01*
%TO.N,GND*%
X102500000Y-79100000D02*
X103000000Y-79100000D01*
X103000000Y-79100000D02*
X104249337Y-80349337D01*
X104249337Y-80349337D02*
X104346026Y-80349337D01*
%TO.N,Net-(U1-CK0)*%
X100850000Y-79000000D02*
X101600000Y-79000000D01*
X101600000Y-79000000D02*
X102300000Y-78500000D01*
X102300000Y-78500000D02*
X103500000Y-78700000D01*
X103500000Y-78700000D02*
X103800000Y-79200000D01*
X103800000Y-79200000D02*
X104578963Y-79480004D01*
%TO.N,+3.3V*%
X107100000Y-81200000D02*
X106689329Y-81000000D01*
X106689329Y-81000000D02*
X105988100Y-80789329D01*
X108900000Y-85200000D02*
X108900000Y-83850000D01*
%TO.N,GND*%
X110000000Y-87300000D02*
X110000000Y-87872792D01*
X110000000Y-87872792D02*
X110462563Y-88335355D01*
%TO.N,+3.3V*%
X112600000Y-90400000D02*
X112527208Y-90400000D01*
X112527208Y-90400000D02*
X111664645Y-89537437D01*
X117700000Y-92400000D02*
X117800000Y-92300000D01*
X117800000Y-92300000D02*
X117800000Y-91350000D01*
X117800000Y-91350000D02*
X117650000Y-91200000D01*
%TO.N,GND*%
X120800000Y-97600000D02*
X120100000Y-98300000D01*
X120100000Y-98300000D02*
X120100000Y-99150000D01*
%TO.N,Net-(U6-CK0)*%
X120519996Y-95421037D02*
X120700000Y-96000000D01*
X120700000Y-96000000D02*
X121200000Y-96300000D01*
X121000000Y-98400000D02*
X121000000Y-99150000D01*
X121200000Y-96300000D02*
X121400000Y-97800000D01*
X121400000Y-97800000D02*
X121000000Y-98400000D01*
%TO.N,GND*%
X120700000Y-103100000D02*
X119900000Y-103600000D01*
X119900000Y-103600000D02*
X119800000Y-103949337D01*
X119800000Y-103949337D02*
X119650663Y-104346026D01*
%TO.N,Net-(U7-CK0)*%
X121000000Y-100850000D02*
X121000000Y-101500000D01*
X121000000Y-101500000D02*
X121441554Y-102097282D01*
X121441554Y-102097282D02*
X121200000Y-103500000D01*
X121200000Y-103500000D02*
X120700000Y-103900000D01*
X120700000Y-103900000D02*
X120519996Y-104578963D01*
%TO.N,+3.3V*%
X118300000Y-107000000D02*
X118400000Y-107000000D01*
X118400000Y-107000000D02*
X119210671Y-106189329D01*
X119210671Y-106189329D02*
X119210671Y-105988100D01*
%TO.N,GND*%
X118500000Y-108300000D02*
X118100000Y-108700000D01*
X118100000Y-108700000D02*
X117650000Y-108700000D01*
X108700000Y-115850000D02*
X108700000Y-115000000D01*
X108700000Y-115000000D02*
X109200000Y-114500000D01*
%TO.N,+3.3V*%
X108000000Y-118500000D02*
X107700000Y-118000000D01*
X108700000Y-118200000D02*
X108400000Y-118500000D01*
X108700000Y-117550000D02*
X108700000Y-118200000D01*
X108400000Y-118500000D02*
X108000000Y-118500000D01*
%TO.N,GND*%
X105988100Y-119110671D02*
X106098771Y-119000000D01*
X106098771Y-119000000D02*
X107400000Y-119000000D01*
X100850000Y-120100000D02*
X101700000Y-120100000D01*
X101700000Y-120100000D02*
X102300000Y-120700000D01*
%TO.N,Net-(U12-CK0)*%
X100850000Y-121000000D02*
X101400000Y-121000000D01*
X101400000Y-121000000D02*
X102000000Y-121300000D01*
X102000000Y-121300000D02*
X103500000Y-121100000D01*
X103500000Y-121100000D02*
X103900000Y-120600000D01*
X103900000Y-120600000D02*
X104578963Y-120419996D01*
%TO.N,GND*%
X97100000Y-120600000D02*
X96950000Y-120600000D01*
X96950000Y-120600000D02*
X95900663Y-119550663D01*
X95900663Y-119550663D02*
X95653974Y-119550663D01*
%TO.N,Net-(U13-CK0)*%
X97900000Y-121300000D02*
X98400000Y-121000000D01*
X98400000Y-121000000D02*
X99150000Y-121000000D01*
X96100000Y-120600000D02*
X96500000Y-121100000D01*
X95421037Y-120419996D02*
X96100000Y-120600000D01*
X96500000Y-121100000D02*
X97900000Y-121300000D01*
%TO.N,GND*%
X91300000Y-117550000D02*
X91300000Y-118100000D01*
X91300000Y-118100000D02*
X91700000Y-118500000D01*
X90000000Y-112700000D02*
X90000000Y-112127208D01*
X90000000Y-112127208D02*
X89537437Y-111664645D01*
%TO.N,+3.3V*%
X81400000Y-108100000D02*
X81900000Y-107700000D01*
X81700000Y-108800000D02*
X81400000Y-108500000D01*
X82350000Y-108800000D02*
X81700000Y-108800000D01*
X81400000Y-108500000D02*
X81400000Y-108100000D01*
%TO.N,GND*%
X85200000Y-109200000D02*
X84800000Y-108800000D01*
X84800000Y-108800000D02*
X84050000Y-108800000D01*
X80889329Y-105988100D02*
X81100000Y-106800000D01*
X81100000Y-106800000D02*
X80800000Y-107500000D01*
%TO.N,Net-(U17-CK0)*%
X80200000Y-107600000D02*
X80200000Y-106900000D01*
X81100000Y-109300000D02*
X80600000Y-108500000D01*
X80200000Y-106900000D02*
X80019996Y-106221037D01*
X80600000Y-108500000D02*
X80200000Y-107600000D01*
%TO.N,GND*%
X79300000Y-102500000D02*
X79900000Y-101900000D01*
X79900000Y-101900000D02*
X79900000Y-100850000D01*
%TO.N,Net-(U18-CK0)*%
X78900000Y-103500000D02*
X79400000Y-103900000D01*
X79000000Y-101600000D02*
X78627073Y-102197482D01*
X79000000Y-100850000D02*
X79000000Y-101600000D01*
X78627073Y-102197482D02*
X78900000Y-103500000D01*
X79400000Y-103900000D02*
X79580004Y-104578963D01*
%TO.N,GND*%
X79300000Y-97000000D02*
X80449337Y-95850663D01*
X80449337Y-95850663D02*
X80449337Y-95653974D01*
%TO.N,Net-(U19-CK0)*%
X79580004Y-95421037D02*
X79400000Y-96100000D01*
X79400000Y-96100000D02*
X78800000Y-96600000D01*
X78800000Y-96600000D02*
X78600000Y-98000000D01*
X78600000Y-98000000D02*
X79000000Y-98400000D01*
X79000000Y-98400000D02*
X79000000Y-99150000D01*
%TO.N,+3.3V*%
X95000000Y-80600000D02*
X95653974Y-80349337D01*
%TO.N,GND*%
X94011900Y-80789329D02*
X92000000Y-81100000D01*
%TO.N,Net-(P6-P1)*%
X96600000Y-79100000D02*
X95421037Y-79480004D01*
%TO.N,Net-(P5-P1)*%
X95188100Y-78610671D02*
X94500000Y-79300000D01*
%TO.N,GND*%
X82150000Y-91000000D02*
X81400000Y-91400000D01*
%TO.N,Net-(P2-P1)*%
X99600000Y-79000000D02*
X99150000Y-79000000D01*
X99600000Y-79000000D02*
X100000000Y-78600000D01*
%TO.N,Net-(P3-P1)*%
X97800000Y-78200000D02*
X99150000Y-78100000D01*
%TO.N,GND*%
X119210671Y-94011900D02*
X119210671Y-92610671D01*
X119210671Y-92610671D02*
X118800000Y-92200000D01*
X114800000Y-90800000D02*
X115200000Y-91200000D01*
X115200000Y-91200000D02*
X115950000Y-91200000D01*
%TO.N,Net-(U1-SDO)*%
X100850000Y-78100000D02*
X102792526Y-78070062D01*
X102792526Y-78070062D02*
X104811900Y-78610671D01*
%TO.N,Net-(U22-SDO)*%
X88364643Y-87062561D02*
G75*
G03*
X89400000Y-84562995I-2499543J2499561D01*
G01*
%TO.N,+3.3V*%
X115950000Y-108700000D02*
X114600000Y-108700000D01*
%TO.N,GND*%
X108900000Y-81900000D02*
X108400000Y-81400000D01*
X108900000Y-82150000D02*
X108900000Y-81900000D01*
%TO.N,+3.3V*%
X92350000Y-82150000D02*
X92400000Y-82200000D01*
X91200000Y-82150000D02*
X92350000Y-82150000D01*
X83850000Y-91000000D02*
X85200000Y-91000000D01*
X120100000Y-100850000D02*
X120100000Y-102000000D01*
X104346026Y-119550663D02*
X103400000Y-119800000D01*
X80889329Y-94011900D02*
X81200000Y-92800000D01*
X119650663Y-95653974D02*
X119900000Y-96700000D01*
X110462563Y-111664645D02*
X109600000Y-112500000D01*
X79900000Y-99150000D02*
X79900000Y-97900000D01*
X99150000Y-120100000D02*
X98100000Y-120100000D01*
X91300000Y-115850000D02*
X91300000Y-114700000D01*
X88335355Y-110462563D02*
X87400000Y-109600000D01*
X89637437Y-88335355D02*
X90400000Y-87400000D01*
X94011900Y-119110671D02*
X92900000Y-118800000D01*
X80449337Y-104346026D02*
X80100000Y-103200000D01*
%TO.N,Net-(U2-CK0)*%
X109800000Y-82150000D02*
X109800000Y-81441421D01*
X106221037Y-79919996D02*
X109200000Y-80900000D01*
X109700000Y-81200000D02*
X109541421Y-81041421D01*
X109799991Y-81441421D02*
G75*
G03*
X109700000Y-81200000I-341391J21D01*
G01*
X109541412Y-81041430D02*
G75*
G03*
X109200000Y-80900000I-341412J-341370D01*
G01*
%TO.N,Net-(U2-SDO)*%
X110487868Y-80887868D02*
X110100000Y-80500000D01*
X110700000Y-82150000D02*
X110700000Y-81400000D01*
X110100000Y-80500000D02*
X106453974Y-79050663D01*
X110699989Y-81400000D02*
G75*
G03*
X110487868Y-80887868I-724289J0D01*
G01*
%TO.N,Net-(U3-CK0)*%
X109800000Y-83850000D02*
X109800000Y-84562995D01*
X109799997Y-84562995D02*
G75*
G03*
X111098959Y-87698959I4434903J-5D01*
G01*
%TO.N,Net-(U3-SDO)*%
X110700000Y-84562995D02*
X110700000Y-83850000D01*
X110699997Y-84562995D02*
G75*
G03*
X111735355Y-87062563I3534903J-5D01*
G01*
%TO.N,Net-(U4-CK0)*%
X115678426Y-90300000D02*
X115950000Y-90300000D01*
X112301037Y-88901045D02*
G75*
G03*
X115678426Y-90300000I3377363J3377345D01*
G01*
%TO.N,Net-(U4-SDO)*%
X115678426Y-89400000D02*
X115950000Y-89400000D01*
X112937433Y-88264649D02*
G75*
G03*
X115678426Y-89400000I2740967J2740949D01*
G01*
%TO.N,Net-(U5-CK0)*%
X120080004Y-93778963D02*
X119100000Y-90800000D01*
X117650000Y-90300000D02*
X117892894Y-90300000D01*
X119100002Y-90799998D02*
G75*
G03*
X117892894Y-90300000I-1207102J-1207102D01*
G01*
%TO.N,Net-(U5-SDO)*%
X119442462Y-90142462D02*
X119800000Y-90500000D01*
X120949337Y-93546026D02*
X119800000Y-90500000D01*
X119442457Y-90142467D02*
G75*
G03*
X117650000Y-89400000I-1792457J-1792433D01*
G01*
%TO.N,Net-(U6-SDO)*%
X121800000Y-97100000D02*
X121389329Y-95188100D01*
X121900000Y-99150000D02*
X121800000Y-97100000D01*
%TO.N,Net-(U7-SDO)*%
X121800000Y-103000000D02*
X121389329Y-104811900D01*
X121900000Y-100850000D02*
X121800000Y-103000000D01*
%TO.N,Net-(U8-CK0)*%
X117650000Y-109600000D02*
X118217158Y-109600000D01*
X120080004Y-106221037D02*
X119800000Y-107200000D01*
X119800000Y-107200000D02*
X118700000Y-109400000D01*
X118217158Y-109599982D02*
G75*
G03*
X118700000Y-109400000I42J682782D01*
G01*
%TO.N,Net-(U8-SDO)*%
X120600000Y-107600000D02*
X119300000Y-109900000D01*
X117650000Y-110500000D02*
X117851472Y-110500000D01*
X120949337Y-106453974D02*
X120600000Y-107600000D01*
X117851472Y-110499988D02*
G75*
G03*
X119300000Y-109900000I28J2048488D01*
G01*
%TO.N,Net-(U10-CKI)*%
X115919848Y-109600000D02*
X115950000Y-109600000D01*
X115919848Y-109600044D02*
G75*
G03*
X112301041Y-111098959I-48J-5117756D01*
G01*
%TO.N,Net-(U10-SDI)*%
X115919847Y-110500000D02*
X115950000Y-110500000D01*
X115919847Y-110500044D02*
G75*
G03*
X112937437Y-111735355I-47J-4217756D01*
G01*
%TO.N,Net-(U10-CK0)*%
X111049569Y-112350431D02*
X111098959Y-112301041D01*
X111049577Y-112350439D02*
G75*
G03*
X109600000Y-115850000I3499523J-3499561D01*
G01*
%TO.N,Net-(U10-SDO)*%
X111685965Y-112986827D02*
X111735355Y-112937437D01*
X111685973Y-112986835D02*
G75*
G03*
X110500000Y-115850000I2863127J-2863165D01*
G01*
%TO.N,Net-(U11-CK0)*%
X106221037Y-119980004D02*
X107200000Y-119700000D01*
X109600000Y-117550000D02*
X109600000Y-117692894D01*
X107200000Y-119700000D02*
X109100000Y-118900000D01*
X109100002Y-118900002D02*
G75*
G03*
X109600000Y-117692894I-1207102J1207102D01*
G01*
%TO.N,Net-(U11-SDO)*%
X106453974Y-120849337D02*
X107400000Y-120600000D01*
X109700000Y-119400000D02*
X107400000Y-120600000D01*
X109757538Y-119342462D02*
X109700000Y-119400000D01*
X109757533Y-119342457D02*
G75*
G03*
X110500000Y-117550000I-1792433J1792457D01*
G01*
%TO.N,Net-(U12-SDO)*%
X103000000Y-121700000D02*
X104811900Y-121289329D01*
X100850000Y-121900000D02*
X103000000Y-121700000D01*
%TO.N,Net-(U13-SDO)*%
X99150000Y-121900000D02*
X97100000Y-121700000D01*
X97100000Y-121700000D02*
X95188100Y-121289329D01*
%TO.N,Net-(U14-CK0)*%
X90700000Y-118800000D02*
X92800000Y-119700000D01*
X93778963Y-119980004D02*
X92800000Y-119700000D01*
X90400000Y-117550000D02*
X90400000Y-118075736D01*
X90399986Y-118075736D02*
G75*
G03*
X90700001Y-118799999I1024314J36D01*
G01*
%TO.N,Net-(U14-SDO)*%
X92700000Y-120600000D02*
X89900000Y-119000000D01*
X93546026Y-120849337D02*
X92700000Y-120600000D01*
X89500000Y-117550000D02*
X89500000Y-118034315D01*
X89499994Y-118034315D02*
G75*
G03*
X89900000Y-119000000I1365706J15D01*
G01*
%TO.N,Net-(U15-CK0)*%
X88950431Y-112350431D02*
X88901041Y-112301041D01*
X90400011Y-115850000D02*
G75*
G03*
X88950431Y-112350431I-4949111J0D01*
G01*
%TO.N,Net-(U15-SDO)*%
X88314035Y-112986827D02*
X88264645Y-112937437D01*
X89500011Y-115850000D02*
G75*
G03*
X88314035Y-112986827I-4049111J0D01*
G01*
%TO.N,Net-(U16-CK0)*%
X84050000Y-109700000D02*
X84321574Y-109700000D01*
X87698963Y-111098955D02*
G75*
G03*
X84321574Y-109700000I-3377363J-3377345D01*
G01*
%TO.N,Net-(U16-SDO)*%
X84050000Y-110600000D02*
X84321574Y-110600000D01*
X87062567Y-111735351D02*
G75*
G03*
X84321574Y-110600000I-2740967J-2740949D01*
G01*
%TO.N,Net-(U17-CK0)*%
X82350000Y-109700000D02*
X82065685Y-109700000D01*
X81100004Y-109299996D02*
G75*
G03*
X82065685Y-109700000I965696J965696D01*
G01*
%TO.N,Net-(U17-SDO)*%
X79150663Y-106453974D02*
X79400000Y-107400000D01*
X80700000Y-110000000D02*
X79400000Y-107400000D01*
X82350000Y-110600000D02*
X82148528Y-110600000D01*
X80699992Y-110000008D02*
G75*
G03*
X82148528Y-110600000I1448508J1448508D01*
G01*
%TO.N,Net-(U18-SDO)*%
X78710671Y-104811900D02*
X78300000Y-103000000D01*
X78300000Y-103000000D02*
X78100000Y-100850000D01*
%TO.N,Net-(U19-SDO)*%
X78200000Y-97100000D02*
X78100000Y-99150000D01*
X78710671Y-95188100D02*
X78200000Y-97100000D01*
%TO.N,Net-(U20-CK0)*%
X81000000Y-90500000D02*
X80019996Y-93778963D01*
X82150000Y-90100000D02*
X81965685Y-90100000D01*
X81965685Y-90099994D02*
G75*
G03*
X81000000Y-90500000I15J-1365706D01*
G01*
%TO.N,Net-(U20-SDO)*%
X80869670Y-89730330D02*
X80600000Y-90000000D01*
X79150663Y-93546026D02*
X80600000Y-90000000D01*
X82150000Y-89200012D02*
G75*
G03*
X80869670Y-89730330I0J-1810688D01*
G01*
%TO.N,Net-(U21-CK0)*%
X83850000Y-90100000D02*
X84904416Y-90100000D01*
X84904416Y-90100011D02*
G75*
G03*
X87798958Y-88901040I-16J4093511D01*
G01*
%TO.N,Net-(U21-SDO)*%
X83850000Y-89200000D02*
X84904417Y-89200000D01*
X84904417Y-89200012D02*
G75*
G03*
X87162563Y-88264645I-17J3193512D01*
G01*
%TO.N,Net-(U22-CK0)*%
X90300000Y-84562995D02*
X90300000Y-83850000D01*
X89001039Y-87698957D02*
G75*
G03*
X90300000Y-84562995I-3135939J3135957D01*
G01*
%TO.N,Net-(U22-SDO)*%
X89400000Y-84562995D02*
X89400000Y-83850000D01*
%TO.N,Net-(U23-CK0)*%
X90300000Y-82150000D02*
X90300000Y-81865685D01*
X91200000Y-80600000D02*
X90700000Y-80900000D01*
X93778963Y-79919996D02*
X91200000Y-80600000D01*
X90700004Y-80900004D02*
G75*
G03*
X90300000Y-81865685I965696J-965696D01*
G01*
%TO.N,Net-(U23-SDO)*%
X89400000Y-82150000D02*
X89400000Y-82089949D01*
X90600000Y-80100000D02*
X90100000Y-80400000D01*
X93546026Y-79050663D02*
X90600000Y-80100000D01*
X90099986Y-80399986D02*
G75*
G03*
X89400000Y-82089949I1689914J-1689914D01*
G01*
%TD*%
M02*
