%TF.GenerationSoftware,KiCad,Pcbnew,7.0.6*%
%TF.CreationDate,2023-08-09T14:48:55+09:30*%
%TF.ProjectId,backplane,6261636b-706c-4616-9e65-2e6b69636164,V1.0*%
%TF.SameCoordinates,Original*%
%TF.FileFunction,OtherDrawing,Comment*%
%FSLAX46Y46*%
G04 Gerber Fmt 4.6, Leading zero omitted, Abs format (unit mm)*
G04 Created by KiCad (PCBNEW 7.0.6) date 2023-08-09 14:48:55*
%MOMM*%
%LPD*%
G01*
G04 APERTURE LIST*
%ADD10C,0.050000*%
%ADD11C,0.100000*%
G04 APERTURE END LIST*
D10*
%TO.C,SL5*%
X128750000Y-97725000D02*
X128750000Y-97275000D01*
X128525000Y-97500000D02*
X128975000Y-97500000D01*
X128918800Y-97500000D02*
G75*
G03*
X128918800Y-97500000I-168800J0D01*
G01*
%TO.C,MNT2*%
X142000000Y-70650000D02*
X142000000Y-71350000D01*
X142350000Y-71000000D02*
X141650000Y-71000000D01*
X142250000Y-71000000D02*
G75*
G03*
X142250000Y-71000000I-250000J0D01*
G01*
%TO.C,R1*%
X131100000Y-93250000D02*
X130400000Y-93250000D01*
X130750000Y-93600000D02*
X130750000Y-92900000D01*
X131000000Y-93250000D02*
G75*
G03*
X131000000Y-93250000I-250000J0D01*
G01*
%TO.C,SL1*%
X115525000Y-126500000D02*
X115975000Y-126500000D01*
X115750000Y-126275000D02*
X115750000Y-126725000D01*
X115918800Y-126500000D02*
G75*
G03*
X115918800Y-126500000I-168800J0D01*
G01*
%TO.C,R2*%
X131000000Y-100250000D02*
G75*
G03*
X131000000Y-100250000I-250000J0D01*
G01*
X130750000Y-99900000D02*
X130750000Y-100600000D01*
X130400000Y-100250000D02*
X131100000Y-100250000D01*
%TO.C,R9*%
X115500000Y-90850000D02*
X115500000Y-90150000D01*
X115150000Y-90500000D02*
X115850000Y-90500000D01*
X115750000Y-90500000D02*
G75*
G03*
X115750000Y-90500000I-250000J0D01*
G01*
D11*
%TO.C,X1*%
X113100000Y-146000000D02*
X118000000Y-146000000D01*
X118400000Y-146000000D02*
X119000000Y-146000000D01*
X119400000Y-146000000D02*
X119600000Y-146000000D01*
X113100000Y-145400000D02*
X113100000Y-146000000D01*
X109250000Y-145000000D02*
X112700000Y-145000000D01*
X109250000Y-145000000D02*
X109250000Y-138400000D01*
X109250000Y-138400000D02*
X111550000Y-138400000D01*
X109250000Y-137000000D02*
X111550000Y-137000000D01*
X109250000Y-125000000D02*
X109250000Y-137000000D01*
X109250000Y-125000000D02*
X112700000Y-125000000D01*
X113100000Y-124600000D02*
X113100000Y-124000000D01*
X113100000Y-124000000D02*
X118000000Y-124000000D01*
X118400000Y-124000000D02*
X119000000Y-124000000D01*
X119400000Y-124000000D02*
X119600000Y-124000000D01*
X113100000Y-145400000D02*
G75*
G03*
X112700000Y-145000000I-399999J1D01*
G01*
X111550000Y-138400000D02*
G75*
G03*
X111550000Y-137000000I0J700000D01*
G01*
X112700000Y-125000000D02*
G75*
G03*
X113100000Y-124600000I0J400000D01*
G01*
D10*
%TO.C,F2*%
X115735000Y-96900000D02*
X115735000Y-97600000D01*
X116085000Y-97250000D02*
X115385000Y-97250000D01*
X115985000Y-97250000D02*
G75*
G03*
X115985000Y-97250000I-250000J0D01*
G01*
%TO.C,C2*%
X130750000Y-127150000D02*
X130750000Y-127850000D01*
X131100000Y-127500000D02*
X130400000Y-127500000D01*
X131000000Y-127500000D02*
G75*
G03*
X131000000Y-127500000I-250000J0D01*
G01*
%TO.C,MNT3*%
X104000000Y-70650000D02*
X104000000Y-71350000D01*
X104350000Y-71000000D02*
X103650000Y-71000000D01*
X104250000Y-71000000D02*
G75*
G03*
X104250000Y-71000000I-250000J0D01*
G01*
%TO.C,MNT1*%
X133000000Y-139150000D02*
X133000000Y-139850000D01*
X133350000Y-139500000D02*
X132650000Y-139500000D01*
X133250000Y-139500000D02*
G75*
G03*
X133250000Y-139500000I-250000J0D01*
G01*
%TO.C,SL4*%
X128750000Y-96225000D02*
X128750000Y-95775000D01*
X128525000Y-96000000D02*
X128975000Y-96000000D01*
X128918800Y-96000000D02*
G75*
G03*
X128918800Y-96000000I-168800J0D01*
G01*
%TO.C,C3*%
X130750000Y-125045000D02*
X130750000Y-125745000D01*
X131100000Y-125395000D02*
X130400000Y-125395000D01*
X131000000Y-125395000D02*
G75*
G03*
X131000000Y-125395000I-250000J0D01*
G01*
D11*
%TO.C,X3*%
X134000000Y-110400000D02*
X134000000Y-105500000D01*
X134000000Y-105100000D02*
X134000000Y-104500000D01*
X134000000Y-104100000D02*
X134000000Y-103900000D01*
X133400000Y-110400000D02*
X134000000Y-110400000D01*
X133000000Y-114250000D02*
X133000000Y-110800000D01*
X133000000Y-114250000D02*
X126400000Y-114250000D01*
X126400000Y-114250000D02*
X126400000Y-111950000D01*
X125000000Y-114250000D02*
X125000000Y-111950000D01*
X113000000Y-114250000D02*
X125000000Y-114250000D01*
X113000000Y-114250000D02*
X113000000Y-110800000D01*
X112600000Y-110400000D02*
X112000000Y-110400000D01*
X112000000Y-110400000D02*
X112000000Y-105500000D01*
X112000000Y-105100000D02*
X112000000Y-104500000D01*
X112000000Y-104100000D02*
X112000000Y-103900000D01*
X133400000Y-110400000D02*
G75*
G03*
X133000000Y-110800000I-1J-399999D01*
G01*
X126400000Y-111950000D02*
G75*
G03*
X125000000Y-111950000I-700000J0D01*
G01*
X113000000Y-110800000D02*
G75*
G03*
X112600000Y-110400000I-400000J0D01*
G01*
D10*
%TO.C,R15*%
X115400000Y-129000000D02*
X116100000Y-129000000D01*
X115750000Y-128650000D02*
X115750000Y-129350000D01*
X116000000Y-129000000D02*
G75*
G03*
X116000000Y-129000000I-250000J0D01*
G01*
%TO.C,C1*%
X130750000Y-134150000D02*
X130750000Y-134850000D01*
X131100000Y-134500000D02*
X130400000Y-134500000D01*
X131000000Y-134500000D02*
G75*
G03*
X131000000Y-134500000I-250000J0D01*
G01*
%TO.C,R16*%
X110000000Y-108400000D02*
X110000000Y-109100000D01*
X110350000Y-108750000D02*
X109650000Y-108750000D01*
X110250000Y-108750000D02*
G75*
G03*
X110250000Y-108750000I-250000J0D01*
G01*
%TO.C,Q1*%
X115750000Y-87500000D02*
G75*
G03*
X115750000Y-87500000I-250000J0D01*
G01*
X115150000Y-87500000D02*
X115850000Y-87500000D01*
X115500000Y-87850000D02*
X115500000Y-87150000D01*
%TO.C,R3*%
X129100000Y-93250000D02*
X128400000Y-93250000D01*
X128750000Y-93600000D02*
X128750000Y-92900000D01*
X129000000Y-93250000D02*
G75*
G03*
X129000000Y-93250000I-250000J0D01*
G01*
%TO.C,R5*%
X142000000Y-136100000D02*
X142000000Y-135400000D01*
X141650000Y-135750000D02*
X142350000Y-135750000D01*
X142250000Y-135750000D02*
G75*
G03*
X142250000Y-135750000I-250000J0D01*
G01*
%TO.C,R11*%
X127650000Y-125500000D02*
X128350000Y-125500000D01*
X128000000Y-125150000D02*
X128000000Y-125850000D01*
X128250000Y-125500000D02*
G75*
G03*
X128250000Y-125500000I-250000J0D01*
G01*
%TO.C,U9*%
X130400000Y-131250000D02*
X131100000Y-131250000D01*
X130750000Y-130900000D02*
X130750000Y-131600000D01*
X131000000Y-131250000D02*
G75*
G03*
X131000000Y-131250000I-250000J0D01*
G01*
%TO.C,R4*%
X129000000Y-100250000D02*
G75*
G03*
X129000000Y-100250000I-250000J0D01*
G01*
X128750000Y-99900000D02*
X128750000Y-100600000D01*
X128400000Y-100250000D02*
X129100000Y-100250000D01*
%TO.C,U1*%
X126500000Y-143850000D02*
X126500000Y-143150000D01*
X126150000Y-143500000D02*
X126850000Y-143500000D01*
X126750000Y-143500000D02*
G75*
G03*
X126750000Y-143500000I-250000J0D01*
G01*
%TO.C,R8*%
X115500000Y-91900000D02*
X115500000Y-92600000D01*
X115850000Y-92250000D02*
X115150000Y-92250000D01*
X115750000Y-92250000D02*
G75*
G03*
X115750000Y-92250000I-250000J0D01*
G01*
%TO.C,R10*%
X127650000Y-128750000D02*
X128350000Y-128750000D01*
X128000000Y-128400000D02*
X128000000Y-129100000D01*
X128250000Y-128750000D02*
G75*
G03*
X128250000Y-128750000I-250000J0D01*
G01*
%TO.C,SL7*%
X133975000Y-96750000D02*
X133525000Y-96750000D01*
X133750000Y-96975000D02*
X133750000Y-96525000D01*
X133918800Y-96750000D02*
G75*
G03*
X133918800Y-96750000I-168800J0D01*
G01*
%TO.C,SL6*%
X132525000Y-96750000D02*
X132975000Y-96750000D01*
X132750000Y-96525000D02*
X132750000Y-96975000D01*
X132918800Y-96750000D02*
G75*
G03*
X132918800Y-96750000I-168800J0D01*
G01*
%TO.C,R13*%
X115750000Y-94000000D02*
G75*
G03*
X115750000Y-94000000I-250000J0D01*
G01*
X115150000Y-94000000D02*
X115850000Y-94000000D01*
X115500000Y-94350000D02*
X115500000Y-93650000D01*
%TO.C,R12*%
X127650000Y-132000000D02*
X128350000Y-132000000D01*
X128000000Y-131650000D02*
X128000000Y-132350000D01*
X128250000Y-132000000D02*
G75*
G03*
X128250000Y-132000000I-250000J0D01*
G01*
%TO.C,R7*%
X138500000Y-100250000D02*
G75*
G03*
X138500000Y-100250000I-250000J0D01*
G01*
X138250000Y-100600000D02*
X138250000Y-99900000D01*
X138600000Y-100250000D02*
X137900000Y-100250000D01*
%TO.C,R6*%
X142025000Y-134350000D02*
X142025000Y-133650000D01*
X141675000Y-134000000D02*
X142375000Y-134000000D01*
X142275000Y-134000000D02*
G75*
G03*
X142275000Y-134000000I-250000J0D01*
G01*
%TO.C,F1*%
X126500000Y-139850000D02*
X126500000Y-139150000D01*
X126150000Y-139500000D02*
X126850000Y-139500000D01*
X126750000Y-139500000D02*
G75*
G03*
X126750000Y-139500000I-250000J0D01*
G01*
%TO.C,D1*%
X141100000Y-79000000D02*
X140400000Y-79000000D01*
X140750000Y-78650000D02*
X140750000Y-79350000D01*
X141000000Y-79000000D02*
G75*
G03*
X141000000Y-79000000I-250000J0D01*
G01*
%TO.C,MNT4*%
X123000000Y-103650000D02*
X123000000Y-104350000D01*
X122650000Y-104000000D02*
X123350000Y-104000000D01*
X123250000Y-104000000D02*
G75*
G03*
X123250000Y-104000000I-250000J0D01*
G01*
%TO.C,MNT7*%
X123000000Y-53650000D02*
X123000000Y-54350000D01*
X122650000Y-54000000D02*
X123350000Y-54000000D01*
X123250000Y-54000000D02*
G75*
G03*
X123250000Y-54000000I-250000J0D01*
G01*
%TO.C,X2*%
X105000000Y-142027500D02*
X105000000Y-141392500D01*
X105317500Y-141710000D02*
X104682500Y-141710000D01*
X105238100Y-141710000D02*
G75*
G03*
X105238100Y-141710000I-238100J0D01*
G01*
%TO.C,MNT6*%
X123000000Y-83650000D02*
X123000000Y-84350000D01*
X122650000Y-84000000D02*
X123350000Y-84000000D01*
X123250000Y-84000000D02*
G75*
G03*
X123250000Y-84000000I-250000J0D01*
G01*
%TO.C,MNT5*%
X123000000Y-73650000D02*
X123000000Y-74350000D01*
X122650000Y-74000000D02*
X123350000Y-74000000D01*
X123250000Y-74000000D02*
G75*
G03*
X123250000Y-74000000I-250000J0D01*
G01*
%TD*%
M02*
