%TF.GenerationSoftware,KiCad,Pcbnew,7.0.6*%
%TF.CreationDate,2023-08-09T14:49:31+09:30*%
%TF.ProjectId,backplane,6261636b-706c-4616-9e65-2e6b69636164,V1.0*%
%TF.SameCoordinates,Original*%
%TF.FileFunction,Drillmap*%
%TF.FilePolarity,Positive*%
%FSLAX45Y45*%
G04 Gerber Fmt 4.5, Leading zero omitted, Abs format (unit mm)*
G04 Created by KiCad (PCBNEW 7.0.6) date 2023-08-09 14:49:31*
%MOMM*%
%LPD*%
G01*
G04 APERTURE LIST*
%ADD10C,0.100000*%
%ADD11C,0.200000*%
%ADD12C,0.030000*%
%ADD13C,0.040000*%
%ADD14C,0.060000*%
%ADD15C,0.101600*%
%ADD16C,0.370000*%
G04 APERTURE END LIST*
D10*
X10000000Y-14900000D02*
X10000000Y-5100000D01*
X14500000Y-15000000D02*
G75*
G03*
X14600000Y-14900000I0J100000D01*
G01*
X14600000Y-5100000D02*
G75*
G03*
X14500000Y-5000000I-100000J0D01*
G01*
X14500000Y-15000000D02*
X10100000Y-15000000D01*
X10000000Y-14900000D02*
G75*
G03*
X10100000Y-15000000I100000J0D01*
G01*
X12775000Y-5050000D02*
X12775000Y-5200000D01*
X14500000Y-5000000D02*
X14050000Y-5000000D01*
X14000000Y-5200000D02*
X14000000Y-5050000D01*
X10100000Y-5000000D02*
X12725000Y-5000000D01*
X12775000Y-5200000D02*
G75*
G03*
X12825000Y-5250000I50000J0D01*
G01*
X12825000Y-5250000D02*
X13950000Y-5250000D01*
X10100000Y-5000000D02*
G75*
G03*
X10000000Y-5100000I0J-100000D01*
G01*
X14050000Y-5000000D02*
G75*
G03*
X14000000Y-5050000I0J-50000D01*
G01*
X13950000Y-5250000D02*
G75*
G03*
X14000000Y-5200000I0J50000D01*
G01*
X12775000Y-5050000D02*
G75*
G03*
X12725000Y-5000000I-50000J0D01*
G01*
X14600000Y-5100000D02*
X14600000Y-14900000D01*
D11*
D12*
X10105000Y-11105000D02*
X10135000Y-11135000D01*
X10135000Y-11105000D02*
X10105000Y-11135000D01*
X10110000Y-13960000D02*
X10140000Y-13990000D01*
X10140000Y-13960000D02*
X10110000Y-13990000D01*
X10165000Y-14825000D02*
X10195000Y-14855000D01*
X10195000Y-14825000D02*
X10165000Y-14855000D01*
X10335000Y-13309999D02*
X10365000Y-13339999D01*
X10365000Y-13309999D02*
X10335000Y-13339999D01*
X10335000Y-13460000D02*
X10365000Y-13490000D01*
X10365000Y-13460000D02*
X10335000Y-13490000D01*
X10335000Y-13610000D02*
X10365000Y-13640000D01*
X10365000Y-13610000D02*
X10335000Y-13640000D01*
X10360000Y-13785000D02*
X10390000Y-13815000D01*
X10390000Y-13785000D02*
X10360000Y-13815000D01*
X10410000Y-14560000D02*
X10440000Y-14590000D01*
X10440000Y-14560000D02*
X10410000Y-14590000D01*
X10435000Y-13810000D02*
X10465000Y-13840000D01*
X10465000Y-13810000D02*
X10435000Y-13840000D01*
X10585000Y-11945000D02*
X10615000Y-11975000D01*
X10615000Y-11945000D02*
X10585000Y-11975000D01*
X10625000Y-10565000D02*
X10655000Y-10595000D01*
X10655000Y-10565000D02*
X10625000Y-10595000D01*
X10645000Y-14705000D02*
X10675000Y-14735000D01*
X10675000Y-14705000D02*
X10645000Y-14735000D01*
X10725000Y-13705000D02*
X10755000Y-13735000D01*
X10755000Y-13705000D02*
X10725000Y-13735000D01*
X10735000Y-12610000D02*
X10765000Y-12640000D01*
X10765000Y-12610000D02*
X10735000Y-12640000D01*
X10745000Y-13085000D02*
X10775000Y-13115000D01*
X10775000Y-13085000D02*
X10745000Y-13115000D01*
X10785000Y-9685000D02*
X10815000Y-9715000D01*
X10815000Y-9685000D02*
X10785000Y-9715000D01*
X10810000Y-13234999D02*
X10840000Y-13264999D01*
X10840000Y-13234999D02*
X10810000Y-13264999D01*
X10865000Y-11645000D02*
X10895000Y-11675000D01*
X10895000Y-11645000D02*
X10865000Y-11675000D01*
X10885000Y-14156000D02*
X10915000Y-14186000D01*
X10915000Y-14156000D02*
X10885000Y-14186000D01*
X10910000Y-13335000D02*
X10940000Y-13365000D01*
X10940000Y-13335000D02*
X10910000Y-13365000D01*
X10985000Y-12685000D02*
X11015000Y-12715000D01*
X11015000Y-12685000D02*
X10985000Y-12715000D01*
X10985000Y-12835000D02*
X11015000Y-12865000D01*
X11015000Y-12835000D02*
X10985000Y-12865000D01*
X11005000Y-13305000D02*
X11035000Y-13335000D01*
X11035000Y-13305000D02*
X11005000Y-13335000D01*
X11006109Y-13206109D02*
X11036109Y-13236109D01*
X11036109Y-13206109D02*
X11006109Y-13236109D01*
X11008609Y-13111391D02*
X11038609Y-13141391D01*
X11038609Y-13111391D02*
X11008609Y-13141391D01*
X11009999Y-13385000D02*
X11039999Y-13415000D01*
X11039999Y-13385000D02*
X11009999Y-13415000D01*
X11065000Y-14365000D02*
X11095000Y-14395000D01*
X11095000Y-14365000D02*
X11065000Y-14395000D01*
X11085000Y-14145000D02*
X11115000Y-14175000D01*
X11115000Y-14145000D02*
X11085000Y-14175000D01*
X11085000Y-14290000D02*
X11115000Y-14320000D01*
X11115000Y-14290000D02*
X11085000Y-14320000D01*
X11109999Y-12935000D02*
X11139999Y-12965000D01*
X11139999Y-12935000D02*
X11109999Y-12965000D01*
X11135000Y-11960000D02*
X11165000Y-11990000D01*
X11165000Y-11960000D02*
X11135000Y-11990000D01*
X11205000Y-10205000D02*
X11235000Y-10235000D01*
X11235000Y-10205000D02*
X11205000Y-10235000D01*
X11235000Y-9710000D02*
X11265000Y-9740000D01*
X11265000Y-9710000D02*
X11235000Y-9740000D01*
X11385000Y-10860000D02*
X11415000Y-10890000D01*
X11415000Y-10860000D02*
X11385000Y-10890000D01*
X11435000Y-11960000D02*
X11465000Y-11990000D01*
X11465000Y-11960000D02*
X11435000Y-11990000D01*
X11485000Y-10860001D02*
X11515000Y-10890001D01*
X11515000Y-10860001D02*
X11485000Y-10890001D01*
X11485000Y-13080000D02*
X11515000Y-13110000D01*
X11515000Y-13080000D02*
X11485000Y-13110000D01*
X11535000Y-12285000D02*
X11565000Y-12315000D01*
X11565000Y-12285000D02*
X11535000Y-12315000D01*
X11545000Y-14505000D02*
X11575000Y-14535000D01*
X11575000Y-14505000D02*
X11545000Y-14535000D01*
X11585000Y-10785000D02*
X11615000Y-10815000D01*
X11615000Y-10785000D02*
X11585000Y-10815000D01*
X11585000Y-12125000D02*
X11615000Y-12155000D01*
X11615000Y-12125000D02*
X11585000Y-12155000D01*
X11585000Y-12335000D02*
X11615000Y-12365000D01*
X11615000Y-12335000D02*
X11585000Y-12365000D01*
X11585000Y-13935000D02*
X11615000Y-13965000D01*
X11615000Y-13935000D02*
X11585000Y-13965000D01*
X11760000Y-11610000D02*
X11790000Y-11640000D01*
X11790000Y-11610000D02*
X11760000Y-11640000D01*
X11845000Y-11210000D02*
X11875000Y-11240000D01*
X11875000Y-11210000D02*
X11845000Y-11240000D01*
X11965000Y-11285000D02*
X11995000Y-11315000D01*
X11995000Y-11285000D02*
X11965000Y-11315000D01*
X11985000Y-12060000D02*
X12015000Y-12090000D01*
X12015000Y-12060000D02*
X11985000Y-12090000D01*
X12085000Y-11935000D02*
X12115000Y-11965000D01*
X12115000Y-11935000D02*
X12085000Y-11965000D01*
X12085000Y-13805000D02*
X12115000Y-13835000D01*
X12115000Y-13805000D02*
X12085000Y-13835000D01*
X12105000Y-14665000D02*
X12135000Y-14695000D01*
X12135000Y-14665000D02*
X12105000Y-14695000D01*
X12160000Y-11610000D02*
X12190000Y-11640000D01*
X12190000Y-11610000D02*
X12160000Y-11640000D01*
X12260000Y-11610000D02*
X12290000Y-11640000D01*
X12290000Y-11610000D02*
X12260000Y-11640000D01*
X12285000Y-9165000D02*
X12315000Y-9195000D01*
X12315000Y-9165000D02*
X12285000Y-9195000D01*
X12285000Y-9485000D02*
X12315000Y-9515000D01*
X12315000Y-9485000D02*
X12285000Y-9515000D01*
X12285000Y-11185000D02*
X12315000Y-11215000D01*
X12315000Y-11185000D02*
X12285000Y-11215000D01*
X12385000Y-11185000D02*
X12415000Y-11215000D01*
X12415000Y-11185000D02*
X12385000Y-11215000D01*
X12385000Y-11610000D02*
X12415000Y-11640000D01*
X12415000Y-11610000D02*
X12385000Y-11640000D01*
X12460000Y-11185000D02*
X12490000Y-11215000D01*
X12490000Y-11185000D02*
X12460000Y-11215000D01*
X12510000Y-11985000D02*
X12540000Y-12015000D01*
X12540000Y-11985000D02*
X12510000Y-12015000D01*
X12535000Y-13285000D02*
X12565000Y-13315000D01*
X12565000Y-13285000D02*
X12535000Y-13315000D01*
X12535000Y-13360000D02*
X12565000Y-13390000D01*
X12565000Y-13360000D02*
X12535000Y-13390000D01*
X12610000Y-11635000D02*
X12640000Y-11665000D01*
X12640000Y-11635000D02*
X12610000Y-11665000D01*
X12660000Y-11560000D02*
X12690000Y-11590000D01*
X12690000Y-11560000D02*
X12660000Y-11590000D01*
X12685000Y-12160000D02*
X12715000Y-12190000D01*
X12715000Y-12160000D02*
X12685000Y-12190000D01*
X12685000Y-12260000D02*
X12715000Y-12290000D01*
X12715000Y-12260000D02*
X12685000Y-12290000D01*
X12760000Y-7885000D02*
X12790000Y-7915000D01*
X12790000Y-7885000D02*
X12760000Y-7915000D01*
X12760000Y-11560000D02*
X12790000Y-11590000D01*
X12790000Y-11560000D02*
X12760000Y-11590000D01*
X12808500Y-8085000D02*
X12838500Y-8115000D01*
X12838500Y-8085000D02*
X12808500Y-8115000D01*
X12885000Y-14335000D02*
X12915000Y-14365000D01*
X12915000Y-14335000D02*
X12885000Y-14365000D01*
X12908500Y-11560000D02*
X12938500Y-11590000D01*
X12938500Y-11560000D02*
X12908500Y-11590000D01*
X12960000Y-11635000D02*
X12990000Y-11665000D01*
X12990000Y-11635000D02*
X12960000Y-11665000D01*
X12985000Y-10810000D02*
X13015000Y-10840000D01*
X13015000Y-10810000D02*
X12985000Y-10840000D01*
X12985000Y-12335000D02*
X13015000Y-12365000D01*
X13015000Y-12335000D02*
X12985000Y-12365000D01*
X13010000Y-9510000D02*
X13040000Y-9540000D01*
X13040000Y-9510000D02*
X13010000Y-9540000D01*
X13035000Y-12285000D02*
X13065000Y-12315000D01*
X13065000Y-12285000D02*
X13035000Y-12315000D01*
X13085000Y-11235000D02*
X13115000Y-11265000D01*
X13115000Y-11235000D02*
X13085000Y-11265000D01*
X13085000Y-12235000D02*
X13115000Y-12265000D01*
X13115000Y-12235000D02*
X13085000Y-12265000D01*
X13085001Y-9561500D02*
X13115001Y-9591500D01*
X13115001Y-9561500D02*
X13085001Y-9591500D01*
X13110000Y-10810000D02*
X13140000Y-10840000D01*
X13140000Y-10810000D02*
X13110000Y-10840000D01*
X13125000Y-9695000D02*
X13155000Y-9725000D01*
X13155000Y-9695000D02*
X13125000Y-9725000D01*
X13125000Y-14665000D02*
X13155000Y-14695000D01*
X13155000Y-14665000D02*
X13125000Y-14695000D01*
X13160000Y-11185000D02*
X13190000Y-11215000D01*
X13190000Y-11185000D02*
X13160000Y-11215000D01*
X13210000Y-11960000D02*
X13240000Y-11990000D01*
X13240000Y-11960000D02*
X13210000Y-11990000D01*
X13260000Y-8985000D02*
X13290000Y-9015000D01*
X13290000Y-8985000D02*
X13260000Y-9015000D01*
X13260000Y-10310000D02*
X13290000Y-10340000D01*
X13290000Y-10310000D02*
X13260000Y-10340000D01*
X13305000Y-11405000D02*
X13335000Y-11435000D01*
X13335000Y-11405000D02*
X13305000Y-11435000D01*
X13310000Y-12535000D02*
X13340000Y-12565000D01*
X13340000Y-12535000D02*
X13310000Y-12565000D01*
X13310000Y-12635000D02*
X13340000Y-12665000D01*
X13340000Y-12635000D02*
X13310000Y-12665000D01*
X13310000Y-12735000D02*
X13340000Y-12765000D01*
X13340000Y-12735000D02*
X13310000Y-12765000D01*
X13345000Y-13185000D02*
X13375000Y-13215000D01*
X13375000Y-13185000D02*
X13345000Y-13215000D01*
X13345000Y-13285000D02*
X13375000Y-13315000D01*
X13375000Y-13285000D02*
X13345000Y-13315000D01*
X13345000Y-13385000D02*
X13375000Y-13415000D01*
X13375000Y-13385000D02*
X13345000Y-13415000D01*
X13360000Y-7435000D02*
X13390000Y-7465000D01*
X13390000Y-7435000D02*
X13360000Y-7465000D01*
X13360000Y-8985000D02*
X13390000Y-9015000D01*
X13390000Y-8985000D02*
X13360000Y-9015000D01*
X13360000Y-10310000D02*
X13390000Y-10340000D01*
X13390000Y-10310000D02*
X13360000Y-10340000D01*
X13435000Y-9760000D02*
X13465000Y-9790000D01*
X13465000Y-9760000D02*
X13435000Y-9790000D01*
X13460000Y-6935000D02*
X13490000Y-6965000D01*
X13490000Y-6935000D02*
X13460000Y-6965000D01*
X13460000Y-8860000D02*
X13490000Y-8890000D01*
X13490000Y-8860000D02*
X13460000Y-8890000D01*
X13460000Y-9585000D02*
X13490000Y-9615000D01*
X13490000Y-9585000D02*
X13460000Y-9615000D01*
X13460000Y-10310000D02*
X13490000Y-10340000D01*
X13490000Y-10310000D02*
X13460000Y-10340000D01*
X13535000Y-14535000D02*
X13565000Y-14565000D01*
X13565000Y-14535000D02*
X13535000Y-14565000D01*
X13545000Y-8385000D02*
X13575000Y-8415000D01*
X13575000Y-8385000D02*
X13545000Y-8415000D01*
X13560000Y-6935000D02*
X13590000Y-6965000D01*
X13590000Y-6935000D02*
X13560000Y-6965000D01*
X13709999Y-7660000D02*
X13739999Y-7690000D01*
X13739999Y-7660000D02*
X13709999Y-7690000D01*
X13825000Y-11765000D02*
X13855000Y-11795000D01*
X13855000Y-11765000D02*
X13825000Y-11795000D01*
X13885000Y-8565000D02*
X13915000Y-8595000D01*
X13915000Y-8565000D02*
X13885000Y-8595000D01*
X13885000Y-12510000D02*
X13915000Y-12540000D01*
X13915000Y-12510000D02*
X13885000Y-12540000D01*
X13885000Y-12985000D02*
X13915000Y-13015000D01*
X13915000Y-12985000D02*
X13885000Y-13015000D01*
X13985000Y-10110000D02*
X14015000Y-10140000D01*
X14015000Y-10110000D02*
X13985000Y-10140000D01*
X14110000Y-13260000D02*
X14140000Y-13290000D01*
X14140000Y-13260000D02*
X14110000Y-13290000D01*
X14260000Y-13685000D02*
X14290000Y-13715000D01*
X14290000Y-13685000D02*
X14260000Y-13715000D01*
D13*
X10800001Y-11106188D02*
G75*
G03*
X10800001Y-11106188I-20000J0D01*
G01*
X10894999Y-11200000D02*
G75*
G03*
X10894999Y-11200000I-20000J0D01*
G01*
X10920000Y-10050000D02*
G75*
G03*
X10920000Y-10050000I-20000J0D01*
G01*
X10995000Y-10125000D02*
G75*
G03*
X10995000Y-10125000I-20000J0D01*
G01*
X10995000Y-11275000D02*
G75*
G03*
X10995000Y-11275000I-20000J0D01*
G01*
X11095000Y-11350000D02*
G75*
G03*
X11095000Y-11350000I-20000J0D01*
G01*
X11095000Y-11600000D02*
G75*
G03*
X11095000Y-11600000I-20000J0D01*
G01*
X13790000Y-14032500D02*
X13790000Y-14072500D01*
X13770000Y-14052500D02*
X13810000Y-14052500D01*
X13790000Y-14117500D02*
X13790000Y-14157500D01*
X13770000Y-14137500D02*
X13810000Y-14137500D01*
X13790000Y-14202500D02*
X13790000Y-14242500D01*
X13770000Y-14222500D02*
X13810000Y-14222500D01*
X13790000Y-14287500D02*
X13790000Y-14327500D01*
X13770000Y-14307500D02*
X13810000Y-14307500D01*
X13790000Y-14372500D02*
X13790000Y-14412500D01*
X13770000Y-14392500D02*
X13810000Y-14392500D01*
X13790000Y-14457500D02*
X13790000Y-14497500D01*
X13770000Y-14477500D02*
X13810000Y-14477500D01*
X13790000Y-14542500D02*
X13790000Y-14582500D01*
X13770000Y-14562500D02*
X13810000Y-14562500D01*
X13790000Y-14627500D02*
X13790000Y-14667500D01*
X13770000Y-14647500D02*
X13810000Y-14647500D01*
X13922500Y-14032000D02*
X13922500Y-14072000D01*
X13902500Y-14052000D02*
X13942500Y-14052000D01*
X13922500Y-14117000D02*
X13922500Y-14157000D01*
X13902500Y-14137000D02*
X13942500Y-14137000D01*
X13922500Y-14202000D02*
X13922500Y-14242000D01*
X13902500Y-14222000D02*
X13942500Y-14222000D01*
X13922500Y-14287000D02*
X13922500Y-14327000D01*
X13902500Y-14307000D02*
X13942500Y-14307000D01*
X13922500Y-14372000D02*
X13922500Y-14412000D01*
X13902500Y-14392000D02*
X13942500Y-14392000D01*
X13922500Y-14457000D02*
X13922500Y-14497000D01*
X13902500Y-14477000D02*
X13942500Y-14477000D01*
X13922500Y-14542000D02*
X13922500Y-14582000D01*
X13902500Y-14562000D02*
X13942500Y-14562000D01*
X13922500Y-14627500D02*
X13922500Y-14667500D01*
X13902500Y-14647500D02*
X13942500Y-14647500D01*
D14*
X13909213Y-13938713D02*
X13909213Y-13896287D01*
X13866787Y-13896287D01*
X13866787Y-13938713D01*
X13909213Y-13938713D01*
D11*
X13813000Y-13947500D02*
X13963000Y-13947500D01*
X13963000Y-13947500D02*
G75*
G03*
X13963000Y-13887500I0J30000D01*
G01*
X13963000Y-13887500D02*
X13813000Y-13887500D01*
X13813000Y-13887500D02*
G75*
G03*
X13813000Y-13947500I0J-30000D01*
G01*
D14*
X13909213Y-14803713D02*
X13909213Y-14761287D01*
X13866787Y-14761287D01*
X13866787Y-14803713D01*
X13909213Y-14803713D01*
D11*
X13813000Y-14812500D02*
X13963000Y-14812500D01*
X13963000Y-14812500D02*
G75*
G03*
X13963000Y-14752500I0J30000D01*
G01*
X13963000Y-14752500D02*
X13813000Y-14752500D01*
X13813000Y-14752500D02*
G75*
G03*
X13813000Y-14812500I0J-30000D01*
G01*
D14*
X14247213Y-13938713D02*
X14247213Y-13896287D01*
X14204787Y-13896287D01*
X14204787Y-13938713D01*
X14247213Y-13938713D01*
D11*
X14186000Y-13947500D02*
X14266000Y-13947500D01*
X14266000Y-13947500D02*
G75*
G03*
X14266000Y-13887500I0J30000D01*
G01*
X14266000Y-13887500D02*
X14186000Y-13887500D01*
X14186000Y-13887500D02*
G75*
G03*
X14186000Y-13947500I0J-30000D01*
G01*
D14*
X14247213Y-14803713D02*
X14247213Y-14761287D01*
X14204787Y-14761287D01*
X14204787Y-14803713D01*
X14247213Y-14803713D01*
D11*
X14186000Y-14812500D02*
X14266000Y-14812500D01*
X14266000Y-14812500D02*
G75*
G03*
X14266000Y-14752500I0J30000D01*
G01*
X14266000Y-14752500D02*
X14186000Y-14752500D01*
X14186000Y-14752500D02*
G75*
G03*
X14186000Y-14812500I0J-30000D01*
G01*
D15*
X13217000Y-7950800D02*
X13267800Y-7900000D01*
X13217000Y-7849200D01*
X13166200Y-7900000D01*
X13217000Y-7950800D01*
X13471000Y-7950800D02*
X13521800Y-7900000D01*
X13471000Y-7849200D01*
X13420200Y-7900000D01*
X13471000Y-7950800D01*
X13725000Y-7950800D02*
X13775800Y-7900000D01*
X13725000Y-7849200D01*
X13674200Y-7900000D01*
X13725000Y-7950800D01*
D16*
X10215000Y-6915000D02*
X10585000Y-7285000D01*
X10585000Y-6915000D02*
X10215000Y-7285000D01*
X10585000Y-7100000D02*
G75*
G03*
X10585000Y-7100000I-185000J0D01*
G01*
X12115000Y-5215000D02*
X12485000Y-5585000D01*
X12485000Y-5215000D02*
X12115000Y-5585000D01*
X12485000Y-5400000D02*
G75*
G03*
X12485000Y-5400000I-185000J0D01*
G01*
X12115000Y-7215000D02*
X12485000Y-7585000D01*
X12485000Y-7215000D02*
X12115000Y-7585000D01*
X12485000Y-7400000D02*
G75*
G03*
X12485000Y-7400000I-185000J0D01*
G01*
X12115000Y-8215000D02*
X12485000Y-8585000D01*
X12485000Y-8215000D02*
X12115000Y-8585000D01*
X12485000Y-8400000D02*
G75*
G03*
X12485000Y-8400000I-185000J0D01*
G01*
X12115000Y-10215000D02*
X12485000Y-10585000D01*
X12485000Y-10215000D02*
X12115000Y-10585000D01*
X12485000Y-10400000D02*
G75*
G03*
X12485000Y-10400000I-185000J0D01*
G01*
X13115000Y-13765000D02*
X13485000Y-14135000D01*
X13485000Y-13765000D02*
X13115000Y-14135000D01*
X13485000Y-13950000D02*
G75*
G03*
X13485000Y-13950000I-185000J0D01*
G01*
X14015000Y-6915000D02*
X14385000Y-7285000D01*
X14385000Y-6915000D02*
X14015000Y-7285000D01*
X14385000Y-7100000D02*
G75*
G03*
X14385000Y-7100000I-185000J0D01*
G01*
D11*
X10255777Y-15316484D02*
X10255777Y-15116484D01*
X10255777Y-15116484D02*
X10303396Y-15116484D01*
X10303396Y-15116484D02*
X10331967Y-15126008D01*
X10331967Y-15126008D02*
X10351015Y-15145055D01*
X10351015Y-15145055D02*
X10360539Y-15164103D01*
X10360539Y-15164103D02*
X10370063Y-15202198D01*
X10370063Y-15202198D02*
X10370063Y-15230769D01*
X10370063Y-15230769D02*
X10360539Y-15268865D01*
X10360539Y-15268865D02*
X10351015Y-15287912D01*
X10351015Y-15287912D02*
X10331967Y-15306960D01*
X10331967Y-15306960D02*
X10303396Y-15316484D01*
X10303396Y-15316484D02*
X10255777Y-15316484D01*
X10455777Y-15316484D02*
X10455777Y-15183150D01*
X10455777Y-15221246D02*
X10465301Y-15202198D01*
X10465301Y-15202198D02*
X10474824Y-15192674D01*
X10474824Y-15192674D02*
X10493872Y-15183150D01*
X10493872Y-15183150D02*
X10512920Y-15183150D01*
X10579586Y-15316484D02*
X10579586Y-15183150D01*
X10579586Y-15116484D02*
X10570063Y-15126008D01*
X10570063Y-15126008D02*
X10579586Y-15135531D01*
X10579586Y-15135531D02*
X10589110Y-15126008D01*
X10589110Y-15126008D02*
X10579586Y-15116484D01*
X10579586Y-15116484D02*
X10579586Y-15135531D01*
X10703396Y-15316484D02*
X10684348Y-15306960D01*
X10684348Y-15306960D02*
X10674824Y-15287912D01*
X10674824Y-15287912D02*
X10674824Y-15116484D01*
X10808158Y-15316484D02*
X10789110Y-15306960D01*
X10789110Y-15306960D02*
X10779586Y-15287912D01*
X10779586Y-15287912D02*
X10779586Y-15116484D01*
X11036729Y-15316484D02*
X11036729Y-15116484D01*
X11036729Y-15116484D02*
X11103396Y-15259341D01*
X11103396Y-15259341D02*
X11170063Y-15116484D01*
X11170063Y-15116484D02*
X11170063Y-15316484D01*
X11351015Y-15316484D02*
X11351015Y-15211722D01*
X11351015Y-15211722D02*
X11341491Y-15192674D01*
X11341491Y-15192674D02*
X11322443Y-15183150D01*
X11322443Y-15183150D02*
X11284348Y-15183150D01*
X11284348Y-15183150D02*
X11265301Y-15192674D01*
X11351015Y-15306960D02*
X11331967Y-15316484D01*
X11331967Y-15316484D02*
X11284348Y-15316484D01*
X11284348Y-15316484D02*
X11265301Y-15306960D01*
X11265301Y-15306960D02*
X11255777Y-15287912D01*
X11255777Y-15287912D02*
X11255777Y-15268865D01*
X11255777Y-15268865D02*
X11265301Y-15249817D01*
X11265301Y-15249817D02*
X11284348Y-15240293D01*
X11284348Y-15240293D02*
X11331967Y-15240293D01*
X11331967Y-15240293D02*
X11351015Y-15230769D01*
X11446253Y-15183150D02*
X11446253Y-15383150D01*
X11446253Y-15192674D02*
X11465301Y-15183150D01*
X11465301Y-15183150D02*
X11503396Y-15183150D01*
X11503396Y-15183150D02*
X11522443Y-15192674D01*
X11522443Y-15192674D02*
X11531967Y-15202198D01*
X11531967Y-15202198D02*
X11541491Y-15221246D01*
X11541491Y-15221246D02*
X11541491Y-15278388D01*
X11541491Y-15278388D02*
X11531967Y-15297436D01*
X11531967Y-15297436D02*
X11522443Y-15306960D01*
X11522443Y-15306960D02*
X11503396Y-15316484D01*
X11503396Y-15316484D02*
X11465301Y-15316484D01*
X11465301Y-15316484D02*
X11446253Y-15306960D01*
X11627205Y-15297436D02*
X11636729Y-15306960D01*
X11636729Y-15306960D02*
X11627205Y-15316484D01*
X11627205Y-15316484D02*
X11617682Y-15306960D01*
X11617682Y-15306960D02*
X11627205Y-15297436D01*
X11627205Y-15297436D02*
X11627205Y-15316484D01*
X11627205Y-15192674D02*
X11636729Y-15202198D01*
X11636729Y-15202198D02*
X11627205Y-15211722D01*
X11627205Y-15211722D02*
X11617682Y-15202198D01*
X11617682Y-15202198D02*
X11627205Y-15192674D01*
X11627205Y-15192674D02*
X11627205Y-15211722D01*
D12*
X9965000Y-15630000D02*
X9995000Y-15660000D01*
X9995000Y-15630000D02*
X9965000Y-15660000D01*
D11*
X10293872Y-15536484D02*
X10312920Y-15536484D01*
X10312920Y-15536484D02*
X10331967Y-15546008D01*
X10331967Y-15546008D02*
X10341491Y-15555531D01*
X10341491Y-15555531D02*
X10351015Y-15574579D01*
X10351015Y-15574579D02*
X10360539Y-15612674D01*
X10360539Y-15612674D02*
X10360539Y-15660293D01*
X10360539Y-15660293D02*
X10351015Y-15698388D01*
X10351015Y-15698388D02*
X10341491Y-15717436D01*
X10341491Y-15717436D02*
X10331967Y-15726960D01*
X10331967Y-15726960D02*
X10312920Y-15736484D01*
X10312920Y-15736484D02*
X10293872Y-15736484D01*
X10293872Y-15736484D02*
X10274824Y-15726960D01*
X10274824Y-15726960D02*
X10265301Y-15717436D01*
X10265301Y-15717436D02*
X10255777Y-15698388D01*
X10255777Y-15698388D02*
X10246253Y-15660293D01*
X10246253Y-15660293D02*
X10246253Y-15612674D01*
X10246253Y-15612674D02*
X10255777Y-15574579D01*
X10255777Y-15574579D02*
X10265301Y-15555531D01*
X10265301Y-15555531D02*
X10274824Y-15546008D01*
X10274824Y-15546008D02*
X10293872Y-15536484D01*
X10446253Y-15717436D02*
X10455777Y-15726960D01*
X10455777Y-15726960D02*
X10446253Y-15736484D01*
X10446253Y-15736484D02*
X10436729Y-15726960D01*
X10436729Y-15726960D02*
X10446253Y-15717436D01*
X10446253Y-15717436D02*
X10446253Y-15736484D01*
X10522444Y-15536484D02*
X10646253Y-15536484D01*
X10646253Y-15536484D02*
X10579586Y-15612674D01*
X10579586Y-15612674D02*
X10608158Y-15612674D01*
X10608158Y-15612674D02*
X10627205Y-15622198D01*
X10627205Y-15622198D02*
X10636729Y-15631722D01*
X10636729Y-15631722D02*
X10646253Y-15650769D01*
X10646253Y-15650769D02*
X10646253Y-15698388D01*
X10646253Y-15698388D02*
X10636729Y-15717436D01*
X10636729Y-15717436D02*
X10627205Y-15726960D01*
X10627205Y-15726960D02*
X10608158Y-15736484D01*
X10608158Y-15736484D02*
X10551015Y-15736484D01*
X10551015Y-15736484D02*
X10531967Y-15726960D01*
X10531967Y-15726960D02*
X10522444Y-15717436D01*
X10770063Y-15536484D02*
X10789110Y-15536484D01*
X10789110Y-15536484D02*
X10808158Y-15546008D01*
X10808158Y-15546008D02*
X10817682Y-15555531D01*
X10817682Y-15555531D02*
X10827205Y-15574579D01*
X10827205Y-15574579D02*
X10836729Y-15612674D01*
X10836729Y-15612674D02*
X10836729Y-15660293D01*
X10836729Y-15660293D02*
X10827205Y-15698388D01*
X10827205Y-15698388D02*
X10817682Y-15717436D01*
X10817682Y-15717436D02*
X10808158Y-15726960D01*
X10808158Y-15726960D02*
X10789110Y-15736484D01*
X10789110Y-15736484D02*
X10770063Y-15736484D01*
X10770063Y-15736484D02*
X10751015Y-15726960D01*
X10751015Y-15726960D02*
X10741491Y-15717436D01*
X10741491Y-15717436D02*
X10731967Y-15698388D01*
X10731967Y-15698388D02*
X10722444Y-15660293D01*
X10722444Y-15660293D02*
X10722444Y-15612674D01*
X10722444Y-15612674D02*
X10731967Y-15574579D01*
X10731967Y-15574579D02*
X10741491Y-15555531D01*
X10741491Y-15555531D02*
X10751015Y-15546008D01*
X10751015Y-15546008D02*
X10770063Y-15536484D01*
X10960539Y-15536484D02*
X10979586Y-15536484D01*
X10979586Y-15536484D02*
X10998634Y-15546008D01*
X10998634Y-15546008D02*
X11008158Y-15555531D01*
X11008158Y-15555531D02*
X11017682Y-15574579D01*
X11017682Y-15574579D02*
X11027205Y-15612674D01*
X11027205Y-15612674D02*
X11027205Y-15660293D01*
X11027205Y-15660293D02*
X11017682Y-15698388D01*
X11017682Y-15698388D02*
X11008158Y-15717436D01*
X11008158Y-15717436D02*
X10998634Y-15726960D01*
X10998634Y-15726960D02*
X10979586Y-15736484D01*
X10979586Y-15736484D02*
X10960539Y-15736484D01*
X10960539Y-15736484D02*
X10941491Y-15726960D01*
X10941491Y-15726960D02*
X10931967Y-15717436D01*
X10931967Y-15717436D02*
X10922444Y-15698388D01*
X10922444Y-15698388D02*
X10912920Y-15660293D01*
X10912920Y-15660293D02*
X10912920Y-15612674D01*
X10912920Y-15612674D02*
X10922444Y-15574579D01*
X10922444Y-15574579D02*
X10931967Y-15555531D01*
X10931967Y-15555531D02*
X10941491Y-15546008D01*
X10941491Y-15546008D02*
X10960539Y-15536484D01*
X11112920Y-15736484D02*
X11112920Y-15603150D01*
X11112920Y-15622198D02*
X11122444Y-15612674D01*
X11122444Y-15612674D02*
X11141491Y-15603150D01*
X11141491Y-15603150D02*
X11170063Y-15603150D01*
X11170063Y-15603150D02*
X11189110Y-15612674D01*
X11189110Y-15612674D02*
X11198634Y-15631722D01*
X11198634Y-15631722D02*
X11198634Y-15736484D01*
X11198634Y-15631722D02*
X11208158Y-15612674D01*
X11208158Y-15612674D02*
X11227205Y-15603150D01*
X11227205Y-15603150D02*
X11255777Y-15603150D01*
X11255777Y-15603150D02*
X11274824Y-15612674D01*
X11274824Y-15612674D02*
X11284348Y-15631722D01*
X11284348Y-15631722D02*
X11284348Y-15736484D01*
X11379586Y-15736484D02*
X11379586Y-15603150D01*
X11379586Y-15622198D02*
X11389110Y-15612674D01*
X11389110Y-15612674D02*
X11408158Y-15603150D01*
X11408158Y-15603150D02*
X11436729Y-15603150D01*
X11436729Y-15603150D02*
X11455777Y-15612674D01*
X11455777Y-15612674D02*
X11465301Y-15631722D01*
X11465301Y-15631722D02*
X11465301Y-15736484D01*
X11465301Y-15631722D02*
X11474824Y-15612674D01*
X11474824Y-15612674D02*
X11493872Y-15603150D01*
X11493872Y-15603150D02*
X11522443Y-15603150D01*
X11522443Y-15603150D02*
X11541491Y-15612674D01*
X11541491Y-15612674D02*
X11551015Y-15631722D01*
X11551015Y-15631722D02*
X11551015Y-15736484D01*
X11941491Y-15526960D02*
X11770063Y-15784103D01*
X12198634Y-15536484D02*
X12217682Y-15536484D01*
X12217682Y-15536484D02*
X12236729Y-15546008D01*
X12236729Y-15546008D02*
X12246253Y-15555531D01*
X12246253Y-15555531D02*
X12255777Y-15574579D01*
X12255777Y-15574579D02*
X12265301Y-15612674D01*
X12265301Y-15612674D02*
X12265301Y-15660293D01*
X12265301Y-15660293D02*
X12255777Y-15698388D01*
X12255777Y-15698388D02*
X12246253Y-15717436D01*
X12246253Y-15717436D02*
X12236729Y-15726960D01*
X12236729Y-15726960D02*
X12217682Y-15736484D01*
X12217682Y-15736484D02*
X12198634Y-15736484D01*
X12198634Y-15736484D02*
X12179586Y-15726960D01*
X12179586Y-15726960D02*
X12170063Y-15717436D01*
X12170063Y-15717436D02*
X12160539Y-15698388D01*
X12160539Y-15698388D02*
X12151015Y-15660293D01*
X12151015Y-15660293D02*
X12151015Y-15612674D01*
X12151015Y-15612674D02*
X12160539Y-15574579D01*
X12160539Y-15574579D02*
X12170063Y-15555531D01*
X12170063Y-15555531D02*
X12179586Y-15546008D01*
X12179586Y-15546008D02*
X12198634Y-15536484D01*
X12351015Y-15717436D02*
X12360539Y-15726960D01*
X12360539Y-15726960D02*
X12351015Y-15736484D01*
X12351015Y-15736484D02*
X12341491Y-15726960D01*
X12341491Y-15726960D02*
X12351015Y-15717436D01*
X12351015Y-15717436D02*
X12351015Y-15736484D01*
X12484348Y-15536484D02*
X12503396Y-15536484D01*
X12503396Y-15536484D02*
X12522444Y-15546008D01*
X12522444Y-15546008D02*
X12531967Y-15555531D01*
X12531967Y-15555531D02*
X12541491Y-15574579D01*
X12541491Y-15574579D02*
X12551015Y-15612674D01*
X12551015Y-15612674D02*
X12551015Y-15660293D01*
X12551015Y-15660293D02*
X12541491Y-15698388D01*
X12541491Y-15698388D02*
X12531967Y-15717436D01*
X12531967Y-15717436D02*
X12522444Y-15726960D01*
X12522444Y-15726960D02*
X12503396Y-15736484D01*
X12503396Y-15736484D02*
X12484348Y-15736484D01*
X12484348Y-15736484D02*
X12465301Y-15726960D01*
X12465301Y-15726960D02*
X12455777Y-15717436D01*
X12455777Y-15717436D02*
X12446253Y-15698388D01*
X12446253Y-15698388D02*
X12436729Y-15660293D01*
X12436729Y-15660293D02*
X12436729Y-15612674D01*
X12436729Y-15612674D02*
X12446253Y-15574579D01*
X12446253Y-15574579D02*
X12455777Y-15555531D01*
X12455777Y-15555531D02*
X12465301Y-15546008D01*
X12465301Y-15546008D02*
X12484348Y-15536484D01*
X12741491Y-15736484D02*
X12627206Y-15736484D01*
X12684348Y-15736484D02*
X12684348Y-15536484D01*
X12684348Y-15536484D02*
X12665301Y-15565055D01*
X12665301Y-15565055D02*
X12646253Y-15584103D01*
X12646253Y-15584103D02*
X12627206Y-15593627D01*
X12931967Y-15736484D02*
X12817682Y-15736484D01*
X12874825Y-15736484D02*
X12874825Y-15536484D01*
X12874825Y-15536484D02*
X12855777Y-15565055D01*
X12855777Y-15565055D02*
X12836729Y-15584103D01*
X12836729Y-15584103D02*
X12817682Y-15593627D01*
X13046253Y-15622198D02*
X13027206Y-15612674D01*
X13027206Y-15612674D02*
X13017682Y-15603150D01*
X13017682Y-15603150D02*
X13008158Y-15584103D01*
X13008158Y-15584103D02*
X13008158Y-15574579D01*
X13008158Y-15574579D02*
X13017682Y-15555531D01*
X13017682Y-15555531D02*
X13027206Y-15546008D01*
X13027206Y-15546008D02*
X13046253Y-15536484D01*
X13046253Y-15536484D02*
X13084348Y-15536484D01*
X13084348Y-15536484D02*
X13103396Y-15546008D01*
X13103396Y-15546008D02*
X13112920Y-15555531D01*
X13112920Y-15555531D02*
X13122444Y-15574579D01*
X13122444Y-15574579D02*
X13122444Y-15584103D01*
X13122444Y-15584103D02*
X13112920Y-15603150D01*
X13112920Y-15603150D02*
X13103396Y-15612674D01*
X13103396Y-15612674D02*
X13084348Y-15622198D01*
X13084348Y-15622198D02*
X13046253Y-15622198D01*
X13046253Y-15622198D02*
X13027206Y-15631722D01*
X13027206Y-15631722D02*
X13017682Y-15641246D01*
X13017682Y-15641246D02*
X13008158Y-15660293D01*
X13008158Y-15660293D02*
X13008158Y-15698388D01*
X13008158Y-15698388D02*
X13017682Y-15717436D01*
X13017682Y-15717436D02*
X13027206Y-15726960D01*
X13027206Y-15726960D02*
X13046253Y-15736484D01*
X13046253Y-15736484D02*
X13084348Y-15736484D01*
X13084348Y-15736484D02*
X13103396Y-15726960D01*
X13103396Y-15726960D02*
X13112920Y-15717436D01*
X13112920Y-15717436D02*
X13122444Y-15698388D01*
X13122444Y-15698388D02*
X13122444Y-15660293D01*
X13122444Y-15660293D02*
X13112920Y-15641246D01*
X13112920Y-15641246D02*
X13103396Y-15631722D01*
X13103396Y-15631722D02*
X13084348Y-15622198D01*
X13198634Y-15536484D02*
X13198634Y-15574579D01*
X13274825Y-15536484D02*
X13274825Y-15574579D01*
X13570063Y-15812674D02*
X13560539Y-15803150D01*
X13560539Y-15803150D02*
X13541491Y-15774579D01*
X13541491Y-15774579D02*
X13531968Y-15755531D01*
X13531968Y-15755531D02*
X13522444Y-15726960D01*
X13522444Y-15726960D02*
X13512920Y-15679341D01*
X13512920Y-15679341D02*
X13512920Y-15641246D01*
X13512920Y-15641246D02*
X13522444Y-15593627D01*
X13522444Y-15593627D02*
X13531968Y-15565055D01*
X13531968Y-15565055D02*
X13541491Y-15546008D01*
X13541491Y-15546008D02*
X13560539Y-15517436D01*
X13560539Y-15517436D02*
X13570063Y-15507912D01*
X13751015Y-15736484D02*
X13636729Y-15736484D01*
X13693872Y-15736484D02*
X13693872Y-15536484D01*
X13693872Y-15536484D02*
X13674825Y-15565055D01*
X13674825Y-15565055D02*
X13655777Y-15584103D01*
X13655777Y-15584103D02*
X13636729Y-15593627D01*
X13941491Y-15736484D02*
X13827206Y-15736484D01*
X13884348Y-15736484D02*
X13884348Y-15536484D01*
X13884348Y-15536484D02*
X13865301Y-15565055D01*
X13865301Y-15565055D02*
X13846253Y-15584103D01*
X13846253Y-15584103D02*
X13827206Y-15593627D01*
X14131968Y-15736484D02*
X14017682Y-15736484D01*
X14074825Y-15736484D02*
X14074825Y-15536484D01*
X14074825Y-15536484D02*
X14055777Y-15565055D01*
X14055777Y-15565055D02*
X14036729Y-15584103D01*
X14036729Y-15584103D02*
X14017682Y-15593627D01*
X14370063Y-15736484D02*
X14370063Y-15536484D01*
X14455777Y-15736484D02*
X14455777Y-15631722D01*
X14455777Y-15631722D02*
X14446253Y-15612674D01*
X14446253Y-15612674D02*
X14427206Y-15603150D01*
X14427206Y-15603150D02*
X14398634Y-15603150D01*
X14398634Y-15603150D02*
X14379587Y-15612674D01*
X14379587Y-15612674D02*
X14370063Y-15622198D01*
X14579587Y-15736484D02*
X14560539Y-15726960D01*
X14560539Y-15726960D02*
X14551015Y-15717436D01*
X14551015Y-15717436D02*
X14541491Y-15698388D01*
X14541491Y-15698388D02*
X14541491Y-15641246D01*
X14541491Y-15641246D02*
X14551015Y-15622198D01*
X14551015Y-15622198D02*
X14560539Y-15612674D01*
X14560539Y-15612674D02*
X14579587Y-15603150D01*
X14579587Y-15603150D02*
X14608158Y-15603150D01*
X14608158Y-15603150D02*
X14627206Y-15612674D01*
X14627206Y-15612674D02*
X14636730Y-15622198D01*
X14636730Y-15622198D02*
X14646253Y-15641246D01*
X14646253Y-15641246D02*
X14646253Y-15698388D01*
X14646253Y-15698388D02*
X14636730Y-15717436D01*
X14636730Y-15717436D02*
X14627206Y-15726960D01*
X14627206Y-15726960D02*
X14608158Y-15736484D01*
X14608158Y-15736484D02*
X14579587Y-15736484D01*
X14760539Y-15736484D02*
X14741491Y-15726960D01*
X14741491Y-15726960D02*
X14731968Y-15707912D01*
X14731968Y-15707912D02*
X14731968Y-15536484D01*
X14912920Y-15726960D02*
X14893872Y-15736484D01*
X14893872Y-15736484D02*
X14855777Y-15736484D01*
X14855777Y-15736484D02*
X14836730Y-15726960D01*
X14836730Y-15726960D02*
X14827206Y-15707912D01*
X14827206Y-15707912D02*
X14827206Y-15631722D01*
X14827206Y-15631722D02*
X14836730Y-15612674D01*
X14836730Y-15612674D02*
X14855777Y-15603150D01*
X14855777Y-15603150D02*
X14893872Y-15603150D01*
X14893872Y-15603150D02*
X14912920Y-15612674D01*
X14912920Y-15612674D02*
X14922444Y-15631722D01*
X14922444Y-15631722D02*
X14922444Y-15650769D01*
X14922444Y-15650769D02*
X14827206Y-15669817D01*
X14998634Y-15726960D02*
X15017682Y-15736484D01*
X15017682Y-15736484D02*
X15055777Y-15736484D01*
X15055777Y-15736484D02*
X15074825Y-15726960D01*
X15074825Y-15726960D02*
X15084349Y-15707912D01*
X15084349Y-15707912D02*
X15084349Y-15698388D01*
X15084349Y-15698388D02*
X15074825Y-15679341D01*
X15074825Y-15679341D02*
X15055777Y-15669817D01*
X15055777Y-15669817D02*
X15027206Y-15669817D01*
X15027206Y-15669817D02*
X15008158Y-15660293D01*
X15008158Y-15660293D02*
X14998634Y-15641246D01*
X14998634Y-15641246D02*
X14998634Y-15631722D01*
X14998634Y-15631722D02*
X15008158Y-15612674D01*
X15008158Y-15612674D02*
X15027206Y-15603150D01*
X15027206Y-15603150D02*
X15055777Y-15603150D01*
X15055777Y-15603150D02*
X15074825Y-15612674D01*
X15151015Y-15812674D02*
X15160539Y-15803150D01*
X15160539Y-15803150D02*
X15179587Y-15774579D01*
X15179587Y-15774579D02*
X15189111Y-15755531D01*
X15189111Y-15755531D02*
X15198634Y-15726960D01*
X15198634Y-15726960D02*
X15208158Y-15679341D01*
X15208158Y-15679341D02*
X15208158Y-15641246D01*
X15208158Y-15641246D02*
X15198634Y-15593627D01*
X15198634Y-15593627D02*
X15189111Y-15565055D01*
X15189111Y-15565055D02*
X15179587Y-15546008D01*
X15179587Y-15546008D02*
X15160539Y-15517436D01*
X15160539Y-15517436D02*
X15151015Y-15507912D01*
D13*
X9995000Y-15909000D02*
G75*
G03*
X9995000Y-15909000I-20000J0D01*
G01*
D11*
X10293872Y-15800484D02*
X10312920Y-15800484D01*
X10312920Y-15800484D02*
X10331967Y-15810008D01*
X10331967Y-15810008D02*
X10341491Y-15819531D01*
X10341491Y-15819531D02*
X10351015Y-15838579D01*
X10351015Y-15838579D02*
X10360539Y-15876674D01*
X10360539Y-15876674D02*
X10360539Y-15924293D01*
X10360539Y-15924293D02*
X10351015Y-15962388D01*
X10351015Y-15962388D02*
X10341491Y-15981436D01*
X10341491Y-15981436D02*
X10331967Y-15990960D01*
X10331967Y-15990960D02*
X10312920Y-16000484D01*
X10312920Y-16000484D02*
X10293872Y-16000484D01*
X10293872Y-16000484D02*
X10274824Y-15990960D01*
X10274824Y-15990960D02*
X10265301Y-15981436D01*
X10265301Y-15981436D02*
X10255777Y-15962388D01*
X10255777Y-15962388D02*
X10246253Y-15924293D01*
X10246253Y-15924293D02*
X10246253Y-15876674D01*
X10246253Y-15876674D02*
X10255777Y-15838579D01*
X10255777Y-15838579D02*
X10265301Y-15819531D01*
X10265301Y-15819531D02*
X10274824Y-15810008D01*
X10274824Y-15810008D02*
X10293872Y-15800484D01*
X10446253Y-15981436D02*
X10455777Y-15990960D01*
X10455777Y-15990960D02*
X10446253Y-16000484D01*
X10446253Y-16000484D02*
X10436729Y-15990960D01*
X10436729Y-15990960D02*
X10446253Y-15981436D01*
X10446253Y-15981436D02*
X10446253Y-16000484D01*
X10627205Y-15867150D02*
X10627205Y-16000484D01*
X10579586Y-15790960D02*
X10531967Y-15933817D01*
X10531967Y-15933817D02*
X10655777Y-15933817D01*
X10770063Y-15800484D02*
X10789110Y-15800484D01*
X10789110Y-15800484D02*
X10808158Y-15810008D01*
X10808158Y-15810008D02*
X10817682Y-15819531D01*
X10817682Y-15819531D02*
X10827205Y-15838579D01*
X10827205Y-15838579D02*
X10836729Y-15876674D01*
X10836729Y-15876674D02*
X10836729Y-15924293D01*
X10836729Y-15924293D02*
X10827205Y-15962388D01*
X10827205Y-15962388D02*
X10817682Y-15981436D01*
X10817682Y-15981436D02*
X10808158Y-15990960D01*
X10808158Y-15990960D02*
X10789110Y-16000484D01*
X10789110Y-16000484D02*
X10770063Y-16000484D01*
X10770063Y-16000484D02*
X10751015Y-15990960D01*
X10751015Y-15990960D02*
X10741491Y-15981436D01*
X10741491Y-15981436D02*
X10731967Y-15962388D01*
X10731967Y-15962388D02*
X10722444Y-15924293D01*
X10722444Y-15924293D02*
X10722444Y-15876674D01*
X10722444Y-15876674D02*
X10731967Y-15838579D01*
X10731967Y-15838579D02*
X10741491Y-15819531D01*
X10741491Y-15819531D02*
X10751015Y-15810008D01*
X10751015Y-15810008D02*
X10770063Y-15800484D01*
X10960539Y-15800484D02*
X10979586Y-15800484D01*
X10979586Y-15800484D02*
X10998634Y-15810008D01*
X10998634Y-15810008D02*
X11008158Y-15819531D01*
X11008158Y-15819531D02*
X11017682Y-15838579D01*
X11017682Y-15838579D02*
X11027205Y-15876674D01*
X11027205Y-15876674D02*
X11027205Y-15924293D01*
X11027205Y-15924293D02*
X11017682Y-15962388D01*
X11017682Y-15962388D02*
X11008158Y-15981436D01*
X11008158Y-15981436D02*
X10998634Y-15990960D01*
X10998634Y-15990960D02*
X10979586Y-16000484D01*
X10979586Y-16000484D02*
X10960539Y-16000484D01*
X10960539Y-16000484D02*
X10941491Y-15990960D01*
X10941491Y-15990960D02*
X10931967Y-15981436D01*
X10931967Y-15981436D02*
X10922444Y-15962388D01*
X10922444Y-15962388D02*
X10912920Y-15924293D01*
X10912920Y-15924293D02*
X10912920Y-15876674D01*
X10912920Y-15876674D02*
X10922444Y-15838579D01*
X10922444Y-15838579D02*
X10931967Y-15819531D01*
X10931967Y-15819531D02*
X10941491Y-15810008D01*
X10941491Y-15810008D02*
X10960539Y-15800484D01*
X11112920Y-16000484D02*
X11112920Y-15867150D01*
X11112920Y-15886198D02*
X11122444Y-15876674D01*
X11122444Y-15876674D02*
X11141491Y-15867150D01*
X11141491Y-15867150D02*
X11170063Y-15867150D01*
X11170063Y-15867150D02*
X11189110Y-15876674D01*
X11189110Y-15876674D02*
X11198634Y-15895722D01*
X11198634Y-15895722D02*
X11198634Y-16000484D01*
X11198634Y-15895722D02*
X11208158Y-15876674D01*
X11208158Y-15876674D02*
X11227205Y-15867150D01*
X11227205Y-15867150D02*
X11255777Y-15867150D01*
X11255777Y-15867150D02*
X11274824Y-15876674D01*
X11274824Y-15876674D02*
X11284348Y-15895722D01*
X11284348Y-15895722D02*
X11284348Y-16000484D01*
X11379586Y-16000484D02*
X11379586Y-15867150D01*
X11379586Y-15886198D02*
X11389110Y-15876674D01*
X11389110Y-15876674D02*
X11408158Y-15867150D01*
X11408158Y-15867150D02*
X11436729Y-15867150D01*
X11436729Y-15867150D02*
X11455777Y-15876674D01*
X11455777Y-15876674D02*
X11465301Y-15895722D01*
X11465301Y-15895722D02*
X11465301Y-16000484D01*
X11465301Y-15895722D02*
X11474824Y-15876674D01*
X11474824Y-15876674D02*
X11493872Y-15867150D01*
X11493872Y-15867150D02*
X11522443Y-15867150D01*
X11522443Y-15867150D02*
X11541491Y-15876674D01*
X11541491Y-15876674D02*
X11551015Y-15895722D01*
X11551015Y-15895722D02*
X11551015Y-16000484D01*
X11941491Y-15790960D02*
X11770063Y-16048103D01*
X12198634Y-15800484D02*
X12217682Y-15800484D01*
X12217682Y-15800484D02*
X12236729Y-15810008D01*
X12236729Y-15810008D02*
X12246253Y-15819531D01*
X12246253Y-15819531D02*
X12255777Y-15838579D01*
X12255777Y-15838579D02*
X12265301Y-15876674D01*
X12265301Y-15876674D02*
X12265301Y-15924293D01*
X12265301Y-15924293D02*
X12255777Y-15962388D01*
X12255777Y-15962388D02*
X12246253Y-15981436D01*
X12246253Y-15981436D02*
X12236729Y-15990960D01*
X12236729Y-15990960D02*
X12217682Y-16000484D01*
X12217682Y-16000484D02*
X12198634Y-16000484D01*
X12198634Y-16000484D02*
X12179586Y-15990960D01*
X12179586Y-15990960D02*
X12170063Y-15981436D01*
X12170063Y-15981436D02*
X12160539Y-15962388D01*
X12160539Y-15962388D02*
X12151015Y-15924293D01*
X12151015Y-15924293D02*
X12151015Y-15876674D01*
X12151015Y-15876674D02*
X12160539Y-15838579D01*
X12160539Y-15838579D02*
X12170063Y-15819531D01*
X12170063Y-15819531D02*
X12179586Y-15810008D01*
X12179586Y-15810008D02*
X12198634Y-15800484D01*
X12351015Y-15981436D02*
X12360539Y-15990960D01*
X12360539Y-15990960D02*
X12351015Y-16000484D01*
X12351015Y-16000484D02*
X12341491Y-15990960D01*
X12341491Y-15990960D02*
X12351015Y-15981436D01*
X12351015Y-15981436D02*
X12351015Y-16000484D01*
X12484348Y-15800484D02*
X12503396Y-15800484D01*
X12503396Y-15800484D02*
X12522444Y-15810008D01*
X12522444Y-15810008D02*
X12531967Y-15819531D01*
X12531967Y-15819531D02*
X12541491Y-15838579D01*
X12541491Y-15838579D02*
X12551015Y-15876674D01*
X12551015Y-15876674D02*
X12551015Y-15924293D01*
X12551015Y-15924293D02*
X12541491Y-15962388D01*
X12541491Y-15962388D02*
X12531967Y-15981436D01*
X12531967Y-15981436D02*
X12522444Y-15990960D01*
X12522444Y-15990960D02*
X12503396Y-16000484D01*
X12503396Y-16000484D02*
X12484348Y-16000484D01*
X12484348Y-16000484D02*
X12465301Y-15990960D01*
X12465301Y-15990960D02*
X12455777Y-15981436D01*
X12455777Y-15981436D02*
X12446253Y-15962388D01*
X12446253Y-15962388D02*
X12436729Y-15924293D01*
X12436729Y-15924293D02*
X12436729Y-15876674D01*
X12436729Y-15876674D02*
X12446253Y-15838579D01*
X12446253Y-15838579D02*
X12455777Y-15819531D01*
X12455777Y-15819531D02*
X12465301Y-15810008D01*
X12465301Y-15810008D02*
X12484348Y-15800484D01*
X12741491Y-16000484D02*
X12627206Y-16000484D01*
X12684348Y-16000484D02*
X12684348Y-15800484D01*
X12684348Y-15800484D02*
X12665301Y-15829055D01*
X12665301Y-15829055D02*
X12646253Y-15848103D01*
X12646253Y-15848103D02*
X12627206Y-15857627D01*
X12922444Y-15800484D02*
X12827206Y-15800484D01*
X12827206Y-15800484D02*
X12817682Y-15895722D01*
X12817682Y-15895722D02*
X12827206Y-15886198D01*
X12827206Y-15886198D02*
X12846253Y-15876674D01*
X12846253Y-15876674D02*
X12893872Y-15876674D01*
X12893872Y-15876674D02*
X12912920Y-15886198D01*
X12912920Y-15886198D02*
X12922444Y-15895722D01*
X12922444Y-15895722D02*
X12931967Y-15914769D01*
X12931967Y-15914769D02*
X12931967Y-15962388D01*
X12931967Y-15962388D02*
X12922444Y-15981436D01*
X12922444Y-15981436D02*
X12912920Y-15990960D01*
X12912920Y-15990960D02*
X12893872Y-16000484D01*
X12893872Y-16000484D02*
X12846253Y-16000484D01*
X12846253Y-16000484D02*
X12827206Y-15990960D01*
X12827206Y-15990960D02*
X12817682Y-15981436D01*
X12998634Y-15800484D02*
X13131967Y-15800484D01*
X13131967Y-15800484D02*
X13046253Y-16000484D01*
X13198634Y-15800484D02*
X13198634Y-15838579D01*
X13274825Y-15800484D02*
X13274825Y-15838579D01*
X13570063Y-16076674D02*
X13560539Y-16067150D01*
X13560539Y-16067150D02*
X13541491Y-16038579D01*
X13541491Y-16038579D02*
X13531968Y-16019531D01*
X13531968Y-16019531D02*
X13522444Y-15990960D01*
X13522444Y-15990960D02*
X13512920Y-15943341D01*
X13512920Y-15943341D02*
X13512920Y-15905246D01*
X13512920Y-15905246D02*
X13522444Y-15857627D01*
X13522444Y-15857627D02*
X13531968Y-15829055D01*
X13531968Y-15829055D02*
X13541491Y-15810008D01*
X13541491Y-15810008D02*
X13560539Y-15781436D01*
X13560539Y-15781436D02*
X13570063Y-15771912D01*
X13627206Y-15800484D02*
X13760539Y-15800484D01*
X13760539Y-15800484D02*
X13674825Y-16000484D01*
X13989110Y-16000484D02*
X13989110Y-15800484D01*
X14074825Y-16000484D02*
X14074825Y-15895722D01*
X14074825Y-15895722D02*
X14065301Y-15876674D01*
X14065301Y-15876674D02*
X14046253Y-15867150D01*
X14046253Y-15867150D02*
X14017682Y-15867150D01*
X14017682Y-15867150D02*
X13998634Y-15876674D01*
X13998634Y-15876674D02*
X13989110Y-15886198D01*
X14198634Y-16000484D02*
X14179587Y-15990960D01*
X14179587Y-15990960D02*
X14170063Y-15981436D01*
X14170063Y-15981436D02*
X14160539Y-15962388D01*
X14160539Y-15962388D02*
X14160539Y-15905246D01*
X14160539Y-15905246D02*
X14170063Y-15886198D01*
X14170063Y-15886198D02*
X14179587Y-15876674D01*
X14179587Y-15876674D02*
X14198634Y-15867150D01*
X14198634Y-15867150D02*
X14227206Y-15867150D01*
X14227206Y-15867150D02*
X14246253Y-15876674D01*
X14246253Y-15876674D02*
X14255777Y-15886198D01*
X14255777Y-15886198D02*
X14265301Y-15905246D01*
X14265301Y-15905246D02*
X14265301Y-15962388D01*
X14265301Y-15962388D02*
X14255777Y-15981436D01*
X14255777Y-15981436D02*
X14246253Y-15990960D01*
X14246253Y-15990960D02*
X14227206Y-16000484D01*
X14227206Y-16000484D02*
X14198634Y-16000484D01*
X14379587Y-16000484D02*
X14360539Y-15990960D01*
X14360539Y-15990960D02*
X14351015Y-15971912D01*
X14351015Y-15971912D02*
X14351015Y-15800484D01*
X14531968Y-15990960D02*
X14512920Y-16000484D01*
X14512920Y-16000484D02*
X14474825Y-16000484D01*
X14474825Y-16000484D02*
X14455777Y-15990960D01*
X14455777Y-15990960D02*
X14446253Y-15971912D01*
X14446253Y-15971912D02*
X14446253Y-15895722D01*
X14446253Y-15895722D02*
X14455777Y-15876674D01*
X14455777Y-15876674D02*
X14474825Y-15867150D01*
X14474825Y-15867150D02*
X14512920Y-15867150D01*
X14512920Y-15867150D02*
X14531968Y-15876674D01*
X14531968Y-15876674D02*
X14541491Y-15895722D01*
X14541491Y-15895722D02*
X14541491Y-15914769D01*
X14541491Y-15914769D02*
X14446253Y-15933817D01*
X14617682Y-15990960D02*
X14636730Y-16000484D01*
X14636730Y-16000484D02*
X14674825Y-16000484D01*
X14674825Y-16000484D02*
X14693872Y-15990960D01*
X14693872Y-15990960D02*
X14703396Y-15971912D01*
X14703396Y-15971912D02*
X14703396Y-15962388D01*
X14703396Y-15962388D02*
X14693872Y-15943341D01*
X14693872Y-15943341D02*
X14674825Y-15933817D01*
X14674825Y-15933817D02*
X14646253Y-15933817D01*
X14646253Y-15933817D02*
X14627206Y-15924293D01*
X14627206Y-15924293D02*
X14617682Y-15905246D01*
X14617682Y-15905246D02*
X14617682Y-15895722D01*
X14617682Y-15895722D02*
X14627206Y-15876674D01*
X14627206Y-15876674D02*
X14646253Y-15867150D01*
X14646253Y-15867150D02*
X14674825Y-15867150D01*
X14674825Y-15867150D02*
X14693872Y-15876674D01*
X14770063Y-16076674D02*
X14779587Y-16067150D01*
X14779587Y-16067150D02*
X14798634Y-16038579D01*
X14798634Y-16038579D02*
X14808158Y-16019531D01*
X14808158Y-16019531D02*
X14817682Y-15990960D01*
X14817682Y-15990960D02*
X14827206Y-15943341D01*
X14827206Y-15943341D02*
X14827206Y-15905246D01*
X14827206Y-15905246D02*
X14817682Y-15857627D01*
X14817682Y-15857627D02*
X14808158Y-15829055D01*
X14808158Y-15829055D02*
X14798634Y-15810008D01*
X14798634Y-15810008D02*
X14779587Y-15781436D01*
X14779587Y-15781436D02*
X14770063Y-15771912D01*
D13*
X9975000Y-16153000D02*
X9975000Y-16193000D01*
X9955000Y-16173000D02*
X9995000Y-16173000D01*
D11*
X10293872Y-16064484D02*
X10312920Y-16064484D01*
X10312920Y-16064484D02*
X10331967Y-16074008D01*
X10331967Y-16074008D02*
X10341491Y-16083531D01*
X10341491Y-16083531D02*
X10351015Y-16102579D01*
X10351015Y-16102579D02*
X10360539Y-16140674D01*
X10360539Y-16140674D02*
X10360539Y-16188293D01*
X10360539Y-16188293D02*
X10351015Y-16226388D01*
X10351015Y-16226388D02*
X10341491Y-16245436D01*
X10341491Y-16245436D02*
X10331967Y-16254960D01*
X10331967Y-16254960D02*
X10312920Y-16264484D01*
X10312920Y-16264484D02*
X10293872Y-16264484D01*
X10293872Y-16264484D02*
X10274824Y-16254960D01*
X10274824Y-16254960D02*
X10265301Y-16245436D01*
X10265301Y-16245436D02*
X10255777Y-16226388D01*
X10255777Y-16226388D02*
X10246253Y-16188293D01*
X10246253Y-16188293D02*
X10246253Y-16140674D01*
X10246253Y-16140674D02*
X10255777Y-16102579D01*
X10255777Y-16102579D02*
X10265301Y-16083531D01*
X10265301Y-16083531D02*
X10274824Y-16074008D01*
X10274824Y-16074008D02*
X10293872Y-16064484D01*
X10446253Y-16245436D02*
X10455777Y-16254960D01*
X10455777Y-16254960D02*
X10446253Y-16264484D01*
X10446253Y-16264484D02*
X10436729Y-16254960D01*
X10436729Y-16254960D02*
X10446253Y-16245436D01*
X10446253Y-16245436D02*
X10446253Y-16264484D01*
X10627205Y-16131150D02*
X10627205Y-16264484D01*
X10579586Y-16054960D02*
X10531967Y-16197817D01*
X10531967Y-16197817D02*
X10655777Y-16197817D01*
X10770063Y-16064484D02*
X10789110Y-16064484D01*
X10789110Y-16064484D02*
X10808158Y-16074008D01*
X10808158Y-16074008D02*
X10817682Y-16083531D01*
X10817682Y-16083531D02*
X10827205Y-16102579D01*
X10827205Y-16102579D02*
X10836729Y-16140674D01*
X10836729Y-16140674D02*
X10836729Y-16188293D01*
X10836729Y-16188293D02*
X10827205Y-16226388D01*
X10827205Y-16226388D02*
X10817682Y-16245436D01*
X10817682Y-16245436D02*
X10808158Y-16254960D01*
X10808158Y-16254960D02*
X10789110Y-16264484D01*
X10789110Y-16264484D02*
X10770063Y-16264484D01*
X10770063Y-16264484D02*
X10751015Y-16254960D01*
X10751015Y-16254960D02*
X10741491Y-16245436D01*
X10741491Y-16245436D02*
X10731967Y-16226388D01*
X10731967Y-16226388D02*
X10722444Y-16188293D01*
X10722444Y-16188293D02*
X10722444Y-16140674D01*
X10722444Y-16140674D02*
X10731967Y-16102579D01*
X10731967Y-16102579D02*
X10741491Y-16083531D01*
X10741491Y-16083531D02*
X10751015Y-16074008D01*
X10751015Y-16074008D02*
X10770063Y-16064484D01*
X10960539Y-16064484D02*
X10979586Y-16064484D01*
X10979586Y-16064484D02*
X10998634Y-16074008D01*
X10998634Y-16074008D02*
X11008158Y-16083531D01*
X11008158Y-16083531D02*
X11017682Y-16102579D01*
X11017682Y-16102579D02*
X11027205Y-16140674D01*
X11027205Y-16140674D02*
X11027205Y-16188293D01*
X11027205Y-16188293D02*
X11017682Y-16226388D01*
X11017682Y-16226388D02*
X11008158Y-16245436D01*
X11008158Y-16245436D02*
X10998634Y-16254960D01*
X10998634Y-16254960D02*
X10979586Y-16264484D01*
X10979586Y-16264484D02*
X10960539Y-16264484D01*
X10960539Y-16264484D02*
X10941491Y-16254960D01*
X10941491Y-16254960D02*
X10931967Y-16245436D01*
X10931967Y-16245436D02*
X10922444Y-16226388D01*
X10922444Y-16226388D02*
X10912920Y-16188293D01*
X10912920Y-16188293D02*
X10912920Y-16140674D01*
X10912920Y-16140674D02*
X10922444Y-16102579D01*
X10922444Y-16102579D02*
X10931967Y-16083531D01*
X10931967Y-16083531D02*
X10941491Y-16074008D01*
X10941491Y-16074008D02*
X10960539Y-16064484D01*
X11112920Y-16264484D02*
X11112920Y-16131150D01*
X11112920Y-16150198D02*
X11122444Y-16140674D01*
X11122444Y-16140674D02*
X11141491Y-16131150D01*
X11141491Y-16131150D02*
X11170063Y-16131150D01*
X11170063Y-16131150D02*
X11189110Y-16140674D01*
X11189110Y-16140674D02*
X11198634Y-16159722D01*
X11198634Y-16159722D02*
X11198634Y-16264484D01*
X11198634Y-16159722D02*
X11208158Y-16140674D01*
X11208158Y-16140674D02*
X11227205Y-16131150D01*
X11227205Y-16131150D02*
X11255777Y-16131150D01*
X11255777Y-16131150D02*
X11274824Y-16140674D01*
X11274824Y-16140674D02*
X11284348Y-16159722D01*
X11284348Y-16159722D02*
X11284348Y-16264484D01*
X11379586Y-16264484D02*
X11379586Y-16131150D01*
X11379586Y-16150198D02*
X11389110Y-16140674D01*
X11389110Y-16140674D02*
X11408158Y-16131150D01*
X11408158Y-16131150D02*
X11436729Y-16131150D01*
X11436729Y-16131150D02*
X11455777Y-16140674D01*
X11455777Y-16140674D02*
X11465301Y-16159722D01*
X11465301Y-16159722D02*
X11465301Y-16264484D01*
X11465301Y-16159722D02*
X11474824Y-16140674D01*
X11474824Y-16140674D02*
X11493872Y-16131150D01*
X11493872Y-16131150D02*
X11522443Y-16131150D01*
X11522443Y-16131150D02*
X11541491Y-16140674D01*
X11541491Y-16140674D02*
X11551015Y-16159722D01*
X11551015Y-16159722D02*
X11551015Y-16264484D01*
X11941491Y-16054960D02*
X11770063Y-16312103D01*
X12198634Y-16064484D02*
X12217682Y-16064484D01*
X12217682Y-16064484D02*
X12236729Y-16074008D01*
X12236729Y-16074008D02*
X12246253Y-16083531D01*
X12246253Y-16083531D02*
X12255777Y-16102579D01*
X12255777Y-16102579D02*
X12265301Y-16140674D01*
X12265301Y-16140674D02*
X12265301Y-16188293D01*
X12265301Y-16188293D02*
X12255777Y-16226388D01*
X12255777Y-16226388D02*
X12246253Y-16245436D01*
X12246253Y-16245436D02*
X12236729Y-16254960D01*
X12236729Y-16254960D02*
X12217682Y-16264484D01*
X12217682Y-16264484D02*
X12198634Y-16264484D01*
X12198634Y-16264484D02*
X12179586Y-16254960D01*
X12179586Y-16254960D02*
X12170063Y-16245436D01*
X12170063Y-16245436D02*
X12160539Y-16226388D01*
X12160539Y-16226388D02*
X12151015Y-16188293D01*
X12151015Y-16188293D02*
X12151015Y-16140674D01*
X12151015Y-16140674D02*
X12160539Y-16102579D01*
X12160539Y-16102579D02*
X12170063Y-16083531D01*
X12170063Y-16083531D02*
X12179586Y-16074008D01*
X12179586Y-16074008D02*
X12198634Y-16064484D01*
X12351015Y-16245436D02*
X12360539Y-16254960D01*
X12360539Y-16254960D02*
X12351015Y-16264484D01*
X12351015Y-16264484D02*
X12341491Y-16254960D01*
X12341491Y-16254960D02*
X12351015Y-16245436D01*
X12351015Y-16245436D02*
X12351015Y-16264484D01*
X12484348Y-16064484D02*
X12503396Y-16064484D01*
X12503396Y-16064484D02*
X12522444Y-16074008D01*
X12522444Y-16074008D02*
X12531967Y-16083531D01*
X12531967Y-16083531D02*
X12541491Y-16102579D01*
X12541491Y-16102579D02*
X12551015Y-16140674D01*
X12551015Y-16140674D02*
X12551015Y-16188293D01*
X12551015Y-16188293D02*
X12541491Y-16226388D01*
X12541491Y-16226388D02*
X12531967Y-16245436D01*
X12531967Y-16245436D02*
X12522444Y-16254960D01*
X12522444Y-16254960D02*
X12503396Y-16264484D01*
X12503396Y-16264484D02*
X12484348Y-16264484D01*
X12484348Y-16264484D02*
X12465301Y-16254960D01*
X12465301Y-16254960D02*
X12455777Y-16245436D01*
X12455777Y-16245436D02*
X12446253Y-16226388D01*
X12446253Y-16226388D02*
X12436729Y-16188293D01*
X12436729Y-16188293D02*
X12436729Y-16140674D01*
X12436729Y-16140674D02*
X12446253Y-16102579D01*
X12446253Y-16102579D02*
X12455777Y-16083531D01*
X12455777Y-16083531D02*
X12465301Y-16074008D01*
X12465301Y-16074008D02*
X12484348Y-16064484D01*
X12741491Y-16264484D02*
X12627206Y-16264484D01*
X12684348Y-16264484D02*
X12684348Y-16064484D01*
X12684348Y-16064484D02*
X12665301Y-16093055D01*
X12665301Y-16093055D02*
X12646253Y-16112103D01*
X12646253Y-16112103D02*
X12627206Y-16121627D01*
X12922444Y-16064484D02*
X12827206Y-16064484D01*
X12827206Y-16064484D02*
X12817682Y-16159722D01*
X12817682Y-16159722D02*
X12827206Y-16150198D01*
X12827206Y-16150198D02*
X12846253Y-16140674D01*
X12846253Y-16140674D02*
X12893872Y-16140674D01*
X12893872Y-16140674D02*
X12912920Y-16150198D01*
X12912920Y-16150198D02*
X12922444Y-16159722D01*
X12922444Y-16159722D02*
X12931967Y-16178769D01*
X12931967Y-16178769D02*
X12931967Y-16226388D01*
X12931967Y-16226388D02*
X12922444Y-16245436D01*
X12922444Y-16245436D02*
X12912920Y-16254960D01*
X12912920Y-16254960D02*
X12893872Y-16264484D01*
X12893872Y-16264484D02*
X12846253Y-16264484D01*
X12846253Y-16264484D02*
X12827206Y-16254960D01*
X12827206Y-16254960D02*
X12817682Y-16245436D01*
X12998634Y-16064484D02*
X13131967Y-16064484D01*
X13131967Y-16064484D02*
X13046253Y-16264484D01*
X13198634Y-16064484D02*
X13198634Y-16102579D01*
X13274825Y-16064484D02*
X13274825Y-16102579D01*
X13570063Y-16340674D02*
X13560539Y-16331150D01*
X13560539Y-16331150D02*
X13541491Y-16302579D01*
X13541491Y-16302579D02*
X13531968Y-16283531D01*
X13531968Y-16283531D02*
X13522444Y-16254960D01*
X13522444Y-16254960D02*
X13512920Y-16207341D01*
X13512920Y-16207341D02*
X13512920Y-16169246D01*
X13512920Y-16169246D02*
X13522444Y-16121627D01*
X13522444Y-16121627D02*
X13531968Y-16093055D01*
X13531968Y-16093055D02*
X13541491Y-16074008D01*
X13541491Y-16074008D02*
X13560539Y-16045436D01*
X13560539Y-16045436D02*
X13570063Y-16035912D01*
X13751015Y-16264484D02*
X13636729Y-16264484D01*
X13693872Y-16264484D02*
X13693872Y-16064484D01*
X13693872Y-16064484D02*
X13674825Y-16093055D01*
X13674825Y-16093055D02*
X13655777Y-16112103D01*
X13655777Y-16112103D02*
X13636729Y-16121627D01*
X13922444Y-16064484D02*
X13884348Y-16064484D01*
X13884348Y-16064484D02*
X13865301Y-16074008D01*
X13865301Y-16074008D02*
X13855777Y-16083531D01*
X13855777Y-16083531D02*
X13836729Y-16112103D01*
X13836729Y-16112103D02*
X13827206Y-16150198D01*
X13827206Y-16150198D02*
X13827206Y-16226388D01*
X13827206Y-16226388D02*
X13836729Y-16245436D01*
X13836729Y-16245436D02*
X13846253Y-16254960D01*
X13846253Y-16254960D02*
X13865301Y-16264484D01*
X13865301Y-16264484D02*
X13903396Y-16264484D01*
X13903396Y-16264484D02*
X13922444Y-16254960D01*
X13922444Y-16254960D02*
X13931968Y-16245436D01*
X13931968Y-16245436D02*
X13941491Y-16226388D01*
X13941491Y-16226388D02*
X13941491Y-16178769D01*
X13941491Y-16178769D02*
X13931968Y-16159722D01*
X13931968Y-16159722D02*
X13922444Y-16150198D01*
X13922444Y-16150198D02*
X13903396Y-16140674D01*
X13903396Y-16140674D02*
X13865301Y-16140674D01*
X13865301Y-16140674D02*
X13846253Y-16150198D01*
X13846253Y-16150198D02*
X13836729Y-16159722D01*
X13836729Y-16159722D02*
X13827206Y-16178769D01*
X14179587Y-16264484D02*
X14179587Y-16064484D01*
X14265301Y-16264484D02*
X14265301Y-16159722D01*
X14265301Y-16159722D02*
X14255777Y-16140674D01*
X14255777Y-16140674D02*
X14236730Y-16131150D01*
X14236730Y-16131150D02*
X14208158Y-16131150D01*
X14208158Y-16131150D02*
X14189110Y-16140674D01*
X14189110Y-16140674D02*
X14179587Y-16150198D01*
X14389110Y-16264484D02*
X14370063Y-16254960D01*
X14370063Y-16254960D02*
X14360539Y-16245436D01*
X14360539Y-16245436D02*
X14351015Y-16226388D01*
X14351015Y-16226388D02*
X14351015Y-16169246D01*
X14351015Y-16169246D02*
X14360539Y-16150198D01*
X14360539Y-16150198D02*
X14370063Y-16140674D01*
X14370063Y-16140674D02*
X14389110Y-16131150D01*
X14389110Y-16131150D02*
X14417682Y-16131150D01*
X14417682Y-16131150D02*
X14436730Y-16140674D01*
X14436730Y-16140674D02*
X14446253Y-16150198D01*
X14446253Y-16150198D02*
X14455777Y-16169246D01*
X14455777Y-16169246D02*
X14455777Y-16226388D01*
X14455777Y-16226388D02*
X14446253Y-16245436D01*
X14446253Y-16245436D02*
X14436730Y-16254960D01*
X14436730Y-16254960D02*
X14417682Y-16264484D01*
X14417682Y-16264484D02*
X14389110Y-16264484D01*
X14570063Y-16264484D02*
X14551015Y-16254960D01*
X14551015Y-16254960D02*
X14541491Y-16235912D01*
X14541491Y-16235912D02*
X14541491Y-16064484D01*
X14722444Y-16254960D02*
X14703396Y-16264484D01*
X14703396Y-16264484D02*
X14665301Y-16264484D01*
X14665301Y-16264484D02*
X14646253Y-16254960D01*
X14646253Y-16254960D02*
X14636730Y-16235912D01*
X14636730Y-16235912D02*
X14636730Y-16159722D01*
X14636730Y-16159722D02*
X14646253Y-16140674D01*
X14646253Y-16140674D02*
X14665301Y-16131150D01*
X14665301Y-16131150D02*
X14703396Y-16131150D01*
X14703396Y-16131150D02*
X14722444Y-16140674D01*
X14722444Y-16140674D02*
X14731968Y-16159722D01*
X14731968Y-16159722D02*
X14731968Y-16178769D01*
X14731968Y-16178769D02*
X14636730Y-16197817D01*
X14808158Y-16254960D02*
X14827206Y-16264484D01*
X14827206Y-16264484D02*
X14865301Y-16264484D01*
X14865301Y-16264484D02*
X14884349Y-16254960D01*
X14884349Y-16254960D02*
X14893872Y-16235912D01*
X14893872Y-16235912D02*
X14893872Y-16226388D01*
X14893872Y-16226388D02*
X14884349Y-16207341D01*
X14884349Y-16207341D02*
X14865301Y-16197817D01*
X14865301Y-16197817D02*
X14836730Y-16197817D01*
X14836730Y-16197817D02*
X14817682Y-16188293D01*
X14817682Y-16188293D02*
X14808158Y-16169246D01*
X14808158Y-16169246D02*
X14808158Y-16159722D01*
X14808158Y-16159722D02*
X14817682Y-16140674D01*
X14817682Y-16140674D02*
X14836730Y-16131150D01*
X14836730Y-16131150D02*
X14865301Y-16131150D01*
X14865301Y-16131150D02*
X14884349Y-16140674D01*
X14960539Y-16340674D02*
X14970063Y-16331150D01*
X14970063Y-16331150D02*
X14989111Y-16302579D01*
X14989111Y-16302579D02*
X14998634Y-16283531D01*
X14998634Y-16283531D02*
X15008158Y-16254960D01*
X15008158Y-16254960D02*
X15017682Y-16207341D01*
X15017682Y-16207341D02*
X15017682Y-16169246D01*
X15017682Y-16169246D02*
X15008158Y-16121627D01*
X15008158Y-16121627D02*
X14998634Y-16093055D01*
X14998634Y-16093055D02*
X14989111Y-16074008D01*
X14989111Y-16074008D02*
X14970063Y-16045436D01*
X14970063Y-16045436D02*
X14960539Y-16035912D01*
D14*
X9986213Y-16458213D02*
X9986213Y-16415787D01*
X9943787Y-16415787D01*
X9943787Y-16458213D01*
X9986213Y-16458213D01*
D11*
X10293872Y-16328484D02*
X10312920Y-16328484D01*
X10312920Y-16328484D02*
X10331967Y-16338008D01*
X10331967Y-16338008D02*
X10341491Y-16347531D01*
X10341491Y-16347531D02*
X10351015Y-16366579D01*
X10351015Y-16366579D02*
X10360539Y-16404674D01*
X10360539Y-16404674D02*
X10360539Y-16452293D01*
X10360539Y-16452293D02*
X10351015Y-16490388D01*
X10351015Y-16490388D02*
X10341491Y-16509436D01*
X10341491Y-16509436D02*
X10331967Y-16518960D01*
X10331967Y-16518960D02*
X10312920Y-16528484D01*
X10312920Y-16528484D02*
X10293872Y-16528484D01*
X10293872Y-16528484D02*
X10274824Y-16518960D01*
X10274824Y-16518960D02*
X10265301Y-16509436D01*
X10265301Y-16509436D02*
X10255777Y-16490388D01*
X10255777Y-16490388D02*
X10246253Y-16452293D01*
X10246253Y-16452293D02*
X10246253Y-16404674D01*
X10246253Y-16404674D02*
X10255777Y-16366579D01*
X10255777Y-16366579D02*
X10265301Y-16347531D01*
X10265301Y-16347531D02*
X10274824Y-16338008D01*
X10274824Y-16338008D02*
X10293872Y-16328484D01*
X10446253Y-16509436D02*
X10455777Y-16518960D01*
X10455777Y-16518960D02*
X10446253Y-16528484D01*
X10446253Y-16528484D02*
X10436729Y-16518960D01*
X10436729Y-16518960D02*
X10446253Y-16509436D01*
X10446253Y-16509436D02*
X10446253Y-16528484D01*
X10627205Y-16328484D02*
X10589110Y-16328484D01*
X10589110Y-16328484D02*
X10570063Y-16338008D01*
X10570063Y-16338008D02*
X10560539Y-16347531D01*
X10560539Y-16347531D02*
X10541491Y-16376103D01*
X10541491Y-16376103D02*
X10531967Y-16414198D01*
X10531967Y-16414198D02*
X10531967Y-16490388D01*
X10531967Y-16490388D02*
X10541491Y-16509436D01*
X10541491Y-16509436D02*
X10551015Y-16518960D01*
X10551015Y-16518960D02*
X10570063Y-16528484D01*
X10570063Y-16528484D02*
X10608158Y-16528484D01*
X10608158Y-16528484D02*
X10627205Y-16518960D01*
X10627205Y-16518960D02*
X10636729Y-16509436D01*
X10636729Y-16509436D02*
X10646253Y-16490388D01*
X10646253Y-16490388D02*
X10646253Y-16442769D01*
X10646253Y-16442769D02*
X10636729Y-16423722D01*
X10636729Y-16423722D02*
X10627205Y-16414198D01*
X10627205Y-16414198D02*
X10608158Y-16404674D01*
X10608158Y-16404674D02*
X10570063Y-16404674D01*
X10570063Y-16404674D02*
X10551015Y-16414198D01*
X10551015Y-16414198D02*
X10541491Y-16423722D01*
X10541491Y-16423722D02*
X10531967Y-16442769D01*
X10770063Y-16328484D02*
X10789110Y-16328484D01*
X10789110Y-16328484D02*
X10808158Y-16338008D01*
X10808158Y-16338008D02*
X10817682Y-16347531D01*
X10817682Y-16347531D02*
X10827205Y-16366579D01*
X10827205Y-16366579D02*
X10836729Y-16404674D01*
X10836729Y-16404674D02*
X10836729Y-16452293D01*
X10836729Y-16452293D02*
X10827205Y-16490388D01*
X10827205Y-16490388D02*
X10817682Y-16509436D01*
X10817682Y-16509436D02*
X10808158Y-16518960D01*
X10808158Y-16518960D02*
X10789110Y-16528484D01*
X10789110Y-16528484D02*
X10770063Y-16528484D01*
X10770063Y-16528484D02*
X10751015Y-16518960D01*
X10751015Y-16518960D02*
X10741491Y-16509436D01*
X10741491Y-16509436D02*
X10731967Y-16490388D01*
X10731967Y-16490388D02*
X10722444Y-16452293D01*
X10722444Y-16452293D02*
X10722444Y-16404674D01*
X10722444Y-16404674D02*
X10731967Y-16366579D01*
X10731967Y-16366579D02*
X10741491Y-16347531D01*
X10741491Y-16347531D02*
X10751015Y-16338008D01*
X10751015Y-16338008D02*
X10770063Y-16328484D01*
X10960539Y-16328484D02*
X10979586Y-16328484D01*
X10979586Y-16328484D02*
X10998634Y-16338008D01*
X10998634Y-16338008D02*
X11008158Y-16347531D01*
X11008158Y-16347531D02*
X11017682Y-16366579D01*
X11017682Y-16366579D02*
X11027205Y-16404674D01*
X11027205Y-16404674D02*
X11027205Y-16452293D01*
X11027205Y-16452293D02*
X11017682Y-16490388D01*
X11017682Y-16490388D02*
X11008158Y-16509436D01*
X11008158Y-16509436D02*
X10998634Y-16518960D01*
X10998634Y-16518960D02*
X10979586Y-16528484D01*
X10979586Y-16528484D02*
X10960539Y-16528484D01*
X10960539Y-16528484D02*
X10941491Y-16518960D01*
X10941491Y-16518960D02*
X10931967Y-16509436D01*
X10931967Y-16509436D02*
X10922444Y-16490388D01*
X10922444Y-16490388D02*
X10912920Y-16452293D01*
X10912920Y-16452293D02*
X10912920Y-16404674D01*
X10912920Y-16404674D02*
X10922444Y-16366579D01*
X10922444Y-16366579D02*
X10931967Y-16347531D01*
X10931967Y-16347531D02*
X10941491Y-16338008D01*
X10941491Y-16338008D02*
X10960539Y-16328484D01*
X11112920Y-16528484D02*
X11112920Y-16395150D01*
X11112920Y-16414198D02*
X11122444Y-16404674D01*
X11122444Y-16404674D02*
X11141491Y-16395150D01*
X11141491Y-16395150D02*
X11170063Y-16395150D01*
X11170063Y-16395150D02*
X11189110Y-16404674D01*
X11189110Y-16404674D02*
X11198634Y-16423722D01*
X11198634Y-16423722D02*
X11198634Y-16528484D01*
X11198634Y-16423722D02*
X11208158Y-16404674D01*
X11208158Y-16404674D02*
X11227205Y-16395150D01*
X11227205Y-16395150D02*
X11255777Y-16395150D01*
X11255777Y-16395150D02*
X11274824Y-16404674D01*
X11274824Y-16404674D02*
X11284348Y-16423722D01*
X11284348Y-16423722D02*
X11284348Y-16528484D01*
X11379586Y-16528484D02*
X11379586Y-16395150D01*
X11379586Y-16414198D02*
X11389110Y-16404674D01*
X11389110Y-16404674D02*
X11408158Y-16395150D01*
X11408158Y-16395150D02*
X11436729Y-16395150D01*
X11436729Y-16395150D02*
X11455777Y-16404674D01*
X11455777Y-16404674D02*
X11465301Y-16423722D01*
X11465301Y-16423722D02*
X11465301Y-16528484D01*
X11465301Y-16423722D02*
X11474824Y-16404674D01*
X11474824Y-16404674D02*
X11493872Y-16395150D01*
X11493872Y-16395150D02*
X11522443Y-16395150D01*
X11522443Y-16395150D02*
X11541491Y-16404674D01*
X11541491Y-16404674D02*
X11551015Y-16423722D01*
X11551015Y-16423722D02*
X11551015Y-16528484D01*
X11941491Y-16318960D02*
X11770063Y-16576103D01*
X12198634Y-16328484D02*
X12217682Y-16328484D01*
X12217682Y-16328484D02*
X12236729Y-16338008D01*
X12236729Y-16338008D02*
X12246253Y-16347531D01*
X12246253Y-16347531D02*
X12255777Y-16366579D01*
X12255777Y-16366579D02*
X12265301Y-16404674D01*
X12265301Y-16404674D02*
X12265301Y-16452293D01*
X12265301Y-16452293D02*
X12255777Y-16490388D01*
X12255777Y-16490388D02*
X12246253Y-16509436D01*
X12246253Y-16509436D02*
X12236729Y-16518960D01*
X12236729Y-16518960D02*
X12217682Y-16528484D01*
X12217682Y-16528484D02*
X12198634Y-16528484D01*
X12198634Y-16528484D02*
X12179586Y-16518960D01*
X12179586Y-16518960D02*
X12170063Y-16509436D01*
X12170063Y-16509436D02*
X12160539Y-16490388D01*
X12160539Y-16490388D02*
X12151015Y-16452293D01*
X12151015Y-16452293D02*
X12151015Y-16404674D01*
X12151015Y-16404674D02*
X12160539Y-16366579D01*
X12160539Y-16366579D02*
X12170063Y-16347531D01*
X12170063Y-16347531D02*
X12179586Y-16338008D01*
X12179586Y-16338008D02*
X12198634Y-16328484D01*
X12351015Y-16509436D02*
X12360539Y-16518960D01*
X12360539Y-16518960D02*
X12351015Y-16528484D01*
X12351015Y-16528484D02*
X12341491Y-16518960D01*
X12341491Y-16518960D02*
X12351015Y-16509436D01*
X12351015Y-16509436D02*
X12351015Y-16528484D01*
X12484348Y-16328484D02*
X12503396Y-16328484D01*
X12503396Y-16328484D02*
X12522444Y-16338008D01*
X12522444Y-16338008D02*
X12531967Y-16347531D01*
X12531967Y-16347531D02*
X12541491Y-16366579D01*
X12541491Y-16366579D02*
X12551015Y-16404674D01*
X12551015Y-16404674D02*
X12551015Y-16452293D01*
X12551015Y-16452293D02*
X12541491Y-16490388D01*
X12541491Y-16490388D02*
X12531967Y-16509436D01*
X12531967Y-16509436D02*
X12522444Y-16518960D01*
X12522444Y-16518960D02*
X12503396Y-16528484D01*
X12503396Y-16528484D02*
X12484348Y-16528484D01*
X12484348Y-16528484D02*
X12465301Y-16518960D01*
X12465301Y-16518960D02*
X12455777Y-16509436D01*
X12455777Y-16509436D02*
X12446253Y-16490388D01*
X12446253Y-16490388D02*
X12436729Y-16452293D01*
X12436729Y-16452293D02*
X12436729Y-16404674D01*
X12436729Y-16404674D02*
X12446253Y-16366579D01*
X12446253Y-16366579D02*
X12455777Y-16347531D01*
X12455777Y-16347531D02*
X12465301Y-16338008D01*
X12465301Y-16338008D02*
X12484348Y-16328484D01*
X12627206Y-16347531D02*
X12636729Y-16338008D01*
X12636729Y-16338008D02*
X12655777Y-16328484D01*
X12655777Y-16328484D02*
X12703396Y-16328484D01*
X12703396Y-16328484D02*
X12722444Y-16338008D01*
X12722444Y-16338008D02*
X12731967Y-16347531D01*
X12731967Y-16347531D02*
X12741491Y-16366579D01*
X12741491Y-16366579D02*
X12741491Y-16385627D01*
X12741491Y-16385627D02*
X12731967Y-16414198D01*
X12731967Y-16414198D02*
X12617682Y-16528484D01*
X12617682Y-16528484D02*
X12741491Y-16528484D01*
X12808158Y-16328484D02*
X12931967Y-16328484D01*
X12931967Y-16328484D02*
X12865301Y-16404674D01*
X12865301Y-16404674D02*
X12893872Y-16404674D01*
X12893872Y-16404674D02*
X12912920Y-16414198D01*
X12912920Y-16414198D02*
X12922444Y-16423722D01*
X12922444Y-16423722D02*
X12931967Y-16442769D01*
X12931967Y-16442769D02*
X12931967Y-16490388D01*
X12931967Y-16490388D02*
X12922444Y-16509436D01*
X12922444Y-16509436D02*
X12912920Y-16518960D01*
X12912920Y-16518960D02*
X12893872Y-16528484D01*
X12893872Y-16528484D02*
X12836729Y-16528484D01*
X12836729Y-16528484D02*
X12817682Y-16518960D01*
X12817682Y-16518960D02*
X12808158Y-16509436D01*
X13103396Y-16328484D02*
X13065301Y-16328484D01*
X13065301Y-16328484D02*
X13046253Y-16338008D01*
X13046253Y-16338008D02*
X13036729Y-16347531D01*
X13036729Y-16347531D02*
X13017682Y-16376103D01*
X13017682Y-16376103D02*
X13008158Y-16414198D01*
X13008158Y-16414198D02*
X13008158Y-16490388D01*
X13008158Y-16490388D02*
X13017682Y-16509436D01*
X13017682Y-16509436D02*
X13027206Y-16518960D01*
X13027206Y-16518960D02*
X13046253Y-16528484D01*
X13046253Y-16528484D02*
X13084348Y-16528484D01*
X13084348Y-16528484D02*
X13103396Y-16518960D01*
X13103396Y-16518960D02*
X13112920Y-16509436D01*
X13112920Y-16509436D02*
X13122444Y-16490388D01*
X13122444Y-16490388D02*
X13122444Y-16442769D01*
X13122444Y-16442769D02*
X13112920Y-16423722D01*
X13112920Y-16423722D02*
X13103396Y-16414198D01*
X13103396Y-16414198D02*
X13084348Y-16404674D01*
X13084348Y-16404674D02*
X13046253Y-16404674D01*
X13046253Y-16404674D02*
X13027206Y-16414198D01*
X13027206Y-16414198D02*
X13017682Y-16423722D01*
X13017682Y-16423722D02*
X13008158Y-16442769D01*
X13198634Y-16328484D02*
X13198634Y-16366579D01*
X13274825Y-16328484D02*
X13274825Y-16366579D01*
X13570063Y-16604674D02*
X13560539Y-16595150D01*
X13560539Y-16595150D02*
X13541491Y-16566579D01*
X13541491Y-16566579D02*
X13531968Y-16547531D01*
X13531968Y-16547531D02*
X13522444Y-16518960D01*
X13522444Y-16518960D02*
X13512920Y-16471341D01*
X13512920Y-16471341D02*
X13512920Y-16433246D01*
X13512920Y-16433246D02*
X13522444Y-16385627D01*
X13522444Y-16385627D02*
X13531968Y-16357055D01*
X13531968Y-16357055D02*
X13541491Y-16338008D01*
X13541491Y-16338008D02*
X13560539Y-16309436D01*
X13560539Y-16309436D02*
X13570063Y-16299912D01*
X13684348Y-16328484D02*
X13703396Y-16328484D01*
X13703396Y-16328484D02*
X13722444Y-16338008D01*
X13722444Y-16338008D02*
X13731968Y-16347531D01*
X13731968Y-16347531D02*
X13741491Y-16366579D01*
X13741491Y-16366579D02*
X13751015Y-16404674D01*
X13751015Y-16404674D02*
X13751015Y-16452293D01*
X13751015Y-16452293D02*
X13741491Y-16490388D01*
X13741491Y-16490388D02*
X13731968Y-16509436D01*
X13731968Y-16509436D02*
X13722444Y-16518960D01*
X13722444Y-16518960D02*
X13703396Y-16528484D01*
X13703396Y-16528484D02*
X13684348Y-16528484D01*
X13684348Y-16528484D02*
X13665301Y-16518960D01*
X13665301Y-16518960D02*
X13655777Y-16509436D01*
X13655777Y-16509436D02*
X13646253Y-16490388D01*
X13646253Y-16490388D02*
X13636729Y-16452293D01*
X13636729Y-16452293D02*
X13636729Y-16404674D01*
X13636729Y-16404674D02*
X13646253Y-16366579D01*
X13646253Y-16366579D02*
X13655777Y-16347531D01*
X13655777Y-16347531D02*
X13665301Y-16338008D01*
X13665301Y-16338008D02*
X13684348Y-16328484D01*
X13989110Y-16528484D02*
X13989110Y-16328484D01*
X14074825Y-16528484D02*
X14074825Y-16423722D01*
X14074825Y-16423722D02*
X14065301Y-16404674D01*
X14065301Y-16404674D02*
X14046253Y-16395150D01*
X14046253Y-16395150D02*
X14017682Y-16395150D01*
X14017682Y-16395150D02*
X13998634Y-16404674D01*
X13998634Y-16404674D02*
X13989110Y-16414198D01*
X14198634Y-16528484D02*
X14179587Y-16518960D01*
X14179587Y-16518960D02*
X14170063Y-16509436D01*
X14170063Y-16509436D02*
X14160539Y-16490388D01*
X14160539Y-16490388D02*
X14160539Y-16433246D01*
X14160539Y-16433246D02*
X14170063Y-16414198D01*
X14170063Y-16414198D02*
X14179587Y-16404674D01*
X14179587Y-16404674D02*
X14198634Y-16395150D01*
X14198634Y-16395150D02*
X14227206Y-16395150D01*
X14227206Y-16395150D02*
X14246253Y-16404674D01*
X14246253Y-16404674D02*
X14255777Y-16414198D01*
X14255777Y-16414198D02*
X14265301Y-16433246D01*
X14265301Y-16433246D02*
X14265301Y-16490388D01*
X14265301Y-16490388D02*
X14255777Y-16509436D01*
X14255777Y-16509436D02*
X14246253Y-16518960D01*
X14246253Y-16518960D02*
X14227206Y-16528484D01*
X14227206Y-16528484D02*
X14198634Y-16528484D01*
X14379587Y-16528484D02*
X14360539Y-16518960D01*
X14360539Y-16518960D02*
X14351015Y-16499912D01*
X14351015Y-16499912D02*
X14351015Y-16328484D01*
X14531968Y-16518960D02*
X14512920Y-16528484D01*
X14512920Y-16528484D02*
X14474825Y-16528484D01*
X14474825Y-16528484D02*
X14455777Y-16518960D01*
X14455777Y-16518960D02*
X14446253Y-16499912D01*
X14446253Y-16499912D02*
X14446253Y-16423722D01*
X14446253Y-16423722D02*
X14455777Y-16404674D01*
X14455777Y-16404674D02*
X14474825Y-16395150D01*
X14474825Y-16395150D02*
X14512920Y-16395150D01*
X14512920Y-16395150D02*
X14531968Y-16404674D01*
X14531968Y-16404674D02*
X14541491Y-16423722D01*
X14541491Y-16423722D02*
X14541491Y-16442769D01*
X14541491Y-16442769D02*
X14446253Y-16461817D01*
X14617682Y-16518960D02*
X14636730Y-16528484D01*
X14636730Y-16528484D02*
X14674825Y-16528484D01*
X14674825Y-16528484D02*
X14693872Y-16518960D01*
X14693872Y-16518960D02*
X14703396Y-16499912D01*
X14703396Y-16499912D02*
X14703396Y-16490388D01*
X14703396Y-16490388D02*
X14693872Y-16471341D01*
X14693872Y-16471341D02*
X14674825Y-16461817D01*
X14674825Y-16461817D02*
X14646253Y-16461817D01*
X14646253Y-16461817D02*
X14627206Y-16452293D01*
X14627206Y-16452293D02*
X14617682Y-16433246D01*
X14617682Y-16433246D02*
X14617682Y-16423722D01*
X14617682Y-16423722D02*
X14627206Y-16404674D01*
X14627206Y-16404674D02*
X14646253Y-16395150D01*
X14646253Y-16395150D02*
X14674825Y-16395150D01*
X14674825Y-16395150D02*
X14693872Y-16404674D01*
X14941492Y-16452293D02*
X15093873Y-16452293D01*
X15017682Y-16528484D02*
X15017682Y-16376103D01*
X15427206Y-16395150D02*
X15427206Y-16528484D01*
X15379587Y-16318960D02*
X15331968Y-16461817D01*
X15331968Y-16461817D02*
X15455777Y-16461817D01*
X15674825Y-16518960D02*
X15693873Y-16528484D01*
X15693873Y-16528484D02*
X15731968Y-16528484D01*
X15731968Y-16528484D02*
X15751015Y-16518960D01*
X15751015Y-16518960D02*
X15760539Y-16499912D01*
X15760539Y-16499912D02*
X15760539Y-16490388D01*
X15760539Y-16490388D02*
X15751015Y-16471341D01*
X15751015Y-16471341D02*
X15731968Y-16461817D01*
X15731968Y-16461817D02*
X15703396Y-16461817D01*
X15703396Y-16461817D02*
X15684349Y-16452293D01*
X15684349Y-16452293D02*
X15674825Y-16433246D01*
X15674825Y-16433246D02*
X15674825Y-16423722D01*
X15674825Y-16423722D02*
X15684349Y-16404674D01*
X15684349Y-16404674D02*
X15703396Y-16395150D01*
X15703396Y-16395150D02*
X15731968Y-16395150D01*
X15731968Y-16395150D02*
X15751015Y-16404674D01*
X15874825Y-16528484D02*
X15855777Y-16518960D01*
X15855777Y-16518960D02*
X15846254Y-16499912D01*
X15846254Y-16499912D02*
X15846254Y-16328484D01*
X15979587Y-16528484D02*
X15960539Y-16518960D01*
X15960539Y-16518960D02*
X15951015Y-16509436D01*
X15951015Y-16509436D02*
X15941492Y-16490388D01*
X15941492Y-16490388D02*
X15941492Y-16433246D01*
X15941492Y-16433246D02*
X15951015Y-16414198D01*
X15951015Y-16414198D02*
X15960539Y-16404674D01*
X15960539Y-16404674D02*
X15979587Y-16395150D01*
X15979587Y-16395150D02*
X16008158Y-16395150D01*
X16008158Y-16395150D02*
X16027206Y-16404674D01*
X16027206Y-16404674D02*
X16036730Y-16414198D01*
X16036730Y-16414198D02*
X16046254Y-16433246D01*
X16046254Y-16433246D02*
X16046254Y-16490388D01*
X16046254Y-16490388D02*
X16036730Y-16509436D01*
X16036730Y-16509436D02*
X16027206Y-16518960D01*
X16027206Y-16518960D02*
X16008158Y-16528484D01*
X16008158Y-16528484D02*
X15979587Y-16528484D01*
X16103396Y-16395150D02*
X16179587Y-16395150D01*
X16131968Y-16328484D02*
X16131968Y-16499912D01*
X16131968Y-16499912D02*
X16141492Y-16518960D01*
X16141492Y-16518960D02*
X16160539Y-16528484D01*
X16160539Y-16528484D02*
X16179587Y-16528484D01*
X16236730Y-16518960D02*
X16255777Y-16528484D01*
X16255777Y-16528484D02*
X16293873Y-16528484D01*
X16293873Y-16528484D02*
X16312920Y-16518960D01*
X16312920Y-16518960D02*
X16322444Y-16499912D01*
X16322444Y-16499912D02*
X16322444Y-16490388D01*
X16322444Y-16490388D02*
X16312920Y-16471341D01*
X16312920Y-16471341D02*
X16293873Y-16461817D01*
X16293873Y-16461817D02*
X16265301Y-16461817D01*
X16265301Y-16461817D02*
X16246254Y-16452293D01*
X16246254Y-16452293D02*
X16236730Y-16433246D01*
X16236730Y-16433246D02*
X16236730Y-16423722D01*
X16236730Y-16423722D02*
X16246254Y-16404674D01*
X16246254Y-16404674D02*
X16265301Y-16395150D01*
X16265301Y-16395150D02*
X16293873Y-16395150D01*
X16293873Y-16395150D02*
X16312920Y-16404674D01*
X16389111Y-16604674D02*
X16398635Y-16595150D01*
X16398635Y-16595150D02*
X16417682Y-16566579D01*
X16417682Y-16566579D02*
X16427206Y-16547531D01*
X16427206Y-16547531D02*
X16436730Y-16518960D01*
X16436730Y-16518960D02*
X16446254Y-16471341D01*
X16446254Y-16471341D02*
X16446254Y-16433246D01*
X16446254Y-16433246D02*
X16436730Y-16385627D01*
X16436730Y-16385627D02*
X16427206Y-16357055D01*
X16427206Y-16357055D02*
X16417682Y-16338008D01*
X16417682Y-16338008D02*
X16398635Y-16309436D01*
X16398635Y-16309436D02*
X16389111Y-16299912D01*
D15*
X9944200Y-16751800D02*
X9995000Y-16701000D01*
X9944200Y-16650200D01*
X9893400Y-16701000D01*
X9944200Y-16751800D01*
D11*
X10360539Y-16792484D02*
X10246253Y-16792484D01*
X10303396Y-16792484D02*
X10303396Y-16592484D01*
X10303396Y-16592484D02*
X10284348Y-16621055D01*
X10284348Y-16621055D02*
X10265301Y-16640103D01*
X10265301Y-16640103D02*
X10246253Y-16649627D01*
X10446253Y-16773436D02*
X10455777Y-16782960D01*
X10455777Y-16782960D02*
X10446253Y-16792484D01*
X10446253Y-16792484D02*
X10436729Y-16782960D01*
X10436729Y-16782960D02*
X10446253Y-16773436D01*
X10446253Y-16773436D02*
X10446253Y-16792484D01*
X10579586Y-16592484D02*
X10598634Y-16592484D01*
X10598634Y-16592484D02*
X10617682Y-16602008D01*
X10617682Y-16602008D02*
X10627205Y-16611531D01*
X10627205Y-16611531D02*
X10636729Y-16630579D01*
X10636729Y-16630579D02*
X10646253Y-16668674D01*
X10646253Y-16668674D02*
X10646253Y-16716293D01*
X10646253Y-16716293D02*
X10636729Y-16754388D01*
X10636729Y-16754388D02*
X10627205Y-16773436D01*
X10627205Y-16773436D02*
X10617682Y-16782960D01*
X10617682Y-16782960D02*
X10598634Y-16792484D01*
X10598634Y-16792484D02*
X10579586Y-16792484D01*
X10579586Y-16792484D02*
X10560539Y-16782960D01*
X10560539Y-16782960D02*
X10551015Y-16773436D01*
X10551015Y-16773436D02*
X10541491Y-16754388D01*
X10541491Y-16754388D02*
X10531967Y-16716293D01*
X10531967Y-16716293D02*
X10531967Y-16668674D01*
X10531967Y-16668674D02*
X10541491Y-16630579D01*
X10541491Y-16630579D02*
X10551015Y-16611531D01*
X10551015Y-16611531D02*
X10560539Y-16602008D01*
X10560539Y-16602008D02*
X10579586Y-16592484D01*
X10836729Y-16792484D02*
X10722444Y-16792484D01*
X10779586Y-16792484D02*
X10779586Y-16592484D01*
X10779586Y-16592484D02*
X10760539Y-16621055D01*
X10760539Y-16621055D02*
X10741491Y-16640103D01*
X10741491Y-16640103D02*
X10722444Y-16649627D01*
X11008158Y-16592484D02*
X10970063Y-16592484D01*
X10970063Y-16592484D02*
X10951015Y-16602008D01*
X10951015Y-16602008D02*
X10941491Y-16611531D01*
X10941491Y-16611531D02*
X10922444Y-16640103D01*
X10922444Y-16640103D02*
X10912920Y-16678198D01*
X10912920Y-16678198D02*
X10912920Y-16754388D01*
X10912920Y-16754388D02*
X10922444Y-16773436D01*
X10922444Y-16773436D02*
X10931967Y-16782960D01*
X10931967Y-16782960D02*
X10951015Y-16792484D01*
X10951015Y-16792484D02*
X10989110Y-16792484D01*
X10989110Y-16792484D02*
X11008158Y-16782960D01*
X11008158Y-16782960D02*
X11017682Y-16773436D01*
X11017682Y-16773436D02*
X11027205Y-16754388D01*
X11027205Y-16754388D02*
X11027205Y-16706769D01*
X11027205Y-16706769D02*
X11017682Y-16687722D01*
X11017682Y-16687722D02*
X11008158Y-16678198D01*
X11008158Y-16678198D02*
X10989110Y-16668674D01*
X10989110Y-16668674D02*
X10951015Y-16668674D01*
X10951015Y-16668674D02*
X10931967Y-16678198D01*
X10931967Y-16678198D02*
X10922444Y-16687722D01*
X10922444Y-16687722D02*
X10912920Y-16706769D01*
X11112920Y-16792484D02*
X11112920Y-16659150D01*
X11112920Y-16678198D02*
X11122444Y-16668674D01*
X11122444Y-16668674D02*
X11141491Y-16659150D01*
X11141491Y-16659150D02*
X11170063Y-16659150D01*
X11170063Y-16659150D02*
X11189110Y-16668674D01*
X11189110Y-16668674D02*
X11198634Y-16687722D01*
X11198634Y-16687722D02*
X11198634Y-16792484D01*
X11198634Y-16687722D02*
X11208158Y-16668674D01*
X11208158Y-16668674D02*
X11227205Y-16659150D01*
X11227205Y-16659150D02*
X11255777Y-16659150D01*
X11255777Y-16659150D02*
X11274824Y-16668674D01*
X11274824Y-16668674D02*
X11284348Y-16687722D01*
X11284348Y-16687722D02*
X11284348Y-16792484D01*
X11379586Y-16792484D02*
X11379586Y-16659150D01*
X11379586Y-16678198D02*
X11389110Y-16668674D01*
X11389110Y-16668674D02*
X11408158Y-16659150D01*
X11408158Y-16659150D02*
X11436729Y-16659150D01*
X11436729Y-16659150D02*
X11455777Y-16668674D01*
X11455777Y-16668674D02*
X11465301Y-16687722D01*
X11465301Y-16687722D02*
X11465301Y-16792484D01*
X11465301Y-16687722D02*
X11474824Y-16668674D01*
X11474824Y-16668674D02*
X11493872Y-16659150D01*
X11493872Y-16659150D02*
X11522443Y-16659150D01*
X11522443Y-16659150D02*
X11541491Y-16668674D01*
X11541491Y-16668674D02*
X11551015Y-16687722D01*
X11551015Y-16687722D02*
X11551015Y-16792484D01*
X11941491Y-16582960D02*
X11770063Y-16840103D01*
X12198634Y-16592484D02*
X12217682Y-16592484D01*
X12217682Y-16592484D02*
X12236729Y-16602008D01*
X12236729Y-16602008D02*
X12246253Y-16611531D01*
X12246253Y-16611531D02*
X12255777Y-16630579D01*
X12255777Y-16630579D02*
X12265301Y-16668674D01*
X12265301Y-16668674D02*
X12265301Y-16716293D01*
X12265301Y-16716293D02*
X12255777Y-16754388D01*
X12255777Y-16754388D02*
X12246253Y-16773436D01*
X12246253Y-16773436D02*
X12236729Y-16782960D01*
X12236729Y-16782960D02*
X12217682Y-16792484D01*
X12217682Y-16792484D02*
X12198634Y-16792484D01*
X12198634Y-16792484D02*
X12179586Y-16782960D01*
X12179586Y-16782960D02*
X12170063Y-16773436D01*
X12170063Y-16773436D02*
X12160539Y-16754388D01*
X12160539Y-16754388D02*
X12151015Y-16716293D01*
X12151015Y-16716293D02*
X12151015Y-16668674D01*
X12151015Y-16668674D02*
X12160539Y-16630579D01*
X12160539Y-16630579D02*
X12170063Y-16611531D01*
X12170063Y-16611531D02*
X12179586Y-16602008D01*
X12179586Y-16602008D02*
X12198634Y-16592484D01*
X12351015Y-16773436D02*
X12360539Y-16782960D01*
X12360539Y-16782960D02*
X12351015Y-16792484D01*
X12351015Y-16792484D02*
X12341491Y-16782960D01*
X12341491Y-16782960D02*
X12351015Y-16773436D01*
X12351015Y-16773436D02*
X12351015Y-16792484D01*
X12484348Y-16592484D02*
X12503396Y-16592484D01*
X12503396Y-16592484D02*
X12522444Y-16602008D01*
X12522444Y-16602008D02*
X12531967Y-16611531D01*
X12531967Y-16611531D02*
X12541491Y-16630579D01*
X12541491Y-16630579D02*
X12551015Y-16668674D01*
X12551015Y-16668674D02*
X12551015Y-16716293D01*
X12551015Y-16716293D02*
X12541491Y-16754388D01*
X12541491Y-16754388D02*
X12531967Y-16773436D01*
X12531967Y-16773436D02*
X12522444Y-16782960D01*
X12522444Y-16782960D02*
X12503396Y-16792484D01*
X12503396Y-16792484D02*
X12484348Y-16792484D01*
X12484348Y-16792484D02*
X12465301Y-16782960D01*
X12465301Y-16782960D02*
X12455777Y-16773436D01*
X12455777Y-16773436D02*
X12446253Y-16754388D01*
X12446253Y-16754388D02*
X12436729Y-16716293D01*
X12436729Y-16716293D02*
X12436729Y-16668674D01*
X12436729Y-16668674D02*
X12446253Y-16630579D01*
X12446253Y-16630579D02*
X12455777Y-16611531D01*
X12455777Y-16611531D02*
X12465301Y-16602008D01*
X12465301Y-16602008D02*
X12484348Y-16592484D01*
X12722444Y-16659150D02*
X12722444Y-16792484D01*
X12674825Y-16582960D02*
X12627206Y-16725817D01*
X12627206Y-16725817D02*
X12751015Y-16725817D01*
X12865301Y-16592484D02*
X12884348Y-16592484D01*
X12884348Y-16592484D02*
X12903396Y-16602008D01*
X12903396Y-16602008D02*
X12912920Y-16611531D01*
X12912920Y-16611531D02*
X12922444Y-16630579D01*
X12922444Y-16630579D02*
X12931967Y-16668674D01*
X12931967Y-16668674D02*
X12931967Y-16716293D01*
X12931967Y-16716293D02*
X12922444Y-16754388D01*
X12922444Y-16754388D02*
X12912920Y-16773436D01*
X12912920Y-16773436D02*
X12903396Y-16782960D01*
X12903396Y-16782960D02*
X12884348Y-16792484D01*
X12884348Y-16792484D02*
X12865301Y-16792484D01*
X12865301Y-16792484D02*
X12846253Y-16782960D01*
X12846253Y-16782960D02*
X12836729Y-16773436D01*
X12836729Y-16773436D02*
X12827206Y-16754388D01*
X12827206Y-16754388D02*
X12817682Y-16716293D01*
X12817682Y-16716293D02*
X12817682Y-16668674D01*
X12817682Y-16668674D02*
X12827206Y-16630579D01*
X12827206Y-16630579D02*
X12836729Y-16611531D01*
X12836729Y-16611531D02*
X12846253Y-16602008D01*
X12846253Y-16602008D02*
X12865301Y-16592484D01*
X13055777Y-16592484D02*
X13074825Y-16592484D01*
X13074825Y-16592484D02*
X13093872Y-16602008D01*
X13093872Y-16602008D02*
X13103396Y-16611531D01*
X13103396Y-16611531D02*
X13112920Y-16630579D01*
X13112920Y-16630579D02*
X13122444Y-16668674D01*
X13122444Y-16668674D02*
X13122444Y-16716293D01*
X13122444Y-16716293D02*
X13112920Y-16754388D01*
X13112920Y-16754388D02*
X13103396Y-16773436D01*
X13103396Y-16773436D02*
X13093872Y-16782960D01*
X13093872Y-16782960D02*
X13074825Y-16792484D01*
X13074825Y-16792484D02*
X13055777Y-16792484D01*
X13055777Y-16792484D02*
X13036729Y-16782960D01*
X13036729Y-16782960D02*
X13027206Y-16773436D01*
X13027206Y-16773436D02*
X13017682Y-16754388D01*
X13017682Y-16754388D02*
X13008158Y-16716293D01*
X13008158Y-16716293D02*
X13008158Y-16668674D01*
X13008158Y-16668674D02*
X13017682Y-16630579D01*
X13017682Y-16630579D02*
X13027206Y-16611531D01*
X13027206Y-16611531D02*
X13036729Y-16602008D01*
X13036729Y-16602008D02*
X13055777Y-16592484D01*
X13198634Y-16592484D02*
X13198634Y-16630579D01*
X13274825Y-16592484D02*
X13274825Y-16630579D01*
X13570063Y-16868674D02*
X13560539Y-16859150D01*
X13560539Y-16859150D02*
X13541491Y-16830579D01*
X13541491Y-16830579D02*
X13531968Y-16811531D01*
X13531968Y-16811531D02*
X13522444Y-16782960D01*
X13522444Y-16782960D02*
X13512920Y-16735341D01*
X13512920Y-16735341D02*
X13512920Y-16697246D01*
X13512920Y-16697246D02*
X13522444Y-16649627D01*
X13522444Y-16649627D02*
X13531968Y-16621055D01*
X13531968Y-16621055D02*
X13541491Y-16602008D01*
X13541491Y-16602008D02*
X13560539Y-16573436D01*
X13560539Y-16573436D02*
X13570063Y-16563912D01*
X13627206Y-16592484D02*
X13751015Y-16592484D01*
X13751015Y-16592484D02*
X13684348Y-16668674D01*
X13684348Y-16668674D02*
X13712920Y-16668674D01*
X13712920Y-16668674D02*
X13731968Y-16678198D01*
X13731968Y-16678198D02*
X13741491Y-16687722D01*
X13741491Y-16687722D02*
X13751015Y-16706769D01*
X13751015Y-16706769D02*
X13751015Y-16754388D01*
X13751015Y-16754388D02*
X13741491Y-16773436D01*
X13741491Y-16773436D02*
X13731968Y-16782960D01*
X13731968Y-16782960D02*
X13712920Y-16792484D01*
X13712920Y-16792484D02*
X13655777Y-16792484D01*
X13655777Y-16792484D02*
X13636729Y-16782960D01*
X13636729Y-16782960D02*
X13627206Y-16773436D01*
X13989110Y-16792484D02*
X13989110Y-16592484D01*
X14074825Y-16792484D02*
X14074825Y-16687722D01*
X14074825Y-16687722D02*
X14065301Y-16668674D01*
X14065301Y-16668674D02*
X14046253Y-16659150D01*
X14046253Y-16659150D02*
X14017682Y-16659150D01*
X14017682Y-16659150D02*
X13998634Y-16668674D01*
X13998634Y-16668674D02*
X13989110Y-16678198D01*
X14198634Y-16792484D02*
X14179587Y-16782960D01*
X14179587Y-16782960D02*
X14170063Y-16773436D01*
X14170063Y-16773436D02*
X14160539Y-16754388D01*
X14160539Y-16754388D02*
X14160539Y-16697246D01*
X14160539Y-16697246D02*
X14170063Y-16678198D01*
X14170063Y-16678198D02*
X14179587Y-16668674D01*
X14179587Y-16668674D02*
X14198634Y-16659150D01*
X14198634Y-16659150D02*
X14227206Y-16659150D01*
X14227206Y-16659150D02*
X14246253Y-16668674D01*
X14246253Y-16668674D02*
X14255777Y-16678198D01*
X14255777Y-16678198D02*
X14265301Y-16697246D01*
X14265301Y-16697246D02*
X14265301Y-16754388D01*
X14265301Y-16754388D02*
X14255777Y-16773436D01*
X14255777Y-16773436D02*
X14246253Y-16782960D01*
X14246253Y-16782960D02*
X14227206Y-16792484D01*
X14227206Y-16792484D02*
X14198634Y-16792484D01*
X14379587Y-16792484D02*
X14360539Y-16782960D01*
X14360539Y-16782960D02*
X14351015Y-16763912D01*
X14351015Y-16763912D02*
X14351015Y-16592484D01*
X14531968Y-16782960D02*
X14512920Y-16792484D01*
X14512920Y-16792484D02*
X14474825Y-16792484D01*
X14474825Y-16792484D02*
X14455777Y-16782960D01*
X14455777Y-16782960D02*
X14446253Y-16763912D01*
X14446253Y-16763912D02*
X14446253Y-16687722D01*
X14446253Y-16687722D02*
X14455777Y-16668674D01*
X14455777Y-16668674D02*
X14474825Y-16659150D01*
X14474825Y-16659150D02*
X14512920Y-16659150D01*
X14512920Y-16659150D02*
X14531968Y-16668674D01*
X14531968Y-16668674D02*
X14541491Y-16687722D01*
X14541491Y-16687722D02*
X14541491Y-16706769D01*
X14541491Y-16706769D02*
X14446253Y-16725817D01*
X14617682Y-16782960D02*
X14636730Y-16792484D01*
X14636730Y-16792484D02*
X14674825Y-16792484D01*
X14674825Y-16792484D02*
X14693872Y-16782960D01*
X14693872Y-16782960D02*
X14703396Y-16763912D01*
X14703396Y-16763912D02*
X14703396Y-16754388D01*
X14703396Y-16754388D02*
X14693872Y-16735341D01*
X14693872Y-16735341D02*
X14674825Y-16725817D01*
X14674825Y-16725817D02*
X14646253Y-16725817D01*
X14646253Y-16725817D02*
X14627206Y-16716293D01*
X14627206Y-16716293D02*
X14617682Y-16697246D01*
X14617682Y-16697246D02*
X14617682Y-16687722D01*
X14617682Y-16687722D02*
X14627206Y-16668674D01*
X14627206Y-16668674D02*
X14646253Y-16659150D01*
X14646253Y-16659150D02*
X14674825Y-16659150D01*
X14674825Y-16659150D02*
X14693872Y-16668674D01*
X14770063Y-16868674D02*
X14779587Y-16859150D01*
X14779587Y-16859150D02*
X14798634Y-16830579D01*
X14798634Y-16830579D02*
X14808158Y-16811531D01*
X14808158Y-16811531D02*
X14817682Y-16782960D01*
X14817682Y-16782960D02*
X14827206Y-16735341D01*
X14827206Y-16735341D02*
X14827206Y-16697246D01*
X14827206Y-16697246D02*
X14817682Y-16649627D01*
X14817682Y-16649627D02*
X14808158Y-16621055D01*
X14808158Y-16621055D02*
X14798634Y-16602008D01*
X14798634Y-16602008D02*
X14779587Y-16573436D01*
X14779587Y-16573436D02*
X14770063Y-16563912D01*
X9795000Y-16865000D02*
X9995000Y-17065000D01*
X9995000Y-16865000D02*
X9795000Y-17065000D01*
X9995000Y-16965000D02*
G75*
G03*
X9995000Y-16965000I-100000J0D01*
G01*
X10236729Y-16856484D02*
X10360539Y-16856484D01*
X10360539Y-16856484D02*
X10293872Y-16932674D01*
X10293872Y-16932674D02*
X10322444Y-16932674D01*
X10322444Y-16932674D02*
X10341491Y-16942198D01*
X10341491Y-16942198D02*
X10351015Y-16951722D01*
X10351015Y-16951722D02*
X10360539Y-16970770D01*
X10360539Y-16970770D02*
X10360539Y-17018389D01*
X10360539Y-17018389D02*
X10351015Y-17037436D01*
X10351015Y-17037436D02*
X10341491Y-17046960D01*
X10341491Y-17046960D02*
X10322444Y-17056484D01*
X10322444Y-17056484D02*
X10265301Y-17056484D01*
X10265301Y-17056484D02*
X10246253Y-17046960D01*
X10246253Y-17046960D02*
X10236729Y-17037436D01*
X10446253Y-17037436D02*
X10455777Y-17046960D01*
X10455777Y-17046960D02*
X10446253Y-17056484D01*
X10446253Y-17056484D02*
X10436729Y-17046960D01*
X10436729Y-17046960D02*
X10446253Y-17037436D01*
X10446253Y-17037436D02*
X10446253Y-17056484D01*
X10522444Y-16856484D02*
X10655777Y-16856484D01*
X10655777Y-16856484D02*
X10570063Y-17056484D01*
X10770063Y-16856484D02*
X10789110Y-16856484D01*
X10789110Y-16856484D02*
X10808158Y-16866008D01*
X10808158Y-16866008D02*
X10817682Y-16875531D01*
X10817682Y-16875531D02*
X10827205Y-16894579D01*
X10827205Y-16894579D02*
X10836729Y-16932674D01*
X10836729Y-16932674D02*
X10836729Y-16980293D01*
X10836729Y-16980293D02*
X10827205Y-17018389D01*
X10827205Y-17018389D02*
X10817682Y-17037436D01*
X10817682Y-17037436D02*
X10808158Y-17046960D01*
X10808158Y-17046960D02*
X10789110Y-17056484D01*
X10789110Y-17056484D02*
X10770063Y-17056484D01*
X10770063Y-17056484D02*
X10751015Y-17046960D01*
X10751015Y-17046960D02*
X10741491Y-17037436D01*
X10741491Y-17037436D02*
X10731967Y-17018389D01*
X10731967Y-17018389D02*
X10722444Y-16980293D01*
X10722444Y-16980293D02*
X10722444Y-16932674D01*
X10722444Y-16932674D02*
X10731967Y-16894579D01*
X10731967Y-16894579D02*
X10741491Y-16875531D01*
X10741491Y-16875531D02*
X10751015Y-16866008D01*
X10751015Y-16866008D02*
X10770063Y-16856484D01*
X10960539Y-16856484D02*
X10979586Y-16856484D01*
X10979586Y-16856484D02*
X10998634Y-16866008D01*
X10998634Y-16866008D02*
X11008158Y-16875531D01*
X11008158Y-16875531D02*
X11017682Y-16894579D01*
X11017682Y-16894579D02*
X11027205Y-16932674D01*
X11027205Y-16932674D02*
X11027205Y-16980293D01*
X11027205Y-16980293D02*
X11017682Y-17018389D01*
X11017682Y-17018389D02*
X11008158Y-17037436D01*
X11008158Y-17037436D02*
X10998634Y-17046960D01*
X10998634Y-17046960D02*
X10979586Y-17056484D01*
X10979586Y-17056484D02*
X10960539Y-17056484D01*
X10960539Y-17056484D02*
X10941491Y-17046960D01*
X10941491Y-17046960D02*
X10931967Y-17037436D01*
X10931967Y-17037436D02*
X10922444Y-17018389D01*
X10922444Y-17018389D02*
X10912920Y-16980293D01*
X10912920Y-16980293D02*
X10912920Y-16932674D01*
X10912920Y-16932674D02*
X10922444Y-16894579D01*
X10922444Y-16894579D02*
X10931967Y-16875531D01*
X10931967Y-16875531D02*
X10941491Y-16866008D01*
X10941491Y-16866008D02*
X10960539Y-16856484D01*
X11112920Y-17056484D02*
X11112920Y-16923150D01*
X11112920Y-16942198D02*
X11122444Y-16932674D01*
X11122444Y-16932674D02*
X11141491Y-16923150D01*
X11141491Y-16923150D02*
X11170063Y-16923150D01*
X11170063Y-16923150D02*
X11189110Y-16932674D01*
X11189110Y-16932674D02*
X11198634Y-16951722D01*
X11198634Y-16951722D02*
X11198634Y-17056484D01*
X11198634Y-16951722D02*
X11208158Y-16932674D01*
X11208158Y-16932674D02*
X11227205Y-16923150D01*
X11227205Y-16923150D02*
X11255777Y-16923150D01*
X11255777Y-16923150D02*
X11274824Y-16932674D01*
X11274824Y-16932674D02*
X11284348Y-16951722D01*
X11284348Y-16951722D02*
X11284348Y-17056484D01*
X11379586Y-17056484D02*
X11379586Y-16923150D01*
X11379586Y-16942198D02*
X11389110Y-16932674D01*
X11389110Y-16932674D02*
X11408158Y-16923150D01*
X11408158Y-16923150D02*
X11436729Y-16923150D01*
X11436729Y-16923150D02*
X11455777Y-16932674D01*
X11455777Y-16932674D02*
X11465301Y-16951722D01*
X11465301Y-16951722D02*
X11465301Y-17056484D01*
X11465301Y-16951722D02*
X11474824Y-16932674D01*
X11474824Y-16932674D02*
X11493872Y-16923150D01*
X11493872Y-16923150D02*
X11522443Y-16923150D01*
X11522443Y-16923150D02*
X11541491Y-16932674D01*
X11541491Y-16932674D02*
X11551015Y-16951722D01*
X11551015Y-16951722D02*
X11551015Y-17056484D01*
X11941491Y-16846960D02*
X11770063Y-17104103D01*
X12198634Y-16856484D02*
X12217682Y-16856484D01*
X12217682Y-16856484D02*
X12236729Y-16866008D01*
X12236729Y-16866008D02*
X12246253Y-16875531D01*
X12246253Y-16875531D02*
X12255777Y-16894579D01*
X12255777Y-16894579D02*
X12265301Y-16932674D01*
X12265301Y-16932674D02*
X12265301Y-16980293D01*
X12265301Y-16980293D02*
X12255777Y-17018389D01*
X12255777Y-17018389D02*
X12246253Y-17037436D01*
X12246253Y-17037436D02*
X12236729Y-17046960D01*
X12236729Y-17046960D02*
X12217682Y-17056484D01*
X12217682Y-17056484D02*
X12198634Y-17056484D01*
X12198634Y-17056484D02*
X12179586Y-17046960D01*
X12179586Y-17046960D02*
X12170063Y-17037436D01*
X12170063Y-17037436D02*
X12160539Y-17018389D01*
X12160539Y-17018389D02*
X12151015Y-16980293D01*
X12151015Y-16980293D02*
X12151015Y-16932674D01*
X12151015Y-16932674D02*
X12160539Y-16894579D01*
X12160539Y-16894579D02*
X12170063Y-16875531D01*
X12170063Y-16875531D02*
X12179586Y-16866008D01*
X12179586Y-16866008D02*
X12198634Y-16856484D01*
X12351015Y-17037436D02*
X12360539Y-17046960D01*
X12360539Y-17046960D02*
X12351015Y-17056484D01*
X12351015Y-17056484D02*
X12341491Y-17046960D01*
X12341491Y-17046960D02*
X12351015Y-17037436D01*
X12351015Y-17037436D02*
X12351015Y-17056484D01*
X12551015Y-17056484D02*
X12436729Y-17056484D01*
X12493872Y-17056484D02*
X12493872Y-16856484D01*
X12493872Y-16856484D02*
X12474825Y-16885055D01*
X12474825Y-16885055D02*
X12455777Y-16904103D01*
X12455777Y-16904103D02*
X12436729Y-16913627D01*
X12722444Y-16923150D02*
X12722444Y-17056484D01*
X12674825Y-16846960D02*
X12627206Y-16989817D01*
X12627206Y-16989817D02*
X12751015Y-16989817D01*
X12922444Y-16856484D02*
X12827206Y-16856484D01*
X12827206Y-16856484D02*
X12817682Y-16951722D01*
X12817682Y-16951722D02*
X12827206Y-16942198D01*
X12827206Y-16942198D02*
X12846253Y-16932674D01*
X12846253Y-16932674D02*
X12893872Y-16932674D01*
X12893872Y-16932674D02*
X12912920Y-16942198D01*
X12912920Y-16942198D02*
X12922444Y-16951722D01*
X12922444Y-16951722D02*
X12931967Y-16970770D01*
X12931967Y-16970770D02*
X12931967Y-17018389D01*
X12931967Y-17018389D02*
X12922444Y-17037436D01*
X12922444Y-17037436D02*
X12912920Y-17046960D01*
X12912920Y-17046960D02*
X12893872Y-17056484D01*
X12893872Y-17056484D02*
X12846253Y-17056484D01*
X12846253Y-17056484D02*
X12827206Y-17046960D01*
X12827206Y-17046960D02*
X12817682Y-17037436D01*
X12998634Y-16856484D02*
X13131967Y-16856484D01*
X13131967Y-16856484D02*
X13046253Y-17056484D01*
X13198634Y-16856484D02*
X13198634Y-16894579D01*
X13274825Y-16856484D02*
X13274825Y-16894579D01*
X13570063Y-17132674D02*
X13560539Y-17123150D01*
X13560539Y-17123150D02*
X13541491Y-17094579D01*
X13541491Y-17094579D02*
X13531968Y-17075531D01*
X13531968Y-17075531D02*
X13522444Y-17046960D01*
X13522444Y-17046960D02*
X13512920Y-16999341D01*
X13512920Y-16999341D02*
X13512920Y-16961246D01*
X13512920Y-16961246D02*
X13522444Y-16913627D01*
X13522444Y-16913627D02*
X13531968Y-16885055D01*
X13531968Y-16885055D02*
X13541491Y-16866008D01*
X13541491Y-16866008D02*
X13560539Y-16837436D01*
X13560539Y-16837436D02*
X13570063Y-16827912D01*
X13627206Y-16856484D02*
X13760539Y-16856484D01*
X13760539Y-16856484D02*
X13674825Y-17056484D01*
X13989110Y-17056484D02*
X13989110Y-16856484D01*
X14074825Y-17056484D02*
X14074825Y-16951722D01*
X14074825Y-16951722D02*
X14065301Y-16932674D01*
X14065301Y-16932674D02*
X14046253Y-16923150D01*
X14046253Y-16923150D02*
X14017682Y-16923150D01*
X14017682Y-16923150D02*
X13998634Y-16932674D01*
X13998634Y-16932674D02*
X13989110Y-16942198D01*
X14198634Y-17056484D02*
X14179587Y-17046960D01*
X14179587Y-17046960D02*
X14170063Y-17037436D01*
X14170063Y-17037436D02*
X14160539Y-17018389D01*
X14160539Y-17018389D02*
X14160539Y-16961246D01*
X14160539Y-16961246D02*
X14170063Y-16942198D01*
X14170063Y-16942198D02*
X14179587Y-16932674D01*
X14179587Y-16932674D02*
X14198634Y-16923150D01*
X14198634Y-16923150D02*
X14227206Y-16923150D01*
X14227206Y-16923150D02*
X14246253Y-16932674D01*
X14246253Y-16932674D02*
X14255777Y-16942198D01*
X14255777Y-16942198D02*
X14265301Y-16961246D01*
X14265301Y-16961246D02*
X14265301Y-17018389D01*
X14265301Y-17018389D02*
X14255777Y-17037436D01*
X14255777Y-17037436D02*
X14246253Y-17046960D01*
X14246253Y-17046960D02*
X14227206Y-17056484D01*
X14227206Y-17056484D02*
X14198634Y-17056484D01*
X14379587Y-17056484D02*
X14360539Y-17046960D01*
X14360539Y-17046960D02*
X14351015Y-17027912D01*
X14351015Y-17027912D02*
X14351015Y-16856484D01*
X14531968Y-17046960D02*
X14512920Y-17056484D01*
X14512920Y-17056484D02*
X14474825Y-17056484D01*
X14474825Y-17056484D02*
X14455777Y-17046960D01*
X14455777Y-17046960D02*
X14446253Y-17027912D01*
X14446253Y-17027912D02*
X14446253Y-16951722D01*
X14446253Y-16951722D02*
X14455777Y-16932674D01*
X14455777Y-16932674D02*
X14474825Y-16923150D01*
X14474825Y-16923150D02*
X14512920Y-16923150D01*
X14512920Y-16923150D02*
X14531968Y-16932674D01*
X14531968Y-16932674D02*
X14541491Y-16951722D01*
X14541491Y-16951722D02*
X14541491Y-16970770D01*
X14541491Y-16970770D02*
X14446253Y-16989817D01*
X14617682Y-17046960D02*
X14636730Y-17056484D01*
X14636730Y-17056484D02*
X14674825Y-17056484D01*
X14674825Y-17056484D02*
X14693872Y-17046960D01*
X14693872Y-17046960D02*
X14703396Y-17027912D01*
X14703396Y-17027912D02*
X14703396Y-17018389D01*
X14703396Y-17018389D02*
X14693872Y-16999341D01*
X14693872Y-16999341D02*
X14674825Y-16989817D01*
X14674825Y-16989817D02*
X14646253Y-16989817D01*
X14646253Y-16989817D02*
X14627206Y-16980293D01*
X14627206Y-16980293D02*
X14617682Y-16961246D01*
X14617682Y-16961246D02*
X14617682Y-16951722D01*
X14617682Y-16951722D02*
X14627206Y-16932674D01*
X14627206Y-16932674D02*
X14646253Y-16923150D01*
X14646253Y-16923150D02*
X14674825Y-16923150D01*
X14674825Y-16923150D02*
X14693872Y-16932674D01*
X14770063Y-17132674D02*
X14779587Y-17123150D01*
X14779587Y-17123150D02*
X14798634Y-17094579D01*
X14798634Y-17094579D02*
X14808158Y-17075531D01*
X14808158Y-17075531D02*
X14817682Y-17046960D01*
X14817682Y-17046960D02*
X14827206Y-16999341D01*
X14827206Y-16999341D02*
X14827206Y-16961246D01*
X14827206Y-16961246D02*
X14817682Y-16913627D01*
X14817682Y-16913627D02*
X14808158Y-16885055D01*
X14808158Y-16885055D02*
X14798634Y-16866008D01*
X14798634Y-16866008D02*
X14779587Y-16837436D01*
X14779587Y-16837436D02*
X14770063Y-16827912D01*
M02*
