%TF.GenerationSoftware,KiCad,Pcbnew,7.0.6*%
%TF.CreationDate,2023-08-09T14:49:31+09:30*%
%TF.ProjectId,backplane,6261636b-706c-4616-9e65-2e6b69636164,V1.0*%
%TF.SameCoordinates,Original*%
%TF.FileFunction,Drillmap*%
%TF.FilePolarity,Positive*%
%FSLAX45Y45*%
G04 Gerber Fmt 4.5, Leading zero omitted, Abs format (unit mm)*
G04 Created by KiCad (PCBNEW 7.0.6) date 2023-08-09 14:49:31*
%MOMM*%
%LPD*%
G01*
G04 APERTURE LIST*
%ADD10C,0.100000*%
%ADD11C,0.200000*%
%ADD12C,0.110000*%
%ADD13C,0.160000*%
G04 APERTURE END LIST*
D10*
X10000000Y-14900000D02*
X10000000Y-5100000D01*
X14500000Y-15000000D02*
G75*
G03*
X14600000Y-14900000I0J100000D01*
G01*
X14600000Y-5100000D02*
G75*
G03*
X14500000Y-5000000I-100000J0D01*
G01*
X14500000Y-15000000D02*
X10100000Y-15000000D01*
X10000000Y-14900000D02*
G75*
G03*
X10100000Y-15000000I100000J0D01*
G01*
X12775000Y-5050000D02*
X12775000Y-5200000D01*
X14500000Y-5000000D02*
X14050000Y-5000000D01*
X14000000Y-5200000D02*
X14000000Y-5050000D01*
X10100000Y-5000000D02*
X12725000Y-5000000D01*
X12775000Y-5200000D02*
G75*
G03*
X12825000Y-5250000I50000J0D01*
G01*
X12825000Y-5250000D02*
X13950000Y-5250000D01*
X10100000Y-5000000D02*
G75*
G03*
X10000000Y-5100000I0J-100000D01*
G01*
X14050000Y-5000000D02*
G75*
G03*
X14000000Y-5050000I0J-50000D01*
G01*
X13950000Y-5250000D02*
G75*
G03*
X14000000Y-5200000I0J50000D01*
G01*
X12775000Y-5050000D02*
G75*
G03*
X12725000Y-5000000I-50000J0D01*
G01*
X14600000Y-5100000D02*
X14600000Y-14900000D01*
D11*
D12*
X11045000Y-14445000D02*
X11155000Y-14555000D01*
X11155000Y-14445000D02*
X11045000Y-14555000D01*
X13245000Y-11195000D02*
X13355000Y-11305000D01*
X13355000Y-11195000D02*
X13245000Y-11305000D01*
D13*
X11180000Y-12500000D02*
G75*
G03*
X11180000Y-12500000I-80000J0D01*
G01*
X11380000Y-11250000D02*
G75*
G03*
X11380000Y-11250000I-80000J0D01*
G01*
D11*
X10255777Y-15316484D02*
X10255777Y-15116484D01*
X10255777Y-15116484D02*
X10303396Y-15116484D01*
X10303396Y-15116484D02*
X10331967Y-15126008D01*
X10331967Y-15126008D02*
X10351015Y-15145055D01*
X10351015Y-15145055D02*
X10360539Y-15164103D01*
X10360539Y-15164103D02*
X10370063Y-15202198D01*
X10370063Y-15202198D02*
X10370063Y-15230769D01*
X10370063Y-15230769D02*
X10360539Y-15268865D01*
X10360539Y-15268865D02*
X10351015Y-15287912D01*
X10351015Y-15287912D02*
X10331967Y-15306960D01*
X10331967Y-15306960D02*
X10303396Y-15316484D01*
X10303396Y-15316484D02*
X10255777Y-15316484D01*
X10455777Y-15316484D02*
X10455777Y-15183150D01*
X10455777Y-15221246D02*
X10465301Y-15202198D01*
X10465301Y-15202198D02*
X10474824Y-15192674D01*
X10474824Y-15192674D02*
X10493872Y-15183150D01*
X10493872Y-15183150D02*
X10512920Y-15183150D01*
X10579586Y-15316484D02*
X10579586Y-15183150D01*
X10579586Y-15116484D02*
X10570063Y-15126008D01*
X10570063Y-15126008D02*
X10579586Y-15135531D01*
X10579586Y-15135531D02*
X10589110Y-15126008D01*
X10589110Y-15126008D02*
X10579586Y-15116484D01*
X10579586Y-15116484D02*
X10579586Y-15135531D01*
X10703396Y-15316484D02*
X10684348Y-15306960D01*
X10684348Y-15306960D02*
X10674824Y-15287912D01*
X10674824Y-15287912D02*
X10674824Y-15116484D01*
X10808158Y-15316484D02*
X10789110Y-15306960D01*
X10789110Y-15306960D02*
X10779586Y-15287912D01*
X10779586Y-15287912D02*
X10779586Y-15116484D01*
X11036729Y-15316484D02*
X11036729Y-15116484D01*
X11036729Y-15116484D02*
X11103396Y-15259341D01*
X11103396Y-15259341D02*
X11170063Y-15116484D01*
X11170063Y-15116484D02*
X11170063Y-15316484D01*
X11351015Y-15316484D02*
X11351015Y-15211722D01*
X11351015Y-15211722D02*
X11341491Y-15192674D01*
X11341491Y-15192674D02*
X11322443Y-15183150D01*
X11322443Y-15183150D02*
X11284348Y-15183150D01*
X11284348Y-15183150D02*
X11265301Y-15192674D01*
X11351015Y-15306960D02*
X11331967Y-15316484D01*
X11331967Y-15316484D02*
X11284348Y-15316484D01*
X11284348Y-15316484D02*
X11265301Y-15306960D01*
X11265301Y-15306960D02*
X11255777Y-15287912D01*
X11255777Y-15287912D02*
X11255777Y-15268865D01*
X11255777Y-15268865D02*
X11265301Y-15249817D01*
X11265301Y-15249817D02*
X11284348Y-15240293D01*
X11284348Y-15240293D02*
X11331967Y-15240293D01*
X11331967Y-15240293D02*
X11351015Y-15230769D01*
X11446253Y-15183150D02*
X11446253Y-15383150D01*
X11446253Y-15192674D02*
X11465301Y-15183150D01*
X11465301Y-15183150D02*
X11503396Y-15183150D01*
X11503396Y-15183150D02*
X11522443Y-15192674D01*
X11522443Y-15192674D02*
X11531967Y-15202198D01*
X11531967Y-15202198D02*
X11541491Y-15221246D01*
X11541491Y-15221246D02*
X11541491Y-15278388D01*
X11541491Y-15278388D02*
X11531967Y-15297436D01*
X11531967Y-15297436D02*
X11522443Y-15306960D01*
X11522443Y-15306960D02*
X11503396Y-15316484D01*
X11503396Y-15316484D02*
X11465301Y-15316484D01*
X11465301Y-15316484D02*
X11446253Y-15306960D01*
X11627205Y-15297436D02*
X11636729Y-15306960D01*
X11636729Y-15306960D02*
X11627205Y-15316484D01*
X11627205Y-15316484D02*
X11617682Y-15306960D01*
X11617682Y-15306960D02*
X11627205Y-15297436D01*
X11627205Y-15297436D02*
X11627205Y-15316484D01*
X11627205Y-15192674D02*
X11636729Y-15202198D01*
X11636729Y-15202198D02*
X11627205Y-15211722D01*
X11627205Y-15211722D02*
X11617682Y-15202198D01*
X11617682Y-15202198D02*
X11627205Y-15192674D01*
X11627205Y-15192674D02*
X11627205Y-15211722D01*
D12*
X9885000Y-15590000D02*
X9995000Y-15700000D01*
X9995000Y-15590000D02*
X9885000Y-15700000D01*
D11*
X10360539Y-15736484D02*
X10246253Y-15736484D01*
X10303396Y-15736484D02*
X10303396Y-15536484D01*
X10303396Y-15536484D02*
X10284348Y-15565055D01*
X10284348Y-15565055D02*
X10265301Y-15584103D01*
X10265301Y-15584103D02*
X10246253Y-15593627D01*
X10446253Y-15717436D02*
X10455777Y-15726960D01*
X10455777Y-15726960D02*
X10446253Y-15736484D01*
X10446253Y-15736484D02*
X10436729Y-15726960D01*
X10436729Y-15726960D02*
X10446253Y-15717436D01*
X10446253Y-15717436D02*
X10446253Y-15736484D01*
X10646253Y-15736484D02*
X10531967Y-15736484D01*
X10589110Y-15736484D02*
X10589110Y-15536484D01*
X10589110Y-15536484D02*
X10570063Y-15565055D01*
X10570063Y-15565055D02*
X10551015Y-15584103D01*
X10551015Y-15584103D02*
X10531967Y-15593627D01*
X10770063Y-15536484D02*
X10789110Y-15536484D01*
X10789110Y-15536484D02*
X10808158Y-15546008D01*
X10808158Y-15546008D02*
X10817682Y-15555531D01*
X10817682Y-15555531D02*
X10827205Y-15574579D01*
X10827205Y-15574579D02*
X10836729Y-15612674D01*
X10836729Y-15612674D02*
X10836729Y-15660293D01*
X10836729Y-15660293D02*
X10827205Y-15698388D01*
X10827205Y-15698388D02*
X10817682Y-15717436D01*
X10817682Y-15717436D02*
X10808158Y-15726960D01*
X10808158Y-15726960D02*
X10789110Y-15736484D01*
X10789110Y-15736484D02*
X10770063Y-15736484D01*
X10770063Y-15736484D02*
X10751015Y-15726960D01*
X10751015Y-15726960D02*
X10741491Y-15717436D01*
X10741491Y-15717436D02*
X10731967Y-15698388D01*
X10731967Y-15698388D02*
X10722444Y-15660293D01*
X10722444Y-15660293D02*
X10722444Y-15612674D01*
X10722444Y-15612674D02*
X10731967Y-15574579D01*
X10731967Y-15574579D02*
X10741491Y-15555531D01*
X10741491Y-15555531D02*
X10751015Y-15546008D01*
X10751015Y-15546008D02*
X10770063Y-15536484D01*
X10960539Y-15536484D02*
X10979586Y-15536484D01*
X10979586Y-15536484D02*
X10998634Y-15546008D01*
X10998634Y-15546008D02*
X11008158Y-15555531D01*
X11008158Y-15555531D02*
X11017682Y-15574579D01*
X11017682Y-15574579D02*
X11027205Y-15612674D01*
X11027205Y-15612674D02*
X11027205Y-15660293D01*
X11027205Y-15660293D02*
X11017682Y-15698388D01*
X11017682Y-15698388D02*
X11008158Y-15717436D01*
X11008158Y-15717436D02*
X10998634Y-15726960D01*
X10998634Y-15726960D02*
X10979586Y-15736484D01*
X10979586Y-15736484D02*
X10960539Y-15736484D01*
X10960539Y-15736484D02*
X10941491Y-15726960D01*
X10941491Y-15726960D02*
X10931967Y-15717436D01*
X10931967Y-15717436D02*
X10922444Y-15698388D01*
X10922444Y-15698388D02*
X10912920Y-15660293D01*
X10912920Y-15660293D02*
X10912920Y-15612674D01*
X10912920Y-15612674D02*
X10922444Y-15574579D01*
X10922444Y-15574579D02*
X10931967Y-15555531D01*
X10931967Y-15555531D02*
X10941491Y-15546008D01*
X10941491Y-15546008D02*
X10960539Y-15536484D01*
X11112920Y-15736484D02*
X11112920Y-15603150D01*
X11112920Y-15622198D02*
X11122444Y-15612674D01*
X11122444Y-15612674D02*
X11141491Y-15603150D01*
X11141491Y-15603150D02*
X11170063Y-15603150D01*
X11170063Y-15603150D02*
X11189110Y-15612674D01*
X11189110Y-15612674D02*
X11198634Y-15631722D01*
X11198634Y-15631722D02*
X11198634Y-15736484D01*
X11198634Y-15631722D02*
X11208158Y-15612674D01*
X11208158Y-15612674D02*
X11227205Y-15603150D01*
X11227205Y-15603150D02*
X11255777Y-15603150D01*
X11255777Y-15603150D02*
X11274824Y-15612674D01*
X11274824Y-15612674D02*
X11284348Y-15631722D01*
X11284348Y-15631722D02*
X11284348Y-15736484D01*
X11379586Y-15736484D02*
X11379586Y-15603150D01*
X11379586Y-15622198D02*
X11389110Y-15612674D01*
X11389110Y-15612674D02*
X11408158Y-15603150D01*
X11408158Y-15603150D02*
X11436729Y-15603150D01*
X11436729Y-15603150D02*
X11455777Y-15612674D01*
X11455777Y-15612674D02*
X11465301Y-15631722D01*
X11465301Y-15631722D02*
X11465301Y-15736484D01*
X11465301Y-15631722D02*
X11474824Y-15612674D01*
X11474824Y-15612674D02*
X11493872Y-15603150D01*
X11493872Y-15603150D02*
X11522443Y-15603150D01*
X11522443Y-15603150D02*
X11541491Y-15612674D01*
X11541491Y-15612674D02*
X11551015Y-15631722D01*
X11551015Y-15631722D02*
X11551015Y-15736484D01*
X11941491Y-15526960D02*
X11770063Y-15784103D01*
X12198634Y-15536484D02*
X12217682Y-15536484D01*
X12217682Y-15536484D02*
X12236729Y-15546008D01*
X12236729Y-15546008D02*
X12246253Y-15555531D01*
X12246253Y-15555531D02*
X12255777Y-15574579D01*
X12255777Y-15574579D02*
X12265301Y-15612674D01*
X12265301Y-15612674D02*
X12265301Y-15660293D01*
X12265301Y-15660293D02*
X12255777Y-15698388D01*
X12255777Y-15698388D02*
X12246253Y-15717436D01*
X12246253Y-15717436D02*
X12236729Y-15726960D01*
X12236729Y-15726960D02*
X12217682Y-15736484D01*
X12217682Y-15736484D02*
X12198634Y-15736484D01*
X12198634Y-15736484D02*
X12179586Y-15726960D01*
X12179586Y-15726960D02*
X12170063Y-15717436D01*
X12170063Y-15717436D02*
X12160539Y-15698388D01*
X12160539Y-15698388D02*
X12151015Y-15660293D01*
X12151015Y-15660293D02*
X12151015Y-15612674D01*
X12151015Y-15612674D02*
X12160539Y-15574579D01*
X12160539Y-15574579D02*
X12170063Y-15555531D01*
X12170063Y-15555531D02*
X12179586Y-15546008D01*
X12179586Y-15546008D02*
X12198634Y-15536484D01*
X12351015Y-15717436D02*
X12360539Y-15726960D01*
X12360539Y-15726960D02*
X12351015Y-15736484D01*
X12351015Y-15736484D02*
X12341491Y-15726960D01*
X12341491Y-15726960D02*
X12351015Y-15717436D01*
X12351015Y-15717436D02*
X12351015Y-15736484D01*
X12484348Y-15536484D02*
X12503396Y-15536484D01*
X12503396Y-15536484D02*
X12522444Y-15546008D01*
X12522444Y-15546008D02*
X12531967Y-15555531D01*
X12531967Y-15555531D02*
X12541491Y-15574579D01*
X12541491Y-15574579D02*
X12551015Y-15612674D01*
X12551015Y-15612674D02*
X12551015Y-15660293D01*
X12551015Y-15660293D02*
X12541491Y-15698388D01*
X12541491Y-15698388D02*
X12531967Y-15717436D01*
X12531967Y-15717436D02*
X12522444Y-15726960D01*
X12522444Y-15726960D02*
X12503396Y-15736484D01*
X12503396Y-15736484D02*
X12484348Y-15736484D01*
X12484348Y-15736484D02*
X12465301Y-15726960D01*
X12465301Y-15726960D02*
X12455777Y-15717436D01*
X12455777Y-15717436D02*
X12446253Y-15698388D01*
X12446253Y-15698388D02*
X12436729Y-15660293D01*
X12436729Y-15660293D02*
X12436729Y-15612674D01*
X12436729Y-15612674D02*
X12446253Y-15574579D01*
X12446253Y-15574579D02*
X12455777Y-15555531D01*
X12455777Y-15555531D02*
X12465301Y-15546008D01*
X12465301Y-15546008D02*
X12484348Y-15536484D01*
X12722444Y-15603150D02*
X12722444Y-15736484D01*
X12674825Y-15526960D02*
X12627206Y-15669817D01*
X12627206Y-15669817D02*
X12751015Y-15669817D01*
X12808158Y-15536484D02*
X12931967Y-15536484D01*
X12931967Y-15536484D02*
X12865301Y-15612674D01*
X12865301Y-15612674D02*
X12893872Y-15612674D01*
X12893872Y-15612674D02*
X12912920Y-15622198D01*
X12912920Y-15622198D02*
X12922444Y-15631722D01*
X12922444Y-15631722D02*
X12931967Y-15650769D01*
X12931967Y-15650769D02*
X12931967Y-15698388D01*
X12931967Y-15698388D02*
X12922444Y-15717436D01*
X12922444Y-15717436D02*
X12912920Y-15726960D01*
X12912920Y-15726960D02*
X12893872Y-15736484D01*
X12893872Y-15736484D02*
X12836729Y-15736484D01*
X12836729Y-15736484D02*
X12817682Y-15726960D01*
X12817682Y-15726960D02*
X12808158Y-15717436D01*
X12998634Y-15536484D02*
X13122444Y-15536484D01*
X13122444Y-15536484D02*
X13055777Y-15612674D01*
X13055777Y-15612674D02*
X13084348Y-15612674D01*
X13084348Y-15612674D02*
X13103396Y-15622198D01*
X13103396Y-15622198D02*
X13112920Y-15631722D01*
X13112920Y-15631722D02*
X13122444Y-15650769D01*
X13122444Y-15650769D02*
X13122444Y-15698388D01*
X13122444Y-15698388D02*
X13112920Y-15717436D01*
X13112920Y-15717436D02*
X13103396Y-15726960D01*
X13103396Y-15726960D02*
X13084348Y-15736484D01*
X13084348Y-15736484D02*
X13027206Y-15736484D01*
X13027206Y-15736484D02*
X13008158Y-15726960D01*
X13008158Y-15726960D02*
X12998634Y-15717436D01*
X13198634Y-15536484D02*
X13198634Y-15574579D01*
X13274825Y-15536484D02*
X13274825Y-15574579D01*
X13570063Y-15812674D02*
X13560539Y-15803150D01*
X13560539Y-15803150D02*
X13541491Y-15774579D01*
X13541491Y-15774579D02*
X13531968Y-15755531D01*
X13531968Y-15755531D02*
X13522444Y-15726960D01*
X13522444Y-15726960D02*
X13512920Y-15679341D01*
X13512920Y-15679341D02*
X13512920Y-15641246D01*
X13512920Y-15641246D02*
X13522444Y-15593627D01*
X13522444Y-15593627D02*
X13531968Y-15565055D01*
X13531968Y-15565055D02*
X13541491Y-15546008D01*
X13541491Y-15546008D02*
X13560539Y-15517436D01*
X13560539Y-15517436D02*
X13570063Y-15507912D01*
X13636729Y-15555531D02*
X13646253Y-15546008D01*
X13646253Y-15546008D02*
X13665301Y-15536484D01*
X13665301Y-15536484D02*
X13712920Y-15536484D01*
X13712920Y-15536484D02*
X13731968Y-15546008D01*
X13731968Y-15546008D02*
X13741491Y-15555531D01*
X13741491Y-15555531D02*
X13751015Y-15574579D01*
X13751015Y-15574579D02*
X13751015Y-15593627D01*
X13751015Y-15593627D02*
X13741491Y-15622198D01*
X13741491Y-15622198D02*
X13627206Y-15736484D01*
X13627206Y-15736484D02*
X13751015Y-15736484D01*
X13989110Y-15736484D02*
X13989110Y-15536484D01*
X14074825Y-15736484D02*
X14074825Y-15631722D01*
X14074825Y-15631722D02*
X14065301Y-15612674D01*
X14065301Y-15612674D02*
X14046253Y-15603150D01*
X14046253Y-15603150D02*
X14017682Y-15603150D01*
X14017682Y-15603150D02*
X13998634Y-15612674D01*
X13998634Y-15612674D02*
X13989110Y-15622198D01*
X14198634Y-15736484D02*
X14179587Y-15726960D01*
X14179587Y-15726960D02*
X14170063Y-15717436D01*
X14170063Y-15717436D02*
X14160539Y-15698388D01*
X14160539Y-15698388D02*
X14160539Y-15641246D01*
X14160539Y-15641246D02*
X14170063Y-15622198D01*
X14170063Y-15622198D02*
X14179587Y-15612674D01*
X14179587Y-15612674D02*
X14198634Y-15603150D01*
X14198634Y-15603150D02*
X14227206Y-15603150D01*
X14227206Y-15603150D02*
X14246253Y-15612674D01*
X14246253Y-15612674D02*
X14255777Y-15622198D01*
X14255777Y-15622198D02*
X14265301Y-15641246D01*
X14265301Y-15641246D02*
X14265301Y-15698388D01*
X14265301Y-15698388D02*
X14255777Y-15717436D01*
X14255777Y-15717436D02*
X14246253Y-15726960D01*
X14246253Y-15726960D02*
X14227206Y-15736484D01*
X14227206Y-15736484D02*
X14198634Y-15736484D01*
X14379587Y-15736484D02*
X14360539Y-15726960D01*
X14360539Y-15726960D02*
X14351015Y-15707912D01*
X14351015Y-15707912D02*
X14351015Y-15536484D01*
X14531968Y-15726960D02*
X14512920Y-15736484D01*
X14512920Y-15736484D02*
X14474825Y-15736484D01*
X14474825Y-15736484D02*
X14455777Y-15726960D01*
X14455777Y-15726960D02*
X14446253Y-15707912D01*
X14446253Y-15707912D02*
X14446253Y-15631722D01*
X14446253Y-15631722D02*
X14455777Y-15612674D01*
X14455777Y-15612674D02*
X14474825Y-15603150D01*
X14474825Y-15603150D02*
X14512920Y-15603150D01*
X14512920Y-15603150D02*
X14531968Y-15612674D01*
X14531968Y-15612674D02*
X14541491Y-15631722D01*
X14541491Y-15631722D02*
X14541491Y-15650769D01*
X14541491Y-15650769D02*
X14446253Y-15669817D01*
X14617682Y-15726960D02*
X14636730Y-15736484D01*
X14636730Y-15736484D02*
X14674825Y-15736484D01*
X14674825Y-15736484D02*
X14693872Y-15726960D01*
X14693872Y-15726960D02*
X14703396Y-15707912D01*
X14703396Y-15707912D02*
X14703396Y-15698388D01*
X14703396Y-15698388D02*
X14693872Y-15679341D01*
X14693872Y-15679341D02*
X14674825Y-15669817D01*
X14674825Y-15669817D02*
X14646253Y-15669817D01*
X14646253Y-15669817D02*
X14627206Y-15660293D01*
X14627206Y-15660293D02*
X14617682Y-15641246D01*
X14617682Y-15641246D02*
X14617682Y-15631722D01*
X14617682Y-15631722D02*
X14627206Y-15612674D01*
X14627206Y-15612674D02*
X14646253Y-15603150D01*
X14646253Y-15603150D02*
X14674825Y-15603150D01*
X14674825Y-15603150D02*
X14693872Y-15612674D01*
X14770063Y-15812674D02*
X14779587Y-15803150D01*
X14779587Y-15803150D02*
X14798634Y-15774579D01*
X14798634Y-15774579D02*
X14808158Y-15755531D01*
X14808158Y-15755531D02*
X14817682Y-15726960D01*
X14817682Y-15726960D02*
X14827206Y-15679341D01*
X14827206Y-15679341D02*
X14827206Y-15641246D01*
X14827206Y-15641246D02*
X14817682Y-15593627D01*
X14817682Y-15593627D02*
X14808158Y-15565055D01*
X14808158Y-15565055D02*
X14798634Y-15546008D01*
X14798634Y-15546008D02*
X14779587Y-15517436D01*
X14779587Y-15517436D02*
X14770063Y-15507912D01*
X15131968Y-15812674D02*
X15122444Y-15803150D01*
X15122444Y-15803150D02*
X15103396Y-15774579D01*
X15103396Y-15774579D02*
X15093872Y-15755531D01*
X15093872Y-15755531D02*
X15084349Y-15726960D01*
X15084349Y-15726960D02*
X15074825Y-15679341D01*
X15074825Y-15679341D02*
X15074825Y-15641246D01*
X15074825Y-15641246D02*
X15084349Y-15593627D01*
X15084349Y-15593627D02*
X15093872Y-15565055D01*
X15093872Y-15565055D02*
X15103396Y-15546008D01*
X15103396Y-15546008D02*
X15122444Y-15517436D01*
X15122444Y-15517436D02*
X15131968Y-15507912D01*
X15208158Y-15603150D02*
X15208158Y-15736484D01*
X15208158Y-15622198D02*
X15217682Y-15612674D01*
X15217682Y-15612674D02*
X15236730Y-15603150D01*
X15236730Y-15603150D02*
X15265301Y-15603150D01*
X15265301Y-15603150D02*
X15284349Y-15612674D01*
X15284349Y-15612674D02*
X15293872Y-15631722D01*
X15293872Y-15631722D02*
X15293872Y-15736484D01*
X15417682Y-15736484D02*
X15398634Y-15726960D01*
X15398634Y-15726960D02*
X15389111Y-15717436D01*
X15389111Y-15717436D02*
X15379587Y-15698388D01*
X15379587Y-15698388D02*
X15379587Y-15641246D01*
X15379587Y-15641246D02*
X15389111Y-15622198D01*
X15389111Y-15622198D02*
X15398634Y-15612674D01*
X15398634Y-15612674D02*
X15417682Y-15603150D01*
X15417682Y-15603150D02*
X15446253Y-15603150D01*
X15446253Y-15603150D02*
X15465301Y-15612674D01*
X15465301Y-15612674D02*
X15474825Y-15622198D01*
X15474825Y-15622198D02*
X15484349Y-15641246D01*
X15484349Y-15641246D02*
X15484349Y-15698388D01*
X15484349Y-15698388D02*
X15474825Y-15717436D01*
X15474825Y-15717436D02*
X15465301Y-15726960D01*
X15465301Y-15726960D02*
X15446253Y-15736484D01*
X15446253Y-15736484D02*
X15417682Y-15736484D01*
X15541492Y-15603150D02*
X15617682Y-15603150D01*
X15570063Y-15536484D02*
X15570063Y-15707912D01*
X15570063Y-15707912D02*
X15579587Y-15726960D01*
X15579587Y-15726960D02*
X15598634Y-15736484D01*
X15598634Y-15736484D02*
X15617682Y-15736484D01*
X15836730Y-15603150D02*
X15836730Y-15803150D01*
X15836730Y-15612674D02*
X15855777Y-15603150D01*
X15855777Y-15603150D02*
X15893873Y-15603150D01*
X15893873Y-15603150D02*
X15912920Y-15612674D01*
X15912920Y-15612674D02*
X15922444Y-15622198D01*
X15922444Y-15622198D02*
X15931968Y-15641246D01*
X15931968Y-15641246D02*
X15931968Y-15698388D01*
X15931968Y-15698388D02*
X15922444Y-15717436D01*
X15922444Y-15717436D02*
X15912920Y-15726960D01*
X15912920Y-15726960D02*
X15893873Y-15736484D01*
X15893873Y-15736484D02*
X15855777Y-15736484D01*
X15855777Y-15736484D02*
X15836730Y-15726960D01*
X16046253Y-15736484D02*
X16027206Y-15726960D01*
X16027206Y-15726960D02*
X16017682Y-15707912D01*
X16017682Y-15707912D02*
X16017682Y-15536484D01*
X16208158Y-15736484D02*
X16208158Y-15631722D01*
X16208158Y-15631722D02*
X16198634Y-15612674D01*
X16198634Y-15612674D02*
X16179587Y-15603150D01*
X16179587Y-15603150D02*
X16141492Y-15603150D01*
X16141492Y-15603150D02*
X16122444Y-15612674D01*
X16208158Y-15726960D02*
X16189111Y-15736484D01*
X16189111Y-15736484D02*
X16141492Y-15736484D01*
X16141492Y-15736484D02*
X16122444Y-15726960D01*
X16122444Y-15726960D02*
X16112920Y-15707912D01*
X16112920Y-15707912D02*
X16112920Y-15688865D01*
X16112920Y-15688865D02*
X16122444Y-15669817D01*
X16122444Y-15669817D02*
X16141492Y-15660293D01*
X16141492Y-15660293D02*
X16189111Y-15660293D01*
X16189111Y-15660293D02*
X16208158Y-15650769D01*
X16274825Y-15603150D02*
X16351015Y-15603150D01*
X16303396Y-15536484D02*
X16303396Y-15707912D01*
X16303396Y-15707912D02*
X16312920Y-15726960D01*
X16312920Y-15726960D02*
X16331968Y-15736484D01*
X16331968Y-15736484D02*
X16351015Y-15736484D01*
X16493873Y-15726960D02*
X16474825Y-15736484D01*
X16474825Y-15736484D02*
X16436730Y-15736484D01*
X16436730Y-15736484D02*
X16417682Y-15726960D01*
X16417682Y-15726960D02*
X16408158Y-15707912D01*
X16408158Y-15707912D02*
X16408158Y-15631722D01*
X16408158Y-15631722D02*
X16417682Y-15612674D01*
X16417682Y-15612674D02*
X16436730Y-15603150D01*
X16436730Y-15603150D02*
X16474825Y-15603150D01*
X16474825Y-15603150D02*
X16493873Y-15612674D01*
X16493873Y-15612674D02*
X16503396Y-15631722D01*
X16503396Y-15631722D02*
X16503396Y-15650769D01*
X16503396Y-15650769D02*
X16408158Y-15669817D01*
X16674825Y-15736484D02*
X16674825Y-15536484D01*
X16674825Y-15726960D02*
X16655777Y-15736484D01*
X16655777Y-15736484D02*
X16617682Y-15736484D01*
X16617682Y-15736484D02*
X16598634Y-15726960D01*
X16598634Y-15726960D02*
X16589111Y-15717436D01*
X16589111Y-15717436D02*
X16579587Y-15698388D01*
X16579587Y-15698388D02*
X16579587Y-15641246D01*
X16579587Y-15641246D02*
X16589111Y-15622198D01*
X16589111Y-15622198D02*
X16598634Y-15612674D01*
X16598634Y-15612674D02*
X16617682Y-15603150D01*
X16617682Y-15603150D02*
X16655777Y-15603150D01*
X16655777Y-15603150D02*
X16674825Y-15612674D01*
X16751015Y-15812674D02*
X16760539Y-15803150D01*
X16760539Y-15803150D02*
X16779587Y-15774579D01*
X16779587Y-15774579D02*
X16789111Y-15755531D01*
X16789111Y-15755531D02*
X16798635Y-15726960D01*
X16798635Y-15726960D02*
X16808158Y-15679341D01*
X16808158Y-15679341D02*
X16808158Y-15641246D01*
X16808158Y-15641246D02*
X16798635Y-15593627D01*
X16798635Y-15593627D02*
X16789111Y-15565055D01*
X16789111Y-15565055D02*
X16779587Y-15546008D01*
X16779587Y-15546008D02*
X16760539Y-15517436D01*
X16760539Y-15517436D02*
X16751015Y-15507912D01*
D13*
X9995000Y-15909000D02*
G75*
G03*
X9995000Y-15909000I-80000J0D01*
G01*
D11*
X10360539Y-16000484D02*
X10246253Y-16000484D01*
X10303396Y-16000484D02*
X10303396Y-15800484D01*
X10303396Y-15800484D02*
X10284348Y-15829055D01*
X10284348Y-15829055D02*
X10265301Y-15848103D01*
X10265301Y-15848103D02*
X10246253Y-15857627D01*
X10446253Y-15981436D02*
X10455777Y-15990960D01*
X10455777Y-15990960D02*
X10446253Y-16000484D01*
X10446253Y-16000484D02*
X10436729Y-15990960D01*
X10436729Y-15990960D02*
X10446253Y-15981436D01*
X10446253Y-15981436D02*
X10446253Y-16000484D01*
X10627205Y-15800484D02*
X10589110Y-15800484D01*
X10589110Y-15800484D02*
X10570063Y-15810008D01*
X10570063Y-15810008D02*
X10560539Y-15819531D01*
X10560539Y-15819531D02*
X10541491Y-15848103D01*
X10541491Y-15848103D02*
X10531967Y-15886198D01*
X10531967Y-15886198D02*
X10531967Y-15962388D01*
X10531967Y-15962388D02*
X10541491Y-15981436D01*
X10541491Y-15981436D02*
X10551015Y-15990960D01*
X10551015Y-15990960D02*
X10570063Y-16000484D01*
X10570063Y-16000484D02*
X10608158Y-16000484D01*
X10608158Y-16000484D02*
X10627205Y-15990960D01*
X10627205Y-15990960D02*
X10636729Y-15981436D01*
X10636729Y-15981436D02*
X10646253Y-15962388D01*
X10646253Y-15962388D02*
X10646253Y-15914769D01*
X10646253Y-15914769D02*
X10636729Y-15895722D01*
X10636729Y-15895722D02*
X10627205Y-15886198D01*
X10627205Y-15886198D02*
X10608158Y-15876674D01*
X10608158Y-15876674D02*
X10570063Y-15876674D01*
X10570063Y-15876674D02*
X10551015Y-15886198D01*
X10551015Y-15886198D02*
X10541491Y-15895722D01*
X10541491Y-15895722D02*
X10531967Y-15914769D01*
X10770063Y-15800484D02*
X10789110Y-15800484D01*
X10789110Y-15800484D02*
X10808158Y-15810008D01*
X10808158Y-15810008D02*
X10817682Y-15819531D01*
X10817682Y-15819531D02*
X10827205Y-15838579D01*
X10827205Y-15838579D02*
X10836729Y-15876674D01*
X10836729Y-15876674D02*
X10836729Y-15924293D01*
X10836729Y-15924293D02*
X10827205Y-15962388D01*
X10827205Y-15962388D02*
X10817682Y-15981436D01*
X10817682Y-15981436D02*
X10808158Y-15990960D01*
X10808158Y-15990960D02*
X10789110Y-16000484D01*
X10789110Y-16000484D02*
X10770063Y-16000484D01*
X10770063Y-16000484D02*
X10751015Y-15990960D01*
X10751015Y-15990960D02*
X10741491Y-15981436D01*
X10741491Y-15981436D02*
X10731967Y-15962388D01*
X10731967Y-15962388D02*
X10722444Y-15924293D01*
X10722444Y-15924293D02*
X10722444Y-15876674D01*
X10722444Y-15876674D02*
X10731967Y-15838579D01*
X10731967Y-15838579D02*
X10741491Y-15819531D01*
X10741491Y-15819531D02*
X10751015Y-15810008D01*
X10751015Y-15810008D02*
X10770063Y-15800484D01*
X10960539Y-15800484D02*
X10979586Y-15800484D01*
X10979586Y-15800484D02*
X10998634Y-15810008D01*
X10998634Y-15810008D02*
X11008158Y-15819531D01*
X11008158Y-15819531D02*
X11017682Y-15838579D01*
X11017682Y-15838579D02*
X11027205Y-15876674D01*
X11027205Y-15876674D02*
X11027205Y-15924293D01*
X11027205Y-15924293D02*
X11017682Y-15962388D01*
X11017682Y-15962388D02*
X11008158Y-15981436D01*
X11008158Y-15981436D02*
X10998634Y-15990960D01*
X10998634Y-15990960D02*
X10979586Y-16000484D01*
X10979586Y-16000484D02*
X10960539Y-16000484D01*
X10960539Y-16000484D02*
X10941491Y-15990960D01*
X10941491Y-15990960D02*
X10931967Y-15981436D01*
X10931967Y-15981436D02*
X10922444Y-15962388D01*
X10922444Y-15962388D02*
X10912920Y-15924293D01*
X10912920Y-15924293D02*
X10912920Y-15876674D01*
X10912920Y-15876674D02*
X10922444Y-15838579D01*
X10922444Y-15838579D02*
X10931967Y-15819531D01*
X10931967Y-15819531D02*
X10941491Y-15810008D01*
X10941491Y-15810008D02*
X10960539Y-15800484D01*
X11112920Y-16000484D02*
X11112920Y-15867150D01*
X11112920Y-15886198D02*
X11122444Y-15876674D01*
X11122444Y-15876674D02*
X11141491Y-15867150D01*
X11141491Y-15867150D02*
X11170063Y-15867150D01*
X11170063Y-15867150D02*
X11189110Y-15876674D01*
X11189110Y-15876674D02*
X11198634Y-15895722D01*
X11198634Y-15895722D02*
X11198634Y-16000484D01*
X11198634Y-15895722D02*
X11208158Y-15876674D01*
X11208158Y-15876674D02*
X11227205Y-15867150D01*
X11227205Y-15867150D02*
X11255777Y-15867150D01*
X11255777Y-15867150D02*
X11274824Y-15876674D01*
X11274824Y-15876674D02*
X11284348Y-15895722D01*
X11284348Y-15895722D02*
X11284348Y-16000484D01*
X11379586Y-16000484D02*
X11379586Y-15867150D01*
X11379586Y-15886198D02*
X11389110Y-15876674D01*
X11389110Y-15876674D02*
X11408158Y-15867150D01*
X11408158Y-15867150D02*
X11436729Y-15867150D01*
X11436729Y-15867150D02*
X11455777Y-15876674D01*
X11455777Y-15876674D02*
X11465301Y-15895722D01*
X11465301Y-15895722D02*
X11465301Y-16000484D01*
X11465301Y-15895722D02*
X11474824Y-15876674D01*
X11474824Y-15876674D02*
X11493872Y-15867150D01*
X11493872Y-15867150D02*
X11522443Y-15867150D01*
X11522443Y-15867150D02*
X11541491Y-15876674D01*
X11541491Y-15876674D02*
X11551015Y-15895722D01*
X11551015Y-15895722D02*
X11551015Y-16000484D01*
X11941491Y-15790960D02*
X11770063Y-16048103D01*
X12198634Y-15800484D02*
X12217682Y-15800484D01*
X12217682Y-15800484D02*
X12236729Y-15810008D01*
X12236729Y-15810008D02*
X12246253Y-15819531D01*
X12246253Y-15819531D02*
X12255777Y-15838579D01*
X12255777Y-15838579D02*
X12265301Y-15876674D01*
X12265301Y-15876674D02*
X12265301Y-15924293D01*
X12265301Y-15924293D02*
X12255777Y-15962388D01*
X12255777Y-15962388D02*
X12246253Y-15981436D01*
X12246253Y-15981436D02*
X12236729Y-15990960D01*
X12236729Y-15990960D02*
X12217682Y-16000484D01*
X12217682Y-16000484D02*
X12198634Y-16000484D01*
X12198634Y-16000484D02*
X12179586Y-15990960D01*
X12179586Y-15990960D02*
X12170063Y-15981436D01*
X12170063Y-15981436D02*
X12160539Y-15962388D01*
X12160539Y-15962388D02*
X12151015Y-15924293D01*
X12151015Y-15924293D02*
X12151015Y-15876674D01*
X12151015Y-15876674D02*
X12160539Y-15838579D01*
X12160539Y-15838579D02*
X12170063Y-15819531D01*
X12170063Y-15819531D02*
X12179586Y-15810008D01*
X12179586Y-15810008D02*
X12198634Y-15800484D01*
X12351015Y-15981436D02*
X12360539Y-15990960D01*
X12360539Y-15990960D02*
X12351015Y-16000484D01*
X12351015Y-16000484D02*
X12341491Y-15990960D01*
X12341491Y-15990960D02*
X12351015Y-15981436D01*
X12351015Y-15981436D02*
X12351015Y-16000484D01*
X12484348Y-15800484D02*
X12503396Y-15800484D01*
X12503396Y-15800484D02*
X12522444Y-15810008D01*
X12522444Y-15810008D02*
X12531967Y-15819531D01*
X12531967Y-15819531D02*
X12541491Y-15838579D01*
X12541491Y-15838579D02*
X12551015Y-15876674D01*
X12551015Y-15876674D02*
X12551015Y-15924293D01*
X12551015Y-15924293D02*
X12541491Y-15962388D01*
X12541491Y-15962388D02*
X12531967Y-15981436D01*
X12531967Y-15981436D02*
X12522444Y-15990960D01*
X12522444Y-15990960D02*
X12503396Y-16000484D01*
X12503396Y-16000484D02*
X12484348Y-16000484D01*
X12484348Y-16000484D02*
X12465301Y-15990960D01*
X12465301Y-15990960D02*
X12455777Y-15981436D01*
X12455777Y-15981436D02*
X12446253Y-15962388D01*
X12446253Y-15962388D02*
X12436729Y-15924293D01*
X12436729Y-15924293D02*
X12436729Y-15876674D01*
X12436729Y-15876674D02*
X12446253Y-15838579D01*
X12446253Y-15838579D02*
X12455777Y-15819531D01*
X12455777Y-15819531D02*
X12465301Y-15810008D01*
X12465301Y-15810008D02*
X12484348Y-15800484D01*
X12722444Y-15800484D02*
X12684348Y-15800484D01*
X12684348Y-15800484D02*
X12665301Y-15810008D01*
X12665301Y-15810008D02*
X12655777Y-15819531D01*
X12655777Y-15819531D02*
X12636729Y-15848103D01*
X12636729Y-15848103D02*
X12627206Y-15886198D01*
X12627206Y-15886198D02*
X12627206Y-15962388D01*
X12627206Y-15962388D02*
X12636729Y-15981436D01*
X12636729Y-15981436D02*
X12646253Y-15990960D01*
X12646253Y-15990960D02*
X12665301Y-16000484D01*
X12665301Y-16000484D02*
X12703396Y-16000484D01*
X12703396Y-16000484D02*
X12722444Y-15990960D01*
X12722444Y-15990960D02*
X12731967Y-15981436D01*
X12731967Y-15981436D02*
X12741491Y-15962388D01*
X12741491Y-15962388D02*
X12741491Y-15914769D01*
X12741491Y-15914769D02*
X12731967Y-15895722D01*
X12731967Y-15895722D02*
X12722444Y-15886198D01*
X12722444Y-15886198D02*
X12703396Y-15876674D01*
X12703396Y-15876674D02*
X12665301Y-15876674D01*
X12665301Y-15876674D02*
X12646253Y-15886198D01*
X12646253Y-15886198D02*
X12636729Y-15895722D01*
X12636729Y-15895722D02*
X12627206Y-15914769D01*
X12808158Y-15800484D02*
X12931967Y-15800484D01*
X12931967Y-15800484D02*
X12865301Y-15876674D01*
X12865301Y-15876674D02*
X12893872Y-15876674D01*
X12893872Y-15876674D02*
X12912920Y-15886198D01*
X12912920Y-15886198D02*
X12922444Y-15895722D01*
X12922444Y-15895722D02*
X12931967Y-15914769D01*
X12931967Y-15914769D02*
X12931967Y-15962388D01*
X12931967Y-15962388D02*
X12922444Y-15981436D01*
X12922444Y-15981436D02*
X12912920Y-15990960D01*
X12912920Y-15990960D02*
X12893872Y-16000484D01*
X12893872Y-16000484D02*
X12836729Y-16000484D01*
X12836729Y-16000484D02*
X12817682Y-15990960D01*
X12817682Y-15990960D02*
X12808158Y-15981436D01*
X13055777Y-15800484D02*
X13074825Y-15800484D01*
X13074825Y-15800484D02*
X13093872Y-15810008D01*
X13093872Y-15810008D02*
X13103396Y-15819531D01*
X13103396Y-15819531D02*
X13112920Y-15838579D01*
X13112920Y-15838579D02*
X13122444Y-15876674D01*
X13122444Y-15876674D02*
X13122444Y-15924293D01*
X13122444Y-15924293D02*
X13112920Y-15962388D01*
X13112920Y-15962388D02*
X13103396Y-15981436D01*
X13103396Y-15981436D02*
X13093872Y-15990960D01*
X13093872Y-15990960D02*
X13074825Y-16000484D01*
X13074825Y-16000484D02*
X13055777Y-16000484D01*
X13055777Y-16000484D02*
X13036729Y-15990960D01*
X13036729Y-15990960D02*
X13027206Y-15981436D01*
X13027206Y-15981436D02*
X13017682Y-15962388D01*
X13017682Y-15962388D02*
X13008158Y-15924293D01*
X13008158Y-15924293D02*
X13008158Y-15876674D01*
X13008158Y-15876674D02*
X13017682Y-15838579D01*
X13017682Y-15838579D02*
X13027206Y-15819531D01*
X13027206Y-15819531D02*
X13036729Y-15810008D01*
X13036729Y-15810008D02*
X13055777Y-15800484D01*
X13198634Y-15800484D02*
X13198634Y-15838579D01*
X13274825Y-15800484D02*
X13274825Y-15838579D01*
X13570063Y-16076674D02*
X13560539Y-16067150D01*
X13560539Y-16067150D02*
X13541491Y-16038579D01*
X13541491Y-16038579D02*
X13531968Y-16019531D01*
X13531968Y-16019531D02*
X13522444Y-15990960D01*
X13522444Y-15990960D02*
X13512920Y-15943341D01*
X13512920Y-15943341D02*
X13512920Y-15905246D01*
X13512920Y-15905246D02*
X13522444Y-15857627D01*
X13522444Y-15857627D02*
X13531968Y-15829055D01*
X13531968Y-15829055D02*
X13541491Y-15810008D01*
X13541491Y-15810008D02*
X13560539Y-15781436D01*
X13560539Y-15781436D02*
X13570063Y-15771912D01*
X13636729Y-15819531D02*
X13646253Y-15810008D01*
X13646253Y-15810008D02*
X13665301Y-15800484D01*
X13665301Y-15800484D02*
X13712920Y-15800484D01*
X13712920Y-15800484D02*
X13731968Y-15810008D01*
X13731968Y-15810008D02*
X13741491Y-15819531D01*
X13741491Y-15819531D02*
X13751015Y-15838579D01*
X13751015Y-15838579D02*
X13751015Y-15857627D01*
X13751015Y-15857627D02*
X13741491Y-15886198D01*
X13741491Y-15886198D02*
X13627206Y-16000484D01*
X13627206Y-16000484D02*
X13751015Y-16000484D01*
X13989110Y-16000484D02*
X13989110Y-15800484D01*
X14074825Y-16000484D02*
X14074825Y-15895722D01*
X14074825Y-15895722D02*
X14065301Y-15876674D01*
X14065301Y-15876674D02*
X14046253Y-15867150D01*
X14046253Y-15867150D02*
X14017682Y-15867150D01*
X14017682Y-15867150D02*
X13998634Y-15876674D01*
X13998634Y-15876674D02*
X13989110Y-15886198D01*
X14198634Y-16000484D02*
X14179587Y-15990960D01*
X14179587Y-15990960D02*
X14170063Y-15981436D01*
X14170063Y-15981436D02*
X14160539Y-15962388D01*
X14160539Y-15962388D02*
X14160539Y-15905246D01*
X14160539Y-15905246D02*
X14170063Y-15886198D01*
X14170063Y-15886198D02*
X14179587Y-15876674D01*
X14179587Y-15876674D02*
X14198634Y-15867150D01*
X14198634Y-15867150D02*
X14227206Y-15867150D01*
X14227206Y-15867150D02*
X14246253Y-15876674D01*
X14246253Y-15876674D02*
X14255777Y-15886198D01*
X14255777Y-15886198D02*
X14265301Y-15905246D01*
X14265301Y-15905246D02*
X14265301Y-15962388D01*
X14265301Y-15962388D02*
X14255777Y-15981436D01*
X14255777Y-15981436D02*
X14246253Y-15990960D01*
X14246253Y-15990960D02*
X14227206Y-16000484D01*
X14227206Y-16000484D02*
X14198634Y-16000484D01*
X14379587Y-16000484D02*
X14360539Y-15990960D01*
X14360539Y-15990960D02*
X14351015Y-15971912D01*
X14351015Y-15971912D02*
X14351015Y-15800484D01*
X14531968Y-15990960D02*
X14512920Y-16000484D01*
X14512920Y-16000484D02*
X14474825Y-16000484D01*
X14474825Y-16000484D02*
X14455777Y-15990960D01*
X14455777Y-15990960D02*
X14446253Y-15971912D01*
X14446253Y-15971912D02*
X14446253Y-15895722D01*
X14446253Y-15895722D02*
X14455777Y-15876674D01*
X14455777Y-15876674D02*
X14474825Y-15867150D01*
X14474825Y-15867150D02*
X14512920Y-15867150D01*
X14512920Y-15867150D02*
X14531968Y-15876674D01*
X14531968Y-15876674D02*
X14541491Y-15895722D01*
X14541491Y-15895722D02*
X14541491Y-15914769D01*
X14541491Y-15914769D02*
X14446253Y-15933817D01*
X14617682Y-15990960D02*
X14636730Y-16000484D01*
X14636730Y-16000484D02*
X14674825Y-16000484D01*
X14674825Y-16000484D02*
X14693872Y-15990960D01*
X14693872Y-15990960D02*
X14703396Y-15971912D01*
X14703396Y-15971912D02*
X14703396Y-15962388D01*
X14703396Y-15962388D02*
X14693872Y-15943341D01*
X14693872Y-15943341D02*
X14674825Y-15933817D01*
X14674825Y-15933817D02*
X14646253Y-15933817D01*
X14646253Y-15933817D02*
X14627206Y-15924293D01*
X14627206Y-15924293D02*
X14617682Y-15905246D01*
X14617682Y-15905246D02*
X14617682Y-15895722D01*
X14617682Y-15895722D02*
X14627206Y-15876674D01*
X14627206Y-15876674D02*
X14646253Y-15867150D01*
X14646253Y-15867150D02*
X14674825Y-15867150D01*
X14674825Y-15867150D02*
X14693872Y-15876674D01*
X14770063Y-16076674D02*
X14779587Y-16067150D01*
X14779587Y-16067150D02*
X14798634Y-16038579D01*
X14798634Y-16038579D02*
X14808158Y-16019531D01*
X14808158Y-16019531D02*
X14817682Y-15990960D01*
X14817682Y-15990960D02*
X14827206Y-15943341D01*
X14827206Y-15943341D02*
X14827206Y-15905246D01*
X14827206Y-15905246D02*
X14817682Y-15857627D01*
X14817682Y-15857627D02*
X14808158Y-15829055D01*
X14808158Y-15829055D02*
X14798634Y-15810008D01*
X14798634Y-15810008D02*
X14779587Y-15781436D01*
X14779587Y-15781436D02*
X14770063Y-15771912D01*
X15131968Y-16076674D02*
X15122444Y-16067150D01*
X15122444Y-16067150D02*
X15103396Y-16038579D01*
X15103396Y-16038579D02*
X15093872Y-16019531D01*
X15093872Y-16019531D02*
X15084349Y-15990960D01*
X15084349Y-15990960D02*
X15074825Y-15943341D01*
X15074825Y-15943341D02*
X15074825Y-15905246D01*
X15074825Y-15905246D02*
X15084349Y-15857627D01*
X15084349Y-15857627D02*
X15093872Y-15829055D01*
X15093872Y-15829055D02*
X15103396Y-15810008D01*
X15103396Y-15810008D02*
X15122444Y-15781436D01*
X15122444Y-15781436D02*
X15131968Y-15771912D01*
X15208158Y-15867150D02*
X15208158Y-16000484D01*
X15208158Y-15886198D02*
X15217682Y-15876674D01*
X15217682Y-15876674D02*
X15236730Y-15867150D01*
X15236730Y-15867150D02*
X15265301Y-15867150D01*
X15265301Y-15867150D02*
X15284349Y-15876674D01*
X15284349Y-15876674D02*
X15293872Y-15895722D01*
X15293872Y-15895722D02*
X15293872Y-16000484D01*
X15417682Y-16000484D02*
X15398634Y-15990960D01*
X15398634Y-15990960D02*
X15389111Y-15981436D01*
X15389111Y-15981436D02*
X15379587Y-15962388D01*
X15379587Y-15962388D02*
X15379587Y-15905246D01*
X15379587Y-15905246D02*
X15389111Y-15886198D01*
X15389111Y-15886198D02*
X15398634Y-15876674D01*
X15398634Y-15876674D02*
X15417682Y-15867150D01*
X15417682Y-15867150D02*
X15446253Y-15867150D01*
X15446253Y-15867150D02*
X15465301Y-15876674D01*
X15465301Y-15876674D02*
X15474825Y-15886198D01*
X15474825Y-15886198D02*
X15484349Y-15905246D01*
X15484349Y-15905246D02*
X15484349Y-15962388D01*
X15484349Y-15962388D02*
X15474825Y-15981436D01*
X15474825Y-15981436D02*
X15465301Y-15990960D01*
X15465301Y-15990960D02*
X15446253Y-16000484D01*
X15446253Y-16000484D02*
X15417682Y-16000484D01*
X15541492Y-15867150D02*
X15617682Y-15867150D01*
X15570063Y-15800484D02*
X15570063Y-15971912D01*
X15570063Y-15971912D02*
X15579587Y-15990960D01*
X15579587Y-15990960D02*
X15598634Y-16000484D01*
X15598634Y-16000484D02*
X15617682Y-16000484D01*
X15836730Y-15867150D02*
X15836730Y-16067150D01*
X15836730Y-15876674D02*
X15855777Y-15867150D01*
X15855777Y-15867150D02*
X15893873Y-15867150D01*
X15893873Y-15867150D02*
X15912920Y-15876674D01*
X15912920Y-15876674D02*
X15922444Y-15886198D01*
X15922444Y-15886198D02*
X15931968Y-15905246D01*
X15931968Y-15905246D02*
X15931968Y-15962388D01*
X15931968Y-15962388D02*
X15922444Y-15981436D01*
X15922444Y-15981436D02*
X15912920Y-15990960D01*
X15912920Y-15990960D02*
X15893873Y-16000484D01*
X15893873Y-16000484D02*
X15855777Y-16000484D01*
X15855777Y-16000484D02*
X15836730Y-15990960D01*
X16046253Y-16000484D02*
X16027206Y-15990960D01*
X16027206Y-15990960D02*
X16017682Y-15971912D01*
X16017682Y-15971912D02*
X16017682Y-15800484D01*
X16208158Y-16000484D02*
X16208158Y-15895722D01*
X16208158Y-15895722D02*
X16198634Y-15876674D01*
X16198634Y-15876674D02*
X16179587Y-15867150D01*
X16179587Y-15867150D02*
X16141492Y-15867150D01*
X16141492Y-15867150D02*
X16122444Y-15876674D01*
X16208158Y-15990960D02*
X16189111Y-16000484D01*
X16189111Y-16000484D02*
X16141492Y-16000484D01*
X16141492Y-16000484D02*
X16122444Y-15990960D01*
X16122444Y-15990960D02*
X16112920Y-15971912D01*
X16112920Y-15971912D02*
X16112920Y-15952865D01*
X16112920Y-15952865D02*
X16122444Y-15933817D01*
X16122444Y-15933817D02*
X16141492Y-15924293D01*
X16141492Y-15924293D02*
X16189111Y-15924293D01*
X16189111Y-15924293D02*
X16208158Y-15914769D01*
X16274825Y-15867150D02*
X16351015Y-15867150D01*
X16303396Y-15800484D02*
X16303396Y-15971912D01*
X16303396Y-15971912D02*
X16312920Y-15990960D01*
X16312920Y-15990960D02*
X16331968Y-16000484D01*
X16331968Y-16000484D02*
X16351015Y-16000484D01*
X16493873Y-15990960D02*
X16474825Y-16000484D01*
X16474825Y-16000484D02*
X16436730Y-16000484D01*
X16436730Y-16000484D02*
X16417682Y-15990960D01*
X16417682Y-15990960D02*
X16408158Y-15971912D01*
X16408158Y-15971912D02*
X16408158Y-15895722D01*
X16408158Y-15895722D02*
X16417682Y-15876674D01*
X16417682Y-15876674D02*
X16436730Y-15867150D01*
X16436730Y-15867150D02*
X16474825Y-15867150D01*
X16474825Y-15867150D02*
X16493873Y-15876674D01*
X16493873Y-15876674D02*
X16503396Y-15895722D01*
X16503396Y-15895722D02*
X16503396Y-15914769D01*
X16503396Y-15914769D02*
X16408158Y-15933817D01*
X16674825Y-16000484D02*
X16674825Y-15800484D01*
X16674825Y-15990960D02*
X16655777Y-16000484D01*
X16655777Y-16000484D02*
X16617682Y-16000484D01*
X16617682Y-16000484D02*
X16598634Y-15990960D01*
X16598634Y-15990960D02*
X16589111Y-15981436D01*
X16589111Y-15981436D02*
X16579587Y-15962388D01*
X16579587Y-15962388D02*
X16579587Y-15905246D01*
X16579587Y-15905246D02*
X16589111Y-15886198D01*
X16589111Y-15886198D02*
X16598634Y-15876674D01*
X16598634Y-15876674D02*
X16617682Y-15867150D01*
X16617682Y-15867150D02*
X16655777Y-15867150D01*
X16655777Y-15867150D02*
X16674825Y-15876674D01*
X16751015Y-16076674D02*
X16760539Y-16067150D01*
X16760539Y-16067150D02*
X16779587Y-16038579D01*
X16779587Y-16038579D02*
X16789111Y-16019531D01*
X16789111Y-16019531D02*
X16798635Y-15990960D01*
X16798635Y-15990960D02*
X16808158Y-15943341D01*
X16808158Y-15943341D02*
X16808158Y-15905246D01*
X16808158Y-15905246D02*
X16798635Y-15857627D01*
X16798635Y-15857627D02*
X16789111Y-15829055D01*
X16789111Y-15829055D02*
X16779587Y-15810008D01*
X16779587Y-15810008D02*
X16760539Y-15781436D01*
X16760539Y-15781436D02*
X16751015Y-15771912D01*
M02*
