%TF.GenerationSoftware,KiCad,Pcbnew,7.0.6*%
%TF.CreationDate,2023-08-09T14:48:55+09:30*%
%TF.ProjectId,backplane,6261636b-706c-4616-9e65-2e6b69636164,V1.0*%
%TF.SameCoordinates,Original*%
%TF.FileFunction,Other,Comment*%
%FSLAX46Y46*%
G04 Gerber Fmt 4.6, Leading zero omitted, Abs format (unit mm)*
G04 Created by KiCad (PCBNEW 7.0.6) date 2023-08-09 14:48:55*
%MOMM*%
%LPD*%
G01*
G04 APERTURE LIST*
%ADD10C,0.300000*%
%ADD11C,0.500000*%
%ADD12C,0.150000*%
G04 APERTURE END LIST*
D10*
X189568796Y-65722971D02*
X189711653Y-65580114D01*
X189711653Y-65580114D02*
X189997368Y-65437257D01*
X189997368Y-65437257D02*
X190711653Y-65437257D01*
X190711653Y-65437257D02*
X190997368Y-65580114D01*
X190997368Y-65580114D02*
X191140225Y-65722971D01*
X191140225Y-65722971D02*
X191283082Y-66008685D01*
X191283082Y-66008685D02*
X191283082Y-66294400D01*
X191283082Y-66294400D02*
X191140225Y-66722971D01*
X191140225Y-66722971D02*
X189425939Y-68437257D01*
X189425939Y-68437257D02*
X191283082Y-68437257D01*
X196283082Y-68437257D02*
X194854510Y-68437257D01*
X194854510Y-68437257D02*
X194854510Y-65437257D01*
X198568796Y-68437257D02*
X198568796Y-66865828D01*
X198568796Y-66865828D02*
X198425938Y-66580114D01*
X198425938Y-66580114D02*
X198140224Y-66437257D01*
X198140224Y-66437257D02*
X197568796Y-66437257D01*
X197568796Y-66437257D02*
X197283081Y-66580114D01*
X198568796Y-68294400D02*
X198283081Y-68437257D01*
X198283081Y-68437257D02*
X197568796Y-68437257D01*
X197568796Y-68437257D02*
X197283081Y-68294400D01*
X197283081Y-68294400D02*
X197140224Y-68008685D01*
X197140224Y-68008685D02*
X197140224Y-67722971D01*
X197140224Y-67722971D02*
X197283081Y-67437257D01*
X197283081Y-67437257D02*
X197568796Y-67294400D01*
X197568796Y-67294400D02*
X198283081Y-67294400D01*
X198283081Y-67294400D02*
X198568796Y-67151542D01*
X199711653Y-66437257D02*
X200425939Y-68437257D01*
X201140224Y-66437257D02*
X200425939Y-68437257D01*
X200425939Y-68437257D02*
X200140224Y-69151542D01*
X200140224Y-69151542D02*
X199997367Y-69294400D01*
X199997367Y-69294400D02*
X199711653Y-69437257D01*
X203425938Y-68294400D02*
X203140224Y-68437257D01*
X203140224Y-68437257D02*
X202568796Y-68437257D01*
X202568796Y-68437257D02*
X202283081Y-68294400D01*
X202283081Y-68294400D02*
X202140224Y-68008685D01*
X202140224Y-68008685D02*
X202140224Y-66865828D01*
X202140224Y-66865828D02*
X202283081Y-66580114D01*
X202283081Y-66580114D02*
X202568796Y-66437257D01*
X202568796Y-66437257D02*
X203140224Y-66437257D01*
X203140224Y-66437257D02*
X203425938Y-66580114D01*
X203425938Y-66580114D02*
X203568796Y-66865828D01*
X203568796Y-66865828D02*
X203568796Y-67151542D01*
X203568796Y-67151542D02*
X202140224Y-67437257D01*
X204854510Y-68437257D02*
X204854510Y-66437257D01*
X204854510Y-67008685D02*
X204997367Y-66722971D01*
X204997367Y-66722971D02*
X205140225Y-66580114D01*
X205140225Y-66580114D02*
X205425939Y-66437257D01*
X205425939Y-66437257D02*
X205711653Y-66437257D01*
X191283082Y-73267257D02*
X189568796Y-73267257D01*
X190425939Y-73267257D02*
X190425939Y-70267257D01*
X190425939Y-70267257D02*
X190140225Y-70695828D01*
X190140225Y-70695828D02*
X189854510Y-70981542D01*
X189854510Y-70981542D02*
X189568796Y-71124400D01*
X192568796Y-72981542D02*
X192711653Y-73124400D01*
X192711653Y-73124400D02*
X192568796Y-73267257D01*
X192568796Y-73267257D02*
X192425939Y-73124400D01*
X192425939Y-73124400D02*
X192568796Y-72981542D01*
X192568796Y-72981542D02*
X192568796Y-73267257D01*
X195283082Y-70267257D02*
X194711653Y-70267257D01*
X194711653Y-70267257D02*
X194425939Y-70410114D01*
X194425939Y-70410114D02*
X194283082Y-70552971D01*
X194283082Y-70552971D02*
X193997367Y-70981542D01*
X193997367Y-70981542D02*
X193854510Y-71552971D01*
X193854510Y-71552971D02*
X193854510Y-72695828D01*
X193854510Y-72695828D02*
X193997367Y-72981542D01*
X193997367Y-72981542D02*
X194140224Y-73124400D01*
X194140224Y-73124400D02*
X194425939Y-73267257D01*
X194425939Y-73267257D02*
X194997367Y-73267257D01*
X194997367Y-73267257D02*
X195283082Y-73124400D01*
X195283082Y-73124400D02*
X195425939Y-72981542D01*
X195425939Y-72981542D02*
X195568796Y-72695828D01*
X195568796Y-72695828D02*
X195568796Y-71981542D01*
X195568796Y-71981542D02*
X195425939Y-71695828D01*
X195425939Y-71695828D02*
X195283082Y-71552971D01*
X195283082Y-71552971D02*
X194997367Y-71410114D01*
X194997367Y-71410114D02*
X194425939Y-71410114D01*
X194425939Y-71410114D02*
X194140224Y-71552971D01*
X194140224Y-71552971D02*
X193997367Y-71695828D01*
X193997367Y-71695828D02*
X193854510Y-71981542D01*
X196854510Y-73267257D02*
X196854510Y-71267257D01*
X196854510Y-71552971D02*
X196997367Y-71410114D01*
X196997367Y-71410114D02*
X197283082Y-71267257D01*
X197283082Y-71267257D02*
X197711653Y-71267257D01*
X197711653Y-71267257D02*
X197997367Y-71410114D01*
X197997367Y-71410114D02*
X198140225Y-71695828D01*
X198140225Y-71695828D02*
X198140225Y-73267257D01*
X198140225Y-71695828D02*
X198283082Y-71410114D01*
X198283082Y-71410114D02*
X198568796Y-71267257D01*
X198568796Y-71267257D02*
X198997367Y-71267257D01*
X198997367Y-71267257D02*
X199283082Y-71410114D01*
X199283082Y-71410114D02*
X199425939Y-71695828D01*
X199425939Y-71695828D02*
X199425939Y-73267257D01*
X200854510Y-73267257D02*
X200854510Y-71267257D01*
X200854510Y-71552971D02*
X200997367Y-71410114D01*
X200997367Y-71410114D02*
X201283082Y-71267257D01*
X201283082Y-71267257D02*
X201711653Y-71267257D01*
X201711653Y-71267257D02*
X201997367Y-71410114D01*
X201997367Y-71410114D02*
X202140225Y-71695828D01*
X202140225Y-71695828D02*
X202140225Y-73267257D01*
X202140225Y-71695828D02*
X202283082Y-71410114D01*
X202283082Y-71410114D02*
X202568796Y-71267257D01*
X202568796Y-71267257D02*
X202997367Y-71267257D01*
X202997367Y-71267257D02*
X203283082Y-71410114D01*
X203283082Y-71410114D02*
X203425939Y-71695828D01*
X203425939Y-71695828D02*
X203425939Y-73267257D01*
X207140224Y-73267257D02*
X207140224Y-70267257D01*
X207140224Y-71410114D02*
X207425939Y-71267257D01*
X207425939Y-71267257D02*
X207997367Y-71267257D01*
X207997367Y-71267257D02*
X208283081Y-71410114D01*
X208283081Y-71410114D02*
X208425939Y-71552971D01*
X208425939Y-71552971D02*
X208568796Y-71838685D01*
X208568796Y-71838685D02*
X208568796Y-72695828D01*
X208568796Y-72695828D02*
X208425939Y-72981542D01*
X208425939Y-72981542D02*
X208283081Y-73124400D01*
X208283081Y-73124400D02*
X207997367Y-73267257D01*
X207997367Y-73267257D02*
X207425939Y-73267257D01*
X207425939Y-73267257D02*
X207140224Y-73124400D01*
X210283082Y-73267257D02*
X209997367Y-73124400D01*
X209997367Y-73124400D02*
X209854510Y-72981542D01*
X209854510Y-72981542D02*
X209711653Y-72695828D01*
X209711653Y-72695828D02*
X209711653Y-71838685D01*
X209711653Y-71838685D02*
X209854510Y-71552971D01*
X209854510Y-71552971D02*
X209997367Y-71410114D01*
X209997367Y-71410114D02*
X210283082Y-71267257D01*
X210283082Y-71267257D02*
X210711653Y-71267257D01*
X210711653Y-71267257D02*
X210997367Y-71410114D01*
X210997367Y-71410114D02*
X211140225Y-71552971D01*
X211140225Y-71552971D02*
X211283082Y-71838685D01*
X211283082Y-71838685D02*
X211283082Y-72695828D01*
X211283082Y-72695828D02*
X211140225Y-72981542D01*
X211140225Y-72981542D02*
X210997367Y-73124400D01*
X210997367Y-73124400D02*
X210711653Y-73267257D01*
X210711653Y-73267257D02*
X210283082Y-73267257D01*
X213854511Y-73267257D02*
X213854511Y-71695828D01*
X213854511Y-71695828D02*
X213711653Y-71410114D01*
X213711653Y-71410114D02*
X213425939Y-71267257D01*
X213425939Y-71267257D02*
X212854511Y-71267257D01*
X212854511Y-71267257D02*
X212568796Y-71410114D01*
X213854511Y-73124400D02*
X213568796Y-73267257D01*
X213568796Y-73267257D02*
X212854511Y-73267257D01*
X212854511Y-73267257D02*
X212568796Y-73124400D01*
X212568796Y-73124400D02*
X212425939Y-72838685D01*
X212425939Y-72838685D02*
X212425939Y-72552971D01*
X212425939Y-72552971D02*
X212568796Y-72267257D01*
X212568796Y-72267257D02*
X212854511Y-72124400D01*
X212854511Y-72124400D02*
X213568796Y-72124400D01*
X213568796Y-72124400D02*
X213854511Y-71981542D01*
X215283082Y-73267257D02*
X215283082Y-71267257D01*
X215283082Y-71838685D02*
X215425939Y-71552971D01*
X215425939Y-71552971D02*
X215568797Y-71410114D01*
X215568797Y-71410114D02*
X215854511Y-71267257D01*
X215854511Y-71267257D02*
X216140225Y-71267257D01*
X218425940Y-73267257D02*
X218425940Y-70267257D01*
X218425940Y-73124400D02*
X218140225Y-73267257D01*
X218140225Y-73267257D02*
X217568797Y-73267257D01*
X217568797Y-73267257D02*
X217283082Y-73124400D01*
X217283082Y-73124400D02*
X217140225Y-72981542D01*
X217140225Y-72981542D02*
X216997368Y-72695828D01*
X216997368Y-72695828D02*
X216997368Y-71838685D01*
X216997368Y-71838685D02*
X217140225Y-71552971D01*
X217140225Y-71552971D02*
X217283082Y-71410114D01*
X217283082Y-71410114D02*
X217568797Y-71267257D01*
X217568797Y-71267257D02*
X218140225Y-71267257D01*
X218140225Y-71267257D02*
X218425940Y-71410114D01*
X221711654Y-71267257D02*
X222854511Y-71267257D01*
X222140225Y-70267257D02*
X222140225Y-72838685D01*
X222140225Y-72838685D02*
X222283082Y-73124400D01*
X222283082Y-73124400D02*
X222568797Y-73267257D01*
X222568797Y-73267257D02*
X222854511Y-73267257D01*
X223854511Y-73267257D02*
X223854511Y-70267257D01*
X225140226Y-73267257D02*
X225140226Y-71695828D01*
X225140226Y-71695828D02*
X224997368Y-71410114D01*
X224997368Y-71410114D02*
X224711654Y-71267257D01*
X224711654Y-71267257D02*
X224283083Y-71267257D01*
X224283083Y-71267257D02*
X223997368Y-71410114D01*
X223997368Y-71410114D02*
X223854511Y-71552971D01*
X226568797Y-73267257D02*
X226568797Y-71267257D01*
X226568797Y-70267257D02*
X226425940Y-70410114D01*
X226425940Y-70410114D02*
X226568797Y-70552971D01*
X226568797Y-70552971D02*
X226711654Y-70410114D01*
X226711654Y-70410114D02*
X226568797Y-70267257D01*
X226568797Y-70267257D02*
X226568797Y-70552971D01*
X229283083Y-73124400D02*
X228997368Y-73267257D01*
X228997368Y-73267257D02*
X228425940Y-73267257D01*
X228425940Y-73267257D02*
X228140225Y-73124400D01*
X228140225Y-73124400D02*
X227997368Y-72981542D01*
X227997368Y-72981542D02*
X227854511Y-72695828D01*
X227854511Y-72695828D02*
X227854511Y-71838685D01*
X227854511Y-71838685D02*
X227997368Y-71552971D01*
X227997368Y-71552971D02*
X228140225Y-71410114D01*
X228140225Y-71410114D02*
X228425940Y-71267257D01*
X228425940Y-71267257D02*
X228997368Y-71267257D01*
X228997368Y-71267257D02*
X229283083Y-71410114D01*
X230568797Y-73267257D02*
X230568797Y-70267257D01*
X230854512Y-72124400D02*
X231711654Y-73267257D01*
X231711654Y-71267257D02*
X230568797Y-72410114D01*
X232997368Y-71267257D02*
X232997368Y-73267257D01*
X232997368Y-71552971D02*
X233140225Y-71410114D01*
X233140225Y-71410114D02*
X233425940Y-71267257D01*
X233425940Y-71267257D02*
X233854511Y-71267257D01*
X233854511Y-71267257D02*
X234140225Y-71410114D01*
X234140225Y-71410114D02*
X234283083Y-71695828D01*
X234283083Y-71695828D02*
X234283083Y-73267257D01*
X236854511Y-73124400D02*
X236568797Y-73267257D01*
X236568797Y-73267257D02*
X235997369Y-73267257D01*
X235997369Y-73267257D02*
X235711654Y-73124400D01*
X235711654Y-73124400D02*
X235568797Y-72838685D01*
X235568797Y-72838685D02*
X235568797Y-71695828D01*
X235568797Y-71695828D02*
X235711654Y-71410114D01*
X235711654Y-71410114D02*
X235997369Y-71267257D01*
X235997369Y-71267257D02*
X236568797Y-71267257D01*
X236568797Y-71267257D02*
X236854511Y-71410114D01*
X236854511Y-71410114D02*
X236997369Y-71695828D01*
X236997369Y-71695828D02*
X236997369Y-71981542D01*
X236997369Y-71981542D02*
X235568797Y-72267257D01*
X238140226Y-73124400D02*
X238425940Y-73267257D01*
X238425940Y-73267257D02*
X238997369Y-73267257D01*
X238997369Y-73267257D02*
X239283083Y-73124400D01*
X239283083Y-73124400D02*
X239425940Y-72838685D01*
X239425940Y-72838685D02*
X239425940Y-72695828D01*
X239425940Y-72695828D02*
X239283083Y-72410114D01*
X239283083Y-72410114D02*
X238997369Y-72267257D01*
X238997369Y-72267257D02*
X238568798Y-72267257D01*
X238568798Y-72267257D02*
X238283083Y-72124400D01*
X238283083Y-72124400D02*
X238140226Y-71838685D01*
X238140226Y-71838685D02*
X238140226Y-71695828D01*
X238140226Y-71695828D02*
X238283083Y-71410114D01*
X238283083Y-71410114D02*
X238568798Y-71267257D01*
X238568798Y-71267257D02*
X238997369Y-71267257D01*
X238997369Y-71267257D02*
X239283083Y-71410114D01*
X240568797Y-73124400D02*
X240854511Y-73267257D01*
X240854511Y-73267257D02*
X241425940Y-73267257D01*
X241425940Y-73267257D02*
X241711654Y-73124400D01*
X241711654Y-73124400D02*
X241854511Y-72838685D01*
X241854511Y-72838685D02*
X241854511Y-72695828D01*
X241854511Y-72695828D02*
X241711654Y-72410114D01*
X241711654Y-72410114D02*
X241425940Y-72267257D01*
X241425940Y-72267257D02*
X240997369Y-72267257D01*
X240997369Y-72267257D02*
X240711654Y-72124400D01*
X240711654Y-72124400D02*
X240568797Y-71838685D01*
X240568797Y-71838685D02*
X240568797Y-71695828D01*
X240568797Y-71695828D02*
X240711654Y-71410114D01*
X240711654Y-71410114D02*
X240997369Y-71267257D01*
X240997369Y-71267257D02*
X241425940Y-71267257D01*
X241425940Y-71267257D02*
X241711654Y-71410114D01*
X191283082Y-78097257D02*
X189568796Y-78097257D01*
X190425939Y-78097257D02*
X190425939Y-75097257D01*
X190425939Y-75097257D02*
X190140225Y-75525828D01*
X190140225Y-75525828D02*
X189854510Y-75811542D01*
X189854510Y-75811542D02*
X189568796Y-75954400D01*
X192997368Y-78097257D02*
X192711653Y-77954400D01*
X192711653Y-77954400D02*
X192568796Y-77811542D01*
X192568796Y-77811542D02*
X192425939Y-77525828D01*
X192425939Y-77525828D02*
X192425939Y-76668685D01*
X192425939Y-76668685D02*
X192568796Y-76382971D01*
X192568796Y-76382971D02*
X192711653Y-76240114D01*
X192711653Y-76240114D02*
X192997368Y-76097257D01*
X192997368Y-76097257D02*
X193425939Y-76097257D01*
X193425939Y-76097257D02*
X193711653Y-76240114D01*
X193711653Y-76240114D02*
X193854511Y-76382971D01*
X193854511Y-76382971D02*
X193997368Y-76668685D01*
X193997368Y-76668685D02*
X193997368Y-77525828D01*
X193997368Y-77525828D02*
X193854511Y-77811542D01*
X193854511Y-77811542D02*
X193711653Y-77954400D01*
X193711653Y-77954400D02*
X193425939Y-78097257D01*
X193425939Y-78097257D02*
X192997368Y-78097257D01*
X194997368Y-76097257D02*
X196568797Y-76097257D01*
X196568797Y-76097257D02*
X194997368Y-78097257D01*
X194997368Y-78097257D02*
X196568797Y-78097257D01*
X201283082Y-77954400D02*
X200997367Y-78097257D01*
X200997367Y-78097257D02*
X200425939Y-78097257D01*
X200425939Y-78097257D02*
X200140224Y-77954400D01*
X200140224Y-77954400D02*
X199997367Y-77811542D01*
X199997367Y-77811542D02*
X199854510Y-77525828D01*
X199854510Y-77525828D02*
X199854510Y-76668685D01*
X199854510Y-76668685D02*
X199997367Y-76382971D01*
X199997367Y-76382971D02*
X200140224Y-76240114D01*
X200140224Y-76240114D02*
X200425939Y-76097257D01*
X200425939Y-76097257D02*
X200997367Y-76097257D01*
X200997367Y-76097257D02*
X201283082Y-76240114D01*
X202997368Y-78097257D02*
X202711653Y-77954400D01*
X202711653Y-77954400D02*
X202568796Y-77811542D01*
X202568796Y-77811542D02*
X202425939Y-77525828D01*
X202425939Y-77525828D02*
X202425939Y-76668685D01*
X202425939Y-76668685D02*
X202568796Y-76382971D01*
X202568796Y-76382971D02*
X202711653Y-76240114D01*
X202711653Y-76240114D02*
X202997368Y-76097257D01*
X202997368Y-76097257D02*
X203425939Y-76097257D01*
X203425939Y-76097257D02*
X203711653Y-76240114D01*
X203711653Y-76240114D02*
X203854511Y-76382971D01*
X203854511Y-76382971D02*
X203997368Y-76668685D01*
X203997368Y-76668685D02*
X203997368Y-77525828D01*
X203997368Y-77525828D02*
X203854511Y-77811542D01*
X203854511Y-77811542D02*
X203711653Y-77954400D01*
X203711653Y-77954400D02*
X203425939Y-78097257D01*
X203425939Y-78097257D02*
X202997368Y-78097257D01*
X205283082Y-76097257D02*
X205283082Y-79097257D01*
X205283082Y-76240114D02*
X205568797Y-76097257D01*
X205568797Y-76097257D02*
X206140225Y-76097257D01*
X206140225Y-76097257D02*
X206425939Y-76240114D01*
X206425939Y-76240114D02*
X206568797Y-76382971D01*
X206568797Y-76382971D02*
X206711654Y-76668685D01*
X206711654Y-76668685D02*
X206711654Y-77525828D01*
X206711654Y-77525828D02*
X206568797Y-77811542D01*
X206568797Y-77811542D02*
X206425939Y-77954400D01*
X206425939Y-77954400D02*
X206140225Y-78097257D01*
X206140225Y-78097257D02*
X205568797Y-78097257D01*
X205568797Y-78097257D02*
X205283082Y-77954400D01*
X207997368Y-76097257D02*
X207997368Y-79097257D01*
X207997368Y-76240114D02*
X208283083Y-76097257D01*
X208283083Y-76097257D02*
X208854511Y-76097257D01*
X208854511Y-76097257D02*
X209140225Y-76240114D01*
X209140225Y-76240114D02*
X209283083Y-76382971D01*
X209283083Y-76382971D02*
X209425940Y-76668685D01*
X209425940Y-76668685D02*
X209425940Y-77525828D01*
X209425940Y-77525828D02*
X209283083Y-77811542D01*
X209283083Y-77811542D02*
X209140225Y-77954400D01*
X209140225Y-77954400D02*
X208854511Y-78097257D01*
X208854511Y-78097257D02*
X208283083Y-78097257D01*
X208283083Y-78097257D02*
X207997368Y-77954400D01*
X211854511Y-77954400D02*
X211568797Y-78097257D01*
X211568797Y-78097257D02*
X210997369Y-78097257D01*
X210997369Y-78097257D02*
X210711654Y-77954400D01*
X210711654Y-77954400D02*
X210568797Y-77668685D01*
X210568797Y-77668685D02*
X210568797Y-76525828D01*
X210568797Y-76525828D02*
X210711654Y-76240114D01*
X210711654Y-76240114D02*
X210997369Y-76097257D01*
X210997369Y-76097257D02*
X211568797Y-76097257D01*
X211568797Y-76097257D02*
X211854511Y-76240114D01*
X211854511Y-76240114D02*
X211997369Y-76525828D01*
X211997369Y-76525828D02*
X211997369Y-76811542D01*
X211997369Y-76811542D02*
X210568797Y-77097257D01*
X213283083Y-78097257D02*
X213283083Y-76097257D01*
X213283083Y-76668685D02*
X213425940Y-76382971D01*
X213425940Y-76382971D02*
X213568798Y-76240114D01*
X213568798Y-76240114D02*
X213854512Y-76097257D01*
X213854512Y-76097257D02*
X214140226Y-76097257D01*
X191283082Y-82927257D02*
X189568796Y-82927257D01*
X190425939Y-82927257D02*
X190425939Y-79927257D01*
X190425939Y-79927257D02*
X190140225Y-80355828D01*
X190140225Y-80355828D02*
X189854510Y-80641542D01*
X189854510Y-80641542D02*
X189568796Y-80784400D01*
X193140225Y-79927257D02*
X193425939Y-79927257D01*
X193425939Y-79927257D02*
X193711653Y-80070114D01*
X193711653Y-80070114D02*
X193854511Y-80212971D01*
X193854511Y-80212971D02*
X193997368Y-80498685D01*
X193997368Y-80498685D02*
X194140225Y-81070114D01*
X194140225Y-81070114D02*
X194140225Y-81784400D01*
X194140225Y-81784400D02*
X193997368Y-82355828D01*
X193997368Y-82355828D02*
X193854511Y-82641542D01*
X193854511Y-82641542D02*
X193711653Y-82784400D01*
X193711653Y-82784400D02*
X193425939Y-82927257D01*
X193425939Y-82927257D02*
X193140225Y-82927257D01*
X193140225Y-82927257D02*
X192854511Y-82784400D01*
X192854511Y-82784400D02*
X192711653Y-82641542D01*
X192711653Y-82641542D02*
X192568796Y-82355828D01*
X192568796Y-82355828D02*
X192425939Y-81784400D01*
X192425939Y-81784400D02*
X192425939Y-81070114D01*
X192425939Y-81070114D02*
X192568796Y-80498685D01*
X192568796Y-80498685D02*
X192711653Y-80212971D01*
X192711653Y-80212971D02*
X192854511Y-80070114D01*
X192854511Y-80070114D02*
X193140225Y-79927257D01*
X195997368Y-79927257D02*
X196283082Y-79927257D01*
X196283082Y-79927257D02*
X196568796Y-80070114D01*
X196568796Y-80070114D02*
X196711654Y-80212971D01*
X196711654Y-80212971D02*
X196854511Y-80498685D01*
X196854511Y-80498685D02*
X196997368Y-81070114D01*
X196997368Y-81070114D02*
X196997368Y-81784400D01*
X196997368Y-81784400D02*
X196854511Y-82355828D01*
X196854511Y-82355828D02*
X196711654Y-82641542D01*
X196711654Y-82641542D02*
X196568796Y-82784400D01*
X196568796Y-82784400D02*
X196283082Y-82927257D01*
X196283082Y-82927257D02*
X195997368Y-82927257D01*
X195997368Y-82927257D02*
X195711654Y-82784400D01*
X195711654Y-82784400D02*
X195568796Y-82641542D01*
X195568796Y-82641542D02*
X195425939Y-82355828D01*
X195425939Y-82355828D02*
X195283082Y-81784400D01*
X195283082Y-81784400D02*
X195283082Y-81070114D01*
X195283082Y-81070114D02*
X195425939Y-80498685D01*
X195425939Y-80498685D02*
X195568796Y-80212971D01*
X195568796Y-80212971D02*
X195711654Y-80070114D01*
X195711654Y-80070114D02*
X195997368Y-79927257D01*
X200283082Y-82927257D02*
X201854511Y-80927257D01*
X200283082Y-80927257D02*
X201854511Y-82927257D01*
X206568796Y-80927257D02*
X206568796Y-82927257D01*
X205854510Y-79784400D02*
X205140224Y-81927257D01*
X205140224Y-81927257D02*
X206997367Y-81927257D01*
X209425939Y-79927257D02*
X208854510Y-79927257D01*
X208854510Y-79927257D02*
X208568796Y-80070114D01*
X208568796Y-80070114D02*
X208425939Y-80212971D01*
X208425939Y-80212971D02*
X208140224Y-80641542D01*
X208140224Y-80641542D02*
X207997367Y-81212971D01*
X207997367Y-81212971D02*
X207997367Y-82355828D01*
X207997367Y-82355828D02*
X208140224Y-82641542D01*
X208140224Y-82641542D02*
X208283081Y-82784400D01*
X208283081Y-82784400D02*
X208568796Y-82927257D01*
X208568796Y-82927257D02*
X209140224Y-82927257D01*
X209140224Y-82927257D02*
X209425939Y-82784400D01*
X209425939Y-82784400D02*
X209568796Y-82641542D01*
X209568796Y-82641542D02*
X209711653Y-82355828D01*
X209711653Y-82355828D02*
X209711653Y-81641542D01*
X209711653Y-81641542D02*
X209568796Y-81355828D01*
X209568796Y-81355828D02*
X209425939Y-81212971D01*
X209425939Y-81212971D02*
X209140224Y-81070114D01*
X209140224Y-81070114D02*
X208568796Y-81070114D01*
X208568796Y-81070114D02*
X208283081Y-81212971D01*
X208283081Y-81212971D02*
X208140224Y-81355828D01*
X208140224Y-81355828D02*
X207997367Y-81641542D01*
X213283081Y-82927257D02*
X213283081Y-80927257D01*
X213283081Y-81212971D02*
X213425938Y-81070114D01*
X213425938Y-81070114D02*
X213711653Y-80927257D01*
X213711653Y-80927257D02*
X214140224Y-80927257D01*
X214140224Y-80927257D02*
X214425938Y-81070114D01*
X214425938Y-81070114D02*
X214568796Y-81355828D01*
X214568796Y-81355828D02*
X214568796Y-82927257D01*
X214568796Y-81355828D02*
X214711653Y-81070114D01*
X214711653Y-81070114D02*
X214997367Y-80927257D01*
X214997367Y-80927257D02*
X215425938Y-80927257D01*
X215425938Y-80927257D02*
X215711653Y-81070114D01*
X215711653Y-81070114D02*
X215854510Y-81355828D01*
X215854510Y-81355828D02*
X215854510Y-82927257D01*
X217283081Y-82927257D02*
X217283081Y-80927257D01*
X217283081Y-81212971D02*
X217425938Y-81070114D01*
X217425938Y-81070114D02*
X217711653Y-80927257D01*
X217711653Y-80927257D02*
X218140224Y-80927257D01*
X218140224Y-80927257D02*
X218425938Y-81070114D01*
X218425938Y-81070114D02*
X218568796Y-81355828D01*
X218568796Y-81355828D02*
X218568796Y-82927257D01*
X218568796Y-81355828D02*
X218711653Y-81070114D01*
X218711653Y-81070114D02*
X218997367Y-80927257D01*
X218997367Y-80927257D02*
X219425938Y-80927257D01*
X219425938Y-80927257D02*
X219711653Y-81070114D01*
X219711653Y-81070114D02*
X219854510Y-81355828D01*
X219854510Y-81355828D02*
X219854510Y-82927257D01*
X189425939Y-89587257D02*
X190140225Y-92587257D01*
X190140225Y-92587257D02*
X190711653Y-90444400D01*
X190711653Y-90444400D02*
X191283082Y-92587257D01*
X191283082Y-92587257D02*
X191997368Y-89587257D01*
X193140224Y-92587257D02*
X193140224Y-89587257D01*
X194425939Y-92587257D02*
X194425939Y-91015828D01*
X194425939Y-91015828D02*
X194283081Y-90730114D01*
X194283081Y-90730114D02*
X193997367Y-90587257D01*
X193997367Y-90587257D02*
X193568796Y-90587257D01*
X193568796Y-90587257D02*
X193283081Y-90730114D01*
X193283081Y-90730114D02*
X193140224Y-90872971D01*
X195854510Y-92587257D02*
X195854510Y-90587257D01*
X195854510Y-89587257D02*
X195711653Y-89730114D01*
X195711653Y-89730114D02*
X195854510Y-89872971D01*
X195854510Y-89872971D02*
X195997367Y-89730114D01*
X195997367Y-89730114D02*
X195854510Y-89587257D01*
X195854510Y-89587257D02*
X195854510Y-89872971D01*
X196854510Y-90587257D02*
X197997367Y-90587257D01*
X197283081Y-89587257D02*
X197283081Y-92158685D01*
X197283081Y-92158685D02*
X197425938Y-92444400D01*
X197425938Y-92444400D02*
X197711653Y-92587257D01*
X197711653Y-92587257D02*
X197997367Y-92587257D01*
X200140224Y-92444400D02*
X199854510Y-92587257D01*
X199854510Y-92587257D02*
X199283082Y-92587257D01*
X199283082Y-92587257D02*
X198997367Y-92444400D01*
X198997367Y-92444400D02*
X198854510Y-92158685D01*
X198854510Y-92158685D02*
X198854510Y-91015828D01*
X198854510Y-91015828D02*
X198997367Y-90730114D01*
X198997367Y-90730114D02*
X199283082Y-90587257D01*
X199283082Y-90587257D02*
X199854510Y-90587257D01*
X199854510Y-90587257D02*
X200140224Y-90730114D01*
X200140224Y-90730114D02*
X200283082Y-91015828D01*
X200283082Y-91015828D02*
X200283082Y-91301542D01*
X200283082Y-91301542D02*
X198854510Y-91587257D01*
X203711653Y-92444400D02*
X204140225Y-92587257D01*
X204140225Y-92587257D02*
X204854510Y-92587257D01*
X204854510Y-92587257D02*
X205140225Y-92444400D01*
X205140225Y-92444400D02*
X205283082Y-92301542D01*
X205283082Y-92301542D02*
X205425939Y-92015828D01*
X205425939Y-92015828D02*
X205425939Y-91730114D01*
X205425939Y-91730114D02*
X205283082Y-91444400D01*
X205283082Y-91444400D02*
X205140225Y-91301542D01*
X205140225Y-91301542D02*
X204854510Y-91158685D01*
X204854510Y-91158685D02*
X204283082Y-91015828D01*
X204283082Y-91015828D02*
X203997367Y-90872971D01*
X203997367Y-90872971D02*
X203854510Y-90730114D01*
X203854510Y-90730114D02*
X203711653Y-90444400D01*
X203711653Y-90444400D02*
X203711653Y-90158685D01*
X203711653Y-90158685D02*
X203854510Y-89872971D01*
X203854510Y-89872971D02*
X203997367Y-89730114D01*
X203997367Y-89730114D02*
X204283082Y-89587257D01*
X204283082Y-89587257D02*
X204997367Y-89587257D01*
X204997367Y-89587257D02*
X205425939Y-89730114D01*
X207140225Y-92587257D02*
X206854510Y-92444400D01*
X206854510Y-92444400D02*
X206711653Y-92301542D01*
X206711653Y-92301542D02*
X206568796Y-92015828D01*
X206568796Y-92015828D02*
X206568796Y-91158685D01*
X206568796Y-91158685D02*
X206711653Y-90872971D01*
X206711653Y-90872971D02*
X206854510Y-90730114D01*
X206854510Y-90730114D02*
X207140225Y-90587257D01*
X207140225Y-90587257D02*
X207568796Y-90587257D01*
X207568796Y-90587257D02*
X207854510Y-90730114D01*
X207854510Y-90730114D02*
X207997368Y-90872971D01*
X207997368Y-90872971D02*
X208140225Y-91158685D01*
X208140225Y-91158685D02*
X208140225Y-92015828D01*
X208140225Y-92015828D02*
X207997368Y-92301542D01*
X207997368Y-92301542D02*
X207854510Y-92444400D01*
X207854510Y-92444400D02*
X207568796Y-92587257D01*
X207568796Y-92587257D02*
X207140225Y-92587257D01*
X209854511Y-92587257D02*
X209568796Y-92444400D01*
X209568796Y-92444400D02*
X209425939Y-92158685D01*
X209425939Y-92158685D02*
X209425939Y-89587257D01*
X212283083Y-92587257D02*
X212283083Y-89587257D01*
X212283083Y-92444400D02*
X211997368Y-92587257D01*
X211997368Y-92587257D02*
X211425940Y-92587257D01*
X211425940Y-92587257D02*
X211140225Y-92444400D01*
X211140225Y-92444400D02*
X210997368Y-92301542D01*
X210997368Y-92301542D02*
X210854511Y-92015828D01*
X210854511Y-92015828D02*
X210854511Y-91158685D01*
X210854511Y-91158685D02*
X210997368Y-90872971D01*
X210997368Y-90872971D02*
X211140225Y-90730114D01*
X211140225Y-90730114D02*
X211425940Y-90587257D01*
X211425940Y-90587257D02*
X211997368Y-90587257D01*
X211997368Y-90587257D02*
X212283083Y-90730114D01*
X214854511Y-92444400D02*
X214568797Y-92587257D01*
X214568797Y-92587257D02*
X213997369Y-92587257D01*
X213997369Y-92587257D02*
X213711654Y-92444400D01*
X213711654Y-92444400D02*
X213568797Y-92158685D01*
X213568797Y-92158685D02*
X213568797Y-91015828D01*
X213568797Y-91015828D02*
X213711654Y-90730114D01*
X213711654Y-90730114D02*
X213997369Y-90587257D01*
X213997369Y-90587257D02*
X214568797Y-90587257D01*
X214568797Y-90587257D02*
X214854511Y-90730114D01*
X214854511Y-90730114D02*
X214997369Y-91015828D01*
X214997369Y-91015828D02*
X214997369Y-91301542D01*
X214997369Y-91301542D02*
X213568797Y-91587257D01*
X216283083Y-92587257D02*
X216283083Y-90587257D01*
X216283083Y-91158685D02*
X216425940Y-90872971D01*
X216425940Y-90872971D02*
X216568798Y-90730114D01*
X216568798Y-90730114D02*
X216854512Y-90587257D01*
X216854512Y-90587257D02*
X217140226Y-90587257D01*
X218140226Y-92587257D02*
X218140226Y-90587257D01*
X218140226Y-90872971D02*
X218283083Y-90730114D01*
X218283083Y-90730114D02*
X218568798Y-90587257D01*
X218568798Y-90587257D02*
X218997369Y-90587257D01*
X218997369Y-90587257D02*
X219283083Y-90730114D01*
X219283083Y-90730114D02*
X219425941Y-91015828D01*
X219425941Y-91015828D02*
X219425941Y-92587257D01*
X219425941Y-91015828D02*
X219568798Y-90730114D01*
X219568798Y-90730114D02*
X219854512Y-90587257D01*
X219854512Y-90587257D02*
X220283083Y-90587257D01*
X220283083Y-90587257D02*
X220568798Y-90730114D01*
X220568798Y-90730114D02*
X220711655Y-91015828D01*
X220711655Y-91015828D02*
X220711655Y-92587257D01*
X223425941Y-92587257D02*
X223425941Y-91015828D01*
X223425941Y-91015828D02*
X223283083Y-90730114D01*
X223283083Y-90730114D02*
X222997369Y-90587257D01*
X222997369Y-90587257D02*
X222425941Y-90587257D01*
X222425941Y-90587257D02*
X222140226Y-90730114D01*
X223425941Y-92444400D02*
X223140226Y-92587257D01*
X223140226Y-92587257D02*
X222425941Y-92587257D01*
X222425941Y-92587257D02*
X222140226Y-92444400D01*
X222140226Y-92444400D02*
X221997369Y-92158685D01*
X221997369Y-92158685D02*
X221997369Y-91872971D01*
X221997369Y-91872971D02*
X222140226Y-91587257D01*
X222140226Y-91587257D02*
X222425941Y-91444400D01*
X222425941Y-91444400D02*
X223140226Y-91444400D01*
X223140226Y-91444400D02*
X223425941Y-91301542D01*
X224711655Y-92444400D02*
X224997369Y-92587257D01*
X224997369Y-92587257D02*
X225568798Y-92587257D01*
X225568798Y-92587257D02*
X225854512Y-92444400D01*
X225854512Y-92444400D02*
X225997369Y-92158685D01*
X225997369Y-92158685D02*
X225997369Y-92015828D01*
X225997369Y-92015828D02*
X225854512Y-91730114D01*
X225854512Y-91730114D02*
X225568798Y-91587257D01*
X225568798Y-91587257D02*
X225140227Y-91587257D01*
X225140227Y-91587257D02*
X224854512Y-91444400D01*
X224854512Y-91444400D02*
X224711655Y-91158685D01*
X224711655Y-91158685D02*
X224711655Y-91015828D01*
X224711655Y-91015828D02*
X224854512Y-90730114D01*
X224854512Y-90730114D02*
X225140227Y-90587257D01*
X225140227Y-90587257D02*
X225568798Y-90587257D01*
X225568798Y-90587257D02*
X225854512Y-90730114D01*
X227283083Y-92587257D02*
X227283083Y-89587257D01*
X227568798Y-91444400D02*
X228425940Y-92587257D01*
X228425940Y-90587257D02*
X227283083Y-91730114D01*
X190711653Y-95845828D02*
X191140225Y-95988685D01*
X191140225Y-95988685D02*
X191283082Y-96131542D01*
X191283082Y-96131542D02*
X191425939Y-96417257D01*
X191425939Y-96417257D02*
X191425939Y-96845828D01*
X191425939Y-96845828D02*
X191283082Y-97131542D01*
X191283082Y-97131542D02*
X191140225Y-97274400D01*
X191140225Y-97274400D02*
X190854510Y-97417257D01*
X190854510Y-97417257D02*
X189711653Y-97417257D01*
X189711653Y-97417257D02*
X189711653Y-94417257D01*
X189711653Y-94417257D02*
X190711653Y-94417257D01*
X190711653Y-94417257D02*
X190997368Y-94560114D01*
X190997368Y-94560114D02*
X191140225Y-94702971D01*
X191140225Y-94702971D02*
X191283082Y-94988685D01*
X191283082Y-94988685D02*
X191283082Y-95274400D01*
X191283082Y-95274400D02*
X191140225Y-95560114D01*
X191140225Y-95560114D02*
X190997368Y-95702971D01*
X190997368Y-95702971D02*
X190711653Y-95845828D01*
X190711653Y-95845828D02*
X189711653Y-95845828D01*
X193140225Y-97417257D02*
X192854510Y-97274400D01*
X192854510Y-97274400D02*
X192711653Y-96988685D01*
X192711653Y-96988685D02*
X192711653Y-94417257D01*
X195568797Y-97417257D02*
X195568797Y-95845828D01*
X195568797Y-95845828D02*
X195425939Y-95560114D01*
X195425939Y-95560114D02*
X195140225Y-95417257D01*
X195140225Y-95417257D02*
X194568797Y-95417257D01*
X194568797Y-95417257D02*
X194283082Y-95560114D01*
X195568797Y-97274400D02*
X195283082Y-97417257D01*
X195283082Y-97417257D02*
X194568797Y-97417257D01*
X194568797Y-97417257D02*
X194283082Y-97274400D01*
X194283082Y-97274400D02*
X194140225Y-96988685D01*
X194140225Y-96988685D02*
X194140225Y-96702971D01*
X194140225Y-96702971D02*
X194283082Y-96417257D01*
X194283082Y-96417257D02*
X194568797Y-96274400D01*
X194568797Y-96274400D02*
X195283082Y-96274400D01*
X195283082Y-96274400D02*
X195568797Y-96131542D01*
X198283083Y-97274400D02*
X197997368Y-97417257D01*
X197997368Y-97417257D02*
X197425940Y-97417257D01*
X197425940Y-97417257D02*
X197140225Y-97274400D01*
X197140225Y-97274400D02*
X196997368Y-97131542D01*
X196997368Y-97131542D02*
X196854511Y-96845828D01*
X196854511Y-96845828D02*
X196854511Y-95988685D01*
X196854511Y-95988685D02*
X196997368Y-95702971D01*
X196997368Y-95702971D02*
X197140225Y-95560114D01*
X197140225Y-95560114D02*
X197425940Y-95417257D01*
X197425940Y-95417257D02*
X197997368Y-95417257D01*
X197997368Y-95417257D02*
X198283083Y-95560114D01*
X199568797Y-97417257D02*
X199568797Y-94417257D01*
X199854512Y-96274400D02*
X200711654Y-97417257D01*
X200711654Y-95417257D02*
X199568797Y-96560114D01*
X204140225Y-97274400D02*
X204568797Y-97417257D01*
X204568797Y-97417257D02*
X205283082Y-97417257D01*
X205283082Y-97417257D02*
X205568797Y-97274400D01*
X205568797Y-97274400D02*
X205711654Y-97131542D01*
X205711654Y-97131542D02*
X205854511Y-96845828D01*
X205854511Y-96845828D02*
X205854511Y-96560114D01*
X205854511Y-96560114D02*
X205711654Y-96274400D01*
X205711654Y-96274400D02*
X205568797Y-96131542D01*
X205568797Y-96131542D02*
X205283082Y-95988685D01*
X205283082Y-95988685D02*
X204711654Y-95845828D01*
X204711654Y-95845828D02*
X204425939Y-95702971D01*
X204425939Y-95702971D02*
X204283082Y-95560114D01*
X204283082Y-95560114D02*
X204140225Y-95274400D01*
X204140225Y-95274400D02*
X204140225Y-94988685D01*
X204140225Y-94988685D02*
X204283082Y-94702971D01*
X204283082Y-94702971D02*
X204425939Y-94560114D01*
X204425939Y-94560114D02*
X204711654Y-94417257D01*
X204711654Y-94417257D02*
X205425939Y-94417257D01*
X205425939Y-94417257D02*
X205854511Y-94560114D01*
X207140225Y-97417257D02*
X207140225Y-95417257D01*
X207140225Y-94417257D02*
X206997368Y-94560114D01*
X206997368Y-94560114D02*
X207140225Y-94702971D01*
X207140225Y-94702971D02*
X207283082Y-94560114D01*
X207283082Y-94560114D02*
X207140225Y-94417257D01*
X207140225Y-94417257D02*
X207140225Y-94702971D01*
X208997368Y-97417257D02*
X208711653Y-97274400D01*
X208711653Y-97274400D02*
X208568796Y-96988685D01*
X208568796Y-96988685D02*
X208568796Y-94417257D01*
X210140225Y-97417257D02*
X210140225Y-94417257D01*
X210425940Y-96274400D02*
X211283082Y-97417257D01*
X211283082Y-95417257D02*
X210140225Y-96560114D01*
X212425939Y-97274400D02*
X212711653Y-97417257D01*
X212711653Y-97417257D02*
X213283082Y-97417257D01*
X213283082Y-97417257D02*
X213568796Y-97274400D01*
X213568796Y-97274400D02*
X213711653Y-96988685D01*
X213711653Y-96988685D02*
X213711653Y-96845828D01*
X213711653Y-96845828D02*
X213568796Y-96560114D01*
X213568796Y-96560114D02*
X213283082Y-96417257D01*
X213283082Y-96417257D02*
X212854511Y-96417257D01*
X212854511Y-96417257D02*
X212568796Y-96274400D01*
X212568796Y-96274400D02*
X212425939Y-95988685D01*
X212425939Y-95988685D02*
X212425939Y-95845828D01*
X212425939Y-95845828D02*
X212568796Y-95560114D01*
X212568796Y-95560114D02*
X212854511Y-95417257D01*
X212854511Y-95417257D02*
X213283082Y-95417257D01*
X213283082Y-95417257D02*
X213568796Y-95560114D01*
X216283082Y-97274400D02*
X215997367Y-97417257D01*
X215997367Y-97417257D02*
X215425939Y-97417257D01*
X215425939Y-97417257D02*
X215140224Y-97274400D01*
X215140224Y-97274400D02*
X214997367Y-97131542D01*
X214997367Y-97131542D02*
X214854510Y-96845828D01*
X214854510Y-96845828D02*
X214854510Y-95988685D01*
X214854510Y-95988685D02*
X214997367Y-95702971D01*
X214997367Y-95702971D02*
X215140224Y-95560114D01*
X215140224Y-95560114D02*
X215425939Y-95417257D01*
X215425939Y-95417257D02*
X215997367Y-95417257D01*
X215997367Y-95417257D02*
X216283082Y-95560114D01*
X217568796Y-97417257D02*
X217568796Y-95417257D01*
X217568796Y-95988685D02*
X217711653Y-95702971D01*
X217711653Y-95702971D02*
X217854511Y-95560114D01*
X217854511Y-95560114D02*
X218140225Y-95417257D01*
X218140225Y-95417257D02*
X218425939Y-95417257D01*
X220568796Y-97274400D02*
X220283082Y-97417257D01*
X220283082Y-97417257D02*
X219711654Y-97417257D01*
X219711654Y-97417257D02*
X219425939Y-97274400D01*
X219425939Y-97274400D02*
X219283082Y-96988685D01*
X219283082Y-96988685D02*
X219283082Y-95845828D01*
X219283082Y-95845828D02*
X219425939Y-95560114D01*
X219425939Y-95560114D02*
X219711654Y-95417257D01*
X219711654Y-95417257D02*
X220283082Y-95417257D01*
X220283082Y-95417257D02*
X220568796Y-95560114D01*
X220568796Y-95560114D02*
X220711654Y-95845828D01*
X220711654Y-95845828D02*
X220711654Y-96131542D01*
X220711654Y-96131542D02*
X219283082Y-96417257D01*
X223140225Y-97274400D02*
X222854511Y-97417257D01*
X222854511Y-97417257D02*
X222283083Y-97417257D01*
X222283083Y-97417257D02*
X221997368Y-97274400D01*
X221997368Y-97274400D02*
X221854511Y-96988685D01*
X221854511Y-96988685D02*
X221854511Y-95845828D01*
X221854511Y-95845828D02*
X221997368Y-95560114D01*
X221997368Y-95560114D02*
X222283083Y-95417257D01*
X222283083Y-95417257D02*
X222854511Y-95417257D01*
X222854511Y-95417257D02*
X223140225Y-95560114D01*
X223140225Y-95560114D02*
X223283083Y-95845828D01*
X223283083Y-95845828D02*
X223283083Y-96131542D01*
X223283083Y-96131542D02*
X221854511Y-96417257D01*
X224568797Y-95417257D02*
X224568797Y-97417257D01*
X224568797Y-95702971D02*
X224711654Y-95560114D01*
X224711654Y-95560114D02*
X224997369Y-95417257D01*
X224997369Y-95417257D02*
X225425940Y-95417257D01*
X225425940Y-95417257D02*
X225711654Y-95560114D01*
X225711654Y-95560114D02*
X225854512Y-95845828D01*
X225854512Y-95845828D02*
X225854512Y-97417257D01*
D11*
X190081327Y-60284476D02*
X190081327Y-56284476D01*
X190081327Y-56284476D02*
X191605137Y-56284476D01*
X191605137Y-56284476D02*
X191986089Y-56474952D01*
X191986089Y-56474952D02*
X192176566Y-56665428D01*
X192176566Y-56665428D02*
X192367042Y-57046380D01*
X192367042Y-57046380D02*
X192367042Y-57617809D01*
X192367042Y-57617809D02*
X192176566Y-57998761D01*
X192176566Y-57998761D02*
X191986089Y-58189238D01*
X191986089Y-58189238D02*
X191605137Y-58379714D01*
X191605137Y-58379714D02*
X190081327Y-58379714D01*
X196367042Y-59903523D02*
X196176566Y-60094000D01*
X196176566Y-60094000D02*
X195605137Y-60284476D01*
X195605137Y-60284476D02*
X195224185Y-60284476D01*
X195224185Y-60284476D02*
X194652756Y-60094000D01*
X194652756Y-60094000D02*
X194271804Y-59713047D01*
X194271804Y-59713047D02*
X194081327Y-59332095D01*
X194081327Y-59332095D02*
X193890851Y-58570190D01*
X193890851Y-58570190D02*
X193890851Y-57998761D01*
X193890851Y-57998761D02*
X194081327Y-57236857D01*
X194081327Y-57236857D02*
X194271804Y-56855904D01*
X194271804Y-56855904D02*
X194652756Y-56474952D01*
X194652756Y-56474952D02*
X195224185Y-56284476D01*
X195224185Y-56284476D02*
X195605137Y-56284476D01*
X195605137Y-56284476D02*
X196176566Y-56474952D01*
X196176566Y-56474952D02*
X196367042Y-56665428D01*
X199414661Y-58189238D02*
X199986089Y-58379714D01*
X199986089Y-58379714D02*
X200176566Y-58570190D01*
X200176566Y-58570190D02*
X200367042Y-58951142D01*
X200367042Y-58951142D02*
X200367042Y-59522571D01*
X200367042Y-59522571D02*
X200176566Y-59903523D01*
X200176566Y-59903523D02*
X199986089Y-60094000D01*
X199986089Y-60094000D02*
X199605137Y-60284476D01*
X199605137Y-60284476D02*
X198081327Y-60284476D01*
X198081327Y-60284476D02*
X198081327Y-56284476D01*
X198081327Y-56284476D02*
X199414661Y-56284476D01*
X199414661Y-56284476D02*
X199795613Y-56474952D01*
X199795613Y-56474952D02*
X199986089Y-56665428D01*
X199986089Y-56665428D02*
X200176566Y-57046380D01*
X200176566Y-57046380D02*
X200176566Y-57427333D01*
X200176566Y-57427333D02*
X199986089Y-57808285D01*
X199986089Y-57808285D02*
X199795613Y-57998761D01*
X199795613Y-57998761D02*
X199414661Y-58189238D01*
X199414661Y-58189238D02*
X198081327Y-58189238D01*
X205128946Y-60284476D02*
X205128946Y-56284476D01*
X205128946Y-56284476D02*
X206462280Y-59141619D01*
X206462280Y-59141619D02*
X207795613Y-56284476D01*
X207795613Y-56284476D02*
X207795613Y-60284476D01*
X209509899Y-59141619D02*
X211414661Y-59141619D01*
X209128947Y-60284476D02*
X210462280Y-56284476D01*
X210462280Y-56284476D02*
X211795614Y-60284476D01*
X213128946Y-60284476D02*
X213128946Y-56284476D01*
X213128946Y-56284476D02*
X215414661Y-60284476D01*
X215414661Y-60284476D02*
X215414661Y-56284476D01*
X217319422Y-56284476D02*
X217319422Y-59522571D01*
X217319422Y-59522571D02*
X217509899Y-59903523D01*
X217509899Y-59903523D02*
X217700375Y-60094000D01*
X217700375Y-60094000D02*
X218081327Y-60284476D01*
X218081327Y-60284476D02*
X218843232Y-60284476D01*
X218843232Y-60284476D02*
X219224184Y-60094000D01*
X219224184Y-60094000D02*
X219414661Y-59903523D01*
X219414661Y-59903523D02*
X219605137Y-59522571D01*
X219605137Y-59522571D02*
X219605137Y-56284476D01*
X222843232Y-58189238D02*
X221509898Y-58189238D01*
X221509898Y-60284476D02*
X221509898Y-56284476D01*
X221509898Y-56284476D02*
X223414660Y-56284476D01*
X224747993Y-59141619D02*
X226652755Y-59141619D01*
X224367041Y-60284476D02*
X225700374Y-56284476D01*
X225700374Y-56284476D02*
X227033708Y-60284476D01*
X230652755Y-59903523D02*
X230462279Y-60094000D01*
X230462279Y-60094000D02*
X229890850Y-60284476D01*
X229890850Y-60284476D02*
X229509898Y-60284476D01*
X229509898Y-60284476D02*
X228938469Y-60094000D01*
X228938469Y-60094000D02*
X228557517Y-59713047D01*
X228557517Y-59713047D02*
X228367040Y-59332095D01*
X228367040Y-59332095D02*
X228176564Y-58570190D01*
X228176564Y-58570190D02*
X228176564Y-57998761D01*
X228176564Y-57998761D02*
X228367040Y-57236857D01*
X228367040Y-57236857D02*
X228557517Y-56855904D01*
X228557517Y-56855904D02*
X228938469Y-56474952D01*
X228938469Y-56474952D02*
X229509898Y-56284476D01*
X229509898Y-56284476D02*
X229890850Y-56284476D01*
X229890850Y-56284476D02*
X230462279Y-56474952D01*
X230462279Y-56474952D02*
X230652755Y-56665428D01*
X231795612Y-56284476D02*
X234081326Y-56284476D01*
X232938469Y-60284476D02*
X232938469Y-56284476D01*
X235414659Y-56284476D02*
X235414659Y-59522571D01*
X235414659Y-59522571D02*
X235605136Y-59903523D01*
X235605136Y-59903523D02*
X235795612Y-60094000D01*
X235795612Y-60094000D02*
X236176564Y-60284476D01*
X236176564Y-60284476D02*
X236938469Y-60284476D01*
X236938469Y-60284476D02*
X237319421Y-60094000D01*
X237319421Y-60094000D02*
X237509898Y-59903523D01*
X237509898Y-59903523D02*
X237700374Y-59522571D01*
X237700374Y-59522571D02*
X237700374Y-56284476D01*
X241890850Y-60284476D02*
X240557516Y-58379714D01*
X239605135Y-60284476D02*
X239605135Y-56284476D01*
X239605135Y-56284476D02*
X241128945Y-56284476D01*
X241128945Y-56284476D02*
X241509897Y-56474952D01*
X241509897Y-56474952D02*
X241700374Y-56665428D01*
X241700374Y-56665428D02*
X241890850Y-57046380D01*
X241890850Y-57046380D02*
X241890850Y-57617809D01*
X241890850Y-57617809D02*
X241700374Y-57998761D01*
X241700374Y-57998761D02*
X241509897Y-58189238D01*
X241509897Y-58189238D02*
X241128945Y-58379714D01*
X241128945Y-58379714D02*
X239605135Y-58379714D01*
X243605135Y-58189238D02*
X244938469Y-58189238D01*
X245509897Y-60284476D02*
X243605135Y-60284476D01*
X243605135Y-60284476D02*
X243605135Y-56284476D01*
X243605135Y-56284476D02*
X245509897Y-56284476D01*
X250271802Y-60284476D02*
X250271802Y-56284476D01*
X250271802Y-56284476D02*
X252557517Y-60284476D01*
X252557517Y-60284476D02*
X252557517Y-56284476D01*
X255224183Y-56284476D02*
X255986088Y-56284476D01*
X255986088Y-56284476D02*
X256367040Y-56474952D01*
X256367040Y-56474952D02*
X256747993Y-56855904D01*
X256747993Y-56855904D02*
X256938469Y-57617809D01*
X256938469Y-57617809D02*
X256938469Y-58951142D01*
X256938469Y-58951142D02*
X256747993Y-59713047D01*
X256747993Y-59713047D02*
X256367040Y-60094000D01*
X256367040Y-60094000D02*
X255986088Y-60284476D01*
X255986088Y-60284476D02*
X255224183Y-60284476D01*
X255224183Y-60284476D02*
X254843231Y-60094000D01*
X254843231Y-60094000D02*
X254462278Y-59713047D01*
X254462278Y-59713047D02*
X254271802Y-58951142D01*
X254271802Y-58951142D02*
X254271802Y-57617809D01*
X254271802Y-57617809D02*
X254462278Y-56855904D01*
X254462278Y-56855904D02*
X254843231Y-56474952D01*
X254843231Y-56474952D02*
X255224183Y-56284476D01*
X258081326Y-56284476D02*
X260367040Y-56284476D01*
X259224183Y-60284476D02*
X259224183Y-56284476D01*
X261700373Y-58189238D02*
X263033707Y-58189238D01*
X263605135Y-60284476D02*
X261700373Y-60284476D01*
X261700373Y-60284476D02*
X261700373Y-56284476D01*
X261700373Y-56284476D02*
X263605135Y-56284476D01*
X265128945Y-60094000D02*
X265700374Y-60284476D01*
X265700374Y-60284476D02*
X266652755Y-60284476D01*
X266652755Y-60284476D02*
X267033707Y-60094000D01*
X267033707Y-60094000D02*
X267224183Y-59903523D01*
X267224183Y-59903523D02*
X267414660Y-59522571D01*
X267414660Y-59522571D02*
X267414660Y-59141619D01*
X267414660Y-59141619D02*
X267224183Y-58760666D01*
X267224183Y-58760666D02*
X267033707Y-58570190D01*
X267033707Y-58570190D02*
X266652755Y-58379714D01*
X266652755Y-58379714D02*
X265890850Y-58189238D01*
X265890850Y-58189238D02*
X265509898Y-57998761D01*
X265509898Y-57998761D02*
X265319421Y-57808285D01*
X265319421Y-57808285D02*
X265128945Y-57427333D01*
X265128945Y-57427333D02*
X265128945Y-57046380D01*
X265128945Y-57046380D02*
X265319421Y-56665428D01*
X265319421Y-56665428D02*
X265509898Y-56474952D01*
X265509898Y-56474952D02*
X265890850Y-56284476D01*
X265890850Y-56284476D02*
X266843231Y-56284476D01*
X266843231Y-56284476D02*
X267414660Y-56474952D01*
D12*
X118857143Y-164638151D02*
X118857143Y-165304818D01*
X118619048Y-164257199D02*
X118380953Y-164971484D01*
X118380953Y-164971484D02*
X119000000Y-164971484D01*
X119809524Y-164304818D02*
X119619048Y-164304818D01*
X119619048Y-164304818D02*
X119523810Y-164352437D01*
X119523810Y-164352437D02*
X119476191Y-164400056D01*
X119476191Y-164400056D02*
X119380953Y-164542913D01*
X119380953Y-164542913D02*
X119333334Y-164733389D01*
X119333334Y-164733389D02*
X119333334Y-165114341D01*
X119333334Y-165114341D02*
X119380953Y-165209579D01*
X119380953Y-165209579D02*
X119428572Y-165257199D01*
X119428572Y-165257199D02*
X119523810Y-165304818D01*
X119523810Y-165304818D02*
X119714286Y-165304818D01*
X119714286Y-165304818D02*
X119809524Y-165257199D01*
X119809524Y-165257199D02*
X119857143Y-165209579D01*
X119857143Y-165209579D02*
X119904762Y-165114341D01*
X119904762Y-165114341D02*
X119904762Y-164876246D01*
X119904762Y-164876246D02*
X119857143Y-164781008D01*
X119857143Y-164781008D02*
X119809524Y-164733389D01*
X119809524Y-164733389D02*
X119714286Y-164685770D01*
X119714286Y-164685770D02*
X119523810Y-164685770D01*
X119523810Y-164685770D02*
X119428572Y-164733389D01*
X119428572Y-164733389D02*
X119380953Y-164781008D01*
X119380953Y-164781008D02*
X119333334Y-164876246D01*
X120333334Y-165209579D02*
X120380953Y-165257199D01*
X120380953Y-165257199D02*
X120333334Y-165304818D01*
X120333334Y-165304818D02*
X120285715Y-165257199D01*
X120285715Y-165257199D02*
X120333334Y-165209579D01*
X120333334Y-165209579D02*
X120333334Y-165304818D01*
X121000000Y-164304818D02*
X121095238Y-164304818D01*
X121095238Y-164304818D02*
X121190476Y-164352437D01*
X121190476Y-164352437D02*
X121238095Y-164400056D01*
X121238095Y-164400056D02*
X121285714Y-164495294D01*
X121285714Y-164495294D02*
X121333333Y-164685770D01*
X121333333Y-164685770D02*
X121333333Y-164923865D01*
X121333333Y-164923865D02*
X121285714Y-165114341D01*
X121285714Y-165114341D02*
X121238095Y-165209579D01*
X121238095Y-165209579D02*
X121190476Y-165257199D01*
X121190476Y-165257199D02*
X121095238Y-165304818D01*
X121095238Y-165304818D02*
X121000000Y-165304818D01*
X121000000Y-165304818D02*
X120904762Y-165257199D01*
X120904762Y-165257199D02*
X120857143Y-165209579D01*
X120857143Y-165209579D02*
X120809524Y-165114341D01*
X120809524Y-165114341D02*
X120761905Y-164923865D01*
X120761905Y-164923865D02*
X120761905Y-164685770D01*
X120761905Y-164685770D02*
X120809524Y-164495294D01*
X120809524Y-164495294D02*
X120857143Y-164400056D01*
X120857143Y-164400056D02*
X120904762Y-164352437D01*
X120904762Y-164352437D02*
X121000000Y-164304818D01*
X121952381Y-164304818D02*
X122047619Y-164304818D01*
X122047619Y-164304818D02*
X122142857Y-164352437D01*
X122142857Y-164352437D02*
X122190476Y-164400056D01*
X122190476Y-164400056D02*
X122238095Y-164495294D01*
X122238095Y-164495294D02*
X122285714Y-164685770D01*
X122285714Y-164685770D02*
X122285714Y-164923865D01*
X122285714Y-164923865D02*
X122238095Y-165114341D01*
X122238095Y-165114341D02*
X122190476Y-165209579D01*
X122190476Y-165209579D02*
X122142857Y-165257199D01*
X122142857Y-165257199D02*
X122047619Y-165304818D01*
X122047619Y-165304818D02*
X121952381Y-165304818D01*
X121952381Y-165304818D02*
X121857143Y-165257199D01*
X121857143Y-165257199D02*
X121809524Y-165209579D01*
X121809524Y-165209579D02*
X121761905Y-165114341D01*
X121761905Y-165114341D02*
X121714286Y-164923865D01*
X121714286Y-164923865D02*
X121714286Y-164685770D01*
X121714286Y-164685770D02*
X121761905Y-164495294D01*
X121761905Y-164495294D02*
X121809524Y-164400056D01*
X121809524Y-164400056D02*
X121857143Y-164352437D01*
X121857143Y-164352437D02*
X121952381Y-164304818D01*
X122904762Y-164304818D02*
X123000000Y-164304818D01*
X123000000Y-164304818D02*
X123095238Y-164352437D01*
X123095238Y-164352437D02*
X123142857Y-164400056D01*
X123142857Y-164400056D02*
X123190476Y-164495294D01*
X123190476Y-164495294D02*
X123238095Y-164685770D01*
X123238095Y-164685770D02*
X123238095Y-164923865D01*
X123238095Y-164923865D02*
X123190476Y-165114341D01*
X123190476Y-165114341D02*
X123142857Y-165209579D01*
X123142857Y-165209579D02*
X123095238Y-165257199D01*
X123095238Y-165257199D02*
X123000000Y-165304818D01*
X123000000Y-165304818D02*
X122904762Y-165304818D01*
X122904762Y-165304818D02*
X122809524Y-165257199D01*
X122809524Y-165257199D02*
X122761905Y-165209579D01*
X122761905Y-165209579D02*
X122714286Y-165114341D01*
X122714286Y-165114341D02*
X122666667Y-164923865D01*
X122666667Y-164923865D02*
X122666667Y-164685770D01*
X122666667Y-164685770D02*
X122714286Y-164495294D01*
X122714286Y-164495294D02*
X122761905Y-164400056D01*
X122761905Y-164400056D02*
X122809524Y-164352437D01*
X122809524Y-164352437D02*
X122904762Y-164304818D01*
X123857143Y-164304818D02*
X123952381Y-164304818D01*
X123952381Y-164304818D02*
X124047619Y-164352437D01*
X124047619Y-164352437D02*
X124095238Y-164400056D01*
X124095238Y-164400056D02*
X124142857Y-164495294D01*
X124142857Y-164495294D02*
X124190476Y-164685770D01*
X124190476Y-164685770D02*
X124190476Y-164923865D01*
X124190476Y-164923865D02*
X124142857Y-165114341D01*
X124142857Y-165114341D02*
X124095238Y-165209579D01*
X124095238Y-165209579D02*
X124047619Y-165257199D01*
X124047619Y-165257199D02*
X123952381Y-165304818D01*
X123952381Y-165304818D02*
X123857143Y-165304818D01*
X123857143Y-165304818D02*
X123761905Y-165257199D01*
X123761905Y-165257199D02*
X123714286Y-165209579D01*
X123714286Y-165209579D02*
X123666667Y-165114341D01*
X123666667Y-165114341D02*
X123619048Y-164923865D01*
X123619048Y-164923865D02*
X123619048Y-164685770D01*
X123619048Y-164685770D02*
X123666667Y-164495294D01*
X123666667Y-164495294D02*
X123714286Y-164400056D01*
X123714286Y-164400056D02*
X123761905Y-164352437D01*
X123761905Y-164352437D02*
X123857143Y-164304818D01*
X125380953Y-165304818D02*
X125380953Y-164638151D01*
X125380953Y-164733389D02*
X125428572Y-164685770D01*
X125428572Y-164685770D02*
X125523810Y-164638151D01*
X125523810Y-164638151D02*
X125666667Y-164638151D01*
X125666667Y-164638151D02*
X125761905Y-164685770D01*
X125761905Y-164685770D02*
X125809524Y-164781008D01*
X125809524Y-164781008D02*
X125809524Y-165304818D01*
X125809524Y-164781008D02*
X125857143Y-164685770D01*
X125857143Y-164685770D02*
X125952381Y-164638151D01*
X125952381Y-164638151D02*
X126095238Y-164638151D01*
X126095238Y-164638151D02*
X126190477Y-164685770D01*
X126190477Y-164685770D02*
X126238096Y-164781008D01*
X126238096Y-164781008D02*
X126238096Y-165304818D01*
X126714286Y-165304818D02*
X126714286Y-164638151D01*
X126714286Y-164733389D02*
X126761905Y-164685770D01*
X126761905Y-164685770D02*
X126857143Y-164638151D01*
X126857143Y-164638151D02*
X127000000Y-164638151D01*
X127000000Y-164638151D02*
X127095238Y-164685770D01*
X127095238Y-164685770D02*
X127142857Y-164781008D01*
X127142857Y-164781008D02*
X127142857Y-165304818D01*
X127142857Y-164781008D02*
X127190476Y-164685770D01*
X127190476Y-164685770D02*
X127285714Y-164638151D01*
X127285714Y-164638151D02*
X127428571Y-164638151D01*
X127428571Y-164638151D02*
X127523810Y-164685770D01*
X127523810Y-164685770D02*
X127571429Y-164781008D01*
X127571429Y-164781008D02*
X127571429Y-165304818D01*
X100000000Y-150500000D02*
X100000000Y-166586419D01*
X146000000Y-150500000D02*
X146000000Y-166586419D01*
X100000000Y-165999999D02*
X146000000Y-165999999D01*
X100000000Y-165999999D02*
X146000000Y-165999999D01*
X100000000Y-165999999D02*
X101126504Y-165413578D01*
X100000000Y-165999999D02*
X101126504Y-166586420D01*
X146000000Y-165999999D02*
X144873496Y-166586420D01*
X146000000Y-165999999D02*
X144873496Y-165413578D01*
X79304820Y-104523809D02*
X79304820Y-105095237D01*
X79304820Y-104809523D02*
X78304820Y-104809523D01*
X78304820Y-104809523D02*
X78447677Y-104904761D01*
X78447677Y-104904761D02*
X78542915Y-104999999D01*
X78542915Y-104999999D02*
X78590534Y-105095237D01*
X78304820Y-103904761D02*
X78304820Y-103809523D01*
X78304820Y-103809523D02*
X78352439Y-103714285D01*
X78352439Y-103714285D02*
X78400058Y-103666666D01*
X78400058Y-103666666D02*
X78495296Y-103619047D01*
X78495296Y-103619047D02*
X78685772Y-103571428D01*
X78685772Y-103571428D02*
X78923867Y-103571428D01*
X78923867Y-103571428D02*
X79114343Y-103619047D01*
X79114343Y-103619047D02*
X79209581Y-103666666D01*
X79209581Y-103666666D02*
X79257201Y-103714285D01*
X79257201Y-103714285D02*
X79304820Y-103809523D01*
X79304820Y-103809523D02*
X79304820Y-103904761D01*
X79304820Y-103904761D02*
X79257201Y-103999999D01*
X79257201Y-103999999D02*
X79209581Y-104047618D01*
X79209581Y-104047618D02*
X79114343Y-104095237D01*
X79114343Y-104095237D02*
X78923867Y-104142856D01*
X78923867Y-104142856D02*
X78685772Y-104142856D01*
X78685772Y-104142856D02*
X78495296Y-104095237D01*
X78495296Y-104095237D02*
X78400058Y-104047618D01*
X78400058Y-104047618D02*
X78352439Y-103999999D01*
X78352439Y-103999999D02*
X78304820Y-103904761D01*
X78304820Y-102952380D02*
X78304820Y-102857142D01*
X78304820Y-102857142D02*
X78352439Y-102761904D01*
X78352439Y-102761904D02*
X78400058Y-102714285D01*
X78400058Y-102714285D02*
X78495296Y-102666666D01*
X78495296Y-102666666D02*
X78685772Y-102619047D01*
X78685772Y-102619047D02*
X78923867Y-102619047D01*
X78923867Y-102619047D02*
X79114343Y-102666666D01*
X79114343Y-102666666D02*
X79209581Y-102714285D01*
X79209581Y-102714285D02*
X79257201Y-102761904D01*
X79257201Y-102761904D02*
X79304820Y-102857142D01*
X79304820Y-102857142D02*
X79304820Y-102952380D01*
X79304820Y-102952380D02*
X79257201Y-103047618D01*
X79257201Y-103047618D02*
X79209581Y-103095237D01*
X79209581Y-103095237D02*
X79114343Y-103142856D01*
X79114343Y-103142856D02*
X78923867Y-103190475D01*
X78923867Y-103190475D02*
X78685772Y-103190475D01*
X78685772Y-103190475D02*
X78495296Y-103142856D01*
X78495296Y-103142856D02*
X78400058Y-103095237D01*
X78400058Y-103095237D02*
X78352439Y-103047618D01*
X78352439Y-103047618D02*
X78304820Y-102952380D01*
X79209581Y-102190475D02*
X79257201Y-102142856D01*
X79257201Y-102142856D02*
X79304820Y-102190475D01*
X79304820Y-102190475D02*
X79257201Y-102238094D01*
X79257201Y-102238094D02*
X79209581Y-102190475D01*
X79209581Y-102190475D02*
X79304820Y-102190475D01*
X78304820Y-101523809D02*
X78304820Y-101428571D01*
X78304820Y-101428571D02*
X78352439Y-101333333D01*
X78352439Y-101333333D02*
X78400058Y-101285714D01*
X78400058Y-101285714D02*
X78495296Y-101238095D01*
X78495296Y-101238095D02*
X78685772Y-101190476D01*
X78685772Y-101190476D02*
X78923867Y-101190476D01*
X78923867Y-101190476D02*
X79114343Y-101238095D01*
X79114343Y-101238095D02*
X79209581Y-101285714D01*
X79209581Y-101285714D02*
X79257201Y-101333333D01*
X79257201Y-101333333D02*
X79304820Y-101428571D01*
X79304820Y-101428571D02*
X79304820Y-101523809D01*
X79304820Y-101523809D02*
X79257201Y-101619047D01*
X79257201Y-101619047D02*
X79209581Y-101666666D01*
X79209581Y-101666666D02*
X79114343Y-101714285D01*
X79114343Y-101714285D02*
X78923867Y-101761904D01*
X78923867Y-101761904D02*
X78685772Y-101761904D01*
X78685772Y-101761904D02*
X78495296Y-101714285D01*
X78495296Y-101714285D02*
X78400058Y-101666666D01*
X78400058Y-101666666D02*
X78352439Y-101619047D01*
X78352439Y-101619047D02*
X78304820Y-101523809D01*
X78304820Y-100571428D02*
X78304820Y-100476190D01*
X78304820Y-100476190D02*
X78352439Y-100380952D01*
X78352439Y-100380952D02*
X78400058Y-100333333D01*
X78400058Y-100333333D02*
X78495296Y-100285714D01*
X78495296Y-100285714D02*
X78685772Y-100238095D01*
X78685772Y-100238095D02*
X78923867Y-100238095D01*
X78923867Y-100238095D02*
X79114343Y-100285714D01*
X79114343Y-100285714D02*
X79209581Y-100333333D01*
X79209581Y-100333333D02*
X79257201Y-100380952D01*
X79257201Y-100380952D02*
X79304820Y-100476190D01*
X79304820Y-100476190D02*
X79304820Y-100571428D01*
X79304820Y-100571428D02*
X79257201Y-100666666D01*
X79257201Y-100666666D02*
X79209581Y-100714285D01*
X79209581Y-100714285D02*
X79114343Y-100761904D01*
X79114343Y-100761904D02*
X78923867Y-100809523D01*
X78923867Y-100809523D02*
X78685772Y-100809523D01*
X78685772Y-100809523D02*
X78495296Y-100761904D01*
X78495296Y-100761904D02*
X78400058Y-100714285D01*
X78400058Y-100714285D02*
X78352439Y-100666666D01*
X78352439Y-100666666D02*
X78304820Y-100571428D01*
X78304820Y-99619047D02*
X78304820Y-99523809D01*
X78304820Y-99523809D02*
X78352439Y-99428571D01*
X78352439Y-99428571D02*
X78400058Y-99380952D01*
X78400058Y-99380952D02*
X78495296Y-99333333D01*
X78495296Y-99333333D02*
X78685772Y-99285714D01*
X78685772Y-99285714D02*
X78923867Y-99285714D01*
X78923867Y-99285714D02*
X79114343Y-99333333D01*
X79114343Y-99333333D02*
X79209581Y-99380952D01*
X79209581Y-99380952D02*
X79257201Y-99428571D01*
X79257201Y-99428571D02*
X79304820Y-99523809D01*
X79304820Y-99523809D02*
X79304820Y-99619047D01*
X79304820Y-99619047D02*
X79257201Y-99714285D01*
X79257201Y-99714285D02*
X79209581Y-99761904D01*
X79209581Y-99761904D02*
X79114343Y-99809523D01*
X79114343Y-99809523D02*
X78923867Y-99857142D01*
X78923867Y-99857142D02*
X78685772Y-99857142D01*
X78685772Y-99857142D02*
X78495296Y-99809523D01*
X78495296Y-99809523D02*
X78400058Y-99761904D01*
X78400058Y-99761904D02*
X78352439Y-99714285D01*
X78352439Y-99714285D02*
X78304820Y-99619047D01*
X78304820Y-98666666D02*
X78304820Y-98571428D01*
X78304820Y-98571428D02*
X78352439Y-98476190D01*
X78352439Y-98476190D02*
X78400058Y-98428571D01*
X78400058Y-98428571D02*
X78495296Y-98380952D01*
X78495296Y-98380952D02*
X78685772Y-98333333D01*
X78685772Y-98333333D02*
X78923867Y-98333333D01*
X78923867Y-98333333D02*
X79114343Y-98380952D01*
X79114343Y-98380952D02*
X79209581Y-98428571D01*
X79209581Y-98428571D02*
X79257201Y-98476190D01*
X79257201Y-98476190D02*
X79304820Y-98571428D01*
X79304820Y-98571428D02*
X79304820Y-98666666D01*
X79304820Y-98666666D02*
X79257201Y-98761904D01*
X79257201Y-98761904D02*
X79209581Y-98809523D01*
X79209581Y-98809523D02*
X79114343Y-98857142D01*
X79114343Y-98857142D02*
X78923867Y-98904761D01*
X78923867Y-98904761D02*
X78685772Y-98904761D01*
X78685772Y-98904761D02*
X78495296Y-98857142D01*
X78495296Y-98857142D02*
X78400058Y-98809523D01*
X78400058Y-98809523D02*
X78352439Y-98761904D01*
X78352439Y-98761904D02*
X78304820Y-98666666D01*
X79304820Y-97142856D02*
X78638153Y-97142856D01*
X78733391Y-97142856D02*
X78685772Y-97095237D01*
X78685772Y-97095237D02*
X78638153Y-96999999D01*
X78638153Y-96999999D02*
X78638153Y-96857142D01*
X78638153Y-96857142D02*
X78685772Y-96761904D01*
X78685772Y-96761904D02*
X78781010Y-96714285D01*
X78781010Y-96714285D02*
X79304820Y-96714285D01*
X78781010Y-96714285D02*
X78685772Y-96666666D01*
X78685772Y-96666666D02*
X78638153Y-96571428D01*
X78638153Y-96571428D02*
X78638153Y-96428571D01*
X78638153Y-96428571D02*
X78685772Y-96333332D01*
X78685772Y-96333332D02*
X78781010Y-96285713D01*
X78781010Y-96285713D02*
X79304820Y-96285713D01*
X79304820Y-95809523D02*
X78638153Y-95809523D01*
X78733391Y-95809523D02*
X78685772Y-95761904D01*
X78685772Y-95761904D02*
X78638153Y-95666666D01*
X78638153Y-95666666D02*
X78638153Y-95523809D01*
X78638153Y-95523809D02*
X78685772Y-95428571D01*
X78685772Y-95428571D02*
X78781010Y-95380952D01*
X78781010Y-95380952D02*
X79304820Y-95380952D01*
X78781010Y-95380952D02*
X78685772Y-95333333D01*
X78685772Y-95333333D02*
X78638153Y-95238095D01*
X78638153Y-95238095D02*
X78638153Y-95095238D01*
X78638153Y-95095238D02*
X78685772Y-94999999D01*
X78685772Y-94999999D02*
X78781010Y-94952380D01*
X78781010Y-94952380D02*
X79304820Y-94952380D01*
X99500000Y-50000000D02*
X79413581Y-50000000D01*
X99500000Y-150000000D02*
X79413581Y-150000000D01*
X80000001Y-50000000D02*
X80000001Y-150000000D01*
X80000001Y-50000000D02*
X80000001Y-150000000D01*
X80000001Y-50000000D02*
X80586422Y-51126504D01*
X80000001Y-50000000D02*
X79413580Y-51126504D01*
X80000001Y-150000000D02*
X79413580Y-148873496D01*
X80000001Y-150000000D02*
X80586422Y-148873496D01*
M02*
