M48
; DRILL file {KiCad 7.0.6} date Wed 09 Aug 2023 14:49:31
; FORMAT={-:-/ absolute / metric / decimal}
; #@! TF.CreationDate,2023-08-09T14:49:31+09:30
; #@! TF.GenerationSoftware,Kicad,Pcbnew,7.0.6
; #@! TF.FileFunction,Plated,1,2,PTH
FMAT,2
METRIC
; #@! TA.AperFunction,Plated,PTH,ViaDrill
T1C0.300
; #@! TA.AperFunction,Plated,PTH,ViaDrill
T2C0.400
; #@! TA.AperFunction,Plated,PTH,ComponentDrill
T3C0.400
; #@! TA.AperFunction,Plated,PTH,ComponentDrill
T4C0.600
; #@! TA.AperFunction,Plated,PTH,ComponentDrill
T5C1.016
; #@! TA.AperFunction,Plated,PTH,ComponentDrill
T6C3.700
%
G90
G05
T1
X101.2Y-111.2
X101.25Y-139.75
X101.8Y-148.4
X103.5Y-133.25
X103.5Y-134.75
X103.5Y-136.25
X103.75Y-138.0
X104.25Y-145.75
X104.5Y-138.25
X106.0Y-119.6
X106.4Y-105.8
X106.6Y-147.2
X107.4Y-137.2
X107.5Y-126.25
X107.6Y-131.0
X108.0Y-97.0
X108.25Y-132.5
X108.8Y-116.6
X109.0Y-141.71
X109.25Y-133.5
X110.0Y-127.0
X110.0Y-128.5
X110.2Y-133.2
X110.211Y-132.211
X110.236Y-131.264
X110.25Y-134.0
X110.8Y-143.8
X111.0Y-141.6
X111.0Y-143.05
X111.25Y-129.5
X111.5Y-119.75
X112.2Y-102.2
X112.5Y-97.25
X114.0Y-108.75
X114.5Y-119.75
X115.0Y-108.75
X115.0Y-130.95
X115.5Y-123.0
X115.6Y-145.2
X116.0Y-108.0
X116.0Y-121.4
X116.0Y-123.5
X116.0Y-139.5
X117.75Y-116.25
X118.6Y-112.25
X119.8Y-113.0
X120.0Y-120.75
X121.0Y-119.5
X121.0Y-138.2
X121.2Y-146.8
X121.75Y-116.25
X122.75Y-116.25
X123.0Y-91.8
X123.0Y-95.0
X123.0Y-112.0
X124.0Y-112.0
X124.0Y-116.25
X124.75Y-112.0
X125.25Y-120.0
X125.5Y-133.0
X125.5Y-133.75
X126.25Y-116.5
X126.75Y-115.75
X127.0Y-121.75
X127.0Y-122.75
X127.75Y-79.0
X127.75Y-115.75
X128.235Y-81.0
X129.0Y-143.5
X129.235Y-115.75
X129.75Y-116.5
X130.0Y-108.25
X130.0Y-123.5
X130.25Y-95.25
X130.5Y-123.0
X131.0Y-112.5
X131.0Y-122.5
X131.0Y-95.765
X131.25Y-108.25
X131.4Y-97.1
X131.4Y-146.8
X131.75Y-112.0
X132.25Y-119.75
X132.75Y-90.0
X132.75Y-103.25
X133.2Y-114.2
X133.25Y-125.5
X133.25Y-126.5
X133.25Y-127.5
X133.6Y-132.0
X133.6Y-133.0
X133.6Y-134.0
X133.75Y-74.5
X133.75Y-90.0
X133.75Y-103.25
X134.5Y-97.75
X134.75Y-69.5
X134.75Y-88.75
X134.75Y-96.0
X134.75Y-103.25
X135.5Y-145.5
X135.6Y-84.0
X135.75Y-69.5
X137.25Y-76.75
X138.4Y-117.8
X139.0Y-85.8
X139.0Y-125.25
X139.0Y-130.0
X140.0Y-101.25
X141.25Y-132.75
X142.75Y-137.0
T2
X107.8Y-111.062
X108.75Y-112.0
X109.0Y-100.5
X109.75Y-101.25
X109.75Y-112.75
X110.75Y-113.5
X110.75Y-116.0
T3
X137.9Y-140.525
X137.9Y-141.375
X137.9Y-142.225
X137.9Y-143.075
X137.9Y-143.925
X137.9Y-144.775
X137.9Y-145.625
X137.9Y-146.475
X139.225Y-140.52
X139.225Y-141.37
X139.225Y-142.22
X139.225Y-143.07
X139.225Y-143.92
X139.225Y-144.77
X139.225Y-145.62
X139.225Y-146.475
T5
X132.17Y-79.0
X134.71Y-79.0
X137.25Y-79.0
T6
X104.0Y-71.0
X123.0Y-54.0
X123.0Y-74.0
X123.0Y-84.0
X123.0Y-104.0
X133.0Y-139.5
X142.0Y-71.0
T4
G00X138.13Y-139.175
M15
G01X139.63Y-139.175
M16
G05
G00X138.13Y-147.825
M15
G01X139.63Y-147.825
M16
G05
G00X141.86Y-139.175
M15
G01X142.66Y-139.175
M16
G05
G00X141.86Y-147.825
M15
G01X142.66Y-147.825
M16
G05
T0
M30
