%TF.GenerationSoftware,KiCad,Pcbnew,7.0.6*%
%TF.CreationDate,2023-08-09T14:48:53+09:30*%
%TF.ProjectId,backplane,6261636b-706c-4616-9e65-2e6b69636164,V1.0*%
%TF.SameCoordinates,Original*%
%TF.FileFunction,Legend,Top*%
%TF.FilePolarity,Positive*%
%FSLAX46Y46*%
G04 Gerber Fmt 4.6, Leading zero omitted, Abs format (unit mm)*
G04 Created by KiCad (PCBNEW 7.0.6) date 2023-08-09 14:48:53*
%MOMM*%
%LPD*%
G01*
G04 APERTURE LIST*
%ADD10C,0.200000*%
%ADD11C,0.150000*%
%ADD12C,0.250000*%
%ADD13C,0.100000*%
%ADD14C,0.120000*%
G04 APERTURE END LIST*
D10*
X138541101Y-125652219D02*
X138207768Y-125176028D01*
X137969673Y-125652219D02*
X137969673Y-124652219D01*
X137969673Y-124652219D02*
X138350625Y-124652219D01*
X138350625Y-124652219D02*
X138445863Y-124699838D01*
X138445863Y-124699838D02*
X138493482Y-124747457D01*
X138493482Y-124747457D02*
X138541101Y-124842695D01*
X138541101Y-124842695D02*
X138541101Y-124985552D01*
X138541101Y-124985552D02*
X138493482Y-125080790D01*
X138493482Y-125080790D02*
X138445863Y-125128409D01*
X138445863Y-125128409D02*
X138350625Y-125176028D01*
X138350625Y-125176028D02*
X137969673Y-125176028D01*
X138303006Y-129928409D02*
X138445863Y-129976028D01*
X138445863Y-129976028D02*
X138493482Y-130023647D01*
X138493482Y-130023647D02*
X138541101Y-130118885D01*
X138541101Y-130118885D02*
X138541101Y-130261742D01*
X138541101Y-130261742D02*
X138493482Y-130356980D01*
X138493482Y-130356980D02*
X138445863Y-130404600D01*
X138445863Y-130404600D02*
X138350625Y-130452219D01*
X138350625Y-130452219D02*
X137969673Y-130452219D01*
X137969673Y-130452219D02*
X137969673Y-129452219D01*
X137969673Y-129452219D02*
X138303006Y-129452219D01*
X138303006Y-129452219D02*
X138398244Y-129499838D01*
X138398244Y-129499838D02*
X138445863Y-129547457D01*
X138445863Y-129547457D02*
X138493482Y-129642695D01*
X138493482Y-129642695D02*
X138493482Y-129737933D01*
X138493482Y-129737933D02*
X138445863Y-129833171D01*
X138445863Y-129833171D02*
X138398244Y-129880790D01*
X138398244Y-129880790D02*
X138303006Y-129928409D01*
X138303006Y-129928409D02*
X137969673Y-129928409D01*
D11*
X128689160Y-54802200D02*
X128832017Y-54849819D01*
X128832017Y-54849819D02*
X129070112Y-54849819D01*
X129070112Y-54849819D02*
X129165350Y-54802200D01*
X129165350Y-54802200D02*
X129212969Y-54754580D01*
X129212969Y-54754580D02*
X129260588Y-54659342D01*
X129260588Y-54659342D02*
X129260588Y-54564104D01*
X129260588Y-54564104D02*
X129212969Y-54468866D01*
X129212969Y-54468866D02*
X129165350Y-54421247D01*
X129165350Y-54421247D02*
X129070112Y-54373628D01*
X129070112Y-54373628D02*
X128879636Y-54326009D01*
X128879636Y-54326009D02*
X128784398Y-54278390D01*
X128784398Y-54278390D02*
X128736779Y-54230771D01*
X128736779Y-54230771D02*
X128689160Y-54135533D01*
X128689160Y-54135533D02*
X128689160Y-54040295D01*
X128689160Y-54040295D02*
X128736779Y-53945057D01*
X128736779Y-53945057D02*
X128784398Y-53897438D01*
X128784398Y-53897438D02*
X128879636Y-53849819D01*
X128879636Y-53849819D02*
X129117731Y-53849819D01*
X129117731Y-53849819D02*
X129260588Y-53897438D01*
X129689160Y-54754580D02*
X129736779Y-54802200D01*
X129736779Y-54802200D02*
X129689160Y-54849819D01*
X129689160Y-54849819D02*
X129641541Y-54802200D01*
X129641541Y-54802200D02*
X129689160Y-54754580D01*
X129689160Y-54754580D02*
X129689160Y-54849819D01*
X130736778Y-54849819D02*
X130403445Y-54373628D01*
X130165350Y-54849819D02*
X130165350Y-53849819D01*
X130165350Y-53849819D02*
X130546302Y-53849819D01*
X130546302Y-53849819D02*
X130641540Y-53897438D01*
X130641540Y-53897438D02*
X130689159Y-53945057D01*
X130689159Y-53945057D02*
X130736778Y-54040295D01*
X130736778Y-54040295D02*
X130736778Y-54183152D01*
X130736778Y-54183152D02*
X130689159Y-54278390D01*
X130689159Y-54278390D02*
X130641540Y-54326009D01*
X130641540Y-54326009D02*
X130546302Y-54373628D01*
X130546302Y-54373628D02*
X130165350Y-54373628D01*
X131117731Y-54564104D02*
X131593921Y-54564104D01*
X131022493Y-54849819D02*
X131355826Y-53849819D01*
X131355826Y-53849819D02*
X131689159Y-54849819D01*
X132022493Y-54849819D02*
X132022493Y-53849819D01*
X132022493Y-53849819D02*
X132403445Y-53849819D01*
X132403445Y-53849819D02*
X132498683Y-53897438D01*
X132498683Y-53897438D02*
X132546302Y-53945057D01*
X132546302Y-53945057D02*
X132593921Y-54040295D01*
X132593921Y-54040295D02*
X132593921Y-54183152D01*
X132593921Y-54183152D02*
X132546302Y-54278390D01*
X132546302Y-54278390D02*
X132498683Y-54326009D01*
X132498683Y-54326009D02*
X132403445Y-54373628D01*
X132403445Y-54373628D02*
X132022493Y-54373628D01*
X132974874Y-54802200D02*
X133117731Y-54849819D01*
X133117731Y-54849819D02*
X133355826Y-54849819D01*
X133355826Y-54849819D02*
X133451064Y-54802200D01*
X133451064Y-54802200D02*
X133498683Y-54754580D01*
X133498683Y-54754580D02*
X133546302Y-54659342D01*
X133546302Y-54659342D02*
X133546302Y-54564104D01*
X133546302Y-54564104D02*
X133498683Y-54468866D01*
X133498683Y-54468866D02*
X133451064Y-54421247D01*
X133451064Y-54421247D02*
X133355826Y-54373628D01*
X133355826Y-54373628D02*
X133165350Y-54326009D01*
X133165350Y-54326009D02*
X133070112Y-54278390D01*
X133070112Y-54278390D02*
X133022493Y-54230771D01*
X133022493Y-54230771D02*
X132974874Y-54135533D01*
X132974874Y-54135533D02*
X132974874Y-54040295D01*
X132974874Y-54040295D02*
X133022493Y-53945057D01*
X133022493Y-53945057D02*
X133070112Y-53897438D01*
X133070112Y-53897438D02*
X133165350Y-53849819D01*
X133165350Y-53849819D02*
X133403445Y-53849819D01*
X133403445Y-53849819D02*
X133546302Y-53897438D01*
X134165350Y-53849819D02*
X134355826Y-53849819D01*
X134355826Y-53849819D02*
X134451064Y-53897438D01*
X134451064Y-53897438D02*
X134546302Y-53992676D01*
X134546302Y-53992676D02*
X134593921Y-54183152D01*
X134593921Y-54183152D02*
X134593921Y-54516485D01*
X134593921Y-54516485D02*
X134546302Y-54706961D01*
X134546302Y-54706961D02*
X134451064Y-54802200D01*
X134451064Y-54802200D02*
X134355826Y-54849819D01*
X134355826Y-54849819D02*
X134165350Y-54849819D01*
X134165350Y-54849819D02*
X134070112Y-54802200D01*
X134070112Y-54802200D02*
X133974874Y-54706961D01*
X133974874Y-54706961D02*
X133927255Y-54516485D01*
X133927255Y-54516485D02*
X133927255Y-54183152D01*
X133927255Y-54183152D02*
X133974874Y-53992676D01*
X133974874Y-53992676D02*
X134070112Y-53897438D01*
X134070112Y-53897438D02*
X134165350Y-53849819D01*
X135022493Y-54849819D02*
X135022493Y-53849819D01*
X135022493Y-53849819D02*
X135593921Y-54849819D01*
X135593921Y-54849819D02*
X135593921Y-53849819D01*
X136784398Y-53945057D02*
X136832017Y-53897438D01*
X136832017Y-53897438D02*
X136927255Y-53849819D01*
X136927255Y-53849819D02*
X137165350Y-53849819D01*
X137165350Y-53849819D02*
X137260588Y-53897438D01*
X137260588Y-53897438D02*
X137308207Y-53945057D01*
X137308207Y-53945057D02*
X137355826Y-54040295D01*
X137355826Y-54040295D02*
X137355826Y-54135533D01*
X137355826Y-54135533D02*
X137308207Y-54278390D01*
X137308207Y-54278390D02*
X136736779Y-54849819D01*
X136736779Y-54849819D02*
X137355826Y-54849819D01*
X137974874Y-53849819D02*
X138070112Y-53849819D01*
X138070112Y-53849819D02*
X138165350Y-53897438D01*
X138165350Y-53897438D02*
X138212969Y-53945057D01*
X138212969Y-53945057D02*
X138260588Y-54040295D01*
X138260588Y-54040295D02*
X138308207Y-54230771D01*
X138308207Y-54230771D02*
X138308207Y-54468866D01*
X138308207Y-54468866D02*
X138260588Y-54659342D01*
X138260588Y-54659342D02*
X138212969Y-54754580D01*
X138212969Y-54754580D02*
X138165350Y-54802200D01*
X138165350Y-54802200D02*
X138070112Y-54849819D01*
X138070112Y-54849819D02*
X137974874Y-54849819D01*
X137974874Y-54849819D02*
X137879636Y-54802200D01*
X137879636Y-54802200D02*
X137832017Y-54754580D01*
X137832017Y-54754580D02*
X137784398Y-54659342D01*
X137784398Y-54659342D02*
X137736779Y-54468866D01*
X137736779Y-54468866D02*
X137736779Y-54230771D01*
X137736779Y-54230771D02*
X137784398Y-54040295D01*
X137784398Y-54040295D02*
X137832017Y-53945057D01*
X137832017Y-53945057D02*
X137879636Y-53897438D01*
X137879636Y-53897438D02*
X137974874Y-53849819D01*
X138689160Y-53945057D02*
X138736779Y-53897438D01*
X138736779Y-53897438D02*
X138832017Y-53849819D01*
X138832017Y-53849819D02*
X139070112Y-53849819D01*
X139070112Y-53849819D02*
X139165350Y-53897438D01*
X139165350Y-53897438D02*
X139212969Y-53945057D01*
X139212969Y-53945057D02*
X139260588Y-54040295D01*
X139260588Y-54040295D02*
X139260588Y-54135533D01*
X139260588Y-54135533D02*
X139212969Y-54278390D01*
X139212969Y-54278390D02*
X138641541Y-54849819D01*
X138641541Y-54849819D02*
X139260588Y-54849819D01*
X139593922Y-53849819D02*
X140212969Y-53849819D01*
X140212969Y-53849819D02*
X139879636Y-54230771D01*
X139879636Y-54230771D02*
X140022493Y-54230771D01*
X140022493Y-54230771D02*
X140117731Y-54278390D01*
X140117731Y-54278390D02*
X140165350Y-54326009D01*
X140165350Y-54326009D02*
X140212969Y-54421247D01*
X140212969Y-54421247D02*
X140212969Y-54659342D01*
X140212969Y-54659342D02*
X140165350Y-54754580D01*
X140165350Y-54754580D02*
X140117731Y-54802200D01*
X140117731Y-54802200D02*
X140022493Y-54849819D01*
X140022493Y-54849819D02*
X139736779Y-54849819D01*
X139736779Y-54849819D02*
X139641541Y-54802200D01*
X139641541Y-54802200D02*
X139593922Y-54754580D01*
X128593922Y-55459819D02*
X128927255Y-56459819D01*
X128927255Y-56459819D02*
X129260588Y-55459819D01*
X130117731Y-56459819D02*
X129546303Y-56459819D01*
X129832017Y-56459819D02*
X129832017Y-55459819D01*
X129832017Y-55459819D02*
X129736779Y-55602676D01*
X129736779Y-55602676D02*
X129641541Y-55697914D01*
X129641541Y-55697914D02*
X129546303Y-55745533D01*
X130546303Y-56364580D02*
X130593922Y-56412200D01*
X130593922Y-56412200D02*
X130546303Y-56459819D01*
X130546303Y-56459819D02*
X130498684Y-56412200D01*
X130498684Y-56412200D02*
X130546303Y-56364580D01*
X130546303Y-56364580D02*
X130546303Y-56459819D01*
X131212969Y-55459819D02*
X131308207Y-55459819D01*
X131308207Y-55459819D02*
X131403445Y-55507438D01*
X131403445Y-55507438D02*
X131451064Y-55555057D01*
X131451064Y-55555057D02*
X131498683Y-55650295D01*
X131498683Y-55650295D02*
X131546302Y-55840771D01*
X131546302Y-55840771D02*
X131546302Y-56078866D01*
X131546302Y-56078866D02*
X131498683Y-56269342D01*
X131498683Y-56269342D02*
X131451064Y-56364580D01*
X131451064Y-56364580D02*
X131403445Y-56412200D01*
X131403445Y-56412200D02*
X131308207Y-56459819D01*
X131308207Y-56459819D02*
X131212969Y-56459819D01*
X131212969Y-56459819D02*
X131117731Y-56412200D01*
X131117731Y-56412200D02*
X131070112Y-56364580D01*
X131070112Y-56364580D02*
X131022493Y-56269342D01*
X131022493Y-56269342D02*
X130974874Y-56078866D01*
X130974874Y-56078866D02*
X130974874Y-55840771D01*
X130974874Y-55840771D02*
X131022493Y-55650295D01*
X131022493Y-55650295D02*
X131070112Y-55555057D01*
X131070112Y-55555057D02*
X131117731Y-55507438D01*
X131117731Y-55507438D02*
X131212969Y-55459819D01*
X127250000Y-95250000D02*
X130250000Y-95250000D01*
X130250000Y-98250000D01*
X127250000Y-98250000D01*
X127250000Y-95250000D01*
X131750000Y-95250000D02*
X134750000Y-95250000D01*
X134750000Y-98250000D01*
X131750000Y-98250000D01*
X131750000Y-95250000D01*
X117408207Y-126954819D02*
X117074874Y-126478628D01*
X116836779Y-126954819D02*
X116836779Y-125954819D01*
X116836779Y-125954819D02*
X117217731Y-125954819D01*
X117217731Y-125954819D02*
X117312969Y-126002438D01*
X117312969Y-126002438D02*
X117360588Y-126050057D01*
X117360588Y-126050057D02*
X117408207Y-126145295D01*
X117408207Y-126145295D02*
X117408207Y-126288152D01*
X117408207Y-126288152D02*
X117360588Y-126383390D01*
X117360588Y-126383390D02*
X117312969Y-126431009D01*
X117312969Y-126431009D02*
X117217731Y-126478628D01*
X117217731Y-126478628D02*
X116836779Y-126478628D01*
X117693922Y-125954819D02*
X118265350Y-125954819D01*
X117979636Y-126954819D02*
X117979636Y-125954819D01*
X119170112Y-126859580D02*
X119122493Y-126907200D01*
X119122493Y-126907200D02*
X118979636Y-126954819D01*
X118979636Y-126954819D02*
X118884398Y-126954819D01*
X118884398Y-126954819D02*
X118741541Y-126907200D01*
X118741541Y-126907200D02*
X118646303Y-126811961D01*
X118646303Y-126811961D02*
X118598684Y-126716723D01*
X118598684Y-126716723D02*
X118551065Y-126526247D01*
X118551065Y-126526247D02*
X118551065Y-126383390D01*
X118551065Y-126383390D02*
X118598684Y-126192914D01*
X118598684Y-126192914D02*
X118646303Y-126097676D01*
X118646303Y-126097676D02*
X118741541Y-126002438D01*
X118741541Y-126002438D02*
X118884398Y-125954819D01*
X118884398Y-125954819D02*
X118979636Y-125954819D01*
X118979636Y-125954819D02*
X119122493Y-126002438D01*
X119122493Y-126002438D02*
X119170112Y-126050057D01*
X124401315Y-95499580D02*
X124353696Y-95547200D01*
X124353696Y-95547200D02*
X124210839Y-95594819D01*
X124210839Y-95594819D02*
X124115601Y-95594819D01*
X124115601Y-95594819D02*
X123972744Y-95547200D01*
X123972744Y-95547200D02*
X123877506Y-95451961D01*
X123877506Y-95451961D02*
X123829887Y-95356723D01*
X123829887Y-95356723D02*
X123782268Y-95166247D01*
X123782268Y-95166247D02*
X123782268Y-95023390D01*
X123782268Y-95023390D02*
X123829887Y-94832914D01*
X123829887Y-94832914D02*
X123877506Y-94737676D01*
X123877506Y-94737676D02*
X123972744Y-94642438D01*
X123972744Y-94642438D02*
X124115601Y-94594819D01*
X124115601Y-94594819D02*
X124210839Y-94594819D01*
X124210839Y-94594819D02*
X124353696Y-94642438D01*
X124353696Y-94642438D02*
X124401315Y-94690057D01*
X124829887Y-94594819D02*
X124829887Y-95404342D01*
X124829887Y-95404342D02*
X124877506Y-95499580D01*
X124877506Y-95499580D02*
X124925125Y-95547200D01*
X124925125Y-95547200D02*
X125020363Y-95594819D01*
X125020363Y-95594819D02*
X125210839Y-95594819D01*
X125210839Y-95594819D02*
X125306077Y-95547200D01*
X125306077Y-95547200D02*
X125353696Y-95499580D01*
X125353696Y-95499580D02*
X125401315Y-95404342D01*
X125401315Y-95404342D02*
X125401315Y-94594819D01*
X125734649Y-94594819D02*
X126306077Y-94594819D01*
X126020363Y-95594819D02*
X126020363Y-94594819D01*
X121972745Y-97204819D02*
X121972745Y-96204819D01*
X121972745Y-96204819D02*
X122306078Y-96919104D01*
X122306078Y-96919104D02*
X122639411Y-96204819D01*
X122639411Y-96204819D02*
X122639411Y-97204819D01*
X123115602Y-97204819D02*
X123115602Y-96204819D01*
X124163220Y-97109580D02*
X124115601Y-97157200D01*
X124115601Y-97157200D02*
X123972744Y-97204819D01*
X123972744Y-97204819D02*
X123877506Y-97204819D01*
X123877506Y-97204819D02*
X123734649Y-97157200D01*
X123734649Y-97157200D02*
X123639411Y-97061961D01*
X123639411Y-97061961D02*
X123591792Y-96966723D01*
X123591792Y-96966723D02*
X123544173Y-96776247D01*
X123544173Y-96776247D02*
X123544173Y-96633390D01*
X123544173Y-96633390D02*
X123591792Y-96442914D01*
X123591792Y-96442914D02*
X123639411Y-96347676D01*
X123639411Y-96347676D02*
X123734649Y-96252438D01*
X123734649Y-96252438D02*
X123877506Y-96204819D01*
X123877506Y-96204819D02*
X123972744Y-96204819D01*
X123972744Y-96204819D02*
X124115601Y-96252438D01*
X124115601Y-96252438D02*
X124163220Y-96300057D01*
X125163220Y-97204819D02*
X124829887Y-96728628D01*
X124591792Y-97204819D02*
X124591792Y-96204819D01*
X124591792Y-96204819D02*
X124972744Y-96204819D01*
X124972744Y-96204819D02*
X125067982Y-96252438D01*
X125067982Y-96252438D02*
X125115601Y-96300057D01*
X125115601Y-96300057D02*
X125163220Y-96395295D01*
X125163220Y-96395295D02*
X125163220Y-96538152D01*
X125163220Y-96538152D02*
X125115601Y-96633390D01*
X125115601Y-96633390D02*
X125067982Y-96681009D01*
X125067982Y-96681009D02*
X124972744Y-96728628D01*
X124972744Y-96728628D02*
X124591792Y-96728628D01*
X125782268Y-96204819D02*
X125972744Y-96204819D01*
X125972744Y-96204819D02*
X126067982Y-96252438D01*
X126067982Y-96252438D02*
X126163220Y-96347676D01*
X126163220Y-96347676D02*
X126210839Y-96538152D01*
X126210839Y-96538152D02*
X126210839Y-96871485D01*
X126210839Y-96871485D02*
X126163220Y-97061961D01*
X126163220Y-97061961D02*
X126067982Y-97157200D01*
X126067982Y-97157200D02*
X125972744Y-97204819D01*
X125972744Y-97204819D02*
X125782268Y-97204819D01*
X125782268Y-97204819D02*
X125687030Y-97157200D01*
X125687030Y-97157200D02*
X125591792Y-97061961D01*
X125591792Y-97061961D02*
X125544173Y-96871485D01*
X125544173Y-96871485D02*
X125544173Y-96538152D01*
X125544173Y-96538152D02*
X125591792Y-96347676D01*
X125591792Y-96347676D02*
X125687030Y-96252438D01*
X125687030Y-96252438D02*
X125782268Y-96204819D01*
X123258459Y-98814819D02*
X123258459Y-97814819D01*
X123687030Y-97910057D02*
X123734649Y-97862438D01*
X123734649Y-97862438D02*
X123829887Y-97814819D01*
X123829887Y-97814819D02*
X124067982Y-97814819D01*
X124067982Y-97814819D02*
X124163220Y-97862438D01*
X124163220Y-97862438D02*
X124210839Y-97910057D01*
X124210839Y-97910057D02*
X124258458Y-98005295D01*
X124258458Y-98005295D02*
X124258458Y-98100533D01*
X124258458Y-98100533D02*
X124210839Y-98243390D01*
X124210839Y-98243390D02*
X123639411Y-98814819D01*
X123639411Y-98814819D02*
X124258458Y-98814819D01*
X125258458Y-98719580D02*
X125210839Y-98767200D01*
X125210839Y-98767200D02*
X125067982Y-98814819D01*
X125067982Y-98814819D02*
X124972744Y-98814819D01*
X124972744Y-98814819D02*
X124829887Y-98767200D01*
X124829887Y-98767200D02*
X124734649Y-98671961D01*
X124734649Y-98671961D02*
X124687030Y-98576723D01*
X124687030Y-98576723D02*
X124639411Y-98386247D01*
X124639411Y-98386247D02*
X124639411Y-98243390D01*
X124639411Y-98243390D02*
X124687030Y-98052914D01*
X124687030Y-98052914D02*
X124734649Y-97957676D01*
X124734649Y-97957676D02*
X124829887Y-97862438D01*
X124829887Y-97862438D02*
X124972744Y-97814819D01*
X124972744Y-97814819D02*
X125067982Y-97814819D01*
X125067982Y-97814819D02*
X125210839Y-97862438D01*
X125210839Y-97862438D02*
X125258458Y-97910057D01*
X126210839Y-98814819D02*
X125639411Y-98814819D01*
X125925125Y-98814819D02*
X125925125Y-97814819D01*
X125925125Y-97814819D02*
X125829887Y-97957676D01*
X125829887Y-97957676D02*
X125734649Y-98052914D01*
X125734649Y-98052914D02*
X125639411Y-98100533D01*
X135836779Y-95594819D02*
X135836779Y-94594819D01*
X136265350Y-94690057D02*
X136312969Y-94642438D01*
X136312969Y-94642438D02*
X136408207Y-94594819D01*
X136408207Y-94594819D02*
X136646302Y-94594819D01*
X136646302Y-94594819D02*
X136741540Y-94642438D01*
X136741540Y-94642438D02*
X136789159Y-94690057D01*
X136789159Y-94690057D02*
X136836778Y-94785295D01*
X136836778Y-94785295D02*
X136836778Y-94880533D01*
X136836778Y-94880533D02*
X136789159Y-95023390D01*
X136789159Y-95023390D02*
X136217731Y-95594819D01*
X136217731Y-95594819D02*
X136836778Y-95594819D01*
X137836778Y-95499580D02*
X137789159Y-95547200D01*
X137789159Y-95547200D02*
X137646302Y-95594819D01*
X137646302Y-95594819D02*
X137551064Y-95594819D01*
X137551064Y-95594819D02*
X137408207Y-95547200D01*
X137408207Y-95547200D02*
X137312969Y-95451961D01*
X137312969Y-95451961D02*
X137265350Y-95356723D01*
X137265350Y-95356723D02*
X137217731Y-95166247D01*
X137217731Y-95166247D02*
X137217731Y-95023390D01*
X137217731Y-95023390D02*
X137265350Y-94832914D01*
X137265350Y-94832914D02*
X137312969Y-94737676D01*
X137312969Y-94737676D02*
X137408207Y-94642438D01*
X137408207Y-94642438D02*
X137551064Y-94594819D01*
X137551064Y-94594819D02*
X137646302Y-94594819D01*
X137646302Y-94594819D02*
X137789159Y-94642438D01*
X137789159Y-94642438D02*
X137836778Y-94690057D01*
X138789159Y-95594819D02*
X138217731Y-95594819D01*
X138503445Y-95594819D02*
X138503445Y-94594819D01*
X138503445Y-94594819D02*
X138408207Y-94737676D01*
X138408207Y-94737676D02*
X138312969Y-94832914D01*
X138312969Y-94832914D02*
X138217731Y-94880533D01*
X136170112Y-96681009D02*
X136312969Y-96728628D01*
X136312969Y-96728628D02*
X136360588Y-96776247D01*
X136360588Y-96776247D02*
X136408207Y-96871485D01*
X136408207Y-96871485D02*
X136408207Y-97014342D01*
X136408207Y-97014342D02*
X136360588Y-97109580D01*
X136360588Y-97109580D02*
X136312969Y-97157200D01*
X136312969Y-97157200D02*
X136217731Y-97204819D01*
X136217731Y-97204819D02*
X135836779Y-97204819D01*
X135836779Y-97204819D02*
X135836779Y-96204819D01*
X135836779Y-96204819D02*
X136170112Y-96204819D01*
X136170112Y-96204819D02*
X136265350Y-96252438D01*
X136265350Y-96252438D02*
X136312969Y-96300057D01*
X136312969Y-96300057D02*
X136360588Y-96395295D01*
X136360588Y-96395295D02*
X136360588Y-96490533D01*
X136360588Y-96490533D02*
X136312969Y-96585771D01*
X136312969Y-96585771D02*
X136265350Y-96633390D01*
X136265350Y-96633390D02*
X136170112Y-96681009D01*
X136170112Y-96681009D02*
X135836779Y-96681009D01*
X137408207Y-97204819D02*
X137074874Y-96728628D01*
X136836779Y-97204819D02*
X136836779Y-96204819D01*
X136836779Y-96204819D02*
X137217731Y-96204819D01*
X137217731Y-96204819D02*
X137312969Y-96252438D01*
X137312969Y-96252438D02*
X137360588Y-96300057D01*
X137360588Y-96300057D02*
X137408207Y-96395295D01*
X137408207Y-96395295D02*
X137408207Y-96538152D01*
X137408207Y-96538152D02*
X137360588Y-96633390D01*
X137360588Y-96633390D02*
X137312969Y-96681009D01*
X137312969Y-96681009D02*
X137217731Y-96728628D01*
X137217731Y-96728628D02*
X136836779Y-96728628D01*
X137836779Y-97204819D02*
X137836779Y-96204819D01*
X138312969Y-97204819D02*
X138312969Y-96204819D01*
X138312969Y-96204819D02*
X138551064Y-96204819D01*
X138551064Y-96204819D02*
X138693921Y-96252438D01*
X138693921Y-96252438D02*
X138789159Y-96347676D01*
X138789159Y-96347676D02*
X138836778Y-96442914D01*
X138836778Y-96442914D02*
X138884397Y-96633390D01*
X138884397Y-96633390D02*
X138884397Y-96776247D01*
X138884397Y-96776247D02*
X138836778Y-96966723D01*
X138836778Y-96966723D02*
X138789159Y-97061961D01*
X138789159Y-97061961D02*
X138693921Y-97157200D01*
X138693921Y-97157200D02*
X138551064Y-97204819D01*
X138551064Y-97204819D02*
X138312969Y-97204819D01*
X139836778Y-96252438D02*
X139741540Y-96204819D01*
X139741540Y-96204819D02*
X139598683Y-96204819D01*
X139598683Y-96204819D02*
X139455826Y-96252438D01*
X139455826Y-96252438D02*
X139360588Y-96347676D01*
X139360588Y-96347676D02*
X139312969Y-96442914D01*
X139312969Y-96442914D02*
X139265350Y-96633390D01*
X139265350Y-96633390D02*
X139265350Y-96776247D01*
X139265350Y-96776247D02*
X139312969Y-96966723D01*
X139312969Y-96966723D02*
X139360588Y-97061961D01*
X139360588Y-97061961D02*
X139455826Y-97157200D01*
X139455826Y-97157200D02*
X139598683Y-97204819D01*
X139598683Y-97204819D02*
X139693921Y-97204819D01*
X139693921Y-97204819D02*
X139836778Y-97157200D01*
X139836778Y-97157200D02*
X139884397Y-97109580D01*
X139884397Y-97109580D02*
X139884397Y-96776247D01*
X139884397Y-96776247D02*
X139693921Y-96776247D01*
X140312969Y-96681009D02*
X140646302Y-96681009D01*
X140789159Y-97204819D02*
X140312969Y-97204819D01*
X140312969Y-97204819D02*
X140312969Y-96204819D01*
X140312969Y-96204819D02*
X140789159Y-96204819D01*
X135836779Y-98814819D02*
X135836779Y-97814819D01*
X136265350Y-97910057D02*
X136312969Y-97862438D01*
X136312969Y-97862438D02*
X136408207Y-97814819D01*
X136408207Y-97814819D02*
X136646302Y-97814819D01*
X136646302Y-97814819D02*
X136741540Y-97862438D01*
X136741540Y-97862438D02*
X136789159Y-97910057D01*
X136789159Y-97910057D02*
X136836778Y-98005295D01*
X136836778Y-98005295D02*
X136836778Y-98100533D01*
X136836778Y-98100533D02*
X136789159Y-98243390D01*
X136789159Y-98243390D02*
X136217731Y-98814819D01*
X136217731Y-98814819D02*
X136836778Y-98814819D01*
X137836778Y-98719580D02*
X137789159Y-98767200D01*
X137789159Y-98767200D02*
X137646302Y-98814819D01*
X137646302Y-98814819D02*
X137551064Y-98814819D01*
X137551064Y-98814819D02*
X137408207Y-98767200D01*
X137408207Y-98767200D02*
X137312969Y-98671961D01*
X137312969Y-98671961D02*
X137265350Y-98576723D01*
X137265350Y-98576723D02*
X137217731Y-98386247D01*
X137217731Y-98386247D02*
X137217731Y-98243390D01*
X137217731Y-98243390D02*
X137265350Y-98052914D01*
X137265350Y-98052914D02*
X137312969Y-97957676D01*
X137312969Y-97957676D02*
X137408207Y-97862438D01*
X137408207Y-97862438D02*
X137551064Y-97814819D01*
X137551064Y-97814819D02*
X137646302Y-97814819D01*
X137646302Y-97814819D02*
X137789159Y-97862438D01*
X137789159Y-97862438D02*
X137836778Y-97910057D01*
X138455826Y-97814819D02*
X138551064Y-97814819D01*
X138551064Y-97814819D02*
X138646302Y-97862438D01*
X138646302Y-97862438D02*
X138693921Y-97910057D01*
X138693921Y-97910057D02*
X138741540Y-98005295D01*
X138741540Y-98005295D02*
X138789159Y-98195771D01*
X138789159Y-98195771D02*
X138789159Y-98433866D01*
X138789159Y-98433866D02*
X138741540Y-98624342D01*
X138741540Y-98624342D02*
X138693921Y-98719580D01*
X138693921Y-98719580D02*
X138646302Y-98767200D01*
X138646302Y-98767200D02*
X138551064Y-98814819D01*
X138551064Y-98814819D02*
X138455826Y-98814819D01*
X138455826Y-98814819D02*
X138360588Y-98767200D01*
X138360588Y-98767200D02*
X138312969Y-98719580D01*
X138312969Y-98719580D02*
X138265350Y-98624342D01*
X138265350Y-98624342D02*
X138217731Y-98433866D01*
X138217731Y-98433866D02*
X138217731Y-98195771D01*
X138217731Y-98195771D02*
X138265350Y-98005295D01*
X138265350Y-98005295D02*
X138312969Y-97910057D01*
X138312969Y-97910057D02*
X138360588Y-97862438D01*
X138360588Y-97862438D02*
X138455826Y-97814819D01*
X131204819Y-90666666D02*
X130728628Y-90999999D01*
X131204819Y-91238094D02*
X130204819Y-91238094D01*
X130204819Y-91238094D02*
X130204819Y-90857142D01*
X130204819Y-90857142D02*
X130252438Y-90761904D01*
X130252438Y-90761904D02*
X130300057Y-90714285D01*
X130300057Y-90714285D02*
X130395295Y-90666666D01*
X130395295Y-90666666D02*
X130538152Y-90666666D01*
X130538152Y-90666666D02*
X130633390Y-90714285D01*
X130633390Y-90714285D02*
X130681009Y-90761904D01*
X130681009Y-90761904D02*
X130728628Y-90857142D01*
X130728628Y-90857142D02*
X130728628Y-91238094D01*
X131204819Y-89714285D02*
X131204819Y-90285713D01*
X131204819Y-89999999D02*
X130204819Y-89999999D01*
X130204819Y-89999999D02*
X130347676Y-90095237D01*
X130347676Y-90095237D02*
X130442914Y-90190475D01*
X130442914Y-90190475D02*
X130490533Y-90285713D01*
X122011905Y-135204819D02*
X122011905Y-134204819D01*
X122011905Y-134204819D02*
X122250000Y-134204819D01*
X122250000Y-134204819D02*
X122392857Y-134252438D01*
X122392857Y-134252438D02*
X122488095Y-134347676D01*
X122488095Y-134347676D02*
X122535714Y-134442914D01*
X122535714Y-134442914D02*
X122583333Y-134633390D01*
X122583333Y-134633390D02*
X122583333Y-134776247D01*
X122583333Y-134776247D02*
X122535714Y-134966723D01*
X122535714Y-134966723D02*
X122488095Y-135061961D01*
X122488095Y-135061961D02*
X122392857Y-135157200D01*
X122392857Y-135157200D02*
X122250000Y-135204819D01*
X122250000Y-135204819D02*
X122011905Y-135204819D01*
X122916667Y-134204819D02*
X123535714Y-134204819D01*
X123535714Y-134204819D02*
X123202381Y-134585771D01*
X123202381Y-134585771D02*
X123345238Y-134585771D01*
X123345238Y-134585771D02*
X123440476Y-134633390D01*
X123440476Y-134633390D02*
X123488095Y-134681009D01*
X123488095Y-134681009D02*
X123535714Y-134776247D01*
X123535714Y-134776247D02*
X123535714Y-135014342D01*
X123535714Y-135014342D02*
X123488095Y-135109580D01*
X123488095Y-135109580D02*
X123440476Y-135157200D01*
X123440476Y-135157200D02*
X123345238Y-135204819D01*
X123345238Y-135204819D02*
X123059524Y-135204819D01*
X123059524Y-135204819D02*
X122964286Y-135157200D01*
X122964286Y-135157200D02*
X122916667Y-135109580D01*
X131204819Y-102916666D02*
X130728628Y-103249999D01*
X131204819Y-103488094D02*
X130204819Y-103488094D01*
X130204819Y-103488094D02*
X130204819Y-103107142D01*
X130204819Y-103107142D02*
X130252438Y-103011904D01*
X130252438Y-103011904D02*
X130300057Y-102964285D01*
X130300057Y-102964285D02*
X130395295Y-102916666D01*
X130395295Y-102916666D02*
X130538152Y-102916666D01*
X130538152Y-102916666D02*
X130633390Y-102964285D01*
X130633390Y-102964285D02*
X130681009Y-103011904D01*
X130681009Y-103011904D02*
X130728628Y-103107142D01*
X130728628Y-103107142D02*
X130728628Y-103488094D01*
X130300057Y-102535713D02*
X130252438Y-102488094D01*
X130252438Y-102488094D02*
X130204819Y-102392856D01*
X130204819Y-102392856D02*
X130204819Y-102154761D01*
X130204819Y-102154761D02*
X130252438Y-102059523D01*
X130252438Y-102059523D02*
X130300057Y-102011904D01*
X130300057Y-102011904D02*
X130395295Y-101964285D01*
X130395295Y-101964285D02*
X130490533Y-101964285D01*
X130490533Y-101964285D02*
X130633390Y-102011904D01*
X130633390Y-102011904D02*
X131204819Y-102583332D01*
X131204819Y-102583332D02*
X131204819Y-101964285D01*
X111872142Y-90954819D02*
X111538809Y-90478628D01*
X111300714Y-90954819D02*
X111300714Y-89954819D01*
X111300714Y-89954819D02*
X111681666Y-89954819D01*
X111681666Y-89954819D02*
X111776904Y-90002438D01*
X111776904Y-90002438D02*
X111824523Y-90050057D01*
X111824523Y-90050057D02*
X111872142Y-90145295D01*
X111872142Y-90145295D02*
X111872142Y-90288152D01*
X111872142Y-90288152D02*
X111824523Y-90383390D01*
X111824523Y-90383390D02*
X111776904Y-90431009D01*
X111776904Y-90431009D02*
X111681666Y-90478628D01*
X111681666Y-90478628D02*
X111300714Y-90478628D01*
X112348333Y-90954819D02*
X112538809Y-90954819D01*
X112538809Y-90954819D02*
X112634047Y-90907200D01*
X112634047Y-90907200D02*
X112681666Y-90859580D01*
X112681666Y-90859580D02*
X112776904Y-90716723D01*
X112776904Y-90716723D02*
X112824523Y-90526247D01*
X112824523Y-90526247D02*
X112824523Y-90145295D01*
X112824523Y-90145295D02*
X112776904Y-90050057D01*
X112776904Y-90050057D02*
X112729285Y-90002438D01*
X112729285Y-90002438D02*
X112634047Y-89954819D01*
X112634047Y-89954819D02*
X112443571Y-89954819D01*
X112443571Y-89954819D02*
X112348333Y-90002438D01*
X112348333Y-90002438D02*
X112300714Y-90050057D01*
X112300714Y-90050057D02*
X112253095Y-90145295D01*
X112253095Y-90145295D02*
X112253095Y-90383390D01*
X112253095Y-90383390D02*
X112300714Y-90478628D01*
X112300714Y-90478628D02*
X112348333Y-90526247D01*
X112348333Y-90526247D02*
X112443571Y-90573866D01*
X112443571Y-90573866D02*
X112634047Y-90573866D01*
X112634047Y-90573866D02*
X112729285Y-90526247D01*
X112729285Y-90526247D02*
X112776904Y-90478628D01*
X112776904Y-90478628D02*
X112824523Y-90383390D01*
X110454819Y-135809523D02*
X111454819Y-135142857D01*
X110454819Y-135142857D02*
X111454819Y-135809523D01*
X111454819Y-134238095D02*
X111454819Y-134809523D01*
X111454819Y-134523809D02*
X110454819Y-134523809D01*
X110454819Y-134523809D02*
X110597676Y-134619047D01*
X110597676Y-134619047D02*
X110692914Y-134714285D01*
X110692914Y-134714285D02*
X110740533Y-134809523D01*
D12*
X107811571Y-143849812D02*
X107811571Y-143449812D01*
X108440142Y-143278384D02*
X108440142Y-143849812D01*
X108440142Y-143849812D02*
X107240142Y-143849812D01*
X107240142Y-143849812D02*
X107240142Y-143278384D01*
D11*
X111776904Y-97181009D02*
X111443571Y-97181009D01*
X111443571Y-97704819D02*
X111443571Y-96704819D01*
X111443571Y-96704819D02*
X111919761Y-96704819D01*
X112253095Y-96800057D02*
X112300714Y-96752438D01*
X112300714Y-96752438D02*
X112395952Y-96704819D01*
X112395952Y-96704819D02*
X112634047Y-96704819D01*
X112634047Y-96704819D02*
X112729285Y-96752438D01*
X112729285Y-96752438D02*
X112776904Y-96800057D01*
X112776904Y-96800057D02*
X112824523Y-96895295D01*
X112824523Y-96895295D02*
X112824523Y-96990533D01*
X112824523Y-96990533D02*
X112776904Y-97133390D01*
X112776904Y-97133390D02*
X112205476Y-97704819D01*
X112205476Y-97704819D02*
X112824523Y-97704819D01*
X125433333Y-127859580D02*
X125385714Y-127907200D01*
X125385714Y-127907200D02*
X125242857Y-127954819D01*
X125242857Y-127954819D02*
X125147619Y-127954819D01*
X125147619Y-127954819D02*
X125004762Y-127907200D01*
X125004762Y-127907200D02*
X124909524Y-127811961D01*
X124909524Y-127811961D02*
X124861905Y-127716723D01*
X124861905Y-127716723D02*
X124814286Y-127526247D01*
X124814286Y-127526247D02*
X124814286Y-127383390D01*
X124814286Y-127383390D02*
X124861905Y-127192914D01*
X124861905Y-127192914D02*
X124909524Y-127097676D01*
X124909524Y-127097676D02*
X125004762Y-127002438D01*
X125004762Y-127002438D02*
X125147619Y-126954819D01*
X125147619Y-126954819D02*
X125242857Y-126954819D01*
X125242857Y-126954819D02*
X125385714Y-127002438D01*
X125385714Y-127002438D02*
X125433333Y-127050057D01*
X125814286Y-127050057D02*
X125861905Y-127002438D01*
X125861905Y-127002438D02*
X125957143Y-126954819D01*
X125957143Y-126954819D02*
X126195238Y-126954819D01*
X126195238Y-126954819D02*
X126290476Y-127002438D01*
X126290476Y-127002438D02*
X126338095Y-127050057D01*
X126338095Y-127050057D02*
X126385714Y-127145295D01*
X126385714Y-127145295D02*
X126385714Y-127240533D01*
X126385714Y-127240533D02*
X126338095Y-127383390D01*
X126338095Y-127383390D02*
X125766667Y-127954819D01*
X125766667Y-127954819D02*
X126385714Y-127954819D01*
X140954819Y-143841583D02*
X141669104Y-143841583D01*
X141669104Y-143841583D02*
X141811961Y-143889202D01*
X141811961Y-143889202D02*
X141907200Y-143984440D01*
X141907200Y-143984440D02*
X141954819Y-144127297D01*
X141954819Y-144127297D02*
X141954819Y-144222535D01*
X141954819Y-142841583D02*
X141954819Y-143413011D01*
X141954819Y-143127297D02*
X140954819Y-143127297D01*
X140954819Y-143127297D02*
X141097676Y-143222535D01*
X141097676Y-143222535D02*
X141192914Y-143317773D01*
X141192914Y-143317773D02*
X141240533Y-143413011D01*
X125433333Y-125859580D02*
X125385714Y-125907200D01*
X125385714Y-125907200D02*
X125242857Y-125954819D01*
X125242857Y-125954819D02*
X125147619Y-125954819D01*
X125147619Y-125954819D02*
X125004762Y-125907200D01*
X125004762Y-125907200D02*
X124909524Y-125811961D01*
X124909524Y-125811961D02*
X124861905Y-125716723D01*
X124861905Y-125716723D02*
X124814286Y-125526247D01*
X124814286Y-125526247D02*
X124814286Y-125383390D01*
X124814286Y-125383390D02*
X124861905Y-125192914D01*
X124861905Y-125192914D02*
X124909524Y-125097676D01*
X124909524Y-125097676D02*
X125004762Y-125002438D01*
X125004762Y-125002438D02*
X125147619Y-124954819D01*
X125147619Y-124954819D02*
X125242857Y-124954819D01*
X125242857Y-124954819D02*
X125385714Y-125002438D01*
X125385714Y-125002438D02*
X125433333Y-125050057D01*
X125766667Y-124954819D02*
X126385714Y-124954819D01*
X126385714Y-124954819D02*
X126052381Y-125335771D01*
X126052381Y-125335771D02*
X126195238Y-125335771D01*
X126195238Y-125335771D02*
X126290476Y-125383390D01*
X126290476Y-125383390D02*
X126338095Y-125431009D01*
X126338095Y-125431009D02*
X126385714Y-125526247D01*
X126385714Y-125526247D02*
X126385714Y-125764342D01*
X126385714Y-125764342D02*
X126338095Y-125859580D01*
X126338095Y-125859580D02*
X126290476Y-125907200D01*
X126290476Y-125907200D02*
X126195238Y-125954819D01*
X126195238Y-125954819D02*
X125909524Y-125954819D01*
X125909524Y-125954819D02*
X125814286Y-125907200D01*
X125814286Y-125907200D02*
X125766667Y-125859580D01*
X123809523Y-113045180D02*
X123142857Y-112045180D01*
X123142857Y-113045180D02*
X123809523Y-112045180D01*
X122857142Y-113045180D02*
X122238095Y-113045180D01*
X122238095Y-113045180D02*
X122571428Y-112664228D01*
X122571428Y-112664228D02*
X122428571Y-112664228D01*
X122428571Y-112664228D02*
X122333333Y-112616609D01*
X122333333Y-112616609D02*
X122285714Y-112568990D01*
X122285714Y-112568990D02*
X122238095Y-112473752D01*
X122238095Y-112473752D02*
X122238095Y-112235657D01*
X122238095Y-112235657D02*
X122285714Y-112140419D01*
X122285714Y-112140419D02*
X122333333Y-112092800D01*
X122333333Y-112092800D02*
X122428571Y-112045180D01*
X122428571Y-112045180D02*
X122714285Y-112045180D01*
X122714285Y-112045180D02*
X122809523Y-112092800D01*
X122809523Y-112092800D02*
X122857142Y-112140419D01*
D12*
X131849812Y-115688428D02*
X131449812Y-115688428D01*
X131278384Y-115059857D02*
X131849812Y-115059857D01*
X131849812Y-115059857D02*
X131849812Y-116259857D01*
X131849812Y-116259857D02*
X131278384Y-116259857D01*
D11*
X116254819Y-133042857D02*
X115778628Y-133376190D01*
X116254819Y-133614285D02*
X115254819Y-133614285D01*
X115254819Y-133614285D02*
X115254819Y-133233333D01*
X115254819Y-133233333D02*
X115302438Y-133138095D01*
X115302438Y-133138095D02*
X115350057Y-133090476D01*
X115350057Y-133090476D02*
X115445295Y-133042857D01*
X115445295Y-133042857D02*
X115588152Y-133042857D01*
X115588152Y-133042857D02*
X115683390Y-133090476D01*
X115683390Y-133090476D02*
X115731009Y-133138095D01*
X115731009Y-133138095D02*
X115778628Y-133233333D01*
X115778628Y-133233333D02*
X115778628Y-133614285D01*
X116254819Y-132090476D02*
X116254819Y-132661904D01*
X116254819Y-132376190D02*
X115254819Y-132376190D01*
X115254819Y-132376190D02*
X115397676Y-132471428D01*
X115397676Y-132471428D02*
X115492914Y-132566666D01*
X115492914Y-132566666D02*
X115540533Y-132661904D01*
X115254819Y-131185714D02*
X115254819Y-131661904D01*
X115254819Y-131661904D02*
X115731009Y-131709523D01*
X115731009Y-131709523D02*
X115683390Y-131661904D01*
X115683390Y-131661904D02*
X115635771Y-131566666D01*
X115635771Y-131566666D02*
X115635771Y-131328571D01*
X115635771Y-131328571D02*
X115683390Y-131233333D01*
X115683390Y-131233333D02*
X115731009Y-131185714D01*
X115731009Y-131185714D02*
X115826247Y-131138095D01*
X115826247Y-131138095D02*
X116064342Y-131138095D01*
X116064342Y-131138095D02*
X116159580Y-131185714D01*
X116159580Y-131185714D02*
X116207200Y-131233333D01*
X116207200Y-131233333D02*
X116254819Y-131328571D01*
X116254819Y-131328571D02*
X116254819Y-131566666D01*
X116254819Y-131566666D02*
X116207200Y-131661904D01*
X116207200Y-131661904D02*
X116159580Y-131709523D01*
X122011905Y-137204819D02*
X122011905Y-136204819D01*
X122011905Y-136204819D02*
X122250000Y-136204819D01*
X122250000Y-136204819D02*
X122392857Y-136252438D01*
X122392857Y-136252438D02*
X122488095Y-136347676D01*
X122488095Y-136347676D02*
X122535714Y-136442914D01*
X122535714Y-136442914D02*
X122583333Y-136633390D01*
X122583333Y-136633390D02*
X122583333Y-136776247D01*
X122583333Y-136776247D02*
X122535714Y-136966723D01*
X122535714Y-136966723D02*
X122488095Y-137061961D01*
X122488095Y-137061961D02*
X122392857Y-137157200D01*
X122392857Y-137157200D02*
X122250000Y-137204819D01*
X122250000Y-137204819D02*
X122011905Y-137204819D01*
X122964286Y-136300057D02*
X123011905Y-136252438D01*
X123011905Y-136252438D02*
X123107143Y-136204819D01*
X123107143Y-136204819D02*
X123345238Y-136204819D01*
X123345238Y-136204819D02*
X123440476Y-136252438D01*
X123440476Y-136252438D02*
X123488095Y-136300057D01*
X123488095Y-136300057D02*
X123535714Y-136395295D01*
X123535714Y-136395295D02*
X123535714Y-136490533D01*
X123535714Y-136490533D02*
X123488095Y-136633390D01*
X123488095Y-136633390D02*
X122916667Y-137204819D01*
X122916667Y-137204819D02*
X123535714Y-137204819D01*
X125483333Y-133109580D02*
X125435714Y-133157200D01*
X125435714Y-133157200D02*
X125292857Y-133204819D01*
X125292857Y-133204819D02*
X125197619Y-133204819D01*
X125197619Y-133204819D02*
X125054762Y-133157200D01*
X125054762Y-133157200D02*
X124959524Y-133061961D01*
X124959524Y-133061961D02*
X124911905Y-132966723D01*
X124911905Y-132966723D02*
X124864286Y-132776247D01*
X124864286Y-132776247D02*
X124864286Y-132633390D01*
X124864286Y-132633390D02*
X124911905Y-132442914D01*
X124911905Y-132442914D02*
X124959524Y-132347676D01*
X124959524Y-132347676D02*
X125054762Y-132252438D01*
X125054762Y-132252438D02*
X125197619Y-132204819D01*
X125197619Y-132204819D02*
X125292857Y-132204819D01*
X125292857Y-132204819D02*
X125435714Y-132252438D01*
X125435714Y-132252438D02*
X125483333Y-132300057D01*
X126435714Y-133204819D02*
X125864286Y-133204819D01*
X126150000Y-133204819D02*
X126150000Y-132204819D01*
X126150000Y-132204819D02*
X126054762Y-132347676D01*
X126054762Y-132347676D02*
X125959524Y-132442914D01*
X125959524Y-132442914D02*
X125864286Y-132490533D01*
X109357142Y-107454819D02*
X109023809Y-106978628D01*
X108785714Y-107454819D02*
X108785714Y-106454819D01*
X108785714Y-106454819D02*
X109166666Y-106454819D01*
X109166666Y-106454819D02*
X109261904Y-106502438D01*
X109261904Y-106502438D02*
X109309523Y-106550057D01*
X109309523Y-106550057D02*
X109357142Y-106645295D01*
X109357142Y-106645295D02*
X109357142Y-106788152D01*
X109357142Y-106788152D02*
X109309523Y-106883390D01*
X109309523Y-106883390D02*
X109261904Y-106931009D01*
X109261904Y-106931009D02*
X109166666Y-106978628D01*
X109166666Y-106978628D02*
X108785714Y-106978628D01*
X110309523Y-107454819D02*
X109738095Y-107454819D01*
X110023809Y-107454819D02*
X110023809Y-106454819D01*
X110023809Y-106454819D02*
X109928571Y-106597676D01*
X109928571Y-106597676D02*
X109833333Y-106692914D01*
X109833333Y-106692914D02*
X109738095Y-106740533D01*
X111166666Y-106454819D02*
X110976190Y-106454819D01*
X110976190Y-106454819D02*
X110880952Y-106502438D01*
X110880952Y-106502438D02*
X110833333Y-106550057D01*
X110833333Y-106550057D02*
X110738095Y-106692914D01*
X110738095Y-106692914D02*
X110690476Y-106883390D01*
X110690476Y-106883390D02*
X110690476Y-107264342D01*
X110690476Y-107264342D02*
X110738095Y-107359580D01*
X110738095Y-107359580D02*
X110785714Y-107407200D01*
X110785714Y-107407200D02*
X110880952Y-107454819D01*
X110880952Y-107454819D02*
X111071428Y-107454819D01*
X111071428Y-107454819D02*
X111166666Y-107407200D01*
X111166666Y-107407200D02*
X111214285Y-107359580D01*
X111214285Y-107359580D02*
X111261904Y-107264342D01*
X111261904Y-107264342D02*
X111261904Y-107026247D01*
X111261904Y-107026247D02*
X111214285Y-106931009D01*
X111214285Y-106931009D02*
X111166666Y-106883390D01*
X111166666Y-106883390D02*
X111071428Y-106835771D01*
X111071428Y-106835771D02*
X110880952Y-106835771D01*
X110880952Y-106835771D02*
X110785714Y-106883390D01*
X110785714Y-106883390D02*
X110738095Y-106931009D01*
X110738095Y-106931009D02*
X110690476Y-107026247D01*
X111919761Y-88050057D02*
X111824523Y-88002438D01*
X111824523Y-88002438D02*
X111729285Y-87907200D01*
X111729285Y-87907200D02*
X111586428Y-87764342D01*
X111586428Y-87764342D02*
X111491190Y-87716723D01*
X111491190Y-87716723D02*
X111395952Y-87716723D01*
X111443571Y-87954819D02*
X111348333Y-87907200D01*
X111348333Y-87907200D02*
X111253095Y-87811961D01*
X111253095Y-87811961D02*
X111205476Y-87621485D01*
X111205476Y-87621485D02*
X111205476Y-87288152D01*
X111205476Y-87288152D02*
X111253095Y-87097676D01*
X111253095Y-87097676D02*
X111348333Y-87002438D01*
X111348333Y-87002438D02*
X111443571Y-86954819D01*
X111443571Y-86954819D02*
X111634047Y-86954819D01*
X111634047Y-86954819D02*
X111729285Y-87002438D01*
X111729285Y-87002438D02*
X111824523Y-87097676D01*
X111824523Y-87097676D02*
X111872142Y-87288152D01*
X111872142Y-87288152D02*
X111872142Y-87621485D01*
X111872142Y-87621485D02*
X111824523Y-87811961D01*
X111824523Y-87811961D02*
X111729285Y-87907200D01*
X111729285Y-87907200D02*
X111634047Y-87954819D01*
X111634047Y-87954819D02*
X111443571Y-87954819D01*
X112824523Y-87954819D02*
X112253095Y-87954819D01*
X112538809Y-87954819D02*
X112538809Y-86954819D01*
X112538809Y-86954819D02*
X112443571Y-87097676D01*
X112443571Y-87097676D02*
X112348333Y-87192914D01*
X112348333Y-87192914D02*
X112253095Y-87240533D01*
X129204819Y-90666666D02*
X128728628Y-90999999D01*
X129204819Y-91238094D02*
X128204819Y-91238094D01*
X128204819Y-91238094D02*
X128204819Y-90857142D01*
X128204819Y-90857142D02*
X128252438Y-90761904D01*
X128252438Y-90761904D02*
X128300057Y-90714285D01*
X128300057Y-90714285D02*
X128395295Y-90666666D01*
X128395295Y-90666666D02*
X128538152Y-90666666D01*
X128538152Y-90666666D02*
X128633390Y-90714285D01*
X128633390Y-90714285D02*
X128681009Y-90761904D01*
X128681009Y-90761904D02*
X128728628Y-90857142D01*
X128728628Y-90857142D02*
X128728628Y-91238094D01*
X128204819Y-90333332D02*
X128204819Y-89714285D01*
X128204819Y-89714285D02*
X128585771Y-90047618D01*
X128585771Y-90047618D02*
X128585771Y-89904761D01*
X128585771Y-89904761D02*
X128633390Y-89809523D01*
X128633390Y-89809523D02*
X128681009Y-89761904D01*
X128681009Y-89761904D02*
X128776247Y-89714285D01*
X128776247Y-89714285D02*
X129014342Y-89714285D01*
X129014342Y-89714285D02*
X129109580Y-89761904D01*
X129109580Y-89761904D02*
X129157200Y-89809523D01*
X129157200Y-89809523D02*
X129204819Y-89904761D01*
X129204819Y-89904761D02*
X129204819Y-90190475D01*
X129204819Y-90190475D02*
X129157200Y-90285713D01*
X129157200Y-90285713D02*
X129109580Y-90333332D01*
X139083333Y-136204819D02*
X138750000Y-135728628D01*
X138511905Y-136204819D02*
X138511905Y-135204819D01*
X138511905Y-135204819D02*
X138892857Y-135204819D01*
X138892857Y-135204819D02*
X138988095Y-135252438D01*
X138988095Y-135252438D02*
X139035714Y-135300057D01*
X139035714Y-135300057D02*
X139083333Y-135395295D01*
X139083333Y-135395295D02*
X139083333Y-135538152D01*
X139083333Y-135538152D02*
X139035714Y-135633390D01*
X139035714Y-135633390D02*
X138988095Y-135681009D01*
X138988095Y-135681009D02*
X138892857Y-135728628D01*
X138892857Y-135728628D02*
X138511905Y-135728628D01*
X139988095Y-135204819D02*
X139511905Y-135204819D01*
X139511905Y-135204819D02*
X139464286Y-135681009D01*
X139464286Y-135681009D02*
X139511905Y-135633390D01*
X139511905Y-135633390D02*
X139607143Y-135585771D01*
X139607143Y-135585771D02*
X139845238Y-135585771D01*
X139845238Y-135585771D02*
X139940476Y-135633390D01*
X139940476Y-135633390D02*
X139988095Y-135681009D01*
X139988095Y-135681009D02*
X140035714Y-135776247D01*
X140035714Y-135776247D02*
X140035714Y-136014342D01*
X140035714Y-136014342D02*
X139988095Y-136109580D01*
X139988095Y-136109580D02*
X139940476Y-136157200D01*
X139940476Y-136157200D02*
X139845238Y-136204819D01*
X139845238Y-136204819D02*
X139607143Y-136204819D01*
X139607143Y-136204819D02*
X139511905Y-136157200D01*
X139511905Y-136157200D02*
X139464286Y-136109580D01*
X124054819Y-126142857D02*
X123578628Y-126476190D01*
X124054819Y-126714285D02*
X123054819Y-126714285D01*
X123054819Y-126714285D02*
X123054819Y-126333333D01*
X123054819Y-126333333D02*
X123102438Y-126238095D01*
X123102438Y-126238095D02*
X123150057Y-126190476D01*
X123150057Y-126190476D02*
X123245295Y-126142857D01*
X123245295Y-126142857D02*
X123388152Y-126142857D01*
X123388152Y-126142857D02*
X123483390Y-126190476D01*
X123483390Y-126190476D02*
X123531009Y-126238095D01*
X123531009Y-126238095D02*
X123578628Y-126333333D01*
X123578628Y-126333333D02*
X123578628Y-126714285D01*
X124054819Y-125190476D02*
X124054819Y-125761904D01*
X124054819Y-125476190D02*
X123054819Y-125476190D01*
X123054819Y-125476190D02*
X123197676Y-125571428D01*
X123197676Y-125571428D02*
X123292914Y-125666666D01*
X123292914Y-125666666D02*
X123340533Y-125761904D01*
X124054819Y-124238095D02*
X124054819Y-124809523D01*
X124054819Y-124523809D02*
X123054819Y-124523809D01*
X123054819Y-124523809D02*
X123197676Y-124619047D01*
X123197676Y-124619047D02*
X123292914Y-124714285D01*
X123292914Y-124714285D02*
X123340533Y-124809523D01*
X115357142Y-103054819D02*
X115023809Y-102578628D01*
X114785714Y-103054819D02*
X114785714Y-102054819D01*
X114785714Y-102054819D02*
X115166666Y-102054819D01*
X115166666Y-102054819D02*
X115261904Y-102102438D01*
X115261904Y-102102438D02*
X115309523Y-102150057D01*
X115309523Y-102150057D02*
X115357142Y-102245295D01*
X115357142Y-102245295D02*
X115357142Y-102388152D01*
X115357142Y-102388152D02*
X115309523Y-102483390D01*
X115309523Y-102483390D02*
X115261904Y-102531009D01*
X115261904Y-102531009D02*
X115166666Y-102578628D01*
X115166666Y-102578628D02*
X114785714Y-102578628D01*
X116309523Y-103054819D02*
X115738095Y-103054819D01*
X116023809Y-103054819D02*
X116023809Y-102054819D01*
X116023809Y-102054819D02*
X115928571Y-102197676D01*
X115928571Y-102197676D02*
X115833333Y-102292914D01*
X115833333Y-102292914D02*
X115738095Y-102340533D01*
X117166666Y-102388152D02*
X117166666Y-103054819D01*
X116928571Y-102007200D02*
X116690476Y-102721485D01*
X116690476Y-102721485D02*
X117309523Y-102721485D01*
X124888095Y-130454819D02*
X124888095Y-131264342D01*
X124888095Y-131264342D02*
X124935714Y-131359580D01*
X124935714Y-131359580D02*
X124983333Y-131407200D01*
X124983333Y-131407200D02*
X125078571Y-131454819D01*
X125078571Y-131454819D02*
X125269047Y-131454819D01*
X125269047Y-131454819D02*
X125364285Y-131407200D01*
X125364285Y-131407200D02*
X125411904Y-131359580D01*
X125411904Y-131359580D02*
X125459523Y-131264342D01*
X125459523Y-131264342D02*
X125459523Y-130454819D01*
X125983333Y-131454819D02*
X126173809Y-131454819D01*
X126173809Y-131454819D02*
X126269047Y-131407200D01*
X126269047Y-131407200D02*
X126316666Y-131359580D01*
X126316666Y-131359580D02*
X126411904Y-131216723D01*
X126411904Y-131216723D02*
X126459523Y-131026247D01*
X126459523Y-131026247D02*
X126459523Y-130645295D01*
X126459523Y-130645295D02*
X126411904Y-130550057D01*
X126411904Y-130550057D02*
X126364285Y-130502438D01*
X126364285Y-130502438D02*
X126269047Y-130454819D01*
X126269047Y-130454819D02*
X126078571Y-130454819D01*
X126078571Y-130454819D02*
X125983333Y-130502438D01*
X125983333Y-130502438D02*
X125935714Y-130550057D01*
X125935714Y-130550057D02*
X125888095Y-130645295D01*
X125888095Y-130645295D02*
X125888095Y-130883390D01*
X125888095Y-130883390D02*
X125935714Y-130978628D01*
X125935714Y-130978628D02*
X125983333Y-131026247D01*
X125983333Y-131026247D02*
X126078571Y-131073866D01*
X126078571Y-131073866D02*
X126269047Y-131073866D01*
X126269047Y-131073866D02*
X126364285Y-131026247D01*
X126364285Y-131026247D02*
X126411904Y-130978628D01*
X126411904Y-130978628D02*
X126459523Y-130883390D01*
X129204819Y-102916666D02*
X128728628Y-103249999D01*
X129204819Y-103488094D02*
X128204819Y-103488094D01*
X128204819Y-103488094D02*
X128204819Y-103107142D01*
X128204819Y-103107142D02*
X128252438Y-103011904D01*
X128252438Y-103011904D02*
X128300057Y-102964285D01*
X128300057Y-102964285D02*
X128395295Y-102916666D01*
X128395295Y-102916666D02*
X128538152Y-102916666D01*
X128538152Y-102916666D02*
X128633390Y-102964285D01*
X128633390Y-102964285D02*
X128681009Y-103011904D01*
X128681009Y-103011904D02*
X128728628Y-103107142D01*
X128728628Y-103107142D02*
X128728628Y-103488094D01*
X128538152Y-102059523D02*
X129204819Y-102059523D01*
X128157200Y-102297618D02*
X128871485Y-102535713D01*
X128871485Y-102535713D02*
X128871485Y-101916666D01*
X121988095Y-142954819D02*
X121988095Y-143764342D01*
X121988095Y-143764342D02*
X122035714Y-143859580D01*
X122035714Y-143859580D02*
X122083333Y-143907200D01*
X122083333Y-143907200D02*
X122178571Y-143954819D01*
X122178571Y-143954819D02*
X122369047Y-143954819D01*
X122369047Y-143954819D02*
X122464285Y-143907200D01*
X122464285Y-143907200D02*
X122511904Y-143859580D01*
X122511904Y-143859580D02*
X122559523Y-143764342D01*
X122559523Y-143764342D02*
X122559523Y-142954819D01*
X123559523Y-143954819D02*
X122988095Y-143954819D01*
X123273809Y-143954819D02*
X123273809Y-142954819D01*
X123273809Y-142954819D02*
X123178571Y-143097676D01*
X123178571Y-143097676D02*
X123083333Y-143192914D01*
X123083333Y-143192914D02*
X122988095Y-143240533D01*
X111872142Y-92704819D02*
X111538809Y-92228628D01*
X111300714Y-92704819D02*
X111300714Y-91704819D01*
X111300714Y-91704819D02*
X111681666Y-91704819D01*
X111681666Y-91704819D02*
X111776904Y-91752438D01*
X111776904Y-91752438D02*
X111824523Y-91800057D01*
X111824523Y-91800057D02*
X111872142Y-91895295D01*
X111872142Y-91895295D02*
X111872142Y-92038152D01*
X111872142Y-92038152D02*
X111824523Y-92133390D01*
X111824523Y-92133390D02*
X111776904Y-92181009D01*
X111776904Y-92181009D02*
X111681666Y-92228628D01*
X111681666Y-92228628D02*
X111300714Y-92228628D01*
X112443571Y-92133390D02*
X112348333Y-92085771D01*
X112348333Y-92085771D02*
X112300714Y-92038152D01*
X112300714Y-92038152D02*
X112253095Y-91942914D01*
X112253095Y-91942914D02*
X112253095Y-91895295D01*
X112253095Y-91895295D02*
X112300714Y-91800057D01*
X112300714Y-91800057D02*
X112348333Y-91752438D01*
X112348333Y-91752438D02*
X112443571Y-91704819D01*
X112443571Y-91704819D02*
X112634047Y-91704819D01*
X112634047Y-91704819D02*
X112729285Y-91752438D01*
X112729285Y-91752438D02*
X112776904Y-91800057D01*
X112776904Y-91800057D02*
X112824523Y-91895295D01*
X112824523Y-91895295D02*
X112824523Y-91942914D01*
X112824523Y-91942914D02*
X112776904Y-92038152D01*
X112776904Y-92038152D02*
X112729285Y-92085771D01*
X112729285Y-92085771D02*
X112634047Y-92133390D01*
X112634047Y-92133390D02*
X112443571Y-92133390D01*
X112443571Y-92133390D02*
X112348333Y-92181009D01*
X112348333Y-92181009D02*
X112300714Y-92228628D01*
X112300714Y-92228628D02*
X112253095Y-92323866D01*
X112253095Y-92323866D02*
X112253095Y-92514342D01*
X112253095Y-92514342D02*
X112300714Y-92609580D01*
X112300714Y-92609580D02*
X112348333Y-92657200D01*
X112348333Y-92657200D02*
X112443571Y-92704819D01*
X112443571Y-92704819D02*
X112634047Y-92704819D01*
X112634047Y-92704819D02*
X112729285Y-92657200D01*
X112729285Y-92657200D02*
X112776904Y-92609580D01*
X112776904Y-92609580D02*
X112824523Y-92514342D01*
X112824523Y-92514342D02*
X112824523Y-92323866D01*
X112824523Y-92323866D02*
X112776904Y-92228628D01*
X112776904Y-92228628D02*
X112729285Y-92181009D01*
X112729285Y-92181009D02*
X112634047Y-92133390D01*
X124054819Y-129392857D02*
X123578628Y-129726190D01*
X124054819Y-129964285D02*
X123054819Y-129964285D01*
X123054819Y-129964285D02*
X123054819Y-129583333D01*
X123054819Y-129583333D02*
X123102438Y-129488095D01*
X123102438Y-129488095D02*
X123150057Y-129440476D01*
X123150057Y-129440476D02*
X123245295Y-129392857D01*
X123245295Y-129392857D02*
X123388152Y-129392857D01*
X123388152Y-129392857D02*
X123483390Y-129440476D01*
X123483390Y-129440476D02*
X123531009Y-129488095D01*
X123531009Y-129488095D02*
X123578628Y-129583333D01*
X123578628Y-129583333D02*
X123578628Y-129964285D01*
X124054819Y-128440476D02*
X124054819Y-129011904D01*
X124054819Y-128726190D02*
X123054819Y-128726190D01*
X123054819Y-128726190D02*
X123197676Y-128821428D01*
X123197676Y-128821428D02*
X123292914Y-128916666D01*
X123292914Y-128916666D02*
X123340533Y-129011904D01*
X123054819Y-127821428D02*
X123054819Y-127726190D01*
X123054819Y-127726190D02*
X123102438Y-127630952D01*
X123102438Y-127630952D02*
X123150057Y-127583333D01*
X123150057Y-127583333D02*
X123245295Y-127535714D01*
X123245295Y-127535714D02*
X123435771Y-127488095D01*
X123435771Y-127488095D02*
X123673866Y-127488095D01*
X123673866Y-127488095D02*
X123864342Y-127535714D01*
X123864342Y-127535714D02*
X123959580Y-127583333D01*
X123959580Y-127583333D02*
X124007200Y-127630952D01*
X124007200Y-127630952D02*
X124054819Y-127726190D01*
X124054819Y-127726190D02*
X124054819Y-127821428D01*
X124054819Y-127821428D02*
X124007200Y-127916666D01*
X124007200Y-127916666D02*
X123959580Y-127964285D01*
X123959580Y-127964285D02*
X123864342Y-128011904D01*
X123864342Y-128011904D02*
X123673866Y-128059523D01*
X123673866Y-128059523D02*
X123435771Y-128059523D01*
X123435771Y-128059523D02*
X123245295Y-128011904D01*
X123245295Y-128011904D02*
X123150057Y-127964285D01*
X123150057Y-127964285D02*
X123102438Y-127916666D01*
X123102438Y-127916666D02*
X123054819Y-127821428D01*
X110919761Y-94454819D02*
X110586428Y-93978628D01*
X110348333Y-94454819D02*
X110348333Y-93454819D01*
X110348333Y-93454819D02*
X110729285Y-93454819D01*
X110729285Y-93454819D02*
X110824523Y-93502438D01*
X110824523Y-93502438D02*
X110872142Y-93550057D01*
X110872142Y-93550057D02*
X110919761Y-93645295D01*
X110919761Y-93645295D02*
X110919761Y-93788152D01*
X110919761Y-93788152D02*
X110872142Y-93883390D01*
X110872142Y-93883390D02*
X110824523Y-93931009D01*
X110824523Y-93931009D02*
X110729285Y-93978628D01*
X110729285Y-93978628D02*
X110348333Y-93978628D01*
X111872142Y-94454819D02*
X111300714Y-94454819D01*
X111586428Y-94454819D02*
X111586428Y-93454819D01*
X111586428Y-93454819D02*
X111491190Y-93597676D01*
X111491190Y-93597676D02*
X111395952Y-93692914D01*
X111395952Y-93692914D02*
X111300714Y-93740533D01*
X112205476Y-93454819D02*
X112824523Y-93454819D01*
X112824523Y-93454819D02*
X112491190Y-93835771D01*
X112491190Y-93835771D02*
X112634047Y-93835771D01*
X112634047Y-93835771D02*
X112729285Y-93883390D01*
X112729285Y-93883390D02*
X112776904Y-93931009D01*
X112776904Y-93931009D02*
X112824523Y-94026247D01*
X112824523Y-94026247D02*
X112824523Y-94264342D01*
X112824523Y-94264342D02*
X112776904Y-94359580D01*
X112776904Y-94359580D02*
X112729285Y-94407200D01*
X112729285Y-94407200D02*
X112634047Y-94454819D01*
X112634047Y-94454819D02*
X112348333Y-94454819D01*
X112348333Y-94454819D02*
X112253095Y-94407200D01*
X112253095Y-94407200D02*
X112205476Y-94359580D01*
X124104819Y-132642857D02*
X123628628Y-132976190D01*
X124104819Y-133214285D02*
X123104819Y-133214285D01*
X123104819Y-133214285D02*
X123104819Y-132833333D01*
X123104819Y-132833333D02*
X123152438Y-132738095D01*
X123152438Y-132738095D02*
X123200057Y-132690476D01*
X123200057Y-132690476D02*
X123295295Y-132642857D01*
X123295295Y-132642857D02*
X123438152Y-132642857D01*
X123438152Y-132642857D02*
X123533390Y-132690476D01*
X123533390Y-132690476D02*
X123581009Y-132738095D01*
X123581009Y-132738095D02*
X123628628Y-132833333D01*
X123628628Y-132833333D02*
X123628628Y-133214285D01*
X124104819Y-131690476D02*
X124104819Y-132261904D01*
X124104819Y-131976190D02*
X123104819Y-131976190D01*
X123104819Y-131976190D02*
X123247676Y-132071428D01*
X123247676Y-132071428D02*
X123342914Y-132166666D01*
X123342914Y-132166666D02*
X123390533Y-132261904D01*
X123200057Y-131309523D02*
X123152438Y-131261904D01*
X123152438Y-131261904D02*
X123104819Y-131166666D01*
X123104819Y-131166666D02*
X123104819Y-130928571D01*
X123104819Y-130928571D02*
X123152438Y-130833333D01*
X123152438Y-130833333D02*
X123200057Y-130785714D01*
X123200057Y-130785714D02*
X123295295Y-130738095D01*
X123295295Y-130738095D02*
X123390533Y-130738095D01*
X123390533Y-130738095D02*
X123533390Y-130785714D01*
X123533390Y-130785714D02*
X124104819Y-131357142D01*
X124104819Y-131357142D02*
X124104819Y-130738095D01*
X138704819Y-102666666D02*
X138228628Y-102999999D01*
X138704819Y-103238094D02*
X137704819Y-103238094D01*
X137704819Y-103238094D02*
X137704819Y-102857142D01*
X137704819Y-102857142D02*
X137752438Y-102761904D01*
X137752438Y-102761904D02*
X137800057Y-102714285D01*
X137800057Y-102714285D02*
X137895295Y-102666666D01*
X137895295Y-102666666D02*
X138038152Y-102666666D01*
X138038152Y-102666666D02*
X138133390Y-102714285D01*
X138133390Y-102714285D02*
X138181009Y-102761904D01*
X138181009Y-102761904D02*
X138228628Y-102857142D01*
X138228628Y-102857142D02*
X138228628Y-103238094D01*
X137704819Y-102333332D02*
X137704819Y-101666666D01*
X137704819Y-101666666D02*
X138704819Y-102095237D01*
X139083333Y-134454819D02*
X138750000Y-133978628D01*
X138511905Y-134454819D02*
X138511905Y-133454819D01*
X138511905Y-133454819D02*
X138892857Y-133454819D01*
X138892857Y-133454819D02*
X138988095Y-133502438D01*
X138988095Y-133502438D02*
X139035714Y-133550057D01*
X139035714Y-133550057D02*
X139083333Y-133645295D01*
X139083333Y-133645295D02*
X139083333Y-133788152D01*
X139083333Y-133788152D02*
X139035714Y-133883390D01*
X139035714Y-133883390D02*
X138988095Y-133931009D01*
X138988095Y-133931009D02*
X138892857Y-133978628D01*
X138892857Y-133978628D02*
X138511905Y-133978628D01*
X139940476Y-133454819D02*
X139750000Y-133454819D01*
X139750000Y-133454819D02*
X139654762Y-133502438D01*
X139654762Y-133502438D02*
X139607143Y-133550057D01*
X139607143Y-133550057D02*
X139511905Y-133692914D01*
X139511905Y-133692914D02*
X139464286Y-133883390D01*
X139464286Y-133883390D02*
X139464286Y-134264342D01*
X139464286Y-134264342D02*
X139511905Y-134359580D01*
X139511905Y-134359580D02*
X139559524Y-134407200D01*
X139559524Y-134407200D02*
X139654762Y-134454819D01*
X139654762Y-134454819D02*
X139845238Y-134454819D01*
X139845238Y-134454819D02*
X139940476Y-134407200D01*
X139940476Y-134407200D02*
X139988095Y-134359580D01*
X139988095Y-134359580D02*
X140035714Y-134264342D01*
X140035714Y-134264342D02*
X140035714Y-134026247D01*
X140035714Y-134026247D02*
X139988095Y-133931009D01*
X139988095Y-133931009D02*
X139940476Y-133883390D01*
X139940476Y-133883390D02*
X139845238Y-133835771D01*
X139845238Y-133835771D02*
X139654762Y-133835771D01*
X139654762Y-133835771D02*
X139559524Y-133883390D01*
X139559524Y-133883390D02*
X139511905Y-133931009D01*
X139511905Y-133931009D02*
X139464286Y-134026247D01*
X122416666Y-139431009D02*
X122083333Y-139431009D01*
X122083333Y-139954819D02*
X122083333Y-138954819D01*
X122083333Y-138954819D02*
X122559523Y-138954819D01*
X123464285Y-139954819D02*
X122892857Y-139954819D01*
X123178571Y-139954819D02*
X123178571Y-138954819D01*
X123178571Y-138954819D02*
X123083333Y-139097676D01*
X123083333Y-139097676D02*
X122988095Y-139192914D01*
X122988095Y-139192914D02*
X122892857Y-139240533D01*
D13*
%TO.C,SL5*%
X128650000Y-97800000D02*
X128850000Y-97800000D01*
X128650000Y-97200000D02*
X128850000Y-97200000D01*
D14*
%TO.C,R1*%
X131420000Y-94050000D02*
X131420000Y-92450000D01*
X130080000Y-94050000D02*
X130080000Y-92450000D01*
%TO.C,D3*%
X128140000Y-135430000D02*
X128140000Y-134070000D01*
X128140000Y-134070000D02*
X125400000Y-134070000D01*
X125400000Y-135430000D02*
X128140000Y-135430000D01*
D10*
X128560000Y-134750000D02*
G75*
G03*
X128560000Y-134750000I-100000J0D01*
G01*
D13*
%TO.C,SL1*%
X115450000Y-126400000D02*
X115450000Y-126600000D01*
X116050000Y-126400000D02*
X116050000Y-126600000D01*
D14*
%TO.C,R2*%
X131420000Y-99450000D02*
X131420000Y-101050000D01*
X130080000Y-99450000D02*
X130080000Y-101050000D01*
%TO.C,R9*%
X114700000Y-91170000D02*
X116300000Y-91170000D01*
X114700000Y-89830000D02*
X116300000Y-89830000D01*
D13*
%TO.C,X1*%
X112200000Y-145900000D02*
X108100000Y-145900000D01*
X112200000Y-145900000D02*
X112200000Y-144500000D01*
X106500000Y-144550000D02*
X104775000Y-144550000D01*
X113400000Y-138600000D02*
X113400000Y-136900000D01*
X105750000Y-138400000D02*
X105750000Y-136600000D01*
X112200000Y-125500000D02*
X112200000Y-124100000D01*
X112200000Y-124100000D02*
X108200000Y-124100000D01*
D14*
%TO.C,F2*%
X117345000Y-95665000D02*
X114125000Y-95665000D01*
X117345000Y-98835000D02*
X114125000Y-98835000D01*
D11*
%TO.C,SW1*%
X140500000Y-124000000D02*
X143500000Y-124000000D01*
X140500000Y-126500000D02*
X143500000Y-126500000D01*
D14*
%TO.C,C2*%
X131750000Y-126585000D02*
X129750000Y-126585000D01*
X131750000Y-128415000D02*
X129750000Y-128415000D01*
D11*
%TO.C,SW2*%
X140500000Y-128750000D02*
X143500000Y-128750000D01*
X140500000Y-131250000D02*
X143500000Y-131250000D01*
%TO.C,J1*%
X144000000Y-148125000D02*
X144000000Y-138875000D01*
X137340000Y-147975000D02*
X137340000Y-139025000D01*
X144000000Y-143500000D02*
X142730000Y-143500000D01*
D13*
%TO.C,SL4*%
X128650000Y-96300000D02*
X128850000Y-96300000D01*
X128650000Y-95700000D02*
X128850000Y-95700000D01*
D14*
%TO.C,C3*%
X131750000Y-124480000D02*
X129750000Y-124480000D01*
X131750000Y-126310000D02*
X129750000Y-126310000D01*
D13*
%TO.C,X3*%
X133900000Y-111300000D02*
X133900000Y-115400000D01*
X133900000Y-111300000D02*
X132500000Y-111300000D01*
X132550000Y-117000000D02*
X132550000Y-118725000D01*
X126600000Y-110100000D02*
X124900000Y-110100000D01*
X126400000Y-117750000D02*
X124600000Y-117750000D01*
X113500000Y-111300000D02*
X112100000Y-111300000D01*
X112100000Y-111300000D02*
X112100000Y-115300000D01*
D14*
%TO.C,R15*%
X115080000Y-128200000D02*
X115080000Y-129800000D01*
X116420000Y-128200000D02*
X116420000Y-129800000D01*
%TO.C,D2*%
X128140000Y-137430000D02*
X128140000Y-136070000D01*
X128140000Y-136070000D02*
X125400000Y-136070000D01*
X125400000Y-137430000D02*
X128140000Y-137430000D01*
D10*
X128560000Y-136750000D02*
G75*
G03*
X128560000Y-136750000I-100000J0D01*
G01*
D14*
%TO.C,C1*%
X131750000Y-133585000D02*
X129750000Y-133585000D01*
X131750000Y-135415000D02*
X129750000Y-135415000D01*
%TO.C,R16*%
X110800000Y-108080000D02*
X109200000Y-108080000D01*
X110800000Y-109420000D02*
X109200000Y-109420000D01*
D10*
%TO.C,Q1*%
X117535000Y-88450000D02*
G75*
G03*
X117535000Y-88450000I-100000J0D01*
G01*
D14*
X116200000Y-86000000D02*
X114800000Y-86000000D01*
X114800000Y-86000000D02*
X114800000Y-87015000D01*
X117055000Y-89000000D02*
X114800000Y-89000000D01*
X114800000Y-89000000D02*
X114800000Y-87985000D01*
%TO.C,R3*%
X129420000Y-94050000D02*
X129420000Y-92450000D01*
X128080000Y-94050000D02*
X128080000Y-92450000D01*
%TO.C,R5*%
X141200000Y-136420000D02*
X142800000Y-136420000D01*
X141200000Y-135080000D02*
X142800000Y-135080000D01*
%TO.C,R11*%
X127330000Y-124700000D02*
X127330000Y-126300000D01*
X128670000Y-124700000D02*
X128670000Y-126300000D01*
D11*
%TO.C,R14*%
X115600000Y-107125000D02*
X116400000Y-107125000D01*
X115600000Y-103875000D02*
X116400000Y-103875000D01*
D14*
%TO.C,U9*%
X129240000Y-130400000D02*
X129390000Y-130400000D01*
X129240000Y-132100000D02*
X129240000Y-130400000D01*
X129390000Y-132100000D02*
X129240000Y-132100000D01*
X132110000Y-132100000D02*
X132260000Y-132100000D01*
X132260000Y-130400000D02*
X132110000Y-130400000D01*
X132260000Y-132100000D02*
X132260000Y-130400000D01*
%TO.C,R4*%
X129420000Y-99450000D02*
X129420000Y-101050000D01*
X128080000Y-99450000D02*
X128080000Y-101050000D01*
%TO.C,U1*%
X128400000Y-145040000D02*
X125620000Y-145040000D01*
X125620000Y-145030000D02*
X125620000Y-144910000D01*
X127380000Y-142090000D02*
X127380000Y-141970000D01*
X125620000Y-141970000D02*
X125620000Y-142090000D01*
X127380000Y-141970000D02*
X125620000Y-141970000D01*
D10*
X128876920Y-144470000D02*
G75*
G03*
X128876920Y-144470000I-106920J0D01*
G01*
D14*
%TO.C,R8*%
X116300000Y-91580000D02*
X114700000Y-91580000D01*
X116300000Y-92920000D02*
X114700000Y-92920000D01*
%TO.C,R10*%
X127330000Y-127950000D02*
X127330000Y-129550000D01*
X128670000Y-127950000D02*
X128670000Y-129550000D01*
D13*
%TO.C,SL7*%
X134050000Y-96850000D02*
X134050000Y-96650000D01*
X133450000Y-96850000D02*
X133450000Y-96650000D01*
%TO.C,SL6*%
X132450000Y-96650000D02*
X132450000Y-96850000D01*
X133050000Y-96650000D02*
X133050000Y-96850000D01*
D14*
%TO.C,R13*%
X114700000Y-93330000D02*
X116300000Y-93330000D01*
X114700000Y-94670000D02*
X116300000Y-94670000D01*
%TO.C,R12*%
X127330000Y-131200000D02*
X127330000Y-132800000D01*
X128670000Y-131200000D02*
X128670000Y-132800000D01*
%TO.C,R7*%
X137580000Y-101050000D02*
X137580000Y-99450000D01*
X138920000Y-101050000D02*
X138920000Y-99450000D01*
%TO.C,R6*%
X141225000Y-134670000D02*
X142825000Y-134670000D01*
X141225000Y-133330000D02*
X142825000Y-133330000D01*
%TO.C,F1*%
X124890000Y-141085000D02*
X128110000Y-141085000D01*
X124890000Y-137915000D02*
X128110000Y-137915000D01*
%TD*%
M02*
