%TF.GenerationSoftware,KiCad,Pcbnew,7.0.6*%
%TF.CreationDate,2023-08-09T14:48:52+09:30*%
%TF.ProjectId,backplane,6261636b-706c-4616-9e65-2e6b69636164,V1.0*%
%TF.SameCoordinates,Original*%
%TF.FileFunction,Paste,Bot*%
%TF.FilePolarity,Positive*%
%FSLAX46Y46*%
G04 Gerber Fmt 4.6, Leading zero omitted, Abs format (unit mm)*
G04 Created by KiCad (PCBNEW 7.0.6) date 2023-08-09 14:48:52*
%MOMM*%
%LPD*%
G01*
G04 APERTURE LIST*
G04 Aperture macros list*
%AMRoundRect*
0 Rectangle with rounded corners*
0 $1 Rounding radius*
0 $2 $3 $4 $5 $6 $7 $8 $9 X,Y pos of 4 corners*
0 Add a 4 corners polygon primitive as box body*
4,1,4,$2,$3,$4,$5,$6,$7,$8,$9,$2,$3,0*
0 Add four circle primitives for the rounded corners*
1,1,$1+$1,$2,$3*
1,1,$1+$1,$4,$5*
1,1,$1+$1,$6,$7*
1,1,$1+$1,$8,$9*
0 Add four rect primitives between the rounded corners*
20,1,$1+$1,$2,$3,$4,$5,0*
20,1,$1+$1,$4,$5,$6,$7,0*
20,1,$1+$1,$6,$7,$8,$9,0*
20,1,$1+$1,$8,$9,$2,$3,0*%
G04 Aperture macros list end*
%ADD10RoundRect,0.500000X0.500000X1.500000X-0.500000X1.500000X-0.500000X-1.500000X0.500000X-1.500000X0*%
%ADD11RoundRect,0.500000X-0.500000X-1.500000X0.500000X-1.500000X0.500000X1.500000X-0.500000X1.500000X0*%
%ADD12RoundRect,0.249600X-0.350400X-0.650400X0.350400X-0.650400X0.350400X0.650400X-0.350400X0.650400X0*%
%ADD13RoundRect,0.150000X-0.150000X-0.625000X0.150000X-0.625000X0.150000X0.625000X-0.150000X0.625000X0*%
%ADD14RoundRect,0.227500X0.237500X-0.227500X0.237500X0.227500X-0.237500X0.227500X-0.237500X-0.227500X0*%
%ADD15C,6.000000*%
%ADD16R,2.500000X0.750000*%
%ADD17O,2.500000X0.750000*%
%ADD18RoundRect,0.500000X-1.500000X0.500000X-1.500000X-0.500000X1.500000X-0.500000X1.500000X0.500000X0*%
%ADD19RoundRect,0.249600X0.350400X0.650400X-0.350400X0.650400X-0.350400X-0.650400X0.350400X-0.650400X0*%
%ADD20RoundRect,0.150000X0.150000X0.625000X-0.150000X0.625000X-0.150000X-0.625000X0.150000X-0.625000X0*%
G04 APERTURE END LIST*
D10*
%TO.C,P18*%
X119250000Y-143000000D03*
%TD*%
%TO.C,P17*%
X123000000Y-143000000D03*
%TD*%
D11*
%TO.C,P14*%
X123000000Y-128500000D03*
%TD*%
D12*
%TO.C,P2*%
X131450000Y-67375000D03*
X137050000Y-67375000D03*
D13*
X132750000Y-71250000D03*
X133750000Y-71250000D03*
X134750000Y-71250000D03*
X135750000Y-71250000D03*
%TD*%
D14*
%TO.C,D1*%
X140750000Y-78240000D03*
X140750000Y-79760000D03*
%TD*%
D15*
%TO.C,MNT4*%
X123000000Y-104000000D03*
%TD*%
D11*
%TO.C,P8*%
X115500000Y-135750000D03*
%TD*%
D15*
%TO.C,MNT7*%
X123000000Y-54000000D03*
%TD*%
D16*
%TO.C,X2*%
X103000000Y-144250000D03*
D17*
X107000000Y-144250000D03*
X103000000Y-142980000D03*
X107000000Y-142980000D03*
X103000000Y-141710000D03*
X107000000Y-141710000D03*
X103000000Y-140440000D03*
X107000000Y-140440000D03*
X103000000Y-139170000D03*
X107000000Y-139170000D03*
%TD*%
D11*
%TO.C,P9*%
X111750000Y-135750000D03*
%TD*%
D18*
%TO.C,P5*%
X129250000Y-135250000D03*
%TD*%
D11*
%TO.C,P12*%
X119250000Y-128500000D03*
%TD*%
D15*
%TO.C,MNT6*%
X123000000Y-84000000D03*
%TD*%
D11*
%TO.C,P11*%
X111750000Y-128500000D03*
%TD*%
D18*
%TO.C,P16*%
X129250000Y-131500000D03*
%TD*%
D15*
%TO.C,MNT5*%
X123000000Y-74000000D03*
%TD*%
D19*
%TO.C,P3*%
X137050000Y-90625000D03*
X131450000Y-90625000D03*
D20*
X135750000Y-86750000D03*
X134750000Y-86750000D03*
X133750000Y-86750000D03*
X132750000Y-86750000D03*
%TD*%
D18*
%TO.C,P15*%
X129250000Y-127750000D03*
%TD*%
D11*
%TO.C,P1*%
X140000000Y-103750000D03*
%TD*%
%TO.C,P13*%
X115500000Y-128500000D03*
%TD*%
D19*
%TO.C,P4*%
X137050000Y-105625000D03*
X131450000Y-105625000D03*
D20*
X135750000Y-101750000D03*
X134750000Y-101750000D03*
X133750000Y-101750000D03*
X132750000Y-101750000D03*
%TD*%
D11*
%TO.C,P7*%
X119250000Y-135750000D03*
%TD*%
%TO.C,P6*%
X123000000Y-135750000D03*
%TD*%
M02*
