M48
; DRILL file {KiCad 7.0.6} date Thu 17 Aug 2023 07:33:26
; FORMAT={-:-/ absolute / metric / decimal}
; #@! TF.CreationDate,2023-08-17T07:33:26+09:30
; #@! TF.GenerationSoftware,Kicad,Pcbnew,7.0.6
; #@! TF.FileFunction,Plated,1,2,PTH
FMAT,2
METRIC
; #@! TA.AperFunction,Plated,PTH,ComponentDrill
T1C0.200
; #@! TA.AperFunction,Plated,PTH,ViaDrill
T2C0.300
; #@! TA.AperFunction,Plated,PTH,ComponentDrill
T3C0.300
; #@! TA.AperFunction,Plated,PTH,ViaDrill
T4C0.400
; #@! TA.AperFunction,Plated,PTH,ComponentDrill
T5C1.015
; #@! TA.AperFunction,Plated,PTH,ComponentDrill
T6C1.016
%
G90
G05
T1
X101.0Y-57.9
X101.0Y-62.1
X102.3Y-60.0
X129.805Y-83.12
X130.38Y-82.17
X130.38Y-84.07
X130.955Y-83.12
X135.7Y-60.0
X137.0Y-57.9
X137.0Y-62.1
T2
X101.0Y-56.0
X101.5Y-98.5
X102.5Y-51.9
X102.6Y-67.75
X102.6Y-70.25
X102.6Y-71.5
X102.8Y-75.475
X104.2Y-57.522
X104.2Y-64.2
X104.2Y-72.4
X104.8Y-64.8
X104.8Y-66.0
X104.8Y-76.8
X105.0Y-52.2
X105.0Y-77.5
X105.25Y-84.0
X105.25Y-84.75
X105.25Y-85.5
X105.407Y-74.407
X106.0Y-57.6
X106.5Y-78.2
X106.607Y-51.793
X106.8Y-58.0
X107.0Y-96.2
X107.193Y-78.593
X107.6Y-58.4
X107.6Y-93.6
X107.6Y-99.2
X107.75Y-80.75
X108.4Y-58.8
X108.5Y-78.75
X108.75Y-79.7
X111.4Y-99.8
X111.5Y-82.0
X111.5Y-93.5
X111.5Y-95.8
X111.5Y-96.8
X111.5Y-97.8
X111.5Y-98.75
X111.8Y-48.0
X111.8Y-94.6
X112.0Y-78.2
X112.225Y-80.0
X112.4Y-91.0
X112.4Y-94.0
X112.8Y-100.4
X113.0Y-85.5
X113.475Y-92.0
X113.7Y-95.3
X114.6Y-92.4
X114.725Y-89.0
X114.8Y-88.0
X114.9Y-83.1
X115.0Y-71.4
X115.0Y-73.6
X115.0Y-76.2
X115.025Y-72.775
X115.4Y-77.6
X115.573Y-84.973
X115.871Y-76.129
X116.475Y-93.5
X116.725Y-74.5
X116.84Y-76.124
X117.0Y-90.0
X117.0Y-92.75
X117.5Y-66.0
X117.5Y-100.6
X117.524Y-93.6
X117.8Y-96.2
X118.6Y-99.4
X118.8Y-93.2
X119.0Y-83.25
X119.0Y-85.25
X120.0Y-77.6
X120.3Y-75.2
X121.25Y-99.75
X121.738Y-98.48
X122.0Y-84.75
X122.4Y-86.2
X122.6Y-79.2
X122.6Y-98.4
X123.0Y-93.0
X123.4Y-97.6
X123.8Y-95.6
X124.6Y-95.5
X125.2Y-100.4
X125.4Y-87.0
X125.8Y-96.8
X126.2Y-97.6
X126.4Y-84.357
X127.0Y-96.8
X128.0Y-80.75
X128.0Y-94.6
X128.0Y-96.6
X128.6Y-93.4
X129.2Y-91.0
X129.25Y-99.0
X130.026Y-96.026
X131.0Y-77.5
X131.5Y-86.25
X131.75Y-77.5
X132.2Y-96.6
X132.4Y-77.5
X133.25Y-82.25
X137.0Y-85.6
T3
X109.0Y-71.0
X109.0Y-72.0
X109.0Y-73.025
X110.0Y-71.0
X110.0Y-72.0
X110.0Y-73.025
X111.0Y-71.0
X111.0Y-72.0
X111.025Y-73.025
T4
X111.49Y-40.99
X116.5Y-59.5
X119.5Y-61.75
X135.25Y-62.75
T5
X116.46Y-46.5
X116.46Y-51.58
X119.0Y-46.5
X119.0Y-51.58
X121.54Y-46.5
X121.54Y-51.58
T6
X103.0Y-87.985
X103.0Y-90.525
X135.0Y-87.96
X135.0Y-90.5
T0
M30
