%TF.GenerationSoftware,KiCad,Pcbnew,7.0.6*%
%TF.CreationDate,2023-08-17T07:33:18+09:30*%
%TF.ProjectId,spe-source,7370652d-736f-4757-9263-652e6b696361,V1.0*%
%TF.SameCoordinates,Original*%
%TF.FileFunction,Copper,L1,Top*%
%TF.FilePolarity,Positive*%
%FSLAX46Y46*%
G04 Gerber Fmt 4.6, Leading zero omitted, Abs format (unit mm)*
G04 Created by KiCad (PCBNEW 7.0.6) date 2023-08-17 07:33:18*
%MOMM*%
%LPD*%
G01*
G04 APERTURE LIST*
G04 Aperture macros list*
%AMRoundRect*
0 Rectangle with rounded corners*
0 $1 Rounding radius*
0 $2 $3 $4 $5 $6 $7 $8 $9 X,Y pos of 4 corners*
0 Add a 4 corners polygon primitive as box body*
4,1,4,$2,$3,$4,$5,$6,$7,$8,$9,$2,$3,0*
0 Add four circle primitives for the rounded corners*
1,1,$1+$1,$2,$3*
1,1,$1+$1,$4,$5*
1,1,$1+$1,$6,$7*
1,1,$1+$1,$8,$9*
0 Add four rect primitives between the rounded corners*
20,1,$1+$1,$2,$3,$4,$5,0*
20,1,$1+$1,$4,$5,$6,$7,0*
20,1,$1+$1,$6,$7,$8,$9,0*
20,1,$1+$1,$8,$9,$2,$3,0*%
%AMFreePoly0*
4,1,21,-0.125000,1.200000,0.125000,1.200000,0.125000,1.700000,0.375000,1.700000,0.375000,1.200000,0.825000,1.200000,0.825000,-1.200000,0.375000,-1.200000,0.375000,-1.700000,0.125000,-1.700000,0.125000,-1.200000,-0.125000,-1.200000,-0.125000,-1.700000,-0.375000,-1.700000,-0.375000,-1.200000,-0.825000,-1.200000,-0.825000,1.200000,-0.375000,1.200000,-0.375000,1.700000,-0.125000,1.700000,
-0.125000,1.200000,-0.125000,1.200000,$1*%
G04 Aperture macros list end*
%TA.AperFunction,SMDPad,CuDef*%
%ADD10RoundRect,0.127500X-0.127500X-0.172500X0.127500X-0.172500X0.127500X0.172500X-0.127500X0.172500X0*%
%TD*%
%TA.AperFunction,SMDPad,CuDef*%
%ADD11RoundRect,0.127500X0.127500X0.172500X-0.127500X0.172500X-0.127500X-0.172500X0.127500X-0.172500X0*%
%TD*%
%TA.AperFunction,SMDPad,CuDef*%
%ADD12RoundRect,0.147500X0.147500X0.152500X-0.147500X0.152500X-0.147500X-0.152500X0.147500X-0.152500X0*%
%TD*%
%TA.AperFunction,SMDPad,CuDef*%
%ADD13RoundRect,0.212500X0.277500X-0.212500X0.277500X0.212500X-0.277500X0.212500X-0.277500X-0.212500X0*%
%TD*%
%TA.AperFunction,SMDPad,CuDef*%
%ADD14RoundRect,0.100000X0.100000X-0.350000X0.100000X0.350000X-0.100000X0.350000X-0.100000X-0.350000X0*%
%TD*%
%TA.AperFunction,SMDPad,CuDef*%
%ADD15R,1.200000X2.000000*%
%TD*%
%TA.AperFunction,SMDPad,CuDef*%
%ADD16RoundRect,0.212500X0.212500X0.277500X-0.212500X0.277500X-0.212500X-0.277500X0.212500X-0.277500X0*%
%TD*%
%TA.AperFunction,SMDPad,CuDef*%
%ADD17RoundRect,0.127500X0.172500X-0.127500X0.172500X0.127500X-0.172500X0.127500X-0.172500X-0.127500X0*%
%TD*%
%TA.AperFunction,SMDPad,CuDef*%
%ADD18RoundRect,0.147500X-0.147500X-0.152500X0.147500X-0.152500X0.147500X0.152500X-0.147500X0.152500X0*%
%TD*%
%TA.AperFunction,SMDPad,CuDef*%
%ADD19RoundRect,0.115000X0.115000X-0.460000X0.115000X0.460000X-0.115000X0.460000X-0.115000X-0.460000X0*%
%TD*%
%TA.AperFunction,SMDPad,CuDef*%
%ADD20RoundRect,0.230000X0.230000X0.255000X-0.230000X0.255000X-0.230000X-0.255000X0.230000X-0.255000X0*%
%TD*%
%TA.AperFunction,SMDPad,CuDef*%
%ADD21R,3.000000X4.000000*%
%TD*%
%TA.AperFunction,SMDPad,CuDef*%
%ADD22RoundRect,0.205000X-0.205000X-0.630000X0.205000X-0.630000X0.205000X0.630000X-0.205000X0.630000X0*%
%TD*%
%TA.AperFunction,SMDPad,CuDef*%
%ADD23RoundRect,0.212500X-0.212500X-0.277500X0.212500X-0.277500X0.212500X0.277500X-0.212500X0.277500X0*%
%TD*%
%TA.AperFunction,SMDPad,CuDef*%
%ADD24RoundRect,0.120000X0.120000X-0.485000X0.120000X0.485000X-0.120000X0.485000X-0.120000X-0.485000X0*%
%TD*%
%TA.AperFunction,SMDPad,CuDef*%
%ADD25RoundRect,0.062500X0.350000X0.062500X-0.350000X0.062500X-0.350000X-0.062500X0.350000X-0.062500X0*%
%TD*%
%TA.AperFunction,SMDPad,CuDef*%
%ADD26RoundRect,0.062500X0.062500X0.350000X-0.062500X0.350000X-0.062500X-0.350000X0.062500X-0.350000X0*%
%TD*%
%TA.AperFunction,ComponentPad*%
%ADD27C,0.600000*%
%TD*%
%TA.AperFunction,SMDPad,CuDef*%
%ADD28R,3.500000X3.500000*%
%TD*%
%TA.AperFunction,SMDPad,CuDef*%
%ADD29R,1.220000X0.580000*%
%TD*%
%TA.AperFunction,SMDPad,CuDef*%
%ADD30RoundRect,0.230000X-0.230000X-0.255000X0.230000X-0.255000X0.230000X0.255000X-0.230000X0.255000X0*%
%TD*%
%TA.AperFunction,SMDPad,CuDef*%
%ADD31R,0.760000X1.200000*%
%TD*%
%TA.AperFunction,SMDPad,CuDef*%
%ADD32RoundRect,0.147500X0.152500X-0.147500X0.152500X0.147500X-0.152500X0.147500X-0.152500X-0.147500X0*%
%TD*%
%TA.AperFunction,ComponentPad*%
%ADD33R,2.000000X2.000000*%
%TD*%
%TA.AperFunction,ComponentPad*%
%ADD34C,2.000000*%
%TD*%
%TA.AperFunction,SMDPad,CuDef*%
%ADD35RoundRect,0.290000X0.290000X0.445000X-0.290000X0.445000X-0.290000X-0.445000X0.290000X-0.445000X0*%
%TD*%
%TA.AperFunction,SMDPad,CuDef*%
%ADD36RoundRect,0.140000X0.140000X-0.535000X0.140000X0.535000X-0.140000X0.535000X-0.140000X-0.535000X0*%
%TD*%
%TA.AperFunction,SMDPad,CuDef*%
%ADD37RoundRect,0.100000X-0.100000X0.350000X-0.100000X-0.350000X0.100000X-0.350000X0.100000X0.350000X0*%
%TD*%
%TA.AperFunction,SMDPad,CuDef*%
%ADD38R,1.200000X0.500000*%
%TD*%
%TA.AperFunction,SMDPad,CuDef*%
%ADD39R,0.420000X0.500000*%
%TD*%
%TA.AperFunction,SMDPad,CuDef*%
%ADD40RoundRect,0.290000X-0.620000X0.290000X-0.620000X-0.290000X0.620000X-0.290000X0.620000X0.290000X0*%
%TD*%
%TA.AperFunction,SMDPad,CuDef*%
%ADD41RoundRect,0.152500X0.437500X-0.152500X0.437500X0.152500X-0.437500X0.152500X-0.437500X-0.152500X0*%
%TD*%
%TA.AperFunction,SMDPad,CuDef*%
%ADD42R,1.090000X1.190000*%
%TD*%
%TA.AperFunction,SMDPad,CuDef*%
%ADD43RoundRect,0.227500X-0.237500X0.227500X-0.237500X-0.227500X0.237500X-0.227500X0.237500X0.227500X0*%
%TD*%
%TA.AperFunction,ComponentPad*%
%ADD44R,2.032000X2.032000*%
%TD*%
%TA.AperFunction,ComponentPad*%
%ADD45O,2.032000X2.032000*%
%TD*%
%TA.AperFunction,SMDPad,CuDef*%
%ADD46R,0.350000X1.450000*%
%TD*%
%TA.AperFunction,ComponentPad*%
%ADD47C,0.454000*%
%TD*%
%TA.AperFunction,SMDPad,CuDef*%
%ADD48RoundRect,0.290000X-0.445000X0.290000X-0.445000X-0.290000X0.445000X-0.290000X0.445000X0.290000X0*%
%TD*%
%TA.AperFunction,SMDPad,CuDef*%
%ADD49R,1.200000X0.760000*%
%TD*%
%TA.AperFunction,SMDPad,CuDef*%
%ADD50RoundRect,0.290000X0.620000X-0.290000X0.620000X0.290000X-0.620000X0.290000X-0.620000X-0.290000X0*%
%TD*%
%TA.AperFunction,SMDPad,CuDef*%
%ADD51RoundRect,0.212500X-0.277500X0.212500X-0.277500X-0.212500X0.277500X-0.212500X0.277500X0.212500X0*%
%TD*%
%TA.AperFunction,SMDPad,CuDef*%
%ADD52R,0.600000X0.240000*%
%TD*%
%TA.AperFunction,ComponentPad*%
%ADD53C,0.500000*%
%TD*%
%TA.AperFunction,SMDPad,CuDef*%
%ADD54FreePoly0,180.000000*%
%TD*%
%TA.AperFunction,SMDPad,CuDef*%
%ADD55RoundRect,0.290000X-0.290000X-0.445000X0.290000X-0.445000X0.290000X0.445000X-0.290000X0.445000X0*%
%TD*%
%TA.AperFunction,SMDPad,CuDef*%
%ADD56RoundRect,0.152500X-0.152500X-0.437500X0.152500X-0.437500X0.152500X0.437500X-0.152500X0.437500X0*%
%TD*%
%TA.AperFunction,ViaPad*%
%ADD57C,0.500000*%
%TD*%
%TA.AperFunction,ViaPad*%
%ADD58C,0.800000*%
%TD*%
%TA.AperFunction,Conductor*%
%ADD59C,0.800000*%
%TD*%
%TA.AperFunction,Conductor*%
%ADD60C,0.250000*%
%TD*%
%TA.AperFunction,Conductor*%
%ADD61C,0.350000*%
%TD*%
%TA.AperFunction,Conductor*%
%ADD62C,0.200000*%
%TD*%
%TA.AperFunction,Conductor*%
%ADD63C,0.450000*%
%TD*%
%TA.AperFunction,Conductor*%
%ADD64C,0.160000*%
%TD*%
%TA.AperFunction,Conductor*%
%ADD65C,0.120000*%
%TD*%
%TA.AperFunction,Conductor*%
%ADD66C,0.550000*%
%TD*%
%TA.AperFunction,Conductor*%
%ADD67C,0.400000*%
%TD*%
G04 APERTURE END LIST*
%TA.AperFunction,EtchedComponent*%
%TO.C,X2*%
G36*
X100613935Y-57313048D02*
G01*
X100966374Y-57423549D01*
X101301158Y-57579573D01*
X101612436Y-57778392D01*
X101894770Y-58016533D01*
X102143226Y-58289834D01*
X102353461Y-58593520D01*
X102521803Y-58922282D01*
X102645309Y-59270377D01*
X102721820Y-59631721D01*
X102750000Y-60000000D01*
X102724373Y-60369189D01*
X102649760Y-60731666D01*
X102527494Y-61080963D01*
X102359756Y-61410843D01*
X102149540Y-61715419D01*
X101900599Y-61989254D01*
X101617377Y-62227460D01*
X101304928Y-62425785D01*
X100968831Y-62580689D01*
X100250000Y-62750000D01*
X100250000Y-61950000D01*
X100538173Y-61911580D01*
X100816787Y-61828553D01*
X101078983Y-61702963D01*
X101318304Y-61537903D01*
X101528858Y-61337437D01*
X101705460Y-61106501D01*
X101843761Y-60850782D01*
X101940356Y-60576576D01*
X102000000Y-60000000D01*
X101992867Y-59709365D01*
X101940356Y-59423424D01*
X101843761Y-59149218D01*
X101705460Y-58893499D01*
X101528858Y-58662563D01*
X101318304Y-58462097D01*
X101078983Y-58297037D01*
X100816787Y-58171447D01*
X100250000Y-58050000D01*
X100250000Y-57250000D01*
X100613935Y-57313048D01*
G37*
%TD.AperFunction*%
%TA.AperFunction,EtchedComponent*%
G36*
X137750000Y-58050000D02*
G01*
X137461827Y-58088420D01*
X137183213Y-58171447D01*
X136921017Y-58297037D01*
X136681696Y-58462097D01*
X136471142Y-58662563D01*
X136294540Y-58893499D01*
X136156239Y-59149218D01*
X136059644Y-59423424D01*
X136000000Y-60000000D01*
X136007133Y-60290635D01*
X136059644Y-60576576D01*
X136156239Y-60850782D01*
X136294540Y-61106501D01*
X136471142Y-61337437D01*
X136681696Y-61537903D01*
X136921017Y-61702963D01*
X137183213Y-61828553D01*
X137750000Y-61950000D01*
X137750000Y-62750000D01*
X137386065Y-62686952D01*
X137033626Y-62576451D01*
X136698842Y-62420427D01*
X136387564Y-62221608D01*
X136105230Y-61983467D01*
X135856774Y-61710166D01*
X135646539Y-61406480D01*
X135478197Y-61077718D01*
X135354691Y-60729623D01*
X135278180Y-60368279D01*
X135250000Y-60000000D01*
X135275627Y-59630811D01*
X135350240Y-59268334D01*
X135472506Y-58919037D01*
X135640244Y-58589157D01*
X135850460Y-58284581D01*
X136099401Y-58010746D01*
X136382623Y-57772540D01*
X136695072Y-57574215D01*
X137031169Y-57419311D01*
X137750000Y-57250000D01*
X137750000Y-58050000D01*
G37*
%TD.AperFunction*%
%TD*%
D10*
%TO.P,R30,2*%
%TO.N,Net-(U5-EN)*%
X113555000Y-86750000D03*
%TO.P,R30,1*%
%TO.N,+24V*%
X114445000Y-86750000D03*
%TD*%
D11*
%TO.P,R33,1*%
%TO.N,/MicroMod Function Board/ENABLE_ID_SOURCE*%
X115555000Y-82250000D03*
%TO.P,R33,2*%
%TO.N,Net-(Q1-G)*%
X116445000Y-82250000D03*
%TD*%
D10*
%TO.P,R31,1*%
%TO.N,/MicroMod Function Board/ENABLE_ID_SOURCE*%
X114445000Y-82250000D03*
%TO.P,R31,2*%
%TO.N,GND*%
X113555000Y-82250000D03*
%TD*%
D11*
%TO.P,R27,1*%
%TO.N,Net-(U5-VOUT)*%
X117555000Y-82250000D03*
%TO.P,R27,2*%
%TO.N,Net-(Q1-D)*%
X118445000Y-82250000D03*
%TD*%
D10*
%TO.P,R6,1*%
%TO.N,+3.3V*%
X116445000Y-86750000D03*
%TO.P,R6,2*%
%TO.N,/MicroMod Function Board/VID_VALID*%
X115555000Y-86750000D03*
%TD*%
D12*
%TO.P,C3,2*%
%TO.N,GND*%
X121655000Y-93750000D03*
%TO.P,C3,1*%
%TO.N,Net-(U1-INA+)*%
X120845000Y-93750000D03*
%TD*%
%TO.P,C2,1*%
%TO.N,Net-(U1-INB-)*%
X120845000Y-86250000D03*
%TO.P,C2,2*%
%TO.N,GND*%
X121655000Y-86250000D03*
%TD*%
%TO.P,C1,1*%
%TO.N,+3.3V*%
X117595000Y-86750000D03*
%TO.P,C1,2*%
%TO.N,GND*%
X118405000Y-86750000D03*
%TD*%
D13*
%TO.P,R26,1*%
%TO.N,Net-(C25-Pad2)*%
X121250000Y-56725000D03*
%TO.P,R26,2*%
%TO.N,Net-(C29-Pad1)*%
X121250000Y-58275000D03*
%TD*%
%TO.P,R21,1*%
%TO.N,Net-(D3-PadA)*%
X105000000Y-49225000D03*
%TO.P,R21,2*%
%TO.N,Net-(U4-LINK_ST)*%
X105000000Y-50775000D03*
%TD*%
%TO.P,R16,1*%
%TO.N,Net-(D1-PadA)*%
X107500000Y-49225000D03*
%TO.P,R16,2*%
%TO.N,Net-(U4-LED_0)*%
X107500000Y-50775000D03*
%TD*%
D14*
%TO.P,R19,1*%
%TO.N,GND*%
X102050000Y-56100000D03*
%TO.P,R19,2*%
X102850000Y-56100000D03*
%TO.P,R19,3*%
X103650000Y-56100000D03*
%TO.P,R19,4*%
%TO.N,unconnected-(R19-Pad4)*%
X104450000Y-56100000D03*
%TO.P,R19,5*%
%TO.N,unconnected-(R19-Pad5)*%
X104450000Y-54400000D03*
%TO.P,R19,6*%
%TO.N,Net-(U4-LED_0)*%
X103650000Y-54400000D03*
%TO.P,R19,7*%
%TO.N,Net-(U4-LINK_ST)*%
X102850000Y-54400000D03*
%TO.P,R19,8*%
%TO.N,Net-(U4-LED_1)*%
X102050000Y-54400000D03*
%TD*%
D15*
%TO.P,L3,1*%
%TO.N,Net-(J1-Pin_3)*%
X132520000Y-43750000D03*
%TO.P,L3,2*%
%TO.N,Net-(J1-Pin_2)*%
X129980000Y-43750000D03*
%TO.P,L3,3*%
%TO.N,Net-(L1-Pad7)*%
X129980000Y-51250000D03*
%TO.P,L3,4*%
%TO.N,Net-(L1-Pad6)*%
X132520000Y-51250000D03*
%TD*%
D16*
%TO.P,R3,2*%
%TO.N,GND*%
X122025000Y-87750000D03*
%TO.P,R3,1*%
%TO.N,Net-(U1-INB-)*%
X120475000Y-87750000D03*
%TD*%
D17*
%TO.P,R18,1*%
%TO.N,/Ethernet MAC+PHY/DATA-*%
X111975000Y-61305000D03*
%TO.P,R18,2*%
%TO.N,Net-(U4-RXN)*%
X111975000Y-62195000D03*
%TD*%
D18*
%TO.P,C7,1*%
%TO.N,Net-(U4-CEXT_3)*%
X106655000Y-65500000D03*
%TO.P,C7,2*%
%TO.N,GND*%
X105845000Y-65500000D03*
%TD*%
D19*
%TO.P,U5,1,VIN*%
%TO.N,+24V*%
X109800000Y-88000000D03*
%TO.P,U5,2,GND*%
%TO.N,GND*%
X110750000Y-88000000D03*
%TO.P,U5,3,NC*%
%TO.N,unconnected-(U5-NC-Pad3)*%
X111700000Y-88000000D03*
%TO.P,U5,4,EN*%
%TO.N,Net-(U5-EN)*%
X111700000Y-85500000D03*
%TO.P,U5,5,VOUT*%
%TO.N,Net-(U5-VOUT)*%
X109800000Y-85500000D03*
%TD*%
D20*
%TO.P,C34,1*%
%TO.N,+24V*%
X134225000Y-85120000D03*
%TO.P,C34,2*%
%TO.N,GND*%
X135775000Y-85120000D03*
%TD*%
D21*
%TO.P,L2,1*%
%TO.N,GND*%
X131750000Y-74750000D03*
%TO.P,L2,2*%
%TO.N,Net-(L1-Pad6)*%
X131750000Y-66750000D03*
%TO.P,L2,3*%
%TO.N,Net-(L1-Pad7)*%
X126750000Y-66750000D03*
%TO.P,L2,4*%
%TO.N,/PoDL Supply Handling/PSE+*%
X126750000Y-74750000D03*
%TD*%
D16*
%TO.P,R7,1*%
%TO.N,Net-(U2-S+)*%
X124975000Y-83500000D03*
%TO.P,R7,2*%
%TO.N,/MicroMod Function Board/24V_FAULT*%
X126525000Y-83500000D03*
%TD*%
D11*
%TO.P,R14,1*%
%TO.N,+3.3V*%
X103305000Y-73250000D03*
%TO.P,R14,2*%
%TO.N,/Ethernet MAC+PHY/~{INT}*%
X104195000Y-73250000D03*
%TD*%
D22*
%TO.P,R9,1*%
%TO.N,Net-(U2-S+)*%
X127155000Y-88250000D03*
%TO.P,R9,2*%
%TO.N,/PoDL Supply Handling/PSE+*%
X124345000Y-88250000D03*
%TD*%
D23*
%TO.P,R5,2*%
%TO.N,Net-(U1-INB-)*%
X120475000Y-89250000D03*
%TO.P,R5,1*%
%TO.N,/PoDL Supply Handling/PSE+*%
X122025000Y-89250000D03*
%TD*%
D24*
%TO.P,U2,1,VCC*%
%TO.N,+3.3V*%
X124775000Y-93505000D03*
%TO.P,U2,2,EN*%
X125425000Y-93505000D03*
%TO.P,U2,3,REF*%
%TO.N,GND*%
X126075000Y-93505000D03*
%TO.P,U2,4,GND*%
X126725000Y-93505000D03*
%TO.P,U2,5,Vout*%
%TO.N,/MicroMod Function Board/ANALOG*%
X126725000Y-90995000D03*
%TO.P,U2,6,NC*%
%TO.N,unconnected-(U2-NC-Pad6)*%
X126075000Y-90995000D03*
%TO.P,U2,7,S+*%
%TO.N,Net-(U2-S+)*%
X125425000Y-90995000D03*
%TO.P,U2,8,S-*%
%TO.N,/PoDL Supply Handling/PSE+*%
X124775000Y-90995000D03*
%TD*%
D18*
%TO.P,C6,1*%
%TO.N,Net-(U4-CEXT_2)*%
X106655000Y-64250000D03*
%TO.P,C6,2*%
%TO.N,GND*%
X105845000Y-64250000D03*
%TD*%
D25*
%TO.P,U4,1,SDI*%
%TO.N,/Ethernet MAC+PHY/COPI*%
X112937500Y-74250000D03*
%TO.P,U4,2,SDO/SPI_CFG0*%
%TO.N,/Ethernet MAC+PHY/CIPO*%
X112937500Y-73750000D03*
%TO.P,U4,3,LED_0*%
%TO.N,Net-(U4-LED_0)*%
X112937500Y-73250000D03*
%TO.P,U4,4,LINK_ST*%
%TO.N,Net-(U4-LINK_ST)*%
X112937500Y-72750000D03*
%TO.P,U4,5,~{RESET}*%
%TO.N,/Ethernet MAC+PHY/~{RESET}*%
X112937500Y-72250000D03*
%TO.P,U4,6,LED_1*%
%TO.N,Net-(U4-LED_1)*%
X112937500Y-71750000D03*
%TO.P,U4,7,CLK25_REF*%
%TO.N,unconnected-(U4-CLK25_REF-Pad7)*%
X112937500Y-71250000D03*
%TO.P,U4,8,XTAL_I/CLK_IN*%
%TO.N,Net-(U4-XTAL_I{slash}CLK_IN)*%
X112937500Y-70750000D03*
%TO.P,U4,9,XTAL_O*%
%TO.N,Net-(U4-XTAL_O)*%
X112937500Y-70250000D03*
%TO.P,U4,10,NC*%
%TO.N,unconnected-(U4-NC-Pad10)*%
X112937500Y-69750000D03*
D26*
%TO.P,U4,11,NC*%
%TO.N,unconnected-(U4-NC-Pad11)*%
X112250000Y-69062500D03*
%TO.P,U4,12,TXN*%
%TO.N,Net-(U4-TXN)*%
X111750000Y-69062500D03*
%TO.P,U4,13,RXN*%
%TO.N,Net-(U4-RXN)*%
X111250000Y-69062500D03*
%TO.P,U4,14,RXP*%
%TO.N,Net-(U4-RXP)*%
X110750000Y-69062500D03*
%TO.P,U4,15,TXP*%
%TO.N,Net-(U4-TXP)*%
X110250000Y-69062500D03*
%TO.P,U4,16,AVDD_H*%
%TO.N,+3.3V*%
X109750000Y-69062500D03*
%TO.P,U4,17,AVDD_H*%
X109250000Y-69062500D03*
%TO.P,U4,18,NC*%
%TO.N,unconnected-(U4-NC-Pad18)*%
X108750000Y-69062500D03*
%TO.P,U4,19,CEXT_2*%
%TO.N,Net-(U4-CEXT_2)*%
X108250000Y-69062500D03*
%TO.P,U4,20,CEXT_3*%
%TO.N,Net-(U4-CEXT_3)*%
X107750000Y-69062500D03*
D25*
%TO.P,U4,21,NC*%
%TO.N,unconnected-(U4-NC-Pad21)*%
X107062500Y-69750000D03*
%TO.P,U4,22,AVDD_L*%
%TO.N,+3.3V*%
X107062500Y-70250000D03*
%TO.P,U4,23,DLDO_1P1*%
%TO.N,Net-(U4-DLDO_1P1)*%
X107062500Y-70750000D03*
%TO.P,U4,24,DVDD_1P1*%
X107062500Y-71250000D03*
%TO.P,U4,25,~{INT}*%
%TO.N,/Ethernet MAC+PHY/~{INT}*%
X107062500Y-71750000D03*
%TO.P,U4,26,TEST1*%
%TO.N,Net-(U4-TEST1)*%
X107062500Y-72250000D03*
%TO.P,U4,27,TEST2*%
%TO.N,unconnected-(U4-TEST2-Pad27)*%
X107062500Y-72750000D03*
%TO.P,U4,28,NC*%
%TO.N,unconnected-(U4-NC-Pad28)*%
X107062500Y-73250000D03*
%TO.P,U4,29,~{CS}*%
%TO.N,/Ethernet MAC+PHY/~{CS}*%
X107062500Y-73750000D03*
%TO.P,U4,30,TS_TIMER/MS_SEL*%
%TO.N,Net-(U4-TS_TIMER{slash}MS_SEL)*%
X107062500Y-74250000D03*
D26*
%TO.P,U4,31,~{TX2P4_EN}*%
%TO.N,Net-(U4-~{TX2P4_EN})*%
X107750000Y-74937500D03*
%TO.P,U4,32,NC*%
%TO.N,unconnected-(U4-NC-Pad32)*%
X108250000Y-74937500D03*
%TO.P,U4,33,~{SWPD_EN}*%
%TO.N,Net-(U4-~{SWPD_EN})*%
X108750000Y-74937500D03*
%TO.P,U4,34,NC*%
%TO.N,unconnected-(U4-NC-Pad34)*%
X109250000Y-74937500D03*
%TO.P,U4,35,VDDIO*%
%TO.N,+3.3V*%
X109750000Y-74937500D03*
%TO.P,U4,36,NC*%
%TO.N,unconnected-(U4-NC-Pad36)*%
X110250000Y-74937500D03*
%TO.P,U4,37,SPI_CFG1*%
%TO.N,Net-(U4-SPI_CFG1)*%
X110750000Y-74937500D03*
%TO.P,U4,38,SCLK*%
%TO.N,/Ethernet MAC+PHY/CLK*%
X111250000Y-74937500D03*
%TO.P,U4,39,NC*%
%TO.N,unconnected-(U4-NC-Pad39)*%
X111750000Y-74937500D03*
%TO.P,U4,40,TS_CAPT*%
%TO.N,unconnected-(U4-TS_CAPT-Pad40)*%
X112250000Y-74937500D03*
D27*
%TO.P,U4,41,EP(GND)*%
%TO.N,GND*%
X111025000Y-73025000D03*
X111000000Y-72000000D03*
X111000000Y-71000000D03*
X110000000Y-73025000D03*
X110000000Y-72000000D03*
D28*
X110000000Y-72000000D03*
D27*
X110000000Y-71000000D03*
X109000000Y-73025000D03*
X109000000Y-72000000D03*
X109000000Y-71000000D03*
%TD*%
D18*
%TO.P,C16,1*%
%TO.N,+3.3V*%
X104155000Y-69000000D03*
%TO.P,C16,2*%
%TO.N,GND*%
X103345000Y-69000000D03*
%TD*%
D29*
%TO.P,IC1,1,A0*%
%TO.N,Net-(IC1-A0)*%
X110345000Y-97405000D03*
%TO.P,IC1,2,A1*%
%TO.N,Net-(IC1-A1)*%
X110345000Y-96135000D03*
%TO.P,IC1,3,A2*%
%TO.N,Net-(IC1-A2)*%
X110345000Y-94865000D03*
%TO.P,IC1,4,GND*%
%TO.N,GND*%
X110345000Y-93595000D03*
%TO.P,IC1,5,SDA*%
%TO.N,/MicroMod Function Board/SDA*%
X104655000Y-93595000D03*
%TO.P,IC1,6,SCL*%
%TO.N,/MicroMod Function Board/SCL*%
X104655000Y-94865000D03*
%TO.P,IC1,7,WP*%
%TO.N,Net-(IC1-WP)*%
X104655000Y-96135000D03*
%TO.P,IC1,8,VCC*%
%TO.N,+3.3V*%
X104655000Y-97405000D03*
%TD*%
D23*
%TO.P,R23,1*%
%TO.N,Net-(U4-TXN)*%
X112275000Y-65750000D03*
%TO.P,R23,2*%
%TO.N,Net-(U4-RXP)*%
X110725000Y-65750000D03*
%TD*%
D30*
%TO.P,C24,1*%
%TO.N,Net-(C24-Pad1)*%
X122025000Y-60750000D03*
%TO.P,C24,2*%
%TO.N,/Ethernet MAC+PHY/DATA+*%
X120475000Y-60750000D03*
%TD*%
D31*
%TO.P,D8,A,A*%
%TO.N,Net-(D6-K)*%
X121250000Y-80230000D03*
%TO.P,D8,C,K*%
%TO.N,/PoDL Supply Handling/PSE+*%
X121250000Y-76770000D03*
%TD*%
D32*
%TO.P,C28,1*%
%TO.N,/MicroMod Function Board/ANALOG*%
X128500000Y-91845000D03*
%TO.P,C28,2*%
%TO.N,GND*%
X128500000Y-92655000D03*
%TD*%
D18*
%TO.P,C12,1*%
%TO.N,+3.3V*%
X106655000Y-61750000D03*
%TO.P,C12,2*%
%TO.N,GND*%
X105845000Y-61750000D03*
%TD*%
D20*
%TO.P,C11,1*%
%TO.N,Net-(U4-XTAL_O)*%
X116725000Y-67000000D03*
%TO.P,C11,2*%
%TO.N,GND*%
X118275000Y-67000000D03*
%TD*%
D10*
%TO.P,R34,1*%
%TO.N,Net-(U8-ILIM)*%
X126195000Y-80500000D03*
%TO.P,R34,2*%
%TO.N,Net-(U8-EP)*%
X125305000Y-80500000D03*
%TD*%
D20*
%TO.P,C5,1*%
%TO.N,+24V*%
X109975000Y-90250000D03*
%TO.P,C5,2*%
%TO.N,GND*%
X111525000Y-90250000D03*
%TD*%
D19*
%TO.P,U6,1,VIN*%
%TO.N,+POWER*%
X102050000Y-82500000D03*
%TO.P,U6,2,GND*%
%TO.N,GND*%
X103000000Y-82500000D03*
%TO.P,U6,3,EN*%
%TO.N,Net-(U6-EN)*%
X103950000Y-82500000D03*
%TO.P,U6,4,NC*%
%TO.N,unconnected-(U6-NC-Pad4)*%
X103950000Y-80000000D03*
%TO.P,U6,5,VOUT*%
%TO.N,+3.3V*%
X102050000Y-80000000D03*
%TD*%
D11*
%TO.P,R12,1*%
%TO.N,+3.3V*%
X101555000Y-96000000D03*
%TO.P,R12,2*%
%TO.N,Net-(IC1-WP)*%
X102445000Y-96000000D03*
%TD*%
D31*
%TO.P,D6,A,A*%
%TO.N,GND*%
X118850000Y-76770000D03*
%TO.P,D6,C,K*%
%TO.N,Net-(D6-K)*%
X118850000Y-80230000D03*
%TD*%
D32*
%TO.P,C14,1*%
%TO.N,+3.3V*%
X109750000Y-77345000D03*
%TO.P,C14,2*%
%TO.N,GND*%
X109750000Y-78155000D03*
%TD*%
D33*
%TO.P,J1,1,Pin_1*%
%TO.N,Earth*%
X121540000Y-51580000D03*
X121540000Y-46500000D03*
D34*
%TO.P,J1,2,Pin_2*%
%TO.N,Net-(J1-Pin_2)*%
X119000000Y-51580000D03*
X119000000Y-46500000D03*
%TO.P,J1,3,Pin_3*%
%TO.N,Net-(J1-Pin_3)*%
X116460000Y-51580000D03*
X116460000Y-46500000D03*
%TD*%
D18*
%TO.P,C13,1*%
%TO.N,+3.3V*%
X106655000Y-63000000D03*
%TO.P,C13,2*%
%TO.N,GND*%
X105845000Y-63000000D03*
%TD*%
D35*
%TO.P,C18,1*%
%TO.N,+POWER*%
X102125000Y-84750000D03*
%TO.P,C18,2*%
%TO.N,GND*%
X103875000Y-84750000D03*
%TD*%
D23*
%TO.P,R4,2*%
%TO.N,Net-(U1-INA+)*%
X120475000Y-90750000D03*
%TO.P,R4,1*%
%TO.N,/PoDL Supply Handling/PSE+*%
X122025000Y-90750000D03*
%TD*%
D32*
%TO.P,C15,1*%
%TO.N,+3.3V*%
X108500000Y-77345000D03*
%TO.P,C15,2*%
%TO.N,GND*%
X108500000Y-78155000D03*
%TD*%
D36*
%TO.P,U1,1,OUTA*%
%TO.N,/MicroMod Function Board/VID_VALID*%
X116050000Y-91175000D03*
%TO.P,U1,2,GND*%
%TO.N,GND*%
X117000000Y-91175000D03*
%TO.P,U1,3,INA+*%
%TO.N,Net-(U1-INA+)*%
X117950000Y-91175000D03*
%TO.P,U1,4,INB-*%
%TO.N,Net-(U1-INB-)*%
X117950000Y-88825000D03*
%TO.P,U1,5,VDD*%
%TO.N,+3.3V*%
X117000000Y-88825000D03*
%TO.P,U1,6,OUTB*%
%TO.N,/MicroMod Function Board/VID_VALID*%
X116050000Y-88825000D03*
%TD*%
D37*
%TO.P,R13,1*%
%TO.N,+3.3V*%
X108700000Y-54400000D03*
%TO.P,R13,2*%
X107900000Y-54400000D03*
%TO.P,R13,3*%
X107100000Y-54400000D03*
%TO.P,R13,4*%
X106300000Y-54400000D03*
%TO.P,R13,5*%
%TO.N,Net-(R13-Pad5)*%
X106300000Y-56100000D03*
%TO.P,R13,6*%
%TO.N,Net-(R13-Pad6)*%
X107100000Y-56100000D03*
%TO.P,R13,7*%
%TO.N,Net-(R13-Pad7)*%
X107900000Y-56100000D03*
%TO.P,R13,8*%
%TO.N,Net-(R13-Pad8)*%
X108700000Y-56100000D03*
%TD*%
D23*
%TO.P,R20,1*%
%TO.N,Net-(U4-RXN)*%
X111525000Y-64000000D03*
%TO.P,R20,2*%
%TO.N,Net-(U4-TXP)*%
X109975000Y-64000000D03*
%TD*%
D38*
%TO.P,L1,1*%
%TO.N,Net-(C22-Pad1)*%
X127270000Y-60200000D03*
%TO.P,L1,2*%
%TO.N,Net-(C24-Pad1)*%
X127270000Y-59550000D03*
D39*
%TO.P,L1,3*%
%TO.N,Net-(C25-Pad2)*%
X126870000Y-57500000D03*
%TO.P,L1,4*%
%TO.N,Net-(C25-Pad1)*%
X127720000Y-57500000D03*
D38*
%TO.P,L1,5*%
%TO.N,Net-(C23-Pad1)*%
X131250000Y-60200000D03*
%TO.P,L1,6*%
%TO.N,Net-(L1-Pad6)*%
X131250000Y-58150000D03*
%TO.P,L1,7*%
%TO.N,Net-(L1-Pad7)*%
X131250000Y-57500000D03*
%TD*%
D40*
%TO.P,C29,1*%
%TO.N,Net-(C29-Pad1)*%
X119000000Y-58225000D03*
%TO.P,C29,2*%
%TO.N,Earth*%
X119000000Y-55275000D03*
%TD*%
D41*
%TO.P,D7,1,A1*%
%TO.N,/Ethernet MAC+PHY/DATA+*%
X116225000Y-60800000D03*
%TO.P,D7,2,C2*%
%TO.N,/Ethernet MAC+PHY/DATA-*%
X116225000Y-62700000D03*
%TO.P,D7,3*%
%TO.N,GND*%
X118275000Y-61750000D03*
%TD*%
D13*
%TO.P,R28,1*%
%TO.N,Net-(D5-PadA)*%
X110000000Y-49225000D03*
%TO.P,R28,2*%
%TO.N,/MicroMod Function Board/24V_ENABLE*%
X110000000Y-50775000D03*
%TD*%
D18*
%TO.P,C32,1*%
%TO.N,Net-(U8-dVdT)*%
X126155000Y-81750000D03*
%TO.P,C32,2*%
%TO.N,Net-(U8-EP)*%
X125345000Y-81750000D03*
%TD*%
D13*
%TO.P,R29,1*%
%TO.N,Earth*%
X113750000Y-56725000D03*
%TO.P,R29,2*%
%TO.N,GND*%
X113750000Y-58275000D03*
%TD*%
D42*
%TO.P,X1,1,1*%
%TO.N,Net-(U4-XTAL_O)*%
X116640000Y-69090000D03*
%TO.P,X1,2,2*%
%TO.N,GND*%
X116640000Y-71410000D03*
%TO.P,X1,3,3*%
%TO.N,Net-(U4-XTAL_I{slash}CLK_IN)*%
X118360000Y-71410000D03*
%TO.P,X1,4,4*%
%TO.N,GND*%
X118360000Y-69090000D03*
%TD*%
D17*
%TO.P,R25,1*%
%TO.N,/Ethernet MAC+PHY/DATA+*%
X110750000Y-61305000D03*
%TO.P,R25,2*%
%TO.N,Net-(U4-RXP)*%
X110750000Y-62195000D03*
%TD*%
D18*
%TO.P,C17,1*%
%TO.N,+3.3V*%
X104155000Y-67750000D03*
%TO.P,C17,2*%
%TO.N,GND*%
X103345000Y-67750000D03*
%TD*%
D30*
%TO.P,C22,1*%
%TO.N,Net-(C22-Pad1)*%
X122025000Y-62750000D03*
%TO.P,C22,2*%
%TO.N,/Ethernet MAC+PHY/DATA-*%
X120475000Y-62750000D03*
%TD*%
D10*
%TO.P,R32,1*%
%TO.N,Net-(U8-OVP)*%
X135445000Y-80870000D03*
%TO.P,R32,2*%
%TO.N,Net-(U8-EP)*%
X134555000Y-80870000D03*
%TD*%
D43*
%TO.P,D5,A,A*%
%TO.N,Net-(D5-PadA)*%
X110000000Y-42510000D03*
%TO.P,D5,C,C*%
%TO.N,GND*%
X110000000Y-40990000D03*
%TD*%
D13*
%TO.P,R15,1*%
%TO.N,+3.3V*%
X121300000Y-72725000D03*
%TO.P,R15,2*%
%TO.N,Net-(R15-Pad2)*%
X121300000Y-74275000D03*
%TD*%
D16*
%TO.P,R8,1*%
%TO.N,Net-(X2-F6)*%
X117825000Y-95250000D03*
%TO.P,R8,2*%
%TO.N,/MicroMod Function Board/24V_FAULT*%
X119375000Y-95250000D03*
%TD*%
D44*
%TO.P,P1,1,P1*%
%TO.N,GND*%
X135000000Y-90500000D03*
D45*
%TO.P,P1,2,P2*%
%TO.N,+24V*%
X135000000Y-87960000D03*
%TD*%
D46*
%TO.P,X2,1,GND*%
%TO.N,GND*%
X128250000Y-102725000D03*
%TO.P,X2,3,SPI_SCK*%
%TO.N,/Ethernet MAC+PHY/CLK*%
X127750000Y-102725000D03*
%TO.P,X2,5,SPI_SDI*%
%TO.N,/Ethernet MAC+PHY/COPI*%
X127250000Y-102725000D03*
%TO.P,X2,7,SPI_SDO*%
%TO.N,/Ethernet MAC+PHY/CIPO*%
X126750000Y-102725000D03*
%TO.P,X2,9*%
%TO.N,N/C*%
X126250000Y-102725000D03*
%TO.P,X2,11*%
X125750000Y-102725000D03*
%TO.P,X2,13,FUNC_TX*%
%TO.N,unconnected-(X2-FUNC_TX-Pad13)*%
X125250000Y-102725000D03*
%TO.P,X2,15,FUNC_RX*%
%TO.N,unconnected-(X2-FUNC_RX-Pad15)*%
X124750000Y-102725000D03*
%TO.P,X2,17*%
%TO.N,N/C*%
X124250000Y-102725000D03*
%TO.P,X2,19,I2C_SDA*%
%TO.N,/MicroMod Function Board/SDA*%
X123750000Y-102725000D03*
%TO.P,X2,21,I2C_SCL*%
%TO.N,/MicroMod Function Board/SCL*%
X123250000Y-102725000D03*
%TO.P,X2,23,~{I2C_INT}*%
%TO.N,unconnected-(X2-~{I2C_INT}-Pad23)*%
X122750000Y-102725000D03*
%TO.P,X2,33,GND*%
%TO.N,GND*%
X120250000Y-102725000D03*
%TO.P,X2,35,USBHOST_D+*%
%TO.N,unconnected-(X2-USBHOST_D+-Pad35)*%
X119750000Y-102725000D03*
%TO.P,X2,37,USBHOST_D-*%
%TO.N,unconnected-(X2-USBHOST_D--Pad37)*%
X119250000Y-102725000D03*
%TO.P,X2,39,GND*%
%TO.N,GND*%
X118750000Y-102725000D03*
%TO.P,X2,41,CAN_TX*%
%TO.N,unconnected-(X2-CAN_TX-Pad41)*%
X118250000Y-102725000D03*
%TO.P,X2,43,CAN_RX*%
%TO.N,unconnected-(X2-CAN_RX-Pad43)*%
X117750000Y-102725000D03*
%TO.P,X2,45,GND*%
%TO.N,GND*%
X117250000Y-102725000D03*
%TO.P,X2,47,F0/~{INT}*%
%TO.N,/Ethernet MAC+PHY/~{INT}*%
X116750000Y-102725000D03*
%TO.P,X2,49,F1/~{CS}*%
%TO.N,/Ethernet MAC+PHY/~{CS}*%
X116250000Y-102725000D03*
%TO.P,X2,51,F2/PWM*%
%TO.N,/MicroMod Function Board/VID_VALID*%
X115750000Y-102725000D03*
%TO.P,X2,53,F3*%
%TO.N,/MicroMod Function Board/ENABLE_ID_SOURCE*%
X115250000Y-102725000D03*
%TO.P,X2,55,F4*%
%TO.N,/MicroMod Function Board/24V_ENABLE*%
X114750000Y-102725000D03*
%TO.P,X2,57,F5*%
%TO.N,/Ethernet MAC+PHY/~{RESET}*%
X114250000Y-102725000D03*
%TO.P,X2,59,F6*%
%TO.N,Net-(X2-F6)*%
X113750000Y-102725000D03*
%TO.P,X2,61,F7*%
%TO.N,unconnected-(X2-F7-Pad61)*%
X113250000Y-102725000D03*
%TO.P,X2,63*%
%TO.N,N/C*%
X112750000Y-102725000D03*
%TO.P,X2,65*%
X112250000Y-102725000D03*
%TO.P,X2,67*%
X111750000Y-102725000D03*
%TO.P,X2,69*%
X111250000Y-102725000D03*
%TO.P,X2,71,PWR_EN*%
%TO.N,unconnected-(X2-PWR_EN-Pad71)*%
X110750000Y-102725000D03*
%TO.P,X2,73,3V3*%
%TO.N,+3.3V_MCU*%
X110250000Y-102725000D03*
%TO.P,X2,75,GND*%
%TO.N,GND*%
X109750000Y-102725000D03*
D47*
%TO.P,X2,MNT*%
%TO.N,N/C*%
X101000000Y-57900000D03*
X101000000Y-62100000D03*
X102300000Y-60000000D03*
X135700000Y-60000000D03*
X137000000Y-57900000D03*
X137000000Y-62100000D03*
%TD*%
D20*
%TO.P,C23,1*%
%TO.N,Net-(C23-Pad1)*%
X132450000Y-62750000D03*
%TO.P,C23,2*%
%TO.N,GND*%
X134000000Y-62750000D03*
%TD*%
D48*
%TO.P,C25,1*%
%TO.N,Net-(C25-Pad1)*%
X123750000Y-58125000D03*
%TO.P,C25,2*%
%TO.N,Net-(C25-Pad2)*%
X123750000Y-56375000D03*
%TD*%
D49*
%TO.P,U3,C,C*%
%TO.N,Net-(Q2-S)*%
X117980000Y-84500000D03*
%TO.P,U3,A,A*%
%TO.N,Net-(U5-VOUT)*%
X114520000Y-84500000D03*
%TD*%
D43*
%TO.P,D2,A,A*%
%TO.N,Net-(D2-PadA)*%
X102500000Y-42510000D03*
%TO.P,D2,C,C*%
%TO.N,GND*%
X102500000Y-40990000D03*
%TD*%
%TO.P,D3,A,A*%
%TO.N,Net-(D3-PadA)*%
X105000000Y-42510000D03*
%TO.P,D3,C,C*%
%TO.N,GND*%
X105000000Y-40990000D03*
%TD*%
D50*
%TO.P,C30,1*%
%TO.N,Earth*%
X116250000Y-55275000D03*
%TO.P,C30,2*%
%TO.N,GND*%
X116250000Y-58225000D03*
%TD*%
D10*
%TO.P,R36,1*%
%TO.N,Net-(U8-ULVO)*%
X135445000Y-82120000D03*
%TO.P,R36,2*%
%TO.N,Net-(U8-OVP)*%
X134555000Y-82120000D03*
%TD*%
D51*
%TO.P,R1,1*%
%TO.N,/MicroMod Function Board/24V_ENABLE*%
X111800000Y-50775000D03*
%TO.P,R1,2*%
%TO.N,GND*%
X111800000Y-49225000D03*
%TD*%
D35*
%TO.P,C4,1*%
%TO.N,Net-(U5-VOUT)*%
X109875000Y-83250000D03*
%TO.P,C4,2*%
%TO.N,GND*%
X111625000Y-83250000D03*
%TD*%
D10*
%TO.P,R35,1*%
%TO.N,+24V*%
X135445000Y-83370000D03*
%TO.P,R35,2*%
%TO.N,Net-(U8-ULVO)*%
X134555000Y-83370000D03*
%TD*%
D11*
%TO.P,R10,1*%
%TO.N,+3.3V*%
X103305000Y-74500000D03*
%TO.P,R10,2*%
%TO.N,Net-(U4-TEST1)*%
X104195000Y-74500000D03*
%TD*%
D18*
%TO.P,C8,1*%
%TO.N,Net-(U4-DLDO_1P1)*%
X104155000Y-71500000D03*
%TO.P,C8,2*%
%TO.N,GND*%
X103345000Y-71500000D03*
%TD*%
D17*
%TO.P,R24,1*%
%TO.N,/Ethernet MAC+PHY/DATA+*%
X109500000Y-61305000D03*
%TO.P,R24,2*%
%TO.N,Net-(U4-TXP)*%
X109500000Y-62195000D03*
%TD*%
D52*
%TO.P,U8,1,IN*%
%TO.N,+24V*%
X131780000Y-84120000D03*
%TO.P,U8,2,ULVO*%
%TO.N,Net-(U8-ULVO)*%
X131780000Y-83620000D03*
%TO.P,U8,3,OVP*%
%TO.N,Net-(U8-OVP)*%
X131780000Y-83120000D03*
%TO.P,U8,4,~{SHDN}*%
%TO.N,/MicroMod Function Board/24V_ENABLE*%
X131780000Y-82620000D03*
%TO.P,U8,5,RTN*%
%TO.N,Net-(U8-EP)*%
X131780000Y-82120000D03*
%TO.P,U8,6,GND*%
%TO.N,GND*%
X128980000Y-82120000D03*
%TO.P,U8,7,ILIM*%
%TO.N,Net-(U8-ILIM)*%
X128980000Y-82620000D03*
%TO.P,U8,8,dVdT*%
%TO.N,Net-(U8-dVdT)*%
X128980000Y-83120000D03*
%TO.P,U8,9,~{FLT}*%
%TO.N,/MicroMod Function Board/24V_FAULT*%
X128980000Y-83620000D03*
%TO.P,U8,10,OUT*%
%TO.N,Net-(U2-S+)*%
X128980000Y-84120000D03*
D53*
%TO.P,U8,11,EP*%
%TO.N,Net-(U8-EP)*%
X130955000Y-83120000D03*
X130380000Y-84070000D03*
D54*
X130380000Y-83120000D03*
D53*
X130380000Y-82170000D03*
X129805000Y-83120000D03*
%TD*%
D18*
%TO.P,C20,1*%
%TO.N,+3.3V*%
X102405000Y-97500000D03*
%TO.P,C20,2*%
%TO.N,GND*%
X101595000Y-97500000D03*
%TD*%
D12*
%TO.P,C19,1*%
%TO.N,+3.3V*%
X125345000Y-95500000D03*
%TO.P,C19,2*%
%TO.N,GND*%
X126155000Y-95500000D03*
%TD*%
D41*
%TO.P,Q2,3,D*%
%TO.N,Net-(D6-K)*%
X122275000Y-83500000D03*
%TO.P,Q2,2,S*%
%TO.N,Net-(Q2-S)*%
X120225000Y-84450000D03*
%TO.P,Q2,1,G*%
%TO.N,Net-(Q1-D)*%
X120225000Y-82550000D03*
%TD*%
%TO.P,D4,3*%
%TO.N,/MicroMod Function Board/24V_FAULT*%
X131025000Y-95600000D03*
%TO.P,D4,2,C2*%
%TO.N,+3.3V*%
X128975000Y-96550000D03*
%TO.P,D4,1,A1*%
%TO.N,GND*%
X128975000Y-94650000D03*
%TD*%
D55*
%TO.P,C35,1*%
%TO.N,Net-(U2-S+)*%
X126625000Y-85620000D03*
%TO.P,C35,2*%
%TO.N,GND*%
X124875000Y-85620000D03*
%TD*%
D13*
%TO.P,R17,1*%
%TO.N,Net-(D2-PadA)*%
X102500000Y-49225000D03*
%TO.P,R17,2*%
%TO.N,Net-(U4-LED_1)*%
X102500000Y-50775000D03*
%TD*%
D43*
%TO.P,D1,A,A*%
%TO.N,Net-(D1-PadA)*%
X107500000Y-42510000D03*
%TO.P,D1,C,C*%
%TO.N,GND*%
X107500000Y-40990000D03*
%TD*%
D18*
%TO.P,C9,1*%
%TO.N,Net-(U4-DLDO_1P1)*%
X104155000Y-70250000D03*
%TO.P,C9,2*%
%TO.N,GND*%
X103345000Y-70250000D03*
%TD*%
D13*
%TO.P,R11,1*%
%TO.N,+POWER*%
X106000000Y-80475000D03*
%TO.P,R11,2*%
%TO.N,Net-(U6-EN)*%
X106000000Y-82025000D03*
%TD*%
D35*
%TO.P,C21,1*%
%TO.N,+3.3V*%
X102125000Y-77750000D03*
%TO.P,C21,2*%
%TO.N,GND*%
X103875000Y-77750000D03*
%TD*%
D23*
%TO.P,R2,2*%
%TO.N,Net-(U1-INA+)*%
X120475000Y-92250000D03*
%TO.P,R2,1*%
%TO.N,GND*%
X122025000Y-92250000D03*
%TD*%
D30*
%TO.P,C10,1*%
%TO.N,Net-(U4-XTAL_I{slash}CLK_IN)*%
X118275000Y-73500000D03*
%TO.P,C10,2*%
%TO.N,GND*%
X116725000Y-73500000D03*
%TD*%
D17*
%TO.P,R22,1*%
%TO.N,/Ethernet MAC+PHY/DATA-*%
X113250000Y-61305000D03*
%TO.P,R22,2*%
%TO.N,Net-(U4-TXN)*%
X113250000Y-62195000D03*
%TD*%
D44*
%TO.P,P2,1,P1*%
%TO.N,GND*%
X103000000Y-90525000D03*
D45*
%TO.P,P2,2,P2*%
%TO.N,+POWER*%
X103000000Y-87985000D03*
%TD*%
D56*
%TO.P,Q1,1,G*%
%TO.N,Net-(Q1-G)*%
X116700000Y-78225000D03*
%TO.P,Q1,2,S*%
%TO.N,GND*%
X114800000Y-78225000D03*
%TO.P,Q1,3,D*%
%TO.N,Net-(Q1-D)*%
X115750000Y-80275000D03*
%TD*%
D57*
%TO.N,GND*%
X132400000Y-77500000D03*
X131000000Y-77500000D03*
X120000000Y-77600000D03*
X137000000Y-85600000D03*
X132200000Y-96600000D03*
X123400000Y-97600000D03*
X125200000Y-100400000D03*
X111400000Y-99800000D03*
X112800000Y-100400000D03*
%TO.N,/MicroMod Function Board/24V_ENABLE*%
X122600000Y-79200000D03*
%TO.N,/MicroMod Function Board/24V_FAULT*%
X129200000Y-91000000D03*
X130025572Y-96025572D03*
%TO.N,+3.3V*%
X128000000Y-96600000D03*
%TO.N,GND*%
X128000000Y-94600000D03*
X128600000Y-93400000D03*
%TO.N,/MicroMod Function Board/24V_FAULT*%
X123800000Y-95600000D03*
%TO.N,Net-(X2-F6)*%
X117800000Y-96200000D03*
%TO.N,+3.3V*%
X117524500Y-93600000D03*
X124600000Y-95500000D03*
%TO.N,Net-(X2-F6)*%
X113700000Y-95300000D03*
%TO.N,GND*%
X123000000Y-93000000D03*
X111800000Y-48000000D03*
%TO.N,+3.3V*%
X113475500Y-92000000D03*
%TO.N,GND*%
X122400000Y-86200000D03*
%TO.N,+3.3V*%
X117000000Y-90000000D03*
%TO.N,GND*%
X118800000Y-93200000D03*
%TO.N,/Ethernet MAC+PHY/~{RESET}*%
X114725500Y-89000000D03*
%TO.N,GND*%
X112400000Y-91000000D03*
X111500000Y-82000000D03*
X115400000Y-77600000D03*
%TO.N,/MicroMod Function Board/24V_ENABLE*%
X114600000Y-92400000D03*
X112225500Y-80000000D03*
%TO.N,/MicroMod Function Board/ENABLE_ID_SOURCE*%
X114800000Y-88000000D03*
X114900000Y-83100000D03*
%TO.N,/MicroMod Function Board/SDA*%
X122600000Y-98400000D03*
%TO.N,/MicroMod Function Board/SCL*%
X121737750Y-98479506D03*
%TO.N,+24V*%
X131500000Y-86250000D03*
X122000000Y-84750000D03*
%TO.N,/MicroMod Function Board/SDA*%
X112400000Y-94000000D03*
%TO.N,/MicroMod Function Board/SCL*%
X111800000Y-94600000D03*
%TO.N,/Ethernet MAC+PHY/~{RESET}*%
X115573378Y-84973378D03*
X119000000Y-83250000D03*
%TO.N,Net-(IC1-WP)*%
X111500000Y-98750000D03*
%TO.N,GND*%
X111500000Y-93500000D03*
%TO.N,Net-(IC1-A2)*%
X111500000Y-95800000D03*
%TO.N,Net-(IC1-A1)*%
X111500000Y-96800000D03*
%TO.N,Net-(IC1-A0)*%
X111500000Y-97800000D03*
%TO.N,GND*%
X121250000Y-99750000D03*
X117500000Y-100600000D03*
%TO.N,/Ethernet MAC+PHY/~{CS}*%
X116475500Y-93500000D03*
%TO.N,/Ethernet MAC+PHY/~{INT}*%
X117000000Y-92750000D03*
%TO.N,GND*%
X131750000Y-77500000D03*
X125400000Y-87000000D03*
%TO.N,/Ethernet MAC+PHY/CLK*%
X119000000Y-85250000D03*
X113000000Y-85500000D03*
%TO.N,GND*%
X128000000Y-80750000D03*
%TO.N,/MicroMod Function Board/24V_FAULT*%
X126400500Y-84356927D03*
%TO.N,/MicroMod Function Board/24V_ENABLE*%
X133250000Y-82250000D03*
%TO.N,GND*%
X102600002Y-71500000D03*
X129250000Y-99000000D03*
X104800000Y-66000000D03*
X105000000Y-77500000D03*
X104200000Y-64199998D03*
X107600000Y-93600000D03*
X104800000Y-76800000D03*
X105250000Y-84000000D03*
X102600000Y-70250000D03*
X104800000Y-64800000D03*
D58*
X135250000Y-62750000D03*
D57*
X101500000Y-98500000D03*
X105250000Y-84750000D03*
X105250000Y-85500000D03*
X104200000Y-57521987D03*
X107600000Y-99200000D03*
X117500000Y-66000000D03*
X102600000Y-67750000D03*
X108500000Y-78750000D03*
D58*
X116500000Y-59500000D03*
X111489999Y-40989999D03*
X119500000Y-61750000D03*
D57*
X116725000Y-74500000D03*
%TO.N,Net-(IC1-WP)*%
X107000000Y-96200000D03*
%TO.N,/MicroMod Function Board/24V_ENABLE*%
X107750000Y-80750000D03*
X101000000Y-56000000D03*
%TO.N,Net-(R13-Pad5)*%
X106000000Y-57600000D03*
%TO.N,Net-(R13-Pad6)*%
X106800000Y-58000000D03*
%TO.N,Net-(R13-Pad7)*%
X107600000Y-58400000D03*
%TO.N,Net-(R13-Pad8)*%
X108400000Y-58800004D03*
%TO.N,/Ethernet MAC+PHY/~{INT}*%
X104200000Y-72400000D03*
%TO.N,Net-(R15-Pad2)*%
X120300010Y-75200000D03*
%TO.N,Net-(U4-LED_0)*%
X115000000Y-73600000D03*
X106606589Y-51793412D03*
%TO.N,Net-(U4-LED_1)*%
X115000000Y-71400000D03*
X102499998Y-51899998D03*
%TO.N,Net-(U4-LINK_ST)*%
X105000000Y-52200000D03*
X115025000Y-72775000D03*
%TO.N,Net-(U4-SPI_CFG1)*%
X108750000Y-79700000D03*
%TO.N,/Ethernet MAC+PHY/CIPO*%
X126200000Y-97600000D03*
X115870878Y-76129122D03*
%TO.N,Net-(U4-TS_TIMER{slash}MS_SEL)*%
X102800004Y-75475000D03*
%TO.N,Net-(U4-~{SWPD_EN})*%
X107193410Y-78593410D03*
%TO.N,Net-(U4-~{TX2P4_EN})*%
X106500000Y-78200000D03*
%TO.N,/Ethernet MAC+PHY/COPI*%
X115000000Y-76200000D03*
X125800000Y-96800000D03*
%TO.N,/Ethernet MAC+PHY/~{RESET}*%
X116839896Y-76124050D03*
%TO.N,/Ethernet MAC+PHY/~{CS}*%
X105406587Y-74406587D03*
%TO.N,/Ethernet MAC+PHY/CLK*%
X127000000Y-96800000D03*
X112000000Y-78200000D03*
%TO.N,/MicroMod Function Board/ANALOG*%
X118600000Y-99400000D03*
%TD*%
D59*
%TO.N,GND*%
X131750000Y-77500000D02*
X132400000Y-77500000D01*
X131750000Y-77500000D02*
X131000000Y-77500000D01*
D60*
X118850000Y-76770000D02*
X118850000Y-76850000D01*
X119600000Y-77600000D02*
X120000000Y-77600000D01*
X118850000Y-76850000D02*
X119600000Y-77600000D01*
%TO.N,Net-(U4-LED_1)*%
X102050000Y-52349996D02*
X102499998Y-51899998D01*
X102500000Y-50775000D02*
X102500000Y-51899996D01*
X102500000Y-51899996D02*
X102499998Y-51899998D01*
%TO.N,GND*%
X105250000Y-84000000D02*
X105250000Y-85500000D01*
D61*
X104800000Y-76800000D02*
X104600000Y-76800000D01*
X104600000Y-76800000D02*
X103875000Y-77525000D01*
X103875000Y-77525000D02*
X103875000Y-77750000D01*
D60*
X136520000Y-85120000D02*
X137000000Y-85600000D01*
X135775000Y-85120000D02*
X136520000Y-85120000D01*
X121655000Y-93750000D02*
X122025000Y-93380000D01*
D61*
X107600000Y-99200000D02*
X108800000Y-99200000D01*
X108800000Y-99200000D02*
X109750000Y-100150000D01*
X109750000Y-100150000D02*
X109750000Y-102725000D01*
D60*
X118750000Y-102725000D02*
X118750000Y-100600000D01*
X118800000Y-93200000D02*
X118400000Y-93200000D01*
X118400000Y-93200000D02*
X117000000Y-91800000D01*
X117000000Y-91800000D02*
X117000000Y-91175000D01*
X122400000Y-86000000D02*
X122075000Y-85675000D01*
X119250000Y-86750000D02*
X118405000Y-86750000D01*
X122350000Y-86250000D02*
X121655000Y-86250000D01*
X122400000Y-86200000D02*
X122400000Y-86000000D01*
X122075000Y-85675000D02*
X120325000Y-85675000D01*
X120325000Y-85675000D02*
X119250000Y-86750000D01*
X122400000Y-86200000D02*
X122350000Y-86250000D01*
D59*
%TO.N,/PoDL Supply Handling/PSE+*%
X123650000Y-88250000D02*
X123400000Y-88000000D01*
D60*
X123650000Y-88250000D02*
X123025000Y-88250000D01*
D59*
X123400000Y-88000000D02*
X123400000Y-84502500D01*
X123400000Y-84502500D02*
X123750000Y-84152500D01*
X123750000Y-84152500D02*
X123750000Y-77750000D01*
X123650000Y-88250000D02*
X124345000Y-88250000D01*
D60*
X123025000Y-88250000D02*
X122025000Y-89250000D01*
D61*
%TO.N,GND*%
X125400000Y-87000000D02*
X124875000Y-86475000D01*
X124875000Y-86475000D02*
X124875000Y-85620000D01*
D60*
%TO.N,Net-(Q1-D)*%
X118445000Y-82250000D02*
X118445000Y-81695000D01*
X118445000Y-81695000D02*
X118000000Y-81250000D01*
X118000000Y-81250000D02*
X116568750Y-81250000D01*
X116568750Y-81250000D02*
X115750000Y-80431250D01*
X115750000Y-80431250D02*
X115750000Y-80275000D01*
%TO.N,Net-(Q1-G)*%
X116700000Y-78225000D02*
X116590212Y-78225000D01*
X115000000Y-79815212D02*
X115000000Y-81250000D01*
X116590212Y-78225000D02*
X115000000Y-79815212D01*
X115900000Y-81400000D02*
X116445000Y-81945000D01*
X115000000Y-81250000D02*
X115150000Y-81400000D01*
X115150000Y-81400000D02*
X115900000Y-81400000D01*
X116445000Y-81945000D02*
X116445000Y-82250000D01*
%TO.N,/MicroMod Function Board/24V_ENABLE*%
X131780000Y-82620000D02*
X132880000Y-82620000D01*
X132880000Y-82620000D02*
X133250000Y-82250000D01*
D62*
X122000000Y-78600000D02*
X122600000Y-79200000D01*
X121600000Y-78600000D02*
X122000000Y-78600000D01*
X112225500Y-80000000D02*
X114200000Y-80000000D01*
X114200000Y-80000000D02*
X115900000Y-78300000D01*
X115900000Y-78300000D02*
X115900000Y-77700000D01*
X118800000Y-78600000D02*
X121600000Y-78600000D01*
X115900000Y-77700000D02*
X116400000Y-77200000D01*
X116400000Y-77200000D02*
X117400000Y-77200000D01*
X117400000Y-77200000D02*
X118800000Y-78600000D01*
D60*
%TO.N,GND*%
X115400000Y-77600000D02*
X115400000Y-77625000D01*
X115400000Y-77625000D02*
X114800000Y-78225000D01*
%TO.N,+3.3V*%
X107350000Y-79250000D02*
X108500000Y-80400000D01*
X108500000Y-80400000D02*
X110800000Y-80400000D01*
X110800000Y-80400000D02*
X114400000Y-76800000D01*
X114400000Y-76800000D02*
X117700000Y-76800000D01*
X121275000Y-72725000D02*
X121300000Y-72725000D01*
X117700000Y-76800000D02*
X118000000Y-76500000D01*
X118000000Y-76500000D02*
X118000000Y-76000000D01*
X118000000Y-76000000D02*
X121275000Y-72725000D01*
%TO.N,/Ethernet MAC+PHY/~{RESET}*%
X116839896Y-76124050D02*
X116839896Y-76016673D01*
X116839896Y-76016673D02*
X115600000Y-74776777D01*
X115600000Y-74776777D02*
X115600000Y-72400000D01*
%TO.N,/Ethernet MAC+PHY/CIPO*%
X115870878Y-76129122D02*
X115870878Y-75684051D01*
X115870878Y-75684051D02*
X113936827Y-73750000D01*
X113936827Y-73750000D02*
X112937500Y-73750000D01*
%TO.N,/Ethernet MAC+PHY/COPI*%
X115000000Y-76200000D02*
X115000000Y-75600000D01*
X115000000Y-75600000D02*
X113650000Y-74250000D01*
X113650000Y-74250000D02*
X112937500Y-74250000D01*
%TO.N,/Ethernet MAC+PHY/CLK*%
X112000000Y-78200000D02*
X111250000Y-77450000D01*
X111250000Y-77450000D02*
X111250000Y-74937500D01*
%TO.N,/MicroMod Function Board/24V_FAULT*%
X129200000Y-91000000D02*
X130600000Y-92400000D01*
X130600000Y-92400000D02*
X130600000Y-95175000D01*
X130600000Y-95175000D02*
X131025000Y-95600000D01*
%TO.N,/MicroMod Function Board/ANALOG*%
X118600000Y-99400000D02*
X118607537Y-99400000D01*
X130000000Y-92600000D02*
X129245000Y-91845000D01*
X118607537Y-99400000D02*
X121807537Y-96200000D01*
X129409788Y-95600000D02*
X130000000Y-95009788D01*
X121807537Y-96200000D02*
X127200000Y-96200000D01*
X127200000Y-96200000D02*
X127800000Y-95600000D01*
X127800000Y-95600000D02*
X129409788Y-95600000D01*
X130000000Y-95009788D02*
X130000000Y-92600000D01*
X129245000Y-91845000D02*
X128500000Y-91845000D01*
%TO.N,Net-(U2-S+)*%
X124975000Y-83500000D02*
X124975000Y-83975000D01*
X124975000Y-83975000D02*
X126620000Y-85620000D01*
X126620000Y-85620000D02*
X126625000Y-85620000D01*
%TO.N,/MicroMod Function Board/24V_FAULT*%
X126400500Y-84356927D02*
X126400500Y-83624500D01*
X126400500Y-83624500D02*
X126525000Y-83500000D01*
%TO.N,+3.3V*%
X128000000Y-96600000D02*
X128925000Y-96600000D01*
X128925000Y-96600000D02*
X128975000Y-96550000D01*
%TO.N,/MicroMod Function Board/24V_FAULT*%
X130025572Y-96025572D02*
X130451144Y-95600000D01*
X130451144Y-95600000D02*
X131025000Y-95600000D01*
%TO.N,GND*%
X126155000Y-95500000D02*
X127100000Y-95500000D01*
X127100000Y-95500000D02*
X128000000Y-94600000D01*
X128050000Y-94650000D02*
X128000000Y-94600000D01*
X128975000Y-94650000D02*
X128050000Y-94650000D01*
X128500000Y-93300000D02*
X128600000Y-93400000D01*
X128500000Y-92655000D02*
X128500000Y-93300000D01*
%TO.N,/Ethernet MAC+PHY/CLK*%
X127000000Y-96800000D02*
X127750000Y-97550000D01*
X127750000Y-97550000D02*
X127750000Y-102725000D01*
%TO.N,/Ethernet MAC+PHY/COPI*%
X125800000Y-96800000D02*
X126200000Y-96800000D01*
X126200000Y-96800000D02*
X127250000Y-97850000D01*
X127250000Y-97850000D02*
X127250000Y-102725000D01*
%TO.N,/Ethernet MAC+PHY/CIPO*%
X126200000Y-97600000D02*
X126750000Y-98150000D01*
X126750000Y-98150000D02*
X126750000Y-102725000D01*
%TO.N,/MicroMod Function Board/24V_FAULT*%
X123800000Y-95600000D02*
X123450000Y-95250000D01*
X123450000Y-95250000D02*
X119375000Y-95250000D01*
%TO.N,+3.3V*%
X124775000Y-93505000D02*
X124775000Y-94863750D01*
X124775000Y-94863750D02*
X125345000Y-95433750D01*
X125345000Y-95433750D02*
X125345000Y-95500000D01*
X123700000Y-94600000D02*
X120400000Y-94600000D01*
X124600000Y-95500000D02*
X123700000Y-94600000D01*
X124600000Y-95500000D02*
X125345000Y-95500000D01*
X120400000Y-94600000D02*
X119725000Y-93925000D01*
X119725000Y-93925000D02*
X117849500Y-93925000D01*
X117849500Y-93925000D02*
X117524500Y-93600000D01*
%TO.N,Net-(X2-F6)*%
X117825000Y-96175000D02*
X117800000Y-96200000D01*
X117825000Y-95250000D02*
X117825000Y-96175000D01*
%TO.N,GND*%
X117500000Y-100600000D02*
X117250000Y-100850000D01*
X117250000Y-100850000D02*
X117250000Y-102725000D01*
%TO.N,Net-(X2-F6)*%
X113700000Y-95300000D02*
X113750000Y-95350000D01*
X113750000Y-95350000D02*
X113750000Y-102725000D01*
%TO.N,/MicroMod Function Board/SDA*%
X122600000Y-98400000D02*
X123750000Y-99550000D01*
X123750000Y-99550000D02*
X123750000Y-102725000D01*
%TO.N,/MicroMod Function Board/SCL*%
X121737750Y-98479506D02*
X121737750Y-98487750D01*
X123250000Y-100000000D02*
X123250000Y-102725000D01*
X121737750Y-98487750D02*
X123250000Y-100000000D01*
%TO.N,GND*%
X122250000Y-92250000D02*
X123000000Y-93000000D01*
X122025000Y-92250000D02*
X122250000Y-92250000D01*
X111800000Y-49225000D02*
X111800000Y-48000000D01*
D62*
%TO.N,/MicroMod Function Board/24V_ENABLE*%
X110400000Y-50800000D02*
X111775000Y-50800000D01*
X111775000Y-50800000D02*
X111800000Y-50775000D01*
D60*
%TO.N,Net-(U1-INA+)*%
X117950000Y-91175000D02*
X117950000Y-92050000D01*
X117950000Y-92050000D02*
X118300000Y-92400000D01*
X118300000Y-92400000D02*
X120325000Y-92400000D01*
X120325000Y-92400000D02*
X120475000Y-92250000D01*
%TO.N,+3.3V*%
X101800000Y-92600000D02*
X104800000Y-92600000D01*
X104800000Y-92600000D02*
X105600000Y-91800000D01*
X105600000Y-91800000D02*
X113275500Y-91800000D01*
X113275500Y-91800000D02*
X113475500Y-92000000D01*
%TO.N,+24V*%
X122000000Y-84750000D02*
X121500000Y-85250000D01*
X121500000Y-85250000D02*
X119950000Y-85250000D01*
X119950000Y-85250000D02*
X119200000Y-86000000D01*
X119200000Y-86000000D02*
X115195000Y-86000000D01*
X115195000Y-86000000D02*
X114445000Y-86750000D01*
%TO.N,/Ethernet MAC+PHY/CLK*%
X118750000Y-85500000D02*
X113000000Y-85500000D01*
X119000000Y-85250000D02*
X118750000Y-85500000D01*
D61*
%TO.N,GND*%
X107605000Y-93595000D02*
X110345000Y-93595000D01*
X107600000Y-93600000D02*
X107605000Y-93595000D01*
D60*
%TO.N,/MicroMod Function Board/SDA*%
X112400000Y-94000000D02*
X112400000Y-93657537D01*
X112400000Y-93657537D02*
X111342463Y-92600000D01*
X111342463Y-92600000D02*
X105650000Y-92600000D01*
X105650000Y-92600000D02*
X104655000Y-93595000D01*
%TO.N,Net-(IC1-A1)*%
X111500000Y-96800000D02*
X111500000Y-96750000D01*
X111500000Y-96750000D02*
X110885000Y-96135000D01*
X110885000Y-96135000D02*
X110345000Y-96135000D01*
%TO.N,Net-(IC1-A0)*%
X111500000Y-97800000D02*
X111105000Y-97405000D01*
X111105000Y-97405000D02*
X110345000Y-97405000D01*
%TO.N,/MicroMod Function Board/SCL*%
X111800000Y-94600000D02*
X111450000Y-94250000D01*
X104975000Y-94865000D02*
X104655000Y-94865000D01*
X111450000Y-94250000D02*
X105590000Y-94250000D01*
X105590000Y-94250000D02*
X104975000Y-94865000D01*
%TO.N,Net-(IC1-A2)*%
X111500000Y-95800000D02*
X111500000Y-95250000D01*
X111500000Y-95250000D02*
X111115000Y-94865000D01*
X111115000Y-94865000D02*
X110345000Y-94865000D01*
D61*
%TO.N,GND*%
X112400000Y-91000000D02*
X112275000Y-91000000D01*
X112275000Y-91000000D02*
X111525000Y-90250000D01*
D60*
%TO.N,+3.3V*%
X117000000Y-88825000D02*
X117000000Y-90000000D01*
%TO.N,/Ethernet MAC+PHY/~{INT}*%
X116750000Y-94250000D02*
X116750000Y-102725000D01*
X117000000Y-94000000D02*
X116750000Y-94250000D01*
X117000000Y-92750000D02*
X117000000Y-94000000D01*
%TO.N,/Ethernet MAC+PHY/~{CS}*%
X116250000Y-93725500D02*
X116250000Y-102725000D01*
X116475500Y-93500000D02*
X116250000Y-93725500D01*
%TO.N,/MicroMod Function Board/24V_ENABLE*%
X114750000Y-92550000D02*
X114750000Y-102725000D01*
X114600000Y-92400000D02*
X114750000Y-92550000D01*
%TO.N,/Ethernet MAC+PHY/~{RESET}*%
X114725500Y-90474500D02*
X114725500Y-89000000D01*
X114000000Y-91200000D02*
X114725500Y-90474500D01*
X114000000Y-93000000D02*
X114000000Y-91200000D01*
X114250000Y-93250000D02*
X114000000Y-93000000D01*
X114250000Y-102725000D02*
X114250000Y-93250000D01*
X119000000Y-83250000D02*
X117296756Y-83250000D01*
X117296756Y-83250000D02*
X115573378Y-84973378D01*
%TO.N,/MicroMod Function Board/ENABLE_ID_SOURCE*%
X114900000Y-83100000D02*
X114445000Y-82645000D01*
X114445000Y-82645000D02*
X114445000Y-82250000D01*
X114800000Y-88000000D02*
X115250000Y-88450000D01*
X115250000Y-88450000D02*
X115250000Y-102725000D01*
%TO.N,GND*%
X111500000Y-82000000D02*
X111625000Y-82125000D01*
X111625000Y-82125000D02*
X111625000Y-83250000D01*
X111625000Y-83250000D02*
X112555000Y-83250000D01*
X112555000Y-83250000D02*
X113555000Y-82250000D01*
%TO.N,Net-(U4-SPI_CFG1)*%
X110750000Y-78750000D02*
X110750000Y-74937500D01*
X108750000Y-79700000D02*
X109800000Y-79700000D01*
X109800000Y-79700000D02*
X110750000Y-78750000D01*
D62*
%TO.N,/MicroMod Function Board/24V_ENABLE*%
X108000000Y-81000000D02*
X107750000Y-80750000D01*
X112225500Y-80000000D02*
X111225500Y-81000000D01*
X111225500Y-81000000D02*
X108000000Y-81000000D01*
D60*
%TO.N,GND*%
X117500000Y-66000000D02*
X117750000Y-66000000D01*
X117750000Y-66000000D02*
X118275000Y-66525000D01*
X118275000Y-66525000D02*
X118275000Y-67000000D01*
X116725000Y-74500000D02*
X116725000Y-73500000D01*
%TO.N,Net-(U5-EN)*%
X113555000Y-86750000D02*
X112750000Y-86750000D01*
X112750000Y-86750000D02*
X111700000Y-85700000D01*
X111700000Y-85700000D02*
X111700000Y-85500000D01*
%TO.N,+24V*%
X109800000Y-88000000D02*
X109800000Y-87200000D01*
X109800000Y-87200000D02*
X110250000Y-86750000D01*
X110250000Y-86750000D02*
X112000000Y-86750000D01*
X112000000Y-86750000D02*
X112750000Y-87500000D01*
X112750000Y-87500000D02*
X114250000Y-87500000D01*
X114445000Y-87305000D02*
X114445000Y-86750000D01*
X114250000Y-87500000D02*
X114445000Y-87305000D01*
X135000000Y-87960000D02*
X135000000Y-86750000D01*
X135000000Y-86750000D02*
X134225000Y-85975000D01*
X134225000Y-85975000D02*
X134225000Y-85120000D01*
%TO.N,/MicroMod Function Board/VID_VALID*%
X115750000Y-102725000D02*
X115750000Y-92500000D01*
X115750000Y-92500000D02*
X116050000Y-92200000D01*
X116050000Y-92200000D02*
X116050000Y-91175000D01*
%TO.N,Net-(U5-VOUT)*%
X117555000Y-82250000D02*
X115305000Y-84500000D01*
X115305000Y-84500000D02*
X114520000Y-84500000D01*
%TO.N,GND*%
X121250000Y-99750000D02*
X120250000Y-100750000D01*
X120250000Y-100750000D02*
X120250000Y-102725000D01*
%TO.N,Net-(IC1-WP)*%
X111500000Y-98750000D02*
X109550000Y-98750000D01*
X109550000Y-98750000D02*
X107000000Y-96200000D01*
D61*
%TO.N,GND*%
X111405000Y-93595000D02*
X111500000Y-93500000D01*
X110345000Y-93595000D02*
X111405000Y-93595000D01*
D60*
%TO.N,Net-(U8-EP)*%
X130600000Y-79750000D02*
X125500000Y-79750000D01*
X125500000Y-79750000D02*
X125305000Y-79945000D01*
X125305000Y-79945000D02*
X125305000Y-80500000D01*
D59*
%TO.N,GND*%
X131750000Y-74750000D02*
X131750000Y-77500000D01*
D60*
%TO.N,Net-(U5-VOUT)*%
X114520000Y-84500000D02*
X110920484Y-84500000D01*
X110920484Y-84500000D02*
X109875000Y-83454516D01*
X109875000Y-83454516D02*
X109875000Y-83250000D01*
%TO.N,GND*%
X128370000Y-82120000D02*
X128980000Y-82120000D01*
X128000000Y-80750000D02*
X128000000Y-81750000D01*
X128000000Y-81750000D02*
X128370000Y-82120000D01*
%TO.N,/PoDL Supply Handling/PSE+*%
X121250000Y-76770000D02*
X122770000Y-76770000D01*
X122770000Y-76770000D02*
X123750000Y-77750000D01*
D59*
X123750000Y-77750000D02*
X126750000Y-74750000D01*
D60*
%TO.N,+3.3V*%
X125425000Y-93505000D02*
X125425000Y-95420000D01*
X125425000Y-95420000D02*
X125345000Y-95500000D01*
%TO.N,GND*%
X126075000Y-93505000D02*
X126075000Y-95420000D01*
X126075000Y-95420000D02*
X126155000Y-95500000D01*
X126725000Y-93505000D02*
X126725000Y-94930000D01*
X126725000Y-94930000D02*
X126155000Y-95500000D01*
%TO.N,/MicroMod Function Board/VID_VALID*%
X116050000Y-91175000D02*
X116050000Y-88825000D01*
%TO.N,+3.3V*%
X116445000Y-86750000D02*
X117000000Y-86750000D01*
X117000000Y-88825000D02*
X117000000Y-86750000D01*
X117000000Y-86750000D02*
X117595000Y-86750000D01*
%TO.N,/MicroMod Function Board/VID_VALID*%
X116050000Y-88825000D02*
X116050000Y-87800000D01*
X116050000Y-87800000D02*
X115555000Y-87305000D01*
X115555000Y-87305000D02*
X115555000Y-86750000D01*
D61*
%TO.N,Net-(U5-VOUT)*%
X109800000Y-85500000D02*
X109800000Y-83325000D01*
X109800000Y-83325000D02*
X109875000Y-83250000D01*
%TO.N,GND*%
X110750000Y-88000000D02*
X110750000Y-89000000D01*
X110750000Y-89000000D02*
X111525000Y-89775000D01*
X111525000Y-89775000D02*
X111525000Y-90250000D01*
%TO.N,+24V*%
X109800000Y-88000000D02*
X109800000Y-90075000D01*
X109800000Y-90075000D02*
X109975000Y-90250000D01*
D60*
%TO.N,Net-(U2-S+)*%
X128980000Y-84120000D02*
X128280000Y-84120000D01*
X128280000Y-84120000D02*
X128000000Y-84400000D01*
X128000000Y-84400000D02*
X128000000Y-85200000D01*
X128000000Y-85200000D02*
X127580000Y-85620000D01*
X127580000Y-85620000D02*
X126625000Y-85620000D01*
%TO.N,Net-(D6-K)*%
X122275000Y-83500000D02*
X121400000Y-82625000D01*
X121400000Y-82625000D02*
X121400000Y-80380000D01*
X121400000Y-80380000D02*
X121250000Y-80230000D01*
X118850000Y-80230000D02*
X121250000Y-80230000D01*
%TO.N,Net-(U8-EP)*%
X132500000Y-79750000D02*
X130600000Y-79750000D01*
X130380000Y-83120000D02*
X130600000Y-82900000D01*
X130600000Y-82900000D02*
X130600000Y-79750000D01*
X133000000Y-81500000D02*
X133000000Y-80750000D01*
X133000000Y-80750000D02*
X133000000Y-80250000D01*
X134555000Y-80870000D02*
X133120000Y-80870000D01*
X133120000Y-80870000D02*
X133000000Y-80750000D01*
X131780000Y-82120000D02*
X132380000Y-82120000D01*
X132380000Y-82120000D02*
X133000000Y-81500000D01*
X133000000Y-80250000D02*
X132500000Y-79750000D01*
X125305000Y-80500000D02*
X125305000Y-81710000D01*
X125305000Y-81710000D02*
X125345000Y-81750000D01*
%TO.N,Net-(U8-ILIM)*%
X128980000Y-82620000D02*
X128120000Y-82620000D01*
X128120000Y-82620000D02*
X127000000Y-81500000D01*
X127000000Y-81500000D02*
X127000000Y-80750000D01*
X127000000Y-80750000D02*
X126750000Y-80500000D01*
X126750000Y-80500000D02*
X126195000Y-80500000D01*
%TO.N,Net-(U8-dVdT)*%
X128980000Y-83120000D02*
X127870000Y-83120000D01*
X127870000Y-83120000D02*
X126500000Y-81750000D01*
X126500000Y-81750000D02*
X126155000Y-81750000D01*
%TO.N,/MicroMod Function Board/24V_FAULT*%
X128980000Y-83620000D02*
X126645000Y-83620000D01*
X126645000Y-83620000D02*
X126525000Y-83500000D01*
%TO.N,+24V*%
X131780000Y-84120000D02*
X132620000Y-84120000D01*
X132620000Y-84120000D02*
X133620000Y-85120000D01*
X133620000Y-85120000D02*
X134225000Y-85120000D01*
X135445000Y-83370000D02*
X135445000Y-83555000D01*
X135445000Y-83555000D02*
X134225000Y-84775000D01*
X134225000Y-84775000D02*
X134225000Y-85120000D01*
%TO.N,Net-(U8-OVP)*%
X135445000Y-80870000D02*
X135445000Y-81055000D01*
X135445000Y-81055000D02*
X134555000Y-81945000D01*
X134555000Y-81945000D02*
X134555000Y-82120000D01*
%TO.N,Net-(U8-ULVO)*%
X135445000Y-82120000D02*
X135445000Y-82305000D01*
X135445000Y-82305000D02*
X134555000Y-83195000D01*
X134555000Y-83195000D02*
X134555000Y-83370000D01*
X131780000Y-83620000D02*
X134305000Y-83620000D01*
X134305000Y-83620000D02*
X134555000Y-83370000D01*
%TO.N,Net-(U8-OVP)*%
X131780000Y-83120000D02*
X133380000Y-83120000D01*
X133380000Y-83120000D02*
X134380000Y-82120000D01*
X134380000Y-82120000D02*
X134555000Y-82120000D01*
%TO.N,/MicroMod Function Board/ANALOG*%
X126725000Y-90995000D02*
X126725000Y-90025000D01*
X127000000Y-89750000D02*
X127950000Y-89750000D01*
X126725000Y-90025000D02*
X127000000Y-89750000D01*
X127950000Y-89750000D02*
X128500000Y-90300000D01*
X128500000Y-90300000D02*
X128500000Y-91845000D01*
%TO.N,Net-(U2-S+)*%
X125425000Y-90995000D02*
X125425000Y-89975000D01*
X125425000Y-89975000D02*
X126000000Y-89400000D01*
X126000000Y-88600000D02*
X126350000Y-88250000D01*
X126000000Y-89400000D02*
X126000000Y-88600000D01*
X126350000Y-88250000D02*
X127155000Y-88250000D01*
%TO.N,/PoDL Supply Handling/PSE+*%
X124775000Y-90995000D02*
X124775000Y-89875000D01*
X124775000Y-89875000D02*
X125400000Y-89250000D01*
X125400000Y-88600000D02*
X125050000Y-88250000D01*
X125400000Y-89250000D02*
X125400000Y-88600000D01*
X125050000Y-88250000D02*
X124345000Y-88250000D01*
X122025000Y-90750000D02*
X122025000Y-89250000D01*
%TO.N,Net-(U1-INB-)*%
X117950000Y-88825000D02*
X117950000Y-87950000D01*
X117950000Y-87950000D02*
X118300000Y-87600000D01*
X118300000Y-87600000D02*
X120325000Y-87600000D01*
X120325000Y-87600000D02*
X120475000Y-87750000D01*
%TO.N,GND*%
X122025000Y-87750000D02*
X122025000Y-86620000D01*
X122025000Y-86620000D02*
X121655000Y-86250000D01*
X122025000Y-92250000D02*
X122025000Y-93380000D01*
%TO.N,Net-(U1-INA+)*%
X120475000Y-92250000D02*
X120475000Y-93380000D01*
X120475000Y-93380000D02*
X120845000Y-93750000D01*
X120475000Y-90750000D02*
X120475000Y-92250000D01*
%TO.N,Net-(U1-INB-)*%
X120475000Y-87750000D02*
X120475000Y-86620000D01*
X120475000Y-86620000D02*
X120845000Y-86250000D01*
X120475000Y-89250000D02*
X120475000Y-87750000D01*
%TO.N,Net-(Q1-D)*%
X118445000Y-82250000D02*
X119000000Y-82250000D01*
X119000000Y-82250000D02*
X119300000Y-82550000D01*
X119300000Y-82550000D02*
X120225000Y-82550000D01*
%TO.N,Net-(Q2-S)*%
X117980000Y-84500000D02*
X120175000Y-84500000D01*
X120175000Y-84500000D02*
X120225000Y-84450000D01*
%TO.N,/MicroMod Function Board/ENABLE_ID_SOURCE*%
X114445000Y-82250000D02*
X115555000Y-82250000D01*
%TO.N,Net-(D5-PadA)*%
X110000000Y-49225000D02*
X110000000Y-42510000D01*
D62*
%TO.N,/MicroMod Function Board/24V_ENABLE*%
X101000000Y-56000000D02*
X101000000Y-50800000D01*
X101000000Y-50800000D02*
X101775000Y-50025000D01*
X101775000Y-50025000D02*
X108525000Y-50025000D01*
X109275000Y-50775000D02*
X110000000Y-50775000D01*
X108525000Y-50025000D02*
X109275000Y-50775000D01*
D63*
%TO.N,+POWER*%
X102125000Y-84750000D02*
X102125000Y-87110000D01*
X102125000Y-87110000D02*
X103000000Y-87985000D01*
D60*
%TO.N,GND*%
X108500000Y-78155000D02*
X108500000Y-78750000D01*
X103345000Y-67750000D02*
X102600000Y-67750000D01*
X105300000Y-65500000D02*
X104800000Y-66000000D01*
X118360000Y-69090000D02*
X118360000Y-67085000D01*
X103000000Y-57521987D02*
X104200000Y-57521987D01*
X101595000Y-97500000D02*
X101595000Y-98405000D01*
X103345000Y-71500000D02*
X102600002Y-71500000D01*
X107500000Y-40990000D02*
X110000000Y-40990000D01*
X116250000Y-59250000D02*
X116500000Y-59500000D01*
X102050000Y-57050000D02*
X102521987Y-57521987D01*
X116640000Y-71410000D02*
X116640000Y-73415000D01*
D61*
X103875000Y-77750000D02*
X104125000Y-77500000D01*
D60*
X109750000Y-78155000D02*
X108500000Y-78155000D01*
X105845000Y-63000000D02*
X105200000Y-63000000D01*
D61*
X134000000Y-62750000D02*
X135250000Y-62750000D01*
D60*
X128250000Y-102725000D02*
X128250000Y-100000000D01*
X110000000Y-40990000D02*
X111489998Y-40990000D01*
X118360000Y-67085000D02*
X118275000Y-67000000D01*
D61*
X103875000Y-84750000D02*
X105250000Y-84750000D01*
D60*
X102850000Y-56100000D02*
X102850000Y-57371987D01*
D61*
X103875000Y-84625000D02*
X103000000Y-83750000D01*
X103875000Y-84750000D02*
X103875000Y-84625000D01*
D60*
X103700000Y-57521987D02*
X104200000Y-57521987D01*
X105845000Y-63000000D02*
X105845000Y-61750000D01*
X116640000Y-73415000D02*
X116725000Y-73500000D01*
X107500000Y-40990000D02*
X105000000Y-40990000D01*
X102500000Y-40990000D02*
X105000000Y-40990000D01*
X113800000Y-58225000D02*
X113750000Y-58275000D01*
X128250000Y-100000000D02*
X129250000Y-99000000D01*
D61*
X118275000Y-61750000D02*
X119500000Y-61750000D01*
D60*
X102050000Y-56100000D02*
X102050000Y-57050000D01*
X111489998Y-40990000D02*
X111489999Y-40989999D01*
X103345000Y-70250000D02*
X102600000Y-70250000D01*
X103650000Y-57471987D02*
X103700000Y-57521987D01*
X105200000Y-63000000D02*
X104200000Y-64000000D01*
X103345000Y-69000000D02*
X103345000Y-67750000D01*
X105845000Y-64250000D02*
X105350000Y-64250000D01*
X102521987Y-57521987D02*
X104200000Y-57521987D01*
X103650000Y-56100000D02*
X103650000Y-57471987D01*
X116250000Y-58225000D02*
X116250000Y-59250000D01*
X116250000Y-58225000D02*
X113800000Y-58225000D01*
D61*
X104125000Y-77500000D02*
X105000000Y-77500000D01*
D60*
X104200000Y-64000000D02*
X104200000Y-64199998D01*
X102850000Y-57371987D02*
X103000000Y-57521987D01*
D61*
X103000000Y-83750000D02*
X103000000Y-82500000D01*
D60*
X105350000Y-64250000D02*
X104800000Y-64800000D01*
X105845000Y-65500000D02*
X105300000Y-65500000D01*
X101595000Y-98405000D02*
X101500000Y-98500000D01*
%TO.N,Net-(U4-CEXT_2)*%
X108250000Y-67750000D02*
X108000000Y-67500000D01*
X108000000Y-65000000D02*
X107250000Y-64250000D01*
X107250000Y-64250000D02*
X106655000Y-64250000D01*
X108250000Y-69062500D02*
X108250000Y-67750000D01*
X108000000Y-67500000D02*
X108000000Y-65000000D01*
%TO.N,Net-(U4-CEXT_3)*%
X107500000Y-67750000D02*
X107750000Y-68000000D01*
X107750000Y-68000000D02*
X107750000Y-69062500D01*
X106655000Y-65500000D02*
X107202500Y-65500000D01*
X107500000Y-65797500D02*
X107500000Y-67750000D01*
X107202500Y-65500000D02*
X107500000Y-65797500D01*
%TO.N,Net-(U4-DLDO_1P1)*%
X107062500Y-70750000D02*
X105250000Y-70750000D01*
X105250000Y-70750000D02*
X104750000Y-70250000D01*
X107062500Y-71250000D02*
X105250000Y-71250000D01*
X104155000Y-71500000D02*
X104155000Y-70250000D01*
X104750000Y-70250000D02*
X104155000Y-70250000D01*
X105250000Y-71250000D02*
X105000000Y-71500000D01*
X105000000Y-71500000D02*
X104155000Y-71500000D01*
%TO.N,Net-(U4-XTAL_I{slash}CLK_IN)*%
X112937500Y-70750000D02*
X114250000Y-70750000D01*
X114250000Y-70750000D02*
X114750000Y-70250000D01*
X118275000Y-71495000D02*
X118360000Y-71410000D01*
X114750000Y-70250000D02*
X117200000Y-70250000D01*
X118275000Y-73500000D02*
X118275000Y-71495000D01*
X117200000Y-70250000D02*
X118360000Y-71410000D01*
%TO.N,Net-(U4-XTAL_O)*%
X112937500Y-70250000D02*
X113950000Y-70250000D01*
X113950000Y-70250000D02*
X115110000Y-69090000D01*
X116725000Y-69005000D02*
X116640000Y-69090000D01*
X116725000Y-67000000D02*
X116725000Y-69005000D01*
X115110000Y-69090000D02*
X116640000Y-69090000D01*
%TO.N,+3.3V*%
X106300000Y-53200000D02*
X106500000Y-53000000D01*
X107998392Y-77345000D02*
X107775000Y-77568392D01*
X105400000Y-60800000D02*
X105000000Y-60800000D01*
X108500000Y-67000000D02*
X108500000Y-64000000D01*
X109750000Y-67625000D02*
X109000000Y-66875000D01*
X104850000Y-76100000D02*
X102400000Y-76100000D01*
X107062500Y-70250000D02*
X106250000Y-70250000D01*
X107500000Y-63000000D02*
X106655000Y-63000000D01*
X106500000Y-53000000D02*
X105400000Y-54100000D01*
X108700000Y-53100000D02*
X108600000Y-53000000D01*
X104000000Y-60800000D02*
X104000000Y-62400000D01*
X105750000Y-77000000D02*
X104850000Y-76100000D01*
X106400000Y-60800000D02*
X105400000Y-60800000D01*
X105400000Y-54100000D02*
X105400000Y-59400000D01*
X109000000Y-66875000D02*
X109000000Y-63500000D01*
X109250000Y-67750000D02*
X108500000Y-67000000D01*
X102500000Y-97405000D02*
X102405000Y-97500000D01*
X106655000Y-61055000D02*
X106400000Y-60800000D01*
X104155000Y-66755000D02*
X104000000Y-66600000D01*
X101555000Y-96049932D02*
X101555000Y-96000000D01*
X109750000Y-77345000D02*
X108500000Y-77345000D01*
X108500000Y-77345000D02*
X107998392Y-77345000D01*
X102405000Y-96899932D02*
X101555000Y-96049932D01*
X106655000Y-61750000D02*
X106655000Y-61055000D01*
X103305000Y-74500000D02*
X102000000Y-74500000D01*
X107100000Y-53100000D02*
X107000000Y-53000000D01*
X105000000Y-60800000D02*
X104600000Y-61200000D01*
X107250000Y-61750000D02*
X106655000Y-61750000D01*
X106250000Y-79250000D02*
X105750000Y-78750000D01*
X109000000Y-63500000D02*
X107250000Y-61750000D01*
X109250000Y-69062500D02*
X109250000Y-67750000D01*
X105000000Y-69000000D02*
X104155000Y-69000000D01*
X106300000Y-54400000D02*
X106300000Y-53200000D01*
X105400000Y-59400000D02*
X104000000Y-60800000D01*
X104155000Y-67750000D02*
X104155000Y-66755000D01*
X107800000Y-53000000D02*
X107000000Y-53000000D01*
X108700000Y-54400000D02*
X108700000Y-53100000D01*
X106655000Y-63000000D02*
X106655000Y-61750000D01*
X104600000Y-61200000D02*
X104600000Y-62400000D01*
X106250000Y-70250000D02*
X105000000Y-69000000D01*
X109750000Y-74937500D02*
X109750000Y-77345000D01*
X104155000Y-69000000D02*
X104155000Y-67750000D01*
X107900000Y-54400000D02*
X107900000Y-53100000D01*
D61*
X102050000Y-80000000D02*
X102050000Y-77825000D01*
D60*
X106500000Y-53000000D02*
X107000000Y-53000000D01*
X107900000Y-53100000D02*
X107800000Y-53000000D01*
X107100000Y-54400000D02*
X107100000Y-53100000D01*
X107775000Y-78825000D02*
X107350000Y-79250000D01*
X102405000Y-97500000D02*
X102405000Y-96899932D01*
X108600000Y-53000000D02*
X107800000Y-53000000D01*
X109750000Y-69062500D02*
X109750000Y-67625000D01*
X105750000Y-78750000D02*
X105750000Y-77000000D01*
D61*
X102050000Y-77825000D02*
X102125000Y-77750000D01*
D60*
X102400000Y-76100000D02*
X102250000Y-76250000D01*
X104655000Y-97405000D02*
X102500000Y-97405000D01*
X107775000Y-77568392D02*
X107775000Y-78825000D01*
X107350000Y-79250000D02*
X106250000Y-79250000D01*
X108500000Y-64000000D02*
X107500000Y-63000000D01*
X103305000Y-73250000D02*
X102250000Y-73250000D01*
%TO.N,+POWER*%
X106000000Y-80475000D02*
X105225000Y-81250000D01*
X105225000Y-81250000D02*
X102500000Y-81250000D01*
D61*
X102050000Y-82500000D02*
X102050000Y-84675000D01*
D60*
X102500000Y-81250000D02*
X102050000Y-81700000D01*
D61*
X102050000Y-84675000D02*
X102125000Y-84750000D01*
D60*
X102050000Y-81700000D02*
X102050000Y-82500000D01*
D61*
%TO.N,Net-(C22-Pad1)*%
X123500000Y-62750000D02*
X122025000Y-62750000D01*
X126050000Y-60200000D02*
X123500000Y-62750000D01*
X127270000Y-60200000D02*
X126050000Y-60200000D01*
D64*
%TO.N,/Ethernet MAC+PHY/DATA-*%
X114055000Y-61305000D02*
X115450000Y-62700000D01*
D61*
X120475000Y-62750000D02*
X116275000Y-62750000D01*
D64*
X111975000Y-61305000D02*
X113250000Y-61305000D01*
X113250000Y-61305000D02*
X114055000Y-61305000D01*
X115450000Y-62700000D02*
X116225000Y-62700000D01*
D61*
X116275000Y-62750000D02*
X116225000Y-62700000D01*
%TO.N,Net-(C23-Pad1)*%
X132500000Y-62700000D02*
X132450000Y-62750000D01*
X131250000Y-60200000D02*
X132200000Y-60200000D01*
X132500000Y-60500000D02*
X132500000Y-62700000D01*
X132200000Y-60200000D02*
X132500000Y-60500000D01*
%TO.N,Net-(C24-Pad1)*%
X125700000Y-59550000D02*
X124500000Y-60750000D01*
X124500000Y-60750000D02*
X122025000Y-60750000D01*
X127270000Y-59550000D02*
X125700000Y-59550000D01*
%TO.N,/Ethernet MAC+PHY/DATA+*%
X120475000Y-60750000D02*
X116275000Y-60750000D01*
D64*
X110750000Y-61305000D02*
X111305000Y-60750000D01*
X109500000Y-61305000D02*
X110750000Y-61305000D01*
X111305000Y-60750000D02*
X116175000Y-60750000D01*
D61*
X116275000Y-60750000D02*
X116225000Y-60800000D01*
D65*
X116175000Y-60750000D02*
X116225000Y-60800000D01*
D61*
%TO.N,Net-(C25-Pad1)*%
X124125000Y-58500000D02*
X123750000Y-58125000D01*
X127320000Y-58500000D02*
X124125000Y-58500000D01*
X127720000Y-57500000D02*
X127720000Y-58100000D01*
X127720000Y-58100000D02*
X127320000Y-58500000D01*
%TO.N,Net-(C25-Pad2)*%
X126870000Y-57500000D02*
X126000000Y-57500000D01*
X121600000Y-56375000D02*
X121250000Y-56725000D01*
X124875000Y-56375000D02*
X123750000Y-56375000D01*
X123750000Y-56375000D02*
X121600000Y-56375000D01*
X126000000Y-57500000D02*
X124875000Y-56375000D01*
D60*
%TO.N,Net-(D1-PadA)*%
X107500000Y-42510000D02*
X107500000Y-49225000D01*
%TO.N,Net-(D2-PadA)*%
X102500000Y-42510000D02*
X102500000Y-49225000D01*
%TO.N,Net-(D3-PadA)*%
X105000000Y-42510000D02*
X105000000Y-49225000D01*
D61*
%TO.N,Net-(C29-Pad1)*%
X119050000Y-58275000D02*
X119000000Y-58225000D01*
X121250000Y-58275000D02*
X119050000Y-58275000D01*
D60*
%TO.N,Net-(IC1-WP)*%
X104655000Y-96135000D02*
X102580000Y-96135000D01*
X104655000Y-96135000D02*
X106935000Y-96135000D01*
X102580000Y-96135000D02*
X102445000Y-96000000D01*
X106935000Y-96135000D02*
X107000000Y-96200000D01*
D63*
%TO.N,Net-(J1-Pin_2)*%
X119000000Y-51580000D02*
X119000000Y-46500000D01*
D66*
X129500000Y-41750000D02*
X120250000Y-41750000D01*
X129980000Y-43750000D02*
X129980000Y-42230000D01*
X120250000Y-41750000D02*
X119000000Y-43000000D01*
X119000000Y-43000000D02*
X119000000Y-46500000D01*
X129980000Y-42230000D02*
X129500000Y-41750000D01*
D60*
%TO.N,Net-(U4-TEST1)*%
X106445000Y-72250000D02*
X107062500Y-72250000D01*
X104195000Y-74500000D02*
X106445000Y-72250000D01*
%TO.N,Net-(U6-EN)*%
X106000000Y-82750000D02*
X106000000Y-82025000D01*
X103950000Y-82950000D02*
X104250000Y-83250000D01*
X105500000Y-83250000D02*
X106000000Y-82750000D01*
X103950000Y-82500000D02*
X103950000Y-82950000D01*
X104250000Y-83250000D02*
X105500000Y-83250000D01*
%TO.N,Net-(R13-Pad5)*%
X106300000Y-56100000D02*
X106300000Y-57300000D01*
X106300000Y-57300000D02*
X106000000Y-57600000D01*
%TO.N,Net-(R13-Pad6)*%
X107100000Y-56100000D02*
X107100000Y-57700000D01*
X107100000Y-57700000D02*
X106800000Y-58000000D01*
%TO.N,Net-(R13-Pad7)*%
X107900000Y-58100000D02*
X107600000Y-58400000D01*
X107900000Y-56100000D02*
X107900000Y-58100000D01*
%TO.N,Net-(R13-Pad8)*%
X108700000Y-56100000D02*
X108700000Y-58500004D01*
X108700000Y-58500004D02*
X108400000Y-58800004D01*
%TO.N,/Ethernet MAC+PHY/~{INT}*%
X107062500Y-71750000D02*
X105750000Y-71750000D01*
X104250000Y-73250000D02*
X104195000Y-73250000D01*
X104195000Y-73250000D02*
X104195000Y-72405000D01*
X104195000Y-72405000D02*
X104200000Y-72400000D01*
X105750000Y-71750000D02*
X104250000Y-73250000D01*
%TO.N,Net-(R15-Pad2)*%
X121300000Y-74275000D02*
X121300000Y-75000000D01*
X121100000Y-75200000D02*
X120300010Y-75200000D01*
X121300000Y-75000000D02*
X121100000Y-75200000D01*
%TO.N,Net-(U4-LED_0)*%
X112937500Y-73250000D02*
X114650000Y-73250000D01*
X107475000Y-50775000D02*
X107500000Y-50775000D01*
X106606589Y-51793412D02*
X106606589Y-51643411D01*
X105400001Y-53000000D02*
X106606589Y-51793412D01*
X114650000Y-73250000D02*
X115000000Y-73600000D01*
X104200000Y-53000000D02*
X105400001Y-53000000D01*
X103650000Y-54400000D02*
X103650000Y-53550000D01*
X103650000Y-53550000D02*
X104200000Y-53000000D01*
X106606589Y-51643411D02*
X107475000Y-50775000D01*
%TO.N,Net-(U4-LED_1)*%
X114050000Y-71750000D02*
X114400000Y-71400000D01*
X112937500Y-71750000D02*
X114050000Y-71750000D01*
X102050000Y-54400000D02*
X102050000Y-52349996D01*
X114400000Y-71400000D02*
X115000000Y-71400000D01*
D64*
%TO.N,Net-(U4-RXN)*%
X111525000Y-63225000D02*
X111975000Y-62775000D01*
X111975000Y-62775000D02*
X111975000Y-62195000D01*
X111250000Y-69062500D02*
X111250000Y-67250000D01*
X111250000Y-67250000D02*
X111500000Y-67000000D01*
X111500000Y-67000000D02*
X111500000Y-64025000D01*
X111525000Y-64000000D02*
X111525000Y-63225000D01*
X111500000Y-64025000D02*
X111525000Y-64000000D01*
D60*
%TO.N,Net-(U4-LINK_ST)*%
X112937500Y-72750000D02*
X115000000Y-72750000D01*
X102850000Y-53350000D02*
X104000000Y-52200000D01*
X115000000Y-72750000D02*
X115025000Y-72775000D01*
X102850000Y-54400000D02*
X102850000Y-53350000D01*
X104000000Y-52200000D02*
X105000000Y-52200000D01*
X105000000Y-52200000D02*
X105000000Y-50775000D01*
D64*
%TO.N,Net-(U4-TXP)*%
X109975000Y-66975000D02*
X109975000Y-64000000D01*
X110250000Y-67250000D02*
X109975000Y-66975000D01*
X110250000Y-69062500D02*
X110250000Y-67250000D01*
X109975000Y-64000000D02*
X109975000Y-63225000D01*
X109500000Y-62750000D02*
X109500000Y-62195000D01*
X109975000Y-63225000D02*
X109500000Y-62750000D01*
%TO.N,Net-(U4-TXN)*%
X111750000Y-69062500D02*
X111750000Y-67500000D01*
X113250000Y-62750000D02*
X113250000Y-62195000D01*
X112275000Y-63725000D02*
X113250000Y-62750000D01*
X112275000Y-66975000D02*
X112275000Y-65750000D01*
X112275000Y-65750000D02*
X112275000Y-63725000D01*
X111750000Y-67500000D02*
X112275000Y-66975000D01*
%TO.N,Net-(U4-RXP)*%
X110725000Y-62220000D02*
X110750000Y-62195000D01*
X110750000Y-65775000D02*
X110725000Y-65750000D01*
X110750000Y-69062500D02*
X110750000Y-65775000D01*
X110725000Y-65750000D02*
X110725000Y-62220000D01*
D66*
%TO.N,Net-(J1-Pin_3)*%
X132520000Y-42020000D02*
X131250000Y-40750000D01*
X132520000Y-43750000D02*
X132520000Y-42020000D01*
D63*
X116460000Y-46500000D02*
X116460000Y-51580000D01*
D66*
X131250000Y-40750000D02*
X119000000Y-40750000D01*
X116460000Y-43290000D02*
X116460000Y-46500000D01*
X119000000Y-40750000D02*
X116460000Y-43290000D01*
D60*
%TO.N,Net-(U4-TS_TIMER{slash}MS_SEL)*%
X105275000Y-75475000D02*
X102800004Y-75475000D01*
X106500000Y-74250000D02*
X105275000Y-75475000D01*
X107062500Y-74250000D02*
X106500000Y-74250000D01*
%TO.N,Net-(U4-~{SWPD_EN})*%
X108750000Y-75750000D02*
X107193410Y-77306590D01*
X108750000Y-74937500D02*
X108750000Y-75750000D01*
X107193410Y-77306590D02*
X107193410Y-78593410D01*
%TO.N,Net-(U4-~{TX2P4_EN})*%
X107750000Y-74937500D02*
X107750000Y-76000000D01*
X106500000Y-77250000D02*
X106500000Y-78200000D01*
X107750000Y-76000000D02*
X106500000Y-77250000D01*
D63*
%TO.N,Earth*%
X121540000Y-51580000D02*
X121540000Y-53160000D01*
X121540000Y-51580000D02*
X121540000Y-46500000D01*
X121540000Y-53160000D02*
X119425000Y-55275000D01*
D61*
X113750000Y-55750000D02*
X114225000Y-55275000D01*
D63*
X119000000Y-55275000D02*
X116250000Y-55275000D01*
X119425000Y-55275000D02*
X119000000Y-55275000D01*
D61*
X113750000Y-56725000D02*
X113750000Y-55750000D01*
X114225000Y-55275000D02*
X116250000Y-55275000D01*
D62*
%TO.N,/Ethernet MAC+PHY/~{RESET}*%
X112937500Y-72250000D02*
X115450000Y-72250000D01*
X115450000Y-72250000D02*
X115600000Y-72400000D01*
D60*
%TO.N,/Ethernet MAC+PHY/~{CS}*%
X107062500Y-73750000D02*
X106063174Y-73750000D01*
X106063174Y-73750000D02*
X105406587Y-74406587D01*
D61*
%TO.N,Net-(L1-Pad6)*%
X131250000Y-58150000D02*
X130350000Y-58150000D01*
D63*
X132850000Y-58150000D02*
X134000000Y-57000000D01*
X130000000Y-58500000D02*
X130000000Y-62031250D01*
X132520000Y-53895000D02*
X132520000Y-51250000D01*
X131250000Y-63281250D02*
X131250000Y-66250000D01*
X134000000Y-57000000D02*
X134000000Y-55375000D01*
X132600000Y-58150000D02*
X132850000Y-58150000D01*
X130000000Y-62031250D02*
X131250000Y-63281250D01*
D61*
X131250000Y-58150000D02*
X132600000Y-58150000D01*
D63*
X134000000Y-55375000D02*
X132520000Y-53895000D01*
D61*
X131250000Y-66250000D02*
X131750000Y-66750000D01*
D67*
X130350000Y-58150000D02*
X130000000Y-58500000D01*
D63*
%TO.N,Net-(L1-Pad7)*%
X129000000Y-62250000D02*
X126750000Y-64500000D01*
X129000000Y-58250000D02*
X129000000Y-62250000D01*
X126750000Y-64500000D02*
X126750000Y-66750000D01*
D61*
X131250000Y-57500000D02*
X130000000Y-57500000D01*
X131250000Y-57500000D02*
X132250000Y-57500000D01*
D63*
X133000000Y-56750000D02*
X133000000Y-55750000D01*
X132250000Y-57500000D02*
X133000000Y-56750000D01*
X133000000Y-55750000D02*
X129980000Y-52730000D01*
X129980000Y-52730000D02*
X129980000Y-51250000D01*
X130000000Y-57500000D02*
X129750000Y-57500000D01*
X129750000Y-57500000D02*
X129000000Y-58250000D01*
%TD*%
%TA.AperFunction,Conductor*%
%TO.N,+3.3V*%
G36*
X105292539Y-61769685D02*
G01*
X105338294Y-61822489D01*
X105349500Y-61874000D01*
X105349499Y-61935522D01*
X105359355Y-62003171D01*
X105410365Y-62107513D01*
X105463681Y-62160829D01*
X105497166Y-62222152D01*
X105500000Y-62248510D01*
X105500000Y-62501490D01*
X105480315Y-62568529D01*
X105463681Y-62589171D01*
X105414671Y-62638181D01*
X105353348Y-62671666D01*
X105326990Y-62674500D01*
X105216922Y-62674500D01*
X105211518Y-62674264D01*
X105206107Y-62673790D01*
X105171192Y-62670735D01*
X105171191Y-62670735D01*
X105132091Y-62681212D01*
X105126811Y-62682383D01*
X105086959Y-62689410D01*
X105081961Y-62691229D01*
X105065117Y-62698206D01*
X105060313Y-62700446D01*
X105027166Y-62723656D01*
X105022606Y-62726562D01*
X104987548Y-62746804D01*
X104987540Y-62746810D01*
X104961523Y-62777815D01*
X104957869Y-62781804D01*
X103981803Y-63757870D01*
X103977814Y-63761525D01*
X103946806Y-63787545D01*
X103926562Y-63822604D01*
X103923657Y-63827165D01*
X103911575Y-63844421D01*
X103907641Y-63849464D01*
X103817118Y-63953935D01*
X103817117Y-63953936D01*
X103763302Y-64071772D01*
X103744867Y-64199998D01*
X103763302Y-64328223D01*
X103812308Y-64435528D01*
X103817118Y-64446061D01*
X103901951Y-64543965D01*
X104010931Y-64614002D01*
X104061112Y-64628736D01*
X104135225Y-64650497D01*
X104135227Y-64650498D01*
X104223258Y-64650498D01*
X104290297Y-64670183D01*
X104336052Y-64722987D01*
X104345996Y-64792142D01*
X104344867Y-64799995D01*
X104344867Y-64799999D01*
X104363302Y-64928225D01*
X104395524Y-64998780D01*
X104417118Y-65046063D01*
X104501951Y-65143967D01*
X104610931Y-65214004D01*
X104722729Y-65246830D01*
X104735225Y-65250499D01*
X104735227Y-65250500D01*
X104789812Y-65250500D01*
X104856851Y-65270185D01*
X104902606Y-65322989D01*
X104912550Y-65392147D01*
X104883525Y-65455703D01*
X104877493Y-65462181D01*
X104826493Y-65513181D01*
X104765170Y-65546666D01*
X104738812Y-65549500D01*
X104735226Y-65549500D01*
X104610935Y-65585994D01*
X104610932Y-65585995D01*
X104610931Y-65585996D01*
X104559677Y-65618934D01*
X104501950Y-65656033D01*
X104417118Y-65753937D01*
X104417117Y-65753938D01*
X104363302Y-65871774D01*
X104344867Y-66000000D01*
X104363302Y-66128225D01*
X104417117Y-66246061D01*
X104417118Y-66246063D01*
X104501951Y-66343967D01*
X104610931Y-66414004D01*
X104735225Y-66450499D01*
X104735227Y-66450500D01*
X104750137Y-66450500D01*
X104817176Y-66470185D01*
X104862931Y-66522989D01*
X104872875Y-66592147D01*
X104843850Y-66655703D01*
X104837818Y-66662181D01*
X104566881Y-66933117D01*
X104505558Y-66966602D01*
X104444604Y-66964512D01*
X104405000Y-66953006D01*
X104404999Y-67095000D01*
X103905000Y-67595000D01*
X103905000Y-66953006D01*
X103904998Y-66953005D01*
X103748307Y-66998528D01*
X103748304Y-66998530D01*
X103607491Y-67081806D01*
X103607483Y-67081812D01*
X103491813Y-67197482D01*
X103488698Y-67201499D01*
X103432056Y-67242406D01*
X103390717Y-67249500D01*
X103164472Y-67249500D01*
X103113740Y-67256891D01*
X103096828Y-67259355D01*
X102992486Y-67310365D01*
X102967958Y-67334894D01*
X102906635Y-67368379D01*
X102836943Y-67363395D01*
X102813242Y-67351531D01*
X102789069Y-67335996D01*
X102789065Y-67335994D01*
X102789064Y-67335994D01*
X102664774Y-67299500D01*
X102664772Y-67299500D01*
X102535228Y-67299500D01*
X102535226Y-67299500D01*
X102410935Y-67335994D01*
X102410932Y-67335995D01*
X102410931Y-67335996D01*
X102368297Y-67363395D01*
X102301950Y-67406033D01*
X102217118Y-67503937D01*
X102217117Y-67503938D01*
X102163302Y-67621774D01*
X102144867Y-67750000D01*
X102163302Y-67878225D01*
X102189472Y-67935528D01*
X102217118Y-67996063D01*
X102301951Y-68093967D01*
X102410931Y-68164004D01*
X102414681Y-68165105D01*
X102535225Y-68200499D01*
X102535227Y-68200500D01*
X102535228Y-68200500D01*
X102664773Y-68200500D01*
X102664773Y-68200499D01*
X102761225Y-68172179D01*
X102789066Y-68164005D01*
X102789066Y-68164004D01*
X102789069Y-68164004D01*
X102813238Y-68148471D01*
X102880275Y-68128786D01*
X102947315Y-68148470D01*
X102967958Y-68165105D01*
X102983181Y-68180328D01*
X103016666Y-68241651D01*
X103019500Y-68268009D01*
X103019500Y-68429137D01*
X102999815Y-68496176D01*
X102983181Y-68516818D01*
X102750000Y-68749999D01*
X102750000Y-69675500D01*
X102730315Y-69742539D01*
X102677511Y-69788294D01*
X102626000Y-69799500D01*
X102535226Y-69799500D01*
X102410935Y-69835994D01*
X102410932Y-69835995D01*
X102410931Y-69835996D01*
X102369142Y-69862852D01*
X102301950Y-69906033D01*
X102217118Y-70003937D01*
X102217117Y-70003938D01*
X102163302Y-70121774D01*
X102144867Y-70250000D01*
X102163302Y-70378225D01*
X102184436Y-70424500D01*
X102217118Y-70496063D01*
X102301951Y-70593967D01*
X102410931Y-70664004D01*
X102498228Y-70689636D01*
X102535225Y-70700499D01*
X102535227Y-70700500D01*
X102626000Y-70700500D01*
X102693039Y-70720185D01*
X102738794Y-70772989D01*
X102750000Y-70824500D01*
X102750000Y-70925500D01*
X102730315Y-70992539D01*
X102677511Y-71038294D01*
X102626000Y-71049500D01*
X102535228Y-71049500D01*
X102410937Y-71085994D01*
X102410934Y-71085995D01*
X102410933Y-71085996D01*
X102369143Y-71112853D01*
X102301952Y-71156033D01*
X102217120Y-71253937D01*
X102217119Y-71253938D01*
X102163304Y-71371774D01*
X102144869Y-71499999D01*
X102163304Y-71628225D01*
X102205268Y-71720111D01*
X102217120Y-71746063D01*
X102301953Y-71843967D01*
X102410933Y-71914004D01*
X102498230Y-71939636D01*
X102535227Y-71950499D01*
X102535229Y-71950500D01*
X102626000Y-71950500D01*
X102693039Y-71970185D01*
X102738794Y-72022989D01*
X102750000Y-72074500D01*
X102750000Y-72566218D01*
X102730315Y-72633257D01*
X102713681Y-72653899D01*
X102677741Y-72689838D01*
X102677735Y-72689846D01*
X102597032Y-72826308D01*
X102597030Y-72826313D01*
X102552801Y-72978550D01*
X102552801Y-72978551D01*
X102551112Y-72999999D01*
X102551113Y-73000000D01*
X102750000Y-73000000D01*
X102750000Y-73500000D01*
X102551113Y-73500000D01*
X102552801Y-73521448D01*
X102552801Y-73521449D01*
X102597030Y-73673686D01*
X102597034Y-73673695D01*
X102678755Y-73811880D01*
X102695938Y-73879604D01*
X102678755Y-73938120D01*
X102597034Y-74076304D01*
X102597030Y-74076313D01*
X102552801Y-74228550D01*
X102552801Y-74228551D01*
X102551112Y-74249999D01*
X102551113Y-74250000D01*
X102750000Y-74250000D01*
X102750000Y-74750000D01*
X102551113Y-74750000D01*
X102552801Y-74771448D01*
X102552801Y-74771449D01*
X102597030Y-74923686D01*
X102597031Y-74923689D01*
X102598879Y-74926813D01*
X102599581Y-74929581D01*
X102600130Y-74930849D01*
X102599925Y-74930937D01*
X102616063Y-74994537D01*
X102593904Y-75060800D01*
X102559188Y-75094251D01*
X102501955Y-75131032D01*
X102417122Y-75228937D01*
X102417121Y-75228938D01*
X102363306Y-75346774D01*
X102344871Y-75474999D01*
X102363306Y-75603225D01*
X102417121Y-75721061D01*
X102417122Y-75721063D01*
X102501955Y-75818967D01*
X102610935Y-75889004D01*
X102660934Y-75903684D01*
X102719712Y-75941458D01*
X102748738Y-76005013D01*
X102750000Y-76022662D01*
X102750000Y-76410525D01*
X102730315Y-76477564D01*
X102677511Y-76523319D01*
X102608353Y-76533263D01*
X102598416Y-76531418D01*
X102591905Y-76529932D01*
X102459374Y-76515000D01*
X102375000Y-76515000D01*
X102375000Y-78901000D01*
X102355315Y-78968039D01*
X102302511Y-79013794D01*
X102288062Y-79016937D01*
X102280000Y-79024999D01*
X102280000Y-80106000D01*
X102260315Y-80173039D01*
X102207511Y-80218794D01*
X102156000Y-80230000D01*
X101320001Y-80230000D01*
X101320001Y-80522107D01*
X101322744Y-80556972D01*
X101366093Y-80706182D01*
X101366097Y-80706191D01*
X101445187Y-80839927D01*
X101445196Y-80839939D01*
X101555060Y-80949803D01*
X101555072Y-80949812D01*
X101688808Y-81028902D01*
X101688817Y-81028906D01*
X101838023Y-81072255D01*
X101838029Y-81072256D01*
X101872890Y-81074999D01*
X101915307Y-81074999D01*
X101982347Y-81094682D01*
X102028103Y-81147485D01*
X102038048Y-81216643D01*
X102009025Y-81280200D01*
X102002991Y-81286680D01*
X101831803Y-81457870D01*
X101827814Y-81461525D01*
X101796805Y-81487545D01*
X101776562Y-81522606D01*
X101773656Y-81527166D01*
X101750446Y-81560313D01*
X101748206Y-81565117D01*
X101741229Y-81581961D01*
X101739410Y-81586959D01*
X101732383Y-81626811D01*
X101731212Y-81632091D01*
X101720735Y-81671191D01*
X101724264Y-81711513D01*
X101724500Y-81716920D01*
X101724500Y-81752954D01*
X101704815Y-81819993D01*
X101688181Y-81840635D01*
X101672571Y-81856244D01*
X101625548Y-81957085D01*
X101619500Y-82003029D01*
X101619500Y-82996962D01*
X101619501Y-82996968D01*
X101625549Y-83042917D01*
X101662882Y-83122978D01*
X101674500Y-83175381D01*
X101674500Y-83755260D01*
X101654815Y-83822299D01*
X101605071Y-83865401D01*
X101605299Y-83865818D01*
X101603385Y-83866862D01*
X101602011Y-83868054D01*
X101598668Y-83869438D01*
X101597511Y-83870070D01*
X101484597Y-83954597D01*
X101400073Y-84067507D01*
X101400069Y-84067514D01*
X101350782Y-84199661D01*
X101350781Y-84199665D01*
X101344500Y-84258085D01*
X101344500Y-84258092D01*
X101344500Y-84258093D01*
X101344500Y-85241912D01*
X101344501Y-85241918D01*
X101350780Y-85300335D01*
X101400069Y-85432485D01*
X101400070Y-85432487D01*
X101400071Y-85432489D01*
X101484597Y-85545403D01*
X101597511Y-85629929D01*
X101618833Y-85637881D01*
X101674765Y-85679750D01*
X101699184Y-85745214D01*
X101699500Y-85754063D01*
X101699500Y-87177394D01*
X101706962Y-87200358D01*
X101711503Y-87219273D01*
X101714470Y-87238010D01*
X101715281Y-87243127D01*
X101726243Y-87264641D01*
X101733688Y-87282615D01*
X101741150Y-87305579D01*
X101755341Y-87325111D01*
X101765508Y-87341703D01*
X101776469Y-87363216D01*
X101776471Y-87363219D01*
X101776472Y-87363220D01*
X101800446Y-87387193D01*
X101800446Y-87387194D01*
X101831839Y-87418587D01*
X101865324Y-87479910D01*
X101860340Y-87549602D01*
X101856540Y-87558672D01*
X101852499Y-87567336D01*
X101852494Y-87567350D01*
X101797406Y-87772944D01*
X101797404Y-87772955D01*
X101778853Y-87984998D01*
X101778853Y-87985001D01*
X101797404Y-88197044D01*
X101797406Y-88197055D01*
X101852494Y-88402649D01*
X101852496Y-88402653D01*
X101852497Y-88402657D01*
X101942455Y-88595574D01*
X101942456Y-88595574D01*
X101942458Y-88595578D01*
X102064543Y-88769933D01*
X102064548Y-88769939D01*
X102215060Y-88920451D01*
X102215066Y-88920456D01*
X102389421Y-89042541D01*
X102389423Y-89042542D01*
X102389426Y-89042544D01*
X102452848Y-89072118D01*
X102505287Y-89118290D01*
X102524439Y-89185484D01*
X102504223Y-89252365D01*
X102451058Y-89297700D01*
X102400443Y-89308500D01*
X101964247Y-89308500D01*
X101905770Y-89320131D01*
X101905769Y-89320132D01*
X101839447Y-89364447D01*
X101795132Y-89430769D01*
X101795131Y-89430770D01*
X101783500Y-89489247D01*
X101783500Y-91560752D01*
X101795131Y-91619229D01*
X101795132Y-91619230D01*
X101839447Y-91685552D01*
X101905769Y-91729867D01*
X101905770Y-91729868D01*
X101964247Y-91741499D01*
X101964250Y-91741500D01*
X102626000Y-91741500D01*
X102693039Y-91761185D01*
X102738794Y-91813989D01*
X102750000Y-91865500D01*
X102750000Y-95376413D01*
X102730315Y-95443452D01*
X102677511Y-95489207D01*
X102615064Y-95498570D01*
X102614986Y-95499766D01*
X102610940Y-95499500D01*
X102610934Y-95499500D01*
X102288272Y-95499500D01*
X102221233Y-95479815D01*
X102187966Y-95445290D01*
X102187043Y-95446007D01*
X102182258Y-95439838D01*
X102070161Y-95327741D01*
X102070153Y-95327735D01*
X101933689Y-95247031D01*
X101933688Y-95247030D01*
X101804999Y-95209642D01*
X101805000Y-96126000D01*
X101785315Y-96193039D01*
X101732511Y-96238794D01*
X101681000Y-96250000D01*
X100801113Y-96250000D01*
X100802801Y-96271448D01*
X100802801Y-96271449D01*
X100847030Y-96423686D01*
X100847032Y-96423691D01*
X100927735Y-96560153D01*
X100927741Y-96560161D01*
X101039838Y-96672258D01*
X101039846Y-96672264D01*
X101176308Y-96752967D01*
X101304049Y-96790079D01*
X101362935Y-96827686D01*
X101392142Y-96891158D01*
X101382396Y-96960345D01*
X101336792Y-97013279D01*
X101323916Y-97020556D01*
X101242487Y-97060364D01*
X101160365Y-97142486D01*
X101109355Y-97246828D01*
X101106539Y-97266156D01*
X101099500Y-97314472D01*
X101099500Y-97685528D01*
X101109355Y-97753170D01*
X101160364Y-97857511D01*
X101233181Y-97930328D01*
X101266665Y-97991649D01*
X101269499Y-98018008D01*
X101269499Y-98044913D01*
X101249814Y-98111952D01*
X101212541Y-98149227D01*
X101201951Y-98156032D01*
X101201949Y-98156034D01*
X101117118Y-98253937D01*
X101117117Y-98253938D01*
X101063302Y-98371774D01*
X101044867Y-98499999D01*
X101063302Y-98628225D01*
X101117117Y-98746061D01*
X101117118Y-98746063D01*
X101201951Y-98843967D01*
X101310931Y-98914004D01*
X101435225Y-98950499D01*
X101435227Y-98950500D01*
X101435228Y-98950500D01*
X101564773Y-98950500D01*
X101564773Y-98950499D01*
X101689069Y-98914004D01*
X101798049Y-98843967D01*
X101882882Y-98746063D01*
X101936697Y-98628226D01*
X101955133Y-98500000D01*
X101943333Y-98417929D01*
X101953277Y-98348772D01*
X101999032Y-98295968D01*
X102066071Y-98276283D01*
X102100666Y-98281207D01*
X102155000Y-98296992D01*
X102155000Y-97374000D01*
X102174685Y-97306961D01*
X102227489Y-97261206D01*
X102279000Y-97250000D01*
X102531000Y-97250000D01*
X102598039Y-97269685D01*
X102643794Y-97322489D01*
X102655000Y-97374000D01*
X102655000Y-98296992D01*
X102700451Y-98331118D01*
X102742243Y-98387111D01*
X102750000Y-98430279D01*
X102750000Y-99875500D01*
X102730315Y-99942539D01*
X102677511Y-99988294D01*
X102626000Y-99999500D01*
X100553482Y-99999500D01*
X100546542Y-99999110D01*
X100528154Y-99997038D01*
X100523659Y-99996532D01*
X100432067Y-99984473D01*
X100407299Y-99978575D01*
X100369469Y-99965338D01*
X100366219Y-99964097D01*
X100304355Y-99938472D01*
X100285836Y-99928905D01*
X100247115Y-99904575D01*
X100242355Y-99901264D01*
X100188358Y-99859831D01*
X100182261Y-99854485D01*
X100145512Y-99817736D01*
X100140167Y-99811640D01*
X100098734Y-99757643D01*
X100095423Y-99752883D01*
X100071093Y-99714162D01*
X100061526Y-99695643D01*
X100035901Y-99633779D01*
X100034674Y-99630566D01*
X100021421Y-99592692D01*
X100015526Y-99567937D01*
X100003468Y-99476349D01*
X100000890Y-99453458D01*
X100000500Y-99446513D01*
X100000500Y-95749999D01*
X100801112Y-95749999D01*
X100801113Y-95750000D01*
X101305000Y-95750000D01*
X101305000Y-95209642D01*
X101176311Y-95247030D01*
X101176310Y-95247031D01*
X101039846Y-95327735D01*
X101039838Y-95327741D01*
X100927741Y-95439838D01*
X100927735Y-95439846D01*
X100847032Y-95576308D01*
X100847030Y-95576313D01*
X100802801Y-95728550D01*
X100802801Y-95728551D01*
X100801112Y-95749999D01*
X100000500Y-95749999D01*
X100000500Y-78000000D01*
X101045000Y-78000000D01*
X101045000Y-78239374D01*
X101059931Y-78371895D01*
X101059933Y-78371905D01*
X101118730Y-78539936D01*
X101118732Y-78539939D01*
X101213445Y-78690674D01*
X101339325Y-78816554D01*
X101483639Y-78907233D01*
X101529930Y-78959568D01*
X101540578Y-79028621D01*
X101512203Y-79092470D01*
X101505349Y-79099908D01*
X101445193Y-79160064D01*
X101445187Y-79160072D01*
X101366097Y-79293808D01*
X101366093Y-79293817D01*
X101322744Y-79443023D01*
X101322743Y-79443029D01*
X101320000Y-79477889D01*
X101320000Y-79770000D01*
X101820000Y-79770000D01*
X101820000Y-78991362D01*
X101839685Y-78924323D01*
X101856319Y-78903681D01*
X101875000Y-78885000D01*
X101875000Y-78000000D01*
X101045000Y-78000000D01*
X100000500Y-78000000D01*
X100000500Y-77500000D01*
X101045000Y-77500000D01*
X101875000Y-77500000D01*
X101875000Y-76515000D01*
X101790625Y-76515000D01*
X101658104Y-76529931D01*
X101658094Y-76529933D01*
X101490063Y-76588730D01*
X101490060Y-76588732D01*
X101339325Y-76683445D01*
X101213445Y-76809325D01*
X101118732Y-76960060D01*
X101118730Y-76960063D01*
X101059933Y-77128094D01*
X101059931Y-77128104D01*
X101045000Y-77260625D01*
X101045000Y-77500000D01*
X100000500Y-77500000D01*
X100000500Y-63049729D01*
X100020185Y-62982690D01*
X100072989Y-62936935D01*
X100142147Y-62926991D01*
X100178302Y-62938009D01*
X100204237Y-62950500D01*
X100204254Y-62950508D01*
X100204882Y-62950647D01*
X100205606Y-62950812D01*
X100205625Y-62950811D01*
X100205626Y-62950812D01*
X100250713Y-62950500D01*
X100295763Y-62950500D01*
X100305077Y-62946013D01*
X100330441Y-62937039D01*
X100751227Y-62837928D01*
X101012495Y-62776391D01*
X101018700Y-62775084D01*
X101032239Y-62772235D01*
X101032254Y-62772227D01*
X101034564Y-62771463D01*
X101036774Y-62770672D01*
X101036786Y-62770670D01*
X101054931Y-62761776D01*
X101378049Y-62612853D01*
X101383237Y-62610742D01*
X101393304Y-62607169D01*
X101397541Y-62604478D01*
X101404803Y-62600523D01*
X101409368Y-62598420D01*
X101417844Y-62591891D01*
X101422414Y-62588690D01*
X101714781Y-62403112D01*
X101719634Y-62400333D01*
X101729144Y-62395444D01*
X101732981Y-62392215D01*
X101739670Y-62387313D01*
X101743897Y-62384632D01*
X101751411Y-62377047D01*
X101755545Y-62373238D01*
X102020538Y-62150365D01*
X102025001Y-62146944D01*
X102027015Y-62145539D01*
X102033761Y-62140840D01*
X102037133Y-62137130D01*
X102043098Y-62131390D01*
X102046943Y-62128157D01*
X102053390Y-62119623D01*
X102056955Y-62115324D01*
X102289897Y-61859089D01*
X102293843Y-61855126D01*
X102301721Y-61847901D01*
X102304574Y-61843765D01*
X102309717Y-61837286D01*
X102313093Y-61833575D01*
X102318343Y-61824262D01*
X102321303Y-61819526D01*
X102332325Y-61803557D01*
X102386611Y-61759568D01*
X102434374Y-61750000D01*
X105225500Y-61750000D01*
X105292539Y-61769685D01*
G37*
%TD.AperFunction*%
%TD*%
%TA.AperFunction,Conductor*%
%TO.N,Net-(U2-S+)*%
G36*
X128086862Y-84015431D02*
G01*
X128149199Y-84070657D01*
X128178731Y-84148527D01*
X128180000Y-84169500D01*
X128180000Y-84287828D01*
X128186401Y-84347373D01*
X128186401Y-84347376D01*
X128236645Y-84482086D01*
X128236649Y-84482093D01*
X128322805Y-84597182D01*
X128322813Y-84597190D01*
X128430275Y-84677636D01*
X128448364Y-84699708D01*
X128449037Y-84699036D01*
X128500000Y-84749999D01*
X128500000Y-84750000D01*
X129576000Y-84750000D01*
X129656862Y-84769931D01*
X129719199Y-84825157D01*
X129748731Y-84903027D01*
X129750000Y-84924000D01*
X129750000Y-89076000D01*
X129730069Y-89156862D01*
X129674843Y-89219199D01*
X129596973Y-89248731D01*
X129576000Y-89250000D01*
X128219611Y-89250000D01*
X128138749Y-89230069D01*
X128076412Y-89174843D01*
X128046880Y-89096973D01*
X128053490Y-89024233D01*
X128058545Y-89008009D01*
X128064999Y-88936990D01*
X128065000Y-88936972D01*
X128065000Y-88500001D01*
X128064999Y-88500000D01*
X127079000Y-88500000D01*
X126998138Y-88480069D01*
X126935801Y-88424843D01*
X126906269Y-88346973D01*
X126905000Y-88326000D01*
X126905000Y-88174000D01*
X126924931Y-88093138D01*
X126980157Y-88030801D01*
X127058027Y-88001269D01*
X127079000Y-88000000D01*
X128064999Y-88000000D01*
X128065000Y-87999999D01*
X128065000Y-87563027D01*
X128064999Y-87563009D01*
X128058545Y-87491986D01*
X128007612Y-87328537D01*
X128007610Y-87328532D01*
X127919041Y-87182022D01*
X127797977Y-87060958D01*
X127651467Y-86972389D01*
X127651464Y-86972388D01*
X127524753Y-86932903D01*
X127453482Y-86889818D01*
X127410397Y-86818547D01*
X127405369Y-86735417D01*
X127439549Y-86659472D01*
X127453483Y-86643745D01*
X127536553Y-86560675D01*
X127631266Y-86409941D01*
X127631271Y-86409930D01*
X127690066Y-86241906D01*
X127704999Y-86109375D01*
X127705000Y-86109366D01*
X127705000Y-85870000D01*
X126750000Y-85870000D01*
X126750000Y-85370000D01*
X127704999Y-85370000D01*
X127705000Y-85369999D01*
X127705000Y-85130633D01*
X127704999Y-85130624D01*
X127690066Y-84998093D01*
X127631271Y-84830069D01*
X127631266Y-84830058D01*
X127536554Y-84679326D01*
X127410673Y-84553445D01*
X127259941Y-84458733D01*
X127259932Y-84458729D01*
X127119043Y-84409429D01*
X127049302Y-84363910D01*
X127008703Y-84291194D01*
X127006548Y-84207940D01*
X127043329Y-84133220D01*
X127059552Y-84117993D01*
X127059368Y-84117809D01*
X127068581Y-84108594D01*
X127068589Y-84108589D01*
X127099892Y-84066174D01*
X127163943Y-84012950D01*
X127239891Y-83995500D01*
X128006000Y-83995500D01*
X128086862Y-84015431D01*
G37*
%TD.AperFunction*%
%TD*%
%TA.AperFunction,Conductor*%
%TO.N,+24V*%
G36*
X133643939Y-84015185D02*
G01*
X133689694Y-84067989D01*
X133699638Y-84137147D01*
X133670613Y-84200703D01*
X133641997Y-84225038D01*
X133539149Y-84288475D01*
X133539145Y-84288478D01*
X133418478Y-84409145D01*
X133418475Y-84409149D01*
X133328895Y-84554379D01*
X133328890Y-84554390D01*
X133275214Y-84716375D01*
X133265000Y-84816345D01*
X133265000Y-84870000D01*
X134351000Y-84870000D01*
X134418039Y-84889685D01*
X134463794Y-84942489D01*
X134475000Y-84994000D01*
X134475000Y-86104999D01*
X134503640Y-86104999D01*
X134503656Y-86104998D01*
X134603624Y-86094786D01*
X134765609Y-86041109D01*
X134765618Y-86041105D01*
X134802331Y-86018461D01*
X134867427Y-86000000D01*
X135876000Y-86000000D01*
X135943039Y-86019685D01*
X135988794Y-86072489D01*
X136000000Y-86124000D01*
X136000000Y-86573375D01*
X135980315Y-86640414D01*
X135927511Y-86686169D01*
X135858353Y-86696113D01*
X135811210Y-86679103D01*
X135690371Y-86605053D01*
X135469922Y-86513741D01*
X135250000Y-86460941D01*
X135250000Y-87515702D01*
X135144592Y-87467565D01*
X135036334Y-87452000D01*
X134963666Y-87452000D01*
X134855408Y-87467565D01*
X134750000Y-87515702D01*
X134750000Y-86460941D01*
X134530077Y-86513741D01*
X134309625Y-86605054D01*
X134309622Y-86605056D01*
X134106164Y-86729735D01*
X134106159Y-86729739D01*
X133924711Y-86884711D01*
X133769739Y-87066159D01*
X133769735Y-87066164D01*
X133645056Y-87269622D01*
X133645054Y-87269625D01*
X133553739Y-87490080D01*
X133553739Y-87490081D01*
X133500942Y-87709999D01*
X133500942Y-87710000D01*
X134556804Y-87710000D01*
X134533155Y-87746799D01*
X134492000Y-87886961D01*
X134492000Y-88033039D01*
X134533155Y-88173201D01*
X134556804Y-88210000D01*
X133500942Y-88210000D01*
X133553739Y-88429918D01*
X133553739Y-88429919D01*
X133645054Y-88650374D01*
X133645056Y-88650377D01*
X133769735Y-88853835D01*
X133769739Y-88853840D01*
X133924714Y-89035292D01*
X133927741Y-89038319D01*
X133961226Y-89099642D01*
X133956242Y-89169334D01*
X133914370Y-89225267D01*
X133848906Y-89249684D01*
X133840060Y-89250000D01*
X130624000Y-89250000D01*
X130556961Y-89230315D01*
X130511206Y-89177511D01*
X130500000Y-89126000D01*
X130500000Y-85374000D01*
X130501175Y-85370000D01*
X133265001Y-85370000D01*
X133265001Y-85423656D01*
X133275213Y-85523624D01*
X133328890Y-85685609D01*
X133328895Y-85685620D01*
X133418475Y-85830850D01*
X133418478Y-85830854D01*
X133539145Y-85951521D01*
X133539149Y-85951524D01*
X133684379Y-86041104D01*
X133684390Y-86041109D01*
X133846375Y-86094785D01*
X133946351Y-86104999D01*
X133975000Y-86104998D01*
X133975000Y-85370000D01*
X133265001Y-85370000D01*
X130501175Y-85370000D01*
X130519685Y-85306961D01*
X130572489Y-85261206D01*
X130624000Y-85250000D01*
X132249999Y-85250000D01*
X132250000Y-85250000D01*
X132250000Y-84796285D01*
X132269683Y-84729250D01*
X132314577Y-84687454D01*
X132322095Y-84683349D01*
X132437187Y-84597190D01*
X132437190Y-84597187D01*
X132523350Y-84482093D01*
X132523354Y-84482086D01*
X132573596Y-84347379D01*
X132573598Y-84347372D01*
X132579999Y-84287844D01*
X132580000Y-84287827D01*
X132580000Y-84119500D01*
X132599685Y-84052461D01*
X132652489Y-84006706D01*
X132704000Y-83995500D01*
X133576900Y-83995500D01*
X133643939Y-84015185D01*
G37*
%TD.AperFunction*%
%TD*%
%TA.AperFunction,Conductor*%
%TO.N,GND*%
G36*
X107402167Y-97219707D02*
G01*
X107456538Y-97258285D01*
X109201472Y-99003220D01*
X109272474Y-99074222D01*
X109296780Y-99098528D01*
X109313031Y-99106808D01*
X109339658Y-99123125D01*
X109354420Y-99133850D01*
X109371774Y-99139488D01*
X109400610Y-99151432D01*
X109416874Y-99159719D01*
X109434890Y-99162572D01*
X109465254Y-99169861D01*
X109482607Y-99175500D01*
X109516512Y-99175500D01*
X111082676Y-99175500D01*
X111169019Y-99195207D01*
X111203819Y-99216623D01*
X111222373Y-99230860D01*
X111222377Y-99230862D01*
X111356288Y-99286329D01*
X111356290Y-99286330D01*
X111499997Y-99305250D01*
X111500000Y-99305250D01*
X111500003Y-99305250D01*
X111643709Y-99286330D01*
X111643711Y-99286329D01*
X111777625Y-99230861D01*
X111835123Y-99186741D01*
X111892620Y-99142622D01*
X111892622Y-99142620D01*
X111980860Y-99027626D01*
X111980859Y-99027626D01*
X111980861Y-99027625D01*
X112036330Y-98893709D01*
X112054311Y-98757132D01*
X112055250Y-98750003D01*
X112055250Y-98749996D01*
X112036330Y-98606290D01*
X112036329Y-98606288D01*
X111980862Y-98472377D01*
X111980861Y-98472376D01*
X111980861Y-98472375D01*
X111922365Y-98396142D01*
X111885438Y-98315647D01*
X111887094Y-98227099D01*
X111922365Y-98153858D01*
X111980861Y-98077625D01*
X112036330Y-97943709D01*
X112046328Y-97867766D01*
X112055250Y-97800003D01*
X112055250Y-97799996D01*
X112036330Y-97656290D01*
X112036329Y-97656288D01*
X111980863Y-97522378D01*
X111980861Y-97522375D01*
X111979146Y-97520140D01*
X111977503Y-97516560D01*
X111974341Y-97511082D01*
X111974854Y-97510785D01*
X111942221Y-97439644D01*
X111943878Y-97351096D01*
X111983790Y-97272036D01*
X112054053Y-97218123D01*
X112137026Y-97200000D01*
X113125500Y-97200000D01*
X113211843Y-97219707D01*
X113281084Y-97274926D01*
X113319511Y-97354718D01*
X113324500Y-97399000D01*
X113324500Y-101147315D01*
X113304793Y-101233658D01*
X113249574Y-101302899D01*
X113169782Y-101341326D01*
X113126671Y-101346312D01*
X109275671Y-101368966D01*
X109189213Y-101349767D01*
X109119648Y-101294957D01*
X109080753Y-101215391D01*
X109075500Y-101169969D01*
X109075500Y-100649333D01*
X109087650Y-100596097D01*
X109076352Y-100510273D01*
X109075500Y-100497272D01*
X109075500Y-100458136D01*
X109082152Y-100428990D01*
X109066329Y-100390790D01*
X109056172Y-100358926D01*
X109050403Y-100333649D01*
X109050401Y-100333646D01*
X109049558Y-100329950D01*
X109049558Y-100304144D01*
X109026175Y-100273671D01*
X109004759Y-100238870D01*
X109001467Y-100232033D01*
X109001465Y-100232031D01*
X108996616Y-100221960D01*
X108998391Y-100221104D01*
X108988312Y-100192301D01*
X108959846Y-100170458D01*
X108939912Y-100150891D01*
X108939048Y-100151756D01*
X108923244Y-100135952D01*
X108924106Y-100135089D01*
X108904539Y-100115152D01*
X108884418Y-100088930D01*
X108853684Y-100077034D01*
X108853036Y-100078382D01*
X108836129Y-100070240D01*
X108801328Y-100048824D01*
X108773843Y-100027734D01*
X108745050Y-100025441D01*
X108716085Y-100018830D01*
X108684213Y-100008671D01*
X108649731Y-99994388D01*
X108616863Y-99999500D01*
X108577735Y-99999500D01*
X108564734Y-99998648D01*
X108478826Y-99987338D01*
X108446096Y-99998449D01*
X108425666Y-99999500D01*
X104199000Y-99999500D01*
X104112657Y-99979793D01*
X104043416Y-99924574D01*
X104004989Y-99844782D01*
X104000000Y-99800500D01*
X104000000Y-98194499D01*
X104019707Y-98108156D01*
X104074926Y-98038915D01*
X104154718Y-98000488D01*
X104198992Y-97995499D01*
X105309864Y-97995499D01*
X105309867Y-97995499D01*
X105327230Y-97993485D01*
X105334991Y-97992585D01*
X105437765Y-97947206D01*
X105517206Y-97867765D01*
X105562585Y-97764991D01*
X105565500Y-97739865D01*
X105565499Y-97398998D01*
X105585206Y-97312658D01*
X105640424Y-97243416D01*
X105720217Y-97204989D01*
X105764499Y-97200000D01*
X107315824Y-97200000D01*
X107402167Y-97219707D01*
G37*
%TD.AperFunction*%
%TA.AperFunction,Conductor*%
G36*
X119811704Y-97219707D02*
G01*
X119880945Y-97274926D01*
X119919372Y-97354718D01*
X119919372Y-97443282D01*
X119880945Y-97523074D01*
X119866079Y-97539708D01*
X119542119Y-97863669D01*
X118602896Y-98802891D01*
X118527907Y-98850010D01*
X118488158Y-98859474D01*
X118456294Y-98863669D01*
X118456285Y-98863671D01*
X118322377Y-98919137D01*
X118322373Y-98919139D01*
X118207379Y-99007377D01*
X118207377Y-99007379D01*
X118119139Y-99122373D01*
X118119137Y-99122377D01*
X118063670Y-99256288D01*
X118063669Y-99256290D01*
X118044750Y-99399996D01*
X118044750Y-99400003D01*
X118063669Y-99543709D01*
X118063670Y-99543711D01*
X118119137Y-99677622D01*
X118119139Y-99677626D01*
X118207377Y-99792620D01*
X118207379Y-99792622D01*
X118322373Y-99880860D01*
X118322377Y-99880862D01*
X118456288Y-99936329D01*
X118456290Y-99936330D01*
X118599997Y-99955250D01*
X118600000Y-99955250D01*
X118600003Y-99955250D01*
X118743709Y-99936330D01*
X118743711Y-99936329D01*
X118755128Y-99931600D01*
X118877625Y-99880861D01*
X118992621Y-99792621D01*
X119001030Y-99781663D01*
X119080860Y-99677626D01*
X119080859Y-99677626D01*
X119080861Y-99677625D01*
X119113776Y-99598160D01*
X119136328Y-99543715D01*
X119136329Y-99543711D01*
X119136328Y-99543711D01*
X119136330Y-99543709D01*
X119138240Y-99529200D01*
X119169046Y-99446171D01*
X119194818Y-99414465D01*
X121350998Y-97258286D01*
X121425988Y-97211167D01*
X121491713Y-97200000D01*
X125349443Y-97200000D01*
X125435786Y-97219707D01*
X125470587Y-97241123D01*
X125522372Y-97280859D01*
X125522373Y-97280860D01*
X125522374Y-97280860D01*
X125522375Y-97280861D01*
X125537186Y-97286995D01*
X125609415Y-97338242D01*
X125652257Y-97415754D01*
X125658333Y-97496822D01*
X125654970Y-97522378D01*
X125644750Y-97600003D01*
X125663669Y-97743709D01*
X125663670Y-97743711D01*
X125719137Y-97877622D01*
X125719139Y-97877626D01*
X125807377Y-97992620D01*
X125807379Y-97992622D01*
X125922373Y-98080860D01*
X125922377Y-98080862D01*
X125936918Y-98086885D01*
X126056291Y-98136330D01*
X126079480Y-98139383D01*
X126162510Y-98170191D01*
X126194217Y-98195965D01*
X126266214Y-98267962D01*
X126313332Y-98342948D01*
X126324500Y-98408675D01*
X126324500Y-101070845D01*
X126304793Y-101157188D01*
X126249574Y-101226429D01*
X126169782Y-101264856D01*
X126126671Y-101269842D01*
X124375671Y-101280142D01*
X124289213Y-101260943D01*
X124219648Y-101206133D01*
X124180753Y-101126567D01*
X124175500Y-101081145D01*
X124175500Y-99482606D01*
X124169864Y-99465263D01*
X124162571Y-99434884D01*
X124159719Y-99416876D01*
X124159718Y-99416872D01*
X124151440Y-99400626D01*
X124139487Y-99371769D01*
X124138188Y-99367774D01*
X124133850Y-99354419D01*
X124123125Y-99339657D01*
X124106809Y-99313033D01*
X124098528Y-99296780D01*
X124003220Y-99201472D01*
X124003219Y-99201471D01*
X123195966Y-98394218D01*
X123148847Y-98319230D01*
X123139383Y-98279484D01*
X123136330Y-98256291D01*
X123136328Y-98256286D01*
X123080862Y-98122377D01*
X123080860Y-98122373D01*
X122992622Y-98007379D01*
X122992620Y-98007377D01*
X122877626Y-97919139D01*
X122877622Y-97919137D01*
X122743711Y-97863670D01*
X122743709Y-97863669D01*
X122600003Y-97844750D01*
X122599997Y-97844750D01*
X122456290Y-97863669D01*
X122456288Y-97863670D01*
X122322378Y-97919137D01*
X122322375Y-97919138D01*
X122322375Y-97919139D01*
X122291051Y-97943175D01*
X122236925Y-97984707D01*
X122156427Y-98021634D01*
X122067880Y-98019978D01*
X122016286Y-97999171D01*
X122015370Y-97998642D01*
X121881461Y-97943176D01*
X121881459Y-97943175D01*
X121737753Y-97924256D01*
X121737747Y-97924256D01*
X121594040Y-97943175D01*
X121594038Y-97943176D01*
X121460127Y-97998643D01*
X121460123Y-97998645D01*
X121345129Y-98086883D01*
X121345127Y-98086885D01*
X121256889Y-98201879D01*
X121256887Y-98201883D01*
X121201420Y-98335794D01*
X121201419Y-98335796D01*
X121182500Y-98479502D01*
X121182500Y-98479509D01*
X121201419Y-98623215D01*
X121201420Y-98623217D01*
X121256887Y-98757128D01*
X121256889Y-98757132D01*
X121345127Y-98872126D01*
X121345129Y-98872128D01*
X121460123Y-98960366D01*
X121460127Y-98960368D01*
X121594036Y-99015834D01*
X121594041Y-99015836D01*
X121607735Y-99017638D01*
X121690765Y-99048446D01*
X121722474Y-99074221D01*
X122766215Y-100117963D01*
X122813333Y-100192949D01*
X122824500Y-100258675D01*
X122824500Y-101091433D01*
X122804793Y-101177776D01*
X122749574Y-101247017D01*
X122669782Y-101285444D01*
X122626671Y-101290430D01*
X122425915Y-101291611D01*
X122339457Y-101272412D01*
X122269892Y-101217602D01*
X122230997Y-101138036D01*
X122227445Y-101118580D01*
X122226352Y-101110269D01*
X122225500Y-101097272D01*
X122225500Y-101015049D01*
X122227571Y-101015049D01*
X122228799Y-101003237D01*
X122211899Y-100962438D01*
X122202534Y-100933907D01*
X122190602Y-100885497D01*
X122187748Y-100877972D01*
X122184054Y-100851402D01*
X122158537Y-100818147D01*
X122140208Y-100789481D01*
X122122832Y-100756374D01*
X122122831Y-100756372D01*
X122122829Y-100756370D01*
X122115996Y-100746470D01*
X122118221Y-100744933D01*
X122102867Y-100716867D01*
X122071066Y-100692465D01*
X122043258Y-100666551D01*
X122026132Y-100647220D01*
X122026131Y-100647219D01*
X122026130Y-100647218D01*
X122024264Y-100645930D01*
X122022478Y-100643983D01*
X122017121Y-100639237D01*
X122017614Y-100638680D01*
X121988124Y-100606530D01*
X121955271Y-100592922D01*
X121918379Y-100572843D01*
X121906120Y-100564381D01*
X121906110Y-100564376D01*
X121896077Y-100560571D01*
X121849429Y-100529547D01*
X121818525Y-100525478D01*
X121773943Y-100514252D01*
X121769769Y-100512669D01*
X121769758Y-100512666D01*
X121750848Y-100510370D01*
X121696018Y-100490649D01*
X121669364Y-100494159D01*
X121637038Y-100494322D01*
X121637038Y-100495090D01*
X121612962Y-100495090D01*
X121612962Y-100494322D01*
X121580633Y-100494159D01*
X121553191Y-100490546D01*
X121506655Y-100509314D01*
X121499152Y-100510370D01*
X121480241Y-100512666D01*
X121480229Y-100512669D01*
X121476062Y-100514250D01*
X121431477Y-100525477D01*
X121399871Y-100529638D01*
X121362796Y-100556959D01*
X121353927Y-100560569D01*
X121343890Y-100564375D01*
X121343880Y-100564381D01*
X121331616Y-100572846D01*
X121294731Y-100592920D01*
X121261473Y-100606695D01*
X121235078Y-100639071D01*
X121225739Y-100645927D01*
X121223875Y-100647213D01*
X121223865Y-100647221D01*
X121206742Y-100666550D01*
X121178936Y-100692462D01*
X121147171Y-100716836D01*
X121133621Y-100746205D01*
X121134004Y-100746470D01*
X121132483Y-100748672D01*
X121131521Y-100750759D01*
X121128624Y-100754262D01*
X121127167Y-100756373D01*
X121109789Y-100789484D01*
X121091464Y-100818141D01*
X121066675Y-100850447D01*
X121062256Y-100877959D01*
X121059400Y-100885490D01*
X121047466Y-100933906D01*
X121038101Y-100962432D01*
X121021571Y-101002339D01*
X121022685Y-101015051D01*
X121024500Y-101015052D01*
X121024499Y-101097264D01*
X121023648Y-101110257D01*
X121021314Y-101127990D01*
X120990511Y-101211024D01*
X120926732Y-101272470D01*
X120842608Y-101300159D01*
X120825186Y-101301026D01*
X117375671Y-101321318D01*
X117289213Y-101302119D01*
X117219648Y-101247309D01*
X117180753Y-101167743D01*
X117175500Y-101122321D01*
X117175500Y-97399000D01*
X117195207Y-97312657D01*
X117250426Y-97243416D01*
X117330218Y-97204989D01*
X117374500Y-97200000D01*
X119725361Y-97200000D01*
X119811704Y-97219707D01*
G37*
%TD.AperFunction*%
%TA.AperFunction,Conductor*%
G36*
X137886843Y-84019707D02*
G01*
X137956084Y-84074926D01*
X137994511Y-84154718D01*
X137999500Y-84199000D01*
X137999500Y-99494406D01*
X137998874Y-99505558D01*
X137996530Y-99526354D01*
X137987075Y-99598160D01*
X137977613Y-99637903D01*
X137968573Y-99663737D01*
X137966582Y-99668955D01*
X137946956Y-99716335D01*
X137931600Y-99746059D01*
X137914027Y-99774027D01*
X137908715Y-99781663D01*
X137874507Y-99826244D01*
X137865916Y-99836040D01*
X137836040Y-99865916D01*
X137826244Y-99874507D01*
X137781663Y-99908715D01*
X137774027Y-99914027D01*
X137746059Y-99931600D01*
X137716335Y-99946956D01*
X137668955Y-99966582D01*
X137663737Y-99968573D01*
X137637903Y-99977613D01*
X137598160Y-99987075D01*
X137526354Y-99996530D01*
X137512753Y-99998062D01*
X137505553Y-99998874D01*
X137494406Y-99999500D01*
X129574333Y-99999500D01*
X129521094Y-99987348D01*
X129435265Y-99998648D01*
X129422264Y-99999500D01*
X129383136Y-99999500D01*
X129353989Y-99992847D01*
X129315783Y-100008673D01*
X129283906Y-100018832D01*
X129254942Y-100025442D01*
X129229143Y-100025441D01*
X129198668Y-100048826D01*
X129163872Y-100070239D01*
X129146968Y-100078380D01*
X129146113Y-100076606D01*
X129117300Y-100086686D01*
X129095456Y-100115155D01*
X129075897Y-100135093D01*
X129076756Y-100135952D01*
X129060952Y-100151756D01*
X129060093Y-100150897D01*
X129040155Y-100170456D01*
X129013931Y-100190578D01*
X129002033Y-100221319D01*
X129003380Y-100221968D01*
X128995239Y-100238872D01*
X128973826Y-100273668D01*
X128952734Y-100301155D01*
X128950442Y-100329942D01*
X128943832Y-100358906D01*
X128933673Y-100390783D01*
X128919388Y-100425269D01*
X128924500Y-100458135D01*
X128924500Y-100497262D01*
X128923648Y-100510264D01*
X128912334Y-100596202D01*
X128923448Y-100628939D01*
X128924500Y-100649376D01*
X128924500Y-101055550D01*
X128904793Y-101141893D01*
X128849574Y-101211134D01*
X128769782Y-101249561D01*
X128726671Y-101254547D01*
X128375671Y-101256612D01*
X128289213Y-101237413D01*
X128219648Y-101182603D01*
X128180753Y-101103037D01*
X128175500Y-101057615D01*
X128175500Y-97482606D01*
X128169863Y-97465259D01*
X128162572Y-97434889D01*
X128161818Y-97430128D01*
X128167776Y-97341765D01*
X128211484Y-97264739D01*
X128284284Y-97214304D01*
X128358368Y-97200000D01*
X131000000Y-97200000D01*
X131000000Y-96404499D01*
X131019707Y-96318156D01*
X131074926Y-96248915D01*
X131154718Y-96210488D01*
X131199000Y-96205499D01*
X131517065Y-96205499D01*
X131532366Y-96204064D01*
X131547669Y-96202630D01*
X131676564Y-96157528D01*
X131786438Y-96076438D01*
X131867528Y-95966564D01*
X131912630Y-95837669D01*
X131915500Y-95807065D01*
X131915499Y-95392936D01*
X131912630Y-95362331D01*
X131890820Y-95300000D01*
X131867529Y-95233438D01*
X131867527Y-95233435D01*
X131786438Y-95123561D01*
X131676564Y-95042472D01*
X131676562Y-95042470D01*
X131547670Y-94997370D01*
X131542568Y-94996891D01*
X131517065Y-94994500D01*
X131517060Y-94994500D01*
X131224500Y-94994500D01*
X131138157Y-94974793D01*
X131068916Y-94919574D01*
X131030489Y-94839782D01*
X131025500Y-94795500D01*
X131025500Y-92332606D01*
X131019863Y-92315259D01*
X131012571Y-92284885D01*
X131010690Y-92273009D01*
X131009719Y-92266874D01*
X131009718Y-92266873D01*
X131007269Y-92251402D01*
X131007278Y-92251400D01*
X131000000Y-92205444D01*
X131000000Y-89754500D01*
X131019707Y-89668157D01*
X131074926Y-89598916D01*
X131154718Y-89560489D01*
X131199000Y-89555500D01*
X133385000Y-89555500D01*
X133471343Y-89575207D01*
X133540584Y-89630426D01*
X133579011Y-89710218D01*
X133584000Y-89754500D01*
X133584000Y-90250000D01*
X134556804Y-90250000D01*
X134533155Y-90286799D01*
X134492000Y-90426961D01*
X134492000Y-90573039D01*
X134533155Y-90713201D01*
X134556804Y-90750000D01*
X133584001Y-90750000D01*
X133584001Y-91547476D01*
X133598835Y-91641149D01*
X133656358Y-91754045D01*
X133745954Y-91843641D01*
X133858849Y-91901164D01*
X133858851Y-91901165D01*
X133952518Y-91915999D01*
X134749999Y-91915999D01*
X134750000Y-91915998D01*
X134750000Y-90944297D01*
X134855408Y-90992435D01*
X134963666Y-91008000D01*
X135036334Y-91008000D01*
X135144592Y-90992435D01*
X135250000Y-90944297D01*
X135250000Y-91915999D01*
X136047477Y-91915999D01*
X136141149Y-91901164D01*
X136254045Y-91843641D01*
X136343641Y-91754045D01*
X136401164Y-91641150D01*
X136401165Y-91641148D01*
X136416000Y-91547480D01*
X136416000Y-90750000D01*
X135443196Y-90750000D01*
X135466845Y-90713201D01*
X135508000Y-90573039D01*
X135508000Y-90426961D01*
X135466845Y-90286799D01*
X135443196Y-90250000D01*
X136415999Y-90250000D01*
X136415999Y-89452523D01*
X136401164Y-89358850D01*
X136343641Y-89245954D01*
X136254045Y-89156358D01*
X136141147Y-89098834D01*
X136126925Y-89094213D01*
X136050898Y-89048789D01*
X136002108Y-88974877D01*
X135990220Y-88887115D01*
X136017588Y-88802886D01*
X136025383Y-88790848D01*
X136144478Y-88620765D01*
X136241831Y-88411990D01*
X136301452Y-88189481D01*
X136321529Y-87960000D01*
X136301452Y-87730519D01*
X136241831Y-87508010D01*
X136144478Y-87299236D01*
X136144476Y-87299232D01*
X136073535Y-87197918D01*
X136040154Y-87115886D01*
X136045671Y-87027495D01*
X136088993Y-86950251D01*
X136120663Y-86921998D01*
X136127559Y-86917056D01*
X136127571Y-86917050D01*
X136180375Y-86871295D01*
X136199067Y-86851471D01*
X136222551Y-86826565D01*
X136222553Y-86826562D01*
X136273439Y-86726486D01*
X136293124Y-86659447D01*
X136305500Y-86573375D01*
X136305500Y-86124000D01*
X136299501Y-86068208D01*
X136309865Y-85980259D01*
X136357365Y-85905511D01*
X136384447Y-85884615D01*
X136384304Y-85884430D01*
X136394201Y-85876752D01*
X136506753Y-85764200D01*
X136587781Y-85627192D01*
X136632188Y-85474335D01*
X136635000Y-85438619D01*
X136635000Y-85370000D01*
X135724000Y-85370000D01*
X135637657Y-85350293D01*
X135568416Y-85295074D01*
X135529989Y-85215282D01*
X135525000Y-85171000D01*
X135525000Y-85069000D01*
X135544707Y-84982657D01*
X135599926Y-84913416D01*
X135679718Y-84874989D01*
X135724000Y-84870000D01*
X136635000Y-84870000D01*
X136635000Y-84801381D01*
X136632188Y-84765664D01*
X136587781Y-84612807D01*
X136506753Y-84475799D01*
X136394204Y-84363250D01*
X136385168Y-84356241D01*
X136329023Y-84287749D01*
X136308155Y-84201679D01*
X136326698Y-84115079D01*
X136380979Y-84045100D01*
X136460248Y-84005603D01*
X136507137Y-84000000D01*
X137800500Y-84000000D01*
X137886843Y-84019707D01*
G37*
%TD.AperFunction*%
%TD*%
M02*
