%TF.GenerationSoftware,KiCad,Pcbnew,7.0.6*%
%TF.CreationDate,2023-08-17T07:33:22+09:30*%
%TF.ProjectId,spe-source,7370652d-736f-4757-9263-652e6b696361,V1.0*%
%TF.SameCoordinates,Original*%
%TF.FileFunction,OtherDrawing,Comment*%
%FSLAX46Y46*%
G04 Gerber Fmt 4.6, Leading zero omitted, Abs format (unit mm)*
G04 Created by KiCad (PCBNEW 7.0.6) date 2023-08-17 07:33:22*
%MOMM*%
%LPD*%
G01*
G04 APERTURE LIST*
%ADD10C,0.150000*%
%ADD11C,0.050000*%
%ADD12C,0.025000*%
%ADD13C,0.050800*%
G04 APERTURE END LIST*
D10*
X119000000Y-39000000D02*
X119000000Y-40650000D01*
X119000000Y-41250000D02*
X119000000Y-42900000D01*
X119000000Y-43500000D02*
X119000000Y-45150000D01*
X119000000Y-45750000D02*
X119000000Y-47400000D01*
X119000000Y-48000000D02*
X119000000Y-49650000D01*
X119000000Y-50250000D02*
X119000000Y-51900000D01*
X119000000Y-52500000D02*
X119000000Y-54150000D01*
X119000000Y-54750000D02*
X119000000Y-56400000D01*
X119000000Y-57000000D02*
X119000000Y-58650000D01*
X119000000Y-59250000D02*
X119000000Y-60900000D01*
X119000000Y-61500000D02*
X119000000Y-63150000D01*
X119000000Y-63750000D02*
X119000000Y-65400000D01*
X119000000Y-66000000D02*
X119000000Y-67650000D01*
X119000000Y-68250000D02*
X119000000Y-69900000D01*
X119000000Y-70500000D02*
X119000000Y-72150000D01*
X119000000Y-72750000D02*
X119000000Y-74400000D01*
X119000000Y-75000000D02*
X119000000Y-76650000D01*
X119000000Y-77250000D02*
X119000000Y-78900000D01*
X119000000Y-79500000D02*
X119000000Y-81150000D01*
X119000000Y-81750000D02*
X119000000Y-83400000D01*
X119000000Y-84000000D02*
X119000000Y-85650000D01*
X119000000Y-86250000D02*
X119000000Y-87900000D01*
X119000000Y-88500000D02*
X119000000Y-90150000D01*
X119000000Y-90750000D02*
X119000000Y-92400000D01*
X119000000Y-93000000D02*
X119000000Y-94650000D01*
X119000000Y-95250000D02*
X119000000Y-96900000D01*
X119000000Y-97500000D02*
X119000000Y-99150000D01*
X119000000Y-99750000D02*
X119000000Y-100000000D01*
X88613387Y-105666666D02*
X89280054Y-105666666D01*
X88232435Y-105904761D02*
X88946720Y-106142856D01*
X88946720Y-106142856D02*
X88946720Y-105523809D01*
X89184815Y-105142856D02*
X89232435Y-105095237D01*
X89232435Y-105095237D02*
X89280054Y-105142856D01*
X89280054Y-105142856D02*
X89232435Y-105190475D01*
X89232435Y-105190475D02*
X89184815Y-105142856D01*
X89184815Y-105142856D02*
X89280054Y-105142856D01*
X88280054Y-104476190D02*
X88280054Y-104380952D01*
X88280054Y-104380952D02*
X88327673Y-104285714D01*
X88327673Y-104285714D02*
X88375292Y-104238095D01*
X88375292Y-104238095D02*
X88470530Y-104190476D01*
X88470530Y-104190476D02*
X88661006Y-104142857D01*
X88661006Y-104142857D02*
X88899101Y-104142857D01*
X88899101Y-104142857D02*
X89089577Y-104190476D01*
X89089577Y-104190476D02*
X89184815Y-104238095D01*
X89184815Y-104238095D02*
X89232435Y-104285714D01*
X89232435Y-104285714D02*
X89280054Y-104380952D01*
X89280054Y-104380952D02*
X89280054Y-104476190D01*
X89280054Y-104476190D02*
X89232435Y-104571428D01*
X89232435Y-104571428D02*
X89184815Y-104619047D01*
X89184815Y-104619047D02*
X89089577Y-104666666D01*
X89089577Y-104666666D02*
X88899101Y-104714285D01*
X88899101Y-104714285D02*
X88661006Y-104714285D01*
X88661006Y-104714285D02*
X88470530Y-104666666D01*
X88470530Y-104666666D02*
X88375292Y-104619047D01*
X88375292Y-104619047D02*
X88327673Y-104571428D01*
X88327673Y-104571428D02*
X88280054Y-104476190D01*
X88280054Y-103523809D02*
X88280054Y-103428571D01*
X88280054Y-103428571D02*
X88327673Y-103333333D01*
X88327673Y-103333333D02*
X88375292Y-103285714D01*
X88375292Y-103285714D02*
X88470530Y-103238095D01*
X88470530Y-103238095D02*
X88661006Y-103190476D01*
X88661006Y-103190476D02*
X88899101Y-103190476D01*
X88899101Y-103190476D02*
X89089577Y-103238095D01*
X89089577Y-103238095D02*
X89184815Y-103285714D01*
X89184815Y-103285714D02*
X89232435Y-103333333D01*
X89232435Y-103333333D02*
X89280054Y-103428571D01*
X89280054Y-103428571D02*
X89280054Y-103523809D01*
X89280054Y-103523809D02*
X89232435Y-103619047D01*
X89232435Y-103619047D02*
X89184815Y-103666666D01*
X89184815Y-103666666D02*
X89089577Y-103714285D01*
X89089577Y-103714285D02*
X88899101Y-103761904D01*
X88899101Y-103761904D02*
X88661006Y-103761904D01*
X88661006Y-103761904D02*
X88470530Y-103714285D01*
X88470530Y-103714285D02*
X88375292Y-103666666D01*
X88375292Y-103666666D02*
X88327673Y-103619047D01*
X88327673Y-103619047D02*
X88280054Y-103523809D01*
X88280054Y-102571428D02*
X88280054Y-102476190D01*
X88280054Y-102476190D02*
X88327673Y-102380952D01*
X88327673Y-102380952D02*
X88375292Y-102333333D01*
X88375292Y-102333333D02*
X88470530Y-102285714D01*
X88470530Y-102285714D02*
X88661006Y-102238095D01*
X88661006Y-102238095D02*
X88899101Y-102238095D01*
X88899101Y-102238095D02*
X89089577Y-102285714D01*
X89089577Y-102285714D02*
X89184815Y-102333333D01*
X89184815Y-102333333D02*
X89232435Y-102380952D01*
X89232435Y-102380952D02*
X89280054Y-102476190D01*
X89280054Y-102476190D02*
X89280054Y-102571428D01*
X89280054Y-102571428D02*
X89232435Y-102666666D01*
X89232435Y-102666666D02*
X89184815Y-102714285D01*
X89184815Y-102714285D02*
X89089577Y-102761904D01*
X89089577Y-102761904D02*
X88899101Y-102809523D01*
X88899101Y-102809523D02*
X88661006Y-102809523D01*
X88661006Y-102809523D02*
X88470530Y-102761904D01*
X88470530Y-102761904D02*
X88375292Y-102714285D01*
X88375292Y-102714285D02*
X88327673Y-102666666D01*
X88327673Y-102666666D02*
X88280054Y-102571428D01*
X88280054Y-101619047D02*
X88280054Y-101523809D01*
X88280054Y-101523809D02*
X88327673Y-101428571D01*
X88327673Y-101428571D02*
X88375292Y-101380952D01*
X88375292Y-101380952D02*
X88470530Y-101333333D01*
X88470530Y-101333333D02*
X88661006Y-101285714D01*
X88661006Y-101285714D02*
X88899101Y-101285714D01*
X88899101Y-101285714D02*
X89089577Y-101333333D01*
X89089577Y-101333333D02*
X89184815Y-101380952D01*
X89184815Y-101380952D02*
X89232435Y-101428571D01*
X89232435Y-101428571D02*
X89280054Y-101523809D01*
X89280054Y-101523809D02*
X89280054Y-101619047D01*
X89280054Y-101619047D02*
X89232435Y-101714285D01*
X89232435Y-101714285D02*
X89184815Y-101761904D01*
X89184815Y-101761904D02*
X89089577Y-101809523D01*
X89089577Y-101809523D02*
X88899101Y-101857142D01*
X88899101Y-101857142D02*
X88661006Y-101857142D01*
X88661006Y-101857142D02*
X88470530Y-101809523D01*
X88470530Y-101809523D02*
X88375292Y-101761904D01*
X88375292Y-101761904D02*
X88327673Y-101714285D01*
X88327673Y-101714285D02*
X88280054Y-101619047D01*
X89280054Y-100095237D02*
X88613387Y-100095237D01*
X88708625Y-100095237D02*
X88661006Y-100047618D01*
X88661006Y-100047618D02*
X88613387Y-99952380D01*
X88613387Y-99952380D02*
X88613387Y-99809523D01*
X88613387Y-99809523D02*
X88661006Y-99714285D01*
X88661006Y-99714285D02*
X88756244Y-99666666D01*
X88756244Y-99666666D02*
X89280054Y-99666666D01*
X88756244Y-99666666D02*
X88661006Y-99619047D01*
X88661006Y-99619047D02*
X88613387Y-99523809D01*
X88613387Y-99523809D02*
X88613387Y-99380952D01*
X88613387Y-99380952D02*
X88661006Y-99285713D01*
X88661006Y-99285713D02*
X88756244Y-99238094D01*
X88756244Y-99238094D02*
X89280054Y-99238094D01*
X89280054Y-98761904D02*
X88613387Y-98761904D01*
X88708625Y-98761904D02*
X88661006Y-98714285D01*
X88661006Y-98714285D02*
X88613387Y-98619047D01*
X88613387Y-98619047D02*
X88613387Y-98476190D01*
X88613387Y-98476190D02*
X88661006Y-98380952D01*
X88661006Y-98380952D02*
X88756244Y-98333333D01*
X88756244Y-98333333D02*
X89280054Y-98333333D01*
X88756244Y-98333333D02*
X88661006Y-98285714D01*
X88661006Y-98285714D02*
X88613387Y-98190476D01*
X88613387Y-98190476D02*
X88613387Y-98047619D01*
X88613387Y-98047619D02*
X88661006Y-97952380D01*
X88661006Y-97952380D02*
X88756244Y-97904761D01*
X88756244Y-97904761D02*
X89280054Y-97904761D01*
X108575000Y-104000000D02*
X89388815Y-104000000D01*
X108575000Y-100000000D02*
X89388815Y-100000000D01*
X89975235Y-104000000D02*
X89975235Y-100000000D01*
X89975235Y-104000000D02*
X89975235Y-100000000D01*
X89975235Y-104000000D02*
X89388814Y-102873496D01*
X89975235Y-104000000D02*
X90561656Y-102873496D01*
X89975235Y-100000000D02*
X90561656Y-101126504D01*
X89975235Y-100000000D02*
X89388814Y-101126504D01*
X88304819Y-73642856D02*
X88304819Y-73833332D01*
X88304819Y-73833332D02*
X88352438Y-73928570D01*
X88352438Y-73928570D02*
X88400057Y-73976189D01*
X88400057Y-73976189D02*
X88542914Y-74071427D01*
X88542914Y-74071427D02*
X88733390Y-74119046D01*
X88733390Y-74119046D02*
X89114342Y-74119046D01*
X89114342Y-74119046D02*
X89209580Y-74071427D01*
X89209580Y-74071427D02*
X89257200Y-74023808D01*
X89257200Y-74023808D02*
X89304819Y-73928570D01*
X89304819Y-73928570D02*
X89304819Y-73738094D01*
X89304819Y-73738094D02*
X89257200Y-73642856D01*
X89257200Y-73642856D02*
X89209580Y-73595237D01*
X89209580Y-73595237D02*
X89114342Y-73547618D01*
X89114342Y-73547618D02*
X88876247Y-73547618D01*
X88876247Y-73547618D02*
X88781009Y-73595237D01*
X88781009Y-73595237D02*
X88733390Y-73642856D01*
X88733390Y-73642856D02*
X88685771Y-73738094D01*
X88685771Y-73738094D02*
X88685771Y-73928570D01*
X88685771Y-73928570D02*
X88733390Y-74023808D01*
X88733390Y-74023808D02*
X88781009Y-74071427D01*
X88781009Y-74071427D02*
X88876247Y-74119046D01*
X89304819Y-72595237D02*
X89304819Y-73166665D01*
X89304819Y-72880951D02*
X88304819Y-72880951D01*
X88304819Y-72880951D02*
X88447676Y-72976189D01*
X88447676Y-72976189D02*
X88542914Y-73071427D01*
X88542914Y-73071427D02*
X88590533Y-73166665D01*
X89209580Y-72166665D02*
X89257200Y-72119046D01*
X89257200Y-72119046D02*
X89304819Y-72166665D01*
X89304819Y-72166665D02*
X89257200Y-72214284D01*
X89257200Y-72214284D02*
X89209580Y-72166665D01*
X89209580Y-72166665D02*
X89304819Y-72166665D01*
X88304819Y-71499999D02*
X88304819Y-71404761D01*
X88304819Y-71404761D02*
X88352438Y-71309523D01*
X88352438Y-71309523D02*
X88400057Y-71261904D01*
X88400057Y-71261904D02*
X88495295Y-71214285D01*
X88495295Y-71214285D02*
X88685771Y-71166666D01*
X88685771Y-71166666D02*
X88923866Y-71166666D01*
X88923866Y-71166666D02*
X89114342Y-71214285D01*
X89114342Y-71214285D02*
X89209580Y-71261904D01*
X89209580Y-71261904D02*
X89257200Y-71309523D01*
X89257200Y-71309523D02*
X89304819Y-71404761D01*
X89304819Y-71404761D02*
X89304819Y-71499999D01*
X89304819Y-71499999D02*
X89257200Y-71595237D01*
X89257200Y-71595237D02*
X89209580Y-71642856D01*
X89209580Y-71642856D02*
X89114342Y-71690475D01*
X89114342Y-71690475D02*
X88923866Y-71738094D01*
X88923866Y-71738094D02*
X88685771Y-71738094D01*
X88685771Y-71738094D02*
X88495295Y-71690475D01*
X88495295Y-71690475D02*
X88400057Y-71642856D01*
X88400057Y-71642856D02*
X88352438Y-71595237D01*
X88352438Y-71595237D02*
X88304819Y-71499999D01*
X88304819Y-70547618D02*
X88304819Y-70452380D01*
X88304819Y-70452380D02*
X88352438Y-70357142D01*
X88352438Y-70357142D02*
X88400057Y-70309523D01*
X88400057Y-70309523D02*
X88495295Y-70261904D01*
X88495295Y-70261904D02*
X88685771Y-70214285D01*
X88685771Y-70214285D02*
X88923866Y-70214285D01*
X88923866Y-70214285D02*
X89114342Y-70261904D01*
X89114342Y-70261904D02*
X89209580Y-70309523D01*
X89209580Y-70309523D02*
X89257200Y-70357142D01*
X89257200Y-70357142D02*
X89304819Y-70452380D01*
X89304819Y-70452380D02*
X89304819Y-70547618D01*
X89304819Y-70547618D02*
X89257200Y-70642856D01*
X89257200Y-70642856D02*
X89209580Y-70690475D01*
X89209580Y-70690475D02*
X89114342Y-70738094D01*
X89114342Y-70738094D02*
X88923866Y-70785713D01*
X88923866Y-70785713D02*
X88685771Y-70785713D01*
X88685771Y-70785713D02*
X88495295Y-70738094D01*
X88495295Y-70738094D02*
X88400057Y-70690475D01*
X88400057Y-70690475D02*
X88352438Y-70642856D01*
X88352438Y-70642856D02*
X88304819Y-70547618D01*
X88304819Y-69595237D02*
X88304819Y-69499999D01*
X88304819Y-69499999D02*
X88352438Y-69404761D01*
X88352438Y-69404761D02*
X88400057Y-69357142D01*
X88400057Y-69357142D02*
X88495295Y-69309523D01*
X88495295Y-69309523D02*
X88685771Y-69261904D01*
X88685771Y-69261904D02*
X88923866Y-69261904D01*
X88923866Y-69261904D02*
X89114342Y-69309523D01*
X89114342Y-69309523D02*
X89209580Y-69357142D01*
X89209580Y-69357142D02*
X89257200Y-69404761D01*
X89257200Y-69404761D02*
X89304819Y-69499999D01*
X89304819Y-69499999D02*
X89304819Y-69595237D01*
X89304819Y-69595237D02*
X89257200Y-69690475D01*
X89257200Y-69690475D02*
X89209580Y-69738094D01*
X89209580Y-69738094D02*
X89114342Y-69785713D01*
X89114342Y-69785713D02*
X88923866Y-69833332D01*
X88923866Y-69833332D02*
X88685771Y-69833332D01*
X88685771Y-69833332D02*
X88495295Y-69785713D01*
X88495295Y-69785713D02*
X88400057Y-69738094D01*
X88400057Y-69738094D02*
X88352438Y-69690475D01*
X88352438Y-69690475D02*
X88304819Y-69595237D01*
X88304819Y-68642856D02*
X88304819Y-68547618D01*
X88304819Y-68547618D02*
X88352438Y-68452380D01*
X88352438Y-68452380D02*
X88400057Y-68404761D01*
X88400057Y-68404761D02*
X88495295Y-68357142D01*
X88495295Y-68357142D02*
X88685771Y-68309523D01*
X88685771Y-68309523D02*
X88923866Y-68309523D01*
X88923866Y-68309523D02*
X89114342Y-68357142D01*
X89114342Y-68357142D02*
X89209580Y-68404761D01*
X89209580Y-68404761D02*
X89257200Y-68452380D01*
X89257200Y-68452380D02*
X89304819Y-68547618D01*
X89304819Y-68547618D02*
X89304819Y-68642856D01*
X89304819Y-68642856D02*
X89257200Y-68738094D01*
X89257200Y-68738094D02*
X89209580Y-68785713D01*
X89209580Y-68785713D02*
X89114342Y-68833332D01*
X89114342Y-68833332D02*
X88923866Y-68880951D01*
X88923866Y-68880951D02*
X88685771Y-68880951D01*
X88685771Y-68880951D02*
X88495295Y-68833332D01*
X88495295Y-68833332D02*
X88400057Y-68785713D01*
X88400057Y-68785713D02*
X88352438Y-68738094D01*
X88352438Y-68738094D02*
X88304819Y-68642856D01*
X89304819Y-67119046D02*
X88638152Y-67119046D01*
X88733390Y-67119046D02*
X88685771Y-67071427D01*
X88685771Y-67071427D02*
X88638152Y-66976189D01*
X88638152Y-66976189D02*
X88638152Y-66833332D01*
X88638152Y-66833332D02*
X88685771Y-66738094D01*
X88685771Y-66738094D02*
X88781009Y-66690475D01*
X88781009Y-66690475D02*
X89304819Y-66690475D01*
X88781009Y-66690475D02*
X88685771Y-66642856D01*
X88685771Y-66642856D02*
X88638152Y-66547618D01*
X88638152Y-66547618D02*
X88638152Y-66404761D01*
X88638152Y-66404761D02*
X88685771Y-66309522D01*
X88685771Y-66309522D02*
X88781009Y-66261903D01*
X88781009Y-66261903D02*
X89304819Y-66261903D01*
X89304819Y-65785713D02*
X88638152Y-65785713D01*
X88733390Y-65785713D02*
X88685771Y-65738094D01*
X88685771Y-65738094D02*
X88638152Y-65642856D01*
X88638152Y-65642856D02*
X88638152Y-65499999D01*
X88638152Y-65499999D02*
X88685771Y-65404761D01*
X88685771Y-65404761D02*
X88781009Y-65357142D01*
X88781009Y-65357142D02*
X89304819Y-65357142D01*
X88781009Y-65357142D02*
X88685771Y-65309523D01*
X88685771Y-65309523D02*
X88638152Y-65214285D01*
X88638152Y-65214285D02*
X88638152Y-65071428D01*
X88638152Y-65071428D02*
X88685771Y-64976189D01*
X88685771Y-64976189D02*
X88781009Y-64928570D01*
X88781009Y-64928570D02*
X89304819Y-64928570D01*
X99500000Y-39000000D02*
X89413580Y-39000000D01*
X99500000Y-100000000D02*
X89413580Y-100000000D01*
X90000000Y-39000000D02*
X90000000Y-100000000D01*
X90000000Y-39000000D02*
X90000000Y-100000000D01*
X90000000Y-39000000D02*
X90586421Y-40126504D01*
X90000000Y-39000000D02*
X89413579Y-40126504D01*
X90000000Y-100000000D02*
X89413579Y-98873496D01*
X90000000Y-100000000D02*
X90586421Y-98873496D01*
X114333334Y-27304819D02*
X114952381Y-27304819D01*
X114952381Y-27304819D02*
X114619048Y-27685771D01*
X114619048Y-27685771D02*
X114761905Y-27685771D01*
X114761905Y-27685771D02*
X114857143Y-27733390D01*
X114857143Y-27733390D02*
X114904762Y-27781009D01*
X114904762Y-27781009D02*
X114952381Y-27876247D01*
X114952381Y-27876247D02*
X114952381Y-28114342D01*
X114952381Y-28114342D02*
X114904762Y-28209580D01*
X114904762Y-28209580D02*
X114857143Y-28257200D01*
X114857143Y-28257200D02*
X114761905Y-28304819D01*
X114761905Y-28304819D02*
X114476191Y-28304819D01*
X114476191Y-28304819D02*
X114380953Y-28257200D01*
X114380953Y-28257200D02*
X114333334Y-28209580D01*
X115523810Y-27733390D02*
X115428572Y-27685771D01*
X115428572Y-27685771D02*
X115380953Y-27638152D01*
X115380953Y-27638152D02*
X115333334Y-27542914D01*
X115333334Y-27542914D02*
X115333334Y-27495295D01*
X115333334Y-27495295D02*
X115380953Y-27400057D01*
X115380953Y-27400057D02*
X115428572Y-27352438D01*
X115428572Y-27352438D02*
X115523810Y-27304819D01*
X115523810Y-27304819D02*
X115714286Y-27304819D01*
X115714286Y-27304819D02*
X115809524Y-27352438D01*
X115809524Y-27352438D02*
X115857143Y-27400057D01*
X115857143Y-27400057D02*
X115904762Y-27495295D01*
X115904762Y-27495295D02*
X115904762Y-27542914D01*
X115904762Y-27542914D02*
X115857143Y-27638152D01*
X115857143Y-27638152D02*
X115809524Y-27685771D01*
X115809524Y-27685771D02*
X115714286Y-27733390D01*
X115714286Y-27733390D02*
X115523810Y-27733390D01*
X115523810Y-27733390D02*
X115428572Y-27781009D01*
X115428572Y-27781009D02*
X115380953Y-27828628D01*
X115380953Y-27828628D02*
X115333334Y-27923866D01*
X115333334Y-27923866D02*
X115333334Y-28114342D01*
X115333334Y-28114342D02*
X115380953Y-28209580D01*
X115380953Y-28209580D02*
X115428572Y-28257200D01*
X115428572Y-28257200D02*
X115523810Y-28304819D01*
X115523810Y-28304819D02*
X115714286Y-28304819D01*
X115714286Y-28304819D02*
X115809524Y-28257200D01*
X115809524Y-28257200D02*
X115857143Y-28209580D01*
X115857143Y-28209580D02*
X115904762Y-28114342D01*
X115904762Y-28114342D02*
X115904762Y-27923866D01*
X115904762Y-27923866D02*
X115857143Y-27828628D01*
X115857143Y-27828628D02*
X115809524Y-27781009D01*
X115809524Y-27781009D02*
X115714286Y-27733390D01*
X116333334Y-28209580D02*
X116380953Y-28257200D01*
X116380953Y-28257200D02*
X116333334Y-28304819D01*
X116333334Y-28304819D02*
X116285715Y-28257200D01*
X116285715Y-28257200D02*
X116333334Y-28209580D01*
X116333334Y-28209580D02*
X116333334Y-28304819D01*
X117000000Y-27304819D02*
X117095238Y-27304819D01*
X117095238Y-27304819D02*
X117190476Y-27352438D01*
X117190476Y-27352438D02*
X117238095Y-27400057D01*
X117238095Y-27400057D02*
X117285714Y-27495295D01*
X117285714Y-27495295D02*
X117333333Y-27685771D01*
X117333333Y-27685771D02*
X117333333Y-27923866D01*
X117333333Y-27923866D02*
X117285714Y-28114342D01*
X117285714Y-28114342D02*
X117238095Y-28209580D01*
X117238095Y-28209580D02*
X117190476Y-28257200D01*
X117190476Y-28257200D02*
X117095238Y-28304819D01*
X117095238Y-28304819D02*
X117000000Y-28304819D01*
X117000000Y-28304819D02*
X116904762Y-28257200D01*
X116904762Y-28257200D02*
X116857143Y-28209580D01*
X116857143Y-28209580D02*
X116809524Y-28114342D01*
X116809524Y-28114342D02*
X116761905Y-27923866D01*
X116761905Y-27923866D02*
X116761905Y-27685771D01*
X116761905Y-27685771D02*
X116809524Y-27495295D01*
X116809524Y-27495295D02*
X116857143Y-27400057D01*
X116857143Y-27400057D02*
X116904762Y-27352438D01*
X116904762Y-27352438D02*
X117000000Y-27304819D01*
X117952381Y-27304819D02*
X118047619Y-27304819D01*
X118047619Y-27304819D02*
X118142857Y-27352438D01*
X118142857Y-27352438D02*
X118190476Y-27400057D01*
X118190476Y-27400057D02*
X118238095Y-27495295D01*
X118238095Y-27495295D02*
X118285714Y-27685771D01*
X118285714Y-27685771D02*
X118285714Y-27923866D01*
X118285714Y-27923866D02*
X118238095Y-28114342D01*
X118238095Y-28114342D02*
X118190476Y-28209580D01*
X118190476Y-28209580D02*
X118142857Y-28257200D01*
X118142857Y-28257200D02*
X118047619Y-28304819D01*
X118047619Y-28304819D02*
X117952381Y-28304819D01*
X117952381Y-28304819D02*
X117857143Y-28257200D01*
X117857143Y-28257200D02*
X117809524Y-28209580D01*
X117809524Y-28209580D02*
X117761905Y-28114342D01*
X117761905Y-28114342D02*
X117714286Y-27923866D01*
X117714286Y-27923866D02*
X117714286Y-27685771D01*
X117714286Y-27685771D02*
X117761905Y-27495295D01*
X117761905Y-27495295D02*
X117809524Y-27400057D01*
X117809524Y-27400057D02*
X117857143Y-27352438D01*
X117857143Y-27352438D02*
X117952381Y-27304819D01*
X118904762Y-27304819D02*
X119000000Y-27304819D01*
X119000000Y-27304819D02*
X119095238Y-27352438D01*
X119095238Y-27352438D02*
X119142857Y-27400057D01*
X119142857Y-27400057D02*
X119190476Y-27495295D01*
X119190476Y-27495295D02*
X119238095Y-27685771D01*
X119238095Y-27685771D02*
X119238095Y-27923866D01*
X119238095Y-27923866D02*
X119190476Y-28114342D01*
X119190476Y-28114342D02*
X119142857Y-28209580D01*
X119142857Y-28209580D02*
X119095238Y-28257200D01*
X119095238Y-28257200D02*
X119000000Y-28304819D01*
X119000000Y-28304819D02*
X118904762Y-28304819D01*
X118904762Y-28304819D02*
X118809524Y-28257200D01*
X118809524Y-28257200D02*
X118761905Y-28209580D01*
X118761905Y-28209580D02*
X118714286Y-28114342D01*
X118714286Y-28114342D02*
X118666667Y-27923866D01*
X118666667Y-27923866D02*
X118666667Y-27685771D01*
X118666667Y-27685771D02*
X118714286Y-27495295D01*
X118714286Y-27495295D02*
X118761905Y-27400057D01*
X118761905Y-27400057D02*
X118809524Y-27352438D01*
X118809524Y-27352438D02*
X118904762Y-27304819D01*
X119857143Y-27304819D02*
X119952381Y-27304819D01*
X119952381Y-27304819D02*
X120047619Y-27352438D01*
X120047619Y-27352438D02*
X120095238Y-27400057D01*
X120095238Y-27400057D02*
X120142857Y-27495295D01*
X120142857Y-27495295D02*
X120190476Y-27685771D01*
X120190476Y-27685771D02*
X120190476Y-27923866D01*
X120190476Y-27923866D02*
X120142857Y-28114342D01*
X120142857Y-28114342D02*
X120095238Y-28209580D01*
X120095238Y-28209580D02*
X120047619Y-28257200D01*
X120047619Y-28257200D02*
X119952381Y-28304819D01*
X119952381Y-28304819D02*
X119857143Y-28304819D01*
X119857143Y-28304819D02*
X119761905Y-28257200D01*
X119761905Y-28257200D02*
X119714286Y-28209580D01*
X119714286Y-28209580D02*
X119666667Y-28114342D01*
X119666667Y-28114342D02*
X119619048Y-27923866D01*
X119619048Y-27923866D02*
X119619048Y-27685771D01*
X119619048Y-27685771D02*
X119666667Y-27495295D01*
X119666667Y-27495295D02*
X119714286Y-27400057D01*
X119714286Y-27400057D02*
X119761905Y-27352438D01*
X119761905Y-27352438D02*
X119857143Y-27304819D01*
X121380953Y-28304819D02*
X121380953Y-27638152D01*
X121380953Y-27733390D02*
X121428572Y-27685771D01*
X121428572Y-27685771D02*
X121523810Y-27638152D01*
X121523810Y-27638152D02*
X121666667Y-27638152D01*
X121666667Y-27638152D02*
X121761905Y-27685771D01*
X121761905Y-27685771D02*
X121809524Y-27781009D01*
X121809524Y-27781009D02*
X121809524Y-28304819D01*
X121809524Y-27781009D02*
X121857143Y-27685771D01*
X121857143Y-27685771D02*
X121952381Y-27638152D01*
X121952381Y-27638152D02*
X122095238Y-27638152D01*
X122095238Y-27638152D02*
X122190477Y-27685771D01*
X122190477Y-27685771D02*
X122238096Y-27781009D01*
X122238096Y-27781009D02*
X122238096Y-28304819D01*
X122714286Y-28304819D02*
X122714286Y-27638152D01*
X122714286Y-27733390D02*
X122761905Y-27685771D01*
X122761905Y-27685771D02*
X122857143Y-27638152D01*
X122857143Y-27638152D02*
X123000000Y-27638152D01*
X123000000Y-27638152D02*
X123095238Y-27685771D01*
X123095238Y-27685771D02*
X123142857Y-27781009D01*
X123142857Y-27781009D02*
X123142857Y-28304819D01*
X123142857Y-27781009D02*
X123190476Y-27685771D01*
X123190476Y-27685771D02*
X123285714Y-27638152D01*
X123285714Y-27638152D02*
X123428571Y-27638152D01*
X123428571Y-27638152D02*
X123523810Y-27685771D01*
X123523810Y-27685771D02*
X123571429Y-27781009D01*
X123571429Y-27781009D02*
X123571429Y-28304819D01*
X100000000Y-38500000D02*
X100000000Y-28413580D01*
X138000000Y-38500000D02*
X138000000Y-28413580D01*
X100000000Y-29000000D02*
X138000000Y-29000000D01*
X100000000Y-29000000D02*
X138000000Y-29000000D01*
X100000000Y-29000000D02*
X101126504Y-28413579D01*
X100000000Y-29000000D02*
X101126504Y-29586421D01*
X138000000Y-29000000D02*
X136873496Y-29586421D01*
X138000000Y-29000000D02*
X136873496Y-28413579D01*
D11*
%TO.C,R30*%
X114000000Y-87020000D02*
X114000000Y-86480000D01*
X113730000Y-86750000D02*
X114270000Y-86750000D01*
X114202500Y-86750000D02*
G75*
G03*
X114202500Y-86750000I-202500J0D01*
G01*
%TO.C,R33*%
X116202500Y-82250000D02*
G75*
G03*
X116202500Y-82250000I-202500J0D01*
G01*
X116270000Y-82250000D02*
X115730000Y-82250000D01*
X116000000Y-81980000D02*
X116000000Y-82520000D01*
%TO.C,R31*%
X114202500Y-82250000D02*
G75*
G03*
X114202500Y-82250000I-202500J0D01*
G01*
X113730000Y-82250000D02*
X114270000Y-82250000D01*
X114000000Y-82520000D02*
X114000000Y-81980000D01*
%TO.C,R27*%
X118202500Y-82250000D02*
G75*
G03*
X118202500Y-82250000I-202500J0D01*
G01*
X118270000Y-82250000D02*
X117730000Y-82250000D01*
X118000000Y-81980000D02*
X118000000Y-82520000D01*
%TO.C,R6*%
X116202500Y-86750000D02*
G75*
G03*
X116202500Y-86750000I-202500J0D01*
G01*
X115730000Y-86750000D02*
X116270000Y-86750000D01*
X116000000Y-87020000D02*
X116000000Y-86480000D01*
%TO.C,C3*%
X121250000Y-93480000D02*
X121250000Y-94020000D01*
X121520000Y-93750000D02*
X120980000Y-93750000D01*
X121452500Y-93750000D02*
G75*
G03*
X121452500Y-93750000I-202500J0D01*
G01*
%TO.C,C2*%
X121452500Y-86250000D02*
G75*
G03*
X121452500Y-86250000I-202500J0D01*
G01*
X121520000Y-86250000D02*
X120980000Y-86250000D01*
X121250000Y-85980000D02*
X121250000Y-86520000D01*
%TO.C,C1*%
X118202500Y-86750000D02*
G75*
G03*
X118202500Y-86750000I-202500J0D01*
G01*
X118270000Y-86750000D02*
X117730000Y-86750000D01*
X118000000Y-86480000D02*
X118000000Y-87020000D01*
%TO.C,R26*%
X121600000Y-57500000D02*
X120900000Y-57500000D01*
X121250000Y-57850000D02*
X121250000Y-57150000D01*
X121500000Y-57500000D02*
G75*
G03*
X121500000Y-57500000I-250000J0D01*
G01*
%TO.C,R21*%
X105350000Y-50000000D02*
X104650000Y-50000000D01*
X105000000Y-50350000D02*
X105000000Y-49650000D01*
X105250000Y-50000000D02*
G75*
G03*
X105250000Y-50000000I-250000J0D01*
G01*
%TO.C,R16*%
X107850000Y-50000000D02*
X107150000Y-50000000D01*
X107500000Y-50350000D02*
X107500000Y-49650000D01*
X107750000Y-50000000D02*
G75*
G03*
X107750000Y-50000000I-250000J0D01*
G01*
%TO.C,R3*%
X121500000Y-87750000D02*
G75*
G03*
X121500000Y-87750000I-250000J0D01*
G01*
X121600000Y-87750000D02*
X120900000Y-87750000D01*
X121250000Y-87400000D02*
X121250000Y-88100000D01*
%TO.C,R18*%
X112245000Y-61750000D02*
X111705000Y-61750000D01*
X111975000Y-62020000D02*
X111975000Y-61480000D01*
X112177500Y-61750000D02*
G75*
G03*
X112177500Y-61750000I-202500J0D01*
G01*
%TO.C,C7*%
X106250000Y-65770000D02*
X106250000Y-65230000D01*
X105980000Y-65500000D02*
X106520000Y-65500000D01*
X106452500Y-65500000D02*
G75*
G03*
X106452500Y-65500000I-202500J0D01*
G01*
%TO.C,U5*%
X110400000Y-86750000D02*
X111100000Y-86750000D01*
X110750000Y-86400000D02*
X110750000Y-87100000D01*
X111000000Y-86750000D02*
G75*
G03*
X111000000Y-86750000I-250000J0D01*
G01*
%TO.C,C34*%
X135000000Y-84770000D02*
X135000000Y-85470000D01*
X135350000Y-85120000D02*
X134650000Y-85120000D01*
X135250000Y-85120000D02*
G75*
G03*
X135250000Y-85120000I-250000J0D01*
G01*
%TO.C,R7*%
X125750000Y-83150000D02*
X125750000Y-83850000D01*
X126100000Y-83500000D02*
X125400000Y-83500000D01*
X126000000Y-83500000D02*
G75*
G03*
X126000000Y-83500000I-250000J0D01*
G01*
%TO.C,R14*%
X103750000Y-72980000D02*
X103750000Y-73520000D01*
X104020000Y-73250000D02*
X103480000Y-73250000D01*
X103952500Y-73250000D02*
G75*
G03*
X103952500Y-73250000I-202500J0D01*
G01*
%TO.C,R9*%
X125750000Y-88600000D02*
X125750000Y-87900000D01*
X125400000Y-88250000D02*
X126100000Y-88250000D01*
X126000000Y-88250000D02*
G75*
G03*
X126000000Y-88250000I-250000J0D01*
G01*
%TO.C,R5*%
X121500000Y-89250000D02*
G75*
G03*
X121500000Y-89250000I-250000J0D01*
G01*
X120900000Y-89250000D02*
X121600000Y-89250000D01*
X121250000Y-89600000D02*
X121250000Y-88900000D01*
%TO.C,U2*%
X125400000Y-92250000D02*
X126100000Y-92250000D01*
X125750000Y-91900000D02*
X125750000Y-92600000D01*
X126000000Y-92250000D02*
G75*
G03*
X126000000Y-92250000I-250000J0D01*
G01*
%TO.C,C6*%
X106250000Y-64520000D02*
X106250000Y-63980000D01*
X105980000Y-64250000D02*
X106520000Y-64250000D01*
X106452500Y-64250000D02*
G75*
G03*
X106452500Y-64250000I-202500J0D01*
G01*
%TO.C,C16*%
X103750000Y-69270000D02*
X103750000Y-68730000D01*
X103480000Y-69000000D02*
X104020000Y-69000000D01*
X103952500Y-69000000D02*
G75*
G03*
X103952500Y-69000000I-202500J0D01*
G01*
%TO.C,R23*%
X111500000Y-66100000D02*
X111500000Y-65400000D01*
X111150000Y-65750000D02*
X111850000Y-65750000D01*
X111750000Y-65750000D02*
G75*
G03*
X111750000Y-65750000I-250000J0D01*
G01*
%TO.C,C24*%
X121250000Y-61100000D02*
X121250000Y-60400000D01*
X120900000Y-60750000D02*
X121600000Y-60750000D01*
X121500000Y-60750000D02*
G75*
G03*
X121500000Y-60750000I-250000J0D01*
G01*
%TO.C,D8*%
X121600000Y-78500000D02*
X120900000Y-78500000D01*
X121250000Y-78850000D02*
X121250000Y-78150000D01*
X121500000Y-78500000D02*
G75*
G03*
X121500000Y-78500000I-250000J0D01*
G01*
%TO.C,C28*%
X128770000Y-92250000D02*
X128230000Y-92250000D01*
X128500000Y-92520000D02*
X128500000Y-91980000D01*
X128702500Y-92250000D02*
G75*
G03*
X128702500Y-92250000I-202500J0D01*
G01*
%TO.C,C12*%
X106250000Y-62020000D02*
X106250000Y-61480000D01*
X105980000Y-61750000D02*
X106520000Y-61750000D01*
X106452500Y-61750000D02*
G75*
G03*
X106452500Y-61750000I-202500J0D01*
G01*
%TO.C,C11*%
X117500000Y-66650000D02*
X117500000Y-67350000D01*
X117850000Y-67000000D02*
X117150000Y-67000000D01*
X117750000Y-67000000D02*
G75*
G03*
X117750000Y-67000000I-250000J0D01*
G01*
%TO.C,R34*%
X125750000Y-80770000D02*
X125750000Y-80230000D01*
X125480000Y-80500000D02*
X126020000Y-80500000D01*
X125952500Y-80500000D02*
G75*
G03*
X125952500Y-80500000I-202500J0D01*
G01*
%TO.C,C5*%
X110750000Y-89900000D02*
X110750000Y-90600000D01*
X111100000Y-90250000D02*
X110400000Y-90250000D01*
X111000000Y-90250000D02*
G75*
G03*
X111000000Y-90250000I-250000J0D01*
G01*
%TO.C,U6*%
X102650000Y-81250000D02*
X103350000Y-81250000D01*
X103000000Y-80900000D02*
X103000000Y-81600000D01*
X103250000Y-81250000D02*
G75*
G03*
X103250000Y-81250000I-250000J0D01*
G01*
%TO.C,R12*%
X102000000Y-95730000D02*
X102000000Y-96270000D01*
X102270000Y-96000000D02*
X101730000Y-96000000D01*
X102202500Y-96000000D02*
G75*
G03*
X102202500Y-96000000I-202500J0D01*
G01*
%TO.C,D6*%
X118500000Y-78500000D02*
X119200000Y-78500000D01*
X118850000Y-78150000D02*
X118850000Y-78850000D01*
X119100000Y-78500000D02*
G75*
G03*
X119100000Y-78500000I-250000J0D01*
G01*
%TO.C,C14*%
X110020000Y-77750000D02*
X109480000Y-77750000D01*
X109750000Y-78020000D02*
X109750000Y-77480000D01*
X109952500Y-77750000D02*
G75*
G03*
X109952500Y-77750000I-202500J0D01*
G01*
%TO.C,J1*%
X121540000Y-51930000D02*
X121540000Y-51230000D01*
X121190000Y-51580000D02*
X121890000Y-51580000D01*
X121790000Y-51580000D02*
G75*
G03*
X121790000Y-51580000I-250000J0D01*
G01*
%TO.C,C13*%
X106250000Y-63270000D02*
X106250000Y-62730000D01*
X105980000Y-63000000D02*
X106520000Y-63000000D01*
X106452500Y-63000000D02*
G75*
G03*
X106452500Y-63000000I-202500J0D01*
G01*
%TO.C,C18*%
X103000000Y-84400000D02*
X103000000Y-85100000D01*
X103350000Y-84750000D02*
X102650000Y-84750000D01*
X103250000Y-84750000D02*
G75*
G03*
X103250000Y-84750000I-250000J0D01*
G01*
%TO.C,R4*%
X121500000Y-90750000D02*
G75*
G03*
X121500000Y-90750000I-250000J0D01*
G01*
X120900000Y-90750000D02*
X121600000Y-90750000D01*
X121250000Y-91100000D02*
X121250000Y-90400000D01*
%TO.C,C15*%
X108770000Y-77750000D02*
X108230000Y-77750000D01*
X108500000Y-78020000D02*
X108500000Y-77480000D01*
X108702500Y-77750000D02*
G75*
G03*
X108702500Y-77750000I-202500J0D01*
G01*
%TO.C,U1*%
X116650000Y-90000000D02*
X117350000Y-90000000D01*
X117000000Y-89650000D02*
X117000000Y-90350000D01*
X117250000Y-90000000D02*
G75*
G03*
X117250000Y-90000000I-250000J0D01*
G01*
%TO.C,R20*%
X110750000Y-64350000D02*
X110750000Y-63650000D01*
X110400000Y-64000000D02*
X111100000Y-64000000D01*
X111000000Y-64000000D02*
G75*
G03*
X111000000Y-64000000I-250000J0D01*
G01*
%TO.C,C29*%
X118650000Y-56750000D02*
X119350000Y-56750000D01*
X119000000Y-56400000D02*
X119000000Y-57100000D01*
X119250000Y-56750000D02*
G75*
G03*
X119250000Y-56750000I-250000J0D01*
G01*
%TO.C,D7*%
X117250000Y-61400000D02*
X117250000Y-62100000D01*
X117600000Y-61750000D02*
X116900000Y-61750000D01*
X117500000Y-61750000D02*
G75*
G03*
X117500000Y-61750000I-250000J0D01*
G01*
%TO.C,R28*%
X110350000Y-50000000D02*
X109650000Y-50000000D01*
X110000000Y-50350000D02*
X110000000Y-49650000D01*
X110250000Y-50000000D02*
G75*
G03*
X110250000Y-50000000I-250000J0D01*
G01*
%TO.C,C32*%
X125750000Y-82020000D02*
X125750000Y-81480000D01*
X125480000Y-81750000D02*
X126020000Y-81750000D01*
X125952500Y-81750000D02*
G75*
G03*
X125952500Y-81750000I-202500J0D01*
G01*
%TO.C,R29*%
X114100000Y-57500000D02*
X113400000Y-57500000D01*
X113750000Y-57850000D02*
X113750000Y-57150000D01*
X114000000Y-57500000D02*
G75*
G03*
X114000000Y-57500000I-250000J0D01*
G01*
D12*
%TO.C,X1*%
X118750000Y-68650000D02*
X118750000Y-69650000D01*
X118750000Y-68650000D02*
X118750000Y-71850000D01*
X117850000Y-68650000D02*
X118750000Y-68650000D01*
X117150000Y-68650000D02*
X117150000Y-69650000D01*
X116250000Y-68650000D02*
X118750000Y-68650000D01*
X116250000Y-68650000D02*
X117150000Y-68650000D01*
X118750000Y-69650000D02*
X117850000Y-69650000D01*
X117850000Y-69650000D02*
X117850000Y-68650000D01*
X117150000Y-69650000D02*
X116250000Y-69650000D01*
X116250000Y-69650000D02*
X116250000Y-68650000D01*
D11*
X117500000Y-69900000D02*
X117500000Y-70600000D01*
X117850000Y-70250000D02*
X117150000Y-70250000D01*
D12*
X118750000Y-70850000D02*
X118750000Y-71850000D01*
X117850000Y-70850000D02*
X118750000Y-70850000D01*
X117150000Y-70850000D02*
X117150000Y-71850000D01*
X116250000Y-70850000D02*
X117150000Y-70850000D01*
X118750000Y-71850000D02*
X117850000Y-71850000D01*
X118750000Y-71850000D02*
X116250000Y-71850000D01*
X117850000Y-71850000D02*
X117850000Y-70850000D01*
X117150000Y-71850000D02*
X116250000Y-71850000D01*
X116250000Y-71850000D02*
X116250000Y-68650000D01*
X116250000Y-71850000D02*
X116250000Y-70850000D01*
D11*
X117750000Y-70250000D02*
G75*
G03*
X117750000Y-70250000I-250000J0D01*
G01*
%TO.C,R25*%
X111020000Y-61750000D02*
X110480000Y-61750000D01*
X110750000Y-62020000D02*
X110750000Y-61480000D01*
X110952500Y-61750000D02*
G75*
G03*
X110952500Y-61750000I-202500J0D01*
G01*
%TO.C,C17*%
X103750000Y-68020000D02*
X103750000Y-67480000D01*
X103480000Y-67750000D02*
X104020000Y-67750000D01*
X103952500Y-67750000D02*
G75*
G03*
X103952500Y-67750000I-202500J0D01*
G01*
%TO.C,C22*%
X121250000Y-63100000D02*
X121250000Y-62400000D01*
X120900000Y-62750000D02*
X121600000Y-62750000D01*
X121500000Y-62750000D02*
G75*
G03*
X121500000Y-62750000I-250000J0D01*
G01*
%TO.C,R32*%
X135000000Y-81140000D02*
X135000000Y-80600000D01*
X134730000Y-80870000D02*
X135270000Y-80870000D01*
X135202500Y-80870000D02*
G75*
G03*
X135202500Y-80870000I-202500J0D01*
G01*
%TO.C,D5*%
X110350000Y-41750000D02*
X109650000Y-41750000D01*
X110000000Y-42100000D02*
X110000000Y-41400000D01*
X110250000Y-41750000D02*
G75*
G03*
X110250000Y-41750000I-250000J0D01*
G01*
%TO.C,R15*%
X121650000Y-73500000D02*
X120950000Y-73500000D01*
X121300000Y-73850000D02*
X121300000Y-73150000D01*
X121550000Y-73500000D02*
G75*
G03*
X121550000Y-73500000I-250000J0D01*
G01*
%TO.C,R8*%
X118600000Y-94900000D02*
X118600000Y-95600000D01*
X118950000Y-95250000D02*
X118250000Y-95250000D01*
X118850000Y-95250000D02*
G75*
G03*
X118850000Y-95250000I-250000J0D01*
G01*
D13*
%TO.C,X2*%
X100000000Y-40000000D02*
X100000000Y-58250000D01*
X100000000Y-61750000D02*
X100000000Y-99400000D01*
X108600000Y-100000000D02*
X100599999Y-100000001D01*
X109075000Y-104000000D02*
X109075000Y-100500000D01*
X121025000Y-101100000D02*
X121025000Y-104000000D01*
X121025000Y-104000000D02*
X109075000Y-104000000D01*
X122225000Y-101100000D02*
X122225000Y-104000000D01*
X128925000Y-100500000D02*
X128925000Y-104000000D01*
X128925000Y-104000000D02*
X122225000Y-104000000D01*
X137000000Y-39000000D02*
X101000000Y-39000000D01*
X137400001Y-99999999D02*
X129400000Y-100000000D01*
D11*
X138000000Y-40000000D02*
X138000000Y-58250000D01*
X138000000Y-61750000D02*
X138000000Y-99400000D01*
X101000000Y-39000001D02*
G75*
G03*
X100000001Y-40000000I25000J-1024999D01*
G01*
D13*
X100000000Y-61750000D02*
G75*
G03*
X100000000Y-58250000I0J1750000D01*
G01*
X100000000Y-61750000D02*
G75*
G03*
X100000000Y-58250000I0J1750000D01*
G01*
D11*
X100000000Y-99400000D02*
G75*
G03*
X100599999Y-100000001I617325J17324D01*
G01*
D13*
X109074999Y-100500000D02*
G75*
G03*
X108600000Y-100000000I-516030J-14604D01*
G01*
X122225000Y-101100000D02*
G75*
G03*
X121025000Y-101100000I-600000J0D01*
G01*
X129400000Y-100000002D02*
G75*
G03*
X128925001Y-100500000I35520J-509368D01*
G01*
D11*
X137999999Y-40000000D02*
G75*
G03*
X137000000Y-39000001I-1024999J-25000D01*
G01*
D13*
X138000000Y-58250000D02*
G75*
G03*
X138000000Y-61750000I0J-1750000D01*
G01*
X138000000Y-58250000D02*
G75*
G03*
X138000000Y-61750000I0J-1750000D01*
G01*
D11*
X137400001Y-100000000D02*
G75*
G03*
X138000000Y-99400000I-17301J617300D01*
G01*
%TO.C,C23*%
X133225000Y-62400000D02*
X133225000Y-63100000D01*
X133575000Y-62750000D02*
X132875000Y-62750000D01*
X133475000Y-62750000D02*
G75*
G03*
X133475000Y-62750000I-250000J0D01*
G01*
%TO.C,C25*%
X123400000Y-57250000D02*
X124100000Y-57250000D01*
X123750000Y-56900000D02*
X123750000Y-57600000D01*
X124000000Y-57250000D02*
G75*
G03*
X124000000Y-57250000I-250000J0D01*
G01*
%TO.C,U3*%
X116500000Y-84500000D02*
G75*
G03*
X116500000Y-84500000I-250000J0D01*
G01*
X115900000Y-84500000D02*
X116600000Y-84500000D01*
X116250000Y-84850000D02*
X116250000Y-84150000D01*
%TO.C,D2*%
X102850000Y-41750000D02*
X102150000Y-41750000D01*
X102500000Y-42100000D02*
X102500000Y-41400000D01*
X102750000Y-41750000D02*
G75*
G03*
X102750000Y-41750000I-250000J0D01*
G01*
%TO.C,D3*%
X105350000Y-41750000D02*
X104650000Y-41750000D01*
X105000000Y-42100000D02*
X105000000Y-41400000D01*
X105250000Y-41750000D02*
G75*
G03*
X105250000Y-41750000I-250000J0D01*
G01*
%TO.C,C30*%
X116600000Y-56750000D02*
X115900000Y-56750000D01*
X116250000Y-57100000D02*
X116250000Y-56400000D01*
X116500000Y-56750000D02*
G75*
G03*
X116500000Y-56750000I-250000J0D01*
G01*
%TO.C,R36*%
X135000000Y-82390000D02*
X135000000Y-81850000D01*
X134730000Y-82120000D02*
X135270000Y-82120000D01*
X135202500Y-82120000D02*
G75*
G03*
X135202500Y-82120000I-202500J0D01*
G01*
%TO.C,R1*%
X111450000Y-50000000D02*
X112150000Y-50000000D01*
X111800000Y-49650000D02*
X111800000Y-50350000D01*
X112050000Y-50000000D02*
G75*
G03*
X112050000Y-50000000I-250000J0D01*
G01*
%TO.C,C4*%
X110750000Y-82900000D02*
X110750000Y-83600000D01*
X111100000Y-83250000D02*
X110400000Y-83250000D01*
X111000000Y-83250000D02*
G75*
G03*
X111000000Y-83250000I-250000J0D01*
G01*
%TO.C,R35*%
X135000000Y-83640000D02*
X135000000Y-83100000D01*
X134730000Y-83370000D02*
X135270000Y-83370000D01*
X135202500Y-83370000D02*
G75*
G03*
X135202500Y-83370000I-202500J0D01*
G01*
%TO.C,R10*%
X103750000Y-74230000D02*
X103750000Y-74770000D01*
X104020000Y-74500000D02*
X103480000Y-74500000D01*
X103952500Y-74500000D02*
G75*
G03*
X103952500Y-74500000I-202500J0D01*
G01*
%TO.C,C8*%
X103750000Y-71770000D02*
X103750000Y-71230000D01*
X103480000Y-71500000D02*
X104020000Y-71500000D01*
X103952500Y-71500000D02*
G75*
G03*
X103952500Y-71500000I-202500J0D01*
G01*
%TO.C,R24*%
X109770000Y-61750000D02*
X109230000Y-61750000D01*
X109500000Y-62020000D02*
X109500000Y-61480000D01*
X109702500Y-61750000D02*
G75*
G03*
X109702500Y-61750000I-202500J0D01*
G01*
%TO.C,C20*%
X102000000Y-97770000D02*
X102000000Y-97230000D01*
X101730000Y-97500000D02*
X102270000Y-97500000D01*
X102202500Y-97500000D02*
G75*
G03*
X102202500Y-97500000I-202500J0D01*
G01*
%TO.C,C19*%
X125750000Y-95230000D02*
X125750000Y-95770000D01*
X126020000Y-95500000D02*
X125480000Y-95500000D01*
X125952500Y-95500000D02*
G75*
G03*
X125952500Y-95500000I-202500J0D01*
G01*
%TO.C,Q2*%
X121500000Y-83500000D02*
G75*
G03*
X121500000Y-83500000I-250000J0D01*
G01*
X121600000Y-83500000D02*
X120900000Y-83500000D01*
X121250000Y-83150000D02*
X121250000Y-83850000D01*
%TO.C,D4*%
X130250000Y-95600000D02*
G75*
G03*
X130250000Y-95600000I-250000J0D01*
G01*
X130350000Y-95600000D02*
X129650000Y-95600000D01*
X130000000Y-95250000D02*
X130000000Y-95950000D01*
%TO.C,C35*%
X125750000Y-85970000D02*
X125750000Y-85270000D01*
X125400000Y-85620000D02*
X126100000Y-85620000D01*
X126000000Y-85620000D02*
G75*
G03*
X126000000Y-85620000I-250000J0D01*
G01*
%TO.C,R17*%
X102850000Y-50000000D02*
X102150000Y-50000000D01*
X102500000Y-50350000D02*
X102500000Y-49650000D01*
X102750000Y-50000000D02*
G75*
G03*
X102750000Y-50000000I-250000J0D01*
G01*
%TO.C,D1*%
X107850000Y-41750000D02*
X107150000Y-41750000D01*
X107500000Y-42100000D02*
X107500000Y-41400000D01*
X107750000Y-41750000D02*
G75*
G03*
X107750000Y-41750000I-250000J0D01*
G01*
%TO.C,C9*%
X103750000Y-70520000D02*
X103750000Y-69980000D01*
X103480000Y-70250000D02*
X104020000Y-70250000D01*
X103952500Y-70250000D02*
G75*
G03*
X103952500Y-70250000I-202500J0D01*
G01*
%TO.C,R11*%
X106350000Y-81250000D02*
X105650000Y-81250000D01*
X106000000Y-81600000D02*
X106000000Y-80900000D01*
X106250000Y-81250000D02*
G75*
G03*
X106250000Y-81250000I-250000J0D01*
G01*
%TO.C,C21*%
X103000000Y-77400000D02*
X103000000Y-78100000D01*
X103350000Y-77750000D02*
X102650000Y-77750000D01*
X103250000Y-77750000D02*
G75*
G03*
X103250000Y-77750000I-250000J0D01*
G01*
%TO.C,R2*%
X121500000Y-92250000D02*
G75*
G03*
X121500000Y-92250000I-250000J0D01*
G01*
X120900000Y-92250000D02*
X121600000Y-92250000D01*
X121250000Y-92600000D02*
X121250000Y-91900000D01*
%TO.C,C10*%
X117500000Y-73850000D02*
X117500000Y-73150000D01*
X117150000Y-73500000D02*
X117850000Y-73500000D01*
X117750000Y-73500000D02*
G75*
G03*
X117750000Y-73500000I-250000J0D01*
G01*
%TO.C,R22*%
X113520000Y-61750000D02*
X112980000Y-61750000D01*
X113250000Y-62020000D02*
X113250000Y-61480000D01*
X113452500Y-61750000D02*
G75*
G03*
X113452500Y-61750000I-202500J0D01*
G01*
%TO.C,Q1*%
X116100000Y-79250000D02*
X115400000Y-79250000D01*
X115750000Y-79600000D02*
X115750000Y-78900000D01*
X116000000Y-79250000D02*
G75*
G03*
X116000000Y-79250000I-250000J0D01*
G01*
%TO.C,SL4*%
X119600000Y-76225000D02*
X119600000Y-75775000D01*
X119825000Y-76000000D02*
X119375000Y-76000000D01*
X119768800Y-76000000D02*
G75*
G03*
X119768800Y-76000000I-168800J0D01*
G01*
%TO.C,SL2*%
X105600000Y-96375000D02*
X105600000Y-96825000D01*
X105375000Y-96600000D02*
X105825000Y-96600000D01*
X105768800Y-96600000D02*
G75*
G03*
X105768800Y-96600000I-168800J0D01*
G01*
%TO.C,SL3*%
X105600000Y-59025000D02*
X105600000Y-58575000D01*
X105825000Y-58800000D02*
X105375000Y-58800000D01*
X105768800Y-58800000D02*
G75*
G03*
X105768800Y-58800000I-168800J0D01*
G01*
%TO.C,SL7*%
X105600000Y-61425000D02*
X105600000Y-60975000D01*
X105825000Y-61200000D02*
X105375000Y-61200000D01*
X105768800Y-61200000D02*
G75*
G03*
X105768800Y-61200000I-168800J0D01*
G01*
%TO.C,SL5*%
X105600000Y-62625000D02*
X105600000Y-62175000D01*
X105825000Y-62400000D02*
X105375000Y-62400000D01*
X105768800Y-62400000D02*
G75*
G03*
X105768800Y-62400000I-168800J0D01*
G01*
%TO.C,SL6*%
X105600000Y-60225000D02*
X105600000Y-59775000D01*
X105825000Y-60000000D02*
X105375000Y-60000000D01*
X105768800Y-60000000D02*
G75*
G03*
X105768800Y-60000000I-168800J0D01*
G01*
%TD*%
M02*
