%TF.GenerationSoftware,KiCad,Pcbnew,7.0.6*%
%TF.CreationDate,2023-08-17T07:33:20+09:30*%
%TF.ProjectId,spe-source,7370652d-736f-4757-9263-652e6b696361,V1.0*%
%TF.SameCoordinates,Original*%
%TF.FileFunction,Legend,Top*%
%TF.FilePolarity,Positive*%
%FSLAX46Y46*%
G04 Gerber Fmt 4.6, Leading zero omitted, Abs format (unit mm)*
G04 Created by KiCad (PCBNEW 7.0.6) date 2023-08-17 07:33:20*
%MOMM*%
%LPD*%
G01*
G04 APERTURE LIST*
%ADD10C,0.180000*%
%ADD11C,0.150000*%
%ADD12C,0.140000*%
%ADD13C,0.120000*%
%ADD14C,0.100000*%
%ADD15C,0.200000*%
%ADD16C,0.400000*%
%ADD17C,0.130000*%
G04 APERTURE END LIST*
D10*
X129058897Y-87463497D02*
X129106516Y-87415878D01*
X129106516Y-87415878D02*
X129201754Y-87368259D01*
X129201754Y-87368259D02*
X129439849Y-87368259D01*
X129439849Y-87368259D02*
X129535087Y-87415878D01*
X129535087Y-87415878D02*
X129582706Y-87463497D01*
X129582706Y-87463497D02*
X129630325Y-87558735D01*
X129630325Y-87558735D02*
X129630325Y-87653973D01*
X129630325Y-87653973D02*
X129582706Y-87796830D01*
X129582706Y-87796830D02*
X129011278Y-88368259D01*
X129011278Y-88368259D02*
X129630325Y-88368259D01*
X130487468Y-87701592D02*
X130487468Y-88368259D01*
X130249373Y-87320640D02*
X130011278Y-88034925D01*
X130011278Y-88034925D02*
X130630325Y-88034925D01*
X130868421Y-87368259D02*
X131201754Y-88368259D01*
X131201754Y-88368259D02*
X131535087Y-87368259D01*
X131868421Y-88368259D02*
X131868421Y-87368259D01*
X132344611Y-88368259D02*
X132344611Y-87368259D01*
X132344611Y-87368259D02*
X132916039Y-88368259D01*
X132916039Y-88368259D02*
X132916039Y-87368259D01*
D11*
X130860588Y-89667438D02*
X130765350Y-89619819D01*
X130765350Y-89619819D02*
X130622493Y-89619819D01*
X130622493Y-89619819D02*
X130479636Y-89667438D01*
X130479636Y-89667438D02*
X130384398Y-89762676D01*
X130384398Y-89762676D02*
X130336779Y-89857914D01*
X130336779Y-89857914D02*
X130289160Y-90048390D01*
X130289160Y-90048390D02*
X130289160Y-90191247D01*
X130289160Y-90191247D02*
X130336779Y-90381723D01*
X130336779Y-90381723D02*
X130384398Y-90476961D01*
X130384398Y-90476961D02*
X130479636Y-90572200D01*
X130479636Y-90572200D02*
X130622493Y-90619819D01*
X130622493Y-90619819D02*
X130717731Y-90619819D01*
X130717731Y-90619819D02*
X130860588Y-90572200D01*
X130860588Y-90572200D02*
X130908207Y-90524580D01*
X130908207Y-90524580D02*
X130908207Y-90191247D01*
X130908207Y-90191247D02*
X130717731Y-90191247D01*
X131336779Y-90619819D02*
X131336779Y-89619819D01*
X131336779Y-89619819D02*
X131908207Y-90619819D01*
X131908207Y-90619819D02*
X131908207Y-89619819D01*
X132384398Y-90619819D02*
X132384398Y-89619819D01*
X132384398Y-89619819D02*
X132622493Y-89619819D01*
X132622493Y-89619819D02*
X132765350Y-89667438D01*
X132765350Y-89667438D02*
X132860588Y-89762676D01*
X132860588Y-89762676D02*
X132908207Y-89857914D01*
X132908207Y-89857914D02*
X132955826Y-90048390D01*
X132955826Y-90048390D02*
X132955826Y-90191247D01*
X132955826Y-90191247D02*
X132908207Y-90381723D01*
X132908207Y-90381723D02*
X132860588Y-90476961D01*
X132860588Y-90476961D02*
X132765350Y-90572200D01*
X132765350Y-90572200D02*
X132622493Y-90619819D01*
X132622493Y-90619819D02*
X132384398Y-90619819D01*
D12*
X107862815Y-45363533D02*
X107862815Y-45649247D01*
X107862815Y-45649247D02*
X107062815Y-45649247D01*
X107443767Y-45163533D02*
X107443767Y-44963533D01*
X107862815Y-44877819D02*
X107862815Y-45163533D01*
X107862815Y-45163533D02*
X107062815Y-45163533D01*
X107062815Y-45163533D02*
X107062815Y-44877819D01*
X107862815Y-44620676D02*
X107062815Y-44620676D01*
X107062815Y-44620676D02*
X107062815Y-44477819D01*
X107062815Y-44477819D02*
X107100910Y-44392105D01*
X107100910Y-44392105D02*
X107177100Y-44334962D01*
X107177100Y-44334962D02*
X107253291Y-44306391D01*
X107253291Y-44306391D02*
X107405672Y-44277819D01*
X107405672Y-44277819D02*
X107519958Y-44277819D01*
X107519958Y-44277819D02*
X107672339Y-44306391D01*
X107672339Y-44306391D02*
X107748529Y-44334962D01*
X107748529Y-44334962D02*
X107824720Y-44392105D01*
X107824720Y-44392105D02*
X107862815Y-44477819D01*
X107862815Y-44477819D02*
X107862815Y-44620676D01*
X107062815Y-43906391D02*
X107062815Y-43849248D01*
X107062815Y-43849248D02*
X107100910Y-43792105D01*
X107100910Y-43792105D02*
X107139005Y-43763534D01*
X107139005Y-43763534D02*
X107215196Y-43734962D01*
X107215196Y-43734962D02*
X107367577Y-43706391D01*
X107367577Y-43706391D02*
X107558053Y-43706391D01*
X107558053Y-43706391D02*
X107710434Y-43734962D01*
X107710434Y-43734962D02*
X107786624Y-43763534D01*
X107786624Y-43763534D02*
X107824720Y-43792105D01*
X107824720Y-43792105D02*
X107862815Y-43849248D01*
X107862815Y-43849248D02*
X107862815Y-43906391D01*
X107862815Y-43906391D02*
X107824720Y-43963534D01*
X107824720Y-43963534D02*
X107786624Y-43992105D01*
X107786624Y-43992105D02*
X107710434Y-44020676D01*
X107710434Y-44020676D02*
X107558053Y-44049248D01*
X107558053Y-44049248D02*
X107367577Y-44049248D01*
X107367577Y-44049248D02*
X107215196Y-44020676D01*
X107215196Y-44020676D02*
X107139005Y-43992105D01*
X107139005Y-43992105D02*
X107100910Y-43963534D01*
X107100910Y-43963534D02*
X107062815Y-43906391D01*
D11*
X106110588Y-90167438D02*
X106015350Y-90119819D01*
X106015350Y-90119819D02*
X105872493Y-90119819D01*
X105872493Y-90119819D02*
X105729636Y-90167438D01*
X105729636Y-90167438D02*
X105634398Y-90262676D01*
X105634398Y-90262676D02*
X105586779Y-90357914D01*
X105586779Y-90357914D02*
X105539160Y-90548390D01*
X105539160Y-90548390D02*
X105539160Y-90691247D01*
X105539160Y-90691247D02*
X105586779Y-90881723D01*
X105586779Y-90881723D02*
X105634398Y-90976961D01*
X105634398Y-90976961D02*
X105729636Y-91072200D01*
X105729636Y-91072200D02*
X105872493Y-91119819D01*
X105872493Y-91119819D02*
X105967731Y-91119819D01*
X105967731Y-91119819D02*
X106110588Y-91072200D01*
X106110588Y-91072200D02*
X106158207Y-91024580D01*
X106158207Y-91024580D02*
X106158207Y-90691247D01*
X106158207Y-90691247D02*
X105967731Y-90691247D01*
X106586779Y-91119819D02*
X106586779Y-90119819D01*
X106586779Y-90119819D02*
X107158207Y-91119819D01*
X107158207Y-91119819D02*
X107158207Y-90119819D01*
X107634398Y-91119819D02*
X107634398Y-90119819D01*
X107634398Y-90119819D02*
X107872493Y-90119819D01*
X107872493Y-90119819D02*
X108015350Y-90167438D01*
X108015350Y-90167438D02*
X108110588Y-90262676D01*
X108110588Y-90262676D02*
X108158207Y-90357914D01*
X108158207Y-90357914D02*
X108205826Y-90548390D01*
X108205826Y-90548390D02*
X108205826Y-90691247D01*
X108205826Y-90691247D02*
X108158207Y-90881723D01*
X108158207Y-90881723D02*
X108110588Y-90976961D01*
X108110588Y-90976961D02*
X108015350Y-91072200D01*
X108015350Y-91072200D02*
X107872493Y-91119819D01*
X107872493Y-91119819D02*
X107634398Y-91119819D01*
D10*
X106032706Y-87368259D02*
X105556516Y-87368259D01*
X105556516Y-87368259D02*
X105508897Y-87844449D01*
X105508897Y-87844449D02*
X105556516Y-87796830D01*
X105556516Y-87796830D02*
X105651754Y-87749211D01*
X105651754Y-87749211D02*
X105889849Y-87749211D01*
X105889849Y-87749211D02*
X105985087Y-87796830D01*
X105985087Y-87796830D02*
X106032706Y-87844449D01*
X106032706Y-87844449D02*
X106080325Y-87939687D01*
X106080325Y-87939687D02*
X106080325Y-88177782D01*
X106080325Y-88177782D02*
X106032706Y-88273020D01*
X106032706Y-88273020D02*
X105985087Y-88320640D01*
X105985087Y-88320640D02*
X105889849Y-88368259D01*
X105889849Y-88368259D02*
X105651754Y-88368259D01*
X105651754Y-88368259D02*
X105556516Y-88320640D01*
X105556516Y-88320640D02*
X105508897Y-88273020D01*
X106366040Y-87368259D02*
X106699373Y-88368259D01*
X106699373Y-88368259D02*
X107032706Y-87368259D01*
D12*
X126016666Y-69509077D02*
X126016666Y-70151934D01*
X126016666Y-70151934D02*
X125983333Y-70280505D01*
X125983333Y-70280505D02*
X125916666Y-70366220D01*
X125916666Y-70366220D02*
X125816666Y-70409077D01*
X125816666Y-70409077D02*
X125750000Y-70409077D01*
X126683333Y-70409077D02*
X126349999Y-70409077D01*
X126349999Y-70409077D02*
X126349999Y-69509077D01*
X127316666Y-70323362D02*
X127283333Y-70366220D01*
X127283333Y-70366220D02*
X127183333Y-70409077D01*
X127183333Y-70409077D02*
X127116666Y-70409077D01*
X127116666Y-70409077D02*
X127016666Y-70366220D01*
X127016666Y-70366220D02*
X126950000Y-70280505D01*
X126950000Y-70280505D02*
X126916666Y-70194791D01*
X126916666Y-70194791D02*
X126883333Y-70023362D01*
X126883333Y-70023362D02*
X126883333Y-69894791D01*
X126883333Y-69894791D02*
X126916666Y-69723362D01*
X126916666Y-69723362D02*
X126950000Y-69637648D01*
X126950000Y-69637648D02*
X127016666Y-69551934D01*
X127016666Y-69551934D02*
X127116666Y-69509077D01*
X127116666Y-69509077D02*
X127183333Y-69509077D01*
X127183333Y-69509077D02*
X127283333Y-69551934D01*
X127283333Y-69551934D02*
X127316666Y-69594791D01*
X127816666Y-69509077D02*
X127816666Y-70151934D01*
X127816666Y-70151934D02*
X127783333Y-70280505D01*
X127783333Y-70280505D02*
X127716666Y-70366220D01*
X127716666Y-70366220D02*
X127616666Y-70409077D01*
X127616666Y-70409077D02*
X127550000Y-70409077D01*
X128483333Y-70409077D02*
X128149999Y-70409077D01*
X128149999Y-70409077D02*
X128149999Y-69509077D01*
X129116666Y-70323362D02*
X129083333Y-70366220D01*
X129083333Y-70366220D02*
X128983333Y-70409077D01*
X128983333Y-70409077D02*
X128916666Y-70409077D01*
X128916666Y-70409077D02*
X128816666Y-70366220D01*
X128816666Y-70366220D02*
X128750000Y-70280505D01*
X128750000Y-70280505D02*
X128716666Y-70194791D01*
X128716666Y-70194791D02*
X128683333Y-70023362D01*
X128683333Y-70023362D02*
X128683333Y-69894791D01*
X128683333Y-69894791D02*
X128716666Y-69723362D01*
X128716666Y-69723362D02*
X128750000Y-69637648D01*
X128750000Y-69637648D02*
X128816666Y-69551934D01*
X128816666Y-69551934D02*
X128916666Y-69509077D01*
X128916666Y-69509077D02*
X128983333Y-69509077D01*
X128983333Y-69509077D02*
X129083333Y-69551934D01*
X129083333Y-69551934D02*
X129116666Y-69594791D01*
X129616666Y-69509077D02*
X129616666Y-70151934D01*
X129616666Y-70151934D02*
X129583333Y-70280505D01*
X129583333Y-70280505D02*
X129516666Y-70366220D01*
X129516666Y-70366220D02*
X129416666Y-70409077D01*
X129416666Y-70409077D02*
X129350000Y-70409077D01*
X130283333Y-70409077D02*
X129949999Y-70409077D01*
X129949999Y-70409077D02*
X129949999Y-69509077D01*
X130916666Y-70323362D02*
X130883333Y-70366220D01*
X130883333Y-70366220D02*
X130783333Y-70409077D01*
X130783333Y-70409077D02*
X130716666Y-70409077D01*
X130716666Y-70409077D02*
X130616666Y-70366220D01*
X130616666Y-70366220D02*
X130550000Y-70280505D01*
X130550000Y-70280505D02*
X130516666Y-70194791D01*
X130516666Y-70194791D02*
X130483333Y-70023362D01*
X130483333Y-70023362D02*
X130483333Y-69894791D01*
X130483333Y-69894791D02*
X130516666Y-69723362D01*
X130516666Y-69723362D02*
X130550000Y-69637648D01*
X130550000Y-69637648D02*
X130616666Y-69551934D01*
X130616666Y-69551934D02*
X130716666Y-69509077D01*
X130716666Y-69509077D02*
X130783333Y-69509077D01*
X130783333Y-69509077D02*
X130883333Y-69551934D01*
X130883333Y-69551934D02*
X130916666Y-69594791D01*
X131416666Y-69509077D02*
X131416666Y-70151934D01*
X131416666Y-70151934D02*
X131383333Y-70280505D01*
X131383333Y-70280505D02*
X131316666Y-70366220D01*
X131316666Y-70366220D02*
X131216666Y-70409077D01*
X131216666Y-70409077D02*
X131150000Y-70409077D01*
X132083333Y-70409077D02*
X131749999Y-70409077D01*
X131749999Y-70409077D02*
X131749999Y-69509077D01*
X132716666Y-70323362D02*
X132683333Y-70366220D01*
X132683333Y-70366220D02*
X132583333Y-70409077D01*
X132583333Y-70409077D02*
X132516666Y-70409077D01*
X132516666Y-70409077D02*
X132416666Y-70366220D01*
X132416666Y-70366220D02*
X132350000Y-70280505D01*
X132350000Y-70280505D02*
X132316666Y-70194791D01*
X132316666Y-70194791D02*
X132283333Y-70023362D01*
X132283333Y-70023362D02*
X132283333Y-69894791D01*
X132283333Y-69894791D02*
X132316666Y-69723362D01*
X132316666Y-69723362D02*
X132350000Y-69637648D01*
X132350000Y-69637648D02*
X132416666Y-69551934D01*
X132416666Y-69551934D02*
X132516666Y-69509077D01*
X132516666Y-69509077D02*
X132583333Y-69509077D01*
X132583333Y-69509077D02*
X132683333Y-69551934D01*
X132683333Y-69551934D02*
X132716666Y-69594791D01*
X102862815Y-45363533D02*
X102862815Y-45649247D01*
X102862815Y-45649247D02*
X102062815Y-45649247D01*
X102443767Y-45163533D02*
X102443767Y-44963533D01*
X102862815Y-44877819D02*
X102862815Y-45163533D01*
X102862815Y-45163533D02*
X102062815Y-45163533D01*
X102062815Y-45163533D02*
X102062815Y-44877819D01*
X102862815Y-44620676D02*
X102062815Y-44620676D01*
X102062815Y-44620676D02*
X102062815Y-44477819D01*
X102062815Y-44477819D02*
X102100910Y-44392105D01*
X102100910Y-44392105D02*
X102177100Y-44334962D01*
X102177100Y-44334962D02*
X102253291Y-44306391D01*
X102253291Y-44306391D02*
X102405672Y-44277819D01*
X102405672Y-44277819D02*
X102519958Y-44277819D01*
X102519958Y-44277819D02*
X102672339Y-44306391D01*
X102672339Y-44306391D02*
X102748529Y-44334962D01*
X102748529Y-44334962D02*
X102824720Y-44392105D01*
X102824720Y-44392105D02*
X102862815Y-44477819D01*
X102862815Y-44477819D02*
X102862815Y-44620676D01*
X102862815Y-43706391D02*
X102862815Y-44049248D01*
X102862815Y-43877819D02*
X102062815Y-43877819D01*
X102062815Y-43877819D02*
X102177100Y-43934962D01*
X102177100Y-43934962D02*
X102253291Y-43992105D01*
X102253291Y-43992105D02*
X102291386Y-44049248D01*
X110362815Y-45163533D02*
X109562815Y-45163533D01*
X109562815Y-45163533D02*
X109562815Y-44934962D01*
X109562815Y-44934962D02*
X109600910Y-44877819D01*
X109600910Y-44877819D02*
X109639005Y-44849248D01*
X109639005Y-44849248D02*
X109715196Y-44820676D01*
X109715196Y-44820676D02*
X109829481Y-44820676D01*
X109829481Y-44820676D02*
X109905672Y-44849248D01*
X109905672Y-44849248D02*
X109943767Y-44877819D01*
X109943767Y-44877819D02*
X109981862Y-44934962D01*
X109981862Y-44934962D02*
X109981862Y-45163533D01*
X110324720Y-44592105D02*
X110362815Y-44506391D01*
X110362815Y-44506391D02*
X110362815Y-44363533D01*
X110362815Y-44363533D02*
X110324720Y-44306391D01*
X110324720Y-44306391D02*
X110286624Y-44277819D01*
X110286624Y-44277819D02*
X110210434Y-44249248D01*
X110210434Y-44249248D02*
X110134243Y-44249248D01*
X110134243Y-44249248D02*
X110058053Y-44277819D01*
X110058053Y-44277819D02*
X110019958Y-44306391D01*
X110019958Y-44306391D02*
X109981862Y-44363533D01*
X109981862Y-44363533D02*
X109943767Y-44477819D01*
X109943767Y-44477819D02*
X109905672Y-44534962D01*
X109905672Y-44534962D02*
X109867577Y-44563533D01*
X109867577Y-44563533D02*
X109791386Y-44592105D01*
X109791386Y-44592105D02*
X109715196Y-44592105D01*
X109715196Y-44592105D02*
X109639005Y-44563533D01*
X109639005Y-44563533D02*
X109600910Y-44534962D01*
X109600910Y-44534962D02*
X109562815Y-44477819D01*
X109562815Y-44477819D02*
X109562815Y-44334962D01*
X109562815Y-44334962D02*
X109600910Y-44249248D01*
X109943767Y-43992104D02*
X109943767Y-43792104D01*
X110362815Y-43706390D02*
X110362815Y-43992104D01*
X110362815Y-43992104D02*
X109562815Y-43992104D01*
X109562815Y-43992104D02*
X109562815Y-43706390D01*
X105362815Y-45163532D02*
X105362815Y-45449246D01*
X105362815Y-45449246D02*
X104562815Y-45449246D01*
X105362815Y-44963532D02*
X104562815Y-44963532D01*
X105362815Y-44677818D02*
X104562815Y-44677818D01*
X104562815Y-44677818D02*
X105362815Y-44334961D01*
X105362815Y-44334961D02*
X104562815Y-44334961D01*
X105362815Y-44049247D02*
X104562815Y-44049247D01*
X105362815Y-43706390D02*
X104905672Y-43963533D01*
X104562815Y-43706390D02*
X105019958Y-44049247D01*
D11*
X113549999Y-94008557D02*
X113316666Y-93579985D01*
X113149999Y-94008557D02*
X113149999Y-93108557D01*
X113149999Y-93108557D02*
X113416666Y-93108557D01*
X113416666Y-93108557D02*
X113483333Y-93151414D01*
X113483333Y-93151414D02*
X113516666Y-93194271D01*
X113516666Y-93194271D02*
X113549999Y-93279985D01*
X113549999Y-93279985D02*
X113549999Y-93408557D01*
X113549999Y-93408557D02*
X113516666Y-93494271D01*
X113516666Y-93494271D02*
X113483333Y-93537128D01*
X113483333Y-93537128D02*
X113416666Y-93579985D01*
X113416666Y-93579985D02*
X113149999Y-93579985D01*
X113783333Y-93108557D02*
X114216666Y-93108557D01*
X114216666Y-93108557D02*
X113983333Y-93451414D01*
X113983333Y-93451414D02*
X114083333Y-93451414D01*
X114083333Y-93451414D02*
X114149999Y-93494271D01*
X114149999Y-93494271D02*
X114183333Y-93537128D01*
X114183333Y-93537128D02*
X114216666Y-93622842D01*
X114216666Y-93622842D02*
X114216666Y-93837128D01*
X114216666Y-93837128D02*
X114183333Y-93922842D01*
X114183333Y-93922842D02*
X114149999Y-93965700D01*
X114149999Y-93965700D02*
X114083333Y-94008557D01*
X114083333Y-94008557D02*
X113883333Y-94008557D01*
X113883333Y-94008557D02*
X113816666Y-93965700D01*
X113816666Y-93965700D02*
X113783333Y-93922842D01*
X114650000Y-93108557D02*
X114716666Y-93108557D01*
X114716666Y-93108557D02*
X114783333Y-93151414D01*
X114783333Y-93151414D02*
X114816666Y-93194271D01*
X114816666Y-93194271D02*
X114850000Y-93279985D01*
X114850000Y-93279985D02*
X114883333Y-93451414D01*
X114883333Y-93451414D02*
X114883333Y-93665700D01*
X114883333Y-93665700D02*
X114850000Y-93837128D01*
X114850000Y-93837128D02*
X114816666Y-93922842D01*
X114816666Y-93922842D02*
X114783333Y-93965700D01*
X114783333Y-93965700D02*
X114716666Y-94008557D01*
X114716666Y-94008557D02*
X114650000Y-94008557D01*
X114650000Y-94008557D02*
X114583333Y-93965700D01*
X114583333Y-93965700D02*
X114550000Y-93922842D01*
X114550000Y-93922842D02*
X114516666Y-93837128D01*
X114516666Y-93837128D02*
X114483333Y-93665700D01*
X114483333Y-93665700D02*
X114483333Y-93451414D01*
X114483333Y-93451414D02*
X114516666Y-93279985D01*
X114516666Y-93279985D02*
X114550000Y-93194271D01*
X114550000Y-93194271D02*
X114583333Y-93151414D01*
X114583333Y-93151414D02*
X114650000Y-93108557D01*
D13*
X114146428Y-81317593D02*
X113963094Y-80984260D01*
X113832142Y-81317593D02*
X113832142Y-80617593D01*
X113832142Y-80617593D02*
X114041666Y-80617593D01*
X114041666Y-80617593D02*
X114094047Y-80650926D01*
X114094047Y-80650926D02*
X114120237Y-80684260D01*
X114120237Y-80684260D02*
X114146428Y-80750926D01*
X114146428Y-80750926D02*
X114146428Y-80850926D01*
X114146428Y-80850926D02*
X114120237Y-80917593D01*
X114120237Y-80917593D02*
X114094047Y-80950926D01*
X114094047Y-80950926D02*
X114041666Y-80984260D01*
X114041666Y-80984260D02*
X113832142Y-80984260D01*
X114329761Y-80617593D02*
X114670237Y-80617593D01*
X114670237Y-80617593D02*
X114486904Y-80884260D01*
X114486904Y-80884260D02*
X114565475Y-80884260D01*
X114565475Y-80884260D02*
X114617856Y-80917593D01*
X114617856Y-80917593D02*
X114644047Y-80950926D01*
X114644047Y-80950926D02*
X114670237Y-81017593D01*
X114670237Y-81017593D02*
X114670237Y-81184260D01*
X114670237Y-81184260D02*
X114644047Y-81250926D01*
X114644047Y-81250926D02*
X114617856Y-81284260D01*
X114617856Y-81284260D02*
X114565475Y-81317593D01*
X114565475Y-81317593D02*
X114408332Y-81317593D01*
X114408332Y-81317593D02*
X114355951Y-81284260D01*
X114355951Y-81284260D02*
X114329761Y-81250926D01*
X114853571Y-80617593D02*
X115194047Y-80617593D01*
X115194047Y-80617593D02*
X115010714Y-80884260D01*
X115010714Y-80884260D02*
X115089285Y-80884260D01*
X115089285Y-80884260D02*
X115141666Y-80917593D01*
X115141666Y-80917593D02*
X115167857Y-80950926D01*
X115167857Y-80950926D02*
X115194047Y-81017593D01*
X115194047Y-81017593D02*
X115194047Y-81184260D01*
X115194047Y-81184260D02*
X115167857Y-81250926D01*
X115167857Y-81250926D02*
X115141666Y-81284260D01*
X115141666Y-81284260D02*
X115089285Y-81317593D01*
X115089285Y-81317593D02*
X114932142Y-81317593D01*
X114932142Y-81317593D02*
X114879761Y-81284260D01*
X114879761Y-81284260D02*
X114853571Y-81250926D01*
X112396428Y-81317593D02*
X112213094Y-80984260D01*
X112082142Y-81317593D02*
X112082142Y-80617593D01*
X112082142Y-80617593D02*
X112291666Y-80617593D01*
X112291666Y-80617593D02*
X112344047Y-80650926D01*
X112344047Y-80650926D02*
X112370237Y-80684260D01*
X112370237Y-80684260D02*
X112396428Y-80750926D01*
X112396428Y-80750926D02*
X112396428Y-80850926D01*
X112396428Y-80850926D02*
X112370237Y-80917593D01*
X112370237Y-80917593D02*
X112344047Y-80950926D01*
X112344047Y-80950926D02*
X112291666Y-80984260D01*
X112291666Y-80984260D02*
X112082142Y-80984260D01*
X112579761Y-80617593D02*
X112920237Y-80617593D01*
X112920237Y-80617593D02*
X112736904Y-80884260D01*
X112736904Y-80884260D02*
X112815475Y-80884260D01*
X112815475Y-80884260D02*
X112867856Y-80917593D01*
X112867856Y-80917593D02*
X112894047Y-80950926D01*
X112894047Y-80950926D02*
X112920237Y-81017593D01*
X112920237Y-81017593D02*
X112920237Y-81184260D01*
X112920237Y-81184260D02*
X112894047Y-81250926D01*
X112894047Y-81250926D02*
X112867856Y-81284260D01*
X112867856Y-81284260D02*
X112815475Y-81317593D01*
X112815475Y-81317593D02*
X112658332Y-81317593D01*
X112658332Y-81317593D02*
X112605951Y-81284260D01*
X112605951Y-81284260D02*
X112579761Y-81250926D01*
X113444047Y-81317593D02*
X113129761Y-81317593D01*
X113286904Y-81317593D02*
X113286904Y-80617593D01*
X113286904Y-80617593D02*
X113234523Y-80717593D01*
X113234523Y-80717593D02*
X113182142Y-80784260D01*
X113182142Y-80784260D02*
X113129761Y-80817593D01*
X116646428Y-81367593D02*
X116463094Y-81034260D01*
X116332142Y-81367593D02*
X116332142Y-80667593D01*
X116332142Y-80667593D02*
X116541666Y-80667593D01*
X116541666Y-80667593D02*
X116594047Y-80700926D01*
X116594047Y-80700926D02*
X116620237Y-80734260D01*
X116620237Y-80734260D02*
X116646428Y-80800926D01*
X116646428Y-80800926D02*
X116646428Y-80900926D01*
X116646428Y-80900926D02*
X116620237Y-80967593D01*
X116620237Y-80967593D02*
X116594047Y-81000926D01*
X116594047Y-81000926D02*
X116541666Y-81034260D01*
X116541666Y-81034260D02*
X116332142Y-81034260D01*
X116855951Y-80734260D02*
X116882142Y-80700926D01*
X116882142Y-80700926D02*
X116934523Y-80667593D01*
X116934523Y-80667593D02*
X117065475Y-80667593D01*
X117065475Y-80667593D02*
X117117856Y-80700926D01*
X117117856Y-80700926D02*
X117144047Y-80734260D01*
X117144047Y-80734260D02*
X117170237Y-80800926D01*
X117170237Y-80800926D02*
X117170237Y-80867593D01*
X117170237Y-80867593D02*
X117144047Y-80967593D01*
X117144047Y-80967593D02*
X116829761Y-81367593D01*
X116829761Y-81367593D02*
X117170237Y-81367593D01*
X117353571Y-80667593D02*
X117720238Y-80667593D01*
X117720238Y-80667593D02*
X117484523Y-81367593D01*
D11*
X115883333Y-94008557D02*
X115650000Y-93579985D01*
X115483333Y-94008557D02*
X115483333Y-93108557D01*
X115483333Y-93108557D02*
X115750000Y-93108557D01*
X115750000Y-93108557D02*
X115816667Y-93151414D01*
X115816667Y-93151414D02*
X115850000Y-93194271D01*
X115850000Y-93194271D02*
X115883333Y-93279985D01*
X115883333Y-93279985D02*
X115883333Y-93408557D01*
X115883333Y-93408557D02*
X115850000Y-93494271D01*
X115850000Y-93494271D02*
X115816667Y-93537128D01*
X115816667Y-93537128D02*
X115750000Y-93579985D01*
X115750000Y-93579985D02*
X115483333Y-93579985D01*
X116483333Y-93108557D02*
X116350000Y-93108557D01*
X116350000Y-93108557D02*
X116283333Y-93151414D01*
X116283333Y-93151414D02*
X116250000Y-93194271D01*
X116250000Y-93194271D02*
X116183333Y-93322842D01*
X116183333Y-93322842D02*
X116150000Y-93494271D01*
X116150000Y-93494271D02*
X116150000Y-93837128D01*
X116150000Y-93837128D02*
X116183333Y-93922842D01*
X116183333Y-93922842D02*
X116216667Y-93965700D01*
X116216667Y-93965700D02*
X116283333Y-94008557D01*
X116283333Y-94008557D02*
X116416667Y-94008557D01*
X116416667Y-94008557D02*
X116483333Y-93965700D01*
X116483333Y-93965700D02*
X116516667Y-93922842D01*
X116516667Y-93922842D02*
X116550000Y-93837128D01*
X116550000Y-93837128D02*
X116550000Y-93622842D01*
X116550000Y-93622842D02*
X116516667Y-93537128D01*
X116516667Y-93537128D02*
X116483333Y-93494271D01*
X116483333Y-93494271D02*
X116416667Y-93451414D01*
X116416667Y-93451414D02*
X116283333Y-93451414D01*
X116283333Y-93451414D02*
X116216667Y-93494271D01*
X116216667Y-93494271D02*
X116183333Y-93537128D01*
X116183333Y-93537128D02*
X116150000Y-93622842D01*
X123133333Y-94072842D02*
X123100000Y-94115700D01*
X123100000Y-94115700D02*
X123000000Y-94158557D01*
X123000000Y-94158557D02*
X122933333Y-94158557D01*
X122933333Y-94158557D02*
X122833333Y-94115700D01*
X122833333Y-94115700D02*
X122766667Y-94029985D01*
X122766667Y-94029985D02*
X122733333Y-93944271D01*
X122733333Y-93944271D02*
X122700000Y-93772842D01*
X122700000Y-93772842D02*
X122700000Y-93644271D01*
X122700000Y-93644271D02*
X122733333Y-93472842D01*
X122733333Y-93472842D02*
X122766667Y-93387128D01*
X122766667Y-93387128D02*
X122833333Y-93301414D01*
X122833333Y-93301414D02*
X122933333Y-93258557D01*
X122933333Y-93258557D02*
X123000000Y-93258557D01*
X123000000Y-93258557D02*
X123100000Y-93301414D01*
X123100000Y-93301414D02*
X123133333Y-93344271D01*
X123366667Y-93258557D02*
X123800000Y-93258557D01*
X123800000Y-93258557D02*
X123566667Y-93601414D01*
X123566667Y-93601414D02*
X123666667Y-93601414D01*
X123666667Y-93601414D02*
X123733333Y-93644271D01*
X123733333Y-93644271D02*
X123766667Y-93687128D01*
X123766667Y-93687128D02*
X123800000Y-93772842D01*
X123800000Y-93772842D02*
X123800000Y-93987128D01*
X123800000Y-93987128D02*
X123766667Y-94072842D01*
X123766667Y-94072842D02*
X123733333Y-94115700D01*
X123733333Y-94115700D02*
X123666667Y-94158557D01*
X123666667Y-94158557D02*
X123466667Y-94158557D01*
X123466667Y-94158557D02*
X123400000Y-94115700D01*
X123400000Y-94115700D02*
X123366667Y-94072842D01*
X123133333Y-86572842D02*
X123100000Y-86615700D01*
X123100000Y-86615700D02*
X123000000Y-86658557D01*
X123000000Y-86658557D02*
X122933333Y-86658557D01*
X122933333Y-86658557D02*
X122833333Y-86615700D01*
X122833333Y-86615700D02*
X122766667Y-86529985D01*
X122766667Y-86529985D02*
X122733333Y-86444271D01*
X122733333Y-86444271D02*
X122700000Y-86272842D01*
X122700000Y-86272842D02*
X122700000Y-86144271D01*
X122700000Y-86144271D02*
X122733333Y-85972842D01*
X122733333Y-85972842D02*
X122766667Y-85887128D01*
X122766667Y-85887128D02*
X122833333Y-85801414D01*
X122833333Y-85801414D02*
X122933333Y-85758557D01*
X122933333Y-85758557D02*
X123000000Y-85758557D01*
X123000000Y-85758557D02*
X123100000Y-85801414D01*
X123100000Y-85801414D02*
X123133333Y-85844271D01*
X123400000Y-85844271D02*
X123433333Y-85801414D01*
X123433333Y-85801414D02*
X123500000Y-85758557D01*
X123500000Y-85758557D02*
X123666667Y-85758557D01*
X123666667Y-85758557D02*
X123733333Y-85801414D01*
X123733333Y-85801414D02*
X123766667Y-85844271D01*
X123766667Y-85844271D02*
X123800000Y-85929985D01*
X123800000Y-85929985D02*
X123800000Y-86015700D01*
X123800000Y-86015700D02*
X123766667Y-86144271D01*
X123766667Y-86144271D02*
X123366667Y-86658557D01*
X123366667Y-86658557D02*
X123800000Y-86658557D01*
X117883333Y-93922842D02*
X117850000Y-93965700D01*
X117850000Y-93965700D02*
X117750000Y-94008557D01*
X117750000Y-94008557D02*
X117683333Y-94008557D01*
X117683333Y-94008557D02*
X117583333Y-93965700D01*
X117583333Y-93965700D02*
X117516667Y-93879985D01*
X117516667Y-93879985D02*
X117483333Y-93794271D01*
X117483333Y-93794271D02*
X117450000Y-93622842D01*
X117450000Y-93622842D02*
X117450000Y-93494271D01*
X117450000Y-93494271D02*
X117483333Y-93322842D01*
X117483333Y-93322842D02*
X117516667Y-93237128D01*
X117516667Y-93237128D02*
X117583333Y-93151414D01*
X117583333Y-93151414D02*
X117683333Y-93108557D01*
X117683333Y-93108557D02*
X117750000Y-93108557D01*
X117750000Y-93108557D02*
X117850000Y-93151414D01*
X117850000Y-93151414D02*
X117883333Y-93194271D01*
X118550000Y-94008557D02*
X118150000Y-94008557D01*
X118350000Y-94008557D02*
X118350000Y-93108557D01*
X118350000Y-93108557D02*
X118283333Y-93237128D01*
X118283333Y-93237128D02*
X118216667Y-93322842D01*
X118216667Y-93322842D02*
X118150000Y-93365700D01*
D13*
X120896428Y-55817593D02*
X120713094Y-55484260D01*
X120582142Y-55817593D02*
X120582142Y-55117593D01*
X120582142Y-55117593D02*
X120791666Y-55117593D01*
X120791666Y-55117593D02*
X120844047Y-55150926D01*
X120844047Y-55150926D02*
X120870237Y-55184260D01*
X120870237Y-55184260D02*
X120896428Y-55250926D01*
X120896428Y-55250926D02*
X120896428Y-55350926D01*
X120896428Y-55350926D02*
X120870237Y-55417593D01*
X120870237Y-55417593D02*
X120844047Y-55450926D01*
X120844047Y-55450926D02*
X120791666Y-55484260D01*
X120791666Y-55484260D02*
X120582142Y-55484260D01*
X121105951Y-55184260D02*
X121132142Y-55150926D01*
X121132142Y-55150926D02*
X121184523Y-55117593D01*
X121184523Y-55117593D02*
X121315475Y-55117593D01*
X121315475Y-55117593D02*
X121367856Y-55150926D01*
X121367856Y-55150926D02*
X121394047Y-55184260D01*
X121394047Y-55184260D02*
X121420237Y-55250926D01*
X121420237Y-55250926D02*
X121420237Y-55317593D01*
X121420237Y-55317593D02*
X121394047Y-55417593D01*
X121394047Y-55417593D02*
X121079761Y-55817593D01*
X121079761Y-55817593D02*
X121420237Y-55817593D01*
X121891666Y-55117593D02*
X121786904Y-55117593D01*
X121786904Y-55117593D02*
X121734523Y-55150926D01*
X121734523Y-55150926D02*
X121708333Y-55184260D01*
X121708333Y-55184260D02*
X121655952Y-55284260D01*
X121655952Y-55284260D02*
X121629761Y-55417593D01*
X121629761Y-55417593D02*
X121629761Y-55684260D01*
X121629761Y-55684260D02*
X121655952Y-55750926D01*
X121655952Y-55750926D02*
X121682142Y-55784260D01*
X121682142Y-55784260D02*
X121734523Y-55817593D01*
X121734523Y-55817593D02*
X121839285Y-55817593D01*
X121839285Y-55817593D02*
X121891666Y-55784260D01*
X121891666Y-55784260D02*
X121917857Y-55750926D01*
X121917857Y-55750926D02*
X121944047Y-55684260D01*
X121944047Y-55684260D02*
X121944047Y-55517593D01*
X121944047Y-55517593D02*
X121917857Y-55450926D01*
X121917857Y-55450926D02*
X121891666Y-55417593D01*
X121891666Y-55417593D02*
X121839285Y-55384260D01*
X121839285Y-55384260D02*
X121734523Y-55384260D01*
X121734523Y-55384260D02*
X121682142Y-55417593D01*
X121682142Y-55417593D02*
X121655952Y-55450926D01*
X121655952Y-55450926D02*
X121629761Y-55517593D01*
D11*
X105408557Y-52950000D02*
X104979985Y-53183333D01*
X105408557Y-53350000D02*
X104508557Y-53350000D01*
X104508557Y-53350000D02*
X104508557Y-53083333D01*
X104508557Y-53083333D02*
X104551414Y-53016667D01*
X104551414Y-53016667D02*
X104594271Y-52983333D01*
X104594271Y-52983333D02*
X104679985Y-52950000D01*
X104679985Y-52950000D02*
X104808557Y-52950000D01*
X104808557Y-52950000D02*
X104894271Y-52983333D01*
X104894271Y-52983333D02*
X104937128Y-53016667D01*
X104937128Y-53016667D02*
X104979985Y-53083333D01*
X104979985Y-53083333D02*
X104979985Y-53350000D01*
X104594271Y-52683333D02*
X104551414Y-52650000D01*
X104551414Y-52650000D02*
X104508557Y-52583333D01*
X104508557Y-52583333D02*
X104508557Y-52416667D01*
X104508557Y-52416667D02*
X104551414Y-52350000D01*
X104551414Y-52350000D02*
X104594271Y-52316667D01*
X104594271Y-52316667D02*
X104679985Y-52283333D01*
X104679985Y-52283333D02*
X104765700Y-52283333D01*
X104765700Y-52283333D02*
X104894271Y-52316667D01*
X104894271Y-52316667D02*
X105408557Y-52716667D01*
X105408557Y-52716667D02*
X105408557Y-52283333D01*
X105408557Y-51616666D02*
X105408557Y-52016666D01*
X105408557Y-51816666D02*
X104508557Y-51816666D01*
X104508557Y-51816666D02*
X104637128Y-51883333D01*
X104637128Y-51883333D02*
X104722842Y-51950000D01*
X104722842Y-51950000D02*
X104765700Y-52016666D01*
X107908557Y-52950000D02*
X107479985Y-53183333D01*
X107908557Y-53350000D02*
X107008557Y-53350000D01*
X107008557Y-53350000D02*
X107008557Y-53083333D01*
X107008557Y-53083333D02*
X107051414Y-53016667D01*
X107051414Y-53016667D02*
X107094271Y-52983333D01*
X107094271Y-52983333D02*
X107179985Y-52950000D01*
X107179985Y-52950000D02*
X107308557Y-52950000D01*
X107308557Y-52950000D02*
X107394271Y-52983333D01*
X107394271Y-52983333D02*
X107437128Y-53016667D01*
X107437128Y-53016667D02*
X107479985Y-53083333D01*
X107479985Y-53083333D02*
X107479985Y-53350000D01*
X107908557Y-52283333D02*
X107908557Y-52683333D01*
X107908557Y-52483333D02*
X107008557Y-52483333D01*
X107008557Y-52483333D02*
X107137128Y-52550000D01*
X107137128Y-52550000D02*
X107222842Y-52616667D01*
X107222842Y-52616667D02*
X107265700Y-52683333D01*
X107008557Y-51683333D02*
X107008557Y-51816666D01*
X107008557Y-51816666D02*
X107051414Y-51883333D01*
X107051414Y-51883333D02*
X107094271Y-51916666D01*
X107094271Y-51916666D02*
X107222842Y-51983333D01*
X107222842Y-51983333D02*
X107394271Y-52016666D01*
X107394271Y-52016666D02*
X107737128Y-52016666D01*
X107737128Y-52016666D02*
X107822842Y-51983333D01*
X107822842Y-51983333D02*
X107865700Y-51950000D01*
X107865700Y-51950000D02*
X107908557Y-51883333D01*
X107908557Y-51883333D02*
X107908557Y-51750000D01*
X107908557Y-51750000D02*
X107865700Y-51683333D01*
X107865700Y-51683333D02*
X107822842Y-51650000D01*
X107822842Y-51650000D02*
X107737128Y-51616666D01*
X107737128Y-51616666D02*
X107522842Y-51616666D01*
X107522842Y-51616666D02*
X107437128Y-51650000D01*
X107437128Y-51650000D02*
X107394271Y-51683333D01*
X107394271Y-51683333D02*
X107351414Y-51750000D01*
X107351414Y-51750000D02*
X107351414Y-51883333D01*
X107351414Y-51883333D02*
X107394271Y-51950000D01*
X107394271Y-51950000D02*
X107437128Y-51983333D01*
X107437128Y-51983333D02*
X107522842Y-52016666D01*
X103549999Y-58158557D02*
X103316666Y-57729985D01*
X103149999Y-58158557D02*
X103149999Y-57258557D01*
X103149999Y-57258557D02*
X103416666Y-57258557D01*
X103416666Y-57258557D02*
X103483333Y-57301414D01*
X103483333Y-57301414D02*
X103516666Y-57344271D01*
X103516666Y-57344271D02*
X103549999Y-57429985D01*
X103549999Y-57429985D02*
X103549999Y-57558557D01*
X103549999Y-57558557D02*
X103516666Y-57644271D01*
X103516666Y-57644271D02*
X103483333Y-57687128D01*
X103483333Y-57687128D02*
X103416666Y-57729985D01*
X103416666Y-57729985D02*
X103149999Y-57729985D01*
X104216666Y-58158557D02*
X103816666Y-58158557D01*
X104016666Y-58158557D02*
X104016666Y-57258557D01*
X104016666Y-57258557D02*
X103949999Y-57387128D01*
X103949999Y-57387128D02*
X103883333Y-57472842D01*
X103883333Y-57472842D02*
X103816666Y-57515700D01*
X104550000Y-58158557D02*
X104683333Y-58158557D01*
X104683333Y-58158557D02*
X104750000Y-58115700D01*
X104750000Y-58115700D02*
X104783333Y-58072842D01*
X104783333Y-58072842D02*
X104850000Y-57944271D01*
X104850000Y-57944271D02*
X104883333Y-57772842D01*
X104883333Y-57772842D02*
X104883333Y-57429985D01*
X104883333Y-57429985D02*
X104850000Y-57344271D01*
X104850000Y-57344271D02*
X104816666Y-57301414D01*
X104816666Y-57301414D02*
X104750000Y-57258557D01*
X104750000Y-57258557D02*
X104616666Y-57258557D01*
X104616666Y-57258557D02*
X104550000Y-57301414D01*
X104550000Y-57301414D02*
X104516666Y-57344271D01*
X104516666Y-57344271D02*
X104483333Y-57429985D01*
X104483333Y-57429985D02*
X104483333Y-57644271D01*
X104483333Y-57644271D02*
X104516666Y-57729985D01*
X104516666Y-57729985D02*
X104550000Y-57772842D01*
X104550000Y-57772842D02*
X104616666Y-57815700D01*
X104616666Y-57815700D02*
X104750000Y-57815700D01*
X104750000Y-57815700D02*
X104816666Y-57772842D01*
X104816666Y-57772842D02*
X104850000Y-57729985D01*
X104850000Y-57729985D02*
X104883333Y-57644271D01*
X131108333Y-47883557D02*
X130774999Y-47883557D01*
X130774999Y-47883557D02*
X130774999Y-46983557D01*
X131275000Y-46983557D02*
X131708333Y-46983557D01*
X131708333Y-46983557D02*
X131475000Y-47326414D01*
X131475000Y-47326414D02*
X131575000Y-47326414D01*
X131575000Y-47326414D02*
X131641666Y-47369271D01*
X131641666Y-47369271D02*
X131675000Y-47412128D01*
X131675000Y-47412128D02*
X131708333Y-47497842D01*
X131708333Y-47497842D02*
X131708333Y-47712128D01*
X131708333Y-47712128D02*
X131675000Y-47797842D01*
X131675000Y-47797842D02*
X131641666Y-47840700D01*
X131641666Y-47840700D02*
X131575000Y-47883557D01*
X131575000Y-47883557D02*
X131375000Y-47883557D01*
X131375000Y-47883557D02*
X131308333Y-47840700D01*
X131308333Y-47840700D02*
X131275000Y-47797842D01*
X123133333Y-88158557D02*
X122900000Y-87729985D01*
X122733333Y-88158557D02*
X122733333Y-87258557D01*
X122733333Y-87258557D02*
X123000000Y-87258557D01*
X123000000Y-87258557D02*
X123066667Y-87301414D01*
X123066667Y-87301414D02*
X123100000Y-87344271D01*
X123100000Y-87344271D02*
X123133333Y-87429985D01*
X123133333Y-87429985D02*
X123133333Y-87558557D01*
X123133333Y-87558557D02*
X123100000Y-87644271D01*
X123100000Y-87644271D02*
X123066667Y-87687128D01*
X123066667Y-87687128D02*
X123000000Y-87729985D01*
X123000000Y-87729985D02*
X122733333Y-87729985D01*
X123366667Y-87258557D02*
X123800000Y-87258557D01*
X123800000Y-87258557D02*
X123566667Y-87601414D01*
X123566667Y-87601414D02*
X123666667Y-87601414D01*
X123666667Y-87601414D02*
X123733333Y-87644271D01*
X123733333Y-87644271D02*
X123766667Y-87687128D01*
X123766667Y-87687128D02*
X123800000Y-87772842D01*
X123800000Y-87772842D02*
X123800000Y-87987128D01*
X123800000Y-87987128D02*
X123766667Y-88072842D01*
X123766667Y-88072842D02*
X123733333Y-88115700D01*
X123733333Y-88115700D02*
X123666667Y-88158557D01*
X123666667Y-88158557D02*
X123466667Y-88158557D01*
X123466667Y-88158557D02*
X123400000Y-88115700D01*
X123400000Y-88115700D02*
X123366667Y-88072842D01*
D13*
X112317593Y-60103571D02*
X111984260Y-60286905D01*
X112317593Y-60417857D02*
X111617593Y-60417857D01*
X111617593Y-60417857D02*
X111617593Y-60208333D01*
X111617593Y-60208333D02*
X111650926Y-60155952D01*
X111650926Y-60155952D02*
X111684260Y-60129762D01*
X111684260Y-60129762D02*
X111750926Y-60103571D01*
X111750926Y-60103571D02*
X111850926Y-60103571D01*
X111850926Y-60103571D02*
X111917593Y-60129762D01*
X111917593Y-60129762D02*
X111950926Y-60155952D01*
X111950926Y-60155952D02*
X111984260Y-60208333D01*
X111984260Y-60208333D02*
X111984260Y-60417857D01*
X112317593Y-59579762D02*
X112317593Y-59894048D01*
X112317593Y-59736905D02*
X111617593Y-59736905D01*
X111617593Y-59736905D02*
X111717593Y-59789286D01*
X111717593Y-59789286D02*
X111784260Y-59841667D01*
X111784260Y-59841667D02*
X111817593Y-59894048D01*
X111917593Y-59265476D02*
X111884260Y-59317857D01*
X111884260Y-59317857D02*
X111850926Y-59344047D01*
X111850926Y-59344047D02*
X111784260Y-59370238D01*
X111784260Y-59370238D02*
X111750926Y-59370238D01*
X111750926Y-59370238D02*
X111684260Y-59344047D01*
X111684260Y-59344047D02*
X111650926Y-59317857D01*
X111650926Y-59317857D02*
X111617593Y-59265476D01*
X111617593Y-59265476D02*
X111617593Y-59160714D01*
X111617593Y-59160714D02*
X111650926Y-59108333D01*
X111650926Y-59108333D02*
X111684260Y-59082142D01*
X111684260Y-59082142D02*
X111750926Y-59055952D01*
X111750926Y-59055952D02*
X111784260Y-59055952D01*
X111784260Y-59055952D02*
X111850926Y-59082142D01*
X111850926Y-59082142D02*
X111884260Y-59108333D01*
X111884260Y-59108333D02*
X111917593Y-59160714D01*
X111917593Y-59160714D02*
X111917593Y-59265476D01*
X111917593Y-59265476D02*
X111950926Y-59317857D01*
X111950926Y-59317857D02*
X111984260Y-59344047D01*
X111984260Y-59344047D02*
X112050926Y-59370238D01*
X112050926Y-59370238D02*
X112184260Y-59370238D01*
X112184260Y-59370238D02*
X112250926Y-59344047D01*
X112250926Y-59344047D02*
X112284260Y-59317857D01*
X112284260Y-59317857D02*
X112317593Y-59265476D01*
X112317593Y-59265476D02*
X112317593Y-59160714D01*
X112317593Y-59160714D02*
X112284260Y-59108333D01*
X112284260Y-59108333D02*
X112250926Y-59082142D01*
X112250926Y-59082142D02*
X112184260Y-59055952D01*
X112184260Y-59055952D02*
X112050926Y-59055952D01*
X112050926Y-59055952D02*
X111984260Y-59082142D01*
X111984260Y-59082142D02*
X111950926Y-59108333D01*
X111950926Y-59108333D02*
X111917593Y-59160714D01*
D11*
X104133333Y-65822842D02*
X104100000Y-65865700D01*
X104100000Y-65865700D02*
X104000000Y-65908557D01*
X104000000Y-65908557D02*
X103933333Y-65908557D01*
X103933333Y-65908557D02*
X103833333Y-65865700D01*
X103833333Y-65865700D02*
X103766667Y-65779985D01*
X103766667Y-65779985D02*
X103733333Y-65694271D01*
X103733333Y-65694271D02*
X103700000Y-65522842D01*
X103700000Y-65522842D02*
X103700000Y-65394271D01*
X103700000Y-65394271D02*
X103733333Y-65222842D01*
X103733333Y-65222842D02*
X103766667Y-65137128D01*
X103766667Y-65137128D02*
X103833333Y-65051414D01*
X103833333Y-65051414D02*
X103933333Y-65008557D01*
X103933333Y-65008557D02*
X104000000Y-65008557D01*
X104000000Y-65008557D02*
X104100000Y-65051414D01*
X104100000Y-65051414D02*
X104133333Y-65094271D01*
X104366667Y-65008557D02*
X104833333Y-65008557D01*
X104833333Y-65008557D02*
X104533333Y-65908557D01*
X110216666Y-86258557D02*
X110216666Y-86987128D01*
X110216666Y-86987128D02*
X110250000Y-87072842D01*
X110250000Y-87072842D02*
X110283333Y-87115700D01*
X110283333Y-87115700D02*
X110350000Y-87158557D01*
X110350000Y-87158557D02*
X110483333Y-87158557D01*
X110483333Y-87158557D02*
X110550000Y-87115700D01*
X110550000Y-87115700D02*
X110583333Y-87072842D01*
X110583333Y-87072842D02*
X110616666Y-86987128D01*
X110616666Y-86987128D02*
X110616666Y-86258557D01*
X111283333Y-86258557D02*
X110949999Y-86258557D01*
X110949999Y-86258557D02*
X110916666Y-86687128D01*
X110916666Y-86687128D02*
X110949999Y-86644271D01*
X110949999Y-86644271D02*
X111016666Y-86601414D01*
X111016666Y-86601414D02*
X111183333Y-86601414D01*
X111183333Y-86601414D02*
X111249999Y-86644271D01*
X111249999Y-86644271D02*
X111283333Y-86687128D01*
X111283333Y-86687128D02*
X111316666Y-86772842D01*
X111316666Y-86772842D02*
X111316666Y-86987128D01*
X111316666Y-86987128D02*
X111283333Y-87072842D01*
X111283333Y-87072842D02*
X111249999Y-87115700D01*
X111249999Y-87115700D02*
X111183333Y-87158557D01*
X111183333Y-87158557D02*
X111016666Y-87158557D01*
X111016666Y-87158557D02*
X110949999Y-87115700D01*
X110949999Y-87115700D02*
X110916666Y-87072842D01*
X137572842Y-85450000D02*
X137615700Y-85483333D01*
X137615700Y-85483333D02*
X137658557Y-85583333D01*
X137658557Y-85583333D02*
X137658557Y-85650000D01*
X137658557Y-85650000D02*
X137615700Y-85750000D01*
X137615700Y-85750000D02*
X137529985Y-85816667D01*
X137529985Y-85816667D02*
X137444271Y-85850000D01*
X137444271Y-85850000D02*
X137272842Y-85883333D01*
X137272842Y-85883333D02*
X137144271Y-85883333D01*
X137144271Y-85883333D02*
X136972842Y-85850000D01*
X136972842Y-85850000D02*
X136887128Y-85816667D01*
X136887128Y-85816667D02*
X136801414Y-85750000D01*
X136801414Y-85750000D02*
X136758557Y-85650000D01*
X136758557Y-85650000D02*
X136758557Y-85583333D01*
X136758557Y-85583333D02*
X136801414Y-85483333D01*
X136801414Y-85483333D02*
X136844271Y-85450000D01*
X136758557Y-85216667D02*
X136758557Y-84783333D01*
X136758557Y-84783333D02*
X137101414Y-85016667D01*
X137101414Y-85016667D02*
X137101414Y-84916667D01*
X137101414Y-84916667D02*
X137144271Y-84850000D01*
X137144271Y-84850000D02*
X137187128Y-84816667D01*
X137187128Y-84816667D02*
X137272842Y-84783333D01*
X137272842Y-84783333D02*
X137487128Y-84783333D01*
X137487128Y-84783333D02*
X137572842Y-84816667D01*
X137572842Y-84816667D02*
X137615700Y-84850000D01*
X137615700Y-84850000D02*
X137658557Y-84916667D01*
X137658557Y-84916667D02*
X137658557Y-85116667D01*
X137658557Y-85116667D02*
X137615700Y-85183333D01*
X137615700Y-85183333D02*
X137572842Y-85216667D01*
X137058557Y-84183333D02*
X137658557Y-84183333D01*
X136715700Y-84350000D02*
X137358557Y-84516666D01*
X137358557Y-84516666D02*
X137358557Y-84083333D01*
X129083333Y-72158557D02*
X128749999Y-72158557D01*
X128749999Y-72158557D02*
X128749999Y-71258557D01*
X129283333Y-71344271D02*
X129316666Y-71301414D01*
X129316666Y-71301414D02*
X129383333Y-71258557D01*
X129383333Y-71258557D02*
X129550000Y-71258557D01*
X129550000Y-71258557D02*
X129616666Y-71301414D01*
X129616666Y-71301414D02*
X129650000Y-71344271D01*
X129650000Y-71344271D02*
X129683333Y-71429985D01*
X129683333Y-71429985D02*
X129683333Y-71515700D01*
X129683333Y-71515700D02*
X129650000Y-71644271D01*
X129650000Y-71644271D02*
X129250000Y-72158557D01*
X129250000Y-72158557D02*
X129683333Y-72158557D01*
X123633333Y-83908557D02*
X123400000Y-83479985D01*
X123233333Y-83908557D02*
X123233333Y-83008557D01*
X123233333Y-83008557D02*
X123500000Y-83008557D01*
X123500000Y-83008557D02*
X123566667Y-83051414D01*
X123566667Y-83051414D02*
X123600000Y-83094271D01*
X123600000Y-83094271D02*
X123633333Y-83179985D01*
X123633333Y-83179985D02*
X123633333Y-83308557D01*
X123633333Y-83308557D02*
X123600000Y-83394271D01*
X123600000Y-83394271D02*
X123566667Y-83437128D01*
X123566667Y-83437128D02*
X123500000Y-83479985D01*
X123500000Y-83479985D02*
X123233333Y-83479985D01*
X123866667Y-83008557D02*
X124333333Y-83008557D01*
X124333333Y-83008557D02*
X124033333Y-83908557D01*
X101216666Y-73658557D02*
X100983333Y-73229985D01*
X100816666Y-73658557D02*
X100816666Y-72758557D01*
X100816666Y-72758557D02*
X101083333Y-72758557D01*
X101083333Y-72758557D02*
X101150000Y-72801414D01*
X101150000Y-72801414D02*
X101183333Y-72844271D01*
X101183333Y-72844271D02*
X101216666Y-72929985D01*
X101216666Y-72929985D02*
X101216666Y-73058557D01*
X101216666Y-73058557D02*
X101183333Y-73144271D01*
X101183333Y-73144271D02*
X101150000Y-73187128D01*
X101150000Y-73187128D02*
X101083333Y-73229985D01*
X101083333Y-73229985D02*
X100816666Y-73229985D01*
X101883333Y-73658557D02*
X101483333Y-73658557D01*
X101683333Y-73658557D02*
X101683333Y-72758557D01*
X101683333Y-72758557D02*
X101616666Y-72887128D01*
X101616666Y-72887128D02*
X101550000Y-72972842D01*
X101550000Y-72972842D02*
X101483333Y-73015700D01*
X102483333Y-73058557D02*
X102483333Y-73658557D01*
X102316667Y-72715700D02*
X102150000Y-73358557D01*
X102150000Y-73358557D02*
X102583333Y-73358557D01*
X125633333Y-88658557D02*
X125400000Y-88229985D01*
X125233333Y-88658557D02*
X125233333Y-87758557D01*
X125233333Y-87758557D02*
X125500000Y-87758557D01*
X125500000Y-87758557D02*
X125566667Y-87801414D01*
X125566667Y-87801414D02*
X125600000Y-87844271D01*
X125600000Y-87844271D02*
X125633333Y-87929985D01*
X125633333Y-87929985D02*
X125633333Y-88058557D01*
X125633333Y-88058557D02*
X125600000Y-88144271D01*
X125600000Y-88144271D02*
X125566667Y-88187128D01*
X125566667Y-88187128D02*
X125500000Y-88229985D01*
X125500000Y-88229985D02*
X125233333Y-88229985D01*
X125966667Y-88658557D02*
X126100000Y-88658557D01*
X126100000Y-88658557D02*
X126166667Y-88615700D01*
X126166667Y-88615700D02*
X126200000Y-88572842D01*
X126200000Y-88572842D02*
X126266667Y-88444271D01*
X126266667Y-88444271D02*
X126300000Y-88272842D01*
X126300000Y-88272842D02*
X126300000Y-87929985D01*
X126300000Y-87929985D02*
X126266667Y-87844271D01*
X126266667Y-87844271D02*
X126233333Y-87801414D01*
X126233333Y-87801414D02*
X126166667Y-87758557D01*
X126166667Y-87758557D02*
X126033333Y-87758557D01*
X126033333Y-87758557D02*
X125966667Y-87801414D01*
X125966667Y-87801414D02*
X125933333Y-87844271D01*
X125933333Y-87844271D02*
X125900000Y-87929985D01*
X125900000Y-87929985D02*
X125900000Y-88144271D01*
X125900000Y-88144271D02*
X125933333Y-88229985D01*
X125933333Y-88229985D02*
X125966667Y-88272842D01*
X125966667Y-88272842D02*
X126033333Y-88315700D01*
X126033333Y-88315700D02*
X126166667Y-88315700D01*
X126166667Y-88315700D02*
X126233333Y-88272842D01*
X126233333Y-88272842D02*
X126266667Y-88229985D01*
X126266667Y-88229985D02*
X126300000Y-88144271D01*
X123133333Y-89658557D02*
X122900000Y-89229985D01*
X122733333Y-89658557D02*
X122733333Y-88758557D01*
X122733333Y-88758557D02*
X123000000Y-88758557D01*
X123000000Y-88758557D02*
X123066667Y-88801414D01*
X123066667Y-88801414D02*
X123100000Y-88844271D01*
X123100000Y-88844271D02*
X123133333Y-88929985D01*
X123133333Y-88929985D02*
X123133333Y-89058557D01*
X123133333Y-89058557D02*
X123100000Y-89144271D01*
X123100000Y-89144271D02*
X123066667Y-89187128D01*
X123066667Y-89187128D02*
X123000000Y-89229985D01*
X123000000Y-89229985D02*
X122733333Y-89229985D01*
X123766667Y-88758557D02*
X123433333Y-88758557D01*
X123433333Y-88758557D02*
X123400000Y-89187128D01*
X123400000Y-89187128D02*
X123433333Y-89144271D01*
X123433333Y-89144271D02*
X123500000Y-89101414D01*
X123500000Y-89101414D02*
X123666667Y-89101414D01*
X123666667Y-89101414D02*
X123733333Y-89144271D01*
X123733333Y-89144271D02*
X123766667Y-89187128D01*
X123766667Y-89187128D02*
X123800000Y-89272842D01*
X123800000Y-89272842D02*
X123800000Y-89487128D01*
X123800000Y-89487128D02*
X123766667Y-89572842D01*
X123766667Y-89572842D02*
X123733333Y-89615700D01*
X123733333Y-89615700D02*
X123666667Y-89658557D01*
X123666667Y-89658557D02*
X123500000Y-89658557D01*
X123500000Y-89658557D02*
X123433333Y-89615700D01*
X123433333Y-89615700D02*
X123400000Y-89572842D01*
X125216666Y-91758557D02*
X125216666Y-92487128D01*
X125216666Y-92487128D02*
X125250000Y-92572842D01*
X125250000Y-92572842D02*
X125283333Y-92615700D01*
X125283333Y-92615700D02*
X125350000Y-92658557D01*
X125350000Y-92658557D02*
X125483333Y-92658557D01*
X125483333Y-92658557D02*
X125550000Y-92615700D01*
X125550000Y-92615700D02*
X125583333Y-92572842D01*
X125583333Y-92572842D02*
X125616666Y-92487128D01*
X125616666Y-92487128D02*
X125616666Y-91758557D01*
X125916666Y-91844271D02*
X125949999Y-91801414D01*
X125949999Y-91801414D02*
X126016666Y-91758557D01*
X126016666Y-91758557D02*
X126183333Y-91758557D01*
X126183333Y-91758557D02*
X126249999Y-91801414D01*
X126249999Y-91801414D02*
X126283333Y-91844271D01*
X126283333Y-91844271D02*
X126316666Y-91929985D01*
X126316666Y-91929985D02*
X126316666Y-92015700D01*
X126316666Y-92015700D02*
X126283333Y-92144271D01*
X126283333Y-92144271D02*
X125883333Y-92658557D01*
X125883333Y-92658557D02*
X126316666Y-92658557D01*
X104133333Y-64572842D02*
X104100000Y-64615700D01*
X104100000Y-64615700D02*
X104000000Y-64658557D01*
X104000000Y-64658557D02*
X103933333Y-64658557D01*
X103933333Y-64658557D02*
X103833333Y-64615700D01*
X103833333Y-64615700D02*
X103766667Y-64529985D01*
X103766667Y-64529985D02*
X103733333Y-64444271D01*
X103733333Y-64444271D02*
X103700000Y-64272842D01*
X103700000Y-64272842D02*
X103700000Y-64144271D01*
X103700000Y-64144271D02*
X103733333Y-63972842D01*
X103733333Y-63972842D02*
X103766667Y-63887128D01*
X103766667Y-63887128D02*
X103833333Y-63801414D01*
X103833333Y-63801414D02*
X103933333Y-63758557D01*
X103933333Y-63758557D02*
X104000000Y-63758557D01*
X104000000Y-63758557D02*
X104100000Y-63801414D01*
X104100000Y-63801414D02*
X104133333Y-63844271D01*
X104733333Y-63758557D02*
X104600000Y-63758557D01*
X104600000Y-63758557D02*
X104533333Y-63801414D01*
X104533333Y-63801414D02*
X104500000Y-63844271D01*
X104500000Y-63844271D02*
X104433333Y-63972842D01*
X104433333Y-63972842D02*
X104400000Y-64144271D01*
X104400000Y-64144271D02*
X104400000Y-64487128D01*
X104400000Y-64487128D02*
X104433333Y-64572842D01*
X104433333Y-64572842D02*
X104466667Y-64615700D01*
X104466667Y-64615700D02*
X104533333Y-64658557D01*
X104533333Y-64658557D02*
X104666667Y-64658557D01*
X104666667Y-64658557D02*
X104733333Y-64615700D01*
X104733333Y-64615700D02*
X104766667Y-64572842D01*
X104766667Y-64572842D02*
X104800000Y-64487128D01*
X104800000Y-64487128D02*
X104800000Y-64272842D01*
X104800000Y-64272842D02*
X104766667Y-64187128D01*
X104766667Y-64187128D02*
X104733333Y-64144271D01*
X104733333Y-64144271D02*
X104666667Y-64101414D01*
X104666667Y-64101414D02*
X104533333Y-64101414D01*
X104533333Y-64101414D02*
X104466667Y-64144271D01*
X104466667Y-64144271D02*
X104433333Y-64187128D01*
X104433333Y-64187128D02*
X104400000Y-64272842D01*
X113666666Y-75308557D02*
X113666666Y-76037128D01*
X113666666Y-76037128D02*
X113700000Y-76122842D01*
X113700000Y-76122842D02*
X113733333Y-76165700D01*
X113733333Y-76165700D02*
X113800000Y-76208557D01*
X113800000Y-76208557D02*
X113933333Y-76208557D01*
X113933333Y-76208557D02*
X114000000Y-76165700D01*
X114000000Y-76165700D02*
X114033333Y-76122842D01*
X114033333Y-76122842D02*
X114066666Y-76037128D01*
X114066666Y-76037128D02*
X114066666Y-75308557D01*
X114699999Y-75608557D02*
X114699999Y-76208557D01*
X114533333Y-75265700D02*
X114366666Y-75908557D01*
X114366666Y-75908557D02*
X114799999Y-75908557D01*
X101216666Y-69322842D02*
X101183333Y-69365700D01*
X101183333Y-69365700D02*
X101083333Y-69408557D01*
X101083333Y-69408557D02*
X101016666Y-69408557D01*
X101016666Y-69408557D02*
X100916666Y-69365700D01*
X100916666Y-69365700D02*
X100850000Y-69279985D01*
X100850000Y-69279985D02*
X100816666Y-69194271D01*
X100816666Y-69194271D02*
X100783333Y-69022842D01*
X100783333Y-69022842D02*
X100783333Y-68894271D01*
X100783333Y-68894271D02*
X100816666Y-68722842D01*
X100816666Y-68722842D02*
X100850000Y-68637128D01*
X100850000Y-68637128D02*
X100916666Y-68551414D01*
X100916666Y-68551414D02*
X101016666Y-68508557D01*
X101016666Y-68508557D02*
X101083333Y-68508557D01*
X101083333Y-68508557D02*
X101183333Y-68551414D01*
X101183333Y-68551414D02*
X101216666Y-68594271D01*
X101883333Y-69408557D02*
X101483333Y-69408557D01*
X101683333Y-69408557D02*
X101683333Y-68508557D01*
X101683333Y-68508557D02*
X101616666Y-68637128D01*
X101616666Y-68637128D02*
X101550000Y-68722842D01*
X101550000Y-68722842D02*
X101483333Y-68765700D01*
X102483333Y-68508557D02*
X102350000Y-68508557D01*
X102350000Y-68508557D02*
X102283333Y-68551414D01*
X102283333Y-68551414D02*
X102250000Y-68594271D01*
X102250000Y-68594271D02*
X102183333Y-68722842D01*
X102183333Y-68722842D02*
X102150000Y-68894271D01*
X102150000Y-68894271D02*
X102150000Y-69237128D01*
X102150000Y-69237128D02*
X102183333Y-69322842D01*
X102183333Y-69322842D02*
X102216667Y-69365700D01*
X102216667Y-69365700D02*
X102283333Y-69408557D01*
X102283333Y-69408557D02*
X102416667Y-69408557D01*
X102416667Y-69408557D02*
X102483333Y-69365700D01*
X102483333Y-69365700D02*
X102516667Y-69322842D01*
X102516667Y-69322842D02*
X102550000Y-69237128D01*
X102550000Y-69237128D02*
X102550000Y-69022842D01*
X102550000Y-69022842D02*
X102516667Y-68937128D01*
X102516667Y-68937128D02*
X102483333Y-68894271D01*
X102483333Y-68894271D02*
X102416667Y-68851414D01*
X102416667Y-68851414D02*
X102283333Y-68851414D01*
X102283333Y-68851414D02*
X102216667Y-68894271D01*
X102216667Y-68894271D02*
X102183333Y-68937128D01*
X102183333Y-68937128D02*
X102150000Y-69022842D01*
D13*
X106963095Y-95817593D02*
X106963095Y-95117593D01*
X107539286Y-95750926D02*
X107513095Y-95784260D01*
X107513095Y-95784260D02*
X107434524Y-95817593D01*
X107434524Y-95817593D02*
X107382143Y-95817593D01*
X107382143Y-95817593D02*
X107303571Y-95784260D01*
X107303571Y-95784260D02*
X107251190Y-95717593D01*
X107251190Y-95717593D02*
X107225000Y-95650926D01*
X107225000Y-95650926D02*
X107198809Y-95517593D01*
X107198809Y-95517593D02*
X107198809Y-95417593D01*
X107198809Y-95417593D02*
X107225000Y-95284260D01*
X107225000Y-95284260D02*
X107251190Y-95217593D01*
X107251190Y-95217593D02*
X107303571Y-95150926D01*
X107303571Y-95150926D02*
X107382143Y-95117593D01*
X107382143Y-95117593D02*
X107434524Y-95117593D01*
X107434524Y-95117593D02*
X107513095Y-95150926D01*
X107513095Y-95150926D02*
X107539286Y-95184260D01*
X108063095Y-95817593D02*
X107748809Y-95817593D01*
X107905952Y-95817593D02*
X107905952Y-95117593D01*
X107905952Y-95117593D02*
X107853571Y-95217593D01*
X107853571Y-95217593D02*
X107801190Y-95284260D01*
X107801190Y-95284260D02*
X107748809Y-95317593D01*
D11*
X113549999Y-66158557D02*
X113316666Y-65729985D01*
X113149999Y-66158557D02*
X113149999Y-65258557D01*
X113149999Y-65258557D02*
X113416666Y-65258557D01*
X113416666Y-65258557D02*
X113483333Y-65301414D01*
X113483333Y-65301414D02*
X113516666Y-65344271D01*
X113516666Y-65344271D02*
X113549999Y-65429985D01*
X113549999Y-65429985D02*
X113549999Y-65558557D01*
X113549999Y-65558557D02*
X113516666Y-65644271D01*
X113516666Y-65644271D02*
X113483333Y-65687128D01*
X113483333Y-65687128D02*
X113416666Y-65729985D01*
X113416666Y-65729985D02*
X113149999Y-65729985D01*
X113816666Y-65344271D02*
X113849999Y-65301414D01*
X113849999Y-65301414D02*
X113916666Y-65258557D01*
X113916666Y-65258557D02*
X114083333Y-65258557D01*
X114083333Y-65258557D02*
X114149999Y-65301414D01*
X114149999Y-65301414D02*
X114183333Y-65344271D01*
X114183333Y-65344271D02*
X114216666Y-65429985D01*
X114216666Y-65429985D02*
X114216666Y-65515700D01*
X114216666Y-65515700D02*
X114183333Y-65644271D01*
X114183333Y-65644271D02*
X113783333Y-66158557D01*
X113783333Y-66158557D02*
X114216666Y-66158557D01*
X114450000Y-65258557D02*
X114883333Y-65258557D01*
X114883333Y-65258557D02*
X114650000Y-65601414D01*
X114650000Y-65601414D02*
X114750000Y-65601414D01*
X114750000Y-65601414D02*
X114816666Y-65644271D01*
X114816666Y-65644271D02*
X114850000Y-65687128D01*
X114850000Y-65687128D02*
X114883333Y-65772842D01*
X114883333Y-65772842D02*
X114883333Y-65987128D01*
X114883333Y-65987128D02*
X114850000Y-66072842D01*
X114850000Y-66072842D02*
X114816666Y-66115700D01*
X114816666Y-66115700D02*
X114750000Y-66158557D01*
X114750000Y-66158557D02*
X114550000Y-66158557D01*
X114550000Y-66158557D02*
X114483333Y-66115700D01*
X114483333Y-66115700D02*
X114450000Y-66072842D01*
X123349999Y-61072842D02*
X123316666Y-61115700D01*
X123316666Y-61115700D02*
X123216666Y-61158557D01*
X123216666Y-61158557D02*
X123149999Y-61158557D01*
X123149999Y-61158557D02*
X123049999Y-61115700D01*
X123049999Y-61115700D02*
X122983333Y-61029985D01*
X122983333Y-61029985D02*
X122949999Y-60944271D01*
X122949999Y-60944271D02*
X122916666Y-60772842D01*
X122916666Y-60772842D02*
X122916666Y-60644271D01*
X122916666Y-60644271D02*
X122949999Y-60472842D01*
X122949999Y-60472842D02*
X122983333Y-60387128D01*
X122983333Y-60387128D02*
X123049999Y-60301414D01*
X123049999Y-60301414D02*
X123149999Y-60258557D01*
X123149999Y-60258557D02*
X123216666Y-60258557D01*
X123216666Y-60258557D02*
X123316666Y-60301414D01*
X123316666Y-60301414D02*
X123349999Y-60344271D01*
X123616666Y-60344271D02*
X123649999Y-60301414D01*
X123649999Y-60301414D02*
X123716666Y-60258557D01*
X123716666Y-60258557D02*
X123883333Y-60258557D01*
X123883333Y-60258557D02*
X123949999Y-60301414D01*
X123949999Y-60301414D02*
X123983333Y-60344271D01*
X123983333Y-60344271D02*
X124016666Y-60429985D01*
X124016666Y-60429985D02*
X124016666Y-60515700D01*
X124016666Y-60515700D02*
X123983333Y-60644271D01*
X123983333Y-60644271D02*
X123583333Y-61158557D01*
X123583333Y-61158557D02*
X124016666Y-61158557D01*
X124616666Y-60558557D02*
X124616666Y-61158557D01*
X124450000Y-60215700D02*
X124283333Y-60858557D01*
X124283333Y-60858557D02*
X124716666Y-60858557D01*
X121658557Y-79016666D02*
X120758557Y-79016666D01*
X120758557Y-79016666D02*
X120758557Y-78849999D01*
X120758557Y-78849999D02*
X120801414Y-78749999D01*
X120801414Y-78749999D02*
X120887128Y-78683333D01*
X120887128Y-78683333D02*
X120972842Y-78649999D01*
X120972842Y-78649999D02*
X121144271Y-78616666D01*
X121144271Y-78616666D02*
X121272842Y-78616666D01*
X121272842Y-78616666D02*
X121444271Y-78649999D01*
X121444271Y-78649999D02*
X121529985Y-78683333D01*
X121529985Y-78683333D02*
X121615700Y-78749999D01*
X121615700Y-78749999D02*
X121658557Y-78849999D01*
X121658557Y-78849999D02*
X121658557Y-79016666D01*
X121144271Y-78216666D02*
X121101414Y-78283333D01*
X121101414Y-78283333D02*
X121058557Y-78316666D01*
X121058557Y-78316666D02*
X120972842Y-78349999D01*
X120972842Y-78349999D02*
X120929985Y-78349999D01*
X120929985Y-78349999D02*
X120844271Y-78316666D01*
X120844271Y-78316666D02*
X120801414Y-78283333D01*
X120801414Y-78283333D02*
X120758557Y-78216666D01*
X120758557Y-78216666D02*
X120758557Y-78083333D01*
X120758557Y-78083333D02*
X120801414Y-78016666D01*
X120801414Y-78016666D02*
X120844271Y-77983333D01*
X120844271Y-77983333D02*
X120929985Y-77949999D01*
X120929985Y-77949999D02*
X120972842Y-77949999D01*
X120972842Y-77949999D02*
X121058557Y-77983333D01*
X121058557Y-77983333D02*
X121101414Y-78016666D01*
X121101414Y-78016666D02*
X121144271Y-78083333D01*
X121144271Y-78083333D02*
X121144271Y-78216666D01*
X121144271Y-78216666D02*
X121187128Y-78283333D01*
X121187128Y-78283333D02*
X121229985Y-78316666D01*
X121229985Y-78316666D02*
X121315700Y-78349999D01*
X121315700Y-78349999D02*
X121487128Y-78349999D01*
X121487128Y-78349999D02*
X121572842Y-78316666D01*
X121572842Y-78316666D02*
X121615700Y-78283333D01*
X121615700Y-78283333D02*
X121658557Y-78216666D01*
X121658557Y-78216666D02*
X121658557Y-78083333D01*
X121658557Y-78083333D02*
X121615700Y-78016666D01*
X121615700Y-78016666D02*
X121572842Y-77983333D01*
X121572842Y-77983333D02*
X121487128Y-77949999D01*
X121487128Y-77949999D02*
X121315700Y-77949999D01*
X121315700Y-77949999D02*
X121229985Y-77983333D01*
X121229985Y-77983333D02*
X121187128Y-78016666D01*
X121187128Y-78016666D02*
X121144271Y-78083333D01*
X128822842Y-90850000D02*
X128865700Y-90883333D01*
X128865700Y-90883333D02*
X128908557Y-90983333D01*
X128908557Y-90983333D02*
X128908557Y-91050000D01*
X128908557Y-91050000D02*
X128865700Y-91150000D01*
X128865700Y-91150000D02*
X128779985Y-91216667D01*
X128779985Y-91216667D02*
X128694271Y-91250000D01*
X128694271Y-91250000D02*
X128522842Y-91283333D01*
X128522842Y-91283333D02*
X128394271Y-91283333D01*
X128394271Y-91283333D02*
X128222842Y-91250000D01*
X128222842Y-91250000D02*
X128137128Y-91216667D01*
X128137128Y-91216667D02*
X128051414Y-91150000D01*
X128051414Y-91150000D02*
X128008557Y-91050000D01*
X128008557Y-91050000D02*
X128008557Y-90983333D01*
X128008557Y-90983333D02*
X128051414Y-90883333D01*
X128051414Y-90883333D02*
X128094271Y-90850000D01*
X128094271Y-90583333D02*
X128051414Y-90550000D01*
X128051414Y-90550000D02*
X128008557Y-90483333D01*
X128008557Y-90483333D02*
X128008557Y-90316667D01*
X128008557Y-90316667D02*
X128051414Y-90250000D01*
X128051414Y-90250000D02*
X128094271Y-90216667D01*
X128094271Y-90216667D02*
X128179985Y-90183333D01*
X128179985Y-90183333D02*
X128265700Y-90183333D01*
X128265700Y-90183333D02*
X128394271Y-90216667D01*
X128394271Y-90216667D02*
X128908557Y-90616667D01*
X128908557Y-90616667D02*
X128908557Y-90183333D01*
X128394271Y-89783333D02*
X128351414Y-89850000D01*
X128351414Y-89850000D02*
X128308557Y-89883333D01*
X128308557Y-89883333D02*
X128222842Y-89916666D01*
X128222842Y-89916666D02*
X128179985Y-89916666D01*
X128179985Y-89916666D02*
X128094271Y-89883333D01*
X128094271Y-89883333D02*
X128051414Y-89850000D01*
X128051414Y-89850000D02*
X128008557Y-89783333D01*
X128008557Y-89783333D02*
X128008557Y-89650000D01*
X128008557Y-89650000D02*
X128051414Y-89583333D01*
X128051414Y-89583333D02*
X128094271Y-89550000D01*
X128094271Y-89550000D02*
X128179985Y-89516666D01*
X128179985Y-89516666D02*
X128222842Y-89516666D01*
X128222842Y-89516666D02*
X128308557Y-89550000D01*
X128308557Y-89550000D02*
X128351414Y-89583333D01*
X128351414Y-89583333D02*
X128394271Y-89650000D01*
X128394271Y-89650000D02*
X128394271Y-89783333D01*
X128394271Y-89783333D02*
X128437128Y-89850000D01*
X128437128Y-89850000D02*
X128479985Y-89883333D01*
X128479985Y-89883333D02*
X128565700Y-89916666D01*
X128565700Y-89916666D02*
X128737128Y-89916666D01*
X128737128Y-89916666D02*
X128822842Y-89883333D01*
X128822842Y-89883333D02*
X128865700Y-89850000D01*
X128865700Y-89850000D02*
X128908557Y-89783333D01*
X128908557Y-89783333D02*
X128908557Y-89650000D01*
X128908557Y-89650000D02*
X128865700Y-89583333D01*
X128865700Y-89583333D02*
X128822842Y-89550000D01*
X128822842Y-89550000D02*
X128737128Y-89516666D01*
X128737128Y-89516666D02*
X128565700Y-89516666D01*
X128565700Y-89516666D02*
X128479985Y-89550000D01*
X128479985Y-89550000D02*
X128437128Y-89583333D01*
X128437128Y-89583333D02*
X128394271Y-89650000D01*
X103549999Y-62072842D02*
X103516666Y-62115700D01*
X103516666Y-62115700D02*
X103416666Y-62158557D01*
X103416666Y-62158557D02*
X103349999Y-62158557D01*
X103349999Y-62158557D02*
X103249999Y-62115700D01*
X103249999Y-62115700D02*
X103183333Y-62029985D01*
X103183333Y-62029985D02*
X103149999Y-61944271D01*
X103149999Y-61944271D02*
X103116666Y-61772842D01*
X103116666Y-61772842D02*
X103116666Y-61644271D01*
X103116666Y-61644271D02*
X103149999Y-61472842D01*
X103149999Y-61472842D02*
X103183333Y-61387128D01*
X103183333Y-61387128D02*
X103249999Y-61301414D01*
X103249999Y-61301414D02*
X103349999Y-61258557D01*
X103349999Y-61258557D02*
X103416666Y-61258557D01*
X103416666Y-61258557D02*
X103516666Y-61301414D01*
X103516666Y-61301414D02*
X103549999Y-61344271D01*
X104216666Y-62158557D02*
X103816666Y-62158557D01*
X104016666Y-62158557D02*
X104016666Y-61258557D01*
X104016666Y-61258557D02*
X103949999Y-61387128D01*
X103949999Y-61387128D02*
X103883333Y-61472842D01*
X103883333Y-61472842D02*
X103816666Y-61515700D01*
X104483333Y-61344271D02*
X104516666Y-61301414D01*
X104516666Y-61301414D02*
X104583333Y-61258557D01*
X104583333Y-61258557D02*
X104750000Y-61258557D01*
X104750000Y-61258557D02*
X104816666Y-61301414D01*
X104816666Y-61301414D02*
X104850000Y-61344271D01*
X104850000Y-61344271D02*
X104883333Y-61429985D01*
X104883333Y-61429985D02*
X104883333Y-61515700D01*
X104883333Y-61515700D02*
X104850000Y-61644271D01*
X104850000Y-61644271D02*
X104450000Y-62158557D01*
X104450000Y-62158557D02*
X104883333Y-62158557D01*
X117049999Y-65822842D02*
X117016666Y-65865700D01*
X117016666Y-65865700D02*
X116916666Y-65908557D01*
X116916666Y-65908557D02*
X116849999Y-65908557D01*
X116849999Y-65908557D02*
X116749999Y-65865700D01*
X116749999Y-65865700D02*
X116683333Y-65779985D01*
X116683333Y-65779985D02*
X116649999Y-65694271D01*
X116649999Y-65694271D02*
X116616666Y-65522842D01*
X116616666Y-65522842D02*
X116616666Y-65394271D01*
X116616666Y-65394271D02*
X116649999Y-65222842D01*
X116649999Y-65222842D02*
X116683333Y-65137128D01*
X116683333Y-65137128D02*
X116749999Y-65051414D01*
X116749999Y-65051414D02*
X116849999Y-65008557D01*
X116849999Y-65008557D02*
X116916666Y-65008557D01*
X116916666Y-65008557D02*
X117016666Y-65051414D01*
X117016666Y-65051414D02*
X117049999Y-65094271D01*
X117716666Y-65908557D02*
X117316666Y-65908557D01*
X117516666Y-65908557D02*
X117516666Y-65008557D01*
X117516666Y-65008557D02*
X117449999Y-65137128D01*
X117449999Y-65137128D02*
X117383333Y-65222842D01*
X117383333Y-65222842D02*
X117316666Y-65265700D01*
X118383333Y-65908557D02*
X117983333Y-65908557D01*
X118183333Y-65908557D02*
X118183333Y-65008557D01*
X118183333Y-65008557D02*
X118116666Y-65137128D01*
X118116666Y-65137128D02*
X118050000Y-65222842D01*
X118050000Y-65222842D02*
X117983333Y-65265700D01*
X123299999Y-80908557D02*
X123066666Y-80479985D01*
X122899999Y-80908557D02*
X122899999Y-80008557D01*
X122899999Y-80008557D02*
X123166666Y-80008557D01*
X123166666Y-80008557D02*
X123233333Y-80051414D01*
X123233333Y-80051414D02*
X123266666Y-80094271D01*
X123266666Y-80094271D02*
X123299999Y-80179985D01*
X123299999Y-80179985D02*
X123299999Y-80308557D01*
X123299999Y-80308557D02*
X123266666Y-80394271D01*
X123266666Y-80394271D02*
X123233333Y-80437128D01*
X123233333Y-80437128D02*
X123166666Y-80479985D01*
X123166666Y-80479985D02*
X122899999Y-80479985D01*
X123533333Y-80008557D02*
X123966666Y-80008557D01*
X123966666Y-80008557D02*
X123733333Y-80351414D01*
X123733333Y-80351414D02*
X123833333Y-80351414D01*
X123833333Y-80351414D02*
X123899999Y-80394271D01*
X123899999Y-80394271D02*
X123933333Y-80437128D01*
X123933333Y-80437128D02*
X123966666Y-80522842D01*
X123966666Y-80522842D02*
X123966666Y-80737128D01*
X123966666Y-80737128D02*
X123933333Y-80822842D01*
X123933333Y-80822842D02*
X123899999Y-80865700D01*
X123899999Y-80865700D02*
X123833333Y-80908557D01*
X123833333Y-80908557D02*
X123633333Y-80908557D01*
X123633333Y-80908557D02*
X123566666Y-80865700D01*
X123566666Y-80865700D02*
X123533333Y-80822842D01*
X124566666Y-80308557D02*
X124566666Y-80908557D01*
X124400000Y-79965700D02*
X124233333Y-80608557D01*
X124233333Y-80608557D02*
X124666666Y-80608557D01*
X110633333Y-92322842D02*
X110600000Y-92365700D01*
X110600000Y-92365700D02*
X110500000Y-92408557D01*
X110500000Y-92408557D02*
X110433333Y-92408557D01*
X110433333Y-92408557D02*
X110333333Y-92365700D01*
X110333333Y-92365700D02*
X110266667Y-92279985D01*
X110266667Y-92279985D02*
X110233333Y-92194271D01*
X110233333Y-92194271D02*
X110200000Y-92022842D01*
X110200000Y-92022842D02*
X110200000Y-91894271D01*
X110200000Y-91894271D02*
X110233333Y-91722842D01*
X110233333Y-91722842D02*
X110266667Y-91637128D01*
X110266667Y-91637128D02*
X110333333Y-91551414D01*
X110333333Y-91551414D02*
X110433333Y-91508557D01*
X110433333Y-91508557D02*
X110500000Y-91508557D01*
X110500000Y-91508557D02*
X110600000Y-91551414D01*
X110600000Y-91551414D02*
X110633333Y-91594271D01*
X111266667Y-91508557D02*
X110933333Y-91508557D01*
X110933333Y-91508557D02*
X110900000Y-91937128D01*
X110900000Y-91937128D02*
X110933333Y-91894271D01*
X110933333Y-91894271D02*
X111000000Y-91851414D01*
X111000000Y-91851414D02*
X111166667Y-91851414D01*
X111166667Y-91851414D02*
X111233333Y-91894271D01*
X111233333Y-91894271D02*
X111266667Y-91937128D01*
X111266667Y-91937128D02*
X111300000Y-92022842D01*
X111300000Y-92022842D02*
X111300000Y-92237128D01*
X111300000Y-92237128D02*
X111266667Y-92322842D01*
X111266667Y-92322842D02*
X111233333Y-92365700D01*
X111233333Y-92365700D02*
X111166667Y-92408557D01*
X111166667Y-92408557D02*
X111000000Y-92408557D01*
X111000000Y-92408557D02*
X110933333Y-92365700D01*
X110933333Y-92365700D02*
X110900000Y-92322842D01*
D13*
X102580952Y-80867593D02*
X102580952Y-81434260D01*
X102580952Y-81434260D02*
X102607142Y-81500926D01*
X102607142Y-81500926D02*
X102633333Y-81534260D01*
X102633333Y-81534260D02*
X102685714Y-81567593D01*
X102685714Y-81567593D02*
X102790476Y-81567593D01*
X102790476Y-81567593D02*
X102842857Y-81534260D01*
X102842857Y-81534260D02*
X102869047Y-81500926D01*
X102869047Y-81500926D02*
X102895238Y-81434260D01*
X102895238Y-81434260D02*
X102895238Y-80867593D01*
X103392856Y-80867593D02*
X103288094Y-80867593D01*
X103288094Y-80867593D02*
X103235713Y-80900926D01*
X103235713Y-80900926D02*
X103209523Y-80934260D01*
X103209523Y-80934260D02*
X103157142Y-81034260D01*
X103157142Y-81034260D02*
X103130951Y-81167593D01*
X103130951Y-81167593D02*
X103130951Y-81434260D01*
X103130951Y-81434260D02*
X103157142Y-81500926D01*
X103157142Y-81500926D02*
X103183332Y-81534260D01*
X103183332Y-81534260D02*
X103235713Y-81567593D01*
X103235713Y-81567593D02*
X103340475Y-81567593D01*
X103340475Y-81567593D02*
X103392856Y-81534260D01*
X103392856Y-81534260D02*
X103419047Y-81500926D01*
X103419047Y-81500926D02*
X103445237Y-81434260D01*
X103445237Y-81434260D02*
X103445237Y-81267593D01*
X103445237Y-81267593D02*
X103419047Y-81200926D01*
X103419047Y-81200926D02*
X103392856Y-81167593D01*
X103392856Y-81167593D02*
X103340475Y-81134260D01*
X103340475Y-81134260D02*
X103235713Y-81134260D01*
X103235713Y-81134260D02*
X103183332Y-81167593D01*
X103183332Y-81167593D02*
X103157142Y-81200926D01*
X103157142Y-81200926D02*
X103130951Y-81267593D01*
D11*
X101549999Y-93658557D02*
X101316666Y-93229985D01*
X101149999Y-93658557D02*
X101149999Y-92758557D01*
X101149999Y-92758557D02*
X101416666Y-92758557D01*
X101416666Y-92758557D02*
X101483333Y-92801414D01*
X101483333Y-92801414D02*
X101516666Y-92844271D01*
X101516666Y-92844271D02*
X101549999Y-92929985D01*
X101549999Y-92929985D02*
X101549999Y-93058557D01*
X101549999Y-93058557D02*
X101516666Y-93144271D01*
X101516666Y-93144271D02*
X101483333Y-93187128D01*
X101483333Y-93187128D02*
X101416666Y-93229985D01*
X101416666Y-93229985D02*
X101149999Y-93229985D01*
X102216666Y-93658557D02*
X101816666Y-93658557D01*
X102016666Y-93658557D02*
X102016666Y-92758557D01*
X102016666Y-92758557D02*
X101949999Y-92887128D01*
X101949999Y-92887128D02*
X101883333Y-92972842D01*
X101883333Y-92972842D02*
X101816666Y-93015700D01*
X102483333Y-92844271D02*
X102516666Y-92801414D01*
X102516666Y-92801414D02*
X102583333Y-92758557D01*
X102583333Y-92758557D02*
X102750000Y-92758557D01*
X102750000Y-92758557D02*
X102816666Y-92801414D01*
X102816666Y-92801414D02*
X102850000Y-92844271D01*
X102850000Y-92844271D02*
X102883333Y-92929985D01*
X102883333Y-92929985D02*
X102883333Y-93015700D01*
X102883333Y-93015700D02*
X102850000Y-93144271D01*
X102850000Y-93144271D02*
X102450000Y-93658557D01*
X102450000Y-93658557D02*
X102883333Y-93658557D01*
X119258557Y-79016666D02*
X118358557Y-79016666D01*
X118358557Y-79016666D02*
X118358557Y-78849999D01*
X118358557Y-78849999D02*
X118401414Y-78749999D01*
X118401414Y-78749999D02*
X118487128Y-78683333D01*
X118487128Y-78683333D02*
X118572842Y-78649999D01*
X118572842Y-78649999D02*
X118744271Y-78616666D01*
X118744271Y-78616666D02*
X118872842Y-78616666D01*
X118872842Y-78616666D02*
X119044271Y-78649999D01*
X119044271Y-78649999D02*
X119129985Y-78683333D01*
X119129985Y-78683333D02*
X119215700Y-78749999D01*
X119215700Y-78749999D02*
X119258557Y-78849999D01*
X119258557Y-78849999D02*
X119258557Y-79016666D01*
X118358557Y-78016666D02*
X118358557Y-78149999D01*
X118358557Y-78149999D02*
X118401414Y-78216666D01*
X118401414Y-78216666D02*
X118444271Y-78249999D01*
X118444271Y-78249999D02*
X118572842Y-78316666D01*
X118572842Y-78316666D02*
X118744271Y-78349999D01*
X118744271Y-78349999D02*
X119087128Y-78349999D01*
X119087128Y-78349999D02*
X119172842Y-78316666D01*
X119172842Y-78316666D02*
X119215700Y-78283333D01*
X119215700Y-78283333D02*
X119258557Y-78216666D01*
X119258557Y-78216666D02*
X119258557Y-78083333D01*
X119258557Y-78083333D02*
X119215700Y-78016666D01*
X119215700Y-78016666D02*
X119172842Y-77983333D01*
X119172842Y-77983333D02*
X119087128Y-77949999D01*
X119087128Y-77949999D02*
X118872842Y-77949999D01*
X118872842Y-77949999D02*
X118787128Y-77983333D01*
X118787128Y-77983333D02*
X118744271Y-78016666D01*
X118744271Y-78016666D02*
X118701414Y-78083333D01*
X118701414Y-78083333D02*
X118701414Y-78216666D01*
X118701414Y-78216666D02*
X118744271Y-78283333D01*
X118744271Y-78283333D02*
X118787128Y-78316666D01*
X118787128Y-78316666D02*
X118872842Y-78349999D01*
X113072842Y-78200000D02*
X113115700Y-78233333D01*
X113115700Y-78233333D02*
X113158557Y-78333333D01*
X113158557Y-78333333D02*
X113158557Y-78400000D01*
X113158557Y-78400000D02*
X113115700Y-78500000D01*
X113115700Y-78500000D02*
X113029985Y-78566667D01*
X113029985Y-78566667D02*
X112944271Y-78600000D01*
X112944271Y-78600000D02*
X112772842Y-78633333D01*
X112772842Y-78633333D02*
X112644271Y-78633333D01*
X112644271Y-78633333D02*
X112472842Y-78600000D01*
X112472842Y-78600000D02*
X112387128Y-78566667D01*
X112387128Y-78566667D02*
X112301414Y-78500000D01*
X112301414Y-78500000D02*
X112258557Y-78400000D01*
X112258557Y-78400000D02*
X112258557Y-78333333D01*
X112258557Y-78333333D02*
X112301414Y-78233333D01*
X112301414Y-78233333D02*
X112344271Y-78200000D01*
X113158557Y-77533333D02*
X113158557Y-77933333D01*
X113158557Y-77733333D02*
X112258557Y-77733333D01*
X112258557Y-77733333D02*
X112387128Y-77800000D01*
X112387128Y-77800000D02*
X112472842Y-77866667D01*
X112472842Y-77866667D02*
X112515700Y-77933333D01*
X112558557Y-76933333D02*
X113158557Y-76933333D01*
X112215700Y-77100000D02*
X112858557Y-77266666D01*
X112858557Y-77266666D02*
X112858557Y-76833333D01*
X103549999Y-63322842D02*
X103516666Y-63365700D01*
X103516666Y-63365700D02*
X103416666Y-63408557D01*
X103416666Y-63408557D02*
X103349999Y-63408557D01*
X103349999Y-63408557D02*
X103249999Y-63365700D01*
X103249999Y-63365700D02*
X103183333Y-63279985D01*
X103183333Y-63279985D02*
X103149999Y-63194271D01*
X103149999Y-63194271D02*
X103116666Y-63022842D01*
X103116666Y-63022842D02*
X103116666Y-62894271D01*
X103116666Y-62894271D02*
X103149999Y-62722842D01*
X103149999Y-62722842D02*
X103183333Y-62637128D01*
X103183333Y-62637128D02*
X103249999Y-62551414D01*
X103249999Y-62551414D02*
X103349999Y-62508557D01*
X103349999Y-62508557D02*
X103416666Y-62508557D01*
X103416666Y-62508557D02*
X103516666Y-62551414D01*
X103516666Y-62551414D02*
X103549999Y-62594271D01*
X104216666Y-63408557D02*
X103816666Y-63408557D01*
X104016666Y-63408557D02*
X104016666Y-62508557D01*
X104016666Y-62508557D02*
X103949999Y-62637128D01*
X103949999Y-62637128D02*
X103883333Y-62722842D01*
X103883333Y-62722842D02*
X103816666Y-62765700D01*
X104450000Y-62508557D02*
X104883333Y-62508557D01*
X104883333Y-62508557D02*
X104650000Y-62851414D01*
X104650000Y-62851414D02*
X104750000Y-62851414D01*
X104750000Y-62851414D02*
X104816666Y-62894271D01*
X104816666Y-62894271D02*
X104850000Y-62937128D01*
X104850000Y-62937128D02*
X104883333Y-63022842D01*
X104883333Y-63022842D02*
X104883333Y-63237128D01*
X104883333Y-63237128D02*
X104850000Y-63322842D01*
X104850000Y-63322842D02*
X104816666Y-63365700D01*
X104816666Y-63365700D02*
X104750000Y-63408557D01*
X104750000Y-63408557D02*
X104550000Y-63408557D01*
X104550000Y-63408557D02*
X104483333Y-63365700D01*
X104483333Y-63365700D02*
X104450000Y-63322842D01*
X105299999Y-85072842D02*
X105266666Y-85115700D01*
X105266666Y-85115700D02*
X105166666Y-85158557D01*
X105166666Y-85158557D02*
X105099999Y-85158557D01*
X105099999Y-85158557D02*
X104999999Y-85115700D01*
X104999999Y-85115700D02*
X104933333Y-85029985D01*
X104933333Y-85029985D02*
X104899999Y-84944271D01*
X104899999Y-84944271D02*
X104866666Y-84772842D01*
X104866666Y-84772842D02*
X104866666Y-84644271D01*
X104866666Y-84644271D02*
X104899999Y-84472842D01*
X104899999Y-84472842D02*
X104933333Y-84387128D01*
X104933333Y-84387128D02*
X104999999Y-84301414D01*
X104999999Y-84301414D02*
X105099999Y-84258557D01*
X105099999Y-84258557D02*
X105166666Y-84258557D01*
X105166666Y-84258557D02*
X105266666Y-84301414D01*
X105266666Y-84301414D02*
X105299999Y-84344271D01*
X105966666Y-85158557D02*
X105566666Y-85158557D01*
X105766666Y-85158557D02*
X105766666Y-84258557D01*
X105766666Y-84258557D02*
X105699999Y-84387128D01*
X105699999Y-84387128D02*
X105633333Y-84472842D01*
X105633333Y-84472842D02*
X105566666Y-84515700D01*
X106366666Y-84644271D02*
X106300000Y-84601414D01*
X106300000Y-84601414D02*
X106266666Y-84558557D01*
X106266666Y-84558557D02*
X106233333Y-84472842D01*
X106233333Y-84472842D02*
X106233333Y-84429985D01*
X106233333Y-84429985D02*
X106266666Y-84344271D01*
X106266666Y-84344271D02*
X106300000Y-84301414D01*
X106300000Y-84301414D02*
X106366666Y-84258557D01*
X106366666Y-84258557D02*
X106500000Y-84258557D01*
X106500000Y-84258557D02*
X106566666Y-84301414D01*
X106566666Y-84301414D02*
X106600000Y-84344271D01*
X106600000Y-84344271D02*
X106633333Y-84429985D01*
X106633333Y-84429985D02*
X106633333Y-84472842D01*
X106633333Y-84472842D02*
X106600000Y-84558557D01*
X106600000Y-84558557D02*
X106566666Y-84601414D01*
X106566666Y-84601414D02*
X106500000Y-84644271D01*
X106500000Y-84644271D02*
X106366666Y-84644271D01*
X106366666Y-84644271D02*
X106300000Y-84687128D01*
X106300000Y-84687128D02*
X106266666Y-84729985D01*
X106266666Y-84729985D02*
X106233333Y-84815700D01*
X106233333Y-84815700D02*
X106233333Y-84987128D01*
X106233333Y-84987128D02*
X106266666Y-85072842D01*
X106266666Y-85072842D02*
X106300000Y-85115700D01*
X106300000Y-85115700D02*
X106366666Y-85158557D01*
X106366666Y-85158557D02*
X106500000Y-85158557D01*
X106500000Y-85158557D02*
X106566666Y-85115700D01*
X106566666Y-85115700D02*
X106600000Y-85072842D01*
X106600000Y-85072842D02*
X106633333Y-84987128D01*
X106633333Y-84987128D02*
X106633333Y-84815700D01*
X106633333Y-84815700D02*
X106600000Y-84729985D01*
X106600000Y-84729985D02*
X106566666Y-84687128D01*
X106566666Y-84687128D02*
X106500000Y-84644271D01*
X123133333Y-91158557D02*
X122900000Y-90729985D01*
X122733333Y-91158557D02*
X122733333Y-90258557D01*
X122733333Y-90258557D02*
X123000000Y-90258557D01*
X123000000Y-90258557D02*
X123066667Y-90301414D01*
X123066667Y-90301414D02*
X123100000Y-90344271D01*
X123100000Y-90344271D02*
X123133333Y-90429985D01*
X123133333Y-90429985D02*
X123133333Y-90558557D01*
X123133333Y-90558557D02*
X123100000Y-90644271D01*
X123100000Y-90644271D02*
X123066667Y-90687128D01*
X123066667Y-90687128D02*
X123000000Y-90729985D01*
X123000000Y-90729985D02*
X122733333Y-90729985D01*
X123733333Y-90558557D02*
X123733333Y-91158557D01*
X123566667Y-90215700D02*
X123400000Y-90858557D01*
X123400000Y-90858557D02*
X123833333Y-90858557D01*
X111572842Y-78200000D02*
X111615700Y-78233333D01*
X111615700Y-78233333D02*
X111658557Y-78333333D01*
X111658557Y-78333333D02*
X111658557Y-78400000D01*
X111658557Y-78400000D02*
X111615700Y-78500000D01*
X111615700Y-78500000D02*
X111529985Y-78566667D01*
X111529985Y-78566667D02*
X111444271Y-78600000D01*
X111444271Y-78600000D02*
X111272842Y-78633333D01*
X111272842Y-78633333D02*
X111144271Y-78633333D01*
X111144271Y-78633333D02*
X110972842Y-78600000D01*
X110972842Y-78600000D02*
X110887128Y-78566667D01*
X110887128Y-78566667D02*
X110801414Y-78500000D01*
X110801414Y-78500000D02*
X110758557Y-78400000D01*
X110758557Y-78400000D02*
X110758557Y-78333333D01*
X110758557Y-78333333D02*
X110801414Y-78233333D01*
X110801414Y-78233333D02*
X110844271Y-78200000D01*
X111658557Y-77533333D02*
X111658557Y-77933333D01*
X111658557Y-77733333D02*
X110758557Y-77733333D01*
X110758557Y-77733333D02*
X110887128Y-77800000D01*
X110887128Y-77800000D02*
X110972842Y-77866667D01*
X110972842Y-77866667D02*
X111015700Y-77933333D01*
X110758557Y-76900000D02*
X110758557Y-77233333D01*
X110758557Y-77233333D02*
X111187128Y-77266666D01*
X111187128Y-77266666D02*
X111144271Y-77233333D01*
X111144271Y-77233333D02*
X111101414Y-77166666D01*
X111101414Y-77166666D02*
X111101414Y-77000000D01*
X111101414Y-77000000D02*
X111144271Y-76933333D01*
X111144271Y-76933333D02*
X111187128Y-76900000D01*
X111187128Y-76900000D02*
X111272842Y-76866666D01*
X111272842Y-76866666D02*
X111487128Y-76866666D01*
X111487128Y-76866666D02*
X111572842Y-76900000D01*
X111572842Y-76900000D02*
X111615700Y-76933333D01*
X111615700Y-76933333D02*
X111658557Y-77000000D01*
X111658557Y-77000000D02*
X111658557Y-77166666D01*
X111658557Y-77166666D02*
X111615700Y-77233333D01*
X111615700Y-77233333D02*
X111572842Y-77266666D01*
X116466666Y-89508557D02*
X116466666Y-90237128D01*
X116466666Y-90237128D02*
X116500000Y-90322842D01*
X116500000Y-90322842D02*
X116533333Y-90365700D01*
X116533333Y-90365700D02*
X116600000Y-90408557D01*
X116600000Y-90408557D02*
X116733333Y-90408557D01*
X116733333Y-90408557D02*
X116800000Y-90365700D01*
X116800000Y-90365700D02*
X116833333Y-90322842D01*
X116833333Y-90322842D02*
X116866666Y-90237128D01*
X116866666Y-90237128D02*
X116866666Y-89508557D01*
X117566666Y-90408557D02*
X117166666Y-90408557D01*
X117366666Y-90408557D02*
X117366666Y-89508557D01*
X117366666Y-89508557D02*
X117299999Y-89637128D01*
X117299999Y-89637128D02*
X117233333Y-89722842D01*
X117233333Y-89722842D02*
X117166666Y-89765700D01*
X107049999Y-58158557D02*
X106816666Y-57729985D01*
X106649999Y-58158557D02*
X106649999Y-57258557D01*
X106649999Y-57258557D02*
X106916666Y-57258557D01*
X106916666Y-57258557D02*
X106983333Y-57301414D01*
X106983333Y-57301414D02*
X107016666Y-57344271D01*
X107016666Y-57344271D02*
X107049999Y-57429985D01*
X107049999Y-57429985D02*
X107049999Y-57558557D01*
X107049999Y-57558557D02*
X107016666Y-57644271D01*
X107016666Y-57644271D02*
X106983333Y-57687128D01*
X106983333Y-57687128D02*
X106916666Y-57729985D01*
X106916666Y-57729985D02*
X106649999Y-57729985D01*
X107716666Y-58158557D02*
X107316666Y-58158557D01*
X107516666Y-58158557D02*
X107516666Y-57258557D01*
X107516666Y-57258557D02*
X107449999Y-57387128D01*
X107449999Y-57387128D02*
X107383333Y-57472842D01*
X107383333Y-57472842D02*
X107316666Y-57515700D01*
X107950000Y-57258557D02*
X108383333Y-57258557D01*
X108383333Y-57258557D02*
X108150000Y-57601414D01*
X108150000Y-57601414D02*
X108250000Y-57601414D01*
X108250000Y-57601414D02*
X108316666Y-57644271D01*
X108316666Y-57644271D02*
X108350000Y-57687128D01*
X108350000Y-57687128D02*
X108383333Y-57772842D01*
X108383333Y-57772842D02*
X108383333Y-57987128D01*
X108383333Y-57987128D02*
X108350000Y-58072842D01*
X108350000Y-58072842D02*
X108316666Y-58115700D01*
X108316666Y-58115700D02*
X108250000Y-58158557D01*
X108250000Y-58158557D02*
X108050000Y-58158557D01*
X108050000Y-58158557D02*
X107983333Y-58115700D01*
X107983333Y-58115700D02*
X107950000Y-58072842D01*
X113549999Y-64408557D02*
X113316666Y-63979985D01*
X113149999Y-64408557D02*
X113149999Y-63508557D01*
X113149999Y-63508557D02*
X113416666Y-63508557D01*
X113416666Y-63508557D02*
X113483333Y-63551414D01*
X113483333Y-63551414D02*
X113516666Y-63594271D01*
X113516666Y-63594271D02*
X113549999Y-63679985D01*
X113549999Y-63679985D02*
X113549999Y-63808557D01*
X113549999Y-63808557D02*
X113516666Y-63894271D01*
X113516666Y-63894271D02*
X113483333Y-63937128D01*
X113483333Y-63937128D02*
X113416666Y-63979985D01*
X113416666Y-63979985D02*
X113149999Y-63979985D01*
X113816666Y-63594271D02*
X113849999Y-63551414D01*
X113849999Y-63551414D02*
X113916666Y-63508557D01*
X113916666Y-63508557D02*
X114083333Y-63508557D01*
X114083333Y-63508557D02*
X114149999Y-63551414D01*
X114149999Y-63551414D02*
X114183333Y-63594271D01*
X114183333Y-63594271D02*
X114216666Y-63679985D01*
X114216666Y-63679985D02*
X114216666Y-63765700D01*
X114216666Y-63765700D02*
X114183333Y-63894271D01*
X114183333Y-63894271D02*
X113783333Y-64408557D01*
X113783333Y-64408557D02*
X114216666Y-64408557D01*
X114650000Y-63508557D02*
X114716666Y-63508557D01*
X114716666Y-63508557D02*
X114783333Y-63551414D01*
X114783333Y-63551414D02*
X114816666Y-63594271D01*
X114816666Y-63594271D02*
X114850000Y-63679985D01*
X114850000Y-63679985D02*
X114883333Y-63851414D01*
X114883333Y-63851414D02*
X114883333Y-64065700D01*
X114883333Y-64065700D02*
X114850000Y-64237128D01*
X114850000Y-64237128D02*
X114816666Y-64322842D01*
X114816666Y-64322842D02*
X114783333Y-64365700D01*
X114783333Y-64365700D02*
X114716666Y-64408557D01*
X114716666Y-64408557D02*
X114650000Y-64408557D01*
X114650000Y-64408557D02*
X114583333Y-64365700D01*
X114583333Y-64365700D02*
X114550000Y-64322842D01*
X114550000Y-64322842D02*
X114516666Y-64237128D01*
X114516666Y-64237128D02*
X114483333Y-64065700D01*
X114483333Y-64065700D02*
X114483333Y-63851414D01*
X114483333Y-63851414D02*
X114516666Y-63679985D01*
X114516666Y-63679985D02*
X114550000Y-63594271D01*
X114550000Y-63594271D02*
X114583333Y-63551414D01*
X114583333Y-63551414D02*
X114650000Y-63508557D01*
X129118333Y-59258557D02*
X128784999Y-59258557D01*
X128784999Y-59258557D02*
X128784999Y-58358557D01*
X129718333Y-59258557D02*
X129318333Y-59258557D01*
X129518333Y-59258557D02*
X129518333Y-58358557D01*
X129518333Y-58358557D02*
X129451666Y-58487128D01*
X129451666Y-58487128D02*
X129385000Y-58572842D01*
X129385000Y-58572842D02*
X129318333Y-58615700D01*
D13*
X115896428Y-57000926D02*
X115870237Y-57034260D01*
X115870237Y-57034260D02*
X115791666Y-57067593D01*
X115791666Y-57067593D02*
X115739285Y-57067593D01*
X115739285Y-57067593D02*
X115660713Y-57034260D01*
X115660713Y-57034260D02*
X115608332Y-56967593D01*
X115608332Y-56967593D02*
X115582142Y-56900926D01*
X115582142Y-56900926D02*
X115555951Y-56767593D01*
X115555951Y-56767593D02*
X115555951Y-56667593D01*
X115555951Y-56667593D02*
X115582142Y-56534260D01*
X115582142Y-56534260D02*
X115608332Y-56467593D01*
X115608332Y-56467593D02*
X115660713Y-56400926D01*
X115660713Y-56400926D02*
X115739285Y-56367593D01*
X115739285Y-56367593D02*
X115791666Y-56367593D01*
X115791666Y-56367593D02*
X115870237Y-56400926D01*
X115870237Y-56400926D02*
X115896428Y-56434260D01*
X116105951Y-56434260D02*
X116132142Y-56400926D01*
X116132142Y-56400926D02*
X116184523Y-56367593D01*
X116184523Y-56367593D02*
X116315475Y-56367593D01*
X116315475Y-56367593D02*
X116367856Y-56400926D01*
X116367856Y-56400926D02*
X116394047Y-56434260D01*
X116394047Y-56434260D02*
X116420237Y-56500926D01*
X116420237Y-56500926D02*
X116420237Y-56567593D01*
X116420237Y-56567593D02*
X116394047Y-56667593D01*
X116394047Y-56667593D02*
X116079761Y-57067593D01*
X116079761Y-57067593D02*
X116420237Y-57067593D01*
X116682142Y-57067593D02*
X116786904Y-57067593D01*
X116786904Y-57067593D02*
X116839285Y-57034260D01*
X116839285Y-57034260D02*
X116865476Y-57000926D01*
X116865476Y-57000926D02*
X116917857Y-56900926D01*
X116917857Y-56900926D02*
X116944047Y-56767593D01*
X116944047Y-56767593D02*
X116944047Y-56500926D01*
X116944047Y-56500926D02*
X116917857Y-56434260D01*
X116917857Y-56434260D02*
X116891666Y-56400926D01*
X116891666Y-56400926D02*
X116839285Y-56367593D01*
X116839285Y-56367593D02*
X116734523Y-56367593D01*
X116734523Y-56367593D02*
X116682142Y-56400926D01*
X116682142Y-56400926D02*
X116655952Y-56434260D01*
X116655952Y-56434260D02*
X116629761Y-56500926D01*
X116629761Y-56500926D02*
X116629761Y-56667593D01*
X116629761Y-56667593D02*
X116655952Y-56734260D01*
X116655952Y-56734260D02*
X116682142Y-56767593D01*
X116682142Y-56767593D02*
X116734523Y-56800926D01*
X116734523Y-56800926D02*
X116839285Y-56800926D01*
X116839285Y-56800926D02*
X116891666Y-56767593D01*
X116891666Y-56767593D02*
X116917857Y-56734260D01*
X116917857Y-56734260D02*
X116944047Y-56667593D01*
X116594047Y-62067593D02*
X116594047Y-61367593D01*
X116594047Y-61367593D02*
X116724999Y-61367593D01*
X116724999Y-61367593D02*
X116803571Y-61400926D01*
X116803571Y-61400926D02*
X116855952Y-61467593D01*
X116855952Y-61467593D02*
X116882142Y-61534260D01*
X116882142Y-61534260D02*
X116908333Y-61667593D01*
X116908333Y-61667593D02*
X116908333Y-61767593D01*
X116908333Y-61767593D02*
X116882142Y-61900926D01*
X116882142Y-61900926D02*
X116855952Y-61967593D01*
X116855952Y-61967593D02*
X116803571Y-62034260D01*
X116803571Y-62034260D02*
X116724999Y-62067593D01*
X116724999Y-62067593D02*
X116594047Y-62067593D01*
X117091666Y-61367593D02*
X117458333Y-61367593D01*
X117458333Y-61367593D02*
X117222618Y-62067593D01*
D11*
X110408557Y-52950000D02*
X109979985Y-53183333D01*
X110408557Y-53350000D02*
X109508557Y-53350000D01*
X109508557Y-53350000D02*
X109508557Y-53083333D01*
X109508557Y-53083333D02*
X109551414Y-53016667D01*
X109551414Y-53016667D02*
X109594271Y-52983333D01*
X109594271Y-52983333D02*
X109679985Y-52950000D01*
X109679985Y-52950000D02*
X109808557Y-52950000D01*
X109808557Y-52950000D02*
X109894271Y-52983333D01*
X109894271Y-52983333D02*
X109937128Y-53016667D01*
X109937128Y-53016667D02*
X109979985Y-53083333D01*
X109979985Y-53083333D02*
X109979985Y-53350000D01*
X109594271Y-52683333D02*
X109551414Y-52650000D01*
X109551414Y-52650000D02*
X109508557Y-52583333D01*
X109508557Y-52583333D02*
X109508557Y-52416667D01*
X109508557Y-52416667D02*
X109551414Y-52350000D01*
X109551414Y-52350000D02*
X109594271Y-52316667D01*
X109594271Y-52316667D02*
X109679985Y-52283333D01*
X109679985Y-52283333D02*
X109765700Y-52283333D01*
X109765700Y-52283333D02*
X109894271Y-52316667D01*
X109894271Y-52316667D02*
X110408557Y-52716667D01*
X110408557Y-52716667D02*
X110408557Y-52283333D01*
X109894271Y-51883333D02*
X109851414Y-51950000D01*
X109851414Y-51950000D02*
X109808557Y-51983333D01*
X109808557Y-51983333D02*
X109722842Y-52016666D01*
X109722842Y-52016666D02*
X109679985Y-52016666D01*
X109679985Y-52016666D02*
X109594271Y-51983333D01*
X109594271Y-51983333D02*
X109551414Y-51950000D01*
X109551414Y-51950000D02*
X109508557Y-51883333D01*
X109508557Y-51883333D02*
X109508557Y-51750000D01*
X109508557Y-51750000D02*
X109551414Y-51683333D01*
X109551414Y-51683333D02*
X109594271Y-51650000D01*
X109594271Y-51650000D02*
X109679985Y-51616666D01*
X109679985Y-51616666D02*
X109722842Y-51616666D01*
X109722842Y-51616666D02*
X109808557Y-51650000D01*
X109808557Y-51650000D02*
X109851414Y-51683333D01*
X109851414Y-51683333D02*
X109894271Y-51750000D01*
X109894271Y-51750000D02*
X109894271Y-51883333D01*
X109894271Y-51883333D02*
X109937128Y-51950000D01*
X109937128Y-51950000D02*
X109979985Y-51983333D01*
X109979985Y-51983333D02*
X110065700Y-52016666D01*
X110065700Y-52016666D02*
X110237128Y-52016666D01*
X110237128Y-52016666D02*
X110322842Y-51983333D01*
X110322842Y-51983333D02*
X110365700Y-51950000D01*
X110365700Y-51950000D02*
X110408557Y-51883333D01*
X110408557Y-51883333D02*
X110408557Y-51750000D01*
X110408557Y-51750000D02*
X110365700Y-51683333D01*
X110365700Y-51683333D02*
X110322842Y-51650000D01*
X110322842Y-51650000D02*
X110237128Y-51616666D01*
X110237128Y-51616666D02*
X110065700Y-51616666D01*
X110065700Y-51616666D02*
X109979985Y-51650000D01*
X109979985Y-51650000D02*
X109937128Y-51683333D01*
X109937128Y-51683333D02*
X109894271Y-51750000D01*
X123299999Y-82072842D02*
X123266666Y-82115700D01*
X123266666Y-82115700D02*
X123166666Y-82158557D01*
X123166666Y-82158557D02*
X123099999Y-82158557D01*
X123099999Y-82158557D02*
X122999999Y-82115700D01*
X122999999Y-82115700D02*
X122933333Y-82029985D01*
X122933333Y-82029985D02*
X122899999Y-81944271D01*
X122899999Y-81944271D02*
X122866666Y-81772842D01*
X122866666Y-81772842D02*
X122866666Y-81644271D01*
X122866666Y-81644271D02*
X122899999Y-81472842D01*
X122899999Y-81472842D02*
X122933333Y-81387128D01*
X122933333Y-81387128D02*
X122999999Y-81301414D01*
X122999999Y-81301414D02*
X123099999Y-81258557D01*
X123099999Y-81258557D02*
X123166666Y-81258557D01*
X123166666Y-81258557D02*
X123266666Y-81301414D01*
X123266666Y-81301414D02*
X123299999Y-81344271D01*
X123533333Y-81258557D02*
X123966666Y-81258557D01*
X123966666Y-81258557D02*
X123733333Y-81601414D01*
X123733333Y-81601414D02*
X123833333Y-81601414D01*
X123833333Y-81601414D02*
X123899999Y-81644271D01*
X123899999Y-81644271D02*
X123933333Y-81687128D01*
X123933333Y-81687128D02*
X123966666Y-81772842D01*
X123966666Y-81772842D02*
X123966666Y-81987128D01*
X123966666Y-81987128D02*
X123933333Y-82072842D01*
X123933333Y-82072842D02*
X123899999Y-82115700D01*
X123899999Y-82115700D02*
X123833333Y-82158557D01*
X123833333Y-82158557D02*
X123633333Y-82158557D01*
X123633333Y-82158557D02*
X123566666Y-82115700D01*
X123566666Y-82115700D02*
X123533333Y-82072842D01*
X124233333Y-81344271D02*
X124266666Y-81301414D01*
X124266666Y-81301414D02*
X124333333Y-81258557D01*
X124333333Y-81258557D02*
X124500000Y-81258557D01*
X124500000Y-81258557D02*
X124566666Y-81301414D01*
X124566666Y-81301414D02*
X124600000Y-81344271D01*
X124600000Y-81344271D02*
X124633333Y-81429985D01*
X124633333Y-81429985D02*
X124633333Y-81515700D01*
X124633333Y-81515700D02*
X124600000Y-81644271D01*
X124600000Y-81644271D02*
X124200000Y-82158557D01*
X124200000Y-82158557D02*
X124633333Y-82158557D01*
X114158557Y-55200000D02*
X113729985Y-55433333D01*
X114158557Y-55600000D02*
X113258557Y-55600000D01*
X113258557Y-55600000D02*
X113258557Y-55333333D01*
X113258557Y-55333333D02*
X113301414Y-55266667D01*
X113301414Y-55266667D02*
X113344271Y-55233333D01*
X113344271Y-55233333D02*
X113429985Y-55200000D01*
X113429985Y-55200000D02*
X113558557Y-55200000D01*
X113558557Y-55200000D02*
X113644271Y-55233333D01*
X113644271Y-55233333D02*
X113687128Y-55266667D01*
X113687128Y-55266667D02*
X113729985Y-55333333D01*
X113729985Y-55333333D02*
X113729985Y-55600000D01*
X113344271Y-54933333D02*
X113301414Y-54900000D01*
X113301414Y-54900000D02*
X113258557Y-54833333D01*
X113258557Y-54833333D02*
X113258557Y-54666667D01*
X113258557Y-54666667D02*
X113301414Y-54600000D01*
X113301414Y-54600000D02*
X113344271Y-54566667D01*
X113344271Y-54566667D02*
X113429985Y-54533333D01*
X113429985Y-54533333D02*
X113515700Y-54533333D01*
X113515700Y-54533333D02*
X113644271Y-54566667D01*
X113644271Y-54566667D02*
X114158557Y-54966667D01*
X114158557Y-54966667D02*
X114158557Y-54533333D01*
X114158557Y-54200000D02*
X114158557Y-54066666D01*
X114158557Y-54066666D02*
X114115700Y-54000000D01*
X114115700Y-54000000D02*
X114072842Y-53966666D01*
X114072842Y-53966666D02*
X113944271Y-53900000D01*
X113944271Y-53900000D02*
X113772842Y-53866666D01*
X113772842Y-53866666D02*
X113429985Y-53866666D01*
X113429985Y-53866666D02*
X113344271Y-53900000D01*
X113344271Y-53900000D02*
X113301414Y-53933333D01*
X113301414Y-53933333D02*
X113258557Y-54000000D01*
X113258557Y-54000000D02*
X113258557Y-54133333D01*
X113258557Y-54133333D02*
X113301414Y-54200000D01*
X113301414Y-54200000D02*
X113344271Y-54233333D01*
X113344271Y-54233333D02*
X113429985Y-54266666D01*
X113429985Y-54266666D02*
X113644271Y-54266666D01*
X113644271Y-54266666D02*
X113729985Y-54233333D01*
X113729985Y-54233333D02*
X113772842Y-54200000D01*
X113772842Y-54200000D02*
X113815700Y-54133333D01*
X113815700Y-54133333D02*
X113815700Y-54000000D01*
X113815700Y-54000000D02*
X113772842Y-53933333D01*
X113772842Y-53933333D02*
X113729985Y-53900000D01*
X113729985Y-53900000D02*
X113644271Y-53866666D01*
X117033333Y-69758557D02*
X117499999Y-70658557D01*
X117499999Y-69758557D02*
X117033333Y-70658557D01*
X118133333Y-70658557D02*
X117733333Y-70658557D01*
X117933333Y-70658557D02*
X117933333Y-69758557D01*
X117933333Y-69758557D02*
X117866666Y-69887128D01*
X117866666Y-69887128D02*
X117800000Y-69972842D01*
X117800000Y-69972842D02*
X117733333Y-70015700D01*
D13*
X111067593Y-60103571D02*
X110734260Y-60286905D01*
X111067593Y-60417857D02*
X110367593Y-60417857D01*
X110367593Y-60417857D02*
X110367593Y-60208333D01*
X110367593Y-60208333D02*
X110400926Y-60155952D01*
X110400926Y-60155952D02*
X110434260Y-60129762D01*
X110434260Y-60129762D02*
X110500926Y-60103571D01*
X110500926Y-60103571D02*
X110600926Y-60103571D01*
X110600926Y-60103571D02*
X110667593Y-60129762D01*
X110667593Y-60129762D02*
X110700926Y-60155952D01*
X110700926Y-60155952D02*
X110734260Y-60208333D01*
X110734260Y-60208333D02*
X110734260Y-60417857D01*
X110434260Y-59894048D02*
X110400926Y-59867857D01*
X110400926Y-59867857D02*
X110367593Y-59815476D01*
X110367593Y-59815476D02*
X110367593Y-59684524D01*
X110367593Y-59684524D02*
X110400926Y-59632143D01*
X110400926Y-59632143D02*
X110434260Y-59605952D01*
X110434260Y-59605952D02*
X110500926Y-59579762D01*
X110500926Y-59579762D02*
X110567593Y-59579762D01*
X110567593Y-59579762D02*
X110667593Y-59605952D01*
X110667593Y-59605952D02*
X111067593Y-59920238D01*
X111067593Y-59920238D02*
X111067593Y-59579762D01*
X110367593Y-59082142D02*
X110367593Y-59344047D01*
X110367593Y-59344047D02*
X110700926Y-59370238D01*
X110700926Y-59370238D02*
X110667593Y-59344047D01*
X110667593Y-59344047D02*
X110634260Y-59291666D01*
X110634260Y-59291666D02*
X110634260Y-59160714D01*
X110634260Y-59160714D02*
X110667593Y-59108333D01*
X110667593Y-59108333D02*
X110700926Y-59082142D01*
X110700926Y-59082142D02*
X110767593Y-59055952D01*
X110767593Y-59055952D02*
X110934260Y-59055952D01*
X110934260Y-59055952D02*
X111000926Y-59082142D01*
X111000926Y-59082142D02*
X111034260Y-59108333D01*
X111034260Y-59108333D02*
X111067593Y-59160714D01*
X111067593Y-59160714D02*
X111067593Y-59291666D01*
X111067593Y-59291666D02*
X111034260Y-59344047D01*
X111034260Y-59344047D02*
X111000926Y-59370238D01*
D11*
X101216666Y-68072842D02*
X101183333Y-68115700D01*
X101183333Y-68115700D02*
X101083333Y-68158557D01*
X101083333Y-68158557D02*
X101016666Y-68158557D01*
X101016666Y-68158557D02*
X100916666Y-68115700D01*
X100916666Y-68115700D02*
X100850000Y-68029985D01*
X100850000Y-68029985D02*
X100816666Y-67944271D01*
X100816666Y-67944271D02*
X100783333Y-67772842D01*
X100783333Y-67772842D02*
X100783333Y-67644271D01*
X100783333Y-67644271D02*
X100816666Y-67472842D01*
X100816666Y-67472842D02*
X100850000Y-67387128D01*
X100850000Y-67387128D02*
X100916666Y-67301414D01*
X100916666Y-67301414D02*
X101016666Y-67258557D01*
X101016666Y-67258557D02*
X101083333Y-67258557D01*
X101083333Y-67258557D02*
X101183333Y-67301414D01*
X101183333Y-67301414D02*
X101216666Y-67344271D01*
X101883333Y-68158557D02*
X101483333Y-68158557D01*
X101683333Y-68158557D02*
X101683333Y-67258557D01*
X101683333Y-67258557D02*
X101616666Y-67387128D01*
X101616666Y-67387128D02*
X101550000Y-67472842D01*
X101550000Y-67472842D02*
X101483333Y-67515700D01*
X102116667Y-67258557D02*
X102583333Y-67258557D01*
X102583333Y-67258557D02*
X102283333Y-68158557D01*
X123349999Y-63072842D02*
X123316666Y-63115700D01*
X123316666Y-63115700D02*
X123216666Y-63158557D01*
X123216666Y-63158557D02*
X123149999Y-63158557D01*
X123149999Y-63158557D02*
X123049999Y-63115700D01*
X123049999Y-63115700D02*
X122983333Y-63029985D01*
X122983333Y-63029985D02*
X122949999Y-62944271D01*
X122949999Y-62944271D02*
X122916666Y-62772842D01*
X122916666Y-62772842D02*
X122916666Y-62644271D01*
X122916666Y-62644271D02*
X122949999Y-62472842D01*
X122949999Y-62472842D02*
X122983333Y-62387128D01*
X122983333Y-62387128D02*
X123049999Y-62301414D01*
X123049999Y-62301414D02*
X123149999Y-62258557D01*
X123149999Y-62258557D02*
X123216666Y-62258557D01*
X123216666Y-62258557D02*
X123316666Y-62301414D01*
X123316666Y-62301414D02*
X123349999Y-62344271D01*
X123616666Y-62344271D02*
X123649999Y-62301414D01*
X123649999Y-62301414D02*
X123716666Y-62258557D01*
X123716666Y-62258557D02*
X123883333Y-62258557D01*
X123883333Y-62258557D02*
X123949999Y-62301414D01*
X123949999Y-62301414D02*
X123983333Y-62344271D01*
X123983333Y-62344271D02*
X124016666Y-62429985D01*
X124016666Y-62429985D02*
X124016666Y-62515700D01*
X124016666Y-62515700D02*
X123983333Y-62644271D01*
X123983333Y-62644271D02*
X123583333Y-63158557D01*
X123583333Y-63158557D02*
X124016666Y-63158557D01*
X124283333Y-62344271D02*
X124316666Y-62301414D01*
X124316666Y-62301414D02*
X124383333Y-62258557D01*
X124383333Y-62258557D02*
X124550000Y-62258557D01*
X124550000Y-62258557D02*
X124616666Y-62301414D01*
X124616666Y-62301414D02*
X124650000Y-62344271D01*
X124650000Y-62344271D02*
X124683333Y-62429985D01*
X124683333Y-62429985D02*
X124683333Y-62515700D01*
X124683333Y-62515700D02*
X124650000Y-62644271D01*
X124650000Y-62644271D02*
X124250000Y-63158557D01*
X124250000Y-63158557D02*
X124683333Y-63158557D01*
X136299999Y-80908557D02*
X136066666Y-80479985D01*
X135899999Y-80908557D02*
X135899999Y-80008557D01*
X135899999Y-80008557D02*
X136166666Y-80008557D01*
X136166666Y-80008557D02*
X136233333Y-80051414D01*
X136233333Y-80051414D02*
X136266666Y-80094271D01*
X136266666Y-80094271D02*
X136299999Y-80179985D01*
X136299999Y-80179985D02*
X136299999Y-80308557D01*
X136299999Y-80308557D02*
X136266666Y-80394271D01*
X136266666Y-80394271D02*
X136233333Y-80437128D01*
X136233333Y-80437128D02*
X136166666Y-80479985D01*
X136166666Y-80479985D02*
X135899999Y-80479985D01*
X136533333Y-80008557D02*
X136966666Y-80008557D01*
X136966666Y-80008557D02*
X136733333Y-80351414D01*
X136733333Y-80351414D02*
X136833333Y-80351414D01*
X136833333Y-80351414D02*
X136899999Y-80394271D01*
X136899999Y-80394271D02*
X136933333Y-80437128D01*
X136933333Y-80437128D02*
X136966666Y-80522842D01*
X136966666Y-80522842D02*
X136966666Y-80737128D01*
X136966666Y-80737128D02*
X136933333Y-80822842D01*
X136933333Y-80822842D02*
X136899999Y-80865700D01*
X136899999Y-80865700D02*
X136833333Y-80908557D01*
X136833333Y-80908557D02*
X136633333Y-80908557D01*
X136633333Y-80908557D02*
X136566666Y-80865700D01*
X136566666Y-80865700D02*
X136533333Y-80822842D01*
X137233333Y-80094271D02*
X137266666Y-80051414D01*
X137266666Y-80051414D02*
X137333333Y-80008557D01*
X137333333Y-80008557D02*
X137500000Y-80008557D01*
X137500000Y-80008557D02*
X137566666Y-80051414D01*
X137566666Y-80051414D02*
X137600000Y-80094271D01*
X137600000Y-80094271D02*
X137633333Y-80179985D01*
X137633333Y-80179985D02*
X137633333Y-80265700D01*
X137633333Y-80265700D02*
X137600000Y-80394271D01*
X137600000Y-80394271D02*
X137200000Y-80908557D01*
X137200000Y-80908557D02*
X137633333Y-80908557D01*
X120208557Y-73950000D02*
X119779985Y-74183333D01*
X120208557Y-74350000D02*
X119308557Y-74350000D01*
X119308557Y-74350000D02*
X119308557Y-74083333D01*
X119308557Y-74083333D02*
X119351414Y-74016667D01*
X119351414Y-74016667D02*
X119394271Y-73983333D01*
X119394271Y-73983333D02*
X119479985Y-73950000D01*
X119479985Y-73950000D02*
X119608557Y-73950000D01*
X119608557Y-73950000D02*
X119694271Y-73983333D01*
X119694271Y-73983333D02*
X119737128Y-74016667D01*
X119737128Y-74016667D02*
X119779985Y-74083333D01*
X119779985Y-74083333D02*
X119779985Y-74350000D01*
X120208557Y-73283333D02*
X120208557Y-73683333D01*
X120208557Y-73483333D02*
X119308557Y-73483333D01*
X119308557Y-73483333D02*
X119437128Y-73550000D01*
X119437128Y-73550000D02*
X119522842Y-73616667D01*
X119522842Y-73616667D02*
X119565700Y-73683333D01*
X119308557Y-72650000D02*
X119308557Y-72983333D01*
X119308557Y-72983333D02*
X119737128Y-73016666D01*
X119737128Y-73016666D02*
X119694271Y-72983333D01*
X119694271Y-72983333D02*
X119651414Y-72916666D01*
X119651414Y-72916666D02*
X119651414Y-72750000D01*
X119651414Y-72750000D02*
X119694271Y-72683333D01*
X119694271Y-72683333D02*
X119737128Y-72650000D01*
X119737128Y-72650000D02*
X119822842Y-72616666D01*
X119822842Y-72616666D02*
X120037128Y-72616666D01*
X120037128Y-72616666D02*
X120122842Y-72650000D01*
X120122842Y-72650000D02*
X120165700Y-72683333D01*
X120165700Y-72683333D02*
X120208557Y-72750000D01*
X120208557Y-72750000D02*
X120208557Y-72916666D01*
X120208557Y-72916666D02*
X120165700Y-72983333D01*
X120165700Y-72983333D02*
X120122842Y-73016666D01*
X120483333Y-95808557D02*
X120250000Y-95379985D01*
X120083333Y-95808557D02*
X120083333Y-94908557D01*
X120083333Y-94908557D02*
X120350000Y-94908557D01*
X120350000Y-94908557D02*
X120416667Y-94951414D01*
X120416667Y-94951414D02*
X120450000Y-94994271D01*
X120450000Y-94994271D02*
X120483333Y-95079985D01*
X120483333Y-95079985D02*
X120483333Y-95208557D01*
X120483333Y-95208557D02*
X120450000Y-95294271D01*
X120450000Y-95294271D02*
X120416667Y-95337128D01*
X120416667Y-95337128D02*
X120350000Y-95379985D01*
X120350000Y-95379985D02*
X120083333Y-95379985D01*
X120883333Y-95294271D02*
X120816667Y-95251414D01*
X120816667Y-95251414D02*
X120783333Y-95208557D01*
X120783333Y-95208557D02*
X120750000Y-95122842D01*
X120750000Y-95122842D02*
X120750000Y-95079985D01*
X120750000Y-95079985D02*
X120783333Y-94994271D01*
X120783333Y-94994271D02*
X120816667Y-94951414D01*
X120816667Y-94951414D02*
X120883333Y-94908557D01*
X120883333Y-94908557D02*
X121016667Y-94908557D01*
X121016667Y-94908557D02*
X121083333Y-94951414D01*
X121083333Y-94951414D02*
X121116667Y-94994271D01*
X121116667Y-94994271D02*
X121150000Y-95079985D01*
X121150000Y-95079985D02*
X121150000Y-95122842D01*
X121150000Y-95122842D02*
X121116667Y-95208557D01*
X121116667Y-95208557D02*
X121083333Y-95251414D01*
X121083333Y-95251414D02*
X121016667Y-95294271D01*
X121016667Y-95294271D02*
X120883333Y-95294271D01*
X120883333Y-95294271D02*
X120816667Y-95337128D01*
X120816667Y-95337128D02*
X120783333Y-95379985D01*
X120783333Y-95379985D02*
X120750000Y-95465700D01*
X120750000Y-95465700D02*
X120750000Y-95637128D01*
X120750000Y-95637128D02*
X120783333Y-95722842D01*
X120783333Y-95722842D02*
X120816667Y-95765700D01*
X120816667Y-95765700D02*
X120883333Y-95808557D01*
X120883333Y-95808557D02*
X121016667Y-95808557D01*
X121016667Y-95808557D02*
X121083333Y-95765700D01*
X121083333Y-95765700D02*
X121116667Y-95722842D01*
X121116667Y-95722842D02*
X121150000Y-95637128D01*
X121150000Y-95637128D02*
X121150000Y-95465700D01*
X121150000Y-95465700D02*
X121116667Y-95379985D01*
X121116667Y-95379985D02*
X121083333Y-95337128D01*
X121083333Y-95337128D02*
X121016667Y-95294271D01*
X130299999Y-63072842D02*
X130266666Y-63115700D01*
X130266666Y-63115700D02*
X130166666Y-63158557D01*
X130166666Y-63158557D02*
X130099999Y-63158557D01*
X130099999Y-63158557D02*
X129999999Y-63115700D01*
X129999999Y-63115700D02*
X129933333Y-63029985D01*
X129933333Y-63029985D02*
X129899999Y-62944271D01*
X129899999Y-62944271D02*
X129866666Y-62772842D01*
X129866666Y-62772842D02*
X129866666Y-62644271D01*
X129866666Y-62644271D02*
X129899999Y-62472842D01*
X129899999Y-62472842D02*
X129933333Y-62387128D01*
X129933333Y-62387128D02*
X129999999Y-62301414D01*
X129999999Y-62301414D02*
X130099999Y-62258557D01*
X130099999Y-62258557D02*
X130166666Y-62258557D01*
X130166666Y-62258557D02*
X130266666Y-62301414D01*
X130266666Y-62301414D02*
X130299999Y-62344271D01*
X130566666Y-62344271D02*
X130599999Y-62301414D01*
X130599999Y-62301414D02*
X130666666Y-62258557D01*
X130666666Y-62258557D02*
X130833333Y-62258557D01*
X130833333Y-62258557D02*
X130899999Y-62301414D01*
X130899999Y-62301414D02*
X130933333Y-62344271D01*
X130933333Y-62344271D02*
X130966666Y-62429985D01*
X130966666Y-62429985D02*
X130966666Y-62515700D01*
X130966666Y-62515700D02*
X130933333Y-62644271D01*
X130933333Y-62644271D02*
X130533333Y-63158557D01*
X130533333Y-63158557D02*
X130966666Y-63158557D01*
X131200000Y-62258557D02*
X131633333Y-62258557D01*
X131633333Y-62258557D02*
X131400000Y-62601414D01*
X131400000Y-62601414D02*
X131500000Y-62601414D01*
X131500000Y-62601414D02*
X131566666Y-62644271D01*
X131566666Y-62644271D02*
X131600000Y-62687128D01*
X131600000Y-62687128D02*
X131633333Y-62772842D01*
X131633333Y-62772842D02*
X131633333Y-62987128D01*
X131633333Y-62987128D02*
X131600000Y-63072842D01*
X131600000Y-63072842D02*
X131566666Y-63115700D01*
X131566666Y-63115700D02*
X131500000Y-63158557D01*
X131500000Y-63158557D02*
X131300000Y-63158557D01*
X131300000Y-63158557D02*
X131233333Y-63115700D01*
X131233333Y-63115700D02*
X131200000Y-63072842D01*
X124072842Y-54950000D02*
X124115700Y-54983333D01*
X124115700Y-54983333D02*
X124158557Y-55083333D01*
X124158557Y-55083333D02*
X124158557Y-55150000D01*
X124158557Y-55150000D02*
X124115700Y-55250000D01*
X124115700Y-55250000D02*
X124029985Y-55316667D01*
X124029985Y-55316667D02*
X123944271Y-55350000D01*
X123944271Y-55350000D02*
X123772842Y-55383333D01*
X123772842Y-55383333D02*
X123644271Y-55383333D01*
X123644271Y-55383333D02*
X123472842Y-55350000D01*
X123472842Y-55350000D02*
X123387128Y-55316667D01*
X123387128Y-55316667D02*
X123301414Y-55250000D01*
X123301414Y-55250000D02*
X123258557Y-55150000D01*
X123258557Y-55150000D02*
X123258557Y-55083333D01*
X123258557Y-55083333D02*
X123301414Y-54983333D01*
X123301414Y-54983333D02*
X123344271Y-54950000D01*
X123344271Y-54683333D02*
X123301414Y-54650000D01*
X123301414Y-54650000D02*
X123258557Y-54583333D01*
X123258557Y-54583333D02*
X123258557Y-54416667D01*
X123258557Y-54416667D02*
X123301414Y-54350000D01*
X123301414Y-54350000D02*
X123344271Y-54316667D01*
X123344271Y-54316667D02*
X123429985Y-54283333D01*
X123429985Y-54283333D02*
X123515700Y-54283333D01*
X123515700Y-54283333D02*
X123644271Y-54316667D01*
X123644271Y-54316667D02*
X124158557Y-54716667D01*
X124158557Y-54716667D02*
X124158557Y-54283333D01*
X123258557Y-53650000D02*
X123258557Y-53983333D01*
X123258557Y-53983333D02*
X123687128Y-54016666D01*
X123687128Y-54016666D02*
X123644271Y-53983333D01*
X123644271Y-53983333D02*
X123601414Y-53916666D01*
X123601414Y-53916666D02*
X123601414Y-53750000D01*
X123601414Y-53750000D02*
X123644271Y-53683333D01*
X123644271Y-53683333D02*
X123687128Y-53650000D01*
X123687128Y-53650000D02*
X123772842Y-53616666D01*
X123772842Y-53616666D02*
X123987128Y-53616666D01*
X123987128Y-53616666D02*
X124072842Y-53650000D01*
X124072842Y-53650000D02*
X124115700Y-53683333D01*
X124115700Y-53683333D02*
X124158557Y-53750000D01*
X124158557Y-53750000D02*
X124158557Y-53916666D01*
X124158557Y-53916666D02*
X124115700Y-53983333D01*
X124115700Y-53983333D02*
X124072842Y-54016666D01*
X115716666Y-84008557D02*
X115716666Y-84737128D01*
X115716666Y-84737128D02*
X115750000Y-84822842D01*
X115750000Y-84822842D02*
X115783333Y-84865700D01*
X115783333Y-84865700D02*
X115850000Y-84908557D01*
X115850000Y-84908557D02*
X115983333Y-84908557D01*
X115983333Y-84908557D02*
X116050000Y-84865700D01*
X116050000Y-84865700D02*
X116083333Y-84822842D01*
X116083333Y-84822842D02*
X116116666Y-84737128D01*
X116116666Y-84737128D02*
X116116666Y-84008557D01*
X116383333Y-84008557D02*
X116816666Y-84008557D01*
X116816666Y-84008557D02*
X116583333Y-84351414D01*
X116583333Y-84351414D02*
X116683333Y-84351414D01*
X116683333Y-84351414D02*
X116749999Y-84394271D01*
X116749999Y-84394271D02*
X116783333Y-84437128D01*
X116783333Y-84437128D02*
X116816666Y-84522842D01*
X116816666Y-84522842D02*
X116816666Y-84737128D01*
X116816666Y-84737128D02*
X116783333Y-84822842D01*
X116783333Y-84822842D02*
X116749999Y-84865700D01*
X116749999Y-84865700D02*
X116683333Y-84908557D01*
X116683333Y-84908557D02*
X116483333Y-84908557D01*
X116483333Y-84908557D02*
X116416666Y-84865700D01*
X116416666Y-84865700D02*
X116383333Y-84822842D01*
D13*
X118646428Y-57000926D02*
X118620237Y-57034260D01*
X118620237Y-57034260D02*
X118541666Y-57067593D01*
X118541666Y-57067593D02*
X118489285Y-57067593D01*
X118489285Y-57067593D02*
X118410713Y-57034260D01*
X118410713Y-57034260D02*
X118358332Y-56967593D01*
X118358332Y-56967593D02*
X118332142Y-56900926D01*
X118332142Y-56900926D02*
X118305951Y-56767593D01*
X118305951Y-56767593D02*
X118305951Y-56667593D01*
X118305951Y-56667593D02*
X118332142Y-56534260D01*
X118332142Y-56534260D02*
X118358332Y-56467593D01*
X118358332Y-56467593D02*
X118410713Y-56400926D01*
X118410713Y-56400926D02*
X118489285Y-56367593D01*
X118489285Y-56367593D02*
X118541666Y-56367593D01*
X118541666Y-56367593D02*
X118620237Y-56400926D01*
X118620237Y-56400926D02*
X118646428Y-56434260D01*
X118829761Y-56367593D02*
X119170237Y-56367593D01*
X119170237Y-56367593D02*
X118986904Y-56634260D01*
X118986904Y-56634260D02*
X119065475Y-56634260D01*
X119065475Y-56634260D02*
X119117856Y-56667593D01*
X119117856Y-56667593D02*
X119144047Y-56700926D01*
X119144047Y-56700926D02*
X119170237Y-56767593D01*
X119170237Y-56767593D02*
X119170237Y-56934260D01*
X119170237Y-56934260D02*
X119144047Y-57000926D01*
X119144047Y-57000926D02*
X119117856Y-57034260D01*
X119117856Y-57034260D02*
X119065475Y-57067593D01*
X119065475Y-57067593D02*
X118908332Y-57067593D01*
X118908332Y-57067593D02*
X118855951Y-57034260D01*
X118855951Y-57034260D02*
X118829761Y-57000926D01*
X119510714Y-56367593D02*
X119563095Y-56367593D01*
X119563095Y-56367593D02*
X119615476Y-56400926D01*
X119615476Y-56400926D02*
X119641666Y-56434260D01*
X119641666Y-56434260D02*
X119667857Y-56500926D01*
X119667857Y-56500926D02*
X119694047Y-56634260D01*
X119694047Y-56634260D02*
X119694047Y-56800926D01*
X119694047Y-56800926D02*
X119667857Y-56934260D01*
X119667857Y-56934260D02*
X119641666Y-57000926D01*
X119641666Y-57000926D02*
X119615476Y-57034260D01*
X119615476Y-57034260D02*
X119563095Y-57067593D01*
X119563095Y-57067593D02*
X119510714Y-57067593D01*
X119510714Y-57067593D02*
X119458333Y-57034260D01*
X119458333Y-57034260D02*
X119432142Y-57000926D01*
X119432142Y-57000926D02*
X119405952Y-56934260D01*
X119405952Y-56934260D02*
X119379761Y-56800926D01*
X119379761Y-56800926D02*
X119379761Y-56634260D01*
X119379761Y-56634260D02*
X119405952Y-56500926D01*
X119405952Y-56500926D02*
X119432142Y-56434260D01*
X119432142Y-56434260D02*
X119458333Y-56400926D01*
X119458333Y-56400926D02*
X119510714Y-56367593D01*
D11*
X136299999Y-82158557D02*
X136066666Y-81729985D01*
X135899999Y-82158557D02*
X135899999Y-81258557D01*
X135899999Y-81258557D02*
X136166666Y-81258557D01*
X136166666Y-81258557D02*
X136233333Y-81301414D01*
X136233333Y-81301414D02*
X136266666Y-81344271D01*
X136266666Y-81344271D02*
X136299999Y-81429985D01*
X136299999Y-81429985D02*
X136299999Y-81558557D01*
X136299999Y-81558557D02*
X136266666Y-81644271D01*
X136266666Y-81644271D02*
X136233333Y-81687128D01*
X136233333Y-81687128D02*
X136166666Y-81729985D01*
X136166666Y-81729985D02*
X135899999Y-81729985D01*
X136533333Y-81258557D02*
X136966666Y-81258557D01*
X136966666Y-81258557D02*
X136733333Y-81601414D01*
X136733333Y-81601414D02*
X136833333Y-81601414D01*
X136833333Y-81601414D02*
X136899999Y-81644271D01*
X136899999Y-81644271D02*
X136933333Y-81687128D01*
X136933333Y-81687128D02*
X136966666Y-81772842D01*
X136966666Y-81772842D02*
X136966666Y-81987128D01*
X136966666Y-81987128D02*
X136933333Y-82072842D01*
X136933333Y-82072842D02*
X136899999Y-82115700D01*
X136899999Y-82115700D02*
X136833333Y-82158557D01*
X136833333Y-82158557D02*
X136633333Y-82158557D01*
X136633333Y-82158557D02*
X136566666Y-82115700D01*
X136566666Y-82115700D02*
X136533333Y-82072842D01*
X137566666Y-81258557D02*
X137433333Y-81258557D01*
X137433333Y-81258557D02*
X137366666Y-81301414D01*
X137366666Y-81301414D02*
X137333333Y-81344271D01*
X137333333Y-81344271D02*
X137266666Y-81472842D01*
X137266666Y-81472842D02*
X137233333Y-81644271D01*
X137233333Y-81644271D02*
X137233333Y-81987128D01*
X137233333Y-81987128D02*
X137266666Y-82072842D01*
X137266666Y-82072842D02*
X137300000Y-82115700D01*
X137300000Y-82115700D02*
X137366666Y-82158557D01*
X137366666Y-82158557D02*
X137500000Y-82158557D01*
X137500000Y-82158557D02*
X137566666Y-82115700D01*
X137566666Y-82115700D02*
X137600000Y-82072842D01*
X137600000Y-82072842D02*
X137633333Y-81987128D01*
X137633333Y-81987128D02*
X137633333Y-81772842D01*
X137633333Y-81772842D02*
X137600000Y-81687128D01*
X137600000Y-81687128D02*
X137566666Y-81644271D01*
X137566666Y-81644271D02*
X137500000Y-81601414D01*
X137500000Y-81601414D02*
X137366666Y-81601414D01*
X137366666Y-81601414D02*
X137300000Y-81644271D01*
X137300000Y-81644271D02*
X137266666Y-81687128D01*
X137266666Y-81687128D02*
X137233333Y-81772842D01*
X112208557Y-52316666D02*
X111779985Y-52549999D01*
X112208557Y-52716666D02*
X111308557Y-52716666D01*
X111308557Y-52716666D02*
X111308557Y-52449999D01*
X111308557Y-52449999D02*
X111351414Y-52383333D01*
X111351414Y-52383333D02*
X111394271Y-52349999D01*
X111394271Y-52349999D02*
X111479985Y-52316666D01*
X111479985Y-52316666D02*
X111608557Y-52316666D01*
X111608557Y-52316666D02*
X111694271Y-52349999D01*
X111694271Y-52349999D02*
X111737128Y-52383333D01*
X111737128Y-52383333D02*
X111779985Y-52449999D01*
X111779985Y-52449999D02*
X111779985Y-52716666D01*
X112208557Y-51649999D02*
X112208557Y-52049999D01*
X112208557Y-51849999D02*
X111308557Y-51849999D01*
X111308557Y-51849999D02*
X111437128Y-51916666D01*
X111437128Y-51916666D02*
X111522842Y-51983333D01*
X111522842Y-51983333D02*
X111565700Y-52049999D01*
X108133333Y-83572842D02*
X108100000Y-83615700D01*
X108100000Y-83615700D02*
X108000000Y-83658557D01*
X108000000Y-83658557D02*
X107933333Y-83658557D01*
X107933333Y-83658557D02*
X107833333Y-83615700D01*
X107833333Y-83615700D02*
X107766667Y-83529985D01*
X107766667Y-83529985D02*
X107733333Y-83444271D01*
X107733333Y-83444271D02*
X107700000Y-83272842D01*
X107700000Y-83272842D02*
X107700000Y-83144271D01*
X107700000Y-83144271D02*
X107733333Y-82972842D01*
X107733333Y-82972842D02*
X107766667Y-82887128D01*
X107766667Y-82887128D02*
X107833333Y-82801414D01*
X107833333Y-82801414D02*
X107933333Y-82758557D01*
X107933333Y-82758557D02*
X108000000Y-82758557D01*
X108000000Y-82758557D02*
X108100000Y-82801414D01*
X108100000Y-82801414D02*
X108133333Y-82844271D01*
X108733333Y-83058557D02*
X108733333Y-83658557D01*
X108566667Y-82715700D02*
X108400000Y-83358557D01*
X108400000Y-83358557D02*
X108833333Y-83358557D01*
X136299999Y-83408557D02*
X136066666Y-82979985D01*
X135899999Y-83408557D02*
X135899999Y-82508557D01*
X135899999Y-82508557D02*
X136166666Y-82508557D01*
X136166666Y-82508557D02*
X136233333Y-82551414D01*
X136233333Y-82551414D02*
X136266666Y-82594271D01*
X136266666Y-82594271D02*
X136299999Y-82679985D01*
X136299999Y-82679985D02*
X136299999Y-82808557D01*
X136299999Y-82808557D02*
X136266666Y-82894271D01*
X136266666Y-82894271D02*
X136233333Y-82937128D01*
X136233333Y-82937128D02*
X136166666Y-82979985D01*
X136166666Y-82979985D02*
X135899999Y-82979985D01*
X136533333Y-82508557D02*
X136966666Y-82508557D01*
X136966666Y-82508557D02*
X136733333Y-82851414D01*
X136733333Y-82851414D02*
X136833333Y-82851414D01*
X136833333Y-82851414D02*
X136899999Y-82894271D01*
X136899999Y-82894271D02*
X136933333Y-82937128D01*
X136933333Y-82937128D02*
X136966666Y-83022842D01*
X136966666Y-83022842D02*
X136966666Y-83237128D01*
X136966666Y-83237128D02*
X136933333Y-83322842D01*
X136933333Y-83322842D02*
X136899999Y-83365700D01*
X136899999Y-83365700D02*
X136833333Y-83408557D01*
X136833333Y-83408557D02*
X136633333Y-83408557D01*
X136633333Y-83408557D02*
X136566666Y-83365700D01*
X136566666Y-83365700D02*
X136533333Y-83322842D01*
X137600000Y-82508557D02*
X137266666Y-82508557D01*
X137266666Y-82508557D02*
X137233333Y-82937128D01*
X137233333Y-82937128D02*
X137266666Y-82894271D01*
X137266666Y-82894271D02*
X137333333Y-82851414D01*
X137333333Y-82851414D02*
X137500000Y-82851414D01*
X137500000Y-82851414D02*
X137566666Y-82894271D01*
X137566666Y-82894271D02*
X137600000Y-82937128D01*
X137600000Y-82937128D02*
X137633333Y-83022842D01*
X137633333Y-83022842D02*
X137633333Y-83237128D01*
X137633333Y-83237128D02*
X137600000Y-83322842D01*
X137600000Y-83322842D02*
X137566666Y-83365700D01*
X137566666Y-83365700D02*
X137500000Y-83408557D01*
X137500000Y-83408557D02*
X137333333Y-83408557D01*
X137333333Y-83408557D02*
X137266666Y-83365700D01*
X137266666Y-83365700D02*
X137233333Y-83322842D01*
X101216666Y-74908557D02*
X100983333Y-74479985D01*
X100816666Y-74908557D02*
X100816666Y-74008557D01*
X100816666Y-74008557D02*
X101083333Y-74008557D01*
X101083333Y-74008557D02*
X101150000Y-74051414D01*
X101150000Y-74051414D02*
X101183333Y-74094271D01*
X101183333Y-74094271D02*
X101216666Y-74179985D01*
X101216666Y-74179985D02*
X101216666Y-74308557D01*
X101216666Y-74308557D02*
X101183333Y-74394271D01*
X101183333Y-74394271D02*
X101150000Y-74437128D01*
X101150000Y-74437128D02*
X101083333Y-74479985D01*
X101083333Y-74479985D02*
X100816666Y-74479985D01*
X101883333Y-74908557D02*
X101483333Y-74908557D01*
X101683333Y-74908557D02*
X101683333Y-74008557D01*
X101683333Y-74008557D02*
X101616666Y-74137128D01*
X101616666Y-74137128D02*
X101550000Y-74222842D01*
X101550000Y-74222842D02*
X101483333Y-74265700D01*
X102316667Y-74008557D02*
X102383333Y-74008557D01*
X102383333Y-74008557D02*
X102450000Y-74051414D01*
X102450000Y-74051414D02*
X102483333Y-74094271D01*
X102483333Y-74094271D02*
X102516667Y-74179985D01*
X102516667Y-74179985D02*
X102550000Y-74351414D01*
X102550000Y-74351414D02*
X102550000Y-74565700D01*
X102550000Y-74565700D02*
X102516667Y-74737128D01*
X102516667Y-74737128D02*
X102483333Y-74822842D01*
X102483333Y-74822842D02*
X102450000Y-74865700D01*
X102450000Y-74865700D02*
X102383333Y-74908557D01*
X102383333Y-74908557D02*
X102316667Y-74908557D01*
X102316667Y-74908557D02*
X102250000Y-74865700D01*
X102250000Y-74865700D02*
X102216667Y-74822842D01*
X102216667Y-74822842D02*
X102183333Y-74737128D01*
X102183333Y-74737128D02*
X102150000Y-74565700D01*
X102150000Y-74565700D02*
X102150000Y-74351414D01*
X102150000Y-74351414D02*
X102183333Y-74179985D01*
X102183333Y-74179985D02*
X102216667Y-74094271D01*
X102216667Y-74094271D02*
X102250000Y-74051414D01*
X102250000Y-74051414D02*
X102316667Y-74008557D01*
X101883333Y-71822842D02*
X101850000Y-71865700D01*
X101850000Y-71865700D02*
X101750000Y-71908557D01*
X101750000Y-71908557D02*
X101683333Y-71908557D01*
X101683333Y-71908557D02*
X101583333Y-71865700D01*
X101583333Y-71865700D02*
X101516667Y-71779985D01*
X101516667Y-71779985D02*
X101483333Y-71694271D01*
X101483333Y-71694271D02*
X101450000Y-71522842D01*
X101450000Y-71522842D02*
X101450000Y-71394271D01*
X101450000Y-71394271D02*
X101483333Y-71222842D01*
X101483333Y-71222842D02*
X101516667Y-71137128D01*
X101516667Y-71137128D02*
X101583333Y-71051414D01*
X101583333Y-71051414D02*
X101683333Y-71008557D01*
X101683333Y-71008557D02*
X101750000Y-71008557D01*
X101750000Y-71008557D02*
X101850000Y-71051414D01*
X101850000Y-71051414D02*
X101883333Y-71094271D01*
X102283333Y-71394271D02*
X102216667Y-71351414D01*
X102216667Y-71351414D02*
X102183333Y-71308557D01*
X102183333Y-71308557D02*
X102150000Y-71222842D01*
X102150000Y-71222842D02*
X102150000Y-71179985D01*
X102150000Y-71179985D02*
X102183333Y-71094271D01*
X102183333Y-71094271D02*
X102216667Y-71051414D01*
X102216667Y-71051414D02*
X102283333Y-71008557D01*
X102283333Y-71008557D02*
X102416667Y-71008557D01*
X102416667Y-71008557D02*
X102483333Y-71051414D01*
X102483333Y-71051414D02*
X102516667Y-71094271D01*
X102516667Y-71094271D02*
X102550000Y-71179985D01*
X102550000Y-71179985D02*
X102550000Y-71222842D01*
X102550000Y-71222842D02*
X102516667Y-71308557D01*
X102516667Y-71308557D02*
X102483333Y-71351414D01*
X102483333Y-71351414D02*
X102416667Y-71394271D01*
X102416667Y-71394271D02*
X102283333Y-71394271D01*
X102283333Y-71394271D02*
X102216667Y-71437128D01*
X102216667Y-71437128D02*
X102183333Y-71479985D01*
X102183333Y-71479985D02*
X102150000Y-71565700D01*
X102150000Y-71565700D02*
X102150000Y-71737128D01*
X102150000Y-71737128D02*
X102183333Y-71822842D01*
X102183333Y-71822842D02*
X102216667Y-71865700D01*
X102216667Y-71865700D02*
X102283333Y-71908557D01*
X102283333Y-71908557D02*
X102416667Y-71908557D01*
X102416667Y-71908557D02*
X102483333Y-71865700D01*
X102483333Y-71865700D02*
X102516667Y-71822842D01*
X102516667Y-71822842D02*
X102550000Y-71737128D01*
X102550000Y-71737128D02*
X102550000Y-71565700D01*
X102550000Y-71565700D02*
X102516667Y-71479985D01*
X102516667Y-71479985D02*
X102483333Y-71437128D01*
X102483333Y-71437128D02*
X102416667Y-71394271D01*
D13*
X109817593Y-60103571D02*
X109484260Y-60286905D01*
X109817593Y-60417857D02*
X109117593Y-60417857D01*
X109117593Y-60417857D02*
X109117593Y-60208333D01*
X109117593Y-60208333D02*
X109150926Y-60155952D01*
X109150926Y-60155952D02*
X109184260Y-60129762D01*
X109184260Y-60129762D02*
X109250926Y-60103571D01*
X109250926Y-60103571D02*
X109350926Y-60103571D01*
X109350926Y-60103571D02*
X109417593Y-60129762D01*
X109417593Y-60129762D02*
X109450926Y-60155952D01*
X109450926Y-60155952D02*
X109484260Y-60208333D01*
X109484260Y-60208333D02*
X109484260Y-60417857D01*
X109184260Y-59894048D02*
X109150926Y-59867857D01*
X109150926Y-59867857D02*
X109117593Y-59815476D01*
X109117593Y-59815476D02*
X109117593Y-59684524D01*
X109117593Y-59684524D02*
X109150926Y-59632143D01*
X109150926Y-59632143D02*
X109184260Y-59605952D01*
X109184260Y-59605952D02*
X109250926Y-59579762D01*
X109250926Y-59579762D02*
X109317593Y-59579762D01*
X109317593Y-59579762D02*
X109417593Y-59605952D01*
X109417593Y-59605952D02*
X109817593Y-59920238D01*
X109817593Y-59920238D02*
X109817593Y-59579762D01*
X109350926Y-59108333D02*
X109817593Y-59108333D01*
X109084260Y-59239285D02*
X109584260Y-59370238D01*
X109584260Y-59370238D02*
X109584260Y-59029761D01*
D11*
X129896666Y-80008557D02*
X129896666Y-80737128D01*
X129896666Y-80737128D02*
X129930000Y-80822842D01*
X129930000Y-80822842D02*
X129963333Y-80865700D01*
X129963333Y-80865700D02*
X130030000Y-80908557D01*
X130030000Y-80908557D02*
X130163333Y-80908557D01*
X130163333Y-80908557D02*
X130230000Y-80865700D01*
X130230000Y-80865700D02*
X130263333Y-80822842D01*
X130263333Y-80822842D02*
X130296666Y-80737128D01*
X130296666Y-80737128D02*
X130296666Y-80008557D01*
X130729999Y-80394271D02*
X130663333Y-80351414D01*
X130663333Y-80351414D02*
X130629999Y-80308557D01*
X130629999Y-80308557D02*
X130596666Y-80222842D01*
X130596666Y-80222842D02*
X130596666Y-80179985D01*
X130596666Y-80179985D02*
X130629999Y-80094271D01*
X130629999Y-80094271D02*
X130663333Y-80051414D01*
X130663333Y-80051414D02*
X130729999Y-80008557D01*
X130729999Y-80008557D02*
X130863333Y-80008557D01*
X130863333Y-80008557D02*
X130929999Y-80051414D01*
X130929999Y-80051414D02*
X130963333Y-80094271D01*
X130963333Y-80094271D02*
X130996666Y-80179985D01*
X130996666Y-80179985D02*
X130996666Y-80222842D01*
X130996666Y-80222842D02*
X130963333Y-80308557D01*
X130963333Y-80308557D02*
X130929999Y-80351414D01*
X130929999Y-80351414D02*
X130863333Y-80394271D01*
X130863333Y-80394271D02*
X130729999Y-80394271D01*
X130729999Y-80394271D02*
X130663333Y-80437128D01*
X130663333Y-80437128D02*
X130629999Y-80479985D01*
X130629999Y-80479985D02*
X130596666Y-80565700D01*
X130596666Y-80565700D02*
X130596666Y-80737128D01*
X130596666Y-80737128D02*
X130629999Y-80822842D01*
X130629999Y-80822842D02*
X130663333Y-80865700D01*
X130663333Y-80865700D02*
X130729999Y-80908557D01*
X130729999Y-80908557D02*
X130863333Y-80908557D01*
X130863333Y-80908557D02*
X130929999Y-80865700D01*
X130929999Y-80865700D02*
X130963333Y-80822842D01*
X130963333Y-80822842D02*
X130996666Y-80737128D01*
X130996666Y-80737128D02*
X130996666Y-80565700D01*
X130996666Y-80565700D02*
X130963333Y-80479985D01*
X130963333Y-80479985D02*
X130929999Y-80437128D01*
X130929999Y-80437128D02*
X130863333Y-80394271D01*
X101549999Y-94822842D02*
X101516666Y-94865700D01*
X101516666Y-94865700D02*
X101416666Y-94908557D01*
X101416666Y-94908557D02*
X101349999Y-94908557D01*
X101349999Y-94908557D02*
X101249999Y-94865700D01*
X101249999Y-94865700D02*
X101183333Y-94779985D01*
X101183333Y-94779985D02*
X101149999Y-94694271D01*
X101149999Y-94694271D02*
X101116666Y-94522842D01*
X101116666Y-94522842D02*
X101116666Y-94394271D01*
X101116666Y-94394271D02*
X101149999Y-94222842D01*
X101149999Y-94222842D02*
X101183333Y-94137128D01*
X101183333Y-94137128D02*
X101249999Y-94051414D01*
X101249999Y-94051414D02*
X101349999Y-94008557D01*
X101349999Y-94008557D02*
X101416666Y-94008557D01*
X101416666Y-94008557D02*
X101516666Y-94051414D01*
X101516666Y-94051414D02*
X101549999Y-94094271D01*
X101816666Y-94094271D02*
X101849999Y-94051414D01*
X101849999Y-94051414D02*
X101916666Y-94008557D01*
X101916666Y-94008557D02*
X102083333Y-94008557D01*
X102083333Y-94008557D02*
X102149999Y-94051414D01*
X102149999Y-94051414D02*
X102183333Y-94094271D01*
X102183333Y-94094271D02*
X102216666Y-94179985D01*
X102216666Y-94179985D02*
X102216666Y-94265700D01*
X102216666Y-94265700D02*
X102183333Y-94394271D01*
X102183333Y-94394271D02*
X101783333Y-94908557D01*
X101783333Y-94908557D02*
X102216666Y-94908557D01*
X102650000Y-94008557D02*
X102716666Y-94008557D01*
X102716666Y-94008557D02*
X102783333Y-94051414D01*
X102783333Y-94051414D02*
X102816666Y-94094271D01*
X102816666Y-94094271D02*
X102850000Y-94179985D01*
X102850000Y-94179985D02*
X102883333Y-94351414D01*
X102883333Y-94351414D02*
X102883333Y-94565700D01*
X102883333Y-94565700D02*
X102850000Y-94737128D01*
X102850000Y-94737128D02*
X102816666Y-94822842D01*
X102816666Y-94822842D02*
X102783333Y-94865700D01*
X102783333Y-94865700D02*
X102716666Y-94908557D01*
X102716666Y-94908557D02*
X102650000Y-94908557D01*
X102650000Y-94908557D02*
X102583333Y-94865700D01*
X102583333Y-94865700D02*
X102550000Y-94822842D01*
X102550000Y-94822842D02*
X102516666Y-94737128D01*
X102516666Y-94737128D02*
X102483333Y-94565700D01*
X102483333Y-94565700D02*
X102483333Y-94351414D01*
X102483333Y-94351414D02*
X102516666Y-94179985D01*
X102516666Y-94179985D02*
X102550000Y-94094271D01*
X102550000Y-94094271D02*
X102583333Y-94051414D01*
X102583333Y-94051414D02*
X102650000Y-94008557D01*
X122799999Y-95822842D02*
X122766666Y-95865700D01*
X122766666Y-95865700D02*
X122666666Y-95908557D01*
X122666666Y-95908557D02*
X122599999Y-95908557D01*
X122599999Y-95908557D02*
X122499999Y-95865700D01*
X122499999Y-95865700D02*
X122433333Y-95779985D01*
X122433333Y-95779985D02*
X122399999Y-95694271D01*
X122399999Y-95694271D02*
X122366666Y-95522842D01*
X122366666Y-95522842D02*
X122366666Y-95394271D01*
X122366666Y-95394271D02*
X122399999Y-95222842D01*
X122399999Y-95222842D02*
X122433333Y-95137128D01*
X122433333Y-95137128D02*
X122499999Y-95051414D01*
X122499999Y-95051414D02*
X122599999Y-95008557D01*
X122599999Y-95008557D02*
X122666666Y-95008557D01*
X122666666Y-95008557D02*
X122766666Y-95051414D01*
X122766666Y-95051414D02*
X122799999Y-95094271D01*
X123466666Y-95908557D02*
X123066666Y-95908557D01*
X123266666Y-95908557D02*
X123266666Y-95008557D01*
X123266666Y-95008557D02*
X123199999Y-95137128D01*
X123199999Y-95137128D02*
X123133333Y-95222842D01*
X123133333Y-95222842D02*
X123066666Y-95265700D01*
X123800000Y-95908557D02*
X123933333Y-95908557D01*
X123933333Y-95908557D02*
X124000000Y-95865700D01*
X124000000Y-95865700D02*
X124033333Y-95822842D01*
X124033333Y-95822842D02*
X124100000Y-95694271D01*
X124100000Y-95694271D02*
X124133333Y-95522842D01*
X124133333Y-95522842D02*
X124133333Y-95179985D01*
X124133333Y-95179985D02*
X124100000Y-95094271D01*
X124100000Y-95094271D02*
X124066666Y-95051414D01*
X124066666Y-95051414D02*
X124000000Y-95008557D01*
X124000000Y-95008557D02*
X123866666Y-95008557D01*
X123866666Y-95008557D02*
X123800000Y-95051414D01*
X123800000Y-95051414D02*
X123766666Y-95094271D01*
X123766666Y-95094271D02*
X123733333Y-95179985D01*
X123733333Y-95179985D02*
X123733333Y-95394271D01*
X123733333Y-95394271D02*
X123766666Y-95479985D01*
X123766666Y-95479985D02*
X123800000Y-95522842D01*
X123800000Y-95522842D02*
X123866666Y-95565700D01*
X123866666Y-95565700D02*
X124000000Y-95565700D01*
X124000000Y-95565700D02*
X124066666Y-95522842D01*
X124066666Y-95522842D02*
X124100000Y-95479985D01*
X124100000Y-95479985D02*
X124133333Y-95394271D01*
X120933333Y-83994271D02*
X120866666Y-83951414D01*
X120866666Y-83951414D02*
X120800000Y-83865700D01*
X120800000Y-83865700D02*
X120700000Y-83737128D01*
X120700000Y-83737128D02*
X120633333Y-83694271D01*
X120633333Y-83694271D02*
X120566666Y-83694271D01*
X120600000Y-83908557D02*
X120533333Y-83865700D01*
X120533333Y-83865700D02*
X120466666Y-83779985D01*
X120466666Y-83779985D02*
X120433333Y-83608557D01*
X120433333Y-83608557D02*
X120433333Y-83308557D01*
X120433333Y-83308557D02*
X120466666Y-83137128D01*
X120466666Y-83137128D02*
X120533333Y-83051414D01*
X120533333Y-83051414D02*
X120600000Y-83008557D01*
X120600000Y-83008557D02*
X120733333Y-83008557D01*
X120733333Y-83008557D02*
X120800000Y-83051414D01*
X120800000Y-83051414D02*
X120866666Y-83137128D01*
X120866666Y-83137128D02*
X120900000Y-83308557D01*
X120900000Y-83308557D02*
X120900000Y-83608557D01*
X120900000Y-83608557D02*
X120866666Y-83779985D01*
X120866666Y-83779985D02*
X120800000Y-83865700D01*
X120800000Y-83865700D02*
X120733333Y-83908557D01*
X120733333Y-83908557D02*
X120600000Y-83908557D01*
X121166666Y-83094271D02*
X121199999Y-83051414D01*
X121199999Y-83051414D02*
X121266666Y-83008557D01*
X121266666Y-83008557D02*
X121433333Y-83008557D01*
X121433333Y-83008557D02*
X121499999Y-83051414D01*
X121499999Y-83051414D02*
X121533333Y-83094271D01*
X121533333Y-83094271D02*
X121566666Y-83179985D01*
X121566666Y-83179985D02*
X121566666Y-83265700D01*
X121566666Y-83265700D02*
X121533333Y-83394271D01*
X121533333Y-83394271D02*
X121133333Y-83908557D01*
X121133333Y-83908557D02*
X121566666Y-83908557D01*
X130158557Y-96116666D02*
X129258557Y-96116666D01*
X129258557Y-96116666D02*
X129258557Y-95949999D01*
X129258557Y-95949999D02*
X129301414Y-95849999D01*
X129301414Y-95849999D02*
X129387128Y-95783333D01*
X129387128Y-95783333D02*
X129472842Y-95749999D01*
X129472842Y-95749999D02*
X129644271Y-95716666D01*
X129644271Y-95716666D02*
X129772842Y-95716666D01*
X129772842Y-95716666D02*
X129944271Y-95749999D01*
X129944271Y-95749999D02*
X130029985Y-95783333D01*
X130029985Y-95783333D02*
X130115700Y-95849999D01*
X130115700Y-95849999D02*
X130158557Y-95949999D01*
X130158557Y-95949999D02*
X130158557Y-96116666D01*
X129558557Y-95116666D02*
X130158557Y-95116666D01*
X129215700Y-95283333D02*
X129858557Y-95449999D01*
X129858557Y-95449999D02*
X129858557Y-95016666D01*
X128299999Y-86072842D02*
X128266666Y-86115700D01*
X128266666Y-86115700D02*
X128166666Y-86158557D01*
X128166666Y-86158557D02*
X128099999Y-86158557D01*
X128099999Y-86158557D02*
X127999999Y-86115700D01*
X127999999Y-86115700D02*
X127933333Y-86029985D01*
X127933333Y-86029985D02*
X127899999Y-85944271D01*
X127899999Y-85944271D02*
X127866666Y-85772842D01*
X127866666Y-85772842D02*
X127866666Y-85644271D01*
X127866666Y-85644271D02*
X127899999Y-85472842D01*
X127899999Y-85472842D02*
X127933333Y-85387128D01*
X127933333Y-85387128D02*
X127999999Y-85301414D01*
X127999999Y-85301414D02*
X128099999Y-85258557D01*
X128099999Y-85258557D02*
X128166666Y-85258557D01*
X128166666Y-85258557D02*
X128266666Y-85301414D01*
X128266666Y-85301414D02*
X128299999Y-85344271D01*
X128533333Y-85258557D02*
X128966666Y-85258557D01*
X128966666Y-85258557D02*
X128733333Y-85601414D01*
X128733333Y-85601414D02*
X128833333Y-85601414D01*
X128833333Y-85601414D02*
X128899999Y-85644271D01*
X128899999Y-85644271D02*
X128933333Y-85687128D01*
X128933333Y-85687128D02*
X128966666Y-85772842D01*
X128966666Y-85772842D02*
X128966666Y-85987128D01*
X128966666Y-85987128D02*
X128933333Y-86072842D01*
X128933333Y-86072842D02*
X128899999Y-86115700D01*
X128899999Y-86115700D02*
X128833333Y-86158557D01*
X128833333Y-86158557D02*
X128633333Y-86158557D01*
X128633333Y-86158557D02*
X128566666Y-86115700D01*
X128566666Y-86115700D02*
X128533333Y-86072842D01*
X129600000Y-85258557D02*
X129266666Y-85258557D01*
X129266666Y-85258557D02*
X129233333Y-85687128D01*
X129233333Y-85687128D02*
X129266666Y-85644271D01*
X129266666Y-85644271D02*
X129333333Y-85601414D01*
X129333333Y-85601414D02*
X129500000Y-85601414D01*
X129500000Y-85601414D02*
X129566666Y-85644271D01*
X129566666Y-85644271D02*
X129600000Y-85687128D01*
X129600000Y-85687128D02*
X129633333Y-85772842D01*
X129633333Y-85772842D02*
X129633333Y-85987128D01*
X129633333Y-85987128D02*
X129600000Y-86072842D01*
X129600000Y-86072842D02*
X129566666Y-86115700D01*
X129566666Y-86115700D02*
X129500000Y-86158557D01*
X129500000Y-86158557D02*
X129333333Y-86158557D01*
X129333333Y-86158557D02*
X129266666Y-86115700D01*
X129266666Y-86115700D02*
X129233333Y-86072842D01*
X102908557Y-52950000D02*
X102479985Y-53183333D01*
X102908557Y-53350000D02*
X102008557Y-53350000D01*
X102008557Y-53350000D02*
X102008557Y-53083333D01*
X102008557Y-53083333D02*
X102051414Y-53016667D01*
X102051414Y-53016667D02*
X102094271Y-52983333D01*
X102094271Y-52983333D02*
X102179985Y-52950000D01*
X102179985Y-52950000D02*
X102308557Y-52950000D01*
X102308557Y-52950000D02*
X102394271Y-52983333D01*
X102394271Y-52983333D02*
X102437128Y-53016667D01*
X102437128Y-53016667D02*
X102479985Y-53083333D01*
X102479985Y-53083333D02*
X102479985Y-53350000D01*
X102908557Y-52283333D02*
X102908557Y-52683333D01*
X102908557Y-52483333D02*
X102008557Y-52483333D01*
X102008557Y-52483333D02*
X102137128Y-52550000D01*
X102137128Y-52550000D02*
X102222842Y-52616667D01*
X102222842Y-52616667D02*
X102265700Y-52683333D01*
X102008557Y-52050000D02*
X102008557Y-51583333D01*
X102008557Y-51583333D02*
X102908557Y-51883333D01*
X101883333Y-70572842D02*
X101850000Y-70615700D01*
X101850000Y-70615700D02*
X101750000Y-70658557D01*
X101750000Y-70658557D02*
X101683333Y-70658557D01*
X101683333Y-70658557D02*
X101583333Y-70615700D01*
X101583333Y-70615700D02*
X101516667Y-70529985D01*
X101516667Y-70529985D02*
X101483333Y-70444271D01*
X101483333Y-70444271D02*
X101450000Y-70272842D01*
X101450000Y-70272842D02*
X101450000Y-70144271D01*
X101450000Y-70144271D02*
X101483333Y-69972842D01*
X101483333Y-69972842D02*
X101516667Y-69887128D01*
X101516667Y-69887128D02*
X101583333Y-69801414D01*
X101583333Y-69801414D02*
X101683333Y-69758557D01*
X101683333Y-69758557D02*
X101750000Y-69758557D01*
X101750000Y-69758557D02*
X101850000Y-69801414D01*
X101850000Y-69801414D02*
X101883333Y-69844271D01*
X102216667Y-70658557D02*
X102350000Y-70658557D01*
X102350000Y-70658557D02*
X102416667Y-70615700D01*
X102416667Y-70615700D02*
X102450000Y-70572842D01*
X102450000Y-70572842D02*
X102516667Y-70444271D01*
X102516667Y-70444271D02*
X102550000Y-70272842D01*
X102550000Y-70272842D02*
X102550000Y-69929985D01*
X102550000Y-69929985D02*
X102516667Y-69844271D01*
X102516667Y-69844271D02*
X102483333Y-69801414D01*
X102483333Y-69801414D02*
X102416667Y-69758557D01*
X102416667Y-69758557D02*
X102283333Y-69758557D01*
X102283333Y-69758557D02*
X102216667Y-69801414D01*
X102216667Y-69801414D02*
X102183333Y-69844271D01*
X102183333Y-69844271D02*
X102150000Y-69929985D01*
X102150000Y-69929985D02*
X102150000Y-70144271D01*
X102150000Y-70144271D02*
X102183333Y-70229985D01*
X102183333Y-70229985D02*
X102216667Y-70272842D01*
X102216667Y-70272842D02*
X102283333Y-70315700D01*
X102283333Y-70315700D02*
X102416667Y-70315700D01*
X102416667Y-70315700D02*
X102483333Y-70272842D01*
X102483333Y-70272842D02*
X102516667Y-70229985D01*
X102516667Y-70229985D02*
X102550000Y-70144271D01*
X108158557Y-81700000D02*
X107729985Y-81933333D01*
X108158557Y-82100000D02*
X107258557Y-82100000D01*
X107258557Y-82100000D02*
X107258557Y-81833333D01*
X107258557Y-81833333D02*
X107301414Y-81766667D01*
X107301414Y-81766667D02*
X107344271Y-81733333D01*
X107344271Y-81733333D02*
X107429985Y-81700000D01*
X107429985Y-81700000D02*
X107558557Y-81700000D01*
X107558557Y-81700000D02*
X107644271Y-81733333D01*
X107644271Y-81733333D02*
X107687128Y-81766667D01*
X107687128Y-81766667D02*
X107729985Y-81833333D01*
X107729985Y-81833333D02*
X107729985Y-82100000D01*
X108158557Y-81033333D02*
X108158557Y-81433333D01*
X108158557Y-81233333D02*
X107258557Y-81233333D01*
X107258557Y-81233333D02*
X107387128Y-81300000D01*
X107387128Y-81300000D02*
X107472842Y-81366667D01*
X107472842Y-81366667D02*
X107515700Y-81433333D01*
X108158557Y-80366666D02*
X108158557Y-80766666D01*
X108158557Y-80566666D02*
X107258557Y-80566666D01*
X107258557Y-80566666D02*
X107387128Y-80633333D01*
X107387128Y-80633333D02*
X107472842Y-80700000D01*
X107472842Y-80700000D02*
X107515700Y-80766666D01*
X105349999Y-78122842D02*
X105316666Y-78165700D01*
X105316666Y-78165700D02*
X105216666Y-78208557D01*
X105216666Y-78208557D02*
X105149999Y-78208557D01*
X105149999Y-78208557D02*
X105049999Y-78165700D01*
X105049999Y-78165700D02*
X104983333Y-78079985D01*
X104983333Y-78079985D02*
X104949999Y-77994271D01*
X104949999Y-77994271D02*
X104916666Y-77822842D01*
X104916666Y-77822842D02*
X104916666Y-77694271D01*
X104916666Y-77694271D02*
X104949999Y-77522842D01*
X104949999Y-77522842D02*
X104983333Y-77437128D01*
X104983333Y-77437128D02*
X105049999Y-77351414D01*
X105049999Y-77351414D02*
X105149999Y-77308557D01*
X105149999Y-77308557D02*
X105216666Y-77308557D01*
X105216666Y-77308557D02*
X105316666Y-77351414D01*
X105316666Y-77351414D02*
X105349999Y-77394271D01*
X105616666Y-77394271D02*
X105649999Y-77351414D01*
X105649999Y-77351414D02*
X105716666Y-77308557D01*
X105716666Y-77308557D02*
X105883333Y-77308557D01*
X105883333Y-77308557D02*
X105949999Y-77351414D01*
X105949999Y-77351414D02*
X105983333Y-77394271D01*
X105983333Y-77394271D02*
X106016666Y-77479985D01*
X106016666Y-77479985D02*
X106016666Y-77565700D01*
X106016666Y-77565700D02*
X105983333Y-77694271D01*
X105983333Y-77694271D02*
X105583333Y-78208557D01*
X105583333Y-78208557D02*
X106016666Y-78208557D01*
X106683333Y-78208557D02*
X106283333Y-78208557D01*
X106483333Y-78208557D02*
X106483333Y-77308557D01*
X106483333Y-77308557D02*
X106416666Y-77437128D01*
X106416666Y-77437128D02*
X106350000Y-77522842D01*
X106350000Y-77522842D02*
X106283333Y-77565700D01*
X123133333Y-92658557D02*
X122900000Y-92229985D01*
X122733333Y-92658557D02*
X122733333Y-91758557D01*
X122733333Y-91758557D02*
X123000000Y-91758557D01*
X123000000Y-91758557D02*
X123066667Y-91801414D01*
X123066667Y-91801414D02*
X123100000Y-91844271D01*
X123100000Y-91844271D02*
X123133333Y-91929985D01*
X123133333Y-91929985D02*
X123133333Y-92058557D01*
X123133333Y-92058557D02*
X123100000Y-92144271D01*
X123100000Y-92144271D02*
X123066667Y-92187128D01*
X123066667Y-92187128D02*
X123000000Y-92229985D01*
X123000000Y-92229985D02*
X122733333Y-92229985D01*
X123400000Y-91844271D02*
X123433333Y-91801414D01*
X123433333Y-91801414D02*
X123500000Y-91758557D01*
X123500000Y-91758557D02*
X123666667Y-91758557D01*
X123666667Y-91758557D02*
X123733333Y-91801414D01*
X123733333Y-91801414D02*
X123766667Y-91844271D01*
X123766667Y-91844271D02*
X123800000Y-91929985D01*
X123800000Y-91929985D02*
X123800000Y-92015700D01*
X123800000Y-92015700D02*
X123766667Y-92144271D01*
X123766667Y-92144271D02*
X123366667Y-92658557D01*
X123366667Y-92658557D02*
X123800000Y-92658557D01*
X117049999Y-75422842D02*
X117016666Y-75465700D01*
X117016666Y-75465700D02*
X116916666Y-75508557D01*
X116916666Y-75508557D02*
X116849999Y-75508557D01*
X116849999Y-75508557D02*
X116749999Y-75465700D01*
X116749999Y-75465700D02*
X116683333Y-75379985D01*
X116683333Y-75379985D02*
X116649999Y-75294271D01*
X116649999Y-75294271D02*
X116616666Y-75122842D01*
X116616666Y-75122842D02*
X116616666Y-74994271D01*
X116616666Y-74994271D02*
X116649999Y-74822842D01*
X116649999Y-74822842D02*
X116683333Y-74737128D01*
X116683333Y-74737128D02*
X116749999Y-74651414D01*
X116749999Y-74651414D02*
X116849999Y-74608557D01*
X116849999Y-74608557D02*
X116916666Y-74608557D01*
X116916666Y-74608557D02*
X117016666Y-74651414D01*
X117016666Y-74651414D02*
X117049999Y-74694271D01*
X117716666Y-75508557D02*
X117316666Y-75508557D01*
X117516666Y-75508557D02*
X117516666Y-74608557D01*
X117516666Y-74608557D02*
X117449999Y-74737128D01*
X117449999Y-74737128D02*
X117383333Y-74822842D01*
X117383333Y-74822842D02*
X117316666Y-74865700D01*
X118150000Y-74608557D02*
X118216666Y-74608557D01*
X118216666Y-74608557D02*
X118283333Y-74651414D01*
X118283333Y-74651414D02*
X118316666Y-74694271D01*
X118316666Y-74694271D02*
X118350000Y-74779985D01*
X118350000Y-74779985D02*
X118383333Y-74951414D01*
X118383333Y-74951414D02*
X118383333Y-75165700D01*
X118383333Y-75165700D02*
X118350000Y-75337128D01*
X118350000Y-75337128D02*
X118316666Y-75422842D01*
X118316666Y-75422842D02*
X118283333Y-75465700D01*
X118283333Y-75465700D02*
X118216666Y-75508557D01*
X118216666Y-75508557D02*
X118150000Y-75508557D01*
X118150000Y-75508557D02*
X118083333Y-75465700D01*
X118083333Y-75465700D02*
X118050000Y-75422842D01*
X118050000Y-75422842D02*
X118016666Y-75337128D01*
X118016666Y-75337128D02*
X117983333Y-75165700D01*
X117983333Y-75165700D02*
X117983333Y-74951414D01*
X117983333Y-74951414D02*
X118016666Y-74779985D01*
X118016666Y-74779985D02*
X118050000Y-74694271D01*
X118050000Y-74694271D02*
X118083333Y-74651414D01*
X118083333Y-74651414D02*
X118150000Y-74608557D01*
D13*
X113567593Y-60103571D02*
X113234260Y-60286905D01*
X113567593Y-60417857D02*
X112867593Y-60417857D01*
X112867593Y-60417857D02*
X112867593Y-60208333D01*
X112867593Y-60208333D02*
X112900926Y-60155952D01*
X112900926Y-60155952D02*
X112934260Y-60129762D01*
X112934260Y-60129762D02*
X113000926Y-60103571D01*
X113000926Y-60103571D02*
X113100926Y-60103571D01*
X113100926Y-60103571D02*
X113167593Y-60129762D01*
X113167593Y-60129762D02*
X113200926Y-60155952D01*
X113200926Y-60155952D02*
X113234260Y-60208333D01*
X113234260Y-60208333D02*
X113234260Y-60417857D01*
X112934260Y-59894048D02*
X112900926Y-59867857D01*
X112900926Y-59867857D02*
X112867593Y-59815476D01*
X112867593Y-59815476D02*
X112867593Y-59684524D01*
X112867593Y-59684524D02*
X112900926Y-59632143D01*
X112900926Y-59632143D02*
X112934260Y-59605952D01*
X112934260Y-59605952D02*
X113000926Y-59579762D01*
X113000926Y-59579762D02*
X113067593Y-59579762D01*
X113067593Y-59579762D02*
X113167593Y-59605952D01*
X113167593Y-59605952D02*
X113567593Y-59920238D01*
X113567593Y-59920238D02*
X113567593Y-59579762D01*
X112934260Y-59370238D02*
X112900926Y-59344047D01*
X112900926Y-59344047D02*
X112867593Y-59291666D01*
X112867593Y-59291666D02*
X112867593Y-59160714D01*
X112867593Y-59160714D02*
X112900926Y-59108333D01*
X112900926Y-59108333D02*
X112934260Y-59082142D01*
X112934260Y-59082142D02*
X113000926Y-59055952D01*
X113000926Y-59055952D02*
X113067593Y-59055952D01*
X113067593Y-59055952D02*
X113167593Y-59082142D01*
X113167593Y-59082142D02*
X113567593Y-59396428D01*
X113567593Y-59396428D02*
X113567593Y-59055952D01*
D11*
X115683333Y-79494271D02*
X115616666Y-79451414D01*
X115616666Y-79451414D02*
X115550000Y-79365700D01*
X115550000Y-79365700D02*
X115450000Y-79237128D01*
X115450000Y-79237128D02*
X115383333Y-79194271D01*
X115383333Y-79194271D02*
X115316666Y-79194271D01*
X115350000Y-79408557D02*
X115283333Y-79365700D01*
X115283333Y-79365700D02*
X115216666Y-79279985D01*
X115216666Y-79279985D02*
X115183333Y-79108557D01*
X115183333Y-79108557D02*
X115183333Y-78808557D01*
X115183333Y-78808557D02*
X115216666Y-78637128D01*
X115216666Y-78637128D02*
X115283333Y-78551414D01*
X115283333Y-78551414D02*
X115350000Y-78508557D01*
X115350000Y-78508557D02*
X115483333Y-78508557D01*
X115483333Y-78508557D02*
X115550000Y-78551414D01*
X115550000Y-78551414D02*
X115616666Y-78637128D01*
X115616666Y-78637128D02*
X115650000Y-78808557D01*
X115650000Y-78808557D02*
X115650000Y-79108557D01*
X115650000Y-79108557D02*
X115616666Y-79279985D01*
X115616666Y-79279985D02*
X115550000Y-79365700D01*
X115550000Y-79365700D02*
X115483333Y-79408557D01*
X115483333Y-79408557D02*
X115350000Y-79408557D01*
X116316666Y-79408557D02*
X115916666Y-79408557D01*
X116116666Y-79408557D02*
X116116666Y-78508557D01*
X116116666Y-78508557D02*
X116049999Y-78637128D01*
X116049999Y-78637128D02*
X115983333Y-78722842D01*
X115983333Y-78722842D02*
X115916666Y-78765700D01*
D13*
%TO.C,R30*%
X113500000Y-86270000D02*
X114500000Y-86270000D01*
X113500000Y-87230000D02*
X114500000Y-87230000D01*
%TO.C,R33*%
X116500000Y-81770000D02*
X115500000Y-81770000D01*
X116500000Y-82730000D02*
X115500000Y-82730000D01*
%TO.C,R31*%
X113500000Y-82730000D02*
X114500000Y-82730000D01*
X113500000Y-81770000D02*
X114500000Y-81770000D01*
%TO.C,R27*%
X118500000Y-81770000D02*
X117500000Y-81770000D01*
X118500000Y-82730000D02*
X117500000Y-82730000D01*
%TO.C,R6*%
X115500000Y-87230000D02*
X116500000Y-87230000D01*
X115500000Y-86270000D02*
X116500000Y-86270000D01*
%TO.C,C3*%
X121750000Y-94230000D02*
X120750000Y-94230000D01*
X121750000Y-93270000D02*
X120750000Y-93270000D01*
%TO.C,C2*%
X121750000Y-85770000D02*
X120750000Y-85770000D01*
X121750000Y-86730000D02*
X120750000Y-86730000D01*
%TO.C,C1*%
X118500000Y-86270000D02*
X117500000Y-86270000D01*
X118500000Y-87230000D02*
X117500000Y-87230000D01*
%TO.C,R26*%
X121920000Y-58300000D02*
X121920000Y-56700000D01*
X120580000Y-58300000D02*
X120580000Y-56700000D01*
%TO.C,R21*%
X105670000Y-50800000D02*
X105670000Y-49200000D01*
X104330000Y-50800000D02*
X104330000Y-49200000D01*
%TO.C,R16*%
X108170000Y-50800000D02*
X108170000Y-49200000D01*
X106830000Y-50800000D02*
X106830000Y-49200000D01*
D11*
%TO.C,R19*%
X101625000Y-54850000D02*
X101625000Y-55650000D01*
X104875000Y-54850000D02*
X104875000Y-55650000D01*
%TO.C,L3*%
X134250000Y-42900000D02*
X133450000Y-42900000D01*
X134250000Y-42900000D02*
X134250000Y-52100000D01*
X131550000Y-42900000D02*
X130950000Y-42900000D01*
X129050000Y-42900000D02*
X128250000Y-42900000D01*
X134250000Y-52100000D02*
X133450000Y-52100000D01*
X131550000Y-52100000D02*
X130950000Y-52100000D01*
X129050000Y-52100000D02*
X128250000Y-52100000D01*
X128250000Y-52100000D02*
X128250000Y-42900000D01*
D13*
%TO.C,R3*%
X122050000Y-88420000D02*
X120450000Y-88420000D01*
X122050000Y-87080000D02*
X120450000Y-87080000D01*
%TO.C,R18*%
X112455000Y-62250000D02*
X112455000Y-61250000D01*
X111495000Y-62250000D02*
X111495000Y-61250000D01*
%TO.C,C7*%
X105750000Y-65980000D02*
X106750000Y-65980000D01*
X105750000Y-65020000D02*
X106750000Y-65020000D01*
%TO.C,U5*%
X109240000Y-85900000D02*
X109390000Y-85900000D01*
X109240000Y-87600000D02*
X109240000Y-85900000D01*
X109390000Y-87600000D02*
X109240000Y-87600000D01*
X112110000Y-87600000D02*
X112260000Y-87600000D01*
X112260000Y-85900000D02*
X112110000Y-85900000D01*
X112260000Y-87600000D02*
X112260000Y-85900000D01*
%TO.C,C34*%
X135800000Y-84455000D02*
X134200000Y-84455000D01*
X135800000Y-85785000D02*
X134200000Y-85785000D01*
D11*
%TO.C,L2*%
X134250000Y-75750000D02*
X134250000Y-65750000D01*
X134250000Y-75750000D02*
X133500000Y-75750000D01*
X134250000Y-65750000D02*
X133500000Y-65750000D01*
X130000000Y-75750000D02*
X128500000Y-75750000D01*
X128500000Y-65750000D02*
X130000000Y-65750000D01*
X124250000Y-75750000D02*
X125000000Y-75750000D01*
X124250000Y-75750000D02*
X124250000Y-65750000D01*
X124250000Y-65750000D02*
X125000000Y-65750000D01*
D13*
%TO.C,R7*%
X126550000Y-82830000D02*
X124950000Y-82830000D01*
X126550000Y-84170000D02*
X124950000Y-84170000D01*
%TO.C,R14*%
X104250000Y-72770000D02*
X103250000Y-72770000D01*
X104250000Y-73730000D02*
X103250000Y-73730000D01*
D14*
%TO.C,R9*%
X124150000Y-89235000D02*
X127350000Y-89235000D01*
X124150000Y-87265000D02*
X127350000Y-87265000D01*
D13*
%TO.C,R5*%
X120450000Y-88580000D02*
X122050000Y-88580000D01*
X120450000Y-89920000D02*
X122050000Y-89920000D01*
%TO.C,U2*%
X124250000Y-93130000D02*
X124250000Y-91370000D01*
X124355000Y-93130000D02*
X124355000Y-94050000D01*
X127250000Y-93130000D02*
X127250000Y-91370000D01*
%TO.C,C6*%
X105750000Y-64730000D02*
X106750000Y-64730000D01*
X105750000Y-63770000D02*
X106750000Y-63770000D01*
%TO.C,U4*%
X113110000Y-68890000D02*
X113110000Y-69365000D01*
X112635000Y-75110000D02*
X113110000Y-75110000D01*
X112635000Y-68890000D02*
X113110000Y-68890000D01*
X107365000Y-75110000D02*
X106890000Y-75110000D01*
X107365000Y-68890000D02*
X106890000Y-68890000D01*
X106890000Y-75110000D02*
X106890000Y-74635000D01*
X106890000Y-68890000D02*
X106890000Y-69365000D01*
%TO.C,C16*%
X103250000Y-69480000D02*
X104250000Y-69480000D01*
X103250000Y-68520000D02*
X104250000Y-68520000D01*
%TO.C,IC1*%
X105470000Y-98110000D02*
X105470000Y-97875000D01*
X109530000Y-98110000D02*
X105470000Y-98110000D01*
X109530000Y-97875000D02*
X109530000Y-98110000D01*
X110895000Y-97875000D02*
X109530000Y-97875000D01*
X109530000Y-93125000D02*
X109530000Y-92890000D01*
X105470000Y-92890000D02*
X105470000Y-93125000D01*
X109530000Y-92890000D02*
X105470000Y-92890000D01*
D15*
X111375000Y-97405000D02*
G75*
G03*
X111375000Y-97405000I-100000J0D01*
G01*
D13*
%TO.C,R23*%
X110700000Y-66420000D02*
X112300000Y-66420000D01*
X110700000Y-65080000D02*
X112300000Y-65080000D01*
%TO.C,C24*%
X120450000Y-61415000D02*
X122050000Y-61415000D01*
X120450000Y-60085000D02*
X122050000Y-60085000D01*
%TO.C,D8*%
X122100000Y-75990000D02*
X120400000Y-75990000D01*
X120400000Y-75990000D02*
X120400000Y-79850000D01*
X122100000Y-79850000D02*
X122100000Y-75990000D01*
D15*
X121350000Y-75670000D02*
G75*
G03*
X121350000Y-75670000I-100000J0D01*
G01*
D13*
%TO.C,C28*%
X128980000Y-92750000D02*
X128980000Y-91750000D01*
X128020000Y-92750000D02*
X128020000Y-91750000D01*
%TO.C,C12*%
X105750000Y-62230000D02*
X106750000Y-62230000D01*
X105750000Y-61270000D02*
X106750000Y-61270000D01*
%TO.C,C11*%
X118300000Y-66335000D02*
X116700000Y-66335000D01*
X118300000Y-67665000D02*
X116700000Y-67665000D01*
%TO.C,R34*%
X125250000Y-80980000D02*
X126250000Y-80980000D01*
X125250000Y-80020000D02*
X126250000Y-80020000D01*
%TO.C,C5*%
X111550000Y-89585000D02*
X109950000Y-89585000D01*
X111550000Y-90915000D02*
X109950000Y-90915000D01*
%TO.C,U6*%
X101490000Y-80400000D02*
X101640000Y-80400000D01*
X101490000Y-82100000D02*
X101490000Y-80400000D01*
X101640000Y-82100000D02*
X101490000Y-82100000D01*
X104360000Y-82100000D02*
X104510000Y-82100000D01*
X104510000Y-80400000D02*
X104360000Y-80400000D01*
X104510000Y-82100000D02*
X104510000Y-80400000D01*
%TO.C,R12*%
X102500000Y-95520000D02*
X101500000Y-95520000D01*
X102500000Y-96480000D02*
X101500000Y-96480000D01*
%TO.C,D6*%
X118000000Y-81010000D02*
X119700000Y-81010000D01*
X119700000Y-81010000D02*
X119700000Y-77150000D01*
X118000000Y-77150000D02*
X118000000Y-81010000D01*
D15*
X118950000Y-81330000D02*
G75*
G03*
X118950000Y-81330000I-100000J0D01*
G01*
D13*
%TO.C,C14*%
X110230000Y-78250000D02*
X110230000Y-77250000D01*
X109270000Y-78250000D02*
X109270000Y-77250000D01*
%TO.C,J1*%
X124740000Y-53030000D02*
X115620000Y-53030000D01*
X124740000Y-39030000D02*
X124740000Y-53030000D01*
X115620000Y-53030000D02*
X115620000Y-39030000D01*
X115620000Y-39030000D02*
X124740000Y-39030000D01*
D16*
X121740000Y-53980000D02*
G75*
G03*
X121740000Y-53980000I-200000J0D01*
G01*
D13*
%TO.C,C13*%
X105750000Y-63480000D02*
X106750000Y-63480000D01*
X105750000Y-62520000D02*
X106750000Y-62520000D01*
%TO.C,C18*%
X104000000Y-83835000D02*
X102000000Y-83835000D01*
X104000000Y-85665000D02*
X102000000Y-85665000D01*
%TO.C,R4*%
X120450000Y-90080000D02*
X122050000Y-90080000D01*
X120450000Y-91420000D02*
X122050000Y-91420000D01*
%TO.C,C15*%
X108980000Y-78250000D02*
X108980000Y-77250000D01*
X108020000Y-78250000D02*
X108020000Y-77250000D01*
%TO.C,U1*%
X115460000Y-91900000D02*
X115460000Y-89120000D01*
X115470000Y-89120000D02*
X115590000Y-89120000D01*
X118410000Y-90880000D02*
X118530000Y-90880000D01*
X118530000Y-89120000D02*
X118410000Y-89120000D01*
X118530000Y-90880000D02*
X118530000Y-89120000D01*
D15*
X116136920Y-92270000D02*
G75*
G03*
X116136920Y-92270000I-106920J0D01*
G01*
D11*
%TO.C,R13*%
X109125000Y-55650000D02*
X109125000Y-54850000D01*
X105875000Y-55650000D02*
X105875000Y-54850000D01*
D13*
%TO.C,R20*%
X109950000Y-64670000D02*
X111550000Y-64670000D01*
X109950000Y-63330000D02*
X111550000Y-63330000D01*
D17*
%TO.C,L1*%
X126910000Y-57240000D02*
X131610000Y-57240000D01*
X126910000Y-57850000D02*
X126910000Y-59210000D01*
X126910000Y-60460000D02*
X131610000Y-60460000D01*
X131610000Y-58490000D02*
X131610000Y-59850000D01*
D13*
%TO.C,C29*%
X117910000Y-55150000D02*
X117910000Y-58350000D01*
X120090000Y-55150000D02*
X120090000Y-58350000D01*
%TO.C,D7*%
X117950000Y-60250000D02*
X117950000Y-61265000D01*
X115695000Y-60250000D02*
X117950000Y-60250000D01*
X117950000Y-63250000D02*
X117950000Y-62235000D01*
X116550000Y-63250000D02*
X117950000Y-63250000D01*
D15*
X115415000Y-60800000D02*
G75*
G03*
X115415000Y-60800000I-100000J0D01*
G01*
D13*
%TO.C,R28*%
X110670000Y-50800000D02*
X110670000Y-49200000D01*
X109330000Y-50800000D02*
X109330000Y-49200000D01*
%TO.C,C32*%
X125250000Y-82230000D02*
X126250000Y-82230000D01*
X125250000Y-81270000D02*
X126250000Y-81270000D01*
%TO.C,R29*%
X114420000Y-58300000D02*
X114420000Y-56700000D01*
X113080000Y-58300000D02*
X113080000Y-56700000D01*
%TO.C,X1*%
X116140000Y-69865000D02*
X116140000Y-70635000D01*
X118860000Y-70635000D02*
X118860000Y-69865000D01*
%TO.C,R25*%
X111230000Y-62250000D02*
X111230000Y-61250000D01*
X110270000Y-62250000D02*
X110270000Y-61250000D01*
%TO.C,C17*%
X103250000Y-68230000D02*
X104250000Y-68230000D01*
X103250000Y-67270000D02*
X104250000Y-67270000D01*
%TO.C,C22*%
X120450000Y-63415000D02*
X122050000Y-63415000D01*
X120450000Y-62085000D02*
X122050000Y-62085000D01*
%TO.C,R32*%
X134500000Y-81350000D02*
X135500000Y-81350000D01*
X134500000Y-80390000D02*
X135500000Y-80390000D01*
%TO.C,D5*%
X110645000Y-40355000D02*
X109355000Y-40355000D01*
X109355000Y-40355000D02*
X109355000Y-42550000D01*
X110645000Y-42550000D02*
X110645000Y-40355000D01*
%TO.C,R15*%
X121970000Y-74300000D02*
X121970000Y-72700000D01*
X120630000Y-74300000D02*
X120630000Y-72700000D01*
%TO.C,R8*%
X119400000Y-94580000D02*
X117800000Y-94580000D01*
X119400000Y-95920000D02*
X117800000Y-95920000D01*
D11*
%TO.C,P1*%
X136550000Y-92050000D02*
X133450000Y-92050000D01*
X136550000Y-90500000D02*
X136550000Y-92050000D01*
X136270000Y-89230000D02*
X136270000Y-86690000D01*
X136270000Y-86690000D02*
X133730000Y-86690000D01*
X133730000Y-89230000D02*
X136270000Y-89230000D01*
X133730000Y-89230000D02*
X133730000Y-86690000D01*
X133450000Y-92050000D02*
X133450000Y-90500000D01*
%TO.C,X2*%
G36*
X123681000Y-100405000D02*
G01*
X122841000Y-100405000D01*
X122841000Y-100365000D01*
X123681000Y-100365000D01*
X123681000Y-100405000D01*
G37*
G36*
X123681000Y-100445000D02*
G01*
X122841000Y-100445000D01*
X122841000Y-100405000D01*
X123681000Y-100405000D01*
X123681000Y-100445000D01*
G37*
G36*
X123681000Y-100485000D02*
G01*
X122841000Y-100485000D01*
X122841000Y-100445000D01*
X123681000Y-100445000D01*
X123681000Y-100485000D01*
G37*
G36*
X123681000Y-100525000D02*
G01*
X122841000Y-100525000D01*
X122841000Y-100485000D01*
X123681000Y-100485000D01*
X123681000Y-100525000D01*
G37*
G36*
X123641000Y-100565000D02*
G01*
X122841000Y-100565000D01*
X122841000Y-100525000D01*
X123641000Y-100525000D01*
X123641000Y-100565000D01*
G37*
G36*
X123121000Y-100605000D02*
G01*
X122841000Y-100605000D01*
X122841000Y-100565000D01*
X123121000Y-100565000D01*
X123121000Y-100605000D01*
G37*
G36*
X123121000Y-100645000D02*
G01*
X122841000Y-100645000D01*
X122841000Y-100605000D01*
X123121000Y-100605000D01*
X123121000Y-100645000D01*
G37*
G36*
X123121000Y-100685000D02*
G01*
X122841000Y-100685000D01*
X122841000Y-100645000D01*
X123121000Y-100645000D01*
X123121000Y-100685000D01*
G37*
G36*
X123441000Y-100725000D02*
G01*
X122841000Y-100725000D01*
X122841000Y-100685000D01*
X123441000Y-100685000D01*
X123441000Y-100725000D01*
G37*
G36*
X123521000Y-100765000D02*
G01*
X122841000Y-100765000D01*
X122841000Y-100725000D01*
X123521000Y-100725000D01*
X123521000Y-100765000D01*
G37*
G36*
X123521000Y-100805000D02*
G01*
X122841000Y-100805000D01*
X122841000Y-100765000D01*
X123521000Y-100765000D01*
X123521000Y-100805000D01*
G37*
G36*
X123521000Y-100845000D02*
G01*
X122841000Y-100845000D01*
X122841000Y-100805000D01*
X123521000Y-100805000D01*
X123521000Y-100845000D01*
G37*
G36*
X123521000Y-100885000D02*
G01*
X122841000Y-100885000D01*
X122841000Y-100845000D01*
X123521000Y-100845000D01*
X123521000Y-100885000D01*
G37*
G36*
X123521000Y-100925000D02*
G01*
X122841000Y-100925000D01*
X122841000Y-100885000D01*
X123521000Y-100885000D01*
X123521000Y-100925000D01*
G37*
G36*
X123481000Y-100965000D02*
G01*
X122841000Y-100965000D01*
X122841000Y-100925000D01*
X123481000Y-100925000D01*
X123481000Y-100965000D01*
G37*
G36*
X123121000Y-101005000D02*
G01*
X122841000Y-101005000D01*
X122841000Y-100965000D01*
X123121000Y-100965000D01*
X123121000Y-101005000D01*
G37*
G36*
X123121000Y-101045000D02*
G01*
X122841000Y-101045000D01*
X122841000Y-101005000D01*
X123121000Y-101005000D01*
X123121000Y-101045000D01*
G37*
G36*
X123121000Y-101085000D02*
G01*
X122841000Y-101085000D01*
X122841000Y-101045000D01*
X123121000Y-101045000D01*
X123121000Y-101085000D01*
G37*
G36*
X123601000Y-101125000D02*
G01*
X122841000Y-101125000D01*
X122841000Y-101085000D01*
X123601000Y-101085000D01*
X123601000Y-101125000D01*
G37*
G36*
X123681000Y-101165000D02*
G01*
X122841000Y-101165000D01*
X122841000Y-101125000D01*
X123681000Y-101125000D01*
X123681000Y-101165000D01*
G37*
G36*
X123681000Y-101205000D02*
G01*
X122841000Y-101205000D01*
X122841000Y-101165000D01*
X123681000Y-101165000D01*
X123681000Y-101205000D01*
G37*
G36*
X123681000Y-101245000D02*
G01*
X122841000Y-101245000D01*
X122841000Y-101205000D01*
X123681000Y-101205000D01*
X123681000Y-101245000D01*
G37*
G36*
X123681000Y-101285000D02*
G01*
X122841000Y-101285000D01*
X122841000Y-101245000D01*
X123681000Y-101245000D01*
X123681000Y-101285000D01*
G37*
G36*
X123681000Y-101325000D02*
G01*
X122841000Y-101325000D01*
X122841000Y-101285000D01*
X123681000Y-101285000D01*
X123681000Y-101325000D01*
G37*
G36*
X123681000Y-100365000D02*
G01*
X122881000Y-100365000D01*
X122881000Y-100325000D01*
X123681000Y-100325000D01*
X123681000Y-100365000D01*
G37*
G36*
X123641000Y-101365000D02*
G01*
X122881000Y-101365000D01*
X122881000Y-101325000D01*
X123641000Y-101325000D01*
X123641000Y-101365000D01*
G37*
G36*
X123601000Y-100325000D02*
G01*
X122961000Y-100325000D01*
X122961000Y-100285000D01*
X123601000Y-100285000D01*
X123601000Y-100325000D01*
G37*
D13*
%TO.C,C23*%
X134025000Y-62085000D02*
X132425000Y-62085000D01*
X134025000Y-63415000D02*
X132425000Y-63415000D01*
%TO.C,C25*%
X122835000Y-56250000D02*
X122835000Y-58250000D01*
X124665000Y-56250000D02*
X124665000Y-58250000D01*
D15*
%TO.C,U3*%
X119180000Y-84500000D02*
G75*
G03*
X119180000Y-84500000I-100000J0D01*
G01*
D13*
X114900000Y-85350000D02*
X118760000Y-85350000D01*
X118760000Y-83650000D02*
X114900000Y-83650000D01*
X118760000Y-85350000D02*
X118760000Y-83650000D01*
%TO.C,D2*%
X103145000Y-40355000D02*
X101855000Y-40355000D01*
X101855000Y-40355000D02*
X101855000Y-42550000D01*
X103145000Y-42550000D02*
X103145000Y-40355000D01*
%TO.C,D3*%
X105645000Y-40355000D02*
X104355000Y-40355000D01*
X104355000Y-40355000D02*
X104355000Y-42550000D01*
X105645000Y-42550000D02*
X105645000Y-40355000D01*
%TO.C,C30*%
X117340000Y-58350000D02*
X117340000Y-55150000D01*
X115160000Y-58350000D02*
X115160000Y-55150000D01*
%TO.C,R36*%
X134500000Y-82600000D02*
X135500000Y-82600000D01*
X134500000Y-81640000D02*
X135500000Y-81640000D01*
%TO.C,R1*%
X111130000Y-49200000D02*
X111130000Y-50800000D01*
X112470000Y-49200000D02*
X112470000Y-50800000D01*
%TO.C,C4*%
X111750000Y-82335000D02*
X109750000Y-82335000D01*
X111750000Y-84165000D02*
X109750000Y-84165000D01*
%TO.C,R35*%
X134500000Y-83850000D02*
X135500000Y-83850000D01*
X134500000Y-82890000D02*
X135500000Y-82890000D01*
%TO.C,R10*%
X104250000Y-74020000D02*
X103250000Y-74020000D01*
X104250000Y-74980000D02*
X103250000Y-74980000D01*
%TO.C,C8*%
X103250000Y-71980000D02*
X104250000Y-71980000D01*
X103250000Y-71020000D02*
X104250000Y-71020000D01*
%TO.C,R24*%
X109980000Y-62250000D02*
X109980000Y-61250000D01*
X109020000Y-62250000D02*
X109020000Y-61250000D01*
%TO.C,U8*%
X132020000Y-84730000D02*
X131015000Y-84730000D01*
X131990000Y-81740000D02*
X131990000Y-81510000D01*
X131990000Y-81510000D02*
X131015000Y-81510000D01*
X129745000Y-84730000D02*
X128770000Y-84730000D01*
X129745000Y-81510000D02*
X128770000Y-81510000D01*
X128770000Y-84730000D02*
X128770000Y-84500000D01*
X128770000Y-81740000D02*
X128770000Y-81510000D01*
%TO.C,C20*%
X101500000Y-97980000D02*
X102500000Y-97980000D01*
X101500000Y-97020000D02*
X102500000Y-97020000D01*
%TO.C,C19*%
X126250000Y-95020000D02*
X125250000Y-95020000D01*
X126250000Y-95980000D02*
X125250000Y-95980000D01*
D15*
%TO.C,Q2*%
X119415000Y-82550000D02*
G75*
G03*
X119415000Y-82550000I-100000J0D01*
G01*
D13*
X120550000Y-85000000D02*
X121950000Y-85000000D01*
X121950000Y-85000000D02*
X121950000Y-83985000D01*
X119695000Y-82000000D02*
X121950000Y-82000000D01*
X121950000Y-82000000D02*
X121950000Y-83015000D01*
D15*
%TO.C,D4*%
X128165000Y-94650000D02*
G75*
G03*
X128165000Y-94650000I-100000J0D01*
G01*
D13*
X129300000Y-97100000D02*
X130700000Y-97100000D01*
X130700000Y-97100000D02*
X130700000Y-96085000D01*
X128445000Y-94100000D02*
X130700000Y-94100000D01*
X130700000Y-94100000D02*
X130700000Y-95115000D01*
%TO.C,C35*%
X124750000Y-86535000D02*
X126750000Y-86535000D01*
X124750000Y-84705000D02*
X126750000Y-84705000D01*
%TO.C,R17*%
X103170000Y-50800000D02*
X103170000Y-49200000D01*
X101830000Y-50800000D02*
X101830000Y-49200000D01*
%TO.C,D1*%
X108145000Y-40355000D02*
X106855000Y-40355000D01*
X106855000Y-40355000D02*
X106855000Y-42550000D01*
X108145000Y-42550000D02*
X108145000Y-40355000D01*
%TO.C,C9*%
X103250000Y-70730000D02*
X104250000Y-70730000D01*
X103250000Y-69770000D02*
X104250000Y-69770000D01*
%TO.C,R11*%
X106670000Y-82050000D02*
X106670000Y-80450000D01*
X105330000Y-82050000D02*
X105330000Y-80450000D01*
%TO.C,C21*%
X104000000Y-76835000D02*
X102000000Y-76835000D01*
X104000000Y-78665000D02*
X102000000Y-78665000D01*
%TO.C,R2*%
X120450000Y-91580000D02*
X122050000Y-91580000D01*
X120450000Y-92920000D02*
X122050000Y-92920000D01*
%TO.C,C10*%
X116700000Y-74165000D02*
X118300000Y-74165000D01*
X116700000Y-72835000D02*
X118300000Y-72835000D01*
%TO.C,R22*%
X113730000Y-62250000D02*
X113730000Y-61250000D01*
X112770000Y-62250000D02*
X112770000Y-61250000D01*
D11*
%TO.C,P2*%
X104550000Y-92075000D02*
X101450000Y-92075000D01*
X104550000Y-90525000D02*
X104550000Y-92075000D01*
X104270000Y-89255000D02*
X104270000Y-86715000D01*
X104270000Y-86715000D02*
X101730000Y-86715000D01*
X101730000Y-89255000D02*
X104270000Y-89255000D01*
X101730000Y-89255000D02*
X101730000Y-86715000D01*
X101450000Y-92075000D02*
X101450000Y-90525000D01*
D13*
%TO.C,Q1*%
X117250000Y-79950000D02*
X116235000Y-79950000D01*
X117250000Y-77695000D02*
X117250000Y-79950000D01*
X114250000Y-79950000D02*
X115265000Y-79950000D01*
X114250000Y-78550000D02*
X114250000Y-79950000D01*
D15*
X116800000Y-77315000D02*
G75*
G03*
X116800000Y-77315000I-100000J0D01*
G01*
%TD*%
M02*
