%TF.GenerationSoftware,KiCad,Pcbnew,7.0.6*%
%TF.CreationDate,2023-08-17T07:33:19+09:30*%
%TF.ProjectId,spe-source,7370652d-736f-4757-9263-652e6b696361,V1.0*%
%TF.SameCoordinates,Original*%
%TF.FileFunction,Paste,Top*%
%TF.FilePolarity,Positive*%
%FSLAX46Y46*%
G04 Gerber Fmt 4.6, Leading zero omitted, Abs format (unit mm)*
G04 Created by KiCad (PCBNEW 7.0.6) date 2023-08-17 07:33:19*
%MOMM*%
%LPD*%
G01*
G04 APERTURE LIST*
G04 Aperture macros list*
%AMRoundRect*
0 Rectangle with rounded corners*
0 $1 Rounding radius*
0 $2 $3 $4 $5 $6 $7 $8 $9 X,Y pos of 4 corners*
0 Add a 4 corners polygon primitive as box body*
4,1,4,$2,$3,$4,$5,$6,$7,$8,$9,$2,$3,0*
0 Add four circle primitives for the rounded corners*
1,1,$1+$1,$2,$3*
1,1,$1+$1,$4,$5*
1,1,$1+$1,$6,$7*
1,1,$1+$1,$8,$9*
0 Add four rect primitives between the rounded corners*
20,1,$1+$1,$2,$3,$4,$5,0*
20,1,$1+$1,$4,$5,$6,$7,0*
20,1,$1+$1,$6,$7,$8,$9,0*
20,1,$1+$1,$8,$9,$2,$3,0*%
%AMFreePoly0*
4,1,57,0.261296,0.442772,0.269672,0.444099,0.291600,0.432926,0.315006,0.425321,0.319990,0.418460,0.327546,0.414611,0.414611,0.327546,0.418460,0.319990,0.425321,0.315006,0.432926,0.291600,0.444099,0.269672,0.442772,0.261296,0.445393,0.253232,0.445393,-0.253232,0.442772,-0.261296,0.444099,-0.269672,0.432926,-0.291600,0.425321,-0.315006,0.418460,-0.319990,0.414611,-0.327546,
0.327546,-0.414611,0.319990,-0.418460,0.315006,-0.425321,0.291600,-0.432926,0.269672,-0.444099,0.261296,-0.442772,0.253232,-0.445393,-0.253232,-0.445393,-0.261296,-0.442772,-0.269672,-0.444099,-0.291600,-0.432926,-0.315006,-0.425321,-0.319990,-0.418460,-0.327546,-0.414611,-0.414611,-0.327546,-0.418460,-0.319990,-0.425321,-0.315006,-0.432926,-0.291600,-0.444099,-0.269672,-0.442772,-0.261296,
-0.445393,-0.253232,-0.445393,0.253232,-0.442772,0.261296,-0.444099,0.269672,-0.432926,0.291600,-0.425321,0.315006,-0.418460,0.319990,-0.414611,0.327546,-0.327546,0.414611,-0.319990,0.418460,-0.315006,0.425321,-0.291600,0.432926,-0.269672,0.444099,-0.261296,0.442772,-0.253232,0.445393,0.253232,0.445393,0.261296,0.442772,0.261296,0.442772,$1*%
G04 Aperture macros list end*
%ADD10RoundRect,0.127500X-0.127500X-0.172500X0.127500X-0.172500X0.127500X0.172500X-0.127500X0.172500X0*%
%ADD11RoundRect,0.127500X0.127500X0.172500X-0.127500X0.172500X-0.127500X-0.172500X0.127500X-0.172500X0*%
%ADD12RoundRect,0.147500X0.147500X0.152500X-0.147500X0.152500X-0.147500X-0.152500X0.147500X-0.152500X0*%
%ADD13RoundRect,0.212500X0.277500X-0.212500X0.277500X0.212500X-0.277500X0.212500X-0.277500X-0.212500X0*%
%ADD14RoundRect,0.100000X0.100000X-0.350000X0.100000X0.350000X-0.100000X0.350000X-0.100000X-0.350000X0*%
%ADD15R,1.200000X2.000000*%
%ADD16RoundRect,0.212500X0.212500X0.277500X-0.212500X0.277500X-0.212500X-0.277500X0.212500X-0.277500X0*%
%ADD17RoundRect,0.127500X0.172500X-0.127500X0.172500X0.127500X-0.172500X0.127500X-0.172500X-0.127500X0*%
%ADD18RoundRect,0.147500X-0.147500X-0.152500X0.147500X-0.152500X0.147500X0.152500X-0.147500X0.152500X0*%
%ADD19RoundRect,0.115000X0.115000X-0.460000X0.115000X0.460000X-0.115000X0.460000X-0.115000X-0.460000X0*%
%ADD20RoundRect,0.230000X0.230000X0.255000X-0.230000X0.255000X-0.230000X-0.255000X0.230000X-0.255000X0*%
%ADD21R,3.000000X4.000000*%
%ADD22RoundRect,0.205000X-0.205000X-0.630000X0.205000X-0.630000X0.205000X0.630000X-0.205000X0.630000X0*%
%ADD23RoundRect,0.212500X-0.212500X-0.277500X0.212500X-0.277500X0.212500X0.277500X-0.212500X0.277500X0*%
%ADD24RoundRect,0.120000X0.120000X-0.485000X0.120000X0.485000X-0.120000X0.485000X-0.120000X-0.485000X0*%
%ADD25FreePoly0,180.000000*%
%ADD26RoundRect,0.062500X0.350000X0.062500X-0.350000X0.062500X-0.350000X-0.062500X0.350000X-0.062500X0*%
%ADD27RoundRect,0.062500X0.062500X0.350000X-0.062500X0.350000X-0.062500X-0.350000X0.062500X-0.350000X0*%
%ADD28R,1.220000X0.580000*%
%ADD29RoundRect,0.230000X-0.230000X-0.255000X0.230000X-0.255000X0.230000X0.255000X-0.230000X0.255000X0*%
%ADD30R,0.760000X1.200000*%
%ADD31RoundRect,0.147500X0.152500X-0.147500X0.152500X0.147500X-0.152500X0.147500X-0.152500X-0.147500X0*%
%ADD32RoundRect,0.290000X0.290000X0.445000X-0.290000X0.445000X-0.290000X-0.445000X0.290000X-0.445000X0*%
%ADD33RoundRect,0.140000X0.140000X-0.535000X0.140000X0.535000X-0.140000X0.535000X-0.140000X-0.535000X0*%
%ADD34RoundRect,0.100000X-0.100000X0.350000X-0.100000X-0.350000X0.100000X-0.350000X0.100000X0.350000X0*%
%ADD35R,1.200000X0.500000*%
%ADD36R,0.420000X0.500000*%
%ADD37RoundRect,0.290000X-0.620000X0.290000X-0.620000X-0.290000X0.620000X-0.290000X0.620000X0.290000X0*%
%ADD38RoundRect,0.152500X0.437500X-0.152500X0.437500X0.152500X-0.437500X0.152500X-0.437500X-0.152500X0*%
%ADD39R,1.090000X1.190000*%
%ADD40RoundRect,0.227500X-0.237500X0.227500X-0.237500X-0.227500X0.237500X-0.227500X0.237500X0.227500X0*%
%ADD41RoundRect,0.290000X-0.445000X0.290000X-0.445000X-0.290000X0.445000X-0.290000X0.445000X0.290000X0*%
%ADD42R,1.200000X0.760000*%
%ADD43RoundRect,0.290000X0.620000X-0.290000X0.620000X0.290000X-0.620000X0.290000X-0.620000X-0.290000X0*%
%ADD44RoundRect,0.212500X-0.277500X0.212500X-0.277500X-0.212500X0.277500X-0.212500X0.277500X0.212500X0*%
%ADD45RoundRect,0.025000X0.100000X0.145000X-0.100000X0.145000X-0.100000X-0.145000X0.100000X-0.145000X0*%
%ADD46RoundRect,0.106000X0.644000X0.424000X-0.644000X0.424000X-0.644000X-0.424000X0.644000X-0.424000X0*%
%ADD47R,0.600000X0.240000*%
%ADD48RoundRect,0.290000X-0.290000X-0.445000X0.290000X-0.445000X0.290000X0.445000X-0.290000X0.445000X0*%
%ADD49RoundRect,0.152500X-0.152500X-0.437500X0.152500X-0.437500X0.152500X0.437500X-0.152500X0.437500X0*%
G04 APERTURE END LIST*
D10*
%TO.C,R30*%
X113555000Y-86750000D03*
X114445000Y-86750000D03*
%TD*%
D11*
%TO.C,R33*%
X115555000Y-82250000D03*
X116445000Y-82250000D03*
%TD*%
D10*
%TO.C,R31*%
X114445000Y-82250000D03*
X113555000Y-82250000D03*
%TD*%
D11*
%TO.C,R27*%
X117555000Y-82250000D03*
X118445000Y-82250000D03*
%TD*%
D10*
%TO.C,R6*%
X116445000Y-86750000D03*
X115555000Y-86750000D03*
%TD*%
D12*
%TO.C,C3*%
X121655000Y-93750000D03*
X120845000Y-93750000D03*
%TD*%
%TO.C,C2*%
X120845000Y-86250000D03*
X121655000Y-86250000D03*
%TD*%
%TO.C,C1*%
X117595000Y-86750000D03*
X118405000Y-86750000D03*
%TD*%
D13*
%TO.C,R26*%
X121250000Y-56725000D03*
X121250000Y-58275000D03*
%TD*%
%TO.C,R21*%
X105000000Y-49225000D03*
X105000000Y-50775000D03*
%TD*%
%TO.C,R16*%
X107500000Y-49225000D03*
X107500000Y-50775000D03*
%TD*%
D14*
%TO.C,R19*%
X102050000Y-56100000D03*
X102850000Y-56100000D03*
X103650000Y-56100000D03*
X104450000Y-56100000D03*
X104450000Y-54400000D03*
X103650000Y-54400000D03*
X102850000Y-54400000D03*
X102050000Y-54400000D03*
%TD*%
D15*
%TO.C,L3*%
X132520000Y-43750000D03*
X129980000Y-43750000D03*
X129980000Y-51250000D03*
X132520000Y-51250000D03*
%TD*%
D16*
%TO.C,R3*%
X122025000Y-87750000D03*
X120475000Y-87750000D03*
%TD*%
D17*
%TO.C,R18*%
X111975000Y-61305000D03*
X111975000Y-62195000D03*
%TD*%
D18*
%TO.C,C7*%
X106655000Y-65500000D03*
X105845000Y-65500000D03*
%TD*%
D19*
%TO.C,U5*%
X109800000Y-88000000D03*
X110750000Y-88000000D03*
X111700000Y-88000000D03*
X111700000Y-85500000D03*
X109800000Y-85500000D03*
%TD*%
D20*
%TO.C,C34*%
X134225000Y-85120000D03*
X135775000Y-85120000D03*
%TD*%
D21*
%TO.C,L2*%
X131750000Y-74750000D03*
X131750000Y-66750000D03*
X126750000Y-66750000D03*
X126750000Y-74750000D03*
%TD*%
D16*
%TO.C,R7*%
X124975000Y-83500000D03*
X126525000Y-83500000D03*
%TD*%
D11*
%TO.C,R14*%
X103305000Y-73250000D03*
X104195000Y-73250000D03*
%TD*%
D22*
%TO.C,R9*%
X127155000Y-88250000D03*
X124345000Y-88250000D03*
%TD*%
D23*
%TO.C,R5*%
X120475000Y-89250000D03*
X122025000Y-89250000D03*
%TD*%
D24*
%TO.C,U2*%
X124775000Y-93505000D03*
X125425000Y-93505000D03*
X126075000Y-93505000D03*
X126725000Y-93505000D03*
X126725000Y-90995000D03*
X126075000Y-90995000D03*
X125425000Y-90995000D03*
X124775000Y-90995000D03*
%TD*%
D18*
%TO.C,C6*%
X106655000Y-64250000D03*
X105845000Y-64250000D03*
%TD*%
D25*
%TO.C,U4*%
X110512500Y-72512500D03*
X110512500Y-71487500D03*
X109487500Y-72512500D03*
X109487500Y-71487500D03*
D26*
X112937500Y-74250000D03*
X112937500Y-73750000D03*
X112937500Y-73250000D03*
X112937500Y-72750000D03*
X112937500Y-72250000D03*
X112937500Y-71750000D03*
X112937500Y-71250000D03*
X112937500Y-70750000D03*
X112937500Y-70250000D03*
X112937500Y-69750000D03*
D27*
X112250000Y-69062500D03*
X111750000Y-69062500D03*
X111250000Y-69062500D03*
X110750000Y-69062500D03*
X110250000Y-69062500D03*
X109750000Y-69062500D03*
X109250000Y-69062500D03*
X108750000Y-69062500D03*
X108250000Y-69062500D03*
X107750000Y-69062500D03*
D26*
X107062500Y-69750000D03*
X107062500Y-70250000D03*
X107062500Y-70750000D03*
X107062500Y-71250000D03*
X107062500Y-71750000D03*
X107062500Y-72250000D03*
X107062500Y-72750000D03*
X107062500Y-73250000D03*
X107062500Y-73750000D03*
X107062500Y-74250000D03*
D27*
X107750000Y-74937500D03*
X108250000Y-74937500D03*
X108750000Y-74937500D03*
X109250000Y-74937500D03*
X109750000Y-74937500D03*
X110250000Y-74937500D03*
X110750000Y-74937500D03*
X111250000Y-74937500D03*
X111750000Y-74937500D03*
X112250000Y-74937500D03*
%TD*%
D18*
%TO.C,C16*%
X104155000Y-69000000D03*
X103345000Y-69000000D03*
%TD*%
D28*
%TO.C,IC1*%
X110345000Y-97405000D03*
X110345000Y-96135000D03*
X110345000Y-94865000D03*
X110345000Y-93595000D03*
X104655000Y-93595000D03*
X104655000Y-94865000D03*
X104655000Y-96135000D03*
X104655000Y-97405000D03*
%TD*%
D23*
%TO.C,R23*%
X112275000Y-65750000D03*
X110725000Y-65750000D03*
%TD*%
D29*
%TO.C,C24*%
X122025000Y-60750000D03*
X120475000Y-60750000D03*
%TD*%
D30*
%TO.C,D8*%
X121250000Y-80230000D03*
X121250000Y-76770000D03*
%TD*%
D31*
%TO.C,C28*%
X128500000Y-91845000D03*
X128500000Y-92655000D03*
%TD*%
D18*
%TO.C,C12*%
X106655000Y-61750000D03*
X105845000Y-61750000D03*
%TD*%
D20*
%TO.C,C11*%
X116725000Y-67000000D03*
X118275000Y-67000000D03*
%TD*%
D10*
%TO.C,R34*%
X126195000Y-80500000D03*
X125305000Y-80500000D03*
%TD*%
D20*
%TO.C,C5*%
X109975000Y-90250000D03*
X111525000Y-90250000D03*
%TD*%
D19*
%TO.C,U6*%
X102050000Y-82500000D03*
X103000000Y-82500000D03*
X103950000Y-82500000D03*
X103950000Y-80000000D03*
X102050000Y-80000000D03*
%TD*%
D11*
%TO.C,R12*%
X101555000Y-96000000D03*
X102445000Y-96000000D03*
%TD*%
D30*
%TO.C,D6*%
X118850000Y-76770000D03*
X118850000Y-80230000D03*
%TD*%
D31*
%TO.C,C14*%
X109750000Y-77345000D03*
X109750000Y-78155000D03*
%TD*%
D18*
%TO.C,C13*%
X106655000Y-63000000D03*
X105845000Y-63000000D03*
%TD*%
D32*
%TO.C,C18*%
X102125000Y-84750000D03*
X103875000Y-84750000D03*
%TD*%
D23*
%TO.C,R4*%
X120475000Y-90750000D03*
X122025000Y-90750000D03*
%TD*%
D31*
%TO.C,C15*%
X108500000Y-77345000D03*
X108500000Y-78155000D03*
%TD*%
D33*
%TO.C,U1*%
X116050000Y-91175000D03*
X117000000Y-91175000D03*
X117950000Y-91175000D03*
X117950000Y-88825000D03*
X117000000Y-88825000D03*
X116050000Y-88825000D03*
%TD*%
D34*
%TO.C,R13*%
X108700000Y-54400000D03*
X107900000Y-54400000D03*
X107100000Y-54400000D03*
X106300000Y-54400000D03*
X106300000Y-56100000D03*
X107100000Y-56100000D03*
X107900000Y-56100000D03*
X108700000Y-56100000D03*
%TD*%
D23*
%TO.C,R20*%
X111525000Y-64000000D03*
X109975000Y-64000000D03*
%TD*%
D35*
%TO.C,L1*%
X127270000Y-60200000D03*
X127270000Y-59550000D03*
D36*
X126870000Y-57500000D03*
X127720000Y-57500000D03*
D35*
X131250000Y-60200000D03*
X131250000Y-58150000D03*
X131250000Y-57500000D03*
%TD*%
D37*
%TO.C,C29*%
X119000000Y-58225000D03*
X119000000Y-55275000D03*
%TD*%
D38*
%TO.C,D7*%
X116225000Y-60800000D03*
X116225000Y-62700000D03*
X118275000Y-61750000D03*
%TD*%
D13*
%TO.C,R28*%
X110000000Y-49225000D03*
X110000000Y-50775000D03*
%TD*%
D18*
%TO.C,C32*%
X126155000Y-81750000D03*
X125345000Y-81750000D03*
%TD*%
D13*
%TO.C,R29*%
X113750000Y-56725000D03*
X113750000Y-58275000D03*
%TD*%
D39*
%TO.C,X1*%
X116640000Y-69090000D03*
X116640000Y-71410000D03*
X118360000Y-71410000D03*
X118360000Y-69090000D03*
%TD*%
D17*
%TO.C,R25*%
X110750000Y-61305000D03*
X110750000Y-62195000D03*
%TD*%
D18*
%TO.C,C17*%
X104155000Y-67750000D03*
X103345000Y-67750000D03*
%TD*%
D29*
%TO.C,C22*%
X122025000Y-62750000D03*
X120475000Y-62750000D03*
%TD*%
D10*
%TO.C,R32*%
X135445000Y-80870000D03*
X134555000Y-80870000D03*
%TD*%
D40*
%TO.C,D5*%
X110000000Y-42510000D03*
X110000000Y-40990000D03*
%TD*%
D13*
%TO.C,R15*%
X121300000Y-72725000D03*
X121300000Y-74275000D03*
%TD*%
D16*
%TO.C,R8*%
X117825000Y-95250000D03*
X119375000Y-95250000D03*
%TD*%
D20*
%TO.C,C23*%
X132450000Y-62750000D03*
X134000000Y-62750000D03*
%TD*%
D41*
%TO.C,C25*%
X123750000Y-58125000D03*
X123750000Y-56375000D03*
%TD*%
D42*
%TO.C,U3*%
X117980000Y-84500000D03*
X114520000Y-84500000D03*
%TD*%
D40*
%TO.C,D2*%
X102500000Y-42510000D03*
X102500000Y-40990000D03*
%TD*%
%TO.C,D3*%
X105000000Y-42510000D03*
X105000000Y-40990000D03*
%TD*%
D43*
%TO.C,C30*%
X116250000Y-55275000D03*
X116250000Y-58225000D03*
%TD*%
D10*
%TO.C,R36*%
X135445000Y-82120000D03*
X134555000Y-82120000D03*
%TD*%
D44*
%TO.C,R1*%
X111800000Y-50775000D03*
X111800000Y-49225000D03*
%TD*%
D32*
%TO.C,C4*%
X109875000Y-83250000D03*
X111625000Y-83250000D03*
%TD*%
D10*
%TO.C,R35*%
X135445000Y-83370000D03*
X134555000Y-83370000D03*
%TD*%
D11*
%TO.C,R10*%
X103305000Y-74500000D03*
X104195000Y-74500000D03*
%TD*%
D18*
%TO.C,C8*%
X104155000Y-71500000D03*
X103345000Y-71500000D03*
%TD*%
D17*
%TO.C,R24*%
X109500000Y-61305000D03*
X109500000Y-62195000D03*
%TD*%
D45*
%TO.C,U8*%
X130630000Y-84650000D03*
X130630000Y-81590000D03*
D46*
X130380000Y-83750000D03*
X130380000Y-82490000D03*
D45*
X130130000Y-84650000D03*
X130130000Y-81590000D03*
D47*
X131780000Y-84120000D03*
X131780000Y-83620000D03*
X131780000Y-83120000D03*
X131780000Y-82620000D03*
X131780000Y-82120000D03*
X128980000Y-82120000D03*
X128980000Y-82620000D03*
X128980000Y-83120000D03*
X128980000Y-83620000D03*
X128980000Y-84120000D03*
%TD*%
D18*
%TO.C,C20*%
X102405000Y-97500000D03*
X101595000Y-97500000D03*
%TD*%
D12*
%TO.C,C19*%
X125345000Y-95500000D03*
X126155000Y-95500000D03*
%TD*%
D38*
%TO.C,Q2*%
X122275000Y-83500000D03*
X120225000Y-84450000D03*
X120225000Y-82550000D03*
%TD*%
%TO.C,D4*%
X131025000Y-95600000D03*
X128975000Y-96550000D03*
X128975000Y-94650000D03*
%TD*%
D48*
%TO.C,C35*%
X126625000Y-85620000D03*
X124875000Y-85620000D03*
%TD*%
D13*
%TO.C,R17*%
X102500000Y-49225000D03*
X102500000Y-50775000D03*
%TD*%
D40*
%TO.C,D1*%
X107500000Y-42510000D03*
X107500000Y-40990000D03*
%TD*%
D18*
%TO.C,C9*%
X104155000Y-70250000D03*
X103345000Y-70250000D03*
%TD*%
D13*
%TO.C,R11*%
X106000000Y-80475000D03*
X106000000Y-82025000D03*
%TD*%
D32*
%TO.C,C21*%
X102125000Y-77750000D03*
X103875000Y-77750000D03*
%TD*%
D23*
%TO.C,R2*%
X120475000Y-92250000D03*
X122025000Y-92250000D03*
%TD*%
D29*
%TO.C,C10*%
X118275000Y-73500000D03*
X116725000Y-73500000D03*
%TD*%
D17*
%TO.C,R22*%
X113250000Y-61305000D03*
X113250000Y-62195000D03*
%TD*%
D49*
%TO.C,Q1*%
X116700000Y-78225000D03*
X114800000Y-78225000D03*
X115750000Y-80275000D03*
%TD*%
M02*
