%TF.GenerationSoftware,KiCad,Pcbnew,7.0.6*%
%TF.CreationDate,2023-08-17T07:33:21+09:30*%
%TF.ProjectId,spe-source,7370652d-736f-4757-9263-652e6b696361,V1.0*%
%TF.SameCoordinates,Original*%
%TF.FileFunction,Legend,Bot*%
%TF.FilePolarity,Positive*%
%FSLAX46Y46*%
G04 Gerber Fmt 4.6, Leading zero omitted, Abs format (unit mm)*
G04 Created by KiCad (PCBNEW 7.0.6) date 2023-08-17 07:33:21*
%MOMM*%
%LPD*%
G01*
G04 APERTURE LIST*
%ADD10C,0.140000*%
%ADD11C,0.100000*%
G04 APERTURE END LIST*
D10*
X106713533Y-90100910D02*
X106770676Y-90062815D01*
X106770676Y-90062815D02*
X106856390Y-90062815D01*
X106856390Y-90062815D02*
X106942104Y-90100910D01*
X106942104Y-90100910D02*
X106999247Y-90177100D01*
X106999247Y-90177100D02*
X107027818Y-90253291D01*
X107027818Y-90253291D02*
X107056390Y-90405672D01*
X107056390Y-90405672D02*
X107056390Y-90519958D01*
X107056390Y-90519958D02*
X107027818Y-90672339D01*
X107027818Y-90672339D02*
X106999247Y-90748529D01*
X106999247Y-90748529D02*
X106942104Y-90824720D01*
X106942104Y-90824720D02*
X106856390Y-90862815D01*
X106856390Y-90862815D02*
X106799247Y-90862815D01*
X106799247Y-90862815D02*
X106713533Y-90824720D01*
X106713533Y-90824720D02*
X106684961Y-90786624D01*
X106684961Y-90786624D02*
X106684961Y-90519958D01*
X106684961Y-90519958D02*
X106799247Y-90519958D01*
X106427818Y-90862815D02*
X106427818Y-90062815D01*
X106427818Y-90062815D02*
X106084961Y-90862815D01*
X106084961Y-90862815D02*
X106084961Y-90062815D01*
X105799247Y-90862815D02*
X105799247Y-90062815D01*
X105799247Y-90062815D02*
X105656390Y-90062815D01*
X105656390Y-90062815D02*
X105570676Y-90100910D01*
X105570676Y-90100910D02*
X105513533Y-90177100D01*
X105513533Y-90177100D02*
X105484962Y-90253291D01*
X105484962Y-90253291D02*
X105456390Y-90405672D01*
X105456390Y-90405672D02*
X105456390Y-90519958D01*
X105456390Y-90519958D02*
X105484962Y-90672339D01*
X105484962Y-90672339D02*
X105513533Y-90748529D01*
X105513533Y-90748529D02*
X105570676Y-90824720D01*
X105570676Y-90824720D02*
X105656390Y-90862815D01*
X105656390Y-90862815D02*
X105799247Y-90862815D01*
X136850752Y-96806815D02*
X136650752Y-97606815D01*
X136650752Y-97606815D02*
X136450752Y-96806815D01*
X135936466Y-97606815D02*
X136279323Y-97606815D01*
X136107894Y-97606815D02*
X136107894Y-96806815D01*
X136107894Y-96806815D02*
X136165037Y-96921100D01*
X136165037Y-96921100D02*
X136222180Y-96997291D01*
X136222180Y-96997291D02*
X136279323Y-97035386D01*
X135679322Y-97530624D02*
X135650751Y-97568720D01*
X135650751Y-97568720D02*
X135679322Y-97606815D01*
X135679322Y-97606815D02*
X135707894Y-97568720D01*
X135707894Y-97568720D02*
X135679322Y-97530624D01*
X135679322Y-97530624D02*
X135679322Y-97606815D01*
X135279323Y-96806815D02*
X135222180Y-96806815D01*
X135222180Y-96806815D02*
X135165037Y-96844910D01*
X135165037Y-96844910D02*
X135136466Y-96883005D01*
X135136466Y-96883005D02*
X135107894Y-96959196D01*
X135107894Y-96959196D02*
X135079323Y-97111577D01*
X135079323Y-97111577D02*
X135079323Y-97302053D01*
X135079323Y-97302053D02*
X135107894Y-97454434D01*
X135107894Y-97454434D02*
X135136466Y-97530624D01*
X135136466Y-97530624D02*
X135165037Y-97568720D01*
X135165037Y-97568720D02*
X135222180Y-97606815D01*
X135222180Y-97606815D02*
X135279323Y-97606815D01*
X135279323Y-97606815D02*
X135336466Y-97568720D01*
X135336466Y-97568720D02*
X135365037Y-97530624D01*
X135365037Y-97530624D02*
X135393608Y-97454434D01*
X135393608Y-97454434D02*
X135422180Y-97302053D01*
X135422180Y-97302053D02*
X135422180Y-97111577D01*
X135422180Y-97111577D02*
X135393608Y-96959196D01*
X135393608Y-96959196D02*
X135365037Y-96883005D01*
X135365037Y-96883005D02*
X135336466Y-96844910D01*
X135336466Y-96844910D02*
X135279323Y-96806815D01*
X136793609Y-98856720D02*
X136707895Y-98894815D01*
X136707895Y-98894815D02*
X136565037Y-98894815D01*
X136565037Y-98894815D02*
X136507895Y-98856720D01*
X136507895Y-98856720D02*
X136479323Y-98818624D01*
X136479323Y-98818624D02*
X136450752Y-98742434D01*
X136450752Y-98742434D02*
X136450752Y-98666243D01*
X136450752Y-98666243D02*
X136479323Y-98590053D01*
X136479323Y-98590053D02*
X136507895Y-98551958D01*
X136507895Y-98551958D02*
X136565037Y-98513862D01*
X136565037Y-98513862D02*
X136679323Y-98475767D01*
X136679323Y-98475767D02*
X136736466Y-98437672D01*
X136736466Y-98437672D02*
X136765037Y-98399577D01*
X136765037Y-98399577D02*
X136793609Y-98323386D01*
X136793609Y-98323386D02*
X136793609Y-98247196D01*
X136793609Y-98247196D02*
X136765037Y-98171005D01*
X136765037Y-98171005D02*
X136736466Y-98132910D01*
X136736466Y-98132910D02*
X136679323Y-98094815D01*
X136679323Y-98094815D02*
X136536466Y-98094815D01*
X136536466Y-98094815D02*
X136450752Y-98132910D01*
X136193608Y-98818624D02*
X136165037Y-98856720D01*
X136165037Y-98856720D02*
X136193608Y-98894815D01*
X136193608Y-98894815D02*
X136222180Y-98856720D01*
X136222180Y-98856720D02*
X136193608Y-98818624D01*
X136193608Y-98818624D02*
X136193608Y-98894815D01*
X135565037Y-98894815D02*
X135765037Y-98513862D01*
X135907894Y-98894815D02*
X135907894Y-98094815D01*
X135907894Y-98094815D02*
X135679323Y-98094815D01*
X135679323Y-98094815D02*
X135622180Y-98132910D01*
X135622180Y-98132910D02*
X135593609Y-98171005D01*
X135593609Y-98171005D02*
X135565037Y-98247196D01*
X135565037Y-98247196D02*
X135565037Y-98361481D01*
X135565037Y-98361481D02*
X135593609Y-98437672D01*
X135593609Y-98437672D02*
X135622180Y-98475767D01*
X135622180Y-98475767D02*
X135679323Y-98513862D01*
X135679323Y-98513862D02*
X135907894Y-98513862D01*
X135336466Y-98666243D02*
X135050752Y-98666243D01*
X135393609Y-98894815D02*
X135193609Y-98094815D01*
X135193609Y-98094815D02*
X134993609Y-98894815D01*
X134793608Y-98894815D02*
X134793608Y-98094815D01*
X134793608Y-98094815D02*
X134565037Y-98094815D01*
X134565037Y-98094815D02*
X134507894Y-98132910D01*
X134507894Y-98132910D02*
X134479323Y-98171005D01*
X134479323Y-98171005D02*
X134450751Y-98247196D01*
X134450751Y-98247196D02*
X134450751Y-98361481D01*
X134450751Y-98361481D02*
X134479323Y-98437672D01*
X134479323Y-98437672D02*
X134507894Y-98475767D01*
X134507894Y-98475767D02*
X134565037Y-98513862D01*
X134565037Y-98513862D02*
X134793608Y-98513862D01*
X134222180Y-98856720D02*
X134136466Y-98894815D01*
X134136466Y-98894815D02*
X133993608Y-98894815D01*
X133993608Y-98894815D02*
X133936466Y-98856720D01*
X133936466Y-98856720D02*
X133907894Y-98818624D01*
X133907894Y-98818624D02*
X133879323Y-98742434D01*
X133879323Y-98742434D02*
X133879323Y-98666243D01*
X133879323Y-98666243D02*
X133907894Y-98590053D01*
X133907894Y-98590053D02*
X133936466Y-98551958D01*
X133936466Y-98551958D02*
X133993608Y-98513862D01*
X133993608Y-98513862D02*
X134107894Y-98475767D01*
X134107894Y-98475767D02*
X134165037Y-98437672D01*
X134165037Y-98437672D02*
X134193608Y-98399577D01*
X134193608Y-98399577D02*
X134222180Y-98323386D01*
X134222180Y-98323386D02*
X134222180Y-98247196D01*
X134222180Y-98247196D02*
X134193608Y-98171005D01*
X134193608Y-98171005D02*
X134165037Y-98132910D01*
X134165037Y-98132910D02*
X134107894Y-98094815D01*
X134107894Y-98094815D02*
X133965037Y-98094815D01*
X133965037Y-98094815D02*
X133879323Y-98132910D01*
X133507894Y-98094815D02*
X133393608Y-98094815D01*
X133393608Y-98094815D02*
X133336465Y-98132910D01*
X133336465Y-98132910D02*
X133279322Y-98209100D01*
X133279322Y-98209100D02*
X133250751Y-98361481D01*
X133250751Y-98361481D02*
X133250751Y-98628148D01*
X133250751Y-98628148D02*
X133279322Y-98780529D01*
X133279322Y-98780529D02*
X133336465Y-98856720D01*
X133336465Y-98856720D02*
X133393608Y-98894815D01*
X133393608Y-98894815D02*
X133507894Y-98894815D01*
X133507894Y-98894815D02*
X133565037Y-98856720D01*
X133565037Y-98856720D02*
X133622179Y-98780529D01*
X133622179Y-98780529D02*
X133650751Y-98628148D01*
X133650751Y-98628148D02*
X133650751Y-98361481D01*
X133650751Y-98361481D02*
X133622179Y-98209100D01*
X133622179Y-98209100D02*
X133565037Y-98132910D01*
X133565037Y-98132910D02*
X133507894Y-98094815D01*
X132993608Y-98894815D02*
X132993608Y-98094815D01*
X132993608Y-98094815D02*
X132650751Y-98894815D01*
X132650751Y-98894815D02*
X132650751Y-98094815D01*
X131936466Y-98171005D02*
X131907894Y-98132910D01*
X131907894Y-98132910D02*
X131850752Y-98094815D01*
X131850752Y-98094815D02*
X131707894Y-98094815D01*
X131707894Y-98094815D02*
X131650752Y-98132910D01*
X131650752Y-98132910D02*
X131622180Y-98171005D01*
X131622180Y-98171005D02*
X131593609Y-98247196D01*
X131593609Y-98247196D02*
X131593609Y-98323386D01*
X131593609Y-98323386D02*
X131622180Y-98437672D01*
X131622180Y-98437672D02*
X131965037Y-98894815D01*
X131965037Y-98894815D02*
X131593609Y-98894815D01*
X131222180Y-98094815D02*
X131165037Y-98094815D01*
X131165037Y-98094815D02*
X131107894Y-98132910D01*
X131107894Y-98132910D02*
X131079323Y-98171005D01*
X131079323Y-98171005D02*
X131050751Y-98247196D01*
X131050751Y-98247196D02*
X131022180Y-98399577D01*
X131022180Y-98399577D02*
X131022180Y-98590053D01*
X131022180Y-98590053D02*
X131050751Y-98742434D01*
X131050751Y-98742434D02*
X131079323Y-98818624D01*
X131079323Y-98818624D02*
X131107894Y-98856720D01*
X131107894Y-98856720D02*
X131165037Y-98894815D01*
X131165037Y-98894815D02*
X131222180Y-98894815D01*
X131222180Y-98894815D02*
X131279323Y-98856720D01*
X131279323Y-98856720D02*
X131307894Y-98818624D01*
X131307894Y-98818624D02*
X131336465Y-98742434D01*
X131336465Y-98742434D02*
X131365037Y-98590053D01*
X131365037Y-98590053D02*
X131365037Y-98399577D01*
X131365037Y-98399577D02*
X131336465Y-98247196D01*
X131336465Y-98247196D02*
X131307894Y-98171005D01*
X131307894Y-98171005D02*
X131279323Y-98132910D01*
X131279323Y-98132910D02*
X131222180Y-98094815D01*
X130793608Y-98171005D02*
X130765036Y-98132910D01*
X130765036Y-98132910D02*
X130707894Y-98094815D01*
X130707894Y-98094815D02*
X130565036Y-98094815D01*
X130565036Y-98094815D02*
X130507894Y-98132910D01*
X130507894Y-98132910D02*
X130479322Y-98171005D01*
X130479322Y-98171005D02*
X130450751Y-98247196D01*
X130450751Y-98247196D02*
X130450751Y-98323386D01*
X130450751Y-98323386D02*
X130479322Y-98437672D01*
X130479322Y-98437672D02*
X130822179Y-98894815D01*
X130822179Y-98894815D02*
X130450751Y-98894815D01*
X130250750Y-98094815D02*
X129879322Y-98094815D01*
X129879322Y-98094815D02*
X130079322Y-98399577D01*
X130079322Y-98399577D02*
X129993607Y-98399577D01*
X129993607Y-98399577D02*
X129936465Y-98437672D01*
X129936465Y-98437672D02*
X129907893Y-98475767D01*
X129907893Y-98475767D02*
X129879322Y-98551958D01*
X129879322Y-98551958D02*
X129879322Y-98742434D01*
X129879322Y-98742434D02*
X129907893Y-98818624D01*
X129907893Y-98818624D02*
X129936465Y-98856720D01*
X129936465Y-98856720D02*
X129993607Y-98894815D01*
X129993607Y-98894815D02*
X130165036Y-98894815D01*
X130165036Y-98894815D02*
X130222179Y-98856720D01*
X130222179Y-98856720D02*
X130250750Y-98818624D01*
X111177820Y-58892720D02*
X111092106Y-58930815D01*
X111092106Y-58930815D02*
X110949248Y-58930815D01*
X110949248Y-58930815D02*
X110892106Y-58892720D01*
X110892106Y-58892720D02*
X110863534Y-58854624D01*
X110863534Y-58854624D02*
X110834963Y-58778434D01*
X110834963Y-58778434D02*
X110834963Y-58702243D01*
X110834963Y-58702243D02*
X110863534Y-58626053D01*
X110863534Y-58626053D02*
X110892106Y-58587958D01*
X110892106Y-58587958D02*
X110949248Y-58549862D01*
X110949248Y-58549862D02*
X111063534Y-58511767D01*
X111063534Y-58511767D02*
X111120677Y-58473672D01*
X111120677Y-58473672D02*
X111149248Y-58435577D01*
X111149248Y-58435577D02*
X111177820Y-58359386D01*
X111177820Y-58359386D02*
X111177820Y-58283196D01*
X111177820Y-58283196D02*
X111149248Y-58207005D01*
X111149248Y-58207005D02*
X111120677Y-58168910D01*
X111120677Y-58168910D02*
X111063534Y-58130815D01*
X111063534Y-58130815D02*
X110920677Y-58130815D01*
X110920677Y-58130815D02*
X110834963Y-58168910D01*
X110577819Y-58930815D02*
X110577819Y-58130815D01*
X110577819Y-58130815D02*
X110349248Y-58130815D01*
X110349248Y-58130815D02*
X110292105Y-58168910D01*
X110292105Y-58168910D02*
X110263534Y-58207005D01*
X110263534Y-58207005D02*
X110234962Y-58283196D01*
X110234962Y-58283196D02*
X110234962Y-58397481D01*
X110234962Y-58397481D02*
X110263534Y-58473672D01*
X110263534Y-58473672D02*
X110292105Y-58511767D01*
X110292105Y-58511767D02*
X110349248Y-58549862D01*
X110349248Y-58549862D02*
X110577819Y-58549862D01*
X109977819Y-58930815D02*
X109977819Y-58130815D01*
X108892105Y-58854624D02*
X108920677Y-58892720D01*
X108920677Y-58892720D02*
X109006391Y-58930815D01*
X109006391Y-58930815D02*
X109063534Y-58930815D01*
X109063534Y-58930815D02*
X109149248Y-58892720D01*
X109149248Y-58892720D02*
X109206391Y-58816529D01*
X109206391Y-58816529D02*
X109234962Y-58740339D01*
X109234962Y-58740339D02*
X109263534Y-58587958D01*
X109263534Y-58587958D02*
X109263534Y-58473672D01*
X109263534Y-58473672D02*
X109234962Y-58321291D01*
X109234962Y-58321291D02*
X109206391Y-58245100D01*
X109206391Y-58245100D02*
X109149248Y-58168910D01*
X109149248Y-58168910D02*
X109063534Y-58130815D01*
X109063534Y-58130815D02*
X109006391Y-58130815D01*
X109006391Y-58130815D02*
X108920677Y-58168910D01*
X108920677Y-58168910D02*
X108892105Y-58207005D01*
X108434962Y-58511767D02*
X108634962Y-58511767D01*
X108634962Y-58930815D02*
X108634962Y-58130815D01*
X108634962Y-58130815D02*
X108349248Y-58130815D01*
X107806391Y-58168910D02*
X107863534Y-58130815D01*
X107863534Y-58130815D02*
X107949248Y-58130815D01*
X107949248Y-58130815D02*
X108034962Y-58168910D01*
X108034962Y-58168910D02*
X108092105Y-58245100D01*
X108092105Y-58245100D02*
X108120676Y-58321291D01*
X108120676Y-58321291D02*
X108149248Y-58473672D01*
X108149248Y-58473672D02*
X108149248Y-58587958D01*
X108149248Y-58587958D02*
X108120676Y-58740339D01*
X108120676Y-58740339D02*
X108092105Y-58816529D01*
X108092105Y-58816529D02*
X108034962Y-58892720D01*
X108034962Y-58892720D02*
X107949248Y-58930815D01*
X107949248Y-58930815D02*
X107892105Y-58930815D01*
X107892105Y-58930815D02*
X107806391Y-58892720D01*
X107806391Y-58892720D02*
X107777819Y-58854624D01*
X107777819Y-58854624D02*
X107777819Y-58587958D01*
X107777819Y-58587958D02*
X107892105Y-58587958D01*
X107206391Y-58930815D02*
X107549248Y-58930815D01*
X107377819Y-58930815D02*
X107377819Y-58130815D01*
X107377819Y-58130815D02*
X107434962Y-58245100D01*
X107434962Y-58245100D02*
X107492105Y-58321291D01*
X107492105Y-58321291D02*
X107549248Y-58359386D01*
X112577819Y-60180720D02*
X112492105Y-60218815D01*
X112492105Y-60218815D02*
X112349247Y-60218815D01*
X112349247Y-60218815D02*
X112292105Y-60180720D01*
X112292105Y-60180720D02*
X112263533Y-60142624D01*
X112263533Y-60142624D02*
X112234962Y-60066434D01*
X112234962Y-60066434D02*
X112234962Y-59990243D01*
X112234962Y-59990243D02*
X112263533Y-59914053D01*
X112263533Y-59914053D02*
X112292105Y-59875958D01*
X112292105Y-59875958D02*
X112349247Y-59837862D01*
X112349247Y-59837862D02*
X112463533Y-59799767D01*
X112463533Y-59799767D02*
X112520676Y-59761672D01*
X112520676Y-59761672D02*
X112549247Y-59723577D01*
X112549247Y-59723577D02*
X112577819Y-59647386D01*
X112577819Y-59647386D02*
X112577819Y-59571196D01*
X112577819Y-59571196D02*
X112549247Y-59495005D01*
X112549247Y-59495005D02*
X112520676Y-59456910D01*
X112520676Y-59456910D02*
X112463533Y-59418815D01*
X112463533Y-59418815D02*
X112320676Y-59418815D01*
X112320676Y-59418815D02*
X112234962Y-59456910D01*
X112034961Y-59418815D02*
X111892104Y-60218815D01*
X111892104Y-60218815D02*
X111777818Y-59647386D01*
X111777818Y-59647386D02*
X111663533Y-60218815D01*
X111663533Y-60218815D02*
X111520676Y-59418815D01*
X110834961Y-60218815D02*
X110834961Y-59418815D01*
X110834961Y-59418815D02*
X110606390Y-59418815D01*
X110606390Y-59418815D02*
X110549247Y-59456910D01*
X110549247Y-59456910D02*
X110520676Y-59495005D01*
X110520676Y-59495005D02*
X110492104Y-59571196D01*
X110492104Y-59571196D02*
X110492104Y-59685481D01*
X110492104Y-59685481D02*
X110520676Y-59761672D01*
X110520676Y-59761672D02*
X110549247Y-59799767D01*
X110549247Y-59799767D02*
X110606390Y-59837862D01*
X110606390Y-59837862D02*
X110834961Y-59837862D01*
X110292104Y-59418815D02*
X110149247Y-60218815D01*
X110149247Y-60218815D02*
X110034961Y-59647386D01*
X110034961Y-59647386D02*
X109920676Y-60218815D01*
X109920676Y-60218815D02*
X109777819Y-59418815D01*
X109206390Y-60218815D02*
X109406390Y-59837862D01*
X109549247Y-60218815D02*
X109549247Y-59418815D01*
X109549247Y-59418815D02*
X109320676Y-59418815D01*
X109320676Y-59418815D02*
X109263533Y-59456910D01*
X109263533Y-59456910D02*
X109234962Y-59495005D01*
X109234962Y-59495005D02*
X109206390Y-59571196D01*
X109206390Y-59571196D02*
X109206390Y-59685481D01*
X109206390Y-59685481D02*
X109234962Y-59761672D01*
X109234962Y-59761672D02*
X109263533Y-59799767D01*
X109263533Y-59799767D02*
X109320676Y-59837862D01*
X109320676Y-59837862D02*
X109549247Y-59837862D01*
X108149247Y-60142624D02*
X108177819Y-60180720D01*
X108177819Y-60180720D02*
X108263533Y-60218815D01*
X108263533Y-60218815D02*
X108320676Y-60218815D01*
X108320676Y-60218815D02*
X108406390Y-60180720D01*
X108406390Y-60180720D02*
X108463533Y-60104529D01*
X108463533Y-60104529D02*
X108492104Y-60028339D01*
X108492104Y-60028339D02*
X108520676Y-59875958D01*
X108520676Y-59875958D02*
X108520676Y-59761672D01*
X108520676Y-59761672D02*
X108492104Y-59609291D01*
X108492104Y-59609291D02*
X108463533Y-59533100D01*
X108463533Y-59533100D02*
X108406390Y-59456910D01*
X108406390Y-59456910D02*
X108320676Y-59418815D01*
X108320676Y-59418815D02*
X108263533Y-59418815D01*
X108263533Y-59418815D02*
X108177819Y-59456910D01*
X108177819Y-59456910D02*
X108149247Y-59495005D01*
X107977819Y-59418815D02*
X107634962Y-59418815D01*
X107806390Y-60218815D02*
X107806390Y-59418815D01*
X107149247Y-60218815D02*
X107434961Y-60218815D01*
X107434961Y-60218815D02*
X107434961Y-59418815D01*
X112320677Y-60706815D02*
X111977820Y-60706815D01*
X112149248Y-61506815D02*
X112149248Y-60706815D01*
X111834962Y-60706815D02*
X111434962Y-61506815D01*
X111434962Y-60706815D02*
X111834962Y-61506815D01*
X110434962Y-61506815D02*
X110777819Y-61506815D01*
X110606390Y-61506815D02*
X110606390Y-60706815D01*
X110606390Y-60706815D02*
X110663533Y-60821100D01*
X110663533Y-60821100D02*
X110720676Y-60897291D01*
X110720676Y-60897291D02*
X110777819Y-60935386D01*
X110263533Y-60706815D02*
X110063533Y-61506815D01*
X110063533Y-61506815D02*
X109863533Y-60706815D01*
X109092104Y-60706815D02*
X108977818Y-60706815D01*
X108977818Y-60706815D02*
X108920675Y-60744910D01*
X108920675Y-60744910D02*
X108863532Y-60821100D01*
X108863532Y-60821100D02*
X108834961Y-60973481D01*
X108834961Y-60973481D02*
X108834961Y-61240148D01*
X108834961Y-61240148D02*
X108863532Y-61392529D01*
X108863532Y-61392529D02*
X108920675Y-61468720D01*
X108920675Y-61468720D02*
X108977818Y-61506815D01*
X108977818Y-61506815D02*
X109092104Y-61506815D01*
X109092104Y-61506815D02*
X109149247Y-61468720D01*
X109149247Y-61468720D02*
X109206389Y-61392529D01*
X109206389Y-61392529D02*
X109234961Y-61240148D01*
X109234961Y-61240148D02*
X109234961Y-60973481D01*
X109234961Y-60973481D02*
X109206389Y-60821100D01*
X109206389Y-60821100D02*
X109149247Y-60744910D01*
X109149247Y-60744910D02*
X109092104Y-60706815D01*
X108577818Y-61506815D02*
X108577818Y-60706815D01*
X108577818Y-60706815D02*
X108234961Y-61506815D01*
X108234961Y-61506815D02*
X108234961Y-60706815D01*
X107663533Y-61506815D02*
X107949247Y-61506815D01*
X107949247Y-61506815D02*
X107949247Y-60706815D01*
X107349248Y-61125862D02*
X107349248Y-61506815D01*
X107549248Y-60706815D02*
X107349248Y-61125862D01*
X107349248Y-61125862D02*
X107149248Y-60706815D01*
X112377819Y-62794815D02*
X112377819Y-61994815D01*
X112377819Y-61994815D02*
X112177819Y-62566243D01*
X112177819Y-62566243D02*
X111977819Y-61994815D01*
X111977819Y-61994815D02*
X111977819Y-62794815D01*
X111720677Y-62566243D02*
X111434963Y-62566243D01*
X111777820Y-62794815D02*
X111577820Y-61994815D01*
X111577820Y-61994815D02*
X111377820Y-62794815D01*
X111206391Y-62756720D02*
X111120677Y-62794815D01*
X111120677Y-62794815D02*
X110977819Y-62794815D01*
X110977819Y-62794815D02*
X110920677Y-62756720D01*
X110920677Y-62756720D02*
X110892105Y-62718624D01*
X110892105Y-62718624D02*
X110863534Y-62642434D01*
X110863534Y-62642434D02*
X110863534Y-62566243D01*
X110863534Y-62566243D02*
X110892105Y-62490053D01*
X110892105Y-62490053D02*
X110920677Y-62451958D01*
X110920677Y-62451958D02*
X110977819Y-62413862D01*
X110977819Y-62413862D02*
X111092105Y-62375767D01*
X111092105Y-62375767D02*
X111149248Y-62337672D01*
X111149248Y-62337672D02*
X111177819Y-62299577D01*
X111177819Y-62299577D02*
X111206391Y-62223386D01*
X111206391Y-62223386D02*
X111206391Y-62147196D01*
X111206391Y-62147196D02*
X111177819Y-62071005D01*
X111177819Y-62071005D02*
X111149248Y-62032910D01*
X111149248Y-62032910D02*
X111092105Y-61994815D01*
X111092105Y-61994815D02*
X110949248Y-61994815D01*
X110949248Y-61994815D02*
X110863534Y-62032910D01*
X110692105Y-61994815D02*
X110349248Y-61994815D01*
X110520676Y-62794815D02*
X110520676Y-61994815D01*
X110149247Y-62375767D02*
X109949247Y-62375767D01*
X109863533Y-62794815D02*
X110149247Y-62794815D01*
X110149247Y-62794815D02*
X110149247Y-61994815D01*
X110149247Y-61994815D02*
X109863533Y-61994815D01*
X109263533Y-62794815D02*
X109463533Y-62413862D01*
X109606390Y-62794815D02*
X109606390Y-61994815D01*
X109606390Y-61994815D02*
X109377819Y-61994815D01*
X109377819Y-61994815D02*
X109320676Y-62032910D01*
X109320676Y-62032910D02*
X109292105Y-62071005D01*
X109292105Y-62071005D02*
X109263533Y-62147196D01*
X109263533Y-62147196D02*
X109263533Y-62261481D01*
X109263533Y-62261481D02*
X109292105Y-62337672D01*
X109292105Y-62337672D02*
X109320676Y-62375767D01*
X109320676Y-62375767D02*
X109377819Y-62413862D01*
X109377819Y-62413862D02*
X109606390Y-62413862D01*
X108577819Y-62756720D02*
X108492105Y-62794815D01*
X108492105Y-62794815D02*
X108349247Y-62794815D01*
X108349247Y-62794815D02*
X108292105Y-62756720D01*
X108292105Y-62756720D02*
X108263533Y-62718624D01*
X108263533Y-62718624D02*
X108234962Y-62642434D01*
X108234962Y-62642434D02*
X108234962Y-62566243D01*
X108234962Y-62566243D02*
X108263533Y-62490053D01*
X108263533Y-62490053D02*
X108292105Y-62451958D01*
X108292105Y-62451958D02*
X108349247Y-62413862D01*
X108349247Y-62413862D02*
X108463533Y-62375767D01*
X108463533Y-62375767D02*
X108520676Y-62337672D01*
X108520676Y-62337672D02*
X108549247Y-62299577D01*
X108549247Y-62299577D02*
X108577819Y-62223386D01*
X108577819Y-62223386D02*
X108577819Y-62147196D01*
X108577819Y-62147196D02*
X108549247Y-62071005D01*
X108549247Y-62071005D02*
X108520676Y-62032910D01*
X108520676Y-62032910D02*
X108463533Y-61994815D01*
X108463533Y-61994815D02*
X108320676Y-61994815D01*
X108320676Y-61994815D02*
X108234962Y-62032910D01*
X107977818Y-62375767D02*
X107777818Y-62375767D01*
X107692104Y-62794815D02*
X107977818Y-62794815D01*
X107977818Y-62794815D02*
X107977818Y-61994815D01*
X107977818Y-61994815D02*
X107692104Y-61994815D01*
X107149247Y-62794815D02*
X107434961Y-62794815D01*
X107434961Y-62794815D02*
X107434961Y-61994815D01*
X112042103Y-96693767D02*
X111842103Y-96693767D01*
X111756389Y-97112815D02*
X112042103Y-97112815D01*
X112042103Y-97112815D02*
X112042103Y-96312815D01*
X112042103Y-96312815D02*
X111756389Y-96312815D01*
X111499246Y-96693767D02*
X111299246Y-96693767D01*
X111213532Y-97112815D02*
X111499246Y-97112815D01*
X111499246Y-97112815D02*
X111499246Y-96312815D01*
X111499246Y-96312815D02*
X111213532Y-96312815D01*
X110956389Y-97112815D02*
X110956389Y-96312815D01*
X110956389Y-96312815D02*
X110727818Y-96312815D01*
X110727818Y-96312815D02*
X110670675Y-96350910D01*
X110670675Y-96350910D02*
X110642104Y-96389005D01*
X110642104Y-96389005D02*
X110613532Y-96465196D01*
X110613532Y-96465196D02*
X110613532Y-96579481D01*
X110613532Y-96579481D02*
X110642104Y-96655672D01*
X110642104Y-96655672D02*
X110670675Y-96693767D01*
X110670675Y-96693767D02*
X110727818Y-96731862D01*
X110727818Y-96731862D02*
X110956389Y-96731862D01*
X110013532Y-97112815D02*
X110213532Y-96731862D01*
X110356389Y-97112815D02*
X110356389Y-96312815D01*
X110356389Y-96312815D02*
X110127818Y-96312815D01*
X110127818Y-96312815D02*
X110070675Y-96350910D01*
X110070675Y-96350910D02*
X110042104Y-96389005D01*
X110042104Y-96389005D02*
X110013532Y-96465196D01*
X110013532Y-96465196D02*
X110013532Y-96579481D01*
X110013532Y-96579481D02*
X110042104Y-96655672D01*
X110042104Y-96655672D02*
X110070675Y-96693767D01*
X110070675Y-96693767D02*
X110127818Y-96731862D01*
X110127818Y-96731862D02*
X110356389Y-96731862D01*
X109642104Y-96312815D02*
X109527818Y-96312815D01*
X109527818Y-96312815D02*
X109470675Y-96350910D01*
X109470675Y-96350910D02*
X109413532Y-96427100D01*
X109413532Y-96427100D02*
X109384961Y-96579481D01*
X109384961Y-96579481D02*
X109384961Y-96846148D01*
X109384961Y-96846148D02*
X109413532Y-96998529D01*
X109413532Y-96998529D02*
X109470675Y-97074720D01*
X109470675Y-97074720D02*
X109527818Y-97112815D01*
X109527818Y-97112815D02*
X109642104Y-97112815D01*
X109642104Y-97112815D02*
X109699247Y-97074720D01*
X109699247Y-97074720D02*
X109756389Y-96998529D01*
X109756389Y-96998529D02*
X109784961Y-96846148D01*
X109784961Y-96846148D02*
X109784961Y-96579481D01*
X109784961Y-96579481D02*
X109756389Y-96427100D01*
X109756389Y-96427100D02*
X109699247Y-96350910D01*
X109699247Y-96350910D02*
X109642104Y-96312815D01*
X109127818Y-97112815D02*
X109127818Y-96312815D01*
X109127818Y-96312815D02*
X108927818Y-96884243D01*
X108927818Y-96884243D02*
X108727818Y-96312815D01*
X108727818Y-96312815D02*
X108727818Y-97112815D01*
X108042104Y-96312815D02*
X107899247Y-97112815D01*
X107899247Y-97112815D02*
X107784961Y-96541386D01*
X107784961Y-96541386D02*
X107670676Y-97112815D01*
X107670676Y-97112815D02*
X107527819Y-96312815D01*
X107299247Y-97112815D02*
X107299247Y-96312815D01*
X107299247Y-96312815D02*
X107070676Y-96312815D01*
X107070676Y-96312815D02*
X107013533Y-96350910D01*
X107013533Y-96350910D02*
X106984962Y-96389005D01*
X106984962Y-96389005D02*
X106956390Y-96465196D01*
X106956390Y-96465196D02*
X106956390Y-96579481D01*
X106956390Y-96579481D02*
X106984962Y-96655672D01*
X106984962Y-96655672D02*
X107013533Y-96693767D01*
X107013533Y-96693767D02*
X107070676Y-96731862D01*
X107070676Y-96731862D02*
X107299247Y-96731862D01*
X136793609Y-40792720D02*
X136707895Y-40830815D01*
X136707895Y-40830815D02*
X136565037Y-40830815D01*
X136565037Y-40830815D02*
X136507895Y-40792720D01*
X136507895Y-40792720D02*
X136479323Y-40754624D01*
X136479323Y-40754624D02*
X136450752Y-40678434D01*
X136450752Y-40678434D02*
X136450752Y-40602243D01*
X136450752Y-40602243D02*
X136479323Y-40526053D01*
X136479323Y-40526053D02*
X136507895Y-40487958D01*
X136507895Y-40487958D02*
X136565037Y-40449862D01*
X136565037Y-40449862D02*
X136679323Y-40411767D01*
X136679323Y-40411767D02*
X136736466Y-40373672D01*
X136736466Y-40373672D02*
X136765037Y-40335577D01*
X136765037Y-40335577D02*
X136793609Y-40259386D01*
X136793609Y-40259386D02*
X136793609Y-40183196D01*
X136793609Y-40183196D02*
X136765037Y-40107005D01*
X136765037Y-40107005D02*
X136736466Y-40068910D01*
X136736466Y-40068910D02*
X136679323Y-40030815D01*
X136679323Y-40030815D02*
X136536466Y-40030815D01*
X136536466Y-40030815D02*
X136450752Y-40068910D01*
X136193608Y-40830815D02*
X136193608Y-40030815D01*
X135907894Y-40830815D02*
X135907894Y-40030815D01*
X135907894Y-40030815D02*
X135565037Y-40830815D01*
X135565037Y-40830815D02*
X135565037Y-40030815D01*
X134965038Y-40068910D02*
X135022181Y-40030815D01*
X135022181Y-40030815D02*
X135107895Y-40030815D01*
X135107895Y-40030815D02*
X135193609Y-40068910D01*
X135193609Y-40068910D02*
X135250752Y-40145100D01*
X135250752Y-40145100D02*
X135279323Y-40221291D01*
X135279323Y-40221291D02*
X135307895Y-40373672D01*
X135307895Y-40373672D02*
X135307895Y-40487958D01*
X135307895Y-40487958D02*
X135279323Y-40640339D01*
X135279323Y-40640339D02*
X135250752Y-40716529D01*
X135250752Y-40716529D02*
X135193609Y-40792720D01*
X135193609Y-40792720D02*
X135107895Y-40830815D01*
X135107895Y-40830815D02*
X135050752Y-40830815D01*
X135050752Y-40830815D02*
X134965038Y-40792720D01*
X134965038Y-40792720D02*
X134936466Y-40754624D01*
X134936466Y-40754624D02*
X134936466Y-40487958D01*
X134936466Y-40487958D02*
X135050752Y-40487958D01*
X134393609Y-40830815D02*
X134679323Y-40830815D01*
X134679323Y-40830815D02*
X134679323Y-40030815D01*
X134193609Y-40411767D02*
X133993609Y-40411767D01*
X133907895Y-40830815D02*
X134193609Y-40830815D01*
X134193609Y-40830815D02*
X134193609Y-40030815D01*
X134193609Y-40030815D02*
X133907895Y-40030815D01*
X133193609Y-40830815D02*
X133193609Y-40030815D01*
X133193609Y-40030815D02*
X132965038Y-40030815D01*
X132965038Y-40030815D02*
X132907895Y-40068910D01*
X132907895Y-40068910D02*
X132879324Y-40107005D01*
X132879324Y-40107005D02*
X132850752Y-40183196D01*
X132850752Y-40183196D02*
X132850752Y-40297481D01*
X132850752Y-40297481D02*
X132879324Y-40373672D01*
X132879324Y-40373672D02*
X132907895Y-40411767D01*
X132907895Y-40411767D02*
X132965038Y-40449862D01*
X132965038Y-40449862D02*
X133193609Y-40449862D01*
X132622181Y-40602243D02*
X132336467Y-40602243D01*
X132679324Y-40830815D02*
X132479324Y-40030815D01*
X132479324Y-40030815D02*
X132279324Y-40830815D01*
X132079323Y-40830815D02*
X132079323Y-40030815D01*
X131450752Y-40830815D02*
X131650752Y-40449862D01*
X131793609Y-40830815D02*
X131793609Y-40030815D01*
X131793609Y-40030815D02*
X131565038Y-40030815D01*
X131565038Y-40030815D02*
X131507895Y-40068910D01*
X131507895Y-40068910D02*
X131479324Y-40107005D01*
X131479324Y-40107005D02*
X131450752Y-40183196D01*
X131450752Y-40183196D02*
X131450752Y-40297481D01*
X131450752Y-40297481D02*
X131479324Y-40373672D01*
X131479324Y-40373672D02*
X131507895Y-40411767D01*
X131507895Y-40411767D02*
X131565038Y-40449862D01*
X131565038Y-40449862D02*
X131793609Y-40449862D01*
X130736466Y-40411767D02*
X130536466Y-40411767D01*
X130450752Y-40830815D02*
X130736466Y-40830815D01*
X130736466Y-40830815D02*
X130736466Y-40030815D01*
X130736466Y-40030815D02*
X130450752Y-40030815D01*
X130279324Y-40030815D02*
X129936467Y-40030815D01*
X130107895Y-40830815D02*
X130107895Y-40030815D01*
X129736466Y-40830815D02*
X129736466Y-40030815D01*
X129736466Y-40411767D02*
X129393609Y-40411767D01*
X129393609Y-40830815D02*
X129393609Y-40030815D01*
X129107895Y-40411767D02*
X128907895Y-40411767D01*
X128822181Y-40830815D02*
X129107895Y-40830815D01*
X129107895Y-40830815D02*
X129107895Y-40030815D01*
X129107895Y-40030815D02*
X128822181Y-40030815D01*
X128222181Y-40830815D02*
X128422181Y-40449862D01*
X128565038Y-40830815D02*
X128565038Y-40030815D01*
X128565038Y-40030815D02*
X128336467Y-40030815D01*
X128336467Y-40030815D02*
X128279324Y-40068910D01*
X128279324Y-40068910D02*
X128250753Y-40107005D01*
X128250753Y-40107005D02*
X128222181Y-40183196D01*
X128222181Y-40183196D02*
X128222181Y-40297481D01*
X128222181Y-40297481D02*
X128250753Y-40373672D01*
X128250753Y-40373672D02*
X128279324Y-40411767D01*
X128279324Y-40411767D02*
X128336467Y-40449862D01*
X128336467Y-40449862D02*
X128565038Y-40449862D01*
X127965038Y-40830815D02*
X127965038Y-40030815D01*
X127965038Y-40030815D02*
X127622181Y-40830815D01*
X127622181Y-40830815D02*
X127622181Y-40030815D01*
X127336467Y-40411767D02*
X127136467Y-40411767D01*
X127050753Y-40830815D02*
X127336467Y-40830815D01*
X127336467Y-40830815D02*
X127336467Y-40030815D01*
X127336467Y-40030815D02*
X127050753Y-40030815D01*
X126879325Y-40030815D02*
X126536468Y-40030815D01*
X126707896Y-40830815D02*
X126707896Y-40030815D01*
X125879324Y-40830815D02*
X125879324Y-40030815D01*
X125879324Y-40030815D02*
X125650753Y-40030815D01*
X125650753Y-40030815D02*
X125593610Y-40068910D01*
X125593610Y-40068910D02*
X125565039Y-40107005D01*
X125565039Y-40107005D02*
X125536467Y-40183196D01*
X125536467Y-40183196D02*
X125536467Y-40297481D01*
X125536467Y-40297481D02*
X125565039Y-40373672D01*
X125565039Y-40373672D02*
X125593610Y-40411767D01*
X125593610Y-40411767D02*
X125650753Y-40449862D01*
X125650753Y-40449862D02*
X125879324Y-40449862D01*
X125307896Y-40792720D02*
X125222182Y-40830815D01*
X125222182Y-40830815D02*
X125079324Y-40830815D01*
X125079324Y-40830815D02*
X125022182Y-40792720D01*
X125022182Y-40792720D02*
X124993610Y-40754624D01*
X124993610Y-40754624D02*
X124965039Y-40678434D01*
X124965039Y-40678434D02*
X124965039Y-40602243D01*
X124965039Y-40602243D02*
X124993610Y-40526053D01*
X124993610Y-40526053D02*
X125022182Y-40487958D01*
X125022182Y-40487958D02*
X125079324Y-40449862D01*
X125079324Y-40449862D02*
X125193610Y-40411767D01*
X125193610Y-40411767D02*
X125250753Y-40373672D01*
X125250753Y-40373672D02*
X125279324Y-40335577D01*
X125279324Y-40335577D02*
X125307896Y-40259386D01*
X125307896Y-40259386D02*
X125307896Y-40183196D01*
X125307896Y-40183196D02*
X125279324Y-40107005D01*
X125279324Y-40107005D02*
X125250753Y-40068910D01*
X125250753Y-40068910D02*
X125193610Y-40030815D01*
X125193610Y-40030815D02*
X125050753Y-40030815D01*
X125050753Y-40030815D02*
X124965039Y-40068910D01*
X124707895Y-40411767D02*
X124507895Y-40411767D01*
X124422181Y-40830815D02*
X124707895Y-40830815D01*
X124707895Y-40830815D02*
X124707895Y-40030815D01*
X124707895Y-40030815D02*
X124422181Y-40030815D01*
X136765037Y-42118815D02*
X136765037Y-41318815D01*
X136765037Y-41318815D02*
X136565037Y-41890243D01*
X136565037Y-41890243D02*
X136365037Y-41318815D01*
X136365037Y-41318815D02*
X136365037Y-42118815D01*
X136079323Y-42118815D02*
X136079323Y-41318815D01*
X135450752Y-42042624D02*
X135479324Y-42080720D01*
X135479324Y-42080720D02*
X135565038Y-42118815D01*
X135565038Y-42118815D02*
X135622181Y-42118815D01*
X135622181Y-42118815D02*
X135707895Y-42080720D01*
X135707895Y-42080720D02*
X135765038Y-42004529D01*
X135765038Y-42004529D02*
X135793609Y-41928339D01*
X135793609Y-41928339D02*
X135822181Y-41775958D01*
X135822181Y-41775958D02*
X135822181Y-41661672D01*
X135822181Y-41661672D02*
X135793609Y-41509291D01*
X135793609Y-41509291D02*
X135765038Y-41433100D01*
X135765038Y-41433100D02*
X135707895Y-41356910D01*
X135707895Y-41356910D02*
X135622181Y-41318815D01*
X135622181Y-41318815D02*
X135565038Y-41318815D01*
X135565038Y-41318815D02*
X135479324Y-41356910D01*
X135479324Y-41356910D02*
X135450752Y-41395005D01*
X134850752Y-42118815D02*
X135050752Y-41737862D01*
X135193609Y-42118815D02*
X135193609Y-41318815D01*
X135193609Y-41318815D02*
X134965038Y-41318815D01*
X134965038Y-41318815D02*
X134907895Y-41356910D01*
X134907895Y-41356910D02*
X134879324Y-41395005D01*
X134879324Y-41395005D02*
X134850752Y-41471196D01*
X134850752Y-41471196D02*
X134850752Y-41585481D01*
X134850752Y-41585481D02*
X134879324Y-41661672D01*
X134879324Y-41661672D02*
X134907895Y-41699767D01*
X134907895Y-41699767D02*
X134965038Y-41737862D01*
X134965038Y-41737862D02*
X135193609Y-41737862D01*
X134479324Y-41318815D02*
X134365038Y-41318815D01*
X134365038Y-41318815D02*
X134307895Y-41356910D01*
X134307895Y-41356910D02*
X134250752Y-41433100D01*
X134250752Y-41433100D02*
X134222181Y-41585481D01*
X134222181Y-41585481D02*
X134222181Y-41852148D01*
X134222181Y-41852148D02*
X134250752Y-42004529D01*
X134250752Y-42004529D02*
X134307895Y-42080720D01*
X134307895Y-42080720D02*
X134365038Y-42118815D01*
X134365038Y-42118815D02*
X134479324Y-42118815D01*
X134479324Y-42118815D02*
X134536467Y-42080720D01*
X134536467Y-42080720D02*
X134593609Y-42004529D01*
X134593609Y-42004529D02*
X134622181Y-41852148D01*
X134622181Y-41852148D02*
X134622181Y-41585481D01*
X134622181Y-41585481D02*
X134593609Y-41433100D01*
X134593609Y-41433100D02*
X134536467Y-41356910D01*
X134536467Y-41356910D02*
X134479324Y-41318815D01*
X133965038Y-42118815D02*
X133965038Y-41318815D01*
X133965038Y-41318815D02*
X133765038Y-41890243D01*
X133765038Y-41890243D02*
X133565038Y-41318815D01*
X133565038Y-41318815D02*
X133565038Y-42118815D01*
X133165039Y-41318815D02*
X133050753Y-41318815D01*
X133050753Y-41318815D02*
X132993610Y-41356910D01*
X132993610Y-41356910D02*
X132936467Y-41433100D01*
X132936467Y-41433100D02*
X132907896Y-41585481D01*
X132907896Y-41585481D02*
X132907896Y-41852148D01*
X132907896Y-41852148D02*
X132936467Y-42004529D01*
X132936467Y-42004529D02*
X132993610Y-42080720D01*
X132993610Y-42080720D02*
X133050753Y-42118815D01*
X133050753Y-42118815D02*
X133165039Y-42118815D01*
X133165039Y-42118815D02*
X133222182Y-42080720D01*
X133222182Y-42080720D02*
X133279324Y-42004529D01*
X133279324Y-42004529D02*
X133307896Y-41852148D01*
X133307896Y-41852148D02*
X133307896Y-41585481D01*
X133307896Y-41585481D02*
X133279324Y-41433100D01*
X133279324Y-41433100D02*
X133222182Y-41356910D01*
X133222182Y-41356910D02*
X133165039Y-41318815D01*
X132650753Y-42118815D02*
X132650753Y-41318815D01*
X132650753Y-41318815D02*
X132507896Y-41318815D01*
X132507896Y-41318815D02*
X132422182Y-41356910D01*
X132422182Y-41356910D02*
X132365039Y-41433100D01*
X132365039Y-41433100D02*
X132336468Y-41509291D01*
X132336468Y-41509291D02*
X132307896Y-41661672D01*
X132307896Y-41661672D02*
X132307896Y-41775958D01*
X132307896Y-41775958D02*
X132336468Y-41928339D01*
X132336468Y-41928339D02*
X132365039Y-42004529D01*
X132365039Y-42004529D02*
X132422182Y-42080720D01*
X132422182Y-42080720D02*
X132507896Y-42118815D01*
X132507896Y-42118815D02*
X132650753Y-42118815D01*
X131393610Y-41699767D02*
X131593610Y-41699767D01*
X131593610Y-42118815D02*
X131593610Y-41318815D01*
X131593610Y-41318815D02*
X131307896Y-41318815D01*
X131079324Y-41318815D02*
X131079324Y-41966434D01*
X131079324Y-41966434D02*
X131050753Y-42042624D01*
X131050753Y-42042624D02*
X131022182Y-42080720D01*
X131022182Y-42080720D02*
X130965039Y-42118815D01*
X130965039Y-42118815D02*
X130850753Y-42118815D01*
X130850753Y-42118815D02*
X130793610Y-42080720D01*
X130793610Y-42080720D02*
X130765039Y-42042624D01*
X130765039Y-42042624D02*
X130736467Y-41966434D01*
X130736467Y-41966434D02*
X130736467Y-41318815D01*
X130450753Y-42118815D02*
X130450753Y-41318815D01*
X130450753Y-41318815D02*
X130107896Y-42118815D01*
X130107896Y-42118815D02*
X130107896Y-41318815D01*
X129479325Y-42042624D02*
X129507897Y-42080720D01*
X129507897Y-42080720D02*
X129593611Y-42118815D01*
X129593611Y-42118815D02*
X129650754Y-42118815D01*
X129650754Y-42118815D02*
X129736468Y-42080720D01*
X129736468Y-42080720D02*
X129793611Y-42004529D01*
X129793611Y-42004529D02*
X129822182Y-41928339D01*
X129822182Y-41928339D02*
X129850754Y-41775958D01*
X129850754Y-41775958D02*
X129850754Y-41661672D01*
X129850754Y-41661672D02*
X129822182Y-41509291D01*
X129822182Y-41509291D02*
X129793611Y-41433100D01*
X129793611Y-41433100D02*
X129736468Y-41356910D01*
X129736468Y-41356910D02*
X129650754Y-41318815D01*
X129650754Y-41318815D02*
X129593611Y-41318815D01*
X129593611Y-41318815D02*
X129507897Y-41356910D01*
X129507897Y-41356910D02*
X129479325Y-41395005D01*
X129307897Y-41318815D02*
X128965040Y-41318815D01*
X129136468Y-42118815D02*
X129136468Y-41318815D01*
X128765039Y-42118815D02*
X128765039Y-41318815D01*
X128365040Y-41318815D02*
X128250754Y-41318815D01*
X128250754Y-41318815D02*
X128193611Y-41356910D01*
X128193611Y-41356910D02*
X128136468Y-41433100D01*
X128136468Y-41433100D02*
X128107897Y-41585481D01*
X128107897Y-41585481D02*
X128107897Y-41852148D01*
X128107897Y-41852148D02*
X128136468Y-42004529D01*
X128136468Y-42004529D02*
X128193611Y-42080720D01*
X128193611Y-42080720D02*
X128250754Y-42118815D01*
X128250754Y-42118815D02*
X128365040Y-42118815D01*
X128365040Y-42118815D02*
X128422183Y-42080720D01*
X128422183Y-42080720D02*
X128479325Y-42004529D01*
X128479325Y-42004529D02*
X128507897Y-41852148D01*
X128507897Y-41852148D02*
X128507897Y-41585481D01*
X128507897Y-41585481D02*
X128479325Y-41433100D01*
X128479325Y-41433100D02*
X128422183Y-41356910D01*
X128422183Y-41356910D02*
X128365040Y-41318815D01*
X127850754Y-42118815D02*
X127850754Y-41318815D01*
X127850754Y-41318815D02*
X127507897Y-42118815D01*
X127507897Y-42118815D02*
X127507897Y-41318815D01*
X126565040Y-41699767D02*
X126479326Y-41737862D01*
X126479326Y-41737862D02*
X126450755Y-41775958D01*
X126450755Y-41775958D02*
X126422183Y-41852148D01*
X126422183Y-41852148D02*
X126422183Y-41966434D01*
X126422183Y-41966434D02*
X126450755Y-42042624D01*
X126450755Y-42042624D02*
X126479326Y-42080720D01*
X126479326Y-42080720D02*
X126536469Y-42118815D01*
X126536469Y-42118815D02*
X126765040Y-42118815D01*
X126765040Y-42118815D02*
X126765040Y-41318815D01*
X126765040Y-41318815D02*
X126565040Y-41318815D01*
X126565040Y-41318815D02*
X126507898Y-41356910D01*
X126507898Y-41356910D02*
X126479326Y-41395005D01*
X126479326Y-41395005D02*
X126450755Y-41471196D01*
X126450755Y-41471196D02*
X126450755Y-41547386D01*
X126450755Y-41547386D02*
X126479326Y-41623577D01*
X126479326Y-41623577D02*
X126507898Y-41661672D01*
X126507898Y-41661672D02*
X126565040Y-41699767D01*
X126565040Y-41699767D02*
X126765040Y-41699767D01*
X126050755Y-41318815D02*
X125936469Y-41318815D01*
X125936469Y-41318815D02*
X125879326Y-41356910D01*
X125879326Y-41356910D02*
X125822183Y-41433100D01*
X125822183Y-41433100D02*
X125793612Y-41585481D01*
X125793612Y-41585481D02*
X125793612Y-41852148D01*
X125793612Y-41852148D02*
X125822183Y-42004529D01*
X125822183Y-42004529D02*
X125879326Y-42080720D01*
X125879326Y-42080720D02*
X125936469Y-42118815D01*
X125936469Y-42118815D02*
X126050755Y-42118815D01*
X126050755Y-42118815D02*
X126107898Y-42080720D01*
X126107898Y-42080720D02*
X126165040Y-42004529D01*
X126165040Y-42004529D02*
X126193612Y-41852148D01*
X126193612Y-41852148D02*
X126193612Y-41585481D01*
X126193612Y-41585481D02*
X126165040Y-41433100D01*
X126165040Y-41433100D02*
X126107898Y-41356910D01*
X126107898Y-41356910D02*
X126050755Y-41318815D01*
X125565041Y-41890243D02*
X125279327Y-41890243D01*
X125622184Y-42118815D02*
X125422184Y-41318815D01*
X125422184Y-41318815D02*
X125222184Y-42118815D01*
X124679326Y-42118815D02*
X124879326Y-41737862D01*
X125022183Y-42118815D02*
X125022183Y-41318815D01*
X125022183Y-41318815D02*
X124793612Y-41318815D01*
X124793612Y-41318815D02*
X124736469Y-41356910D01*
X124736469Y-41356910D02*
X124707898Y-41395005D01*
X124707898Y-41395005D02*
X124679326Y-41471196D01*
X124679326Y-41471196D02*
X124679326Y-41585481D01*
X124679326Y-41585481D02*
X124707898Y-41661672D01*
X124707898Y-41661672D02*
X124736469Y-41699767D01*
X124736469Y-41699767D02*
X124793612Y-41737862D01*
X124793612Y-41737862D02*
X125022183Y-41737862D01*
X124422183Y-42118815D02*
X124422183Y-41318815D01*
X124422183Y-41318815D02*
X124279326Y-41318815D01*
X124279326Y-41318815D02*
X124193612Y-41356910D01*
X124193612Y-41356910D02*
X124136469Y-41433100D01*
X124136469Y-41433100D02*
X124107898Y-41509291D01*
X124107898Y-41509291D02*
X124079326Y-41661672D01*
X124079326Y-41661672D02*
X124079326Y-41775958D01*
X124079326Y-41775958D02*
X124107898Y-41928339D01*
X124107898Y-41928339D02*
X124136469Y-42004529D01*
X124136469Y-42004529D02*
X124193612Y-42080720D01*
X124193612Y-42080720D02*
X124279326Y-42118815D01*
X124279326Y-42118815D02*
X124422183Y-42118815D01*
X136765037Y-44694815D02*
X136765037Y-43894815D01*
X136765037Y-43894815D02*
X136536466Y-43894815D01*
X136536466Y-43894815D02*
X136479323Y-43932910D01*
X136479323Y-43932910D02*
X136450752Y-43971005D01*
X136450752Y-43971005D02*
X136422180Y-44047196D01*
X136422180Y-44047196D02*
X136422180Y-44161481D01*
X136422180Y-44161481D02*
X136450752Y-44237672D01*
X136450752Y-44237672D02*
X136479323Y-44275767D01*
X136479323Y-44275767D02*
X136536466Y-44313862D01*
X136536466Y-44313862D02*
X136765037Y-44313862D01*
X136079323Y-44694815D02*
X136136466Y-44656720D01*
X136136466Y-44656720D02*
X136165037Y-44618624D01*
X136165037Y-44618624D02*
X136193609Y-44542434D01*
X136193609Y-44542434D02*
X136193609Y-44313862D01*
X136193609Y-44313862D02*
X136165037Y-44237672D01*
X136165037Y-44237672D02*
X136136466Y-44199577D01*
X136136466Y-44199577D02*
X136079323Y-44161481D01*
X136079323Y-44161481D02*
X135993609Y-44161481D01*
X135993609Y-44161481D02*
X135936466Y-44199577D01*
X135936466Y-44199577D02*
X135907895Y-44237672D01*
X135907895Y-44237672D02*
X135879323Y-44313862D01*
X135879323Y-44313862D02*
X135879323Y-44542434D01*
X135879323Y-44542434D02*
X135907895Y-44618624D01*
X135907895Y-44618624D02*
X135936466Y-44656720D01*
X135936466Y-44656720D02*
X135993609Y-44694815D01*
X135993609Y-44694815D02*
X136079323Y-44694815D01*
X135622180Y-44694815D02*
X135622180Y-43894815D01*
X135622180Y-43894815D02*
X135479323Y-43894815D01*
X135479323Y-43894815D02*
X135393609Y-43932910D01*
X135393609Y-43932910D02*
X135336466Y-44009100D01*
X135336466Y-44009100D02*
X135307895Y-44085291D01*
X135307895Y-44085291D02*
X135279323Y-44237672D01*
X135279323Y-44237672D02*
X135279323Y-44351958D01*
X135279323Y-44351958D02*
X135307895Y-44504339D01*
X135307895Y-44504339D02*
X135336466Y-44580529D01*
X135336466Y-44580529D02*
X135393609Y-44656720D01*
X135393609Y-44656720D02*
X135479323Y-44694815D01*
X135479323Y-44694815D02*
X135622180Y-44694815D01*
X134736466Y-44694815D02*
X135022180Y-44694815D01*
X135022180Y-44694815D02*
X135022180Y-43894815D01*
X133736466Y-44618624D02*
X133765038Y-44656720D01*
X133765038Y-44656720D02*
X133850752Y-44694815D01*
X133850752Y-44694815D02*
X133907895Y-44694815D01*
X133907895Y-44694815D02*
X133993609Y-44656720D01*
X133993609Y-44656720D02*
X134050752Y-44580529D01*
X134050752Y-44580529D02*
X134079323Y-44504339D01*
X134079323Y-44504339D02*
X134107895Y-44351958D01*
X134107895Y-44351958D02*
X134107895Y-44237672D01*
X134107895Y-44237672D02*
X134079323Y-44085291D01*
X134079323Y-44085291D02*
X134050752Y-44009100D01*
X134050752Y-44009100D02*
X133993609Y-43932910D01*
X133993609Y-43932910D02*
X133907895Y-43894815D01*
X133907895Y-43894815D02*
X133850752Y-43894815D01*
X133850752Y-43894815D02*
X133765038Y-43932910D01*
X133765038Y-43932910D02*
X133736466Y-43971005D01*
X133193609Y-44694815D02*
X133479323Y-44694815D01*
X133479323Y-44694815D02*
X133479323Y-43894815D01*
X133022181Y-44466243D02*
X132736467Y-44466243D01*
X133079324Y-44694815D02*
X132879324Y-43894815D01*
X132879324Y-43894815D02*
X132679324Y-44694815D01*
X132507895Y-44656720D02*
X132422181Y-44694815D01*
X132422181Y-44694815D02*
X132279323Y-44694815D01*
X132279323Y-44694815D02*
X132222181Y-44656720D01*
X132222181Y-44656720D02*
X132193609Y-44618624D01*
X132193609Y-44618624D02*
X132165038Y-44542434D01*
X132165038Y-44542434D02*
X132165038Y-44466243D01*
X132165038Y-44466243D02*
X132193609Y-44390053D01*
X132193609Y-44390053D02*
X132222181Y-44351958D01*
X132222181Y-44351958D02*
X132279323Y-44313862D01*
X132279323Y-44313862D02*
X132393609Y-44275767D01*
X132393609Y-44275767D02*
X132450752Y-44237672D01*
X132450752Y-44237672D02*
X132479323Y-44199577D01*
X132479323Y-44199577D02*
X132507895Y-44123386D01*
X132507895Y-44123386D02*
X132507895Y-44047196D01*
X132507895Y-44047196D02*
X132479323Y-43971005D01*
X132479323Y-43971005D02*
X132450752Y-43932910D01*
X132450752Y-43932910D02*
X132393609Y-43894815D01*
X132393609Y-43894815D02*
X132250752Y-43894815D01*
X132250752Y-43894815D02*
X132165038Y-43932910D01*
X131936466Y-44656720D02*
X131850752Y-44694815D01*
X131850752Y-44694815D02*
X131707894Y-44694815D01*
X131707894Y-44694815D02*
X131650752Y-44656720D01*
X131650752Y-44656720D02*
X131622180Y-44618624D01*
X131622180Y-44618624D02*
X131593609Y-44542434D01*
X131593609Y-44542434D02*
X131593609Y-44466243D01*
X131593609Y-44466243D02*
X131622180Y-44390053D01*
X131622180Y-44390053D02*
X131650752Y-44351958D01*
X131650752Y-44351958D02*
X131707894Y-44313862D01*
X131707894Y-44313862D02*
X131822180Y-44275767D01*
X131822180Y-44275767D02*
X131879323Y-44237672D01*
X131879323Y-44237672D02*
X131907894Y-44199577D01*
X131907894Y-44199577D02*
X131936466Y-44123386D01*
X131936466Y-44123386D02*
X131936466Y-44047196D01*
X131936466Y-44047196D02*
X131907894Y-43971005D01*
X131907894Y-43971005D02*
X131879323Y-43932910D01*
X131879323Y-43932910D02*
X131822180Y-43894815D01*
X131822180Y-43894815D02*
X131679323Y-43894815D01*
X131679323Y-43894815D02*
X131593609Y-43932910D01*
X130565037Y-44694815D02*
X130907894Y-44694815D01*
X130736465Y-44694815D02*
X130736465Y-43894815D01*
X130736465Y-43894815D02*
X130793608Y-44009100D01*
X130793608Y-44009100D02*
X130850751Y-44085291D01*
X130850751Y-44085291D02*
X130907894Y-44123386D01*
X130193608Y-43894815D02*
X130136465Y-43894815D01*
X130136465Y-43894815D02*
X130079322Y-43932910D01*
X130079322Y-43932910D02*
X130050751Y-43971005D01*
X130050751Y-43971005D02*
X130022179Y-44047196D01*
X130022179Y-44047196D02*
X129993608Y-44199577D01*
X129993608Y-44199577D02*
X129993608Y-44390053D01*
X129993608Y-44390053D02*
X130022179Y-44542434D01*
X130022179Y-44542434D02*
X130050751Y-44618624D01*
X130050751Y-44618624D02*
X130079322Y-44656720D01*
X130079322Y-44656720D02*
X130136465Y-44694815D01*
X130136465Y-44694815D02*
X130193608Y-44694815D01*
X130193608Y-44694815D02*
X130250751Y-44656720D01*
X130250751Y-44656720D02*
X130279322Y-44618624D01*
X130279322Y-44618624D02*
X130307893Y-44542434D01*
X130307893Y-44542434D02*
X130336465Y-44390053D01*
X130336465Y-44390053D02*
X130336465Y-44199577D01*
X130336465Y-44199577D02*
X130307893Y-44047196D01*
X130307893Y-44047196D02*
X130279322Y-43971005D01*
X130279322Y-43971005D02*
X130250751Y-43932910D01*
X130250751Y-43932910D02*
X130193608Y-43894815D01*
X129593607Y-44961481D02*
X129593607Y-43818624D01*
X128850750Y-44694815D02*
X129193607Y-44694815D01*
X129022178Y-44694815D02*
X129022178Y-43894815D01*
X129022178Y-43894815D02*
X129079321Y-44009100D01*
X129079321Y-44009100D02*
X129136464Y-44085291D01*
X129136464Y-44085291D02*
X129193607Y-44123386D01*
X128279321Y-44694815D02*
X128622178Y-44694815D01*
X128450749Y-44694815D02*
X128450749Y-43894815D01*
X128450749Y-43894815D02*
X128507892Y-44009100D01*
X128507892Y-44009100D02*
X128565035Y-44085291D01*
X128565035Y-44085291D02*
X128622178Y-44123386D01*
X127879320Y-44961481D02*
X127879320Y-43818624D01*
X127136463Y-44694815D02*
X127479320Y-44694815D01*
X127307891Y-44694815D02*
X127307891Y-43894815D01*
X127307891Y-43894815D02*
X127365034Y-44009100D01*
X127365034Y-44009100D02*
X127422177Y-44085291D01*
X127422177Y-44085291D02*
X127479320Y-44123386D01*
X126907891Y-43971005D02*
X126879319Y-43932910D01*
X126879319Y-43932910D02*
X126822177Y-43894815D01*
X126822177Y-43894815D02*
X126679319Y-43894815D01*
X126679319Y-43894815D02*
X126622177Y-43932910D01*
X126622177Y-43932910D02*
X126593605Y-43971005D01*
X126593605Y-43971005D02*
X126565034Y-44047196D01*
X126565034Y-44047196D02*
X126565034Y-44123386D01*
X126565034Y-44123386D02*
X126593605Y-44237672D01*
X126593605Y-44237672D02*
X126936462Y-44694815D01*
X126936462Y-44694815D02*
X126565034Y-44694815D01*
X105999248Y-87562815D02*
X106284962Y-87562815D01*
X106284962Y-87562815D02*
X106313534Y-87943767D01*
X106313534Y-87943767D02*
X106284962Y-87905672D01*
X106284962Y-87905672D02*
X106227820Y-87867577D01*
X106227820Y-87867577D02*
X106084962Y-87867577D01*
X106084962Y-87867577D02*
X106027820Y-87905672D01*
X106027820Y-87905672D02*
X105999248Y-87943767D01*
X105999248Y-87943767D02*
X105970677Y-88019958D01*
X105970677Y-88019958D02*
X105970677Y-88210434D01*
X105970677Y-88210434D02*
X105999248Y-88286624D01*
X105999248Y-88286624D02*
X106027820Y-88324720D01*
X106027820Y-88324720D02*
X106084962Y-88362815D01*
X106084962Y-88362815D02*
X106227820Y-88362815D01*
X106227820Y-88362815D02*
X106284962Y-88324720D01*
X106284962Y-88324720D02*
X106313534Y-88286624D01*
X105799248Y-87562815D02*
X105599248Y-88362815D01*
X105599248Y-88362815D02*
X105399248Y-87562815D01*
X124927820Y-76324720D02*
X124842106Y-76362815D01*
X124842106Y-76362815D02*
X124699248Y-76362815D01*
X124699248Y-76362815D02*
X124642106Y-76324720D01*
X124642106Y-76324720D02*
X124613534Y-76286624D01*
X124613534Y-76286624D02*
X124584963Y-76210434D01*
X124584963Y-76210434D02*
X124584963Y-76134243D01*
X124584963Y-76134243D02*
X124613534Y-76058053D01*
X124613534Y-76058053D02*
X124642106Y-76019958D01*
X124642106Y-76019958D02*
X124699248Y-75981862D01*
X124699248Y-75981862D02*
X124813534Y-75943767D01*
X124813534Y-75943767D02*
X124870677Y-75905672D01*
X124870677Y-75905672D02*
X124899248Y-75867577D01*
X124899248Y-75867577D02*
X124927820Y-75791386D01*
X124927820Y-75791386D02*
X124927820Y-75715196D01*
X124927820Y-75715196D02*
X124899248Y-75639005D01*
X124899248Y-75639005D02*
X124870677Y-75600910D01*
X124870677Y-75600910D02*
X124813534Y-75562815D01*
X124813534Y-75562815D02*
X124670677Y-75562815D01*
X124670677Y-75562815D02*
X124584963Y-75600910D01*
X124327819Y-76362815D02*
X124327819Y-75562815D01*
X124327819Y-75562815D02*
X124099248Y-75562815D01*
X124099248Y-75562815D02*
X124042105Y-75600910D01*
X124042105Y-75600910D02*
X124013534Y-75639005D01*
X124013534Y-75639005D02*
X123984962Y-75715196D01*
X123984962Y-75715196D02*
X123984962Y-75829481D01*
X123984962Y-75829481D02*
X124013534Y-75905672D01*
X124013534Y-75905672D02*
X124042105Y-75943767D01*
X124042105Y-75943767D02*
X124099248Y-75981862D01*
X124099248Y-75981862D02*
X124327819Y-75981862D01*
X123727819Y-76362815D02*
X123727819Y-75562815D01*
X122642105Y-76286624D02*
X122670677Y-76324720D01*
X122670677Y-76324720D02*
X122756391Y-76362815D01*
X122756391Y-76362815D02*
X122813534Y-76362815D01*
X122813534Y-76362815D02*
X122899248Y-76324720D01*
X122899248Y-76324720D02*
X122956391Y-76248529D01*
X122956391Y-76248529D02*
X122984962Y-76172339D01*
X122984962Y-76172339D02*
X123013534Y-76019958D01*
X123013534Y-76019958D02*
X123013534Y-75905672D01*
X123013534Y-75905672D02*
X122984962Y-75753291D01*
X122984962Y-75753291D02*
X122956391Y-75677100D01*
X122956391Y-75677100D02*
X122899248Y-75600910D01*
X122899248Y-75600910D02*
X122813534Y-75562815D01*
X122813534Y-75562815D02*
X122756391Y-75562815D01*
X122756391Y-75562815D02*
X122670677Y-75600910D01*
X122670677Y-75600910D02*
X122642105Y-75639005D01*
X122184962Y-75943767D02*
X122384962Y-75943767D01*
X122384962Y-76362815D02*
X122384962Y-75562815D01*
X122384962Y-75562815D02*
X122099248Y-75562815D01*
X121556391Y-75600910D02*
X121613534Y-75562815D01*
X121613534Y-75562815D02*
X121699248Y-75562815D01*
X121699248Y-75562815D02*
X121784962Y-75600910D01*
X121784962Y-75600910D02*
X121842105Y-75677100D01*
X121842105Y-75677100D02*
X121870676Y-75753291D01*
X121870676Y-75753291D02*
X121899248Y-75905672D01*
X121899248Y-75905672D02*
X121899248Y-76019958D01*
X121899248Y-76019958D02*
X121870676Y-76172339D01*
X121870676Y-76172339D02*
X121842105Y-76248529D01*
X121842105Y-76248529D02*
X121784962Y-76324720D01*
X121784962Y-76324720D02*
X121699248Y-76362815D01*
X121699248Y-76362815D02*
X121642105Y-76362815D01*
X121642105Y-76362815D02*
X121556391Y-76324720D01*
X121556391Y-76324720D02*
X121527819Y-76286624D01*
X121527819Y-76286624D02*
X121527819Y-76019958D01*
X121527819Y-76019958D02*
X121642105Y-76019958D01*
X121156391Y-75562815D02*
X121099248Y-75562815D01*
X121099248Y-75562815D02*
X121042105Y-75600910D01*
X121042105Y-75600910D02*
X121013534Y-75639005D01*
X121013534Y-75639005D02*
X120984962Y-75715196D01*
X120984962Y-75715196D02*
X120956391Y-75867577D01*
X120956391Y-75867577D02*
X120956391Y-76058053D01*
X120956391Y-76058053D02*
X120984962Y-76210434D01*
X120984962Y-76210434D02*
X121013534Y-76286624D01*
X121013534Y-76286624D02*
X121042105Y-76324720D01*
X121042105Y-76324720D02*
X121099248Y-76362815D01*
X121099248Y-76362815D02*
X121156391Y-76362815D01*
X121156391Y-76362815D02*
X121213534Y-76324720D01*
X121213534Y-76324720D02*
X121242105Y-76286624D01*
X121242105Y-76286624D02*
X121270676Y-76210434D01*
X121270676Y-76210434D02*
X121299248Y-76058053D01*
X121299248Y-76058053D02*
X121299248Y-75867577D01*
X121299248Y-75867577D02*
X121270676Y-75715196D01*
X121270676Y-75715196D02*
X121242105Y-75639005D01*
X121242105Y-75639005D02*
X121213534Y-75600910D01*
X121213534Y-75600910D02*
X121156391Y-75562815D01*
D11*
%TO.C,SL4*%
X119700000Y-75700000D02*
X119500000Y-75700000D01*
X119700000Y-76300000D02*
X119500000Y-76300000D01*
%TO.C,SL2*%
X105500000Y-96900000D02*
X105700000Y-96900000D01*
X105500000Y-96300000D02*
X105700000Y-96300000D01*
%TO.C,SL3*%
X105700000Y-58500000D02*
X105500000Y-58500000D01*
X105700000Y-59100000D02*
X105500000Y-59100000D01*
%TO.C,SL7*%
X105700000Y-60900000D02*
X105500000Y-60900000D01*
X105700000Y-61500000D02*
X105500000Y-61500000D01*
%TO.C,SL5*%
X105700000Y-62100000D02*
X105500000Y-62100000D01*
X105700000Y-62700000D02*
X105500000Y-62700000D01*
%TO.C,SL6*%
X105700000Y-59700000D02*
X105500000Y-59700000D01*
X105700000Y-60300000D02*
X105500000Y-60300000D01*
%TD*%
M02*
