%TF.GenerationSoftware,KiCad,Pcbnew,7.0.6*%
%TF.CreationDate,2023-08-17T07:33:22+09:30*%
%TF.ProjectId,spe-source,7370652d-736f-4757-9263-652e6b696361,V1.0*%
%TF.SameCoordinates,Original*%
%TF.FileFunction,Soldermask,Bot*%
%TF.FilePolarity,Negative*%
%FSLAX46Y46*%
G04 Gerber Fmt 4.6, Leading zero omitted, Abs format (unit mm)*
G04 Created by KiCad (PCBNEW 7.0.6) date 2023-08-17 07:33:22*
%MOMM*%
%LPD*%
G01*
G04 APERTURE LIST*
G04 Aperture macros list*
%AMRoundRect*
0 Rectangle with rounded corners*
0 $1 Rounding radius*
0 $2 $3 $4 $5 $6 $7 $8 $9 X,Y pos of 4 corners*
0 Add a 4 corners polygon primitive as box body*
4,1,4,$2,$3,$4,$5,$6,$7,$8,$9,$2,$3,0*
0 Add four circle primitives for the rounded corners*
1,1,$1+$1,$2,$3*
1,1,$1+$1,$4,$5*
1,1,$1+$1,$6,$7*
1,1,$1+$1,$8,$9*
0 Add four rect primitives between the rounded corners*
20,1,$1+$1,$2,$3,$4,$5,0*
20,1,$1+$1,$4,$5,$6,$7,0*
20,1,$1+$1,$6,$7,$8,$9,0*
20,1,$1+$1,$8,$9,$2,$3,0*%
G04 Aperture macros list end*
%ADD10R,2.000000X2.000000*%
%ADD11C,2.000000*%
%ADD12R,2.032000X2.032000*%
%ADD13O,2.032000X2.032000*%
%ADD14RoundRect,0.101600X-0.175000X-0.975000X0.175000X-0.975000X0.175000X0.975000X-0.175000X0.975000X0*%
%ADD15C,0.657200*%
%ADD16RoundRect,0.125000X-0.130000X0.125000X-0.130000X-0.125000X0.130000X-0.125000X0.130000X0.125000X0*%
%ADD17RoundRect,0.125000X0.130000X-0.125000X0.130000X0.125000X-0.130000X0.125000X-0.130000X-0.125000X0*%
G04 APERTURE END LIST*
%TO.C,X2*%
G36*
X100711752Y-57343704D02*
G01*
X101052379Y-57459331D01*
X101375000Y-57618430D01*
X101674094Y-57818278D01*
X101944544Y-58055456D01*
X102181722Y-58325906D01*
X102381570Y-58625000D01*
X102540669Y-58947621D01*
X102656296Y-59288248D01*
X102726473Y-59641053D01*
X102750000Y-60000000D01*
X102726473Y-60358947D01*
X102656296Y-60711752D01*
X102540669Y-61052379D01*
X102381570Y-61375000D01*
X102181722Y-61674094D01*
X101944544Y-61944544D01*
X101674094Y-62181722D01*
X101375000Y-62381570D01*
X101052379Y-62540669D01*
X100711752Y-62656296D01*
X100358947Y-62726473D01*
X100000000Y-62750000D01*
X100000000Y-61750000D01*
X100303884Y-61723414D01*
X100598535Y-61644462D01*
X100875000Y-61515544D01*
X101124878Y-61340578D01*
X101340578Y-61124878D01*
X101515544Y-60875000D01*
X101644462Y-60598535D01*
X101723414Y-60303884D01*
X101750000Y-60000000D01*
X101723414Y-59696116D01*
X101644462Y-59401465D01*
X101515544Y-59125000D01*
X101340578Y-58875122D01*
X101124878Y-58659422D01*
X100875000Y-58484456D01*
X100598535Y-58355538D01*
X100303884Y-58276586D01*
X100000000Y-58250000D01*
X100000000Y-57250000D01*
X100711752Y-57343704D01*
G37*
G36*
X138000000Y-58250000D02*
G01*
X137696116Y-58276586D01*
X137401465Y-58355538D01*
X137125000Y-58484456D01*
X136875122Y-58659422D01*
X136659422Y-58875122D01*
X136484456Y-59125000D01*
X136355538Y-59401465D01*
X136276586Y-59696116D01*
X136250000Y-60000000D01*
X136276586Y-60303884D01*
X136355538Y-60598535D01*
X136484456Y-60875000D01*
X136659422Y-61124878D01*
X136875122Y-61340578D01*
X137125000Y-61515544D01*
X137401465Y-61644462D01*
X137696116Y-61723414D01*
X138000000Y-61750000D01*
X138000000Y-62750000D01*
X137288248Y-62656296D01*
X136947621Y-62540669D01*
X136625000Y-62381570D01*
X136325906Y-62181722D01*
X136055456Y-61944544D01*
X135818278Y-61674094D01*
X135618430Y-61375000D01*
X135459331Y-61052379D01*
X135343704Y-60711752D01*
X135273527Y-60358947D01*
X135250000Y-60000000D01*
X135273527Y-59641053D01*
X135343704Y-59288248D01*
X135459331Y-58947621D01*
X135618430Y-58625000D01*
X135818278Y-58325906D01*
X136055456Y-58055456D01*
X136325906Y-57818278D01*
X136625000Y-57618430D01*
X136947621Y-57459331D01*
X137288248Y-57343704D01*
X137641053Y-57273527D01*
X138000000Y-57250000D01*
X138000000Y-58250000D01*
G37*
%TD*%
D10*
%TO.C,J1*%
X121540000Y-51580000D03*
X121540000Y-46500000D03*
D11*
X119000000Y-51580000D03*
X119000000Y-46500000D03*
X116460000Y-51580000D03*
X116460000Y-46500000D03*
%TD*%
D12*
%TO.C,P1*%
X135000000Y-90500000D03*
D13*
X135000000Y-87960000D03*
%TD*%
D14*
%TO.C,X2*%
X128000000Y-102475000D03*
X127500000Y-102475000D03*
X127000000Y-102475000D03*
X126500000Y-102475000D03*
X126000000Y-102475000D03*
X125500000Y-102475000D03*
X125000000Y-102475000D03*
X124500000Y-102475000D03*
X124000000Y-102475000D03*
X123500000Y-102475000D03*
X123000000Y-102475000D03*
X120500000Y-102475000D03*
X120000000Y-102475000D03*
X119500000Y-102475000D03*
X119000000Y-102475000D03*
X118500000Y-102475000D03*
X118000000Y-102475000D03*
X117500000Y-102475000D03*
X117000000Y-102475000D03*
X116500000Y-102475000D03*
X116000000Y-102475000D03*
X115500000Y-102475000D03*
X115000000Y-102475000D03*
X114500000Y-102475000D03*
X114000000Y-102475000D03*
X113500000Y-102475000D03*
X113000000Y-102475000D03*
X112500000Y-102475000D03*
X112000000Y-102475000D03*
X111500000Y-102475000D03*
X111000000Y-102475000D03*
X110500000Y-102475000D03*
X110000000Y-102475000D03*
D15*
X101000000Y-57900000D03*
X101000000Y-62100000D03*
X102300000Y-60000000D03*
X135700000Y-60000000D03*
X137000000Y-57900000D03*
X137000000Y-62100000D03*
%TD*%
D12*
%TO.C,P2*%
X103000000Y-90525000D03*
D13*
X103000000Y-87985000D03*
%TD*%
D16*
%TO.C,SL4*%
X119250000Y-76000000D03*
X119950000Y-76000000D03*
%TD*%
D17*
%TO.C,SL2*%
X105950000Y-96600000D03*
X105250000Y-96600000D03*
%TD*%
D16*
%TO.C,SL3*%
X105250000Y-58800000D03*
X105950000Y-58800000D03*
%TD*%
%TO.C,SL7*%
X105250000Y-61200000D03*
X105950000Y-61200000D03*
%TD*%
%TO.C,SL5*%
X105250000Y-62400000D03*
X105950000Y-62400000D03*
%TD*%
%TO.C,SL6*%
X105250000Y-60000000D03*
X105950000Y-60000000D03*
%TD*%
M02*
