%TF.GenerationSoftware,KiCad,Pcbnew,7.0.6*%
%TF.CreationDate,2023-08-17T07:33:19+09:30*%
%TF.ProjectId,spe-source,7370652d-736f-4757-9263-652e6b696361,V1.0*%
%TF.SameCoordinates,Original*%
%TF.FileFunction,Copper,L2,Bot*%
%TF.FilePolarity,Positive*%
%FSLAX46Y46*%
G04 Gerber Fmt 4.6, Leading zero omitted, Abs format (unit mm)*
G04 Created by KiCad (PCBNEW 7.0.6) date 2023-08-17 07:33:19*
%MOMM*%
%LPD*%
G01*
G04 APERTURE LIST*
G04 Aperture macros list*
%AMRoundRect*
0 Rectangle with rounded corners*
0 $1 Rounding radius*
0 $2 $3 $4 $5 $6 $7 $8 $9 X,Y pos of 4 corners*
0 Add a 4 corners polygon primitive as box body*
4,1,4,$2,$3,$4,$5,$6,$7,$8,$9,$2,$3,0*
0 Add four circle primitives for the rounded corners*
1,1,$1+$1,$2,$3*
1,1,$1+$1,$4,$5*
1,1,$1+$1,$6,$7*
1,1,$1+$1,$8,$9*
0 Add four rect primitives between the rounded corners*
20,1,$1+$1,$2,$3,$4,$5,0*
20,1,$1+$1,$4,$5,$6,$7,0*
20,1,$1+$1,$6,$7,$8,$9,0*
20,1,$1+$1,$8,$9,$2,$3,0*%
G04 Aperture macros list end*
%TA.AperFunction,ComponentPad*%
%ADD10C,0.600000*%
%TD*%
%TA.AperFunction,SMDPad,CuDef*%
%ADD11R,3.600000X3.600000*%
%TD*%
%TA.AperFunction,ComponentPad*%
%ADD12R,2.000000X2.000000*%
%TD*%
%TA.AperFunction,ComponentPad*%
%ADD13C,2.000000*%
%TD*%
%TA.AperFunction,ComponentPad*%
%ADD14R,2.032000X2.032000*%
%TD*%
%TA.AperFunction,ComponentPad*%
%ADD15O,2.032000X2.032000*%
%TD*%
%TA.AperFunction,SMDPad,CuDef*%
%ADD16R,0.350000X1.950000*%
%TD*%
%TA.AperFunction,ComponentPad*%
%ADD17C,0.454000*%
%TD*%
%TA.AperFunction,ComponentPad*%
%ADD18C,0.500000*%
%TD*%
%TA.AperFunction,SMDPad,CuDef*%
%ADD19RoundRect,0.125000X-0.130000X0.125000X-0.130000X-0.125000X0.130000X-0.125000X0.130000X0.125000X0*%
%TD*%
%TA.AperFunction,SMDPad,CuDef*%
%ADD20RoundRect,0.125000X0.130000X-0.125000X0.130000X0.125000X-0.130000X0.125000X-0.130000X-0.125000X0*%
%TD*%
%TA.AperFunction,ViaPad*%
%ADD21C,0.500000*%
%TD*%
%TA.AperFunction,ViaPad*%
%ADD22C,0.800000*%
%TD*%
%TA.AperFunction,Conductor*%
%ADD23C,0.200000*%
%TD*%
%TA.AperFunction,Conductor*%
%ADD24C,0.250000*%
%TD*%
%TA.AperFunction,Conductor*%
%ADD25C,0.800000*%
%TD*%
G04 APERTURE END LIST*
%TA.AperFunction,EtchedComponent*%
%TO.C,X2*%
G36*
X102749999Y-60000000D02*
G01*
X102645308Y-60729623D01*
X102521802Y-61077718D01*
X102353461Y-61406480D01*
X102143226Y-61710165D01*
X101894770Y-61983466D01*
X101612437Y-62221607D01*
X101301158Y-62420427D01*
X100966374Y-62576450D01*
X100613936Y-62686952D01*
X100250001Y-62750000D01*
X100250000Y-62750000D01*
X100250000Y-61950000D01*
X100816787Y-61828553D01*
X101078983Y-61702963D01*
X101318304Y-61537903D01*
X101528858Y-61337437D01*
X101705460Y-61106501D01*
X101843761Y-60850782D01*
X101940356Y-60576576D01*
X101992867Y-60290635D01*
X102000000Y-60000000D01*
X101940356Y-59423424D01*
X101843761Y-59149218D01*
X101705460Y-58893499D01*
X101528858Y-58662563D01*
X101318304Y-58462097D01*
X101078983Y-58297037D01*
X100816787Y-58171447D01*
X100538173Y-58088420D01*
X100250000Y-58050000D01*
X100250000Y-57250000D01*
X100968830Y-57419312D01*
X101304928Y-57574216D01*
X101617377Y-57772541D01*
X101900599Y-58010747D01*
X102149540Y-58284582D01*
X102359756Y-58589158D01*
X102527494Y-58919038D01*
X102649760Y-59268334D01*
X102724373Y-59630812D01*
X102749999Y-60000000D01*
G37*
%TD.AperFunction*%
%TA.AperFunction,EtchedComponent*%
G36*
X135250000Y-59999999D02*
G01*
X135354692Y-59270377D01*
X135478198Y-58922282D01*
X135646539Y-58593520D01*
X135856774Y-58289835D01*
X136105230Y-58016534D01*
X136387563Y-57778393D01*
X136698842Y-57579573D01*
X137033626Y-57423550D01*
X137386064Y-57313048D01*
X137749999Y-57250000D01*
X137750000Y-57250000D01*
X137750000Y-58050000D01*
X137183213Y-58171447D01*
X136921017Y-58297037D01*
X136681696Y-58462097D01*
X136471142Y-58662563D01*
X136294540Y-58893499D01*
X136156239Y-59149218D01*
X136059644Y-59423424D01*
X136007133Y-59709365D01*
X136000000Y-60000000D01*
X136059644Y-60576576D01*
X136156239Y-60850782D01*
X136294540Y-61106501D01*
X136471142Y-61337437D01*
X136681696Y-61537903D01*
X136921017Y-61702963D01*
X137183213Y-61828553D01*
X137461827Y-61911580D01*
X137750000Y-61950000D01*
X137750000Y-62750000D01*
X137031170Y-62580688D01*
X136695072Y-62425784D01*
X136382623Y-62227459D01*
X136099401Y-61989253D01*
X135850460Y-61715418D01*
X135640244Y-61410842D01*
X135472506Y-61080962D01*
X135350240Y-60731666D01*
X135275627Y-60369188D01*
X135250000Y-59999999D01*
G37*
%TD.AperFunction*%
%TD*%
D10*
%TO.P,U4,41,EP(GND)*%
%TO.N,GND*%
X111025000Y-73025000D03*
X111000000Y-72000000D03*
X111000000Y-71000000D03*
X110000000Y-73025000D03*
X110000000Y-72000000D03*
D11*
X110000000Y-72000000D03*
D10*
X110000000Y-71000000D03*
X109000000Y-73025000D03*
X109000000Y-72000000D03*
X109000000Y-71000000D03*
%TD*%
D12*
%TO.P,J1,1,Pin_1*%
%TO.N,Earth*%
X121540000Y-51580000D03*
X121540000Y-46500000D03*
D13*
%TO.P,J1,2,Pin_2*%
%TO.N,Net-(J1-Pin_2)*%
X119000000Y-51580000D03*
X119000000Y-46500000D03*
%TO.P,J1,3,Pin_3*%
%TO.N,Net-(J1-Pin_3)*%
X116460000Y-51580000D03*
X116460000Y-46500000D03*
%TD*%
D14*
%TO.P,P1,1,P1*%
%TO.N,GND*%
X135000000Y-90500000D03*
D15*
%TO.P,P1,2,P2*%
%TO.N,+24V*%
X135000000Y-87960000D03*
%TD*%
D16*
%TO.P,X2,2,GND*%
%TO.N,GND*%
X128000000Y-102475000D03*
%TO.P,X2,4,DFU_FC_TX*%
%TO.N,unconnected-(X2-DFU_FC_TX-Pad4)*%
X127500000Y-102475000D03*
%TO.P,X2,6,DFU_FC_RX*%
%TO.N,unconnected-(X2-DFU_FC_RX-Pad6)*%
X127000000Y-102475000D03*
%TO.P,X2,8,GND*%
%TO.N,GND*%
X126500000Y-102475000D03*
%TO.P,X2,10,~{DFU_ACTIVE}*%
%TO.N,unconnected-(X2-~{DFU_ACTIVE}-Pad10)*%
X126000000Y-102475000D03*
%TO.P,X2,12*%
%TO.N,N/C*%
X125500000Y-102475000D03*
%TO.P,X2,14*%
X125000000Y-102475000D03*
%TO.P,X2,16,FUNC_RTS*%
%TO.N,unconnected-(X2-FUNC_RTS-Pad16)*%
X124500000Y-102475000D03*
%TO.P,X2,18,FUNC_CTS*%
%TO.N,unconnected-(X2-FUNC_CTS-Pad18)*%
X124000000Y-102475000D03*
%TO.P,X2,20*%
%TO.N,N/C*%
X123500000Y-102475000D03*
%TO.P,X2,22*%
X123000000Y-102475000D03*
%TO.P,X2,32,EEPROM_A2*%
%TO.N,Net-(IC1-A2)*%
X120500000Y-102475000D03*
%TO.P,X2,34,EEPROM_A1*%
%TO.N,Net-(IC1-A1)*%
X120000000Y-102475000D03*
%TO.P,X2,36,EEPROM_A0*%
%TO.N,Net-(IC1-A0)*%
X119500000Y-102475000D03*
%TO.P,X2,38,A0*%
%TO.N,/MicroMod Function Board/ANALOG*%
X119000000Y-102475000D03*
%TO.P,X2,40,EEPROM_WP*%
%TO.N,Net-(IC1-WP)*%
X118500000Y-102475000D03*
%TO.P,X2,42*%
%TO.N,N/C*%
X118000000Y-102475000D03*
%TO.P,X2,44*%
X117500000Y-102475000D03*
%TO.P,X2,46*%
X117000000Y-102475000D03*
%TO.P,X2,48*%
X116500000Y-102475000D03*
%TO.P,X2,50*%
X116000000Y-102475000D03*
%TO.P,X2,52*%
X115500000Y-102475000D03*
%TO.P,X2,54*%
X115000000Y-102475000D03*
%TO.P,X2,56*%
X114500000Y-102475000D03*
%TO.P,X2,58*%
X114000000Y-102475000D03*
%TO.P,X2,60*%
X113500000Y-102475000D03*
%TO.P,X2,62*%
X113000000Y-102475000D03*
%TO.P,X2,64*%
X112500000Y-102475000D03*
%TO.P,X2,66,~{DFU_BOOT}*%
%TO.N,unconnected-(X2-~{DFU_BOOT}-Pad66)*%
X112000000Y-102475000D03*
%TO.P,X2,68,~{DFU_RST}*%
%TO.N,unconnected-(X2-~{DFU_RST}-Pad68)*%
X111500000Y-102475000D03*
%TO.P,X2,70,USB_VIN*%
%TO.N,unconnected-(X2-USB_VIN-Pad70)*%
X111000000Y-102475000D03*
%TO.P,X2,72,VCC*%
%TO.N,+POWER*%
X110500000Y-102475000D03*
%TO.P,X2,74,VCC*%
X110000000Y-102475000D03*
D17*
%TO.P,X2,MNT*%
%TO.N,N/C*%
X101000000Y-57900000D03*
X101000000Y-62100000D03*
X102300000Y-60000000D03*
X135700000Y-60000000D03*
X137000000Y-57900000D03*
X137000000Y-62100000D03*
%TD*%
D18*
%TO.P,U8,11,EP*%
%TO.N,Net-(U8-EP)*%
X130955000Y-83120000D03*
X130380000Y-84070000D03*
X130380000Y-82170000D03*
X129805000Y-83120000D03*
%TD*%
D14*
%TO.P,P2,1,P1*%
%TO.N,GND*%
X103000000Y-90525000D03*
D15*
%TO.P,P2,2,P2*%
%TO.N,+POWER*%
X103000000Y-87985000D03*
%TD*%
D19*
%TO.P,SL4,1,1*%
%TO.N,/Ethernet MAC+PHY/CIPO*%
X119250000Y-76000000D03*
%TO.P,SL4,2,2*%
%TO.N,Net-(R15-Pad2)*%
X119950000Y-76000000D03*
%TD*%
D20*
%TO.P,SL2,1,1*%
%TO.N,Net-(IC1-WP)*%
X105950000Y-96600000D03*
%TO.P,SL2,2,2*%
%TO.N,GND*%
X105250000Y-96600000D03*
%TD*%
D19*
%TO.P,SL3,1,1*%
%TO.N,Net-(U4-SPI_CFG1)*%
X105250000Y-58800000D03*
%TO.P,SL3,2,2*%
%TO.N,Net-(R13-Pad5)*%
X105950000Y-58800000D03*
%TD*%
%TO.P,SL7,1,1*%
%TO.N,Net-(U4-~{TX2P4_EN})*%
X105250000Y-61200000D03*
%TO.P,SL7,2,2*%
%TO.N,Net-(R13-Pad7)*%
X105950000Y-61200000D03*
%TD*%
%TO.P,SL5,1,1*%
%TO.N,Net-(U4-TS_TIMER{slash}MS_SEL)*%
X105250000Y-62400000D03*
%TO.P,SL5,2,2*%
%TO.N,Net-(R13-Pad8)*%
X105950000Y-62400000D03*
%TD*%
%TO.P,SL6,1,1*%
%TO.N,Net-(U4-~{SWPD_EN})*%
X105250000Y-60000000D03*
%TO.P,SL6,2,2*%
%TO.N,Net-(R13-Pad6)*%
X105950000Y-60000000D03*
%TD*%
D21*
%TO.N,GND*%
X132400000Y-77500000D03*
X131000000Y-77500000D03*
X120000000Y-77600000D03*
X137000000Y-85600000D03*
X132200000Y-96600000D03*
X123400000Y-97600000D03*
X125200000Y-100400000D03*
X111400000Y-99800000D03*
X112800000Y-100400000D03*
%TO.N,/MicroMod Function Board/24V_ENABLE*%
X122600000Y-79200000D03*
%TO.N,/MicroMod Function Board/24V_FAULT*%
X129200000Y-91000000D03*
X130025572Y-96025572D03*
%TO.N,+3.3V*%
X128000000Y-96600000D03*
%TO.N,GND*%
X128000000Y-94600000D03*
X128600000Y-93400000D03*
%TO.N,/MicroMod Function Board/24V_FAULT*%
X123800000Y-95600000D03*
%TO.N,Net-(X2-F6)*%
X117800000Y-96200000D03*
%TO.N,+3.3V*%
X117524500Y-93600000D03*
X124600000Y-95500000D03*
%TO.N,Net-(X2-F6)*%
X113700000Y-95300000D03*
%TO.N,GND*%
X123000000Y-93000000D03*
X111800000Y-48000000D03*
%TO.N,+3.3V*%
X113475500Y-92000000D03*
%TO.N,GND*%
X122400000Y-86200000D03*
%TO.N,+3.3V*%
X117000000Y-90000000D03*
%TO.N,GND*%
X118800000Y-93200000D03*
%TO.N,/Ethernet MAC+PHY/~{RESET}*%
X114725500Y-89000000D03*
%TO.N,GND*%
X112400000Y-91000000D03*
X111500000Y-82000000D03*
X115400000Y-77600000D03*
%TO.N,/MicroMod Function Board/24V_ENABLE*%
X114600000Y-92400000D03*
X112225500Y-80000000D03*
%TO.N,/MicroMod Function Board/ENABLE_ID_SOURCE*%
X114800000Y-88000000D03*
X114900000Y-83100000D03*
%TO.N,/MicroMod Function Board/SDA*%
X122600000Y-98400000D03*
%TO.N,/MicroMod Function Board/SCL*%
X121737750Y-98479506D03*
%TO.N,+24V*%
X131500000Y-86250000D03*
X122000000Y-84750000D03*
%TO.N,/MicroMod Function Board/SDA*%
X112400000Y-94000000D03*
%TO.N,/MicroMod Function Board/SCL*%
X111800000Y-94600000D03*
%TO.N,/Ethernet MAC+PHY/~{RESET}*%
X115573378Y-84973378D03*
X119000000Y-83250000D03*
%TO.N,Net-(IC1-WP)*%
X111500000Y-98750000D03*
%TO.N,GND*%
X111500000Y-93500000D03*
%TO.N,Net-(IC1-A2)*%
X111500000Y-95800000D03*
%TO.N,Net-(IC1-A1)*%
X111500000Y-96800000D03*
%TO.N,Net-(IC1-A0)*%
X111500000Y-97800000D03*
%TO.N,GND*%
X121250000Y-99750000D03*
X117500000Y-100600000D03*
%TO.N,/Ethernet MAC+PHY/~{CS}*%
X116475500Y-93500000D03*
%TO.N,/Ethernet MAC+PHY/~{INT}*%
X117000000Y-92750000D03*
%TO.N,GND*%
X131750000Y-77500000D03*
X125400000Y-87000000D03*
%TO.N,/Ethernet MAC+PHY/CLK*%
X119000000Y-85250000D03*
X113000000Y-85500000D03*
%TO.N,GND*%
X128000000Y-80750000D03*
%TO.N,/MicroMod Function Board/24V_FAULT*%
X126400500Y-84356927D03*
%TO.N,/MicroMod Function Board/24V_ENABLE*%
X133250000Y-82250000D03*
%TO.N,GND*%
X102600002Y-71500000D03*
X129250000Y-99000000D03*
X104800000Y-66000000D03*
X105000000Y-77500000D03*
X104200000Y-64199998D03*
X107600000Y-93600000D03*
X104800000Y-76800000D03*
X105250000Y-84000000D03*
X102600000Y-70250000D03*
X104800000Y-64800000D03*
D22*
X135250000Y-62750000D03*
D21*
X101500000Y-98500000D03*
X105250000Y-84750000D03*
X105250000Y-85500000D03*
X104200000Y-57521987D03*
X107600000Y-99200000D03*
X117500000Y-66000000D03*
X102600000Y-67750000D03*
X108500000Y-78750000D03*
D22*
X116500000Y-59500000D03*
X111489999Y-40989999D03*
X119500000Y-61750000D03*
D21*
X116725000Y-74500000D03*
%TO.N,Net-(IC1-WP)*%
X107000000Y-96200000D03*
%TO.N,/MicroMod Function Board/24V_ENABLE*%
X107750000Y-80750000D03*
X101000000Y-56000000D03*
%TO.N,Net-(R13-Pad5)*%
X106000000Y-57600000D03*
%TO.N,Net-(R13-Pad6)*%
X106800000Y-58000000D03*
%TO.N,Net-(R13-Pad7)*%
X107600000Y-58400000D03*
%TO.N,Net-(R13-Pad8)*%
X108400000Y-58800004D03*
%TO.N,/Ethernet MAC+PHY/~{INT}*%
X104200000Y-72400000D03*
%TO.N,Net-(R15-Pad2)*%
X120300010Y-75200000D03*
%TO.N,Net-(U4-LED_0)*%
X115000000Y-73600000D03*
X106606589Y-51793412D03*
%TO.N,Net-(U4-LED_1)*%
X115000000Y-71400000D03*
X102499998Y-51899998D03*
%TO.N,Net-(U4-LINK_ST)*%
X105000000Y-52200000D03*
X115025000Y-72775000D03*
%TO.N,Net-(U4-SPI_CFG1)*%
X108750000Y-79700000D03*
%TO.N,/Ethernet MAC+PHY/CIPO*%
X126200000Y-97600000D03*
X115870878Y-76129122D03*
%TO.N,Net-(U4-TS_TIMER{slash}MS_SEL)*%
X102800004Y-75475000D03*
%TO.N,Net-(U4-~{SWPD_EN})*%
X107193410Y-78593410D03*
%TO.N,Net-(U4-~{TX2P4_EN})*%
X106500000Y-78200000D03*
%TO.N,/Ethernet MAC+PHY/COPI*%
X115000000Y-76200000D03*
X125800000Y-96800000D03*
%TO.N,/Ethernet MAC+PHY/~{RESET}*%
X116839896Y-76124050D03*
%TO.N,/Ethernet MAC+PHY/~{CS}*%
X105406587Y-74406587D03*
%TO.N,/Ethernet MAC+PHY/CLK*%
X127000000Y-96800000D03*
X112000000Y-78200000D03*
%TO.N,/MicroMod Function Board/ANALOG*%
X118600000Y-99400000D03*
%TD*%
D23*
%TO.N,/Ethernet MAC+PHY/CIPO*%
X115870878Y-76129122D02*
X116600000Y-75400000D01*
X116600000Y-75400000D02*
X118150000Y-75400000D01*
X118150000Y-75400000D02*
X118750000Y-76000000D01*
X118750000Y-76000000D02*
X119250000Y-76000000D01*
D24*
%TO.N,Net-(IC1-A1)*%
X120000000Y-99000000D02*
X120000000Y-102475000D01*
X111500000Y-96800000D02*
X111600000Y-96800000D01*
X111600000Y-96800000D02*
X113050000Y-98250000D01*
X113050000Y-98250000D02*
X119250000Y-98250000D01*
X119250000Y-98250000D02*
X120000000Y-99000000D01*
%TO.N,Net-(IC1-A2)*%
X111500000Y-95800000D02*
X111600000Y-95800000D01*
X111600000Y-95800000D02*
X113575000Y-97775000D01*
X113575000Y-97775000D02*
X119775000Y-97775000D01*
X119775000Y-97775000D02*
X120500000Y-98500000D01*
X120500000Y-98500000D02*
X120500000Y-102475000D01*
%TO.N,/MicroMod Function Board/24V_ENABLE*%
X133250000Y-82250000D02*
X133250000Y-80050000D01*
X133250000Y-80050000D02*
X132400000Y-79200000D01*
X132400000Y-79200000D02*
X122600000Y-79200000D01*
%TO.N,/Ethernet MAC+PHY/~{RESET}*%
X119000000Y-78284154D02*
X119000000Y-83250000D01*
X116839896Y-76124050D02*
X119000000Y-78284154D01*
%TO.N,/Ethernet MAC+PHY/CIPO*%
X126400000Y-97400000D02*
X126200000Y-97600000D01*
X126400000Y-93750000D02*
X126400000Y-97400000D01*
X118400000Y-85750000D02*
X126400000Y-93750000D01*
X118400000Y-78425911D02*
X118400000Y-85750000D01*
X116103211Y-76129122D02*
X118400000Y-78425911D01*
X115870878Y-76129122D02*
X116103211Y-76129122D01*
%TO.N,/Ethernet MAC+PHY/COPI*%
X115200000Y-76200000D02*
X117800000Y-78800000D01*
X115000000Y-76200000D02*
X115200000Y-76200000D01*
X117800000Y-78800000D02*
X117800000Y-86000000D01*
X117800000Y-86000000D02*
X125800000Y-94000000D01*
X125800000Y-94000000D02*
X125800000Y-96800000D01*
%TO.N,/Ethernet MAC+PHY/~{INT}*%
X117000000Y-92750000D02*
X116750000Y-92750000D01*
X107600000Y-75800000D02*
X104200000Y-72400000D01*
X116750000Y-92750000D02*
X114200000Y-90200000D01*
X114200000Y-90200000D02*
X114200000Y-78600000D01*
X114200000Y-78600000D02*
X111400000Y-75800000D01*
X111400000Y-75800000D02*
X107600000Y-75800000D01*
%TO.N,/Ethernet MAC+PHY/~{CS}*%
X116475500Y-93500000D02*
X116475500Y-93225500D01*
X116475500Y-93225500D02*
X113600000Y-90350000D01*
X107400000Y-76400000D02*
X105406587Y-74406587D01*
X113600000Y-90350000D02*
X113600000Y-78800000D01*
X111200000Y-76400000D02*
X107400000Y-76400000D01*
X113600000Y-78800000D02*
X111200000Y-76400000D01*
%TO.N,/Ethernet MAC+PHY/CLK*%
X112000000Y-78200000D02*
X113000000Y-79200000D01*
X113000000Y-79200000D02*
X113000000Y-85500000D01*
%TO.N,/MicroMod Function Board/24V_FAULT*%
X129200000Y-91000000D02*
X129200000Y-88400000D01*
X129200000Y-88400000D02*
X126400500Y-85600500D01*
X126400500Y-85600500D02*
X126400500Y-84356927D01*
%TO.N,+24V*%
X131500000Y-86250000D02*
X127650000Y-86250000D01*
X127650000Y-86250000D02*
X127000000Y-85600000D01*
X127000000Y-85600000D02*
X127000000Y-84000000D01*
X127000000Y-84000000D02*
X126600000Y-83600000D01*
X126600000Y-83600000D02*
X123200000Y-83600000D01*
X123200000Y-83600000D02*
X122050000Y-84750000D01*
X122050000Y-84750000D02*
X122000000Y-84750000D01*
%TO.N,/MicroMod Function Board/24V_FAULT*%
X130025572Y-96025572D02*
X129774428Y-96025572D01*
X129774428Y-96025572D02*
X127000000Y-98800000D01*
X127000000Y-98800000D02*
X125600000Y-98800000D01*
X125600000Y-98800000D02*
X124400000Y-97600000D01*
X124400000Y-97600000D02*
X124400000Y-96200000D01*
X124400000Y-96200000D02*
X123800000Y-95600000D01*
%TO.N,+3.3V*%
X128000000Y-96600000D02*
X128000000Y-97200000D01*
X128000000Y-97200000D02*
X126800000Y-98400000D01*
X126800000Y-98400000D02*
X125800000Y-98400000D01*
X124800000Y-95700000D02*
X124600000Y-95500000D01*
X125800000Y-98400000D02*
X124800000Y-97400000D01*
X124800000Y-97400000D02*
X124800000Y-95700000D01*
%TO.N,/Ethernet MAC+PHY/CLK*%
X127000000Y-96800000D02*
X127000000Y-93400000D01*
X127000000Y-93400000D02*
X119000000Y-85400000D01*
X119000000Y-85400000D02*
X119000000Y-85250000D01*
%TO.N,Net-(X2-F6)*%
X117800000Y-96200000D02*
X114400000Y-96200000D01*
%TO.N,+3.3V*%
X117524500Y-93600000D02*
X117600000Y-93524500D01*
X117600000Y-93524500D02*
X117600000Y-92200000D01*
X117600000Y-92200000D02*
X117000000Y-91600000D01*
X117000000Y-91600000D02*
X117000000Y-90000000D01*
X113475500Y-92000000D02*
X113475500Y-92275500D01*
X115200000Y-93200000D02*
X116200000Y-94200000D01*
X113475500Y-92275500D02*
X114400000Y-93200000D01*
X116200000Y-94200000D02*
X116924500Y-94200000D01*
X114400000Y-93200000D02*
X115200000Y-93200000D01*
X116924500Y-94200000D02*
X117524500Y-93600000D01*
%TO.N,Net-(X2-F6)*%
X113700000Y-95500000D02*
X113700000Y-95300000D01*
X114400000Y-96200000D02*
X113700000Y-95500000D01*
%TO.N,Net-(IC1-WP)*%
X111500000Y-98750000D02*
X111950000Y-98750000D01*
X111950000Y-98750000D02*
X112450000Y-99250000D01*
X112450000Y-99250000D02*
X117450000Y-99250000D01*
X117450000Y-99250000D02*
X118500000Y-100300000D01*
X118500000Y-100300000D02*
X118500000Y-102475000D01*
%TO.N,Net-(IC1-A0)*%
X111500000Y-97800000D02*
X111800000Y-97800000D01*
X111800000Y-97800000D02*
X112750000Y-98750000D01*
X112750000Y-98750000D02*
X119000000Y-98750000D01*
X119000000Y-98750000D02*
X119500000Y-99250000D01*
X119500000Y-99250000D02*
X119500000Y-102475000D01*
%TO.N,/MicroMod Function Board/SCL*%
X121737750Y-98479506D02*
X121737750Y-98337750D01*
X121737750Y-98337750D02*
X120600000Y-97200000D01*
X120600000Y-97200000D02*
X113800000Y-97200000D01*
X113800000Y-97200000D02*
X111800000Y-95200000D01*
X111800000Y-95200000D02*
X111800000Y-94600000D01*
%TO.N,/MicroMod Function Board/SDA*%
X122600000Y-98400000D02*
X121000000Y-96800000D01*
X121000000Y-96800000D02*
X114200000Y-96800000D01*
X114200000Y-96800000D02*
X112400000Y-95000000D01*
X112400000Y-95000000D02*
X112400000Y-94000000D01*
%TO.N,/MicroMod Function Board/ANALOG*%
X118600000Y-99400000D02*
X119000000Y-99800000D01*
X119000000Y-99800000D02*
X119000000Y-102475000D01*
D25*
%TO.N,+POWER*%
X103000000Y-87985000D02*
X105185000Y-87985000D01*
X105185000Y-87985000D02*
X109200000Y-92000000D01*
X109200000Y-92000000D02*
X109200000Y-99450000D01*
X109200000Y-99450000D02*
X110250000Y-100500000D01*
D23*
%TO.N,/MicroMod Function Board/24V_ENABLE*%
X114600000Y-92400000D02*
X114600000Y-91892893D01*
X114600000Y-91892893D02*
X113200000Y-90492893D01*
X113200000Y-90492893D02*
X113200000Y-86700000D01*
X113200000Y-86700000D02*
X112500000Y-86000000D01*
X112500000Y-86000000D02*
X112500000Y-80274500D01*
X112500000Y-80274500D02*
X112225500Y-80000000D01*
D24*
%TO.N,/MicroMod Function Board/ENABLE_ID_SOURCE*%
X114800000Y-83200000D02*
X114800000Y-88000000D01*
X114900000Y-83100000D02*
X114800000Y-83200000D01*
%TO.N,/Ethernet MAC+PHY/~{RESET}*%
X115573378Y-84973378D02*
X115500000Y-85046756D01*
X115500000Y-85046756D02*
X115500000Y-88225500D01*
X115500000Y-88225500D02*
X114725500Y-89000000D01*
D23*
%TO.N,Net-(U4-SPI_CFG1)*%
X103800000Y-61565686D02*
X103800000Y-59600000D01*
X100800000Y-64565686D02*
X103800000Y-61565686D01*
X100800000Y-76431372D02*
X100800000Y-64565686D01*
X108750000Y-79700000D02*
X104068628Y-79700000D01*
X104068628Y-79700000D02*
X100800000Y-76431372D01*
X103800000Y-59600000D02*
X104600000Y-58800000D01*
X104600000Y-58800000D02*
X105250000Y-58800000D01*
%TO.N,/MicroMod Function Board/24V_ENABLE*%
X107100000Y-80100000D02*
X103902943Y-80100000D01*
X100400000Y-76597058D02*
X100400000Y-64400000D01*
X107750000Y-80750000D02*
X107100000Y-80100000D01*
X103902943Y-80100000D02*
X100400000Y-76597058D01*
X100400000Y-64400000D02*
X103300000Y-61500000D01*
X103300000Y-61500000D02*
X103300000Y-58300000D01*
X103300000Y-58300000D02*
X101000000Y-56000000D01*
D24*
%TO.N,GND*%
X128000000Y-102475000D02*
X128000000Y-100000000D01*
X105250000Y-96600000D02*
X104400000Y-96600000D01*
X128000000Y-100000000D02*
X128400000Y-99600000D01*
X104400000Y-96600000D02*
X104250000Y-96750000D01*
X126500000Y-100300000D02*
X127000000Y-99800000D01*
X126500000Y-102475000D02*
X126500000Y-100300000D01*
%TO.N,+POWER*%
X110000000Y-100750000D02*
X110250000Y-100500000D01*
X110500000Y-102475000D02*
X110500000Y-100750000D01*
X110000000Y-102475000D02*
X110000000Y-100750000D01*
X110500000Y-100750000D02*
X110250000Y-100500000D01*
%TO.N,Net-(IC1-WP)*%
X106600000Y-96600000D02*
X107000000Y-96200000D01*
X105950000Y-96600000D02*
X106600000Y-96600000D01*
%TO.N,Net-(R13-Pad5)*%
X106000000Y-58750000D02*
X106000000Y-57600000D01*
X105950000Y-58800000D02*
X106000000Y-58750000D01*
%TO.N,Net-(R13-Pad6)*%
X105950000Y-60000000D02*
X106400000Y-60000000D01*
X106800000Y-59600000D02*
X106800000Y-58000000D01*
X106400000Y-60000000D02*
X106800000Y-59600000D01*
%TO.N,Net-(R13-Pad7)*%
X106600000Y-61200000D02*
X107600000Y-60200000D01*
X107600000Y-60200000D02*
X107600000Y-58400000D01*
X105950000Y-61200000D02*
X106600000Y-61200000D01*
%TO.N,Net-(R13-Pad8)*%
X108400000Y-60800000D02*
X108400000Y-58800004D01*
X105950000Y-62400000D02*
X106800000Y-62400000D01*
X106800000Y-62400000D02*
X108400000Y-60800000D01*
D23*
%TO.N,Net-(R15-Pad2)*%
X119950000Y-75550010D02*
X120300010Y-75200000D01*
X119950000Y-76000000D02*
X119950000Y-75550010D01*
D24*
%TO.N,Net-(U4-LED_0)*%
X121650000Y-70850000D02*
X119250000Y-73250000D01*
X106606589Y-51793412D02*
X121650000Y-66836823D01*
X121650000Y-66836823D02*
X121650000Y-70850000D01*
X119250000Y-73250000D02*
X115350000Y-73250000D01*
X115350000Y-73250000D02*
X115000000Y-73600000D01*
%TO.N,Net-(U4-LED_1)*%
X102499998Y-51899998D02*
X103400000Y-52800000D01*
X115850000Y-72250000D02*
X115000000Y-71400000D01*
X118977208Y-72250000D02*
X115850000Y-72250000D01*
X120750000Y-70477208D02*
X118977208Y-72250000D01*
X106000000Y-52800000D02*
X120750000Y-67550000D01*
X120750000Y-67550000D02*
X120750000Y-70477208D01*
X103400000Y-52800000D02*
X106000000Y-52800000D01*
%TO.N,Net-(U4-LINK_ST)*%
X119088604Y-72775000D02*
X115025000Y-72775000D01*
X106200000Y-52200000D02*
X121200000Y-67200000D01*
X121200000Y-67200000D02*
X121200000Y-70663604D01*
X121200000Y-70663604D02*
X119088604Y-72775000D01*
X105000000Y-52200000D02*
X106200000Y-52200000D01*
D23*
%TO.N,Net-(U4-TS_TIMER{slash}MS_SEL)*%
X102000000Y-74674996D02*
X102800004Y-75475000D01*
X102000000Y-65062744D02*
X102000000Y-74674996D01*
X104662744Y-62400000D02*
X102000000Y-65062744D01*
X105250000Y-62400000D02*
X104662744Y-62400000D01*
%TO.N,Net-(U4-~{SWPD_EN})*%
X104600000Y-60000000D02*
X104200000Y-60400000D01*
X104200000Y-60400000D02*
X104200000Y-61731372D01*
X101200000Y-64731372D02*
X101200000Y-76265686D01*
X104200000Y-61731372D02*
X101200000Y-64731372D01*
X101200000Y-76265686D02*
X103934314Y-79000000D01*
X103934314Y-79000000D02*
X106786820Y-79000000D01*
X105250000Y-60000000D02*
X104600000Y-60000000D01*
X106786820Y-79000000D02*
X107193410Y-78593410D01*
%TO.N,Net-(U4-~{TX2P4_EN})*%
X101600000Y-76100000D02*
X104000000Y-78500000D01*
X105250000Y-61200000D02*
X105250000Y-61247058D01*
X105250000Y-61247058D02*
X101600000Y-64897058D01*
X104000000Y-78500000D02*
X106200000Y-78500000D01*
X106200000Y-78500000D02*
X106500000Y-78200000D01*
X101600000Y-64897058D02*
X101600000Y-76100000D01*
%TD*%
%TA.AperFunction,Conductor*%
%TO.N,Net-(U8-EP)*%
G36*
X132743039Y-81019685D02*
G01*
X132788794Y-81072489D01*
X132800000Y-81124000D01*
X132800000Y-85376000D01*
X132780315Y-85443039D01*
X132727511Y-85488794D01*
X132676000Y-85500000D01*
X127924000Y-85500000D01*
X127856961Y-85480315D01*
X127811206Y-85427511D01*
X127800000Y-85376000D01*
X127800000Y-84573794D01*
X130159047Y-84573794D01*
X130236417Y-84605841D01*
X130236421Y-84605842D01*
X130379999Y-84624746D01*
X130380001Y-84624746D01*
X130523578Y-84605842D01*
X130523579Y-84605842D01*
X130600952Y-84573793D01*
X130380001Y-84352842D01*
X130159047Y-84573794D01*
X127800000Y-84573794D01*
X127800000Y-83623793D01*
X129584046Y-83623793D01*
X129661417Y-83655841D01*
X129661421Y-83655842D01*
X129780771Y-83671556D01*
X129844667Y-83699823D01*
X129883138Y-83758147D01*
X129883969Y-83828012D01*
X129879147Y-83841946D01*
X129844157Y-83926421D01*
X129825254Y-84069999D01*
X129825254Y-84070000D01*
X129844157Y-84213582D01*
X129876204Y-84290951D01*
X130064664Y-84102492D01*
X130280000Y-84102492D01*
X130318197Y-84155065D01*
X130364162Y-84170000D01*
X130395838Y-84170000D01*
X130441803Y-84155065D01*
X130480000Y-84102492D01*
X130480000Y-84037508D01*
X130441803Y-83984935D01*
X130395838Y-83970000D01*
X130364162Y-83970000D01*
X130318197Y-83984935D01*
X130280000Y-84037508D01*
X130280000Y-84102492D01*
X130064664Y-84102492D01*
X130292319Y-83874838D01*
X130353642Y-83841353D01*
X130423334Y-83846337D01*
X130467681Y-83874838D01*
X130604255Y-84011412D01*
X130604257Y-84011416D01*
X130883793Y-84290952D01*
X130915842Y-84213579D01*
X130915842Y-84213578D01*
X130934746Y-84070000D01*
X130934746Y-84069999D01*
X130915842Y-83926421D01*
X130915842Y-83926420D01*
X130880853Y-83841948D01*
X130873384Y-83772478D01*
X130904659Y-83709999D01*
X130964748Y-83674347D01*
X130979228Y-83671556D01*
X131098578Y-83655842D01*
X131098579Y-83655842D01*
X131175952Y-83623793D01*
X130896422Y-83344263D01*
X130896412Y-83344255D01*
X130759838Y-83207681D01*
X130729702Y-83152492D01*
X130855000Y-83152492D01*
X130893197Y-83205065D01*
X130939162Y-83220000D01*
X130970838Y-83220000D01*
X131016803Y-83205065D01*
X131055000Y-83152492D01*
X131055000Y-83120000D01*
X131237842Y-83120000D01*
X131458793Y-83340952D01*
X131490842Y-83263579D01*
X131490842Y-83263578D01*
X131509746Y-83120000D01*
X131509746Y-83119999D01*
X131490842Y-82976421D01*
X131490841Y-82976417D01*
X131458794Y-82899047D01*
X131237842Y-83120000D01*
X131055000Y-83120000D01*
X131055000Y-83087508D01*
X131016803Y-83034935D01*
X130970838Y-83020000D01*
X130939162Y-83020000D01*
X130893197Y-83034935D01*
X130855000Y-83087508D01*
X130855000Y-83152492D01*
X130729702Y-83152492D01*
X130726353Y-83146358D01*
X130731337Y-83076666D01*
X130759838Y-83032319D01*
X131175951Y-82616205D01*
X131175951Y-82616204D01*
X131098581Y-82584157D01*
X131098583Y-82584157D01*
X130979227Y-82568443D01*
X130915331Y-82540176D01*
X130876861Y-82481851D01*
X130876030Y-82411986D01*
X130880853Y-82398051D01*
X130915842Y-82313579D01*
X130915842Y-82313578D01*
X130934746Y-82170000D01*
X130934746Y-82169999D01*
X130915842Y-82026421D01*
X130915841Y-82026417D01*
X130883793Y-81949046D01*
X130626532Y-82206308D01*
X130626524Y-82206319D01*
X130467682Y-82365162D01*
X130406358Y-82398647D01*
X130336667Y-82393663D01*
X130292319Y-82365162D01*
X130129649Y-82202492D01*
X130280000Y-82202492D01*
X130318197Y-82255065D01*
X130364162Y-82270000D01*
X130395838Y-82270000D01*
X130441803Y-82255065D01*
X130480000Y-82202492D01*
X130480000Y-82137508D01*
X130441803Y-82084935D01*
X130395838Y-82070000D01*
X130364162Y-82070000D01*
X130318197Y-82084935D01*
X130280000Y-82137508D01*
X130280000Y-82202492D01*
X130129649Y-82202492D01*
X130114598Y-82187441D01*
X130114596Y-82187438D01*
X129876205Y-81949047D01*
X129844157Y-82026421D01*
X129825254Y-82169999D01*
X129825254Y-82170000D01*
X129844157Y-82313578D01*
X129844158Y-82313582D01*
X129879146Y-82398052D01*
X129886615Y-82467521D01*
X129855339Y-82530000D01*
X129795250Y-82565652D01*
X129780772Y-82568443D01*
X129661420Y-82584157D01*
X129584046Y-82616205D01*
X129822435Y-82854593D01*
X129822441Y-82854598D01*
X130000161Y-83032319D01*
X130033646Y-83093642D01*
X130028662Y-83163334D01*
X130000162Y-83207681D01*
X129841321Y-83366523D01*
X129841314Y-83366526D01*
X129584046Y-83623793D01*
X127800000Y-83623793D01*
X127800000Y-83340951D01*
X127800000Y-83120000D01*
X129250254Y-83120000D01*
X129269157Y-83263582D01*
X129301204Y-83340951D01*
X129301205Y-83340952D01*
X129489665Y-83152492D01*
X129705000Y-83152492D01*
X129743197Y-83205065D01*
X129789162Y-83220000D01*
X129820838Y-83220000D01*
X129866803Y-83205065D01*
X129905000Y-83152492D01*
X129905000Y-83087508D01*
X129866803Y-83034935D01*
X129820838Y-83020000D01*
X129789162Y-83020000D01*
X129743197Y-83034935D01*
X129705000Y-83087508D01*
X129705000Y-83152492D01*
X129489665Y-83152492D01*
X129522157Y-83120000D01*
X129522157Y-83119999D01*
X129301205Y-82899047D01*
X129269157Y-82976421D01*
X129250254Y-83119999D01*
X129250254Y-83120000D01*
X127800000Y-83120000D01*
X127800000Y-81666205D01*
X130159047Y-81666205D01*
X130380000Y-81887157D01*
X130380001Y-81887157D01*
X130600952Y-81666205D01*
X130600951Y-81666204D01*
X130523581Y-81634157D01*
X130523583Y-81634157D01*
X130380001Y-81615254D01*
X130379999Y-81615254D01*
X130236421Y-81634157D01*
X130159047Y-81666205D01*
X127800000Y-81666205D01*
X127800000Y-81268996D01*
X127819684Y-81201961D01*
X127872488Y-81156206D01*
X127941646Y-81146262D01*
X127943397Y-81146527D01*
X127999998Y-81155492D01*
X128000000Y-81155492D01*
X128000003Y-81155492D01*
X128125300Y-81135647D01*
X128125301Y-81135647D01*
X128125302Y-81135646D01*
X128125304Y-81135646D01*
X128238342Y-81078050D01*
X128280071Y-81036320D01*
X128341395Y-81002834D01*
X128367754Y-81000000D01*
X132676000Y-81000000D01*
X132743039Y-81019685D01*
G37*
%TD.AperFunction*%
%TD*%
%TA.AperFunction,Conductor*%
%TO.N,GND*%
G36*
X137002695Y-39000735D02*
G01*
X137045519Y-39004482D01*
X137171771Y-39016918D01*
X137191685Y-39020541D01*
X137258349Y-39038403D01*
X137351570Y-39066682D01*
X137367971Y-39072958D01*
X137435411Y-39104406D01*
X137438375Y-39105888D01*
X137475969Y-39125982D01*
X137522327Y-39150762D01*
X137528667Y-39154657D01*
X137594828Y-39200983D01*
X137598600Y-39203844D01*
X137670808Y-39263103D01*
X137675309Y-39267182D01*
X137732815Y-39324688D01*
X137736895Y-39329190D01*
X137796154Y-39401398D01*
X137799015Y-39405170D01*
X137845341Y-39471331D01*
X137849236Y-39477671D01*
X137894101Y-39561605D01*
X137895614Y-39564631D01*
X137927040Y-39632027D01*
X137933319Y-39648435D01*
X137961601Y-39741669D01*
X137979454Y-39808299D01*
X137983082Y-39828238D01*
X137995523Y-39954554D01*
X137999264Y-39997302D01*
X137999500Y-40002710D01*
X137999500Y-56738839D01*
X137979815Y-56805878D01*
X137927011Y-56851633D01*
X137857853Y-56861577D01*
X137856094Y-56861311D01*
X137849644Y-56860289D01*
X137832443Y-56856290D01*
X137807636Y-56848625D01*
X137807633Y-56848624D01*
X137789298Y-56848889D01*
X137768119Y-56847376D01*
X137750005Y-56844508D01*
X137750002Y-56844508D01*
X137750000Y-56844508D01*
X137724012Y-56848624D01*
X137721114Y-56849083D01*
X137717193Y-56849576D01*
X137712703Y-56849996D01*
X137684492Y-56854882D01*
X137622489Y-56864703D01*
X137610121Y-56867766D01*
X137322584Y-56917579D01*
X137296321Y-56921461D01*
X137296276Y-56921471D01*
X137295431Y-56921736D01*
X137287553Y-56923644D01*
X137286695Y-56923793D01*
X137286635Y-56923808D01*
X137261509Y-56932375D01*
X136918538Y-57039909D01*
X136893017Y-57047221D01*
X136893003Y-57047226D01*
X136892201Y-57047600D01*
X136884588Y-57050552D01*
X136883747Y-57050815D01*
X136883731Y-57050822D01*
X136867840Y-57058713D01*
X136859949Y-57062632D01*
X136726776Y-57124696D01*
X136534161Y-57214462D01*
X136509819Y-57225081D01*
X136509809Y-57225086D01*
X136509055Y-57225568D01*
X136501900Y-57229497D01*
X136501104Y-57229868D01*
X136501095Y-57229872D01*
X136479085Y-57244710D01*
X136479085Y-57244711D01*
X136176175Y-57438186D01*
X136153434Y-57451931D01*
X136153431Y-57451933D01*
X136153414Y-57451945D01*
X136152741Y-57452513D01*
X136146161Y-57457357D01*
X136145426Y-57457826D01*
X136145417Y-57457833D01*
X136145415Y-57457834D01*
X136145416Y-57457834D01*
X136125565Y-57475437D01*
X135864693Y-57695477D01*
X135850804Y-57707192D01*
X135830090Y-57723802D01*
X135830071Y-57723820D01*
X135829466Y-57724485D01*
X135823606Y-57730131D01*
X135822929Y-57730702D01*
X135822913Y-57730718D01*
X135805558Y-57750786D01*
X135563749Y-58016774D01*
X135545423Y-58035956D01*
X135545394Y-58035991D01*
X135544891Y-58036718D01*
X135539852Y-58043056D01*
X135539250Y-58043718D01*
X135539229Y-58043746D01*
X135539226Y-58043751D01*
X135524650Y-58065962D01*
X135320077Y-58361468D01*
X135317154Y-58365475D01*
X135304423Y-58382924D01*
X135304405Y-58382952D01*
X135303999Y-58383746D01*
X135299824Y-58390721D01*
X135299319Y-58391450D01*
X135299306Y-58391473D01*
X135287797Y-58415392D01*
X135246788Y-58495481D01*
X135123983Y-58735312D01*
X135111293Y-58758651D01*
X135111287Y-58758665D01*
X135110989Y-58759506D01*
X135107759Y-58766997D01*
X135107357Y-58767781D01*
X135107345Y-58767811D01*
X135099100Y-58793012D01*
X135001315Y-59068615D01*
X134994194Y-59082392D01*
X134995054Y-59082815D01*
X134990751Y-59091573D01*
X134974478Y-59144255D01*
X134966706Y-59166160D01*
X134966704Y-59166168D01*
X134965838Y-59170823D01*
X134964125Y-59177771D01*
X134962732Y-59182280D01*
X134962728Y-59182296D01*
X134959428Y-59205292D01*
X134949344Y-59259517D01*
X134949083Y-59269268D01*
X134948123Y-59269242D01*
X134948027Y-59284748D01*
X134863276Y-59875398D01*
X134858602Y-59892147D01*
X134858967Y-59892239D01*
X134856603Y-59901697D01*
X134852448Y-59948910D01*
X134851924Y-59953173D01*
X134849498Y-59968487D01*
X134849275Y-59971319D01*
X134849083Y-59974318D01*
X134849197Y-59982148D01*
X134848965Y-59988480D01*
X134848279Y-59996285D01*
X134848278Y-59996291D01*
X134849351Y-60011728D01*
X134849500Y-60016024D01*
X134849500Y-60031525D01*
X134849855Y-60036045D01*
X134850039Y-60039997D01*
X134850465Y-60069257D01*
X134852132Y-60078868D01*
X134851760Y-60078932D01*
X134855198Y-60095985D01*
X134875765Y-60392267D01*
X134876996Y-60419056D01*
X134876999Y-60419083D01*
X134877111Y-60419626D01*
X134878227Y-60427768D01*
X134878267Y-60428339D01*
X134878270Y-60428360D01*
X134884296Y-60454525D01*
X134957024Y-60807848D01*
X134961816Y-60834238D01*
X134961818Y-60834245D01*
X134962003Y-60834773D01*
X134964199Y-60842712D01*
X134964311Y-60843256D01*
X134964319Y-60843285D01*
X134973782Y-60868422D01*
X135092952Y-61208873D01*
X135101221Y-61234394D01*
X135101223Y-61234397D01*
X135101470Y-61234883D01*
X135104722Y-61242501D01*
X135104904Y-61243021D01*
X135104904Y-61243023D01*
X135112393Y-61256936D01*
X135117625Y-61266656D01*
X135281128Y-61588206D01*
X135292726Y-61612399D01*
X135292728Y-61612402D01*
X135292734Y-61612413D01*
X135293041Y-61612857D01*
X135297272Y-61619959D01*
X135297518Y-61620443D01*
X135297526Y-61620456D01*
X135297531Y-61620465D01*
X135313287Y-61642189D01*
X135518189Y-61939066D01*
X135532912Y-61961501D01*
X135532917Y-61961506D01*
X135532918Y-61961508D01*
X135533288Y-61961916D01*
X135538423Y-61968383D01*
X135538736Y-61968837D01*
X135538745Y-61968848D01*
X135538750Y-61968855D01*
X135538756Y-61968861D01*
X135557261Y-61988285D01*
X135799908Y-62255196D01*
X135817492Y-62275471D01*
X135817914Y-62275826D01*
X135823871Y-62281557D01*
X135824250Y-62281974D01*
X135824259Y-62281982D01*
X135845187Y-62298765D01*
X136121275Y-62530971D01*
X136141384Y-62548702D01*
X136141390Y-62548707D01*
X136141850Y-62548999D01*
X136148514Y-62553882D01*
X136148942Y-62554242D01*
X136148953Y-62554250D01*
X136148956Y-62554252D01*
X136160458Y-62561180D01*
X136171961Y-62568110D01*
X136363258Y-62689535D01*
X136476475Y-62761399D01*
X136498809Y-62776319D01*
X136499299Y-62776544D01*
X136506595Y-62780518D01*
X136507054Y-62780809D01*
X136507059Y-62780811D01*
X136507062Y-62780813D01*
X136515352Y-62784401D01*
X136531663Y-62791461D01*
X136798667Y-62914520D01*
X136811992Y-62923009D01*
X136812442Y-62922269D01*
X136820783Y-62927330D01*
X136820785Y-62927331D01*
X136820789Y-62927334D01*
X136871441Y-62948060D01*
X136892157Y-62957608D01*
X136897170Y-62959021D01*
X136903834Y-62961314D01*
X136908670Y-62963294D01*
X136930881Y-62968525D01*
X136983548Y-62983374D01*
X136983548Y-62983373D01*
X136983549Y-62983374D01*
X136993248Y-62984521D01*
X136993145Y-62985383D01*
X137008877Y-62986895D01*
X137596643Y-63125338D01*
X137624508Y-63135550D01*
X137624696Y-63135646D01*
X137670372Y-63142879D01*
X137674875Y-63143764D01*
X137688859Y-63147059D01*
X137697761Y-63147720D01*
X137701189Y-63147976D01*
X137706289Y-63148568D01*
X137750000Y-63155492D01*
X137752464Y-63155101D01*
X137781057Y-63153916D01*
X137783552Y-63154102D01*
X137826550Y-63143582D01*
X137831576Y-63142570D01*
X137856106Y-63138686D01*
X137925397Y-63147642D01*
X137978848Y-63192639D01*
X137999487Y-63259391D01*
X137999500Y-63261160D01*
X137999500Y-99496514D01*
X137999110Y-99503462D01*
X137996530Y-99526351D01*
X137986066Y-99605829D01*
X137980169Y-99630597D01*
X137968223Y-99664735D01*
X137966983Y-99667984D01*
X137944536Y-99722180D01*
X137934967Y-99740702D01*
X137913097Y-99775508D01*
X137909786Y-99780267D01*
X137873005Y-99828200D01*
X137867653Y-99834304D01*
X137834304Y-99867653D01*
X137828200Y-99873005D01*
X137780267Y-99909786D01*
X137775508Y-99913097D01*
X137740702Y-99934967D01*
X137722180Y-99944536D01*
X137667984Y-99966983D01*
X137664735Y-99968223D01*
X137630597Y-99980169D01*
X137605829Y-99986066D01*
X137526351Y-99996530D01*
X137505688Y-99998859D01*
X137503460Y-99999110D01*
X137496514Y-99999500D01*
X129507936Y-99999500D01*
X129483437Y-99992306D01*
X129432830Y-99998969D01*
X129424728Y-99999500D01*
X129368604Y-99999500D01*
X129360930Y-100001252D01*
X129337208Y-99999797D01*
X129309941Y-100011092D01*
X129290085Y-100017420D01*
X129258650Y-100024595D01*
X129258647Y-100024596D01*
X129237006Y-100035018D01*
X129211104Y-100039282D01*
X129192526Y-100053538D01*
X129170844Y-100066881D01*
X129157034Y-100073531D01*
X129157027Y-100073536D01*
X129127644Y-100096968D01*
X129101094Y-100107806D01*
X129089878Y-100122424D01*
X129073728Y-100138880D01*
X129073778Y-100138930D01*
X129063930Y-100148778D01*
X129063880Y-100148728D01*
X129047424Y-100164878D01*
X129038757Y-100171527D01*
X129038118Y-100176173D01*
X129021968Y-100202644D01*
X128998536Y-100232027D01*
X128998531Y-100232034D01*
X128991881Y-100245844D01*
X128978538Y-100267526D01*
X128970113Y-100278504D01*
X128970308Y-100280325D01*
X128960018Y-100312006D01*
X128949596Y-100333647D01*
X128949595Y-100333650D01*
X128942420Y-100365085D01*
X128936092Y-100384941D01*
X128928971Y-100402133D01*
X128926252Y-100435930D01*
X128924500Y-100443604D01*
X128924500Y-100499727D01*
X128923969Y-100507828D01*
X128918868Y-100546572D01*
X128924500Y-100582981D01*
X128924500Y-100876000D01*
X128904815Y-100943039D01*
X128852011Y-100988794D01*
X128800500Y-101000000D01*
X122315972Y-101000000D01*
X122248933Y-100980315D01*
X122203178Y-100927511D01*
X122195575Y-100905676D01*
X122195345Y-100904746D01*
X122190601Y-100885496D01*
X122167897Y-100842238D01*
X122164672Y-100826140D01*
X122154619Y-100813039D01*
X122143199Y-100795179D01*
X122122831Y-100756372D01*
X122122830Y-100756371D01*
X122084620Y-100713239D01*
X122076995Y-100697016D01*
X122065358Y-100688087D01*
X122048029Y-100671937D01*
X122026131Y-100647218D01*
X121972029Y-100609875D01*
X121959815Y-100594804D01*
X121947916Y-100589875D01*
X121924931Y-100577365D01*
X121906120Y-100564381D01*
X121906118Y-100564380D01*
X121906116Y-100564379D01*
X121881570Y-100555070D01*
X121837336Y-100538294D01*
X121820808Y-100525779D01*
X121809877Y-100524340D01*
X121782095Y-100517344D01*
X121769766Y-100512668D01*
X121769762Y-100512667D01*
X121698002Y-100503954D01*
X121689120Y-100502875D01*
X121668983Y-100494208D01*
X121659956Y-100495397D01*
X121628831Y-100495555D01*
X121625000Y-100495090D01*
X121624996Y-100495090D01*
X121621164Y-100495555D01*
X121590353Y-100495398D01*
X121589952Y-100495703D01*
X121560878Y-100502876D01*
X121480237Y-100512667D01*
X121480233Y-100512668D01*
X121467908Y-100517343D01*
X121440125Y-100524339D01*
X121438518Y-100524550D01*
X121412662Y-100538295D01*
X121390838Y-100546572D01*
X121343884Y-100564379D01*
X121343883Y-100564379D01*
X121343882Y-100564380D01*
X121325070Y-100577365D01*
X121302085Y-100589874D01*
X121298391Y-100591403D01*
X121277969Y-100609876D01*
X121219938Y-100649931D01*
X121153583Y-100671813D01*
X121085932Y-100654347D01*
X121038462Y-100603079D01*
X121025500Y-100547884D01*
X121025500Y-98990672D01*
X121045185Y-98923633D01*
X121097989Y-98877879D01*
X121167147Y-98867935D01*
X121230703Y-98896960D01*
X121242318Y-98908449D01*
X121247264Y-98914032D01*
X121247267Y-98914036D01*
X121365510Y-99018789D01*
X121365512Y-99018790D01*
X121505384Y-99092202D01*
X121658764Y-99130006D01*
X121658765Y-99130006D01*
X121816735Y-99130006D01*
X121970115Y-99092202D01*
X122018018Y-99067060D01*
X122109990Y-99018789D01*
X122146093Y-98986804D01*
X122209327Y-98957082D01*
X122278590Y-98966266D01*
X122285947Y-98969823D01*
X122367634Y-99012696D01*
X122521014Y-99050500D01*
X122521015Y-99050500D01*
X122678985Y-99050500D01*
X122832365Y-99012696D01*
X122832364Y-99012695D01*
X122972240Y-98939283D01*
X123090483Y-98834530D01*
X123180220Y-98704523D01*
X123236237Y-98556818D01*
X123255278Y-98400000D01*
X123250044Y-98356889D01*
X123236237Y-98243181D01*
X123183651Y-98104524D01*
X123180220Y-98095477D01*
X123090483Y-97965470D01*
X122972240Y-97860717D01*
X122972238Y-97860716D01*
X122972237Y-97860715D01*
X122832366Y-97787304D01*
X122730706Y-97762247D01*
X122672700Y-97729531D01*
X121377941Y-96434772D01*
X121370499Y-96426804D01*
X121334755Y-96388531D01*
X121298775Y-96366651D01*
X121293529Y-96363081D01*
X121278462Y-96351655D01*
X121259976Y-96337636D01*
X121251406Y-96334256D01*
X121244485Y-96331527D01*
X121225553Y-96322124D01*
X121211329Y-96313474D01*
X121170785Y-96302113D01*
X121164766Y-96300089D01*
X121131025Y-96286784D01*
X121125589Y-96284641D01*
X121125585Y-96284640D01*
X121125583Y-96284640D01*
X121109022Y-96282937D01*
X121088255Y-96278990D01*
X121072231Y-96274500D01*
X121072228Y-96274500D01*
X121030120Y-96274500D01*
X121023778Y-96274175D01*
X121005853Y-96272332D01*
X120981892Y-96269869D01*
X120981888Y-96269869D01*
X120972576Y-96271474D01*
X120965485Y-96272697D01*
X120944420Y-96274500D01*
X118574178Y-96274500D01*
X118507139Y-96254815D01*
X118461384Y-96202011D01*
X118451082Y-96165446D01*
X118449366Y-96151310D01*
X118436237Y-96043182D01*
X118380220Y-95895477D01*
X118290483Y-95765470D01*
X118172240Y-95660717D01*
X118172238Y-95660716D01*
X118172237Y-95660715D01*
X118032365Y-95587303D01*
X117878986Y-95549500D01*
X117878985Y-95549500D01*
X117721015Y-95549500D01*
X117721014Y-95549500D01*
X117567634Y-95587303D01*
X117428561Y-95660296D01*
X117370935Y-95674500D01*
X114669031Y-95674500D01*
X114601992Y-95654815D01*
X114581350Y-95638181D01*
X114385831Y-95442662D01*
X114352346Y-95381339D01*
X114350416Y-95340038D01*
X114355278Y-95300000D01*
X114336237Y-95143182D01*
X114280220Y-94995477D01*
X114190483Y-94865470D01*
X114072240Y-94760717D01*
X114072238Y-94760716D01*
X114072237Y-94760715D01*
X113932365Y-94687303D01*
X113778986Y-94649500D01*
X113778985Y-94649500D01*
X113621015Y-94649500D01*
X113621014Y-94649500D01*
X113467634Y-94687303D01*
X113327762Y-94760715D01*
X113209512Y-94865474D01*
X113204543Y-94871084D01*
X113202677Y-94869431D01*
X113157688Y-94905869D01*
X113088237Y-94913507D01*
X113025682Y-94882386D01*
X113022274Y-94879105D01*
X112961819Y-94818650D01*
X112928334Y-94757327D01*
X112925500Y-94730969D01*
X112925500Y-94422438D01*
X112945185Y-94355399D01*
X112947427Y-94352030D01*
X112980220Y-94304523D01*
X113036237Y-94156818D01*
X113055278Y-94000000D01*
X113053737Y-93987304D01*
X113036237Y-93843181D01*
X113005380Y-93761819D01*
X112980220Y-93695477D01*
X112890483Y-93565470D01*
X112772240Y-93460717D01*
X112772238Y-93460716D01*
X112772237Y-93460715D01*
X112632365Y-93387303D01*
X112478986Y-93349500D01*
X112478985Y-93349500D01*
X112321015Y-93349500D01*
X112321014Y-93349500D01*
X112167634Y-93387303D01*
X112027762Y-93460715D01*
X111909516Y-93565471D01*
X111819781Y-93695475D01*
X111819780Y-93695476D01*
X111763763Y-93843181D01*
X111762091Y-93856951D01*
X111734469Y-93921129D01*
X111676534Y-93960185D01*
X111668670Y-93962401D01*
X111567633Y-93987304D01*
X111427762Y-94060715D01*
X111309516Y-94165471D01*
X111219781Y-94295475D01*
X111219780Y-94295476D01*
X111163762Y-94443181D01*
X111144722Y-94599999D01*
X111144722Y-94600000D01*
X111163762Y-94756818D01*
X111219779Y-94904521D01*
X111219780Y-94904523D01*
X111252550Y-94951999D01*
X111274433Y-95018352D01*
X111274500Y-95022438D01*
X111274500Y-95108740D01*
X111254815Y-95175779D01*
X111208127Y-95218536D01*
X111127761Y-95260716D01*
X111009516Y-95365471D01*
X110919781Y-95495475D01*
X110919780Y-95495476D01*
X110863762Y-95643181D01*
X110844722Y-95799999D01*
X110844722Y-95800000D01*
X110863762Y-95956818D01*
X110919780Y-96104523D01*
X110985682Y-96199999D01*
X111006086Y-96229559D01*
X111027969Y-96295913D01*
X111010504Y-96363565D01*
X111006087Y-96370438D01*
X110919780Y-96495476D01*
X110863762Y-96643181D01*
X110844722Y-96799999D01*
X110844722Y-96800000D01*
X110863762Y-96956818D01*
X110919780Y-97104523D01*
X110919781Y-97104524D01*
X111006086Y-97229560D01*
X111027969Y-97295915D01*
X111010503Y-97363566D01*
X111006086Y-97370440D01*
X110919781Y-97495475D01*
X110919780Y-97495476D01*
X110863762Y-97643181D01*
X110844722Y-97799999D01*
X110844722Y-97800000D01*
X110863762Y-97956818D01*
X110919780Y-98104523D01*
X110919781Y-98104524D01*
X110988830Y-98204560D01*
X111010713Y-98270915D01*
X110993247Y-98338566D01*
X110988830Y-98345440D01*
X110919781Y-98445475D01*
X110919780Y-98445476D01*
X110863762Y-98593181D01*
X110844722Y-98749999D01*
X110844722Y-98750000D01*
X110863762Y-98906818D01*
X110906228Y-99018789D01*
X110919780Y-99054523D01*
X111009517Y-99184530D01*
X111127760Y-99289283D01*
X111127762Y-99289284D01*
X111267634Y-99362696D01*
X111421014Y-99400500D01*
X111421015Y-99400500D01*
X111578985Y-99400500D01*
X111732365Y-99362696D01*
X111732367Y-99362694D01*
X111734387Y-99362197D01*
X111804189Y-99365266D01*
X111851743Y-99394913D01*
X112072073Y-99615243D01*
X112115245Y-99661469D01*
X112151220Y-99683346D01*
X112156454Y-99686907D01*
X112190025Y-99712365D01*
X112190028Y-99712366D01*
X112190028Y-99712367D01*
X112205509Y-99718471D01*
X112224451Y-99727878D01*
X112238672Y-99736526D01*
X112279225Y-99747887D01*
X112285223Y-99749905D01*
X112324411Y-99765359D01*
X112340977Y-99767061D01*
X112361741Y-99771008D01*
X112377772Y-99775500D01*
X112419872Y-99775500D01*
X112426213Y-99775824D01*
X112468110Y-99780132D01*
X112484517Y-99777303D01*
X112505586Y-99775500D01*
X117180968Y-99775500D01*
X117248007Y-99795185D01*
X117268649Y-99811819D01*
X117938180Y-100481350D01*
X117971665Y-100542673D01*
X117974499Y-100569031D01*
X117974500Y-100876000D01*
X117954816Y-100943039D01*
X117902012Y-100988794D01*
X117850500Y-101000000D01*
X111149500Y-101000000D01*
X111082461Y-100980315D01*
X111036706Y-100927511D01*
X111025500Y-100876000D01*
X111025500Y-100758983D01*
X111025589Y-100756371D01*
X111027477Y-100701108D01*
X111030511Y-100677769D01*
X111050500Y-100590194D01*
X111050500Y-100409806D01*
X111050499Y-100409804D01*
X111050499Y-100409799D01*
X111010360Y-100233939D01*
X110932092Y-100071415D01*
X110932091Y-100071414D01*
X110932091Y-100071413D01*
X110847826Y-99965748D01*
X110036818Y-99154741D01*
X110003334Y-99093418D01*
X110000500Y-99067060D01*
X110000500Y-91909805D01*
X110000499Y-91909802D01*
X109999002Y-91903243D01*
X109991203Y-91869076D01*
X109990044Y-91862251D01*
X109985368Y-91820745D01*
X109971574Y-91781324D01*
X109969652Y-91774655D01*
X109960359Y-91733939D01*
X109942245Y-91696326D01*
X109939583Y-91689898D01*
X109925789Y-91650478D01*
X109924466Y-91648372D01*
X109903563Y-91615106D01*
X109900213Y-91609044D01*
X109882091Y-91571413D01*
X109856049Y-91538757D01*
X109852038Y-91533104D01*
X109838017Y-91510790D01*
X109829818Y-91497740D01*
X105687262Y-87355184D01*
X105687259Y-87355182D01*
X105651904Y-87332966D01*
X105646229Y-87328940D01*
X105613589Y-87302910D01*
X105575959Y-87284787D01*
X105569872Y-87281422D01*
X105534525Y-87259212D01*
X105495114Y-87245421D01*
X105488688Y-87242759D01*
X105451061Y-87224639D01*
X105410345Y-87215345D01*
X105403662Y-87213420D01*
X105364259Y-87199632D01*
X105322763Y-87194955D01*
X105315908Y-87193791D01*
X105275200Y-87184501D01*
X105275196Y-87184500D01*
X105275194Y-87184500D01*
X105275191Y-87184500D01*
X104236130Y-87184500D01*
X104169091Y-87164815D01*
X104132323Y-87128324D01*
X104121649Y-87111986D01*
X103962658Y-86939275D01*
X103962653Y-86939271D01*
X103962651Y-86939269D01*
X103777415Y-86795094D01*
X103777409Y-86795090D01*
X103570953Y-86683361D01*
X103570944Y-86683358D01*
X103348924Y-86607138D01*
X103117375Y-86568500D01*
X102882625Y-86568500D01*
X102651075Y-86607138D01*
X102429055Y-86683358D01*
X102429046Y-86683361D01*
X102222590Y-86795090D01*
X102222584Y-86795094D01*
X102037348Y-86939269D01*
X102037345Y-86939272D01*
X101878346Y-87111991D01*
X101749955Y-87308510D01*
X101655657Y-87523486D01*
X101598030Y-87751049D01*
X101598028Y-87751060D01*
X101578645Y-87984993D01*
X101578645Y-87985006D01*
X101598028Y-88218939D01*
X101598030Y-88218950D01*
X101655657Y-88446513D01*
X101749955Y-88661489D01*
X101875879Y-88854232D01*
X101896067Y-88921122D01*
X101876886Y-88988307D01*
X101824427Y-89034457D01*
X101815404Y-89038235D01*
X101741912Y-89065646D01*
X101741906Y-89065649D01*
X101626812Y-89151809D01*
X101626809Y-89151812D01*
X101540649Y-89266906D01*
X101540645Y-89266913D01*
X101490403Y-89401620D01*
X101490401Y-89401627D01*
X101484000Y-89461155D01*
X101484000Y-90275000D01*
X102556804Y-90275000D01*
X102533155Y-90311799D01*
X102492000Y-90451961D01*
X102492000Y-90598039D01*
X102533155Y-90738201D01*
X102556804Y-90775000D01*
X101484000Y-90775000D01*
X101484000Y-91588844D01*
X101490401Y-91648372D01*
X101490403Y-91648379D01*
X101540645Y-91783086D01*
X101540649Y-91783093D01*
X101626809Y-91898187D01*
X101626812Y-91898190D01*
X101741906Y-91984350D01*
X101741913Y-91984354D01*
X101876620Y-92034596D01*
X101876627Y-92034598D01*
X101936155Y-92040999D01*
X101936172Y-92041000D01*
X102750000Y-92041000D01*
X102750000Y-90969297D01*
X102855408Y-91017435D01*
X102963666Y-91033000D01*
X103036334Y-91033000D01*
X103144592Y-91017435D01*
X103249999Y-90969297D01*
X103249999Y-92041000D01*
X104063828Y-92041000D01*
X104063844Y-92040999D01*
X104123372Y-92034598D01*
X104123379Y-92034596D01*
X104258086Y-91984354D01*
X104258093Y-91984350D01*
X104373187Y-91898190D01*
X104373190Y-91898187D01*
X104459350Y-91783093D01*
X104459354Y-91783086D01*
X104509596Y-91648379D01*
X104509598Y-91648372D01*
X104515999Y-91588844D01*
X104516000Y-91588827D01*
X104516000Y-90775000D01*
X103443196Y-90775000D01*
X103466845Y-90738201D01*
X103508000Y-90598039D01*
X103508000Y-90451961D01*
X103466845Y-90311799D01*
X103443196Y-90275000D01*
X104516000Y-90275000D01*
X104516000Y-89461172D01*
X104515999Y-89461155D01*
X104509598Y-89401627D01*
X104509596Y-89401620D01*
X104459354Y-89266913D01*
X104459350Y-89266906D01*
X104373190Y-89151812D01*
X104373187Y-89151809D01*
X104258093Y-89065649D01*
X104258086Y-89065645D01*
X104184595Y-89038235D01*
X104128661Y-88996364D01*
X104104244Y-88930899D01*
X104119096Y-88862626D01*
X104124109Y-88854248D01*
X104132325Y-88841673D01*
X104185472Y-88796320D01*
X104236130Y-88785500D01*
X104802060Y-88785500D01*
X104869099Y-88805185D01*
X104889741Y-88821819D01*
X108363180Y-92295258D01*
X108396665Y-92356581D01*
X108399499Y-92382939D01*
X108399500Y-99359806D01*
X108399500Y-99540191D01*
X108399501Y-99540200D01*
X108408791Y-99580908D01*
X108409955Y-99587763D01*
X108414632Y-99629259D01*
X108428420Y-99668662D01*
X108430345Y-99675345D01*
X108439639Y-99716061D01*
X108457759Y-99753688D01*
X108460421Y-99760114D01*
X108474212Y-99799525D01*
X108474213Y-99799527D01*
X108480497Y-99809527D01*
X108499498Y-99876764D01*
X108479131Y-99943599D01*
X108425863Y-99988814D01*
X108375504Y-99999500D01*
X100553482Y-99999500D01*
X100546542Y-99999110D01*
X100528154Y-99997038D01*
X100523659Y-99996532D01*
X100432067Y-99984473D01*
X100407299Y-99978575D01*
X100369469Y-99965338D01*
X100366219Y-99964097D01*
X100304355Y-99938472D01*
X100285836Y-99928905D01*
X100247115Y-99904575D01*
X100242355Y-99901264D01*
X100188358Y-99859831D01*
X100182261Y-99854485D01*
X100145512Y-99817736D01*
X100140167Y-99811640D01*
X100098734Y-99757643D01*
X100095423Y-99752883D01*
X100085145Y-99736525D01*
X100071091Y-99714159D01*
X100061526Y-99695643D01*
X100050069Y-99667984D01*
X100035897Y-99633769D01*
X100034674Y-99630566D01*
X100021421Y-99592692D01*
X100015526Y-99567937D01*
X100003468Y-99476349D01*
X100000890Y-99453458D01*
X100000500Y-99446513D01*
X100000500Y-97250000D01*
X104499999Y-97250000D01*
X104500000Y-97250000D01*
X104746007Y-97250000D01*
X104809128Y-97267268D01*
X104869809Y-97303154D01*
X105000000Y-97340977D01*
X105012438Y-97331638D01*
X105019685Y-97306961D01*
X105072489Y-97261206D01*
X105124000Y-97250000D01*
X105376000Y-97250000D01*
X105443039Y-97269685D01*
X105488794Y-97322489D01*
X105491413Y-97334531D01*
X105499999Y-97340977D01*
X105630190Y-97303154D01*
X105630191Y-97303154D01*
X105690872Y-97267268D01*
X105753993Y-97250000D01*
X105770980Y-97250000D01*
X105778371Y-97250441D01*
X105778856Y-97250500D01*
X105778858Y-97250500D01*
X106121142Y-97250500D01*
X106121144Y-97250500D01*
X106121628Y-97250441D01*
X106129020Y-97250000D01*
X107250000Y-97250000D01*
X107250000Y-96878400D01*
X107269685Y-96811361D01*
X107316373Y-96768604D01*
X107372240Y-96739283D01*
X107490483Y-96634530D01*
X107580220Y-96504523D01*
X107636237Y-96356818D01*
X107655278Y-96200000D01*
X107651086Y-96165471D01*
X107636237Y-96043181D01*
X107611774Y-95978679D01*
X107580220Y-95895477D01*
X107490483Y-95765470D01*
X107372240Y-95660717D01*
X107372238Y-95660716D01*
X107372237Y-95660715D01*
X107232365Y-95587303D01*
X107078986Y-95549500D01*
X107078985Y-95549500D01*
X106921015Y-95549500D01*
X106921014Y-95549500D01*
X106767634Y-95587303D01*
X106627762Y-95660715D01*
X106509516Y-95765471D01*
X106419781Y-95895475D01*
X106419779Y-95895478D01*
X106415297Y-95907297D01*
X106373119Y-95962999D01*
X106307521Y-95987055D01*
X106253867Y-95978679D01*
X106224041Y-95966917D01*
X106205588Y-95959640D01*
X106162242Y-95954435D01*
X106121144Y-95949500D01*
X105778856Y-95949500D01*
X105776146Y-95949825D01*
X105771008Y-95950442D01*
X105702100Y-95938885D01*
X105693114Y-95934058D01*
X105630186Y-95896843D01*
X105630185Y-95896842D01*
X105500001Y-95859020D01*
X105500000Y-95859021D01*
X105500000Y-95876000D01*
X105480315Y-95943039D01*
X105427511Y-95988794D01*
X105376000Y-96000000D01*
X105124000Y-96000000D01*
X105056961Y-95980315D01*
X105011206Y-95927511D01*
X105000000Y-95876000D01*
X105000000Y-95859021D01*
X104999998Y-95859020D01*
X104869814Y-95896842D01*
X104869811Y-95896844D01*
X104727174Y-95981199D01*
X104725762Y-95978812D01*
X104673051Y-95999513D01*
X104662077Y-96000000D01*
X104500000Y-96000000D01*
X104499999Y-97250000D01*
X100000500Y-97250000D01*
X100000500Y-77204733D01*
X100020185Y-77137694D01*
X100072989Y-77091939D01*
X100142147Y-77081995D01*
X100205703Y-77111020D01*
X100212167Y-77117038D01*
X101808603Y-78713474D01*
X103501557Y-80406428D01*
X103518189Y-80427066D01*
X103520797Y-80431125D01*
X103520800Y-80431128D01*
X103560010Y-80465103D01*
X103563226Y-80468097D01*
X103574350Y-80479221D01*
X103574355Y-80479224D01*
X103574360Y-80479229D01*
X103586922Y-80488633D01*
X103590370Y-80491411D01*
X103620890Y-80517856D01*
X103629570Y-80525377D01*
X103633953Y-80527379D01*
X103656750Y-80540905D01*
X103660612Y-80543796D01*
X103709238Y-80561932D01*
X103713294Y-80563612D01*
X103735400Y-80573708D01*
X103760483Y-80585164D01*
X103760484Y-80585164D01*
X103760486Y-80585165D01*
X103765255Y-80585850D01*
X103790945Y-80592407D01*
X103795460Y-80594091D01*
X103847201Y-80597791D01*
X103851600Y-80598264D01*
X103867144Y-80600500D01*
X103882849Y-80600500D01*
X103887271Y-80600657D01*
X103939016Y-80604359D01*
X103943727Y-80603334D01*
X103970086Y-80600500D01*
X106841324Y-80600500D01*
X106908363Y-80620185D01*
X106929005Y-80636819D01*
X107071724Y-80779538D01*
X107105209Y-80840861D01*
X107107139Y-80852271D01*
X107113762Y-80906816D01*
X107113763Y-80906821D01*
X107169779Y-81054522D01*
X107169780Y-81054523D01*
X107259517Y-81184530D01*
X107377760Y-81289283D01*
X107377762Y-81289284D01*
X107517634Y-81362696D01*
X107671014Y-81400500D01*
X107671015Y-81400500D01*
X107828985Y-81400500D01*
X107982365Y-81362696D01*
X107982365Y-81362695D01*
X108122240Y-81289283D01*
X108240483Y-81184530D01*
X108330220Y-81054523D01*
X108386237Y-80906818D01*
X108405278Y-80750000D01*
X108404693Y-80745186D01*
X108386237Y-80593182D01*
X108383456Y-80585849D01*
X108336714Y-80462602D01*
X108331348Y-80392943D01*
X108364495Y-80331436D01*
X108425633Y-80297615D01*
X108495351Y-80302216D01*
X108510282Y-80308837D01*
X108517635Y-80312696D01*
X108671014Y-80350500D01*
X108671015Y-80350500D01*
X108828985Y-80350500D01*
X108982365Y-80312696D01*
X109020515Y-80292673D01*
X109122240Y-80239283D01*
X109240483Y-80134530D01*
X109330220Y-80004523D01*
X109386237Y-79856818D01*
X109405278Y-79700000D01*
X109386237Y-79543182D01*
X109330220Y-79395477D01*
X109240483Y-79265470D01*
X109122240Y-79160717D01*
X109122238Y-79160716D01*
X109122237Y-79160715D01*
X108982365Y-79087303D01*
X108828986Y-79049500D01*
X108828985Y-79049500D01*
X108671015Y-79049500D01*
X108671014Y-79049500D01*
X108517634Y-79087303D01*
X108377766Y-79160712D01*
X108377762Y-79160715D01*
X108377759Y-79160717D01*
X108377760Y-79160717D01*
X108369181Y-79168316D01*
X108305950Y-79198037D01*
X108286956Y-79199500D01*
X107801736Y-79199500D01*
X107734697Y-79179815D01*
X107688942Y-79127011D01*
X107678998Y-79057853D01*
X107699686Y-79005060D01*
X107706751Y-78994822D01*
X107773630Y-78897933D01*
X107829647Y-78750228D01*
X107848688Y-78593410D01*
X107847947Y-78587303D01*
X107829647Y-78436591D01*
X107799393Y-78356818D01*
X107773630Y-78288887D01*
X107683893Y-78158880D01*
X107565650Y-78054127D01*
X107565648Y-78054126D01*
X107565647Y-78054125D01*
X107425775Y-77980713D01*
X107272396Y-77942910D01*
X107272395Y-77942910D01*
X107178041Y-77942910D01*
X107111002Y-77923225D01*
X107075991Y-77889350D01*
X107061052Y-77867707D01*
X106990483Y-77765470D01*
X106872240Y-77660717D01*
X106872238Y-77660716D01*
X106872237Y-77660715D01*
X106732365Y-77587303D01*
X106578986Y-77549500D01*
X106578985Y-77549500D01*
X106421015Y-77549500D01*
X106421014Y-77549500D01*
X106267634Y-77587303D01*
X106127762Y-77660715D01*
X106009516Y-77765471D01*
X105919782Y-77895474D01*
X105919779Y-77895478D01*
X105910679Y-77919473D01*
X105868500Y-77975175D01*
X105802903Y-77999231D01*
X105794738Y-77999500D01*
X104258676Y-77999500D01*
X104191637Y-77979815D01*
X104170995Y-77963181D01*
X102521023Y-76313209D01*
X102487538Y-76251886D01*
X102492522Y-76182194D01*
X102534394Y-76126261D01*
X102599858Y-76101844D01*
X102638375Y-76105130D01*
X102721019Y-76125500D01*
X102878989Y-76125500D01*
X103032369Y-76087696D01*
X103032368Y-76087695D01*
X103172244Y-76014283D01*
X103290487Y-75909530D01*
X103380224Y-75779523D01*
X103436241Y-75631818D01*
X103455282Y-75475000D01*
X103450398Y-75434772D01*
X103436241Y-75318181D01*
X103410383Y-75250000D01*
X103380224Y-75170477D01*
X103290487Y-75040470D01*
X103172244Y-74935717D01*
X103172242Y-74935716D01*
X103172241Y-74935715D01*
X103032370Y-74862304D01*
X102883791Y-74825683D01*
X102825785Y-74792967D01*
X102536818Y-74504000D01*
X102503333Y-74442677D01*
X102500499Y-74416328D01*
X102500499Y-72400000D01*
X103544722Y-72400000D01*
X103563762Y-72556818D01*
X103616353Y-72695487D01*
X103619780Y-72704523D01*
X103709517Y-72834530D01*
X103827760Y-72939283D01*
X103967635Y-73012696D01*
X104069290Y-73037750D01*
X104127296Y-73070466D01*
X104889088Y-73832257D01*
X104922573Y-73893580D01*
X104917589Y-73963271D01*
X104903457Y-73990377D01*
X104826370Y-74102057D01*
X104826367Y-74102063D01*
X104770349Y-74249768D01*
X104751309Y-74406586D01*
X104751309Y-74406587D01*
X104770349Y-74563405D01*
X104807255Y-74660717D01*
X104826367Y-74711110D01*
X104916104Y-74841117D01*
X105034347Y-74945870D01*
X105174222Y-75019283D01*
X105275877Y-75044337D01*
X105333883Y-75077053D01*
X107022073Y-76765243D01*
X107065245Y-76811469D01*
X107101220Y-76833346D01*
X107106454Y-76836907D01*
X107140025Y-76862365D01*
X107140028Y-76862366D01*
X107140028Y-76862367D01*
X107155509Y-76868471D01*
X107174451Y-76877878D01*
X107188672Y-76886526D01*
X107229225Y-76897887D01*
X107235223Y-76899905D01*
X107274411Y-76915359D01*
X107290977Y-76917061D01*
X107311741Y-76921008D01*
X107327772Y-76925500D01*
X107369872Y-76925500D01*
X107376213Y-76925824D01*
X107418110Y-76930132D01*
X107434517Y-76927303D01*
X107455586Y-76925500D01*
X110930968Y-76925500D01*
X110998007Y-76945185D01*
X111018649Y-76961819D01*
X111582223Y-77525393D01*
X111615708Y-77586716D01*
X111610724Y-77656408D01*
X111576769Y-77705889D01*
X111509518Y-77765468D01*
X111419782Y-77895474D01*
X111419780Y-77895476D01*
X111363762Y-78043181D01*
X111344722Y-78199999D01*
X111344722Y-78200000D01*
X111363762Y-78356818D01*
X111401714Y-78456887D01*
X111419780Y-78504523D01*
X111509517Y-78634530D01*
X111627760Y-78739283D01*
X111767635Y-78812696D01*
X111869290Y-78837750D01*
X111927296Y-78870466D01*
X112199491Y-79142661D01*
X112232976Y-79203984D01*
X112227992Y-79273676D01*
X112186120Y-79329609D01*
X112141485Y-79350739D01*
X111993133Y-79387304D01*
X111853262Y-79460715D01*
X111735016Y-79565471D01*
X111645281Y-79695475D01*
X111645280Y-79695476D01*
X111589262Y-79843181D01*
X111570222Y-79999999D01*
X111570222Y-80000000D01*
X111589262Y-80156818D01*
X111620538Y-80239284D01*
X111645280Y-80304523D01*
X111735017Y-80434530D01*
X111853260Y-80539283D01*
X111933127Y-80581201D01*
X111983338Y-80629784D01*
X111999500Y-80690996D01*
X111999500Y-85932858D01*
X111996667Y-85959206D01*
X111995641Y-85963927D01*
X111995641Y-85963929D01*
X111995641Y-85963930D01*
X111999342Y-86015669D01*
X111999500Y-86020094D01*
X111999500Y-86035799D01*
X112001734Y-86051343D01*
X112002207Y-86055740D01*
X112005909Y-86107485D01*
X112007593Y-86112000D01*
X112014148Y-86137682D01*
X112014834Y-86142455D01*
X112014835Y-86142457D01*
X112036383Y-86189642D01*
X112038071Y-86193716D01*
X112056203Y-86242329D01*
X112059096Y-86246194D01*
X112072617Y-86268983D01*
X112074619Y-86273367D01*
X112074622Y-86273371D01*
X112074623Y-86273373D01*
X112108598Y-86312583D01*
X112111362Y-86316013D01*
X112120775Y-86328588D01*
X112120782Y-86328596D01*
X112131886Y-86339700D01*
X112134896Y-86342932D01*
X112162810Y-86375147D01*
X112168871Y-86382142D01*
X112168874Y-86382145D01*
X112172928Y-86384750D01*
X112193571Y-86401385D01*
X112663181Y-86870995D01*
X112696666Y-86932318D01*
X112699500Y-86958676D01*
X112699500Y-90425751D01*
X112696667Y-90452099D01*
X112695641Y-90456820D01*
X112695641Y-90456822D01*
X112695641Y-90456823D01*
X112699342Y-90508562D01*
X112699500Y-90512987D01*
X112699500Y-90528692D01*
X112701734Y-90544236D01*
X112702207Y-90548633D01*
X112705909Y-90600378D01*
X112707593Y-90604893D01*
X112714148Y-90630575D01*
X112714834Y-90635348D01*
X112714835Y-90635350D01*
X112736383Y-90682535D01*
X112738071Y-90686609D01*
X112756203Y-90735222D01*
X112756204Y-90735224D01*
X112759096Y-90739087D01*
X112772617Y-90761876D01*
X112774619Y-90766260D01*
X112774622Y-90766264D01*
X112774623Y-90766266D01*
X112808598Y-90805476D01*
X112811362Y-90808906D01*
X112820775Y-90821481D01*
X112820782Y-90821489D01*
X112831886Y-90832593D01*
X112834896Y-90835825D01*
X112841270Y-90843181D01*
X112868871Y-90875035D01*
X112868874Y-90875038D01*
X112872928Y-90877643D01*
X112893571Y-90894278D01*
X113218056Y-91218763D01*
X113251541Y-91280086D01*
X113246557Y-91349778D01*
X113204685Y-91405711D01*
X113188002Y-91416240D01*
X113103261Y-91460716D01*
X113103259Y-91460717D01*
X113103260Y-91460717D01*
X112986853Y-91563844D01*
X112985016Y-91565471D01*
X112895281Y-91695475D01*
X112895280Y-91695476D01*
X112839262Y-91843181D01*
X112820222Y-91999999D01*
X112820222Y-92000000D01*
X112839262Y-92156818D01*
X112895280Y-92304523D01*
X112946611Y-92378890D01*
X112963959Y-92415866D01*
X112964726Y-92418604D01*
X112971364Y-92433887D01*
X112978102Y-92453924D01*
X112982042Y-92470093D01*
X112982043Y-92470094D01*
X113002675Y-92506789D01*
X113005500Y-92512477D01*
X113022282Y-92551111D01*
X113032783Y-92564018D01*
X113044683Y-92581501D01*
X113052842Y-92596012D01*
X113082615Y-92625785D01*
X113086872Y-92630502D01*
X113113446Y-92663165D01*
X113127044Y-92672764D01*
X113143215Y-92686385D01*
X114022059Y-93565228D01*
X114065245Y-93611469D01*
X114101222Y-93633346D01*
X114106466Y-93636915D01*
X114140025Y-93662364D01*
X114155512Y-93668471D01*
X114174452Y-93677878D01*
X114188669Y-93686524D01*
X114188672Y-93686526D01*
X114213930Y-93693603D01*
X114229218Y-93697887D01*
X114235235Y-93699910D01*
X114274410Y-93715359D01*
X114290977Y-93717061D01*
X114311741Y-93721008D01*
X114327772Y-93725500D01*
X114369879Y-93725500D01*
X114376220Y-93725824D01*
X114418109Y-93730131D01*
X114434513Y-93727302D01*
X114455579Y-93725500D01*
X114930968Y-93725500D01*
X114998007Y-93745185D01*
X115018649Y-93761819D01*
X115822073Y-94565243D01*
X115865245Y-94611469D01*
X115883645Y-94622658D01*
X115901213Y-94633342D01*
X115906463Y-94636914D01*
X115940025Y-94662365D01*
X115955525Y-94668477D01*
X115974453Y-94677879D01*
X115988672Y-94686526D01*
X116029213Y-94697885D01*
X116035224Y-94699907D01*
X116045956Y-94704139D01*
X116074411Y-94715360D01*
X116079314Y-94715864D01*
X116090975Y-94717063D01*
X116111749Y-94721011D01*
X116122953Y-94724150D01*
X116127772Y-94725500D01*
X116169870Y-94725500D01*
X116176211Y-94725824D01*
X116218110Y-94730132D01*
X116228068Y-94728415D01*
X116234519Y-94727303D01*
X116255587Y-94725500D01*
X116915516Y-94725500D01*
X116978745Y-94727660D01*
X117019669Y-94717686D01*
X117025868Y-94716507D01*
X117067611Y-94710771D01*
X117082886Y-94704135D01*
X117102921Y-94697397D01*
X117119094Y-94693457D01*
X117155816Y-94672808D01*
X117161455Y-94670007D01*
X117200109Y-94653219D01*
X117213028Y-94642707D01*
X117230497Y-94630818D01*
X117245012Y-94622658D01*
X117274797Y-94592871D01*
X117279488Y-94588637D01*
X117312165Y-94562054D01*
X117321764Y-94548453D01*
X117335381Y-94532287D01*
X117597203Y-94270464D01*
X117655206Y-94237751D01*
X117756865Y-94212696D01*
X117896740Y-94139283D01*
X118014983Y-94034530D01*
X118104720Y-93904523D01*
X118160737Y-93756818D01*
X118179778Y-93600000D01*
X118160737Y-93443182D01*
X118133555Y-93371510D01*
X118125500Y-93327550D01*
X118125500Y-92208983D01*
X118127660Y-92145755D01*
X118117691Y-92104848D01*
X118116506Y-92098618D01*
X118110771Y-92056889D01*
X118104137Y-92041616D01*
X118097397Y-92021574D01*
X118096599Y-92018301D01*
X118093457Y-92005406D01*
X118093456Y-92005404D01*
X118093456Y-92005403D01*
X118072825Y-91968712D01*
X118069998Y-91963021D01*
X118053219Y-91924391D01*
X118053218Y-91924390D01*
X118042708Y-91911472D01*
X118030813Y-91893994D01*
X118022657Y-91879488D01*
X117992887Y-91849718D01*
X117988636Y-91845009D01*
X117962054Y-91812335D01*
X117948450Y-91802732D01*
X117932278Y-91789109D01*
X117561819Y-91418649D01*
X117528334Y-91357326D01*
X117525500Y-91330968D01*
X117525500Y-90422438D01*
X117545185Y-90355399D01*
X117547427Y-90352030D01*
X117580220Y-90304523D01*
X117636237Y-90156818D01*
X117655278Y-90000000D01*
X117636237Y-89843182D01*
X117580220Y-89695477D01*
X117490483Y-89565470D01*
X117372240Y-89460717D01*
X117372238Y-89460716D01*
X117372237Y-89460715D01*
X117232365Y-89387303D01*
X117078986Y-89349500D01*
X117078985Y-89349500D01*
X116921015Y-89349500D01*
X116921014Y-89349500D01*
X116767634Y-89387303D01*
X116627762Y-89460715D01*
X116509516Y-89565471D01*
X116419781Y-89695475D01*
X116419780Y-89695476D01*
X116363762Y-89843181D01*
X116344721Y-89999999D01*
X116344721Y-90000000D01*
X116363762Y-90156818D01*
X116399102Y-90250000D01*
X116419780Y-90304523D01*
X116452550Y-90351999D01*
X116474433Y-90418352D01*
X116474500Y-90422438D01*
X116474500Y-91431969D01*
X116454815Y-91499008D01*
X116402011Y-91544763D01*
X116332853Y-91554707D01*
X116269297Y-91525682D01*
X116262819Y-91519650D01*
X114761819Y-90018650D01*
X114728334Y-89957327D01*
X114725500Y-89930969D01*
X114725500Y-89767116D01*
X114745185Y-89700077D01*
X114797989Y-89654322D01*
X114819826Y-89646719D01*
X114957865Y-89612696D01*
X114957864Y-89612695D01*
X115097740Y-89539283D01*
X115215983Y-89434530D01*
X115305720Y-89304523D01*
X115361737Y-89156818D01*
X115363473Y-89142518D01*
X115391092Y-89078340D01*
X115398878Y-89069790D01*
X115865228Y-88603440D01*
X115911469Y-88560255D01*
X115933356Y-88524261D01*
X115936914Y-88519034D01*
X115962364Y-88485475D01*
X115968474Y-88469979D01*
X115977880Y-88451044D01*
X115986526Y-88436828D01*
X115997890Y-88396266D01*
X115999903Y-88390280D01*
X116015359Y-88351090D01*
X116017061Y-88334523D01*
X116021007Y-88313760D01*
X116025500Y-88297728D01*
X116025500Y-88255620D01*
X116025825Y-88249276D01*
X116030131Y-88207391D01*
X116027303Y-88190987D01*
X116025500Y-88169920D01*
X116025500Y-85497700D01*
X116045185Y-85430661D01*
X116059447Y-85414019D01*
X116058887Y-85413523D01*
X116063859Y-85407910D01*
X116063859Y-85407909D01*
X116063861Y-85407908D01*
X116153598Y-85277901D01*
X116209615Y-85130196D01*
X116228656Y-84973378D01*
X116209615Y-84816560D01*
X116195508Y-84779364D01*
X116168794Y-84708924D01*
X116153598Y-84668855D01*
X116063861Y-84538848D01*
X115945618Y-84434095D01*
X115945616Y-84434094D01*
X115945615Y-84434093D01*
X115805743Y-84360681D01*
X115652364Y-84322878D01*
X115652363Y-84322878D01*
X115494393Y-84322878D01*
X115494390Y-84322878D01*
X115479170Y-84326629D01*
X115409368Y-84323557D01*
X115352308Y-84283235D01*
X115326105Y-84218465D01*
X115325500Y-84206231D01*
X115325500Y-83647907D01*
X115345185Y-83580868D01*
X115367270Y-83555094D01*
X115390483Y-83534530D01*
X115480220Y-83404523D01*
X115536237Y-83256818D01*
X115555278Y-83100000D01*
X115551920Y-83072340D01*
X115536237Y-82943181D01*
X115493937Y-82831646D01*
X115480220Y-82795477D01*
X115390483Y-82665470D01*
X115272240Y-82560717D01*
X115272238Y-82560716D01*
X115272237Y-82560715D01*
X115132365Y-82487303D01*
X114978986Y-82449500D01*
X114978985Y-82449500D01*
X114849500Y-82449500D01*
X114782461Y-82429815D01*
X114736706Y-82377011D01*
X114725500Y-82325500D01*
X114725500Y-78608983D01*
X114726032Y-78593409D01*
X114727660Y-78545755D01*
X114717691Y-78504848D01*
X114716506Y-78498618D01*
X114710771Y-78456889D01*
X114704137Y-78441616D01*
X114697397Y-78421574D01*
X114693457Y-78405407D01*
X114693455Y-78405403D01*
X114672822Y-78368706D01*
X114669996Y-78363017D01*
X114667303Y-78356818D01*
X114653219Y-78324391D01*
X114642713Y-78311477D01*
X114630812Y-78293990D01*
X114622660Y-78279491D01*
X114622658Y-78279488D01*
X114592882Y-78249712D01*
X114588626Y-78244996D01*
X114584609Y-78240059D01*
X114562054Y-78212335D01*
X114562050Y-78212332D01*
X114562045Y-78212328D01*
X114548453Y-78202733D01*
X114532281Y-78189111D01*
X112543169Y-76200000D01*
X114344722Y-76200000D01*
X114363762Y-76356818D01*
X114392623Y-76432916D01*
X114419780Y-76504523D01*
X114509517Y-76634530D01*
X114627760Y-76739283D01*
X114639860Y-76745633D01*
X114767634Y-76812696D01*
X114921014Y-76850500D01*
X115055968Y-76850500D01*
X115123007Y-76870185D01*
X115143649Y-76886819D01*
X117238181Y-78981350D01*
X117271666Y-79042673D01*
X117274499Y-79069031D01*
X117274500Y-85991016D01*
X117274061Y-86003882D01*
X117272340Y-86054250D01*
X117282308Y-86095153D01*
X117283494Y-86101394D01*
X117289228Y-86143109D01*
X117295864Y-86158387D01*
X117302602Y-86178424D01*
X117306542Y-86194593D01*
X117306543Y-86194594D01*
X117327175Y-86231289D01*
X117330000Y-86236977D01*
X117346782Y-86275611D01*
X117357283Y-86288518D01*
X117369183Y-86306001D01*
X117377342Y-86320512D01*
X117407115Y-86350285D01*
X117411372Y-86355002D01*
X117437946Y-86387665D01*
X117451544Y-86397264D01*
X117467715Y-86410885D01*
X125238180Y-94181350D01*
X125271665Y-94242673D01*
X125274499Y-94269031D01*
X125274499Y-94952978D01*
X125254814Y-95020017D01*
X125202010Y-95065772D01*
X125132852Y-95075716D01*
X125069296Y-95046691D01*
X125068373Y-95045883D01*
X124996514Y-94982222D01*
X124972237Y-94960714D01*
X124832365Y-94887303D01*
X124678986Y-94849500D01*
X124678985Y-94849500D01*
X124521015Y-94849500D01*
X124521014Y-94849500D01*
X124367634Y-94887303D01*
X124227764Y-94960714D01*
X124227756Y-94960719D01*
X124200285Y-94985056D01*
X124137051Y-95014776D01*
X124067788Y-95005591D01*
X124060436Y-95002037D01*
X124047933Y-94995475D01*
X124032365Y-94987304D01*
X124032362Y-94987303D01*
X123878985Y-94949500D01*
X123721015Y-94949500D01*
X123721014Y-94949500D01*
X123567634Y-94987303D01*
X123427762Y-95060715D01*
X123309516Y-95165471D01*
X123219781Y-95295475D01*
X123219780Y-95295476D01*
X123163762Y-95443181D01*
X123144721Y-95599999D01*
X123144721Y-95600000D01*
X123163762Y-95756818D01*
X123216349Y-95895476D01*
X123219780Y-95904523D01*
X123309517Y-96034530D01*
X123427760Y-96139283D01*
X123567635Y-96212696D01*
X123669290Y-96237750D01*
X123727297Y-96270466D01*
X123838181Y-96381350D01*
X123871666Y-96442673D01*
X123874500Y-96469031D01*
X123874500Y-97591016D01*
X123872340Y-97654250D01*
X123882308Y-97695153D01*
X123883494Y-97701394D01*
X123889228Y-97743109D01*
X123895864Y-97758387D01*
X123902602Y-97778424D01*
X123906542Y-97794593D01*
X123906543Y-97794594D01*
X123927175Y-97831289D01*
X123930000Y-97836977D01*
X123946782Y-97875611D01*
X123957283Y-97888518D01*
X123969183Y-97906001D01*
X123977342Y-97920512D01*
X124007115Y-97950285D01*
X124011372Y-97955002D01*
X124028266Y-97975767D01*
X124037946Y-97987665D01*
X124051544Y-97997264D01*
X124067715Y-98010885D01*
X125222059Y-99165228D01*
X125265245Y-99211469D01*
X125301222Y-99233346D01*
X125306466Y-99236915D01*
X125340025Y-99262364D01*
X125355510Y-99268470D01*
X125374447Y-99277876D01*
X125388669Y-99286525D01*
X125388671Y-99286525D01*
X125388672Y-99286526D01*
X125429216Y-99297885D01*
X125435220Y-99299903D01*
X125474411Y-99315359D01*
X125480067Y-99315940D01*
X125490968Y-99317061D01*
X125511746Y-99321009D01*
X125527772Y-99325500D01*
X125569880Y-99325500D01*
X125576221Y-99325824D01*
X125618110Y-99330131D01*
X125634514Y-99327302D01*
X125655580Y-99325500D01*
X126991016Y-99325500D01*
X127054245Y-99327660D01*
X127095169Y-99317686D01*
X127101368Y-99316507D01*
X127143111Y-99310771D01*
X127158386Y-99304135D01*
X127178421Y-99297397D01*
X127194594Y-99293457D01*
X127231316Y-99272808D01*
X127236955Y-99270007D01*
X127275609Y-99253219D01*
X127288528Y-99242707D01*
X127305997Y-99230818D01*
X127320512Y-99222658D01*
X127350298Y-99192870D01*
X127354999Y-99188628D01*
X127387665Y-99162054D01*
X127397264Y-99148453D01*
X127410881Y-99132287D01*
X129833364Y-96709804D01*
X129894685Y-96676321D01*
X129938926Y-96676928D01*
X129939140Y-96675168D01*
X129946586Y-96676072D01*
X129946587Y-96676072D01*
X130104557Y-96676072D01*
X130257937Y-96638268D01*
X130265063Y-96634528D01*
X130397812Y-96564855D01*
X130516055Y-96460102D01*
X130605792Y-96330095D01*
X130661809Y-96182390D01*
X130680850Y-96025572D01*
X130661809Y-95868754D01*
X130658117Y-95859020D01*
X130622639Y-95765471D01*
X130605792Y-95721049D01*
X130516055Y-95591042D01*
X130397812Y-95486289D01*
X130397810Y-95486288D01*
X130397809Y-95486287D01*
X130257937Y-95412875D01*
X130104558Y-95375072D01*
X130104557Y-95375072D01*
X129946587Y-95375072D01*
X129946586Y-95375072D01*
X129793206Y-95412875D01*
X129653336Y-95486286D01*
X129653332Y-95486288D01*
X129632870Y-95504416D01*
X129587402Y-95528203D01*
X129587719Y-95529005D01*
X129580213Y-95531964D01*
X129580012Y-95532070D01*
X129579839Y-95532112D01*
X129579831Y-95532115D01*
X129543133Y-95552749D01*
X129537444Y-95555575D01*
X129498818Y-95572353D01*
X129485905Y-95582859D01*
X129468432Y-95594752D01*
X129453917Y-95602914D01*
X129424144Y-95632686D01*
X129419430Y-95636940D01*
X129386764Y-95663516D01*
X129386763Y-95663516D01*
X129377156Y-95677126D01*
X129363537Y-95693292D01*
X128759399Y-96297430D01*
X128698076Y-96330915D01*
X128628384Y-96325931D01*
X128572451Y-96284059D01*
X128569668Y-96280189D01*
X128534720Y-96229559D01*
X128490483Y-96165470D01*
X128372240Y-96060717D01*
X128372238Y-96060716D01*
X128372237Y-96060715D01*
X128232365Y-95987303D01*
X128078986Y-95949500D01*
X128078985Y-95949500D01*
X127921015Y-95949500D01*
X127921014Y-95949500D01*
X127767635Y-95987303D01*
X127707124Y-96019062D01*
X127638615Y-96032786D01*
X127573562Y-96007294D01*
X127532619Y-95950678D01*
X127525500Y-95909270D01*
X127525500Y-93408983D01*
X127527660Y-93345755D01*
X127517690Y-93304843D01*
X127516507Y-93298624D01*
X127510771Y-93256889D01*
X127504138Y-93241620D01*
X127497396Y-93221571D01*
X127493457Y-93205405D01*
X127472819Y-93168700D01*
X127469996Y-93163018D01*
X127453219Y-93124391D01*
X127442706Y-93111469D01*
X127430811Y-93093990D01*
X127422657Y-93079488D01*
X127392887Y-93049718D01*
X127388637Y-93045010D01*
X127362054Y-93012335D01*
X127348450Y-93002732D01*
X127332278Y-92989109D01*
X119691245Y-85348076D01*
X119657760Y-85286753D01*
X119656396Y-85257501D01*
X119655278Y-85257501D01*
X119655278Y-85250000D01*
X119655277Y-85250000D01*
X119636237Y-85093182D01*
X119580220Y-84945477D01*
X119490483Y-84815470D01*
X119416582Y-84750000D01*
X121344721Y-84750000D01*
X121363762Y-84906818D01*
X121419779Y-85054521D01*
X121419780Y-85054523D01*
X121509517Y-85184530D01*
X121627760Y-85289283D01*
X121627762Y-85289284D01*
X121767634Y-85362696D01*
X121921014Y-85400500D01*
X121921015Y-85400500D01*
X122078985Y-85400500D01*
X122232365Y-85362696D01*
X122341562Y-85305384D01*
X122372240Y-85289283D01*
X122490483Y-85184530D01*
X122580220Y-85054523D01*
X122626728Y-84931888D01*
X122654986Y-84888182D01*
X123381350Y-84161819D01*
X123442674Y-84128334D01*
X123469032Y-84125500D01*
X125633355Y-84125500D01*
X125700394Y-84145185D01*
X125746149Y-84197989D01*
X125756451Y-84264446D01*
X125745222Y-84356926D01*
X125745222Y-84356927D01*
X125764262Y-84513745D01*
X125820279Y-84661449D01*
X125820280Y-84661450D01*
X125825391Y-84668855D01*
X125853049Y-84708924D01*
X125874932Y-84775278D01*
X125874999Y-84779364D01*
X125874999Y-85591516D01*
X125872840Y-85654742D01*
X125872840Y-85654745D01*
X125882808Y-85695655D01*
X125883993Y-85701892D01*
X125889728Y-85743609D01*
X125896364Y-85758887D01*
X125903102Y-85778924D01*
X125907042Y-85795093D01*
X125907043Y-85795094D01*
X125927675Y-85831789D01*
X125930500Y-85837477D01*
X125947282Y-85876111D01*
X125957783Y-85889018D01*
X125969683Y-85906501D01*
X125977842Y-85921012D01*
X126007615Y-85950785D01*
X126011872Y-85955502D01*
X126018729Y-85963930D01*
X126038446Y-85988165D01*
X126052044Y-85997764D01*
X126068215Y-86011385D01*
X127365340Y-87308510D01*
X128638181Y-88581350D01*
X128671666Y-88642673D01*
X128674500Y-88669031D01*
X128674500Y-90577561D01*
X128654815Y-90644600D01*
X128652550Y-90648001D01*
X128619781Y-90695475D01*
X128619780Y-90695476D01*
X128563762Y-90843181D01*
X128544721Y-90999999D01*
X128544721Y-91000000D01*
X128563762Y-91156818D01*
X128610512Y-91280086D01*
X128619780Y-91304523D01*
X128709517Y-91434530D01*
X128827760Y-91539283D01*
X128827762Y-91539284D01*
X128967634Y-91612696D01*
X129121014Y-91650500D01*
X129121015Y-91650500D01*
X129278985Y-91650500D01*
X129432365Y-91612696D01*
X129473672Y-91591016D01*
X129525443Y-91563844D01*
X133484000Y-91563844D01*
X133490401Y-91623372D01*
X133490403Y-91623379D01*
X133540645Y-91758086D01*
X133540649Y-91758093D01*
X133626809Y-91873187D01*
X133626812Y-91873190D01*
X133741906Y-91959350D01*
X133741913Y-91959354D01*
X133876620Y-92009596D01*
X133876627Y-92009598D01*
X133936155Y-92015999D01*
X133936172Y-92016000D01*
X134750000Y-92016000D01*
X134750000Y-90944297D01*
X134855408Y-90992435D01*
X134963666Y-91008000D01*
X135036334Y-91008000D01*
X135144592Y-90992435D01*
X135250000Y-90944297D01*
X135250000Y-92016000D01*
X136063828Y-92016000D01*
X136063844Y-92015999D01*
X136123372Y-92009598D01*
X136123379Y-92009596D01*
X136258086Y-91959354D01*
X136258093Y-91959350D01*
X136373187Y-91873190D01*
X136373190Y-91873187D01*
X136459350Y-91758093D01*
X136459354Y-91758086D01*
X136509596Y-91623379D01*
X136509598Y-91623372D01*
X136515999Y-91563844D01*
X136516000Y-91563827D01*
X136516000Y-90750000D01*
X135443196Y-90750000D01*
X135466845Y-90713201D01*
X135508000Y-90573039D01*
X135508000Y-90426961D01*
X135466845Y-90286799D01*
X135443196Y-90250000D01*
X136516000Y-90250000D01*
X136516000Y-89436172D01*
X136515999Y-89436155D01*
X136509598Y-89376627D01*
X136509596Y-89376620D01*
X136459354Y-89241913D01*
X136459350Y-89241906D01*
X136373190Y-89126812D01*
X136373187Y-89126809D01*
X136258093Y-89040649D01*
X136258088Y-89040646D01*
X136184595Y-89013235D01*
X136128662Y-88971363D01*
X136104245Y-88905899D01*
X136119097Y-88837626D01*
X136124120Y-88829232D01*
X136152691Y-88785500D01*
X136250044Y-88636490D01*
X136344342Y-88421513D01*
X136401970Y-88193947D01*
X136401971Y-88193939D01*
X136421355Y-87960006D01*
X136421355Y-87959993D01*
X136401971Y-87726060D01*
X136401969Y-87726049D01*
X136344342Y-87498486D01*
X136250044Y-87283510D01*
X136121653Y-87086991D01*
X136121650Y-87086988D01*
X136121649Y-87086986D01*
X135962658Y-86914275D01*
X135962653Y-86914271D01*
X135962651Y-86914269D01*
X135777415Y-86770094D01*
X135777409Y-86770090D01*
X135570953Y-86658361D01*
X135570944Y-86658358D01*
X135348924Y-86582138D01*
X135117375Y-86543500D01*
X134882625Y-86543500D01*
X134651075Y-86582138D01*
X134429055Y-86658358D01*
X134429046Y-86658361D01*
X134222590Y-86770090D01*
X134222584Y-86770094D01*
X134037348Y-86914269D01*
X134037345Y-86914272D01*
X134037342Y-86914274D01*
X134037342Y-86914275D01*
X134014331Y-86939272D01*
X133878346Y-87086991D01*
X133749955Y-87283510D01*
X133655657Y-87498486D01*
X133598030Y-87726049D01*
X133598028Y-87726060D01*
X133578645Y-87959993D01*
X133578645Y-87960006D01*
X133598028Y-88193939D01*
X133598030Y-88193950D01*
X133655657Y-88421513D01*
X133749955Y-88636489D01*
X133875879Y-88829232D01*
X133896067Y-88896122D01*
X133876886Y-88963307D01*
X133824427Y-89009457D01*
X133815404Y-89013235D01*
X133741912Y-89040646D01*
X133741906Y-89040649D01*
X133626812Y-89126809D01*
X133626809Y-89126812D01*
X133540649Y-89241906D01*
X133540645Y-89241913D01*
X133490403Y-89376620D01*
X133490401Y-89376627D01*
X133484000Y-89436155D01*
X133484000Y-90250000D01*
X134556804Y-90250000D01*
X134533155Y-90286799D01*
X134492000Y-90426961D01*
X134492000Y-90573039D01*
X134533155Y-90713201D01*
X134556804Y-90750000D01*
X133484000Y-90750000D01*
X133484000Y-91563844D01*
X129525443Y-91563844D01*
X129572240Y-91539283D01*
X129690483Y-91434530D01*
X129780220Y-91304523D01*
X129836237Y-91156818D01*
X129855278Y-91000000D01*
X129854360Y-90992435D01*
X129836237Y-90843181D01*
X129800898Y-90750000D01*
X129780220Y-90695477D01*
X129747450Y-90648001D01*
X129725567Y-90581646D01*
X129725500Y-90577561D01*
X129725500Y-88408983D01*
X129726038Y-88393224D01*
X129727660Y-88345755D01*
X129717691Y-88304848D01*
X129716506Y-88298618D01*
X129710771Y-88256889D01*
X129704137Y-88241616D01*
X129697397Y-88221574D01*
X129693457Y-88205407D01*
X129693455Y-88205403D01*
X129672822Y-88168706D01*
X129669996Y-88163017D01*
X129653219Y-88124391D01*
X129653217Y-88124388D01*
X129642713Y-88111477D01*
X129630812Y-88093990D01*
X129622660Y-88079491D01*
X129622658Y-88079488D01*
X129592882Y-88049712D01*
X129588626Y-88044996D01*
X129584609Y-88040059D01*
X129562054Y-88012335D01*
X129562050Y-88012332D01*
X129562045Y-88012328D01*
X129548453Y-88002733D01*
X129532281Y-87989111D01*
X128530351Y-86987181D01*
X128496866Y-86925858D01*
X128501850Y-86856166D01*
X128543722Y-86800233D01*
X128609186Y-86775816D01*
X128618032Y-86775500D01*
X131070935Y-86775500D01*
X131128561Y-86789704D01*
X131267634Y-86862696D01*
X131421014Y-86900500D01*
X131421015Y-86900500D01*
X131578985Y-86900500D01*
X131732365Y-86862696D01*
X131744807Y-86856166D01*
X131872240Y-86789283D01*
X131990483Y-86684530D01*
X132080220Y-86554523D01*
X132136237Y-86406818D01*
X132155278Y-86250000D01*
X132136237Y-86093182D01*
X132128762Y-86073471D01*
X132123395Y-86003807D01*
X132156543Y-85942301D01*
X132217681Y-85908480D01*
X132244704Y-85905500D01*
X132675991Y-85905500D01*
X132676000Y-85905500D01*
X132762199Y-85896232D01*
X132813710Y-85885026D01*
X132885360Y-85862310D01*
X132993057Y-85795250D01*
X133045861Y-85749495D01*
X133115042Y-85671923D01*
X133169389Y-85557285D01*
X133189074Y-85490246D01*
X133205500Y-85376000D01*
X133205500Y-83024500D01*
X133225185Y-82957461D01*
X133277989Y-82911706D01*
X133321637Y-82902210D01*
X133321540Y-82901404D01*
X133328985Y-82900500D01*
X133482365Y-82862696D01*
X133549308Y-82827561D01*
X133622240Y-82789283D01*
X133740483Y-82684530D01*
X133830220Y-82554523D01*
X133886237Y-82406818D01*
X133905278Y-82250000D01*
X133886237Y-82093182D01*
X133830220Y-81945477D01*
X133797450Y-81898001D01*
X133775567Y-81831646D01*
X133775500Y-81827561D01*
X133775500Y-80058983D01*
X133777360Y-80004523D01*
X133777660Y-79995755D01*
X133767689Y-79954840D01*
X133766505Y-79948613D01*
X133760771Y-79906889D01*
X133754135Y-79891613D01*
X133747400Y-79871583D01*
X133743458Y-79855406D01*
X133722819Y-79818701D01*
X133719995Y-79813015D01*
X133719856Y-79812696D01*
X133703219Y-79774391D01*
X133692711Y-79761476D01*
X133680816Y-79743998D01*
X133672659Y-79729491D01*
X133672658Y-79729489D01*
X133642886Y-79699717D01*
X133638636Y-79695009D01*
X133612054Y-79662335D01*
X133598450Y-79652732D01*
X133582278Y-79639109D01*
X132777941Y-78834772D01*
X132776680Y-78833422D01*
X132734755Y-78788531D01*
X132698775Y-78766651D01*
X132693529Y-78763081D01*
X132676580Y-78750228D01*
X132659976Y-78737636D01*
X132651406Y-78734256D01*
X132644485Y-78731527D01*
X132625553Y-78722124D01*
X132611329Y-78713474D01*
X132570785Y-78702113D01*
X132564766Y-78700089D01*
X132531025Y-78686784D01*
X132525589Y-78684641D01*
X132525585Y-78684640D01*
X132525583Y-78684640D01*
X132509022Y-78682937D01*
X132488255Y-78678990D01*
X132472231Y-78674500D01*
X132472228Y-78674500D01*
X132430120Y-78674500D01*
X132423778Y-78674175D01*
X132405853Y-78672332D01*
X132381892Y-78669869D01*
X132381888Y-78669869D01*
X132372576Y-78671474D01*
X132365485Y-78672697D01*
X132344420Y-78674500D01*
X123029065Y-78674500D01*
X122971439Y-78660296D01*
X122832365Y-78587303D01*
X122678986Y-78549500D01*
X122678985Y-78549500D01*
X122521015Y-78549500D01*
X122521014Y-78549500D01*
X122367634Y-78587303D01*
X122227762Y-78660715D01*
X122109516Y-78765471D01*
X122019781Y-78895475D01*
X122019780Y-78895476D01*
X121963762Y-79043181D01*
X121944721Y-79199999D01*
X121944721Y-79200000D01*
X121963762Y-79356818D01*
X122019779Y-79504522D01*
X122019780Y-79504523D01*
X122109517Y-79634530D01*
X122227760Y-79739283D01*
X122227762Y-79739284D01*
X122367634Y-79812696D01*
X122521014Y-79850500D01*
X122521015Y-79850500D01*
X122678985Y-79850500D01*
X122832365Y-79812696D01*
X122971439Y-79739704D01*
X123029065Y-79725500D01*
X132130968Y-79725500D01*
X132198007Y-79745185D01*
X132218649Y-79761819D01*
X132688180Y-80231350D01*
X132721665Y-80292673D01*
X132724499Y-80319030D01*
X132724500Y-80470499D01*
X132704816Y-80537539D01*
X132652012Y-80583294D01*
X132600500Y-80594500D01*
X128356894Y-80594500D01*
X128335204Y-80595663D01*
X128298047Y-80599658D01*
X128285736Y-80601473D01*
X128266546Y-80604302D01*
X128266535Y-80604305D01*
X128147058Y-80646935D01*
X128147048Y-80646940D01*
X128085735Y-80680421D01*
X128032289Y-80720430D01*
X127966824Y-80744846D01*
X127957522Y-80745161D01*
X127883942Y-80744889D01*
X127883934Y-80744890D01*
X127814778Y-80754833D01*
X127714639Y-80782689D01*
X127606939Y-80849751D01*
X127606939Y-80849752D01*
X127554143Y-80895499D01*
X127484955Y-80973077D01*
X127430613Y-81087707D01*
X127430611Y-81087712D01*
X127410928Y-81154744D01*
X127394499Y-81268998D01*
X127394500Y-83351968D01*
X127374815Y-83419007D01*
X127322011Y-83464762D01*
X127252853Y-83474706D01*
X127189297Y-83445681D01*
X127182819Y-83439649D01*
X126977941Y-83234772D01*
X126976680Y-83233422D01*
X126934755Y-83188531D01*
X126898775Y-83166651D01*
X126893529Y-83163081D01*
X126872035Y-83146781D01*
X126859976Y-83137636D01*
X126851406Y-83134256D01*
X126844485Y-83131527D01*
X126825553Y-83122124D01*
X126811329Y-83113474D01*
X126770785Y-83102113D01*
X126764766Y-83100089D01*
X126731025Y-83086784D01*
X126725589Y-83084641D01*
X126725585Y-83084640D01*
X126725583Y-83084640D01*
X126709022Y-83082937D01*
X126688255Y-83078990D01*
X126672231Y-83074500D01*
X126672228Y-83074500D01*
X126630120Y-83074500D01*
X126623778Y-83074175D01*
X126605853Y-83072332D01*
X126581892Y-83069869D01*
X126581888Y-83069869D01*
X126572576Y-83071474D01*
X126565485Y-83072697D01*
X126544420Y-83074500D01*
X123208984Y-83074500D01*
X123145755Y-83072340D01*
X123145754Y-83072340D01*
X123145751Y-83072340D01*
X123112167Y-83080524D01*
X123104847Y-83082308D01*
X123098610Y-83083494D01*
X123056887Y-83089229D01*
X123041612Y-83095863D01*
X123021588Y-83102597D01*
X123005408Y-83106541D01*
X123005403Y-83106543D01*
X122968705Y-83127177D01*
X122963016Y-83130003D01*
X122924390Y-83146781D01*
X122911477Y-83157287D01*
X122894004Y-83169180D01*
X122879489Y-83177342D01*
X122849716Y-83207114D01*
X122845002Y-83211368D01*
X122812336Y-83237944D01*
X122812335Y-83237944D01*
X122802728Y-83251554D01*
X122789109Y-83267720D01*
X121992607Y-84064223D01*
X121931284Y-84097708D01*
X121921723Y-84099325D01*
X121767634Y-84137303D01*
X121627762Y-84210715D01*
X121509516Y-84315471D01*
X121419781Y-84445475D01*
X121419780Y-84445476D01*
X121363762Y-84593181D01*
X121344721Y-84749999D01*
X121344721Y-84750000D01*
X119416582Y-84750000D01*
X119372240Y-84710717D01*
X119372238Y-84710716D01*
X119372237Y-84710715D01*
X119232365Y-84637303D01*
X119078986Y-84599500D01*
X119078985Y-84599500D01*
X119049500Y-84599500D01*
X118982461Y-84579815D01*
X118936706Y-84527011D01*
X118925500Y-84475500D01*
X118925500Y-84024500D01*
X118945185Y-83957461D01*
X118997989Y-83911706D01*
X119049500Y-83900500D01*
X119078985Y-83900500D01*
X119232365Y-83862696D01*
X119232364Y-83862696D01*
X119372240Y-83789283D01*
X119490483Y-83684530D01*
X119580220Y-83554523D01*
X119636237Y-83406818D01*
X119655278Y-83250000D01*
X119653815Y-83237946D01*
X119636237Y-83093181D01*
X119610189Y-83024500D01*
X119580220Y-82945477D01*
X119547450Y-82898001D01*
X119525567Y-82831646D01*
X119525500Y-82827561D01*
X119525500Y-78293137D01*
X119527060Y-78247462D01*
X119527660Y-78229909D01*
X119517690Y-78188997D01*
X119516507Y-78182778D01*
X119510771Y-78141043D01*
X119504138Y-78125774D01*
X119497396Y-78105725D01*
X119493457Y-78089559D01*
X119485635Y-78075649D01*
X119472819Y-78052854D01*
X119469996Y-78047172D01*
X119453219Y-78008545D01*
X119442706Y-77995623D01*
X119430811Y-77978144D01*
X119429142Y-77975175D01*
X119422657Y-77963642D01*
X119392887Y-77933872D01*
X119388637Y-77929164D01*
X119362054Y-77896489D01*
X119360621Y-77895477D01*
X119348450Y-77886886D01*
X119332278Y-77873263D01*
X118420696Y-76961681D01*
X118387211Y-76900358D01*
X118390111Y-76859794D01*
X118358353Y-76864361D01*
X118294797Y-76835336D01*
X118288319Y-76829304D01*
X117571196Y-76112181D01*
X117537711Y-76050858D01*
X117542695Y-75981166D01*
X117584567Y-75925233D01*
X117650031Y-75900816D01*
X117658877Y-75900500D01*
X117891324Y-75900500D01*
X117958363Y-75920185D01*
X117979005Y-75936819D01*
X118348614Y-76306428D01*
X118365246Y-76327066D01*
X118367854Y-76331125D01*
X118367857Y-76331128D01*
X118407067Y-76365103D01*
X118410283Y-76368097D01*
X118421407Y-76379221D01*
X118421412Y-76379224D01*
X118421417Y-76379229D01*
X118433978Y-76388632D01*
X118437424Y-76391408D01*
X118446004Y-76398842D01*
X118457199Y-76408542D01*
X118494976Y-76467318D01*
X118500000Y-76502258D01*
X118500000Y-76741623D01*
X118497191Y-76751188D01*
X118499531Y-76750316D01*
X118508377Y-76750000D01*
X120749999Y-76750000D01*
X120750000Y-76750000D01*
X120749999Y-75726211D01*
X120769683Y-75659173D01*
X120785786Y-75640382D01*
X120785518Y-75640145D01*
X120790485Y-75634536D01*
X120790493Y-75634530D01*
X120880230Y-75504523D01*
X120936247Y-75356818D01*
X120955288Y-75200000D01*
X120951387Y-75167867D01*
X120936247Y-75043181D01*
X120910246Y-74974622D01*
X120880230Y-74895477D01*
X120790493Y-74765470D01*
X120672250Y-74660717D01*
X120672248Y-74660716D01*
X120672247Y-74660715D01*
X120532375Y-74587303D01*
X120378996Y-74549500D01*
X120378995Y-74549500D01*
X120221025Y-74549500D01*
X120221024Y-74549500D01*
X120067644Y-74587303D01*
X119927772Y-74660715D01*
X119809526Y-74765471D01*
X119719791Y-74895475D01*
X119719790Y-74895476D01*
X119663773Y-75043178D01*
X119663772Y-75043183D01*
X119657895Y-75091588D01*
X119630273Y-75155765D01*
X119622258Y-75163958D01*
X119584909Y-75207060D01*
X119581905Y-75210288D01*
X119578537Y-75213657D01*
X119517224Y-75247159D01*
X119490832Y-75250000D01*
X118759176Y-75250000D01*
X118692137Y-75230315D01*
X118671495Y-75213681D01*
X118551385Y-75093571D01*
X118534750Y-75072928D01*
X118532145Y-75068874D01*
X118532142Y-75068871D01*
X118525147Y-75062810D01*
X118492932Y-75034896D01*
X118489700Y-75031886D01*
X118478596Y-75020782D01*
X118478588Y-75020775D01*
X118466013Y-75011362D01*
X118462583Y-75008598D01*
X118423373Y-74974623D01*
X118423371Y-74974622D01*
X118423367Y-74974619D01*
X118418983Y-74972617D01*
X118396194Y-74959096D01*
X118392331Y-74956204D01*
X118392329Y-74956203D01*
X118343716Y-74938071D01*
X118339642Y-74936383D01*
X118292457Y-74914835D01*
X118292455Y-74914834D01*
X118287682Y-74914148D01*
X118262000Y-74907593D01*
X118257485Y-74905909D01*
X118205740Y-74902207D01*
X118201343Y-74901734D01*
X118185799Y-74899500D01*
X118170094Y-74899500D01*
X118165671Y-74899342D01*
X118148083Y-74898084D01*
X118113929Y-74895641D01*
X118113925Y-74895641D01*
X118109215Y-74896666D01*
X118082857Y-74899500D01*
X116667143Y-74899500D01*
X116640785Y-74896666D01*
X116636074Y-74895641D01*
X116636070Y-74895641D01*
X116597552Y-74898396D01*
X116584328Y-74899342D01*
X116579906Y-74899500D01*
X116564199Y-74899500D01*
X116548656Y-74901734D01*
X116544260Y-74902207D01*
X116492517Y-74905909D01*
X116492513Y-74905910D01*
X116487986Y-74907598D01*
X116462327Y-74914146D01*
X116457550Y-74914833D01*
X116457543Y-74914835D01*
X116410353Y-74936385D01*
X116406264Y-74938078D01*
X116357675Y-74956200D01*
X116357664Y-74956206D01*
X116353799Y-74959100D01*
X116331020Y-74972615D01*
X116326636Y-74974617D01*
X116326626Y-74974623D01*
X116302676Y-74995375D01*
X116287433Y-75008584D01*
X116283996Y-75011354D01*
X116271402Y-75020781D01*
X116260291Y-75031892D01*
X116257055Y-75034905D01*
X116217861Y-75068867D01*
X116217850Y-75068880D01*
X116215240Y-75072941D01*
X116198615Y-75093569D01*
X115845096Y-75447089D01*
X115787090Y-75479805D01*
X115638511Y-75516426D01*
X115498642Y-75589836D01*
X115498639Y-75589838D01*
X115465438Y-75619251D01*
X115402204Y-75648971D01*
X115332941Y-75639787D01*
X115325586Y-75636230D01*
X115232365Y-75587303D01*
X115078986Y-75549500D01*
X115078985Y-75549500D01*
X114921015Y-75549500D01*
X114921014Y-75549500D01*
X114767634Y-75587303D01*
X114627762Y-75660715D01*
X114509516Y-75765471D01*
X114419781Y-75895475D01*
X114419780Y-75895476D01*
X114363762Y-76043181D01*
X114344722Y-76199999D01*
X114344722Y-76200000D01*
X112543169Y-76200000D01*
X111777941Y-75434772D01*
X111776680Y-75433422D01*
X111734755Y-75388531D01*
X111698775Y-75366651D01*
X111693529Y-75363081D01*
X111678462Y-75351655D01*
X111659976Y-75337636D01*
X111651406Y-75334256D01*
X111644485Y-75331527D01*
X111625553Y-75322124D01*
X111611329Y-75313474D01*
X111570785Y-75302113D01*
X111564766Y-75300089D01*
X111531025Y-75286784D01*
X111525589Y-75284641D01*
X111525585Y-75284640D01*
X111525583Y-75284640D01*
X111509022Y-75282937D01*
X111488255Y-75278990D01*
X111472231Y-75274500D01*
X111472228Y-75274500D01*
X111430120Y-75274500D01*
X111423778Y-75274175D01*
X111405853Y-75272332D01*
X111381892Y-75269869D01*
X111381888Y-75269869D01*
X111372576Y-75271474D01*
X111365485Y-75272697D01*
X111344420Y-75274500D01*
X107869031Y-75274500D01*
X107801992Y-75254815D01*
X107781350Y-75238181D01*
X104873388Y-72330219D01*
X104839903Y-72268896D01*
X104837973Y-72257481D01*
X104837065Y-72250000D01*
X107700000Y-72250000D01*
X107700000Y-73847844D01*
X107706401Y-73907372D01*
X107706403Y-73907379D01*
X107756645Y-74042086D01*
X107756649Y-74042093D01*
X107842809Y-74157187D01*
X107842812Y-74157190D01*
X107957906Y-74243350D01*
X107957913Y-74243354D01*
X108092620Y-74293596D01*
X108092627Y-74293598D01*
X108152155Y-74299999D01*
X108152172Y-74300000D01*
X109750000Y-74300000D01*
X110250000Y-74300000D01*
X111847828Y-74300000D01*
X111847844Y-74299999D01*
X111907372Y-74293598D01*
X111907379Y-74293596D01*
X112042086Y-74243354D01*
X112042093Y-74243350D01*
X112157187Y-74157190D01*
X112157190Y-74157187D01*
X112243350Y-74042093D01*
X112243354Y-74042086D01*
X112293596Y-73907379D01*
X112293598Y-73907372D01*
X112299999Y-73847844D01*
X112300000Y-73847827D01*
X112300000Y-72250000D01*
X111603552Y-72250000D01*
X111683063Y-72329511D01*
X111716548Y-72390834D01*
X111711564Y-72460526D01*
X111687938Y-72497287D01*
X111687939Y-72499999D01*
X111708065Y-72520125D01*
X111741550Y-72581448D01*
X111736566Y-72651140D01*
X111708065Y-72695487D01*
X111025000Y-73378553D01*
X110695488Y-73708065D01*
X110634165Y-73741550D01*
X110564473Y-73736566D01*
X110520126Y-73708065D01*
X110512500Y-73700439D01*
X110512499Y-73700439D01*
X110504873Y-73708065D01*
X110443550Y-73741550D01*
X110373858Y-73736564D01*
X110329512Y-73708064D01*
X110250000Y-73628552D01*
X110250000Y-74300000D01*
X109750000Y-74300000D01*
X109750000Y-73628552D01*
X109749999Y-73628551D01*
X109670487Y-73708064D01*
X109609164Y-73741549D01*
X109539472Y-73736565D01*
X109502709Y-73712939D01*
X109495945Y-73712939D01*
X109443550Y-73741549D01*
X109373858Y-73736565D01*
X109329511Y-73708064D01*
X108646447Y-73025000D01*
X108844709Y-73025000D01*
X108865514Y-73102645D01*
X108922355Y-73159486D01*
X108980254Y-73175000D01*
X109019746Y-73175000D01*
X109077645Y-73159486D01*
X109134486Y-73102646D01*
X109155291Y-73025000D01*
X109353552Y-73025000D01*
X109500000Y-73171447D01*
X109646446Y-73025000D01*
X109844709Y-73025000D01*
X109865514Y-73102645D01*
X109922355Y-73159486D01*
X109980254Y-73175000D01*
X110019746Y-73175000D01*
X110077645Y-73159486D01*
X110134486Y-73102646D01*
X110155291Y-73025000D01*
X110353553Y-73025000D01*
X110512500Y-73183947D01*
X110671447Y-73025000D01*
X110869709Y-73025000D01*
X110890514Y-73102645D01*
X110947355Y-73159486D01*
X111005254Y-73175000D01*
X111044746Y-73175000D01*
X111102645Y-73159486D01*
X111159486Y-73102646D01*
X111180291Y-73025000D01*
X111159486Y-72947355D01*
X111102645Y-72890514D01*
X111044746Y-72875000D01*
X111005254Y-72875000D01*
X110947355Y-72890514D01*
X110890514Y-72947354D01*
X110869709Y-73025000D01*
X110671447Y-73025000D01*
X110512500Y-72866053D01*
X110353553Y-73025000D01*
X110155291Y-73025000D01*
X110134486Y-72947355D01*
X110077645Y-72890514D01*
X110019746Y-72875000D01*
X109980254Y-72875000D01*
X109922355Y-72890514D01*
X109865514Y-72947354D01*
X109844709Y-73025000D01*
X109646446Y-73025000D01*
X109646446Y-73024999D01*
X109500001Y-72878553D01*
X109353552Y-73025000D01*
X109155291Y-73025000D01*
X109134486Y-72947355D01*
X109077645Y-72890514D01*
X109019746Y-72875000D01*
X108980254Y-72875000D01*
X108922355Y-72890514D01*
X108865514Y-72947354D01*
X108844709Y-73025000D01*
X108646447Y-73025000D01*
X108316934Y-72695487D01*
X108283449Y-72634164D01*
X108288433Y-72564472D01*
X108316935Y-72520124D01*
X108324560Y-72512499D01*
X108841053Y-72512499D01*
X109000000Y-72671446D01*
X109158946Y-72512499D01*
X109146446Y-72499999D01*
X110853553Y-72499999D01*
X111025000Y-72671445D01*
X111171446Y-72524999D01*
X111000000Y-72353553D01*
X110853553Y-72499999D01*
X109146446Y-72499999D01*
X109000000Y-72353553D01*
X108841053Y-72512499D01*
X108324560Y-72512499D01*
X108316934Y-72504873D01*
X108283449Y-72443550D01*
X108288435Y-72373858D01*
X108316935Y-72329511D01*
X108396447Y-72250000D01*
X107700000Y-72250000D01*
X104837065Y-72250000D01*
X104836237Y-72243181D01*
X104782264Y-72100867D01*
X104780220Y-72095477D01*
X104714317Y-72000000D01*
X108844709Y-72000000D01*
X108865514Y-72077645D01*
X108922355Y-72134486D01*
X108980254Y-72150000D01*
X109019746Y-72150000D01*
X109077645Y-72134486D01*
X109134486Y-72077646D01*
X109155291Y-72000000D01*
X109844709Y-72000000D01*
X109865514Y-72077645D01*
X109922355Y-72134486D01*
X109980254Y-72150000D01*
X110019746Y-72150000D01*
X110077645Y-72134486D01*
X110134486Y-72077646D01*
X110155291Y-72000000D01*
X110844709Y-72000000D01*
X110865514Y-72077645D01*
X110922355Y-72134486D01*
X110980254Y-72150000D01*
X111019746Y-72150000D01*
X111077645Y-72134486D01*
X111134486Y-72077646D01*
X111155291Y-72000000D01*
X111134486Y-71922355D01*
X111077645Y-71865514D01*
X111019746Y-71850000D01*
X110980254Y-71850000D01*
X110922355Y-71865514D01*
X110865514Y-71922354D01*
X110844709Y-72000000D01*
X110155291Y-72000000D01*
X110134486Y-71922355D01*
X110077645Y-71865514D01*
X110019746Y-71850000D01*
X109980254Y-71850000D01*
X109922355Y-71865514D01*
X109865514Y-71922354D01*
X109844709Y-72000000D01*
X109155291Y-72000000D01*
X109134486Y-71922355D01*
X109077645Y-71865514D01*
X109019746Y-71850000D01*
X108980254Y-71850000D01*
X108922355Y-71865514D01*
X108865514Y-71922354D01*
X108844709Y-72000000D01*
X104714317Y-72000000D01*
X104690483Y-71965470D01*
X104572240Y-71860717D01*
X104572238Y-71860716D01*
X104572237Y-71860715D01*
X104432365Y-71787303D01*
X104281015Y-71750000D01*
X107700000Y-71750000D01*
X108396446Y-71750000D01*
X108316934Y-71670488D01*
X108283449Y-71609165D01*
X108288433Y-71539473D01*
X108312059Y-71502708D01*
X108312059Y-71500000D01*
X108853553Y-71500000D01*
X109000000Y-71646447D01*
X109146446Y-71500000D01*
X109146446Y-71499999D01*
X110853553Y-71499999D01*
X111000000Y-71646446D01*
X111146446Y-71500001D01*
X111146446Y-71500000D01*
X111000000Y-71353553D01*
X110853553Y-71499999D01*
X109146446Y-71499999D01*
X109000000Y-71353553D01*
X108853553Y-71499999D01*
X108853553Y-71500000D01*
X108312059Y-71500000D01*
X108312060Y-71495947D01*
X108283449Y-71443551D01*
X108288433Y-71373859D01*
X108316934Y-71329512D01*
X108646446Y-71000000D01*
X108844709Y-71000000D01*
X108865514Y-71077645D01*
X108922355Y-71134486D01*
X108980254Y-71150000D01*
X109019746Y-71150000D01*
X109077645Y-71134486D01*
X109134486Y-71077646D01*
X109155291Y-71000000D01*
X109353552Y-71000000D01*
X109500000Y-71146447D01*
X109646446Y-71000000D01*
X109844709Y-71000000D01*
X109865514Y-71077645D01*
X109922355Y-71134486D01*
X109980254Y-71150000D01*
X110019746Y-71150000D01*
X110077645Y-71134486D01*
X110134486Y-71077646D01*
X110155291Y-71000000D01*
X110155290Y-70999998D01*
X110353553Y-70999998D01*
X110500000Y-71146446D01*
X110646447Y-71000000D01*
X110844709Y-71000000D01*
X110865514Y-71077645D01*
X110922355Y-71134486D01*
X110980254Y-71150000D01*
X111019746Y-71150000D01*
X111077645Y-71134486D01*
X111134486Y-71077646D01*
X111155291Y-71000000D01*
X111134486Y-70922355D01*
X111077645Y-70865514D01*
X111019746Y-70850000D01*
X110980254Y-70850000D01*
X110922355Y-70865514D01*
X110865514Y-70922354D01*
X110844709Y-71000000D01*
X110646447Y-71000000D01*
X110499998Y-70853553D01*
X110353553Y-70999997D01*
X110353553Y-70999998D01*
X110155290Y-70999998D01*
X110134486Y-70922355D01*
X110077645Y-70865514D01*
X110019746Y-70850000D01*
X109980254Y-70850000D01*
X109922355Y-70865514D01*
X109865514Y-70922354D01*
X109844709Y-71000000D01*
X109646446Y-71000000D01*
X109646446Y-70999999D01*
X109500001Y-70853553D01*
X109353552Y-71000000D01*
X109155291Y-71000000D01*
X109134486Y-70922355D01*
X109077645Y-70865514D01*
X109019746Y-70850000D01*
X108980254Y-70850000D01*
X108922355Y-70865514D01*
X108865514Y-70922354D01*
X108844709Y-71000000D01*
X108646446Y-71000000D01*
X109000000Y-70646447D01*
X109329512Y-70316934D01*
X109390835Y-70283449D01*
X109460526Y-70288433D01*
X109497290Y-70312060D01*
X109504051Y-70312060D01*
X109556446Y-70283449D01*
X109626138Y-70288433D01*
X109670488Y-70316934D01*
X109750000Y-70396446D01*
X109750000Y-69700000D01*
X110250000Y-69700000D01*
X110250000Y-70396445D01*
X110329510Y-70316935D01*
X110390833Y-70283450D01*
X110460525Y-70288434D01*
X110497287Y-70312060D01*
X110504048Y-70312060D01*
X110556445Y-70283448D01*
X110626137Y-70288432D01*
X110670486Y-70316933D01*
X111683064Y-71329511D01*
X111716549Y-71390834D01*
X111711565Y-71460526D01*
X111687939Y-71497287D01*
X111687939Y-71504051D01*
X111716550Y-71556448D01*
X111711566Y-71626140D01*
X111683065Y-71670487D01*
X111603552Y-71749999D01*
X111603553Y-71750000D01*
X112300000Y-71750000D01*
X112300000Y-70152172D01*
X112299999Y-70152155D01*
X112293598Y-70092627D01*
X112293596Y-70092620D01*
X112243354Y-69957913D01*
X112243350Y-69957906D01*
X112157190Y-69842812D01*
X112157187Y-69842809D01*
X112042093Y-69756649D01*
X112042086Y-69756645D01*
X111907379Y-69706403D01*
X111907372Y-69706401D01*
X111847844Y-69700000D01*
X110250000Y-69700000D01*
X109750000Y-69700000D01*
X108152155Y-69700000D01*
X108092627Y-69706401D01*
X108092620Y-69706403D01*
X107957913Y-69756645D01*
X107957906Y-69756649D01*
X107842812Y-69842809D01*
X107842809Y-69842812D01*
X107756649Y-69957906D01*
X107756645Y-69957913D01*
X107706403Y-70092620D01*
X107706401Y-70092627D01*
X107700000Y-70152155D01*
X107700000Y-71750000D01*
X104281015Y-71750000D01*
X104278986Y-71749500D01*
X104278985Y-71749500D01*
X104121015Y-71749500D01*
X104121014Y-71749500D01*
X103967634Y-71787303D01*
X103827762Y-71860715D01*
X103709516Y-71965471D01*
X103619781Y-72095475D01*
X103619780Y-72095476D01*
X103563762Y-72243181D01*
X103544722Y-72399999D01*
X103544722Y-72400000D01*
X102500499Y-72400000D01*
X102500499Y-65321419D01*
X102520184Y-65254381D01*
X102536818Y-65233739D01*
X104484239Y-63286319D01*
X104545562Y-63252834D01*
X104571920Y-63250000D01*
X106999999Y-63250000D01*
X107000000Y-63250000D01*
X106999999Y-62967391D01*
X107019685Y-62900353D01*
X107068575Y-62857989D01*
X107068357Y-62857630D01*
X107070479Y-62856338D01*
X107072489Y-62854598D01*
X107074610Y-62853653D01*
X107074725Y-62853602D01*
X107075609Y-62853219D01*
X107088528Y-62842707D01*
X107105997Y-62830818D01*
X107120512Y-62822658D01*
X107150298Y-62792870D01*
X107154999Y-62788628D01*
X107187665Y-62762054D01*
X107197264Y-62748453D01*
X107210881Y-62732287D01*
X108765243Y-61177926D01*
X108811469Y-61134755D01*
X108833352Y-61098767D01*
X108836909Y-61093542D01*
X108862365Y-61059975D01*
X108868472Y-61044485D01*
X108877877Y-61025549D01*
X108886526Y-61011328D01*
X108897889Y-60970767D01*
X108899907Y-60964770D01*
X108915358Y-60925591D01*
X108915357Y-60925591D01*
X108915359Y-60925589D01*
X108917061Y-60909023D01*
X108921007Y-60888260D01*
X108925500Y-60872228D01*
X108925500Y-60830127D01*
X108925825Y-60823782D01*
X108927463Y-60807847D01*
X108930132Y-60781890D01*
X108927302Y-60765479D01*
X108925499Y-60744424D01*
X108925499Y-59222441D01*
X108945184Y-59155403D01*
X108947425Y-59152037D01*
X108980220Y-59104527D01*
X109036237Y-58956822D01*
X109055278Y-58800004D01*
X109051366Y-58767781D01*
X109036237Y-58643185D01*
X108999480Y-58546266D01*
X108980220Y-58495481D01*
X108890483Y-58365474D01*
X108772240Y-58260721D01*
X108772238Y-58260720D01*
X108772237Y-58260719D01*
X108632365Y-58187307D01*
X108478986Y-58149504D01*
X108478985Y-58149504D01*
X108321015Y-58149504D01*
X108321010Y-58149504D01*
X108315655Y-58150824D01*
X108245853Y-58147750D01*
X108188794Y-58107426D01*
X108183939Y-58100865D01*
X108178192Y-58092539D01*
X108090483Y-57965470D01*
X107972240Y-57860717D01*
X107972238Y-57860716D01*
X107972237Y-57860715D01*
X107832365Y-57787303D01*
X107678986Y-57749500D01*
X107678985Y-57749500D01*
X107521015Y-57749500D01*
X107521014Y-57749500D01*
X107515658Y-57750820D01*
X107445856Y-57747748D01*
X107388795Y-57707427D01*
X107383937Y-57700862D01*
X107314317Y-57600000D01*
X107290483Y-57565470D01*
X107172240Y-57460717D01*
X107172238Y-57460716D01*
X107172237Y-57460715D01*
X107032365Y-57387303D01*
X106878986Y-57349500D01*
X106878985Y-57349500D01*
X106721015Y-57349500D01*
X106721014Y-57349500D01*
X106715658Y-57350820D01*
X106645856Y-57347748D01*
X106588795Y-57307427D01*
X106583937Y-57300862D01*
X106568602Y-57278646D01*
X106490483Y-57165470D01*
X106372240Y-57060717D01*
X106372238Y-57060716D01*
X106372237Y-57060715D01*
X106232365Y-56987303D01*
X106078986Y-56949500D01*
X106078985Y-56949500D01*
X105921015Y-56949500D01*
X105921014Y-56949500D01*
X105767634Y-56987303D01*
X105627762Y-57060715D01*
X105509516Y-57165471D01*
X105419781Y-57295475D01*
X105419780Y-57295476D01*
X105363762Y-57443181D01*
X105344722Y-57599999D01*
X105344722Y-57600000D01*
X105363762Y-57756818D01*
X105417539Y-57898614D01*
X105419780Y-57904523D01*
X105452550Y-57951999D01*
X105474433Y-58018352D01*
X105474500Y-58022438D01*
X105474500Y-58025500D01*
X105454815Y-58092539D01*
X105402011Y-58138294D01*
X105350500Y-58149500D01*
X105078856Y-58149500D01*
X105040841Y-58154065D01*
X104994411Y-58159640D01*
X104860023Y-58212636D01*
X104843982Y-58224802D01*
X104778671Y-58249627D01*
X104769055Y-58250000D01*
X104250000Y-58250000D01*
X104250000Y-58385527D01*
X104230315Y-58452566D01*
X104219716Y-58466726D01*
X104217853Y-58468875D01*
X104215240Y-58472941D01*
X104198615Y-58493569D01*
X104012181Y-58680004D01*
X103950858Y-58713489D01*
X103881167Y-58708505D01*
X103825233Y-58666634D01*
X103800816Y-58601169D01*
X103800500Y-58592323D01*
X103800500Y-58367143D01*
X103803334Y-58340785D01*
X103804359Y-58336073D01*
X103800658Y-58284329D01*
X103800500Y-58279904D01*
X103800500Y-58264201D01*
X103798264Y-58248657D01*
X103797791Y-58244254D01*
X103797694Y-58242899D01*
X103794091Y-58192517D01*
X103792407Y-58188002D01*
X103785850Y-58162312D01*
X103785165Y-58157543D01*
X103782096Y-58150824D01*
X103763616Y-58110359D01*
X103761932Y-58106295D01*
X103743796Y-58057669D01*
X103740905Y-58053807D01*
X103727379Y-58031010D01*
X103725377Y-58026627D01*
X103716839Y-58016774D01*
X103691411Y-57987427D01*
X103688633Y-57983979D01*
X103679229Y-57971417D01*
X103679224Y-57971412D01*
X103679221Y-57971407D01*
X103668097Y-57960283D01*
X103665103Y-57957067D01*
X103631128Y-57917857D01*
X103631125Y-57917854D01*
X103627066Y-57915246D01*
X103606428Y-57898614D01*
X101678274Y-55970460D01*
X101644789Y-55909137D01*
X101642859Y-55897724D01*
X101636237Y-55843181D01*
X101614992Y-55787164D01*
X101580220Y-55695477D01*
X101490483Y-55565470D01*
X101372240Y-55460717D01*
X101372238Y-55460716D01*
X101372237Y-55460715D01*
X101232365Y-55387303D01*
X101078986Y-55349500D01*
X101078985Y-55349500D01*
X100921015Y-55349500D01*
X100921014Y-55349500D01*
X100767634Y-55387303D01*
X100627762Y-55460715D01*
X100509516Y-55565471D01*
X100419781Y-55695475D01*
X100419780Y-55695476D01*
X100363762Y-55843181D01*
X100344722Y-55999999D01*
X100344722Y-56000000D01*
X100363762Y-56156818D01*
X100419779Y-56304522D01*
X100419780Y-56304523D01*
X100509517Y-56434530D01*
X100627760Y-56539283D01*
X100627762Y-56539284D01*
X100767634Y-56612696D01*
X100767633Y-56612696D01*
X100916211Y-56649316D01*
X100974218Y-56682032D01*
X101093731Y-56801545D01*
X101127216Y-56862868D01*
X101122232Y-56932560D01*
X101080360Y-56988493D01*
X101014896Y-57012910D01*
X100977621Y-57009923D01*
X100403356Y-56874660D01*
X100375496Y-56864451D01*
X100375306Y-56864354D01*
X100375302Y-56864353D01*
X100329633Y-56857120D01*
X100325117Y-56856232D01*
X100311138Y-56852940D01*
X100311141Y-56852940D01*
X100299349Y-56852063D01*
X100298816Y-56852023D01*
X100293719Y-56851431D01*
X100250001Y-56844508D01*
X100249998Y-56844508D01*
X100247521Y-56844900D01*
X100218957Y-56846084D01*
X100216453Y-56845898D01*
X100216447Y-56845898D01*
X100173452Y-56856416D01*
X100168418Y-56857428D01*
X100143900Y-56861312D01*
X100074606Y-56852358D01*
X100021154Y-56807363D01*
X100000513Y-56740612D01*
X100000500Y-56738839D01*
X100000500Y-51899998D01*
X101844720Y-51899998D01*
X101863760Y-52056816D01*
X101904959Y-52165446D01*
X101919778Y-52204521D01*
X102009515Y-52334528D01*
X102127758Y-52439281D01*
X102267633Y-52512694D01*
X102369288Y-52537748D01*
X102427295Y-52570464D01*
X103022059Y-53165228D01*
X103065245Y-53211469D01*
X103101222Y-53233346D01*
X103106466Y-53236915D01*
X103140025Y-53262364D01*
X103155510Y-53268470D01*
X103174447Y-53277876D01*
X103188669Y-53286525D01*
X103188671Y-53286525D01*
X103188672Y-53286526D01*
X103229216Y-53297885D01*
X103235220Y-53299903D01*
X103274411Y-53315359D01*
X103280067Y-53315940D01*
X103290968Y-53317061D01*
X103311746Y-53321009D01*
X103327772Y-53325500D01*
X103369880Y-53325500D01*
X103376221Y-53325824D01*
X103418110Y-53330131D01*
X103434514Y-53327302D01*
X103455580Y-53325500D01*
X105730968Y-53325500D01*
X105798007Y-53345185D01*
X105818649Y-53361819D01*
X120188181Y-67731350D01*
X120221666Y-67792673D01*
X120224500Y-67819031D01*
X120224500Y-70208176D01*
X120204815Y-70275215D01*
X120188181Y-70295857D01*
X118795858Y-71688181D01*
X118734535Y-71721666D01*
X118708177Y-71724500D01*
X116119031Y-71724500D01*
X116051992Y-71704815D01*
X116031350Y-71688181D01*
X115673388Y-71330219D01*
X115639903Y-71268896D01*
X115637973Y-71257481D01*
X115636237Y-71243181D01*
X115595014Y-71134486D01*
X115580220Y-71095477D01*
X115490483Y-70965470D01*
X115372240Y-70860717D01*
X115372238Y-70860716D01*
X115372237Y-70860715D01*
X115232365Y-70787303D01*
X115078986Y-70749500D01*
X115078985Y-70749500D01*
X114921015Y-70749500D01*
X114921014Y-70749500D01*
X114767634Y-70787303D01*
X114627762Y-70860715D01*
X114509516Y-70965471D01*
X114419781Y-71095475D01*
X114419780Y-71095476D01*
X114363762Y-71243181D01*
X114344722Y-71399999D01*
X114344722Y-71400000D01*
X114363762Y-71556818D01*
X114406872Y-71670487D01*
X114419780Y-71704523D01*
X114509517Y-71834530D01*
X114627760Y-71939283D01*
X114627762Y-71939284D01*
X114713463Y-71984264D01*
X114763675Y-72032848D01*
X114779650Y-72100867D01*
X114756315Y-72166725D01*
X114713464Y-72203856D01*
X114652761Y-72235716D01*
X114534516Y-72340471D01*
X114444781Y-72470475D01*
X114444780Y-72470476D01*
X114388762Y-72618181D01*
X114369722Y-72774999D01*
X114369722Y-72775000D01*
X114388762Y-72931818D01*
X114444780Y-73079523D01*
X114458190Y-73098951D01*
X114480072Y-73165306D01*
X114462606Y-73232957D01*
X114458191Y-73239828D01*
X114419779Y-73295479D01*
X114363762Y-73443181D01*
X114344722Y-73599999D01*
X114344722Y-73600000D01*
X114363762Y-73756818D01*
X114415630Y-73893580D01*
X114419780Y-73904523D01*
X114509517Y-74034530D01*
X114627760Y-74139283D01*
X114627762Y-74139284D01*
X114767634Y-74212696D01*
X114921014Y-74250500D01*
X114921015Y-74250500D01*
X115078985Y-74250500D01*
X115232365Y-74212696D01*
X115338121Y-74157190D01*
X115372240Y-74139283D01*
X115490483Y-74034530D01*
X115580220Y-73904523D01*
X115598801Y-73855527D01*
X115640979Y-73799826D01*
X115706577Y-73775769D01*
X115714743Y-73775500D01*
X119241016Y-73775500D01*
X119304245Y-73777660D01*
X119345169Y-73767686D01*
X119351368Y-73766507D01*
X119393111Y-73760771D01*
X119408386Y-73754135D01*
X119428421Y-73747397D01*
X119444594Y-73743457D01*
X119481316Y-73722808D01*
X119486955Y-73720007D01*
X119525609Y-73703219D01*
X119538528Y-73692707D01*
X119555997Y-73680818D01*
X119570512Y-73672658D01*
X119600298Y-73642870D01*
X119604999Y-73638628D01*
X119637665Y-73612054D01*
X119647264Y-73598453D01*
X119660881Y-73582287D01*
X122015243Y-71227926D01*
X122061469Y-71184755D01*
X122083355Y-71148763D01*
X122086909Y-71143542D01*
X122112365Y-71109975D01*
X122118476Y-71094477D01*
X122127878Y-71075547D01*
X122136526Y-71061328D01*
X122147883Y-71020791D01*
X122149901Y-71014787D01*
X122165360Y-70975589D01*
X122167063Y-70959018D01*
X122171011Y-70938248D01*
X122175500Y-70922228D01*
X122175500Y-70880110D01*
X122175822Y-70873810D01*
X122180132Y-70831890D01*
X122177303Y-70815481D01*
X122175500Y-70794413D01*
X122175500Y-66845806D01*
X122175500Y-66845805D01*
X122177660Y-66782578D01*
X122167691Y-66741671D01*
X122166506Y-66735441D01*
X122160771Y-66693712D01*
X122154137Y-66678439D01*
X122147397Y-66658397D01*
X122143457Y-66642230D01*
X122143455Y-66642226D01*
X122122822Y-66605529D01*
X122119996Y-66599840D01*
X122103219Y-66561214D01*
X122103217Y-66561211D01*
X122092713Y-66548300D01*
X122080812Y-66530813D01*
X122072660Y-66516314D01*
X122072658Y-66516311D01*
X122042882Y-66486535D01*
X122038626Y-66481819D01*
X122034609Y-66476882D01*
X122012054Y-66449158D01*
X122012050Y-66449155D01*
X122012045Y-66449151D01*
X121998453Y-66439556D01*
X121982281Y-66425934D01*
X114638739Y-59082392D01*
X107279976Y-51723630D01*
X107246492Y-51662308D01*
X107244562Y-51650893D01*
X107242826Y-51636593D01*
X107221581Y-51580576D01*
X107186809Y-51488889D01*
X107097072Y-51358882D01*
X106978829Y-51254129D01*
X106978827Y-51254128D01*
X106978826Y-51254127D01*
X106838954Y-51180715D01*
X106685575Y-51142912D01*
X106685574Y-51142912D01*
X106527604Y-51142912D01*
X106527603Y-51142912D01*
X106374223Y-51180715D01*
X106234351Y-51254127D01*
X106116105Y-51358883D01*
X106026370Y-51488887D01*
X106026369Y-51488888D01*
X105986327Y-51594471D01*
X105944149Y-51650174D01*
X105878551Y-51674231D01*
X105870385Y-51674500D01*
X105429065Y-51674500D01*
X105371439Y-51660296D01*
X105232365Y-51587303D01*
X105078986Y-51549500D01*
X105078985Y-51549500D01*
X104921015Y-51549500D01*
X104921014Y-51549500D01*
X104767634Y-51587303D01*
X104627762Y-51660715D01*
X104612202Y-51674500D01*
X104534678Y-51743180D01*
X104509516Y-51765471D01*
X104419781Y-51895475D01*
X104419780Y-51895476D01*
X104363763Y-52043181D01*
X104348918Y-52165446D01*
X104321297Y-52229624D01*
X104263363Y-52268681D01*
X104225822Y-52274500D01*
X103669031Y-52274500D01*
X103601992Y-52254815D01*
X103581350Y-52238181D01*
X103173386Y-51830217D01*
X103139901Y-51768894D01*
X103137971Y-51757479D01*
X103136235Y-51743179D01*
X103101235Y-51650893D01*
X103080218Y-51595475D01*
X102990481Y-51465468D01*
X102872238Y-51360715D01*
X102872236Y-51360714D01*
X102872235Y-51360713D01*
X102732363Y-51287301D01*
X102578984Y-51249498D01*
X102578983Y-51249498D01*
X102421013Y-51249498D01*
X102421012Y-51249498D01*
X102267632Y-51287301D01*
X102127760Y-51360713D01*
X102009514Y-51465469D01*
X101919779Y-51595473D01*
X101919778Y-51595474D01*
X101863760Y-51743179D01*
X101844720Y-51899997D01*
X101844720Y-51899998D01*
X100000500Y-51899998D01*
X100000500Y-44000000D01*
X114000000Y-44000000D01*
X114000000Y-54000000D01*
X124000000Y-54000000D01*
X124000000Y-44000000D01*
X114000000Y-44000000D01*
X100000500Y-44000000D01*
X100000500Y-40002705D01*
X100000736Y-39997299D01*
X100004476Y-39954554D01*
X100016918Y-39828223D01*
X100020542Y-39808309D01*
X100038402Y-39741653D01*
X100066683Y-39648424D01*
X100072953Y-39632037D01*
X100104420Y-39564558D01*
X100105872Y-39561653D01*
X100150764Y-39477666D01*
X100154657Y-39471331D01*
X100187837Y-39423945D01*
X100200994Y-39405155D01*
X100203827Y-39401420D01*
X100263122Y-39329168D01*
X100267162Y-39324710D01*
X100324710Y-39267162D01*
X100329168Y-39263122D01*
X100401420Y-39203827D01*
X100405155Y-39200994D01*
X100471334Y-39154654D01*
X100477666Y-39150764D01*
X100561653Y-39105872D01*
X100564558Y-39104420D01*
X100632037Y-39072953D01*
X100648424Y-39066683D01*
X100741653Y-39038402D01*
X100808309Y-39020542D01*
X100828223Y-39016918D01*
X100954542Y-39004477D01*
X100997305Y-39000735D01*
X101002706Y-39000500D01*
X136997293Y-39000500D01*
X137002695Y-39000735D01*
G37*
%TD.AperFunction*%
%TD*%
M02*
